<svg xmlns="http://www.w3.org/2000/svg" viewBox="0 0 58.24 56.14"><defs><style>.cls-1{fill:#49469d;fill-rule:evenodd;}</style></defs><g id="Layer_2" data-name="Layer 2"><g id="Layer_2-2" data-name="Layer 2"><path class="cls-1" d="M30.64.1a30.75,30.75,0,0,0-.27,4.76c.06.06.16.06.31,0s.22.16.36-2.5c.05-.92.11-1.8.13-2s0-.31-.14-.35S30.74,0,30.64.1M27.53,1.57c-.35.11-.58.26-.58.38s.24.2.5.12a4,4,0,0,1,.6-.07c.33,0,.41,0,.53.22s.09.45-.49.58c-.92.21-1.25.52-1.25,1.18a.69.69,0,0,0,.31.66,1.1,1.1,0,0,0,1.26.16.59.59,0,0,1,.53,0c.47.18.51.09.47-.91-.06-1.28-.1-1.54-.29-1.85a1.41,1.41,0,0,0-1.59-.44m-3.3.35a.81.81,0,0,0-.36.2c-.12.14-.47.17-.55,0s-.37-.1-.37,0a28.34,28.34,0,0,0,.52,3.05c.11.15.47.13.53,0a3.35,3.35,0,0,0-.08-.87,7.76,7.76,0,0,1-.14-1.16c0-.38,0-.43.32-.63s.61-.28.88,0,.24.36.39,1.14c.22,1.17.27,1.3.48,1.36s.39,0,.23-1-.4-1.78-.68-2a1.7,1.7,0,0,0-1.17-.1M32.75,2a1.88,1.88,0,0,0-1,1.71c0,1,.61,1.57,1.73,1.58.51,0,.65,0,.72-.13s0-.32-.56-.36a3.69,3.69,0,0,1-.76-.16,1,1,0,0,1-.54-.81c0-.17,0-.18.68-.11.38,0,.92.08,1.19.08h.5V3.3a2.38,2.38,0,0,0-.17-.79A1.41,1.41,0,0,0,32.75,2m7.4.39a.4.4,0,0,0-.18.28,6.09,6.09,0,0,1-.47,1.17s-.09-.05-.16-.15a1.57,1.57,0,0,0-1.65-.42,2.42,2.42,0,0,0-1.14,1.85,1.62,1.62,0,0,0,.59,1.15,1.51,1.51,0,0,0,.82.23c.46,0,.58.06.72.23s.45.21.45,0,.34-1,.76-2.1.75-2.07.75-2.12-.3-.27-.49-.14m-6.26.2a.55.55,0,0,1,.22.48c0,.2,0,.23-.31.22A3.5,3.5,0,0,1,32.54,3a.83.83,0,0,1,.37-.55.82.82,0,0,1,1,.15M17,2.9c-.18.2-.18.29,0,.47s.59.11.59-.2-.37-.54-.61-.27m3.24,0a1.69,1.69,0,0,0-1,1.71A2.42,2.42,0,0,0,20,6a1.25,1.25,0,0,0,.8.2,1.62,1.62,0,0,0,1.32-2.65,1.46,1.46,0,0,0-1.9-.62m8.47.68c0,.46-.17.71-.54.8s-.59,0-.67-.33a.6.6,0,0,1,0-.45,1.92,1.92,0,0,1,1-.43c.17,0,.19,0,.19.41m-7.65-.22c1.09.46,1,2.31-.1,2.31a1.29,1.29,0,0,1-.67-2.25.63.63,0,0,1,.77-.06m17.65.43a.92.92,0,0,1,.51.74,2.69,2.69,0,0,1-.22.72c-.18.41-.29.54-.54.67-.45.23-.64.21-1-.12a.73.73,0,0,1-.28-.67c0-1,.75-1.73,1.49-1.34M17.51,4c-.12.12-.1.21.23,1A7.18,7.18,0,0,0,18.8,7c.1.06.18,0,.28-.06s.14-.17,0-.58L18.42,5c-.49-1.17-.6-1.3-.91-1M15,4.3c-.09.1-.09.17,0,.36s.18.42,0,.64-.14.37.26.37.33,0,.62.57a5.12,5.12,0,0,0,.87,1.38c.14.12.25.15.56.1.52-.07.71-.18.71-.44s0-.21-.28-.16c-.6.12-.57.14-1.11-.76a5.29,5.29,0,0,1-.51-1c0-.07.1-.19.22-.27.3-.18.42-.35.37-.48s-.23-.15-.61,0-.39.21-.46-.07S15.24,4,15,4.3M41.18,5a3,3,0,0,0-.43.3,2.92,2.92,0,0,0-.67,1.35c-.09.69.43,1.31,1.42,1.68.36.14.41.14.53,0s.08-.3-.47-.54c-.7-.31-.84-.47-.84-1,0-.67.05-.69.8-.23s1.16.63,1.37.52.45-1.18.15-1.65A1.58,1.58,0,0,0,41.18,5m1.24.55c.18.14.22.24.22.58a.81.81,0,0,1-.09.46s-.23,0-.4-.15-.45-.27-.62-.36c-.41-.19-.48-.35-.23-.55a1,1,0,0,1,1.12,0m-29.11.8c-.59.31-1.19,1.09-.85,1.12s.29,0,.63-.35.8-.44,1.05-.16.14.17-.29.6-.69.88-.62,1.28a1.18,1.18,0,0,0,.79.83A1.25,1.25,0,0,0,15.15,9c.2-.28.29-.34.5-.33.39,0,.36-.24-.11-.95a3.88,3.88,0,0,0-1.28-1.42.88.88,0,0,0-.95,0m30.74.52A1,1,0,0,0,44,8.09c.39.57.4.95,0,1.09s-.61-.07-.92-.47-.44-.38-.44-.21a.64.64,0,0,1,0,.2c-.07.18.58.86.94,1a1,1,0,0,0,1.36-.88,2.08,2.08,0,0,0-.25-.69,1.48,1.48,0,0,1-.23-.73c0-.23.05-.25.3-.24a.87.87,0,0,1,.55.27c.28.28.53.33.6.14s-.12-.46-.53-.72-.95-.33-1.28,0M10,7.1a.41.41,0,0,0-.1.21,14,14,0,0,0,1.8,2.05,2.65,2.65,0,0,1,.45.49s-.12,0-.27,0L10,9.35c-1.56-.4-1.67-.42-1.9-.3s-.31.32,0,.57a6.68,6.68,0,0,1,.46.52c.14.18.73.8,1.31,1.39.74.75,1.11,1.06,1.24,1.06s.24-.14.13-.43A14.34,14.34,0,0,0,10,10.9c-.61-.62-1.11-1.15-1.11-1.17a1.72,1.72,0,0,1,.56.12c.75.22,2.27.6,3,.74.5.1.58.1.77,0s.2-.18.15-.26-1.56-1.71-2.91-3.11C10.25,7,10.17,7,10,7.1m4.83.78a.81.81,0,0,1-.52,1.17c-.17,0-.25,0-.39-.18S13.73,8.31,14,8s.7-.41.83-.08M48.54,9a2.83,2.83,0,0,0-1.9,1.53,1.54,1.54,0,0,0-.23,1,2.05,2.05,0,0,0,.89,1.55c.33.24.41.25,1.08.25a2,2,0,0,0,1.06-.18,4.29,4.29,0,0,0,1.38-1.46A2,2,0,0,0,48.54,9m-14.95.32-1.11.3L32,9.78l-.49-.23c-.59-.29-.8-.27-2.43.15a16.54,16.54,0,0,1-2,.38,5.08,5.08,0,0,0-2.59.86,13.38,13.38,0,0,1-1.86.92c-1.69.68-2.19,1-2.19,1.37a3.28,3.28,0,0,0,.25.8A6.06,6.06,0,0,1,21,15.1a12.11,12.11,0,0,0,.5,2.26.94.94,0,0,1,.12.36c0,.14-.05.13-.75,0a3.22,3.22,0,0,0-.64-.07c-.33,0-.37,0-.7.47a1.94,1.94,0,0,1-1,.76l-.66.3v.6c0,.67,0,.71-.57.71a2.38,2.38,0,0,0-1.78,1.37l-.11.25-1.61.14a4.84,4.84,0,0,0-2.13.39A4.25,4.25,0,0,0,10,24a10.63,10.63,0,0,0-.37,2.72c0,.43-.13.32,2,1.89.85.62,2.28,1.68,3.18,2.36l3.33,2.48,5.76,4.26c1.23.91,1.32,1,1.63,1.55a2.94,2.94,0,0,0,1.35,1.35,4.41,4.41,0,0,0,1.67.48h.33l0,.63c0,.63,0,.64.42,1s.45.37.69.37a35.68,35.68,0,0,0,3.86-.89,12.73,12.73,0,0,0,2.48-1.82c1.19-1,2.66-2.18,3.84-3.13.59-.48,1.33-1.08,1.62-1.34s.68-.55.84-.66A2.52,2.52,0,0,0,43,35s.35-.31.73-.62a2.76,2.76,0,0,0,.69-.72,7.33,7.33,0,0,0-.45-1.39c-.16-.43-.36-.59-1.12-.87l-1.1-.4c-.44-.17-.37.07-.84-2.76-.18-1.13-.48-2.89-.66-3.92s-.46-2.67-.62-3.63c-.39-2.27-.42-2.35-1.12-2.89a9.21,9.21,0,0,1-1.95-2.05c-.29-.54-.24-.7.37-1.23l.46-.39,0-2.06c0-1.14.08-2.18.11-2.33s0-.28-.19-.41-.44-.16-1.7-.18a6.36,6.36,0,0,0-2,.15m16.07.38a1.54,1.54,0,0,1,.7.87,2.11,2.11,0,0,1-.56,1.55,1.93,1.93,0,0,1-1.49.7c-1.37,0-1.77-1.51-.7-2.62a1.71,1.71,0,0,1,2-.5M36.9,9.84a7.42,7.42,0,0,1,0,.9c0,.45,0,1.35,0,2l0,1.19-.44.4a1.84,1.84,0,0,0-.69,1.15,9.52,9.52,0,0,0,2.48,2.86c.49.4.38,0,1.07,4.06l1,5.88.33,2a3.4,3.4,0,0,0,.27,1,3.06,3.06,0,0,0,1.18.57,8.69,8.69,0,0,1,1.14.45,3.64,3.64,0,0,1,.37.71c.22.53.24.65.15.76s-1.18,1-2.35,1.93c-.38.29-.91.72-1.18,1s-.86.72-1.3,1.07l-1.12.92c-2.58,2.12-3.6,2.93-3.86,3.06a36.86,36.86,0,0,1-3.66,1c-.22,0-.3,0-.54-.24s-.28-.32-.28-.9c0-.78-.09-.89-.69-.89A2.87,2.87,0,0,1,26,39a3,3,0,0,0-.3-.55c-.11-.14-1.79-1.41-4.32-3.28l-1.75-1.3L15.74,31c-1.74-1.29-3.5-2.59-4.39-3.23-1.32-1-1.18-.71-1.09-2,.12-1.66.11-1.61.75-2.13a3.59,3.59,0,0,1,2.61-.89c2-.14,2.4-.26,2.4-.7a1.74,1.74,0,0,1,.78-.94,2,2,0,0,1,.91-.14h.63l.05-.26a6.54,6.54,0,0,0,.06-.78l0-.51.49-.23A2.5,2.5,0,0,0,20,18.28l.13-.2.87.23c1.4.37,1.55.25,1.09-.9a8.33,8.33,0,0,1-.38-1.53c-.24-1.59-.27-1.74-.47-2.08a2.22,2.22,0,0,1-.22-.47c0-.21.47-.46,2.73-1.33a3.16,3.16,0,0,0,.91-.52c.54-.52,1.27-.74,2.85-.88a7.82,7.82,0,0,0,1.64-.33,5.23,5.23,0,0,1,1.69-.36,4.18,4.18,0,0,1,.59.24l.45.21.59-.14a10.22,10.22,0,0,0,1-.3,5.89,5.89,0,0,1,1.89-.16,6,6,0,0,1,1.51.08m14.71,3.05c-.37.24-.88.59-1.13.77s-.75.5-1.1.73a2.14,2.14,0,0,0-.65.5.57.57,0,0,0,.17.25c.16.15.18.14.6-.15l.83-.52.4-.22.17.28c.39.63.33.91-.34,1.61a2.11,2.11,0,0,0-.5.68c0,.19.2.39.33.35a6.64,6.64,0,0,0,1.19-1.47l.1-.26.51,0a.92.92,0,0,0,.79-.15,1.18,1.18,0,0,0,.64-1.14c-.09-.63-.86-1.77-1.19-1.76a3.75,3.75,0,0,0-.82.46m-45.07.2a1.76,1.76,0,0,0-.73,1.12c0,.26-.09.36-.17.33s-.5.25-.43.38a.83.83,0,0,0,.29.21c.13.07.67.42,1.21.79a9.36,9.36,0,0,0,1.16.72c.21.05.44-.23.33-.41a4.69,4.69,0,0,0-.82-.62,6.44,6.44,0,0,1-.94-.72.87.87,0,0,1-.05-1c.11-.21.17-.24.48-.24s.51.09,1.29.59c1,.62,1.27.69,1.27.28,0-.16-.14-.29-.64-.63-1.25-.85-1.75-1-2.25-.83m46.25.41a1.08,1.08,0,0,1,0,1.24.87.87,0,0,1-1.17,0c-.33-.35-.5-.74-.37-.84a3.61,3.61,0,0,1,1.18-.67.8.8,0,0,1,.35.31m1.78,2.41c-.18.06-2.9,1.33-3.27,1.53a1.26,1.26,0,0,1-.42.16c-.33,0-.3.21.15,1.12a8.45,8.45,0,0,1,.45,1c0,.14.32.3.47.25s.15-.22-.22-1a5.2,5.2,0,0,1-.33-.85c0-.12.58-.42,2.48-1.26a5.83,5.83,0,0,0,1-.54c.14-.16.14-.17,0-.32s-.22-.14-.29-.11m-50,.6a2.11,2.11,0,0,0-.91,1.15,2,2,0,0,0,.37,1.26,2,2,0,0,0,2.14.57,1.83,1.83,0,0,0,.94-1.73,2.4,2.4,0,0,0-.31-.63,1.84,1.84,0,0,0-2.23-.62m1.21.63c.52.26.69.44.75.82.11.67-.36,1.11-1.08,1a1.21,1.21,0,0,1-1.21-1.32c.1-.71.73-.93,1.54-.53M1.77,19.4c-.34.23-.18.62.25.62.22,0,.24,0,.24-.33s0-.34-.14-.37-.13-.07-.35.08m1,.4a.58.58,0,0,0,0,.32c0,.16.29.28,1.52.72a5.92,5.92,0,0,0,1.55.45A.63.63,0,0,0,6,21c0-.23,0-.24-1.4-.73-1.83-.64-1.7-.61-1.76-.45m52.66,1.27-2,.55c-.85.22-1,.29-1,.42a17.29,17.29,0,0,0,.51,2c.1.27.22.36.38.3s.14-.19-.07-1.08a3.06,3.06,0,0,1-.13-.88A3,3,0,0,1,54.21,22c2.55-.63,2.9-.79,2.61-1.14-.13-.16-.21-.15-1.37.18m-35.2,0a9.14,9.14,0,0,0-2.14,3.38,1.25,1.25,0,0,0,.79.93l.37.18L19,26c-.29.56-.3.59-.05,1s.18.31.09.44c-.22.31-.14.56.35,1.06l.47.47-.13.4a1.35,1.35,0,0,0,.55,1.82,3.48,3.48,0,0,0,1.47.33c1.26.14,1.56.27,1.84.79a2.05,2.05,0,0,1,0,1.18,2.65,2.65,0,0,1-1.08,1c-.42.22-.56.52-.31.62a2.37,2.37,0,0,0,1.31-.61A1.93,1.93,0,0,0,24.07,32c-.37-.65-.85-.88-2-1s-1.39-.16-1.62-.4-.28-.63,0-1.34l.19-.53-.25-.21c-.93-.78-.95-.84-.46-1.17a1.19,1.19,0,0,1,.88-.19c.89,0,.87,0,.87-.21s-.55-.48-1.73-.33a1.39,1.39,0,0,1-.52,0,1.54,1.54,0,0,1,.41-.67c.17-.15.19-.15.7,0a1.92,1.92,0,0,0,1.34.06c.21-.18.17-.61-.1-1-.59-.8-1.2-1.06-1.44-.6-.07.13,0,.18.3.33s.71.5.71.67-.32.08-.74-.09c-.21-.08-.66-.24-1-.34-.7-.22-.9-.39-.82-.73A10.21,10.21,0,0,1,20.17,22c.63-.8.7-1,.48-1.06s-.19-.07-.4.15M36.41,21a.51.51,0,0,0,.05.33c.17.3,0,.59-.93,2.35a21.7,21.7,0,0,0-1.74,3.7,1.75,1.75,0,0,1-.17.45c-.07.08-.29,0-.85-.4s-.48-.44-.24-.66A4.5,4.5,0,0,0,33,26a2.17,2.17,0,0,0,.33-1.39,2,2,0,0,0-.25-1.23,1.58,1.58,0,0,0-1.91-.91,2.44,2.44,0,0,0-1.12,1.24c-.2.67-.1,1.19.23,1.19s.34.18.15.44l-.18.25.25.22a1.15,1.15,0,0,1,.31.51,1.33,1.33,0,0,0,.31.55l.26.26-.36.29a9.24,9.24,0,0,1-2.94,1.44c-.32.07-.28.41.05.44a7.43,7.43,0,0,0,3.09-1.36,2.07,2.07,0,0,1,.59-.37,1.41,1.41,0,0,1,.45.24,8.43,8.43,0,0,0,.82.5l.48.26,0,.74A4.66,4.66,0,0,0,35.21,33a7.17,7.17,0,0,0,2.2,1.44c1.08.52,1.47.62,1.64.42S39,34.49,38,34c-2.58-1.11-3.86-2.68-3.86-4.74,0-1.38.54-2.95,1.82-5.24a7.74,7.74,0,0,0,1.18-2.61c0-.41-.59-.8-.72-.47m-34,.14a1.78,1.78,0,0,0-.14.43c0,.3-.06.31-.32.25-.53-.12-.68-.09-.68.14s.08.25.33.38.34.22.36.44.06.26.1.26a.59.59,0,0,1,.19.05c.08,0,.16-.05.23-.22s.14-.24.24-.2a15.73,15.73,0,0,0,2,.45c.45,0,.57-.08.7-.5.2-.61.18-.76-.09-.73s-.25.09-.31.29a.5.5,0,0,1-.21.32,5.1,5.1,0,0,1-1.08-.21l-1-.25a1.78,1.78,0,0,1,0-.5c0-.46,0-.5-.11-.5a.41.41,0,0,0-.26.1m29.79,2a1.64,1.64,0,0,1,.54,1.3,1.63,1.63,0,0,1-.18,1.08c-.3.67-.56,1-.73,1s-.26-.17-.08-.37a.74.74,0,0,0,.18-.44c0-.22-.05-.28-.25-.35s-.35-.26-.17-.26.06-.05,0-.11a.2.2,0,0,1,.08-.22.41.41,0,0,0,0-.61,1.88,1.88,0,0,0-.54-.23c-.43-.11-.52-.27-.33-.57a1.09,1.09,0,0,1,1.45-.26M1.88,24.21c-.47.47-.63,1.52-.28,1.77s.32.1.32-.41.13-.92.39-1,.39,0,.42.59a1.91,1.91,0,0,0,.57,1.37C4.12,27,5,26.33,4.82,25.2a1,1,0,0,1,.09-.6c.1-.17.11-.26,0-.33a10.54,10.54,0,0,0-2.36-.33.76.76,0,0,0-.72.27M57,24.27c-.22.22-.21.39,0,.55s.63,0,.57-.28-.31-.55-.6-.27m-2.65.41-1.27.21v.28c0,.27,0,.27.36.27a18.06,18.06,0,0,0,2.92-.5.38.38,0,0,0,0-.29c0-.19-.09-.21-.4-.2s-.93.11-1.63.23m-23.3,0c-.06.07-.11.12-.13.12a.31.31,0,0,1-.07-.12c0-.09,0-.13.13-.13s.16,0,.07.13m-27,.17a.81.81,0,0,1,.17.93.4.4,0,0,1-.39.26c-.42,0-.59-.21-.59-.89v-.53l.31.06a1.82,1.82,0,0,1,.5.17m52.46,1.37c-3.1.18-3.23.19-3.27.31s0,.2.13.31.16.21.13.24a.63.63,0,0,0-.09.28c-.17,1-.12,1.18.43,1.69a1.54,1.54,0,0,0,1.4.4,1.81,1.81,0,0,0,1.26-.67.9.9,0,0,0,.25-.75,1.67,1.67,0,0,0-.19-.78c-.2-.41-.21-.48-.06-.42a3.55,3.55,0,0,0,.85,0c.66-.06.87-.14.87-.35s-.28-.32-.48-.31l-1.23.07m-.62,1a.78.78,0,0,1,.3.6.57.57,0,0,1-.22.64,1.38,1.38,0,0,1-1.28.33.86.86,0,0,1-.62-.26.89.89,0,0,1,.26-1.42,2.28,2.28,0,0,1,.78-.12c.46,0,.56,0,.78.23m-55.8,0a.34.34,0,0,0,.1.57c.33.12.47,0,.44-.33s-.06-.3-.23-.32a.37.37,0,0,0-.31.08m1.15.1a.48.48,0,0,0-.07.32c0,.19.06.19,1.59.3C3.64,28,4.4,28,4.47,28s.17-.52.06-.58-.59-.06-1.23-.09-1.34-.08-1.55-.1-.41,0-.49.08M4,28.67c-.07,0-.08.2-.05.6.08.93-.26,1.36-1.08,1.37-.58,0-.94-.14-1.09-.48A1.82,1.82,0,0,1,1.71,29c.06-.21,0-.23-.14-.23s-.44.21-.43.76a1.63,1.63,0,0,0,1.57,1.74A1.65,1.65,0,0,0,4.1,30.8c.67-.71.61-2.37-.07-2.13m50.16,1.47a1.76,1.76,0,0,0-.93,1.61c0,.45,0,.53.14.69s.38.19.35-.35c0-.81.39-1.48,1-1.48.16,0,.17,0,.11.63-.14,1.61-.09,1.76.63,1.68a1.39,1.39,0,0,0,.46-2.61,2.41,2.41,0,0,0-1.75-.17m1.55.68A.77.77,0,0,1,56,32.06c-.17.24-.27.31-.46.31h-.25v-.78c0-.69,0-.89.14-.89l.28.12m1.25.83c0,.35.83,1.09,1,.9s-.15-.66-.54-.88-.48-.27-.48,0M2.65,32a1.65,1.65,0,0,0-.94.72,1.53,1.53,0,0,0,1.18,2.38,1.86,1.86,0,0,0,1.88-.93,1.51,1.51,0,0,0-.15-1.59,1.73,1.73,0,0,0-2-.58m1.28.7a1,1,0,0,1,.46.9,1.32,1.32,0,0,1-.78.79,1.78,1.78,0,0,1-1.18,0,1.19,1.19,0,0,1-.51-.84,1.3,1.3,0,0,1,.63-.82,1.88,1.88,0,0,1,1.38,0m49.14.89a.32.32,0,0,0,.08.47,8.62,8.62,0,0,0,.88.2c1.14.22,1.23.27,1.53.91s.46.69.55.39a1.49,1.49,0,0,0-.22-.89c0-.07,0-.12.17-.15s.37-.21.27-.36-.42-.2-2-.48c-1.31-.25-1.16-.24-1.28-.09M4.2,35.51a1.19,1.19,0,0,0-.61.86c0,.33-.18.91-.3,1-.3.12-.59-.24-.64-.77s-.1-.49-.29-.38-.22.64,0,1.07a.87.87,0,0,0,1,.59c.4-.07.63-.36.74-.93.14-.74.22-.88.51-.85s.59.37.61.88,0,.4.22.4.21,0,.23-.44c.06-1-.72-1.76-1.46-1.38m48.59.12a1.25,1.25,0,0,0-.47,1.1c0,.35,0,.49-.17.6-.31.28-.17.39.92.72,1.61.49,2,.42,2.39-.38.22-.49.26-1.14.07-1.3s-.29,0-.29.24c0,.62-.34,1.18-.72,1.18-.22,0-.22,0-.16-.52a3.26,3.26,0,0,0,0-.9,1,1,0,0,0-1.54-.74m.87.65a.75.75,0,0,1,.11,1c-.15.31-.31.35-.6.15a.85.85,0,0,1-.2-1.23c.18-.21.41-.18.69.1M5,38a1.39,1.39,0,0,0-.49,1.1c-.07.63-.18.82-.47.82s-.45-.36-.45-.69-.34-.53-.49-.24.11.95.45,1.26a.75.75,0,0,0,1,.11c.36-.16.39-.22.5-1.06s.21-.86.57-.77a1.23,1.23,0,0,1,.57.92c0,.26.31.47.42.29.24-.37-.24-1.51-.72-1.73A1.22,1.22,0,0,0,5,38m46.47,1A1.49,1.49,0,0,0,51,40.21c0,.1,0,.21-.19.32s-.41.64-.19.56a2.73,2.73,0,0,1,.88.32c1.89.9,2.18,1,2.18.55,0-.18-.11-.26-.93-.67a10.9,10.9,0,0,1-1-.56,1,1,0,0,1-.14-.92c.18-.5.6-.45,2,.19a2.85,2.85,0,0,0,.9.32c.15,0,.26-.43.15-.52a9.68,9.68,0,0,0-2.38-1c-.43,0-.47,0-.75.23M6.76,40a1.34,1.34,0,0,1-.28.36c-.63.67-2.81,3.19-2.81,3.26a1,1,0,0,0,.2.29l.2.23,1.57-.32,2.25-.44a3,3,0,0,0,.73-.18s0-.17,0-.3,0-.25-1.06,0c-.6.14-.55.18-1-.69l-.33-.61.46-.56c.48-.6.56-.86.29-1-.09,0-.17-.06-.17,0m43.32,1.64c-.07.17,0,.32.19.9l.29.69-.78,0c-.79,0-1.08.15-1,.4s.19.13,1,.13h1l.29.71c.31.79.4.92.58.92s.1-.68-.13-1.19a2.18,2.18,0,0,1-.18-.48s.26-.09.7-.09c.66,0,.72,0,.85-.2s.1-.25.07-.29a2.17,2.17,0,0,0-.93-.08,5,5,0,0,1-.92,0s-.18-.39-.36-.82a2.33,2.33,0,0,0-.44-.8c-.06,0-.15.07-.21.18m-44,.81a1.64,1.64,0,0,1,.24.56.48.48,0,0,1-.32.21,9.5,9.5,0,0,1-1.5.25,15.83,15.83,0,0,1,1.26-1.44,1.85,1.85,0,0,1,.32.42M18,43.9c-.46.44-4.08,3.61-5.56,4.89a4.43,4.43,0,0,0-.61.58,2.54,2.54,0,0,0,.55.48c1,.74.86.73,1.45.09.29-.31.67-.67.85-.82.38-.29.45-.28,1.07.26l.36.31-.39.79c-.22.43-.48.9-.56,1.05l-.16.26.39.28a7,7,0,0,1,.73.55c.39.35.41.34.84-.65s3.18-6.93,3.28-7.1a3.9,3.9,0,0,0-.67-.55,8.22,8.22,0,0,1-.81-.64c-.17-.21-.35-.16-.76.22m20.6.14c-.07.08-.35.31-.6.51s-.47.39-.47.45a8.46,8.46,0,0,0,.77,1c1.48,1.75,4.28,5.1,4.5,5.39l.22.28.21-.16,1.26-1.06c.58-.49,1.22-1,1.43-1.17a1.49,1.49,0,0,0,.37-.32,1.41,1.41,0,0,0-.26-.35,4.26,4.26,0,0,1-.46-.59c-.11-.17-.23-.31-.27-.31A1.42,1.42,0,0,0,45,48c-.16.16-.57.51-.92.78l-.63.49-.71-.83-1.94-2.31c-.69-.81-1.38-1.65-1.54-1.87-.33-.44-.41-.47-.61-.24m-21,2.82c-.34.59-.65,1.16-.68,1.26s-.06.2-.24,0a2.3,2.3,0,0,0-.35-.25c-.17-.09-.11-.16.83-1.13.56-.56,1-1,1-1a10.19,10.19,0,0,1-.6,1.1m5.5-.21c0,.06-.06.24-.09.4s-.23,1.27-.46,2.46c-.82,4.41-1,5.1-1,5.34s0,.24.66.39c1.1.24,1,.47,1.35-2,.2-1.2.4-2.5.46-2.89s.11-.66.12-.59.08.58.15,1.13c.23,1.78.69,4.77.74,4.86a1,1,0,0,0,.45.14c.22,0,.64.11.93.18a2.27,2.27,0,0,0,.56.1s.29-1.46.62-3.2.68-3.64.79-4.21a4.68,4.68,0,0,0,.15-1.1,10.06,10.06,0,0,0-1.48-.27c-.17,0-.26.4-.8,3.58-.14.82-.27,1.51-.29,1.53s-.11-.29-.21-1.2c-.05-.45-.14-1.13-.2-1.5s-.18-1.12-.26-1.67A4.74,4.74,0,0,0,25.08,47a3.27,3.27,0,0,0-.88-.23,9.23,9.23,0,0,1-.94-.18c-.09,0-.16,0-.18.06m9.92.06A2.8,2.8,0,0,0,31.27,48a1.65,1.65,0,0,0-.12,1,20.1,20.1,0,0,0,1.37,5.05,2.63,2.63,0,0,0,1.07,1.16,1.77,1.77,0,0,0,1,.16A2.68,2.68,0,0,0,37.1,54a1.64,1.64,0,0,0,.17-1.18,17.62,17.62,0,0,0-1.68-5.4A2.06,2.06,0,0,0,33,46.71m1,1.57c.27.28.36.53,1,2.61.71,2.5.73,2.83.12,3s-.68.05-1-.81A32.09,32.09,0,0,1,32.9,49c0-.43,0-.5.17-.69a.58.58,0,0,1,.91,0"/></g></g></svg>