<svg xmlns="http://www.w3.org/2000/svg" viewBox="0 0 122.49 44.52"><defs><style>.cls-1{fill:#064c7d;}.cls-2{fill:#26a550;}.cls-3{fill:#2095c4;}</style></defs><g id="Layer_2" data-name="Layer 2"><g id="Layer_2-2" data-name="Layer 2"><path class="cls-1" d="M118.23,8.16a.42.42,0,0,1,.32-.56.92.92,0,0,1,.38,0,.21.21,0,0,1,.1.28.23.23,0,0,1-.15.12.9.9,0,0,1-.26,0,.05.05,0,0,0-.06.05h0v0a.09.09,0,0,0,.09.1h.43a.06.06,0,0,1,.06.06h0v.25a.07.07,0,0,1-.07.07h-1a.07.07,0,0,1-.08-.08h0a.37.37,0,0,1,.24-.3,0,0,0,0,0,0-.06Z"/><path class="cls-1" d="M117.66,9.47V8.82a0,0,0,0,1,0,0h0a6.77,6.77,0,0,1,1.45.59.05.05,0,0,0,.08,0v0a5.16,5.16,0,0,0,.11-.89V7.62s0,0,0,0h.75a0,0,0,0,1,0,0,5,5,0,0,1-.27,2.18.12.12,0,0,0,0,.12,2.38,2.38,0,0,1,.74,2.23.05.05,0,0,1-.05,0h-2.94a.21.21,0,0,1-.19-.14l-.19-.5a.11.11,0,0,1,0-.15,6.73,6.73,0,0,0,1.49-1.27.1.1,0,0,0,0-.14h0l-1.11-.45A.08.08,0,0,1,117.66,9.47Zm.79,2h1.34a.09.09,0,0,0,.08-.09h0a1.7,1.7,0,0,0-.39-.8.06.06,0,0,0-.07,0h0l-1,.87s0,0,0,0Z"/><path class="cls-1" d="M76.31,12.07a.06.06,0,0,0-.08,0s0,0,0,0a1.3,1.3,0,0,1-1.11,1.41.2.2,0,0,1-.22-.1l-.24-.53a.07.07,0,0,1,0-.09h0l.28-.08c.29-.09.37-.31.37-.61,0-.68,0-1.61,0-2.77a.07.07,0,0,1,.07-.07h.72a.07.07,0,0,1,.07.07h0v1.81a.2.2,0,0,0,0,.13c.25.29,1.11.19,1.45.15a0,0,0,0,0,0,0v0l-.69-1a.31.31,0,0,1,0-.23l.14-.58a.14.14,0,0,1,.09-.11c1-.43,2-.61,2.75.19a1.17,1.17,0,0,1-.27,1.71.06.06,0,0,0,0,.09l0,0h3.5a0,0,0,0,0,0-.05h0V7.75a.06.06,0,0,1,.06-.06h.68a.07.07,0,0,1,.06.07v4.36a.08.08,0,0,1-.07.08H80A10.69,10.69,0,0,1,78.85,12h-.17A11.69,11.69,0,0,1,77,12.2,1.62,1.62,0,0,1,76.31,12.07Zm1.51-1.87a4.15,4.15,0,0,0,.85,1.11.08.08,0,0,0,.08,0c.35-.19.75-.52.68-1-.09-.64-1.2-.44-1.57-.26a.07.07,0,0,0,0,.1Z"/><rect class="cls-1" x="85.12" y="7.69" width="0.86" height="4.51" rx="0.06"/><path class="cls-1" d="M114.33,9.52a3.06,3.06,0,0,1,2.1.34c.68.52.36,1.63.1,2.26a.12.12,0,0,1-.11.07h-5.1a1,1,0,0,1-1.14-1.15V7.77a.09.09,0,0,1,.08-.08h.67a.08.08,0,0,1,.08.08q0,2.16,0,3.12c0,.51.18.59.66.59h4.12a.11.11,0,0,0,.1-.06.87.87,0,0,0,0-.93.2.2,0,0,0-.09-.09,1.4,1.4,0,0,0-.68-.17h-1.36a.11.11,0,0,1-.1-.06l-.27-.56a.14.14,0,0,1,0-.15l1.49-1.66a.38.38,0,0,1,.27-.12h.76a.06.06,0,0,1,0,.06,0,0,0,0,1,0,0l-1.67,1.67a0,0,0,0,0,0,.07Z"/><rect class="cls-1" x="121.41" y="7.69" width="0.84" height="4.51" rx="0.06"/><rect class="cls-1" x="59.24" y="7.99" width="0.77" height="0.84" rx="0.07" transform="translate(51.11 68.01) rotate(-89.9)"/><rect class="cls-1" x="60.38" y="8.03" width="0.85" height="0.77" rx="0.06" transform="translate(-0.04 0.32) rotate(-0.3)"/><rect class="cls-1" x="88.5" y="8.02" width="0.85" height="0.77" rx="0.06" transform="translate(-0.03 0.31) rotate(-0.2)"/><rect class="cls-1" x="89.72" y="7.98" width="0.77" height="0.86" rx="0.05" transform="translate(81.54 98.5) rotate(-89.9)"/><path class="cls-1" d="M71.23,11.79s0,0,0,0h0c-.36.45-.81.41-1.44.41H61.68c-1.4,0-1.14-1.23-1.16-2.16a.08.08,0,0,0-.07-.08.77.77,0,0,0-.84.22.79.79,0,0,0,.73,1.29.1.1,0,0,1,.11.08.07.07,0,0,1,0,0l-.22.48a.22.22,0,0,1-.22.13,1.49,1.49,0,0,1,0-3,4.21,4.21,0,0,1,1.27.1.08.08,0,0,1,.07.08c0,.82,0,1.34,0,1.55s.15.52.47.52h8.08c.46,0,.7-.21.71-.64s0-1.05,0-1.57t.06-.06h.69a.06.06,0,0,1,0,.06h0v1.9a.16.16,0,0,0,0,.11.66.66,0,0,0,.45.19h1.57a.07.07,0,0,0,.07-.07h0V9.34a.05.05,0,0,1,.06-.06h.72a.06.06,0,0,1,.06.06h0v2.79a.07.07,0,0,1-.07.07H72.18A1.19,1.19,0,0,1,71.23,11.79Z"/><path class="cls-1" d="M105.27,9.32a0,0,0,0,1,0,0H106a0,0,0,0,1,0,.05v2.82a0,0,0,0,1,0,0h-2.5a1.4,1.4,0,0,1-.84-.33.09.09,0,0,0-.1,0,3.34,3.34,0,0,1-2.13.33c-.63,0-1.09,0-1.44-.38a.07.07,0,0,0-.1,0h0a1.14,1.14,0,0,1-.74.38H91a1,1,0,0,1-1-.55A5.86,5.86,0,0,1,89.82,10a.07.07,0,0,0-.07-.07c-.61,0-1,.13-1,.81s.35.78.92.7a.07.07,0,0,1,.07,0,0,0,0,0,1,0,0l-.23.58a.13.13,0,0,1-.12.08,1.48,1.48,0,0,1-.46-2.9,3.91,3.91,0,0,1,1.7,0s0,0,0,.05c0,.62,0,1.18,0,1.71a.36.36,0,0,0,.41.39q4.56,0,6.55,0a.67.67,0,0,0,.77-.74c0-.53,0-1,0-1.48a.06.06,0,0,1,0-.06h.73a.06.06,0,0,1,0,.06v1.88a.28.28,0,0,0,.25.28l.69.07a.18.18,0,0,0,.19-.15V9.4a.07.07,0,0,1,.06-.07c.92-.17,1.83-.27,2.41.52a1.54,1.54,0,0,1,.19,1.42.08.08,0,0,0,0,.09.66.66,0,0,0,.26.11h1.87a.09.09,0,0,0,.08-.08h0Zm-4.1.7v1.39a.08.08,0,0,0,.08.07h.33a.66.66,0,0,0,.66-.67h0v-.2a.66.66,0,0,0-.66-.67h-.33a.08.08,0,0,0-.08.08Z"/><path class="cls-1" d="M106.48,11.49s0,0,0,0h0a7,7,0,0,0,2-.09.08.08,0,0,0,0-.1l-.75-1.95a.1.1,0,0,1,0-.11h.66a.2.2,0,0,1,.2.14l.82,2.12a.34.34,0,0,1,0,.1.76.76,0,0,1-.1.29.14.14,0,0,1-.09.08,6.52,6.52,0,0,1-2.53.23.07.07,0,0,1-.06,0Z"/><rect class="cls-1" x="69.85" y="12.69" width="0.82" height="0.72" rx="0.06" transform="translate(-0.05 0.25) rotate(-0.2)"/><rect class="cls-1" x="71.06" y="12.62" width="0.72" height="0.87" rx="0.06" transform="translate(57.87 84.38) rotate(-89.6)"/><rect class="cls-1" x="73.5" y="12.69" width="0.87" height="0.72" rx="0.06"/><rect class="cls-1" x="97.67" y="12.63" width="0.73" height="0.85" rx="0.06" transform="translate(84.29 110.99) rotate(-89.6)"/><rect class="cls-1" x="98.85" y="12.63" width="0.73" height="0.84" rx="0.06" transform="translate(85.99 112.25) rotate(-89.9)"/><rect class="cls-1" x="104.26" y="12.61" width="0.72" height="0.88" rx="0.06" transform="translate(91.39 117.66) rotate(-89.9)"/><rect class="cls-1" x="105.44" y="12.63" width="0.73" height="0.85" rx="0.07" transform="translate(92.38 118.81) rotate(-89.8)"/><path class="cls-1" d="M66.38,15l0,3.35a.45.45,0,0,0,0,.11q.06.23.51.24a.59.59,0,0,0,.66-.41V16.61a.07.07,0,0,1,.07-.07h.74a.06.06,0,0,1,.06.06v1.88a.23.23,0,0,0,.23.23h.51a.12.12,0,0,0,.13-.12h0V16.66a.08.08,0,0,1,.07-.08,6.07,6.07,0,0,1,1.41-.08A1.47,1.47,0,0,1,72.09,18v0l-.09.44a.2.2,0,0,0,.16.23h.78a.14.14,0,0,0,.14-.14h0V15a.06.06,0,0,1,.06-.06h.7a.06.06,0,0,1,.06.06h0v4.35a.06.06,0,0,1-.05.06h0c-.63,0-1,0-1.22,0a1.34,1.34,0,0,1-.92-.3.11.11,0,0,0-.13,0,1.56,1.56,0,0,1-1,.3H69a1.32,1.32,0,0,1-.77-.29.08.08,0,0,0-.1,0,1.31,1.31,0,0,1-1,.29l-.68,0c-.69-.07-.85-.66-.84-1.3V15A.06.06,0,0,1,65.6,15h.72A.06.06,0,0,1,66.38,15Zm3.77,2.26v1.35a.09.09,0,0,0,.09.09h.31a.67.67,0,0,0,.67-.67v-.19a.67.67,0,0,0-.67-.67h-.31A.09.09,0,0,0,70.15,17.29Z"/><rect class="cls-1" x="74.87" y="14.97" width="0.84" height="4.47" rx="0.05"/><path class="cls-1" d="M87.38,19.37a1.3,1.3,0,0,1-1.13,1.43.19.19,0,0,1-.22-.12l-.19-.5A.11.11,0,0,1,85.9,20h0c.4,0,.61-.25.64-.71,0-.31,0-1.21,0-2.7a.07.07,0,0,1,.07-.07h.66a.07.07,0,0,1,.07.06v1.8a.31.31,0,0,0,.31.32h.67a.18.18,0,0,0,.17-.17V15a0,0,0,0,1,0,0h.71a0,0,0,0,1,0,0h0v4.36a.07.07,0,0,1-.07.07h-.9a1.84,1.84,0,0,1-.91-.11.05.05,0,0,0-.08,0S87.38,19.36,87.38,19.37Z"/><rect class="cls-1" x="90.34" y="14.97" width="0.84" height="4.47" rx="0.05"/><path class="cls-1" d="M112,19.11c-.14.22-.43.33-.89.32h-2.18c-1,0-1.15-.66-1.14-1.56s0-1.78,0-2.84a.07.07,0,0,1,.07-.07h.71a.07.07,0,0,1,.07.06v3.34a.36.36,0,0,0,.35.36h.6a.19.19,0,0,0,.19-.19h0V16.59a0,0,0,0,1,0-.05h.73a0,0,0,0,1,0,.05h0v1.93a.23.23,0,0,0,.23.23h.06l.21-.06a.51.51,0,0,0,.39-.5V16.6a.06.06,0,0,1,.06-.06h.73a.06.06,0,0,1,.06.06v1.56a.56.56,0,0,0,.56.57h0a.55.55,0,0,0,.56-.53h0V16.33a0,0,0,0,1,0,0h.73a.06.06,0,0,1,.06.06v2.17a.09.09,0,0,0,0,.07.75.75,0,0,0,.38.13c.49,0,1.11,0,1.85,0a3.31,3.31,0,0,0,.94-.16.08.08,0,0,0,0-.09h0c-.06-.13-.12-.29-.2-.49a1.11,1.11,0,0,0-1.58-.57.09.09,0,0,1-.12-.06l-.2-.52a.09.09,0,0,1,0-.12,1.83,1.83,0,0,1,2.59.83c.21.54.32,1.19,1,1.2.48,0,.63-.28.63-.74,0-.72,0-1.7,0-2.95a.07.07,0,0,1,.07-.07h.69a.07.07,0,0,1,.07.07h0v3.43a.26.26,0,0,0,.26.25h.71a.14.14,0,0,0,.14-.14h0V15a.06.06,0,0,1,.06,0h.69a.05.05,0,0,1,.06.06h0v4.33a.08.08,0,0,1-.07.08c-.81,0-1.33,0-1.54,0a1.55,1.55,0,0,1-.56-.28.08.08,0,0,0-.11,0,1.15,1.15,0,0,1-.92.29,1.83,1.83,0,0,1-1.36-.36.12.12,0,0,0-.1,0,4.65,4.65,0,0,1-.88.29,9.82,9.82,0,0,1-1.68.07c-.55,0-.85,0-1.18-.37a.06.06,0,0,0-.09,0h0a1.44,1.44,0,0,1-1.92,0,.06.06,0,0,0-.08,0Z"/><rect class="cls-1" x="59" y="15.25" width="0.75" height="0.86" rx="0.06" transform="translate(43.59 75.03) rotate(-89.9)"/><rect class="cls-1" x="60.17" y="15.25" width="0.75" height="0.86" rx="0.06" transform="translate(44.76 76.2) rotate(-89.9)"/><rect class="cls-1" x="67.64" y="15.25" width="0.75" height="0.87" rx="0.06" transform="translate(52.21 83.67) rotate(-89.9)"/><rect class="cls-1" x="96.46" y="15.26" width="0.75" height="0.85" rx="0.06" transform="translate(80.82 112.46) rotate(-89.8)"/><rect class="cls-1" x="97.61" y="15.31" width="0.84" height="0.75" rx="0.06" transform="translate(-0.03 0.17) rotate(-0.1)"/><path class="cls-1" d="M97.61,18.71s0,0,.06,0v0l-.23.57a.14.14,0,0,1-.14.09,1.42,1.42,0,0,1-1.4-2c.39-1.15,1.66-1,2.6-.89a.11.11,0,0,1,.08.1c0,.55,0,1.1,0,1.65s.41.4.81.42c.58,0,.86-.24.85-.82,0,0,0-.47,0-1.39a0,0,0,0,1,0-.05H101a0,0,0,0,1,0,.05h0v1.93a.26.26,0,0,0,.26.26h1a0,0,0,0,0,0,0V16.61a.07.07,0,0,1,.07-.07h.69a.07.07,0,0,1,.07.07v1.9a.29.29,0,0,0,.28.28.27.27,0,0,0,.12,0l.14-.07a.66.66,0,0,0,.38-.6V16.58a0,0,0,0,1,0,0h.74a0,0,0,0,1,0,.05h0V18.2a.47.47,0,0,0,.34.44l.46.12a.28.28,0,0,0,.34-.19s0-.05,0-.07V16.34a.08.08,0,0,1,.07-.07h.69a.08.08,0,0,1,.07.08h0v3a.08.08,0,0,1-.07.08c-.81,0-1.34,0-1.6,0a1.25,1.25,0,0,1-.56-.27.09.09,0,0,0-.1,0,1.05,1.05,0,0,1-.55.28c-.21,0-1,0-2.3,0a1.17,1.17,0,0,1-.93-.36.06.06,0,0,0-.09,0h0c-.3.4-.75.37-1.28.36h-.72c-1.2,0-1-1.36-1-2.12a.08.08,0,0,0-.07-.08,1.21,1.21,0,0,0-.6,0,.84.84,0,0,0,0,1.43A1.22,1.22,0,0,0,97.61,18.71Z"/><path class="cls-1" d="M62.15,18.73a0,0,0,0,0,0,0s0,0,0,0a1.46,1.46,0,0,1,.9-2.13,2.23,2.23,0,0,1,1.57.21.11.11,0,0,1,0,.15l-.2.5a.09.09,0,0,1-.12.05h0a1.27,1.27,0,0,0-1.06-.08c-.55.18-.53.91-.25,1.29a.17.17,0,0,0,.13.07h1.66a0,0,0,0,1,.05.05h0l-.13.55a.11.11,0,0,1-.11.09H61.3a.88.88,0,0,1-.94-.56,7.09,7.09,0,0,1-.08-1.56.11.11,0,0,0-.08-.08c-.33-.06-.79-.05-.92.34-.22.63,0,1.27.8,1.14a.1.1,0,0,1,.1.07.07.07,0,0,1,0,0L60,19.3a.2.2,0,0,1-.2.14,1.48,1.48,0,0,1-.35-2.9,5.11,5.11,0,0,1,1.61,0,.09.09,0,0,1,.07.09v1.62C61.12,18.87,61.76,18.73,62.15,18.73Z"/><path class="cls-1" d="M77.4,20.18a.1.1,0,0,1,0-.13h0c.58-.08.87-.3.88-.65q0-1.32,0-2.07a.1.1,0,0,0-.07-.09,1.05,1.05,0,0,0-.76.1.2.2,0,0,0-.09.09c-.32.58-.17,1.4.68,1.29a.1.1,0,0,1,.1.08.06.06,0,0,1,0,0L78,19.3a.25.25,0,0,1-.23.15,1.41,1.41,0,0,1-1.32-1.82c.27-1.3,1.62-1.2,2.67-1.05a.06.06,0,0,1,.05.06c0,1.07,0,2,0,2.81s-.61,1.16-1.38,1.36a.15.15,0,0,1-.19-.09Z"/><path class="cls-1" d="M82,20.19a.1.1,0,0,1,0-.13h0c.43-.09.87-.17.88-.68,0-1,0-1.67,0-2.07a.09.09,0,0,0-.06-.07c-.68-.09-1.1.18-1,.91a.65.65,0,0,0,.82.58.07.07,0,0,1,.09.07s0,0,0,.05l-.19.46a.22.22,0,0,1-.22.14,1.47,1.47,0,0,1-.33-2.88,3.92,3.92,0,0,1,1.67,0,.06.06,0,0,1,0,.06v2a.06.06,0,0,0,.06.06h.79a.07.07,0,0,0,.07-.06h0V16.6a.06.06,0,0,1,.06-.06h.71a0,0,0,0,1,0,.05h0v2.78a.07.07,0,0,1-.07.06H83.83s-.07,0-.08.08,0,.12,0,.25c-.07.62-.72.91-1.31,1a.16.16,0,0,1-.18-.09Z"/><path class="cls-1" d="M92.81,20.17a.09.09,0,0,1,0-.12h0c.58-.09.87-.3.88-.65q0-1.34,0-2.07a.1.1,0,0,0-.07-.09,1,1,0,0,0-.76.1.24.24,0,0,0-.09.08c-.31.58-.17,1.41.68,1.3a.1.1,0,0,1,.1.08.06.06,0,0,1,0,0l-.19.47a.22.22,0,0,1-.23.14,1.41,1.41,0,0,1-1.32-1.82c.28-1.29,1.62-1.2,2.67-1a.06.06,0,0,1,0,.06c0,1.07,0,2,0,2.81S94,20.61,93.2,20.81a.16.16,0,0,1-.19-.1Z"/><rect class="cls-1" x="84.65" y="19.94" width="0.87" height="0.77" rx="0.06"/><rect class="cls-1" x="99.42" y="19.94" width="0.84" height="0.77" rx="0.06" transform="translate(-0.04 0.17) rotate(-0.1)"/><rect class="cls-1" x="100.6" y="19.94" width="0.84" height="0.76" rx="0.06" transform="translate(-0.14 0.71) rotate(-0.4)"/><path class="cls-1" d="M101.18,29.19l-.76.07a.08.08,0,0,1-.07-.05h0V26.61a.07.07,0,0,0-.07-.08H100a.09.09,0,0,1-.09-.08h0v-.12a.09.09,0,0,1,.08-.08h.28a.05.05,0,0,0,.06-.05h0a.9.9,0,0,1,.62-1.05,1.84,1.84,0,0,1,1.4.06.42.42,0,0,1,.24.38.14.14,0,0,1,0,.12.66.66,0,0,1-.71.27.1.1,0,0,1-.08-.1v-.32a.2.2,0,0,0-.06-.14c-.17-.18-.41-.08-.47.16a3,3,0,0,0-.06.61.07.07,0,0,0,.07.07h.41a.12.12,0,0,1,.12.13h0v0a.11.11,0,0,1-.11.11h-.4a.07.07,0,0,0-.07.07v2.54A0,0,0,0,1,101.18,29.19Z"/><path class="cls-1" d="M69.91,26.46s0,0,.07-.09l.07-.05a1,1,0,0,1,1.5.39,2.25,2.25,0,0,1-.17,2.14c-.53.67-1.53.52-2.27.23a.15.15,0,0,1-.1-.14V25.17a.06.06,0,0,1,.06-.05h.84a0,0,0,0,1,0,0h0l-.06,1.3a0,0,0,0,0,0,0Zm0,2.39a.45.45,0,0,0,.74-.21,3.75,3.75,0,0,0,0-1.7c0-.24-.25-.45-.5-.34a.66.66,0,0,0-.29.6c0,.41,0,.93,0,1.56A.12.12,0,0,0,70,28.85Z"/><path class="cls-1" d="M83.85,26.1v-.93a0,0,0,0,1,.05-.05h.83s0,0,0,0h0c0,1.17,0,2.31,0,3.44a1.39,1.39,0,0,0,.12.53.06.06,0,0,1,0,.08h0A.71.71,0,0,1,84,29a.07.07,0,0,0-.09,0h0a1,1,0,0,1-1.68-.39c-.3-.83-.26-2.17.81-2.44a1.42,1.42,0,0,1,.76,0,.07.07,0,0,0,.09-.05Zm0,2.57,0-2a.21.21,0,0,0-.19-.2h-.18c-.27,0-.48.29-.49.64h0V28.2c0,.36.21.65.47.65h.18a.18.18,0,0,0,.19-.18Z"/><path class="cls-1" d="M109.27,25.12c0,2,0,3.07,0,3.27a1.56,1.56,0,0,0,.15.71s0,.08,0,.09h0a.91.91,0,0,1-.48.08c-.44,0-.51-.3-.51-.72,0-1,0-2.1,0-3.35,0,0,0-.05,0-.05l.81-.07s0,0,0,0Z"/><path class="cls-1" d="M106.86,25.16l.81-.07s0,0,0,0h0c0,2,0,3.06,0,3.26a1.56,1.56,0,0,0,.14.71.08.08,0,0,1,0,.09h0a1.06,1.06,0,0,1-.48.08c-.45,0-.52-.3-.52-.72,0-1,0-2.1,0-3.35A0,0,0,0,1,106.86,25.16Z"/><path class="cls-1" d="M61,25.39h1a.08.08,0,0,1,.08.06L63,29.11a.07.07,0,0,1-.06.09h-.83a.08.08,0,0,1-.08-.06l-.21-.83a.09.09,0,0,0-.08-.06h-.9a.09.09,0,0,0-.08.06l-.2.83a.07.07,0,0,1-.07.06H60a.07.07,0,0,1-.08-.07v0l1-3.65A.07.07,0,0,1,61,25.39Zm.31.72-.36,1.58a.06.06,0,0,0,0,.07h.7a0,0,0,0,0,.05-.05h0l-.36-1.6,0,0Z"/><path class="cls-1" d="M73,29.21a.09.09,0,0,1-.08-.08s0,0,0,0l1-3.66a.1.1,0,0,1,.09-.06h1a.1.1,0,0,1,.09.07L76,29.12a.08.08,0,0,1-.06.09h-.81a.14.14,0,0,1-.13-.1l-.18-.79a.09.09,0,0,0-.09-.07h-.91a.08.08,0,0,0-.08.08l-.17.78a.12.12,0,0,1-.11.1Zm1.4-3.11a.05.05,0,0,0,0,0s0,0,0,0l-.37,1.6s0,.06,0,.06h.7a.06.06,0,0,0,.06-.05s0,0,0,0Z"/><path class="cls-1" d="M103.41,29.2a.07.07,0,0,1-.08-.08v0l1-3.65a.09.09,0,0,1,.08-.06h1s.08,0,.08.06l.94,3.66a.08.08,0,0,1-.06.09h-.81a.14.14,0,0,1-.13-.1l-.17-.78a.1.1,0,0,0-.09-.07h-.91a.1.1,0,0,0-.09.07l-.16.79a.13.13,0,0,1-.12.09Zm1-1.48s0,0,0,0h.73s0,0,0,0h0l-.36-1.59a.05.05,0,0,0,0,0l0,0Z"/><path class="cls-1" d="M64.09,26.51a0,0,0,0,0,0,0h0a.86.86,0,0,1,.86-.4c.81.14.85,1.38-.15,1.25a.08.08,0,0,1-.08-.1h0c0-.2,0-.52-.14-.64a.19.19,0,0,0-.28.06v0a1.11,1.11,0,0,0-.12.5c0,.55,0,1.18,0,1.9a.08.08,0,0,1-.07.07h-.75a.07.07,0,0,1-.06-.07h0v-2.8a.12.12,0,0,1,.11-.12H64a.09.09,0,0,1,.09.09Z"/><path class="cls-1" d="M67.46,27.44s0-.21,0-.59c0-.21-.1-.38-.33-.38-.46,0-.44.33-.42.67a.08.08,0,0,1,0,.08c-.76.27-1.12-.66-.3-.95s1.91-.27,2,.75c0,.3,0,.83,0,1.58a1,1,0,0,0,.13.51,0,0,0,0,1,0,.07h0a.71.71,0,0,1-.91-.13.08.08,0,0,0-.1,0h0a1.06,1.06,0,0,1-1.18.19.75.75,0,0,1-.56-.6c-.17-1.05.92-1.07,1.66-1.12A.07.07,0,0,0,67.46,27.44Zm-.09.36a3,3,0,0,0-.39.08c-.38.11-.41.58-.24.9a.14.14,0,0,0,.09.08c.61.29.65-.57.64-1a.07.07,0,0,0-.09-.07Z"/><path class="cls-1" d="M78.38,28.31a.13.13,0,0,1,.18,0s0,0,0,.05c.21,1.06-1.3,1.11-1.87.67a2,2,0,0,1-.11-2.5,1.6,1.6,0,0,1,1.68-.31.62.62,0,0,1,.31.23c.34.54-.13.88-.64.81a.1.1,0,0,1-.08-.1c0-.23.06-.58-.17-.67a.28.28,0,0,0-.33.09,2.33,2.33,0,0,0-.05,1.95c.22.33.86.19,1-.15C78.36,28.34,78.37,28.31,78.38,28.31Z"/><path class="cls-1" d="M80.6,27.51a.08.08,0,0,0,.07-.07s0-.21,0-.59c0-.21-.1-.38-.33-.38-.45,0-.43.33-.42.67a.08.08,0,0,1-.05.08c-.75.27-1.12-.66-.3-.94s1.92-.28,2,.74c0,.3,0,.83,0,1.58a.93.93,0,0,0,.13.51,0,0,0,0,1,0,.06h0a.72.72,0,0,1-.91-.13.07.07,0,0,0-.1,0h0a1.07,1.07,0,0,1-1.19.19.75.75,0,0,1-.55-.6C78.77,27.58,79.86,27.56,80.6,27.51Zm0,.29a1.63,1.63,0,0,0-.38.09c-.38.11-.4.58-.23.89a.14.14,0,0,0,.09.08c.61.28.64-.58.62-1a.09.09,0,0,0-.09-.08Z"/><path class="cls-1" d="M86.31,27.89a.1.1,0,0,0-.1.1v0c.11.94.93.91,1.36.3a.08.08,0,0,1,.1,0s0,0,0,0a.61.61,0,0,1-.27.8A1.48,1.48,0,0,1,85.69,29a1.93,1.93,0,0,1-.35-1.76,1.46,1.46,0,0,1,2.18-.87.74.74,0,0,1,.32.51C88,27.81,87.06,27.92,86.31,27.89Zm0-.29a2.39,2.39,0,0,0,.39-.08c.38-.1.42-.56.26-.88a.16.16,0,0,0-.08-.08c-.6-.3-.66.55-.66,1a.09.09,0,0,0,.08.08Z"/><path class="cls-1" d="M89.1,26.56a1,1,0,0,1,1.63,0s0,0,.07,0h0c.56-.64,1.68-.54,1.71.5,0,.5,0,1,0,1.43a1.11,1.11,0,0,0,.15.64.07.07,0,0,1,0,.09h0a.78.78,0,0,1-.91-.1.89.89,0,0,1-.12-.55c0-.57,0-1.11,0-1.63a.31.31,0,0,0-.32-.3h0a.42.42,0,0,0-.36.41l0,2.11a.07.07,0,0,1-.08.08h-.74a.08.08,0,0,1-.08-.08h0v-2c0-.19,0-.45-.26-.49-.5-.07-.52.48-.54.88,0,.2,0,.76,0,1.66a.07.07,0,0,1-.07.07h-.76a.06.06,0,0,1-.06-.06h0V26.33a.09.09,0,0,1,.1-.1h0a1.22,1.22,0,0,0,.48-.05.11.11,0,0,1,.13.08,0,0,0,0,1,0,0v.24a0,0,0,0,0,0,0Z"/><path class="cls-1" d="M99.63,28.1a1.25,1.25,0,0,1-1.3,1.21h-.22A1.26,1.26,0,0,1,96.9,28h0l0-.66a1.26,1.26,0,0,1,1.3-1.22h.22a1.27,1.27,0,0,1,1.21,1.3h0Zm-1.36-1.65c-.26,0-.48.57-.48,1.28h0c0,.7.22,1.28.48,1.28h0c.27,0,.48-.58.48-1.28h0c0-.71-.21-1.28-.48-1.28Z"/><path class="cls-1" d="M110.83,27.89a.12.12,0,0,0-.11.1s0,0,0,0c.11.94.93.91,1.36.3a.08.08,0,0,1,.1,0s0,0,0,0a.61.61,0,0,1-.27.8,1.49,1.49,0,0,1-1.73-.15,2,2,0,0,1-.36-1.76,1.47,1.47,0,0,1,2.19-.88.66.66,0,0,1,.31.51C112.48,27.81,111.58,27.92,110.83,27.89Zm0-.29.39-.07c.38-.1.43-.56.27-.88a.24.24,0,0,0-.08-.09c-.6-.31-.67.55-.67,1a.09.09,0,0,0,.08.08Z"/><path class="cls-1" d="M113.62,26.53a.85.85,0,0,1,.87-.39c.81.14.84,1.39-.16,1.26a.11.11,0,0,1-.08-.11c0-.2,0-.52-.13-.65a.21.21,0,0,0-.29.07v0a1,1,0,0,0-.12.5c0,.55,0,1.19,0,1.91a.07.07,0,0,1-.07.07h-.75a.07.07,0,0,1-.07-.07h0V26.32a.11.11,0,0,1,.12-.11h.53a.09.09,0,0,1,.09.09v.21a0,0,0,0,0,0,0Z"/><path class="cls-1" d="M117,28.68a1.24,1.24,0,0,1-1.37,0,1.77,1.77,0,0,1-.13-2.06,1.57,1.57,0,0,1,1.63-.4,1.48,1.48,0,0,0,.73,0s.06,0,.06,0v1.92a2.62,2.62,0,0,1-.39,1.88c-.43.48-2.18.53-2.12-.41a.36.36,0,0,1,.28-.33l.34-.08a.18.18,0,0,1,.21.14v.08c-.08.32,0,.51.22.57.64.16.62-.87.61-1.25a0,0,0,0,0,0,0Zm0-1.79a.39.39,0,0,0-.38-.4h0a.4.4,0,0,0-.4.39l0,1.17a.39.39,0,0,0,.39.4h0a.38.38,0,0,0,.39-.38Z"/><path class="cls-1" d="M94.29,28.33s0,0,0,0a0,0,0,0,0,0,0l.47-2a.14.14,0,0,1,.13-.1h.59a.07.07,0,0,1,.06.07v0L94.28,30.2a.14.14,0,0,1-.15.1l-.67-.06a.1.1,0,0,1-.07-.09s0,0,0,0L93.94,29a.06.06,0,0,0,0-.07h-.23a.09.09,0,0,1-.09-.06l-.69-2.48a.07.07,0,0,1,0-.09h.8a.11.11,0,0,1,.09.08Z"/><path class="cls-1" d="M120.25,26.25h.7a0,0,0,0,1,0,0h0l-1.33,3.94a.05.05,0,0,1,0,0h-.84s0,0,0,0v0l.58-1.28a0,0,0,0,0,0-.05H119a0,0,0,0,1,0,0l-.65-2.55a0,0,0,0,1,0-.05h.85a0,0,0,0,1,0,0l.45,2s0,0,0,0a0,0,0,0,0,0,0l.47-2S120.23,26.25,120.25,26.25Z"/><path class="cls-1" d="M68,33.41a1.12,1.12,0,0,1,1-.24c.47.08.63.43.65.88s0,.86,0,1.66a.39.39,0,0,0,0,.18l.07.15a.14.14,0,0,1-.06.19h0c-.42.1-.71,0-.86-.23a.23.23,0,0,1,0-.14c0-.94,0-1.53,0-1.76a1.1,1.1,0,0,0-.11-.4.16.16,0,0,0-.09-.07.42.42,0,0,0-.45.08.17.17,0,0,0-.06.1,2.26,2.26,0,0,0-.1.73v1.61a0,0,0,0,1,0,0h-.79a0,0,0,0,1-.05,0V32.24s0,0,0,0l.81-.17s0,0,0,0h0v1.29a0,0,0,0,0,0,0S68,33.42,68,33.41Z"/><path class="cls-1" d="M87.57,36c-.07,0-.16.19-.3.23a1,1,0,0,1-1.43-.69,2.26,2.26,0,0,1,.23-2,1.51,1.51,0,0,1,1.39-.4.08.08,0,0,0,.09-.07h0v-.81a.09.09,0,0,1,.06-.07l.71-.15a.08.08,0,0,1,.1.06v3.69l.12.26a.12.12,0,0,1-.06.15h0c-.4.12-.67.06-.82-.17A.08.08,0,0,0,87.57,36Zm-.08-2.4a.45.45,0,0,0-.74.22,3.75,3.75,0,0,0,0,1.7c0,.24.25.45.51.34s.27-.39.28-.6c0-.42,0-.94,0-1.57A.11.11,0,0,0,87.49,33.62Z"/><path class="cls-1" d="M111.46,32.17l.81-.07s0,0,0,0h0q0,3,0,3.27a1.71,1.71,0,0,0,.15.71.07.07,0,0,1,0,.09h0a.94.94,0,0,1-.48.08c-.45,0-.52-.3-.52-.72,0-1,0-2.1,0-3.35A0,0,0,0,1,111.46,32.17Z"/><path class="cls-1" d="M59,36.21a.09.09,0,0,1-.08-.08v0l1-3.64a.1.1,0,0,1,.09-.06h1a.08.08,0,0,1,.08.06l.94,3.64a.08.08,0,0,1-.06.09h-.81a.12.12,0,0,1-.12-.1l-.18-.77a.1.1,0,0,0-.09-.07h-.9a.09.09,0,0,0-.09.07l-.16.78a.13.13,0,0,1-.12.1Zm1.29-3.06L60,34.75a.06.06,0,0,0,0,.07h.7a.06.06,0,0,0,0-.06h0l-.39-1.6s0,0,0,0Z"/><rect class="cls-1" x="90.2" y="32.41" width="0.96" height="3.79" rx="0.05"/><path class="cls-1" d="M66.42,36a.67.67,0,0,1-1,0,1,1,0,0,1-.09-.53c0-.14,0-.76,0-1.89a.08.08,0,0,0-.07-.08.46.46,0,0,0-.2,0,.09.09,0,0,1-.08,0s0-.1,0-.17l0,0a3.43,3.43,0,0,0,1-.62.14.14,0,0,1,.19,0,.16.16,0,0,1,0,.09v.42a.06.06,0,0,0,.06.06h.41a.11.11,0,0,1,.11.1v.08a.09.09,0,0,1-.1.09h-.42a.06.06,0,0,0-.06.06h0c0,.75,0,1.41,0,2,0,.2.07.32.22.37a.07.07,0,0,1,0,.07Z"/><path class="cls-1" d="M63.14,35.38a1.11,1.11,0,0,0,0,.36.29.29,0,0,0,.3.27.43.43,0,0,0,.39-.29c.19-.41-.69-.81-1-1a.81.81,0,0,1,.21-1.53c.38-.11,1.44-.16,1.55.42s-.34.61-.69.53a.1.1,0,0,1-.08-.1c0-.33,0-.7-.48-.55a.12.12,0,0,0-.09.08c-.37,1,1.76.77,1.31,2.12-.26.77-1.52.67-2.07.41a.24.24,0,0,1-.11-.09c-.33-.56.16-.92.68-.75a.07.07,0,0,1,0,.09Z"/><path class="cls-1" d="M71.06,33.55a0,0,0,0,0,0,0,.05.05,0,0,0,0,0,1,1,0,0,1,1.62,0,.05.05,0,0,0,.08,0h0a.93.93,0,0,1,1.7.5c0,.5,0,1,0,1.43a1.06,1.06,0,0,0,.15.63.06.06,0,0,1,0,.09.77.77,0,0,1-.9-.1.82.82,0,0,1-.11-.55c0-.56,0-1.11,0-1.62a.31.31,0,0,0-.32-.3h0a.39.39,0,0,0-.35.4l0,2.1a.08.08,0,0,1-.08.08h-.74a.08.08,0,0,1-.08-.07v-2c0-.19,0-.45-.26-.48-.5-.08-.52.47-.53.87,0,.2,0,.76,0,1.66a.06.06,0,0,1-.06.06h-.76a.06.06,0,0,1-.06-.06h0V33.35a.1.1,0,0,1,.1-.11h0a1.24,1.24,0,0,0,.49,0,.12.12,0,0,1,.13.08v.27Z"/><path class="cls-1" d="M76.75,34.52a.07.07,0,0,0,.07-.06s0-.22,0-.6c0-.21-.1-.38-.33-.38-.45,0-.43.33-.42.68a.08.08,0,0,1,0,.07c-.75.27-1.12-.66-.3-.94s1.91-.28,2,.75c0,.3,0,.82,0,1.57a.88.88,0,0,0,.13.51,0,0,0,0,1,0,.07h0a.71.71,0,0,1-.91-.13.08.08,0,0,0-.1,0h0a1.08,1.08,0,0,1-1.18.18.76.76,0,0,1-.56-.6C74.92,34.59,76,34.57,76.75,34.52Zm0,.31c-.53,0-1,.42-.64.94a.3.3,0,0,0,.23.14c.57,0,.51-.57.5-1A.08.08,0,0,0,76.73,34.83Z"/><path class="cls-1" d="M81,34.52a.09.09,0,0,0,.07-.06s0-.22,0-.6c0-.21-.1-.38-.32-.38-.46,0-.44.33-.42.68a.09.09,0,0,1-.06.08c-.75.26-1.11-.66-.29-1s1.91-.28,2,.74a14.34,14.34,0,0,1,0,1.58,1,1,0,0,0,.14.51.07.07,0,0,1,0,.07h0a.72.72,0,0,1-.91-.13.08.08,0,0,0-.1,0h0a1.06,1.06,0,0,1-1.18.19.75.75,0,0,1-.56-.6C79.13,34.59,80.22,34.57,81,34.52Zm0,.31c-.53,0-1,.41-.65.93a.25.25,0,0,0,.22.14c.57.05.52-.56.52-1a.08.08,0,0,0-.09-.08Z"/><path class="cls-1" d="M83.35,33.5a0,0,0,0,0,.05,0l0,0a1.07,1.07,0,0,1,1.27-.3.76.76,0,0,1,.46.76c0,.6,0,1.18,0,1.73a.31.31,0,0,0,0,.13l.12.24a.08.08,0,0,1,0,.09.67.67,0,0,1-.36.1c-.42,0-.63-.16-.63-.56,0-.63,0-1.18,0-1.65,0-.21-.09-.5-.42-.47s-.38.45-.39.68,0,.83,0,1.86a.07.07,0,0,1-.07.06h-.75s-.07,0-.07-.06h0V33.36a.11.11,0,0,1,.08-.1l.6,0a.07.07,0,0,1,.07.06h0Z"/><path class="cls-1" d="M92.58,33.55a0,0,0,0,0,0,0s0,0,0,0a1,1,0,0,1,1.62,0,.06.06,0,0,0,.08,0h0c.55-.63,1.66-.53,1.7.5,0,.51,0,1,0,1.43a1.06,1.06,0,0,0,.15.63.07.07,0,0,1,0,.09h0a.75.75,0,0,1-.9-.1.8.8,0,0,1-.11-.54c0-.57,0-1.11,0-1.63a.31.31,0,0,0-.32-.3h0a.41.41,0,0,0-.35.4l0,2.11a.09.09,0,0,1-.08.08h-.74a.09.09,0,0,1-.08-.08v-2c0-.19,0-.44-.26-.48-.5-.08-.52.47-.53.87,0,.21,0,.76,0,1.66a.07.07,0,0,1-.06.07h-.76a.07.07,0,0,1-.06-.07V33.35a.11.11,0,0,1,.11-.1h0a1.21,1.21,0,0,0,.48,0,.12.12,0,0,1,.14.08v.27Z"/><path class="cls-1" d="M97.5,33.55a0,0,0,0,0,0,0l0,0a1,1,0,0,1,1.62,0,.05.05,0,0,0,.08,0h0c.55-.64,1.67-.53,1.7.51,0,.5,0,1,0,1.42a1.19,1.19,0,0,0,.15.64.07.07,0,0,1,0,.09.8.8,0,0,1-.91-.1.85.85,0,0,1-.11-.55c0-.57,0-1.11,0-1.63a.32.32,0,0,0-.32-.3h0a.4.4,0,0,0-.35.4l0,2.11a.09.09,0,0,1-.08.08h-.74a.09.09,0,0,1-.08-.08v-2c0-.19,0-.44-.26-.48-.5-.08-.52.47-.53.87,0,.21,0,.76,0,1.66a.07.07,0,0,1-.06.07h-.76a.07.07,0,0,1-.07-.07h0v-2.8a.11.11,0,0,1,.11-.1h0a1.18,1.18,0,0,0,.48,0,.12.12,0,0,1,.14.08v.27Z"/><path class="cls-1" d="M105.82,33.53a1.08,1.08,0,0,1,1.28-.3.77.77,0,0,1,.45.76c0,.6,0,1.18,0,1.73a.31.31,0,0,0,0,.13l.11.24a.08.08,0,0,1,0,.1.79.79,0,0,1-.36.09c-.42,0-.63-.16-.63-.56,0-.63,0-1.18,0-1.65,0-.21-.09-.5-.42-.46s-.38.44-.39.67,0,.83,0,1.86a.06.06,0,0,1-.06.06h-.75s-.07,0-.07-.06h0V33.35a.11.11,0,0,1,.09-.09l.59,0s.07,0,.07.06h0v.23a0,0,0,0,0,.05,0Z"/><path class="cls-1" d="M110.86,35.1a1.26,1.26,0,0,1-1.3,1.22h-.22A1.25,1.25,0,0,1,108.13,35l0-.65a1.25,1.25,0,0,1,1.29-1.22h.22a1.25,1.25,0,0,1,1.22,1.29ZM109,34.74c0,.38,0,1.22.46,1.22s.46-.84.46-1.22,0-1.23-.46-1.23S109,34.36,109,34.74Z"/><path class="cls-1" d="M115.65,35.11a1.27,1.27,0,0,1-1.31,1.21h-.22A1.26,1.26,0,0,1,112.91,35l0-.64a1.26,1.26,0,0,1,1.3-1.21h.23a1.25,1.25,0,0,1,1.2,1.31h0Zm-.94-1.17a.4.4,0,0,0-.4-.4h0a.4.4,0,0,0-.4.4h0v1.6a.4.4,0,0,0,.4.4h0a.4.4,0,0,0,.4-.4h0Z"/><path class="cls-1" d="M117.92,35.73a.05.05,0,0,0,0,0h0a1.26,1.26,0,0,1-1.38,0,1.77,1.77,0,0,1-.12-2.06,1.56,1.56,0,0,1,1.63-.4,1.48,1.48,0,0,0,.73,0,0,0,0,0,1,.06,0v1.93a2.7,2.7,0,0,1-.39,1.88c-.44.48-2.19.52-2.12-.43a.34.34,0,0,1,.28-.32l.33-.08a.17.17,0,0,1,.21.14.09.09,0,0,1,0,.07c-.07.33,0,.52.23.58C117.94,37.14,117.92,36.11,117.92,35.73Zm-.09-.49,0-1.51a.21.21,0,0,0-.2-.21h-.19c-.26,0-.47.32-.48.73v.45c0,.4.19.74.44.75h.19A.2.2,0,0,0,117.83,35.24Z"/><path class="cls-1" d="M104.3,33.33c0,1.39,0,2.13,0,2.24a.92.92,0,0,0,.11.51.11.11,0,0,1,0,.13h0a.75.75,0,0,1-.87-.15.08.08,0,0,0-.11,0l-.07.07c-.21.27-.82.23-1.11.12s-.51-.71-.52-1.09,0-.85,0-1.83a.06.06,0,0,1,.06-.06h.78a.07.07,0,0,1,.07.07,16.58,16.58,0,0,0,0,2.14c0,.2.09.33.18.38.39.23.58-.23.58-.55,0-.69,0-1.35,0-2a.07.07,0,0,1,.07-.07h.79A.07.07,0,0,1,104.3,33.33Z"/><path class="cls-1" d="M120.58,35.33s0,0,0,0a0,0,0,0,0,0,0l.47-2a.14.14,0,0,1,.13-.11h.58a.07.07,0,0,1,.07.06,0,0,0,0,1,0,0l-1.29,3.85a.13.13,0,0,1-.15.09l-.67-.06a.07.07,0,0,1-.07-.08,0,0,0,0,1,0,0l.54-1.17a.05.05,0,0,0,0-.07H120a.08.08,0,0,1-.08-.06l-.69-2.47a.06.06,0,0,1,.05-.08h.79s.08,0,.09.07Z"/><ellipse class="cls-1" cx="25.71" cy="1.31" rx="1.29" ry="1.31" transform="translate(0.03 3.14) rotate(-7)"/><circle class="cls-2" cx="22.89" cy="1.03" r="0.56"/><path class="cls-2" d="M16.77,5.15h0a.24.24,0,0,1-.2-.26c0-.52.11-1.2.2-2a1,1,0,0,0-.12-.64l-.55-1.07A.23.23,0,0,1,16.2.86h0a.25.25,0,0,1,.32.11l.68,1.34a.56.56,0,0,1,.06.34L17,5a.21.21,0,0,1-.23.19Z"/><rect class="cls-3" x="12.14" y="1.62" width="2" height="0.62" rx="0.3" transform="translate(4.07 11.63) rotate(-55.3)"/><path class="cls-2" d="M17.59,5.26A.21.21,0,0,1,17.38,5V5l.23-2.34a.59.59,0,0,1,.13-.33l1-1.18a.23.23,0,0,1,.32,0h0a.23.23,0,0,1,0,.32h0l-.76,1a1,1,0,0,0-.25.6c-.07.82-.14,1.5-.2,2a.25.25,0,0,1-.26.21Z"/><rect class="cls-2" x="15.8" y="1.14" width="0.49" height="1.58" rx="0.24" transform="translate(0.88 7.52) rotate(-27.1)"/><path class="cls-3" d="M10,4.7h0a.3.3,0,0,1,.17-.38c.87-.38,1.7-.72,2.49-1A.82.82,0,0,0,13,3c.38-.53.72-1,1-1.47a.29.29,0,0,1,.4-.08h0a.29.29,0,0,1,.07.41L13.46,3.42a.89.89,0,0,1-.41.33L10.33,4.87A.28.28,0,0,1,10,4.72Z"/><rect class="cls-2" x="18.16" y="2" width="1.6" height="0.47" rx="0.23" transform="matrix(0.63, -0.78, 0.78, 0.63, 5.32, 15.58)"/><circle class="cls-3" cx="22.85" cy="4.39" r="1.97"/><circle class="cls-1" cx="27.91" cy="3.9" r="0.64"/><circle class="cls-2" cx="30.22" cy="4.19" r="0.64"/><circle class="cls-1" cx="33.42" cy="4.17" r="0.58"/><circle class="cls-3" cx="26.05" cy="4.1" r="0.36"/><path class="cls-3" d="M10.37,5.68a.27.27,0,0,1,.12-.36h0c1.13-.49,2-.87,2.71-1.15a.86.86,0,0,1,.52-.07l1.86.34a.3.3,0,0,1,.24.35h0A.3.3,0,0,1,15.5,5h0l-1.78-.31a.91.91,0,0,0-.46.08c-.78.34-1.61.69-2.49,1a.3.3,0,0,1-.39-.15Z"/><circle class="cls-2" cx="35.74" cy="5.85" r="1.3"/><rect class="cls-3" x="14.28" y="4.35" width="0.6" height="2.03" rx="0.29" transform="translate(6.57 18.68) rotate(-79.2)"/><circle class="cls-3" cx="31.72" cy="7.08" r="1.96"/><ellipse class="cls-2" cx="25.82" cy="6.89" rx="1.25" ry="1.23" transform="translate(15.32 31.47) rotate(-81.8)"/><circle class="cls-3" cx="19.8" cy="6.45" r="0.64"/><path class="cls-1" d="M13.66,6.19h0a.22.22,0,0,1,.27-.11c.46.17,1,.39,1.72.68a1,1,0,0,0,.59,0l1.08-.21a.21.21,0,0,1,.25.16h0a.23.23,0,0,1-.17.25l-1.35.27a.55.55,0,0,1-.31,0l-2-.8a.2.2,0,0,1-.11-.26Z"/><rect class="cls-1" x="15.95" y="6.14" width="1.42" height="0.44" rx="0.21" transform="translate(-0.9 3.24) rotate(-10.8)"/><circle class="cls-3" cx="28.04" cy="7.33" r="0.63"/><path class="cls-1" d="M13.37,6.89a.19.19,0,0,1,.25-.13h0l2,.77a.6.6,0,0,1,.25.2l.79,1.11a.21.21,0,0,1-.05.3h0a.22.22,0,0,1-.3,0h0c-.15-.2-.36-.49-.64-.89a.9.9,0,0,0-.46-.36l-1.72-.68a.22.22,0,0,1-.12-.27Z"/><circle class="cls-3" cx="5.83" cy="8.83" r="1.31"/><circle class="cls-1" cx="9.18" cy="8.22" r="0.63"/><circle class="cls-1" cx="34.64" cy="8.43" r="0.37"/><rect class="cls-1" x="15.46" y="8.1" width="0.43" height="1.45" rx="0.21" transform="translate(-2.22 10.65) rotate(-35.2)"/><rect class="cls-1" x="38.61" y="8.77" width="0.47" height="1.57" rx="0.23" transform="translate(-1.04 12.61) rotate(-18.2)"/><path class="cls-1" d="M40.63,12.34a.21.21,0,0,1-.3.06h0l-1.83-1.46a.63.63,0,0,1-.2-.28l-.47-1.43A.23.23,0,0,1,38,8.93h0a.23.23,0,0,1,.29.14h0c.09.26.22.64.38,1.15a1,1,0,0,0,.37.53c.65.51,1.17.93,1.58,1.27a.25.25,0,0,1,0,.32Z"/><circle class="cls-2" cx="12.18" cy="9.8" r="0.64"/><circle class="cls-3" cx="33.07" cy="10.73" r="1.26"/><circle class="cls-1" cx="8.43" cy="9.91" r="0.37"/><circle class="cls-3" cx="10.72" cy="11.49" r="1.25"/><circle class="cls-3" cx="4.17" cy="11.14" r="0.57"/><circle class="cls-1" cx="7.06" cy="12.85" r="1.97"/><path class="cls-1" d="M40.11,13h0a.26.26,0,0,1-.33,0c-.42-.33-1-.75-1.6-1.29a1,1,0,0,0-.6-.24l-1.21-.13a.23.23,0,0,1-.2-.26h0a.24.24,0,0,1,.26-.21l1.51.16a.61.61,0,0,1,.32.13l1.83,1.49a.22.22,0,0,1,0,.31Z"/><rect class="cls-1" x="36.76" y="11.04" width="0.48" height="1.58" rx="0.23" transform="matrix(0.09, -1, 1, 0.09, 22.06, 47.68)"/><path class="cls-1" d="M14.39,14.26a.08.08,0,0,0-.09.08l-.14.72a.12.12,0,0,1-.12.1h-.38a.09.09,0,0,1-.08-.09v0l.8-3.35a.14.14,0,0,1,.13-.11h.75a.11.11,0,0,1,.1.09l.74,3.39a.09.09,0,0,1-.06.1H15.4a.11.11,0,0,1-.1-.09l-.14-.73a.09.09,0,0,0-.09-.08Zm.34-.4H15a0,0,0,0,0,0,0h0c-.21-1.06-.31-1.59-.32-1.59a14.58,14.58,0,0,0-.34,1.59.05.05,0,0,0,0,0h.3Z"/><path class="cls-1" d="M19.67,14.26a.09.09,0,0,0-.09.08l-.14.72a.12.12,0,0,1-.12.1H19a.08.08,0,0,1-.08-.09v0l.79-3.35a.14.14,0,0,1,.13-.1h.75a.1.1,0,0,1,.1.08l.74,3.38a.08.08,0,0,1-.06.1h-.63a.11.11,0,0,1-.11-.09l-.13-.74a.1.1,0,0,0-.09-.07Zm.34-.39.29,0s0,0,0,0h0c-.2-1-.31-1.56-.31-1.56s-.13.52-.33,1.56c0,0,0,0,0,0h0Z"/><path class="cls-1" d="M23,15.16h-.4a.08.08,0,0,1-.08-.08v0l.8-3.4a.09.09,0,0,1,.08-.06h.81s.07,0,.07.06l.75,3.4a.08.08,0,0,1-.06.1h-.64a.09.09,0,0,1-.08-.06l-.17-.77a.08.08,0,0,0-.08-.07h-.67a.08.08,0,0,0-.08.07l-.18.77A.08.08,0,0,1,23,15.16Zm.66-1.3H24a0,0,0,0,0,0,0h0c-.19-1.05-.29-1.57-.3-1.57s-.13.52-.35,1.56c0,0,0,0,0,0h.29Z"/><path class="cls-1" d="M27,14.26a.09.09,0,0,0-.09.08l-.14.72a.12.12,0,0,1-.12.1h-.37a.09.09,0,0,1-.09-.09h0L27,11.7a.13.13,0,0,1,.13-.1h.75a.1.1,0,0,1,.1.08l.74,3.39a.08.08,0,0,1-.06.09H28a.11.11,0,0,1-.1-.09l-.14-.73a.09.09,0,0,0-.09-.08Zm0-.44s0,0,0,0h.58a0,0,0,0,0,0,0h0l-.29-1.48s0,0-.05,0a0,0,0,0,0,0,0Z"/><rect class="cls-1" x="30.21" y="11.6" width="0.74" height="3.56" rx="0.05"/><path class="cls-1" d="M17,12.68c.43-.83,1.46-.27,1.09.6a.16.16,0,0,1-.08.1.49.49,0,0,1-.42.08.1.1,0,0,1-.08-.1v-.42a.18.18,0,0,0-.18-.19.2.2,0,0,0-.18.12,1.64,1.64,0,0,0-.09.58q0,.68,0,1.65a.06.06,0,0,1-.06.06H16.4a.06.06,0,0,1-.06-.06V12.47a.09.09,0,0,1,.08-.09l.45,0a.06.06,0,0,1,.06.05h0l0,.28s0,0,0,0S17,12.69,17,12.68Z"/><path class="cls-2" d="M36,18.43h0a.31.31,0,0,1-.23-.36q.24-1.39.48-2.64a.8.8,0,0,0,0-.47c-.24-.6-.46-1.16-.67-1.66a.29.29,0,0,1,.16-.38h0a.3.3,0,0,1,.39.16l.72,1.74a.84.84,0,0,1,0,.52c-.13.72-.32,1.69-.55,2.89a.28.28,0,0,1-.32.22Z"/><rect class="cls-3" x="40.34" y="13.51" width="1.44" height="0.45" rx="0.2" transform="translate(12.83 46.55) rotate(-67.8)"/><path class="cls-3" d="M39.27,16.15h0a.22.22,0,0,1,.06-.29c.39-.29.89-.64,1.51-1.07a.94.94,0,0,0,.37-.46c.18-.45.31-.79.41-1a.2.2,0,0,1,.27-.11h0a.21.21,0,0,1,.11.28l-.51,1.27a.55.55,0,0,1-.2.25l-1.75,1.22a.21.21,0,0,1-.28-.05Z"/><rect class="cls-2" x="35.11" y="13.26" width="0.61" height="2" rx="0.3" transform="translate(-2.76 14.44) rotate(-22.2)"/><path class="cls-2" d="M37.05,18.64a.27.27,0,0,1-.24-.3v0q.31-1.82.51-2.91a.92.92,0,0,1,.24-.47l1.3-1.38a.31.31,0,0,1,.42,0h0a.3.3,0,0,1,0,.42h0L38.08,15.3a.75.75,0,0,0-.19.43c-.15.84-.31,1.73-.49,2.66a.31.31,0,0,1-.34.25Z"/><ellipse class="cls-2" cx="4.16" cy="14.34" rx="0.63" ry="0.65" transform="translate(-10.58 16.73) rotate(-83)"/><rect class="cls-2" x="38.07" y="14.63" width="2.03" height="0.6" rx="0.29" transform="translate(1.29 32.87) rotate(-46.3)"/><circle class="cls-1" cx="18.31" cy="14.86" r="0.42"/><circle class="cls-1" cx="21.97" cy="14.87" r="0.42"/><ellipse class="cls-1" cx="25.62" cy="14.86" rx="0.44" ry="0.4" transform="translate(-1.31 2.52) rotate(-5.5)"/><circle class="cls-1" cx="29.33" cy="14.86" r="0.42"/><path class="cls-3" d="M39.69,16.77a.19.19,0,0,1,0-.27h0l1.74-1.24a.55.55,0,0,1,.3-.11l1.37-.05a.21.21,0,0,1,.23.2h0a.21.21,0,0,1-.2.22h0l-1.1.05a1,1,0,0,0-.56.19c-.61.44-1.12.79-1.52,1.06a.21.21,0,0,1-.29,0Z"/><rect class="cls-3" x="41.84" y="15.68" width="1.46" height="0.44" rx="0.21" transform="translate(-0.43 1.19) rotate(-1.6)"/><circle class="cls-2" cx="7.28" cy="16.52" r="0.63"/><circle class="cls-1" cx="3.9" cy="16.66" r="0.65"/><path class="cls-1" d="M8.75,26s.06-.15.16-.44a1.39,1.39,0,0,0-.07-.83.2.2,0,0,1,0-.11l.07-.27v0A.37.37,0,0,0,8.72,24H8.66s-.07,0-.08,0a.06.06,0,0,1,0-.06,1,1,0,0,0,.11-.36.22.22,0,0,1,.05-.11,2.51,2.51,0,0,0,.39-.73l0,0,.23-.29a.5.5,0,0,0,.1-.19,1.08,1.08,0,0,1,.36-.67,1.05,1.05,0,0,0,.31-.48.23.23,0,0,1,.07-.1c.14-.14.36-.11.52-.21a2.22,2.22,0,0,0,.76-.82.13.13,0,0,0,0-.12c-.2-.33.1-.66.22-1a.52.52,0,0,1,.13-.17,1.87,1.87,0,0,1,.47-.29c.37-.16.47-.5.62-.9a.12.12,0,0,1,.15-.07l0,0,.18.2a.21.21,0,0,0,.13.05h.8a.5.5,0,0,0,.24-.06,4.58,4.58,0,0,1,1.19-.55A4.43,4.43,0,0,1,16.9,17a.26.26,0,0,0,.15,0,1.59,1.59,0,0,1,.81,0,.33.33,0,0,0,.14,0,1.64,1.64,0,0,0,.32-.14.26.26,0,0,1,.19-.05s.08.07.1.18a.08.08,0,0,0,.09.06h0a.53.53,0,0,0,.17-.08,0,0,0,0,1,.07,0A.08.08,0,0,1,19,17c0,.05-.09.12-.19.21a.17.17,0,0,0,0,.23s0,0,0,0c.37.26,0,.52-.17.71a.11.11,0,0,0,0,.15s0,0,0,0l.22.07a.09.09,0,0,1,.06,0,1.07,1.07,0,0,0,.5.31.13.13,0,0,0,.12,0c.26-.1.64.15.83.2a.11.11,0,0,1,.08.08l0,.17a.32.32,0,0,0,.26.23,1.68,1.68,0,0,1,1,.41.14.14,0,0,0,.13,0,.53.53,0,0,0,.28-.22c.17-.23-.31-.52.24-.82s.68.06,1.13.23c.64.22,1.44.38,1.86.54a.11.11,0,0,0,.11,0c.29-.23.56-.42.93-.21a.82.82,0,0,0,.68.09.33.33,0,0,0,.23-.23c.12-.43.25-.87.39-1.33a1.1,1.1,0,0,0-.08-.39.09.09,0,0,1,.05-.1.27.27,0,0,0,.18-.31.1.1,0,0,1,.08-.1l.15,0c.15,0,.28-.09.45-.05a.81.81,0,0,0,.58,0,4.41,4.41,0,0,1,1-.18,1.18,1.18,0,0,1,.54.11l.08.06.27.4a.13.13,0,0,0,.1.06h.09a.09.09,0,0,1,.07.09,1.86,1.86,0,0,1-.06.32.44.44,0,0,0-.05.46,2.52,2.52,0,0,0,.7.68.38.38,0,0,1,.2.43.14.14,0,0,0,0,.09l.25.42a.17.17,0,0,1,0,.12.22.22,0,0,1-.09.13.11.11,0,0,0,0,.12l.39.73,0,.06a1.84,1.84,0,0,1,.42.42.3.3,0,0,1,.06.19c0,.22.12.26.19.45,0,0,0,0,0,0s0,0,0,0l.05-.36a.08.08,0,0,1,.1-.07.07.07,0,0,1,.06,0c.21.33-.09.65.22.87,0,0,.09,0,.18,0a1,1,0,0,1,.5-.05.21.21,0,0,0,.21-.08l.69-.85a0,0,0,0,1,0,0,0,0,0,0,1,0,0,.25.25,0,0,1,0,.07.11.11,0,0,0,0,.08c0,.61.29.93.84,1a.13.13,0,0,1,.09.05l.44.5a.11.11,0,0,1,0,.11,1.62,1.62,0,0,1-.31.54.11.11,0,0,0,0,.13l.05.15s0,0,0,0h0l-.19-.11a.08.08,0,0,0-.09,0h0a.91.91,0,0,0,0,.54s0,.07,0,.07h0a.51.51,0,0,0-.38.3c-.08.16-.14.14-.28.19a.21.21,0,0,0-.13.1l-.11.2a.15.15,0,0,1-.09.06,2.81,2.81,0,0,0-.85.32.18.18,0,0,0-.1.14.4.4,0,0,1-.23.3c-.66.27-1.18.61-1.83.84a6.32,6.32,0,0,0-.73.3.31.31,0,0,1-.48-.23,8.55,8.55,0,0,1-.25-1.3.86.86,0,0,0-.16-.41,8.83,8.83,0,0,1-.62-1c-.12-.31-.63-.41-.65-.91a1.58,1.58,0,0,0-.57-1.19.37.37,0,0,1-.13-.17,10.2,10.2,0,0,0-.73-1.24c-.12-.18-.22-.27-.31-.26a.05.05,0,0,1-.06,0s0,0,0,0a1.31,1.31,0,0,0,.09-.5,0,0,0,0,0,0,0h0s0,0,0,0h0a1.81,1.81,0,0,1-.12.62.09.09,0,0,1-.12.06s0,0,0,0a2.87,2.87,0,0,1-.51-.85.05.05,0,0,0,0,0h0a1.77,1.77,0,0,0,.41.78s0,0,0,0l.8,1.66a.3.3,0,0,1,0,.1.76.76,0,0,0,.3.59c.7.5,0,1.52.89,1.93a.13.13,0,0,1,.06.16s0,0,0,0l-.43.3a.25.25,0,0,0-.11.17l-.2,1.35a.71.71,0,0,1-.09.28,4.92,4.92,0,0,0-.72,1.91.12.12,0,0,1-.08.09l-.15,0a.12.12,0,0,0-.08.15s0,.05.05.07a1.75,1.75,0,0,1,.66.8,2.55,2.55,0,0,0,.3.41.12.12,0,0,1,0,.18.12.12,0,0,1-.1,0,.54.54,0,0,0-.52.16.91.91,0,0,1-.67.25c-.34,0-.53,0-.57,0a.2.2,0,0,1-.14-.06l-.27-.29a.08.08,0,0,0-.08,0,1.25,1.25,0,0,1-.43.06.28.28,0,0,1-.19-.12,15,15,0,0,0-1.48-1.82s0,0,0,0l-.7-1.8v0a3,3,0,0,1,.39-1.11.16.16,0,0,1,.1-.08l.13,0a.11.11,0,0,0,.08-.11V24.63a.11.11,0,0,0,0-.09l-2.86-1.65a.18.18,0,0,0-.21,0l-.42.29a.09.09,0,0,1-.1,0L20,23.1a1.17,1.17,0,0,0-.63-.26.27.27,0,0,0-.12,0,12.35,12.35,0,0,0-2.15,1.68.33.33,0,0,1-.13.07l-.79.2a.11.11,0,0,1-.11-.06v0l0-.2a.09.09,0,0,0-.07-.1c-.51-.12-.7-.52-1.06-.81-.69-.53-1.17-.92-1.46-1.16a1,1,0,0,0-.92-.27.06.06,0,0,0-.06.06v0a3.79,3.79,0,0,1,.11.82c0,.79.11,1.53.15,2.45,0,.21.09.43.11.67a.12.12,0,0,1-.11.14h0a9.24,9.24,0,0,0-1.94.12.1.1,0,0,1-.11-.05.46.46,0,0,0-.1-.1.07.07,0,0,0-.08,0v0l0,.26a.1.1,0,0,1-.11.08l0,0c-.26-.18-.32-.46-.53-.62l-.26-.19a.13.13,0,0,0-.12,0L8.78,26s0,0,0,0Z"/><circle class="cls-1" cx="6.88" cy="18.71" r="1.26"/><circle class="cls-2" cx="1.3" cy="18.84" r="1.3"/><circle class="cls-3" cx="4.08" cy="18.5" r="0.34"/><ellipse class="cls-3" cx="38.12" cy="19.78" rx="0.65" ry="0.63" transform="matrix(0.08, -1, 1, 0.08, 15.22, 56.11)"/><circle class="cls-2" cx="41.93" cy="20.09" r="0.63"/><circle class="cls-2" cx="4.38" cy="21.72" r="1.96"/><circle class="cls-1" cx="40.18" cy="22.85" r="1.97"/><ellipse class="cls-3" cx="1.03" cy="21.69" rx="0.58" ry="0.56" transform="translate(-2.82 0.32) rotate(-7.5)"/><circle class="cls-1" cx="43.52" cy="22.87" r="0.56"/><circle class="cls-1" cx="2.63" cy="24.44" r="0.64"/><ellipse class="cls-1" cx="43.24" cy="25.71" rx="1.29" ry="1.31" transform="translate(-3.68 7.57) rotate(-9.6)"/><circle class="cls-2" cx="37.67" cy="25.85" r="1.25"/><rect class="cls-3" x="6.28" y="24.56" width="0.43" height="1.46" rx="0.21" transform="translate(-12 6.86) rotate(-30.7)"/><path class="cls-3" d="M8.65,27.37a.19.19,0,0,1-.25.11h0l-1.92-.9a.61.61,0,0,1-.24-.21l-.71-1.16a.21.21,0,0,1,.06-.3h0a.2.2,0,0,1,.29.06h0l.58.93a1,1,0,0,0,.43.39l1.66.79a.23.23,0,0,1,.11.28Z"/><circle class="cls-1" cx="40.45" cy="26.05" r="0.37"/><path class="cls-3" d="M8.32,28.05h0a.23.23,0,0,1-.28.1c-.44-.2-1-.47-1.66-.8a1,1,0,0,0-.58-.09L4.7,27.4a.21.21,0,0,1-.23-.19h0A.22.22,0,0,1,4.65,27L6,26.79a.65.65,0,0,1,.31.05l1.91.93a.19.19,0,0,1,.09.26Z"/><circle class="cls-1" cx="40.65" cy="27.91" r="0.63"/><rect class="cls-3" x="4.62" y="27.45" width="1.45" height="0.44" rx="0.21" transform="translate(-3.33 0.86) rotate(-7)"/><ellipse class="cls-2" cx="37.27" cy="28.05" rx="0.65" ry="0.63" transform="translate(5.89 62.57) rotate(-84.7)"/><ellipse class="cls-1" cx="34.91" cy="27.62" rx="0.17" ry="0.1" transform="translate(-2.94 4.2) rotate(-6.6)"/><path class="cls-1" d="M32.62,29.64a4.81,4.81,0,0,1-1.21-.41,1.25,1.25,0,0,1-.61-.63.36.36,0,0,1,0-.36l.06-.06a.11.11,0,0,1,.16,0l0,.05a.53.53,0,0,0,.25.31.23.23,0,0,0,.18,0,8.07,8.07,0,0,1,1.58-.38,1.31,1.31,0,0,0,.64-.27.11.11,0,0,1,.16,0,.19.19,0,0,1,0,.07,1.54,1.54,0,0,0,0,.5.08.08,0,0,1,0,.09c-.07.05-.12.47-.19.62-.2.4-.42.9-.66,1.49a5.71,5.71,0,0,1-.68,1,7,7,0,0,1-.79.71,4.71,4.71,0,0,0-1.13,1.37,0,0,0,0,1-.06,0l0,0-.14-.26a.3.3,0,0,1,0-.1l0-1.47a.24.24,0,0,1,0-.08l.3-.51,0,0,.66-.36a.2.2,0,0,1,.11,0h.27a.16.16,0,0,0,.11-.05l1-1.21s0,0,0-.05Z"/><rect class="cls-2" x="7.06" y="27.8" width="0.6" height="2.01" rx="0.27" transform="translate(-22.37 28.45) rotate(-75)"/><path class="cls-2" d="M11.58,28.77a.28.28,0,0,1-.15.36h0c-1.16.4-2.08.73-2.78,1a.81.81,0,0,1-.53,0l-1.83-.46a.3.3,0,0,1-.22-.36h0a.28.28,0,0,1,.35-.22h0l1.75.43a.89.89,0,0,0,.47-.05c.8-.29,1.66-.58,2.56-.87a.3.3,0,0,1,.38.17Z"/><path class="cls-1" d="M4.33,28.71a.22.22,0,0,1,.2.24h0l-.38,2.31a.57.57,0,0,1-.15.31L3,32.69a.24.24,0,0,1-.33,0h0a.22.22,0,0,1,0-.32h0q.27-.32.81-.9a1.08,1.08,0,0,0,.29-.57c.13-.82.24-1.49.34-2a.24.24,0,0,1,.26-.2Z"/><path class="cls-1" d="M5.15,28.86h0a.24.24,0,0,1,.18.27c-.07.53-.19,1.2-.34,2a1.09,1.09,0,0,0,.08.64c.22.49.37.86.48,1.12a.23.23,0,0,1-.13.29h0a.24.24,0,0,1-.31-.12l-.59-1.39a.6.6,0,0,1,0-.35L4.88,29a.22.22,0,0,1,.25-.17Z"/><path class="cls-2" d="M11.91,29.78h0a.31.31,0,0,1-.2.37q-1.35.48-2.55.87a.9.9,0,0,0-.41.25c-.41.51-.78,1-1.12,1.41a.3.3,0,0,1-.41,0h0a.3.3,0,0,1,0-.41l1.16-1.49a.92.92,0,0,1,.44-.3l2.79-.93a.27.27,0,0,1,.35.18Z"/><circle class="cls-2" cx="40.37" cy="30.24" r="0.62"/><circle class="cls-2" cx="37.5" cy="31.69" r="1.94"/><rect class="cls-1" x="1.98" y="31.4" width="1.59" height="0.46" rx="0.22" transform="translate(-22.35 12.22) rotate(-47.3)"/><rect class="cls-1" x="5.41" y="31.34" width="0.48" height="1.58" rx="0.23" transform="translate(-12.06 4.73) rotate(-22.9)"/><rect class="cls-2" x="7.54" y="32.03" width="2.01" height="0.61" rx="0.3" transform="translate(-22.15 19.06) rotate(-51.8)"/><circle class="cls-1" cx="33.77" cy="33.12" r="1.26"/><circle class="cls-3" cx="11.48" cy="33.84" r="1.26"/><circle class="cls-1" cx="40.38" cy="33.44" r="0.6"/><circle class="cls-1" cx="32.36" cy="34.68" r="0.66"/><circle class="cls-1" cx="36.1" cy="34.68" r="0.4"/><circle class="cls-3" cx="38.79" cy="35.66" r="1.35"/><circle class="cls-1" cx="8.21" cy="35.37" r="0.64"/><path class="cls-2" d="M24.7,35.27h0a.32.32,0,0,1,.41-.13l2.41,1.19a.84.84,0,0,0,.46.1c.65-.06,1.24-.13,1.79-.2a.3.3,0,0,1,.32.26h0v0a.3.3,0,0,1-.26.33L28,37.05a1,1,0,0,1-.52-.09l-2.63-1.31a.28.28,0,0,1-.12-.37Z"/><circle class="cls-1" cx="35.48" cy="36.14" r="0.81"/><rect class="cls-2" x="27.86" y="35.53" width="2.01" height="0.61" rx="0.29" transform="translate(-3.81 3.44) rotate(-6.4)"/><circle class="cls-2" cx="12.84" cy="37.5" r="1.97"/><circle class="cls-3" cx="9.91" cy="36.12" r="0.35"/><path class="cls-2" d="M24.22,36.21a.28.28,0,0,1,.36-.15h0l2.64,1.28a.94.94,0,0,1,.4.36l1,1.62a.3.3,0,0,1-.1.41h0a.29.29,0,0,1-.4-.1h0c-.28-.48-.59-1-.93-1.54a.77.77,0,0,0-.37-.3c-.76-.37-1.57-.76-2.41-1.19a.32.32,0,0,1-.15-.4Z"/><circle class="cls-2" cx="18.71" cy="37.67" r="1.25"/><circle class="cls-1" cx="16.54" cy="37.25" r="0.64"/><rect class="cls-1" x="29.99" y="37.79" width="1.58" height="0.48" rx="0.23" transform="translate(-16.06 52.15) rotate(-67.8)"/><ellipse class="cls-1" cx="8.82" cy="38.71" rx="1.3" ry="1.31" transform="translate(-30.87 37.97) rotate(-76.1)"/><path class="cls-1" d="M28.82,40.68h0a.25.25,0,0,1,.07-.32q.63-.48,1.65-1.17a1,1,0,0,0,.4-.51l.45-1.12a.24.24,0,0,1,.3-.12h0a.22.22,0,0,1,.12.3l-.56,1.4a.68.68,0,0,1-.21.27l-1.92,1.33a.21.21,0,0,1-.3,0Z"/><ellipse class="cls-1" cx="21.71" cy="40.16" rx="1.95" ry="1.98" transform="translate(-0.91 0.5) rotate(-1.3)"/><rect class="cls-2" x="26.92" y="38.15" width="0.6" height="2.03" rx="0.29" transform="translate(-16.11 19.24) rotate(-30.5)"/><path class="cls-3" d="M26,39h0a.21.21,0,0,1,.27.13c.17.45.37,1,.62,1.76a1,1,0,0,0,.34.48c.39.29.68.52.88.68a.21.21,0,0,1,0,.29h0a.21.21,0,0,1-.3,0l-1.09-.85a.51.51,0,0,1-.19-.26l-.69-2A.19.19,0,0,1,26,39Z"/><path class="cls-3" d="M25.28,39.26a.2.2,0,0,1,.26.1h0l.72,2a.58.58,0,0,1,0,.32L26,43a.21.21,0,0,1-.26.16h0a.21.21,0,0,1-.16-.25h0c.06-.24.14-.6.26-1.07a1,1,0,0,0,0-.59c-.26-.71-.47-1.29-.62-1.75a.23.23,0,0,1,.13-.27Z"/><path class="cls-1" d="M29.29,41.37a.22.22,0,0,1,0-.3h0l1.91-1.37a.66.66,0,0,1,.33-.12l1.51-.06a.23.23,0,0,1,.24.22v0a.22.22,0,0,1-.21.24h0L31.9,40a1.13,1.13,0,0,0-.62.21c-.67.49-1.22.88-1.66,1.18a.24.24,0,0,1-.32,0Z"/><circle class="cls-2" cx="14.35" cy="40.38" r="0.64"/><circle class="cls-2" cx="11.11" cy="40.39" r="0.58"/><circle class="cls-2" cx="16.65" cy="40.66" r="0.6"/><ellipse class="cls-1" cx="18.5" cy="40.45" rx="0.37" ry="0.35" transform="translate(-4.79 2.56) rotate(-7)"/><rect class="cls-1" x="31.67" y="40.18" width="1.59" height="0.47" rx="0.23" transform="translate(-1.18 0.98) rotate(-1.7)"/><rect class="cls-3" x="27.62" y="40.68" width="0.44" height="1.43" rx="0.21" transform="translate(-21.94 38.28) rotate(-52.5)"/><rect class="cls-3" x="24.63" y="42.05" width="1.42" height="0.43" rx="0.19" transform="translate(-21.67 57.04) rotate(-76.5)"/><ellipse class="cls-2" cx="18.86" cy="43.24" rx="1.28" ry="1.3" transform="matrix(0.15, -0.99, 0.99, 0.15, -26.76, 55.26)"/><circle class="cls-1" cx="21.7" cy="43.52" r="0.58"/></g></g></svg>