<svg xmlns="http://www.w3.org/2000/svg" viewBox="0 0 75.43 44.65"><defs><style>.cls-1{fill:#1577bc;}.cls-2{fill:#1677bc;}.cls-3{fill:#1977bc;}.cls-4{fill:#1877bc;}.cls-5{fill:#1e78bd;}.cls-6{fill:#1977bd;}.cls-7{fill:#1d78bd;}.cls-8{fill:#1a77bd;}.cls-9{fill:#1b78bd;}.cls-10{fill:#1c78bd;}.cls-11{fill:#2179bd;}.cls-12{fill:#1b77bd;}.cls-13{fill:#1f78bd;}.cls-14{fill:#267abe;}.cls-15{fill:#2479be;}.cls-16{fill:#2078bd;}.cls-17{fill:#277abe;}.cls-18{fill:#2379bd;}.cls-19{fill:#2279bd;}.cls-20{fill:#2079bd;}.cls-21{fill:#287abe;}.cls-22{fill:#357dc0;}.cls-23{fill:#2c7bbf;}.cls-24{fill:#297abe;}.cls-25{fill:#387fc1;}.cls-26{fill:#2f7cbf;}.cls-27{fill:#317cbf;}.cls-28{fill:#2d7bbf;}.cls-29{fill:#2a7abe;}.cls-30{fill:#2a7bbe;}.cls-31{fill:#327dc0;}.cls-32{fill:#307cbf;}.cls-33{fill:#377ec0;}.cls-34{fill:#2b7bbe;}.cls-35{fill:#2579be;}.cls-36{fill:#4683c3;}.cls-37{fill:#4985c4;}.cls-38{fill:#4382c3;}.cls-39{fill:#3a7fc1;}.cls-40{fill:#347dc0;}.cls-41{fill:#5088c6;}.cls-42{fill:#397fc1;}.cls-43{fill:#4c86c5;}.cls-44{fill:#367ec0;}.cls-45{fill:#2e7cbf;}.cls-46{fill:#4f87c5;}.cls-47{fill:#337dc0;}.cls-48{fill:#327dbf;}.cls-49{fill:#179d6b;}.cls-50{fill:#1477bc;}.cls-51{fill:#949699;}.cls-52{fill:#939598;}.cls-53{fill:#ec2327;}.cls-54{fill:#ec2528;}.cls-55{fill:#ec2628;}.cls-56{fill:#1f9e6d;}.cls-57{fill:#219e6d;}.cls-58{fill:#33a072;}.cls-59{fill:#96c3a8;}.cls-60{fill:#189d6b;}.cls-61{fill:#37a173;}.cls-62{fill:#3da275;}.cls-63{fill:#a2c8b1;}.cls-64{fill:#ee3e30;}</style></defs><g id="Layer_2" data-name="Layer 2"><g id="Layer_2-2" data-name="Layer 2"><path class="cls-1" d="M68.55,28.55c0,.27,0,.55,0,.83a1.27,1.27,0,0,1-1.88,1.2,1,1,0,0,0-.8,0,3,3,0,0,1-2.17-.06.45.45,0,0,0-.5,0,1,1,0,0,1-.79.18,5.55,5.55,0,0,0-2.33,0c-.81.06-1.62,0-2.44,0a1.61,1.61,0,0,1-.81-.15.44.44,0,0,0-.5,0,1.07,1.07,0,0,1-.86.12,2.35,2.35,0,0,0-1.61,0,1.4,1.4,0,0,1-1.78-1.27,1.37,1.37,0,0,1,1.52-1.56c.49,0,1.12-.21,1.45.08s.09.91.11,1.38,0,.72.47.74.56-.34.56-.73v-.44c0-.73,0-.73.71-.7.13,0,.34-.07.37.13s.09.37-.14.54A.83.83,0,0,0,57.19,30a.33.33,0,0,0,.36.07c.13-.08,0-.19,0-.3a1.48,1.48,0,0,1,1.85-1.87c.58.12.36.55.37.88s-.33.21-.53.25A.19.19,0,0,1,59,28.8c0-.55-.33-.25-.51-.11a.77.77,0,0,0-.19.82.63.63,0,0,0,.58.52,11.53,11.53,0,0,0,1.44,0c.43,0,.53-.36.52-.72A1.53,1.53,0,0,1,63.19,28a1.29,1.29,0,0,1,.7,1.34c0,.29.06.61.38.66a1.74,1.74,0,0,0,1.44-.17.73.73,0,0,0,.21-.81.65.65,0,0,0-.46-.5c-.34-.09-.19.22-.27.34s-.38.09-.57.11-.18-.13-.19-.26c-.09-.73,0-.89.78-.89a1.38,1.38,0,0,1,1.53,1.51c0,.37.08.7.52.7s.52-.33.52-.7c0-.61,0-1.22,0-1.83,0-.26.09-.36.36-.35s.45,0,.43.33S68.55,28.19,68.55,28.55Zm-14.2.52c0-.57,0-.57-.5-.58-.66,0-1,.25-1,.77a.78.78,0,0,0,.76.79C54.09,30.05,54.34,29.71,54.35,29.07Zm8,1a.73.73,0,0,0,.74-.78.71.71,0,0,0-.73-.78.73.73,0,0,0-.75.77A.74.74,0,0,0,62.37,30.05Z"/><path class="cls-1" d="M15.44,30.71c-.6-.07-1.36.17-2-.23-.12-.08-.2,0-.3.05a1.28,1.28,0,0,1-.58.15.69.69,0,0,0-.87.54.84.84,0,0,1-.6.46c-.15,0-.36.15-.44-.05s-.15-.43.13-.58c.12-.06.32-.13.25-.3s-.29-.07-.44-.05a1.52,1.52,0,0,1-1.65-.85,1.5,1.5,0,0,1,.42-1.72,1.85,1.85,0,0,1,2,0,1.34,1.34,0,0,1,.51,1.17c0,.38.07.75.54.73s.52-.39.52-.77v-.44c0-.68,0-.69.71-.65.14,0,.33-.06.37.14a.44.44,0,0,1-.1.5c-.38.31-.22.68-.09,1a.35.35,0,0,0,.43.19c.23-.08,0-.25,0-.37a1.49,1.49,0,0,1,1.93-1.8c.39.1.35.37.33.64s.14.45-.2.47-.57.15-.59-.33c0-.23-.23-.13-.34-.06a.72.72,0,0,0-.38.79.68.68,0,0,0,.64.66,9.89,9.89,0,0,0,1.44,0c.4,0,.49-.34.5-.68,0-.59,0-1.18,0-1.77,0-.29.06-.44.4-.44s.36.15.36.41c0,.63,0,1.26,0,1.88a1.15,1.15,0,0,1-1.24,1.26C16.57,30.73,16.07,30.71,15.44,30.71Zm-5.09-.66a.74.74,0,0,0,.71-.81.71.71,0,0,0-.76-.75.73.73,0,0,0-.72.8A.76.76,0,0,0,10.35,30.05Z"/><path class="cls-1" d="M31.07,28.51v.84a1.28,1.28,0,0,1-1.91,1.21.72.72,0,0,0-.75,0,1.84,1.84,0,0,1-.87.14,22,22,0,0,1-2.44,0,7.41,7.41,0,0,0-2.35,0,1.77,1.77,0,0,1-.56,0,1.08,1.08,0,0,1-1-1,8.75,8.75,0,0,1,0-.89c0-.26.13-.3.35-.29s.43-.06.43.27c0,.15,0,.29,0,.44a.82.82,0,0,0,1.27.8.55.55,0,0,0,.31-.54V28.18c0-.17,0-.36.24-.34s.63-.14.83.12a.44.44,0,0,1-.15.56c-.33.31-.18.79-.09,1.18s.43.34.74.35.39-.08.39-.37c0-.61,0-1.22,0-1.83,0-.11,0-.25-.08-.3a.39.39,0,0,1-.16-.61c.18-.24.52-.12.78-.09s.18.34.16.51c0,.42.1.54.53.48a5.88,5.88,0,0,1,1.11,0,1.36,1.36,0,0,1,1.45,1.41v.22c0,.36.18.58.54.57s.48-.24.49-.56c0-.63,0-1.26,0-1.89,0-.28,0-.44.38-.44s.42.12.41.42S31.07,28.2,31.07,28.51ZM27.14,30c.22,0,.44,0,.66,0a.69.69,0,0,0,.62-.49.77.77,0,0,0-.15-.82,2.23,2.23,0,0,0-1.84-.11.51.51,0,0,0-.15.23C26,29.68,26.27,30.05,27.14,30Z"/><path class="cls-2" d="M49.23,28.54c0,.28,0,.56,0,.83a1.27,1.27,0,0,1-1.87,1.21.87.87,0,0,0-.8,0,3.4,3.4,0,0,1-1.65.1c-.23,0-.33,0-.38.25a1.05,1.05,0,0,1-.75.75c-.15.05-.37.15-.44,0s-.16-.45.12-.58a.67.67,0,0,0,.37-.78c0-.48.2-1-.27-1.44a.23.23,0,0,1,.05-.3,1.39,1.39,0,0,1,.81,0c.27,0,.16.28.18.45s0,.33,0,.5a1.28,1.28,0,0,0,0,.27c.14.33,1.09.47,1.57.23a.8.8,0,0,0,.3-1.14.55.55,0,0,0-.44-.3c-.24,0-.16.19-.2.31-.11.27-.35.12-.53.15s-.23-.1-.25-.27c-.08-.71,0-.87.75-.88a1.38,1.38,0,0,1,1.57,1.51c0,.34.07.65.47.7s.56-.22.56-.59c0-.6,0-1.21,0-1.82,0-.3,0-.48.41-.48s.39.18.38.45S49.23,28.23,49.23,28.54Z"/><path class="cls-2" d="M34.57,27.84c1,0,1,0,1,1a5.77,5.77,0,0,0,0,.72.45.45,0,0,0,.47.45.48.48,0,0,0,.53-.46c0-.33,0-.66,0-1,0-.17-.08-.42.22-.41s.63-.14.83.09a.39.39,0,0,1-.17.6c-.21.09-.1.33-.11.5a1.27,1.27,0,0,1-1.92,1.19.7.7,0,0,0-.7,0A1.62,1.62,0,0,1,33,30.32a1.37,1.37,0,0,1-.38-1.48,1.3,1.3,0,0,1,1.19-1A6.77,6.77,0,0,1,34.57,27.84Zm-.21.65c-.7,0-1,.26-1,.76a.79.79,0,0,0,.76.8c.49,0,.74-.37.77-1.06C34.86,28.57,34.73,28.41,34.36,28.49Z"/><path class="cls-3" d="M8.4,29.56c0,.38,0,.77,0,1.16a1,1,0,0,1-.78,1,2.34,2.34,0,0,1-1.26,0,1,1,0,0,1-.78-1c0-.61,0-1.22,0-1.83,0-.16,0-.36.23-.34s.63-.14.83.12,0,.35-.13.57c-.37.46-.16,1-.11,1.57,0,.31.35.32.62.33a.53.53,0,0,0,.62-.6c0-.64,0-1.29,0-1.93,0-.27.06-.4.37-.4s.44.07.42.4,0,.66,0,1Z"/><path class="cls-4" d="M39.75,30.7c-.27-.13-.35,0-.43.28a1.08,1.08,0,0,1-.73.71c-.14,0-.36.15-.44,0s-.15-.45.13-.58a.61.61,0,0,0,.35-.73c-.06-.49.18-1-.22-1.47-.1-.11-.08-.34.21-.38.67-.1.78,0,.79.63a3.38,3.38,0,0,0,0,.45.49.49,0,0,0,.52.47.47.47,0,0,0,.49-.49c0-.35,0-.7,0-1.05,0-.19,0-.36.26-.33s.61-.16.8.14a.34.34,0,0,1-.13.52c-.26.11-.15.35-.16.54A1.23,1.23,0,0,1,39.75,30.7Z"/><path class="cls-5" d="M62.64,38.94c0,.54,0,1.09,0,1.64-.47.25-.62.19-.64-.28,0-.23,0-.46,0-.7-.31.18-.21.52-.31.78s-.11.3-.33.31-.32-.11-.37-.32a3.93,3.93,0,0,0-.35-1c0,.33,0,.66,0,1s0,.4-.32.39-.3-.16-.29-.37V38.73c0-.17,0-.38.23-.35s.61-.2.77.2c.09.22.13.46.2.69s-.05.27.11.3.1-.11.09-.19a5.44,5.44,0,0,0,.16-.64c.06-.28.21-.36.5-.38C62.52,38.33,62.68,38.48,62.64,38.94Z"/><path class="cls-6" d="M59.22,43.41c0,.32,0,.58,0,.84s0,.34-.3.34-.36-.1-.36-.36c0-.5,0-1,0-1.49,0-.16-.09-.42.22-.41s.52-.13.66.22.39.82.62,1.32a11,11,0,0,0,.56-1.17c.13-.41.43-.41.74-.37s.17.35.18.53c0,.46,0,.93,0,1.39,0,.21,0,.34-.3.34s-.33-.1-.32-.33a2.1,2.1,0,0,0-.1-.81c-.12.25-.23.51-.35.77s-.13.37-.41.37-.33-.17-.42-.36S59.5,43.65,59.22,43.41Z"/><path class="cls-7" d="M33.37,43.53v-.76c0-.22-.07-.47.34-.46s.32.23.32.44c0,.46,0,.92,0,1.38,0,.16.08.38-.13.43s-.48.09-.66-.16-.56-.72-.94-1.2c0,.42,0,.7,0,1s0,.42-.34.41-.32-.17-.32-.39c0-.48,0-1,0-1.44,0-.15-.09-.38.14-.42s.47-.1.65.16.56.72.84,1.08Z"/><path class="cls-7" d="M55,39.53c0,.25,0,.51,0,.77s-.06.39-.37.39-.36-.12-.36-.4.16-.51-.24-.56-.57.05-.51.47c0,.27,0,.49-.39.49s-.35-.27-.35-.51c0-.48,0-1,0-1.44,0-.24,0-.38.33-.38s.45,0,.41.36,0,.47.41.46.38-.23.35-.47.1-.35.35-.34.39,0,.37.33S55,39.25,55,39.53Z"/><path class="cls-8" d="M17.64,39.62c0-.4,0-.64,0-.87s0-.39.32-.39.35.12.35.37c0,.49,0,1,0,1.49,0,.16.1.4-.17.45a.54.54,0,0,1-.63-.21c-.2-.32-.43-.63-.71-1v.82c0,.22,0,.44-.32.44s-.36-.16-.36-.41c0-.5,0-1,0-1.5,0-.15-.07-.37.18-.39s.44-.09.6.15S17.33,39.17,17.64,39.62Z"/><path class="cls-9" d="M11.49,39.65a3.77,3.77,0,0,1,.34.51c.07.16.35.37.1.49a.54.54,0,0,1-.74-.17c-.09-.16-.17-.33-.27-.49s-.14-.26-.28-.22-.1.22-.11.34c0,.28.1.63-.41.58-.21,0-.3-.08-.3-.29,0-.57,0-1.15,0-1.72,0-.16,0-.31.23-.31.46,0,.92,0,1.39,0a.54.54,0,0,1,.46.43C12,39.22,11.76,39.45,11.49,39.65ZM11.17,39c-.05-.22-.22-.2-.39-.21s-.27.07-.25.26.19.22.36.21S11.18,39.22,11.17,39Z"/><path class="cls-7" d="M50.09,39.57c0,.24,0,.48,0,.72s-.05.4-.36.4-.35-.16-.36-.41.14-.48-.21-.54-.63,0-.57.46c0,.28,0,.5-.38.49s-.35-.24-.35-.48c0-.5,0-1,0-1.49,0-.27.1-.36.36-.35s.4,0,.38.32,0,.49.39.49.41-.21.39-.49.14-.32.37-.32.35.07.34.31S50.09,39.27,50.09,39.57Z"/><path class="cls-9" d="M44,40.71a1.1,1.1,0,0,1-1.19-1.22,1.21,1.21,0,0,1,2.41,0A1.11,1.11,0,0,1,44,40.71Zm.49-1.28c0-.25-.09-.55-.45-.56s-.5.3-.5.65.06.63.45.64S44.43,39.85,44.44,39.43Z"/><path class="cls-10" d="M70.19,39.5a1.21,1.21,0,0,1-2.42.06,1.21,1.21,0,1,1,2.42-.06Zm-.74-.07a.47.47,0,0,0-.45-.56c-.41,0-.49.3-.49.65s.06.63.45.64S69.45,39.85,69.45,39.43Z"/><path class="cls-8" d="M35.11,43.18c0,.47,0,.77,0,1.08s-.07.32-.32.33-.31-.12-.3-.34c0-.49,0-1,0-1.49,0-.15-.09-.39.13-.42a.56.56,0,0,1,.65.17c.26.36.55.71.92,1.18,0-.43,0-.72,0-1s0-.36.33-.36.33.14.32.37c0,.48,0,1,0,1.44,0,.16.11.41-.18.44a.54.54,0,0,1-.6-.16C35.79,44,35.5,43.68,35.11,43.18Z"/><path class="cls-5" d="M72.2,43a1.26,1.26,0,0,1-.8-.07.67.67,0,0,0-1,.16.58.58,0,0,0,.11.84.75.75,0,0,0,1.11-.16c-.2-.12-.41-.05-.59-.07a.18.18,0,0,1-.18-.17c0-.13,0-.23.18-.23a9.19,9.19,0,0,1,1,0c.25,0,.19.26.17.4a1.08,1.08,0,0,1-.92.85A1.42,1.42,0,0,1,69.82,44a1,1,0,0,1,.05-1.24A1.44,1.44,0,0,1,72.2,43Z"/><path class="cls-10" d="M72.35,39.36c.14.06.44-.13.47.18s.13.6-.1.85a1.64,1.64,0,0,1-1.86.06,1.32,1.32,0,0,1-.18-1.67,1.48,1.48,0,0,1,1.72-.34c.17.1.41.27.32.46a.45.45,0,0,1-.64.1c-.22-.14-.41-.25-.65-.08s-.24.48-.22.75.26.55.64.51c.13,0,.29,0,.31-.18s-.15-.15-.26-.18-.16-.17-.15-.3.13-.15.24-.15Z"/><path class="cls-10" d="M7.05,39.87c.14.6-.32.7-.74.8a1.23,1.23,0,0,1-1.48-.56,1.32,1.32,0,0,1,.23-1.49,1.53,1.53,0,0,1,1.57-.17c.18.11.45.28.29.5a.47.47,0,0,1-.65,0c-.24-.2-.49-.22-.68,0a.87.87,0,0,0-.08.94c.12.27.38.27.63.23s.24-.06.26-.17-.1-.17-.22-.17-.24-.13-.22-.29.17-.2.29-.17C6.57,39.44,7.16,39.08,7.05,39.87Z"/><path class="cls-9" d="M65.39,39.53a1.21,1.21,0,0,1-2.41,0,1.21,1.21,0,1,1,2.41,0Zm-.72-.07c0-.28-.1-.59-.49-.59s-.48.34-.48.66.08.62.46.63S64.66,39.87,64.67,39.46Z"/><path class="cls-3" d="M24.51,39.52a1.09,1.09,0,0,1-1.21,1.19,1.11,1.11,0,0,1-1.19-1.22,1.13,1.13,0,0,1,1.19-1.18A1.11,1.11,0,0,1,24.51,39.52Zm-.7,0c0-.33-.1-.66-.49-.67s-.48.29-.49.61,0,.66.46.69S23.76,39.85,23.81,39.53Z"/><path class="cls-5" d="M23.53,43a1.08,1.08,0,0,1-.75-.07.67.67,0,0,0-1,.15.57.57,0,0,0,.11.84A.76.76,0,0,0,23,43.79c-.2-.13-.41,0-.59-.08s-.17-.07-.18-.17,0-.23.17-.23h1a.19.19,0,0,1,.21.21,1.67,1.67,0,0,1,0,.39,1.4,1.4,0,0,1-1.51.67,1.15,1.15,0,0,1-1.05-1A1.1,1.1,0,0,1,22,42.35,1.21,1.21,0,0,1,23.53,43Z"/><path class="cls-3" d="M39.22,39.53A1.08,1.08,0,0,1,38,40.71a1.2,1.2,0,0,1,0-2.4A1.1,1.1,0,0,1,39.22,39.53Zm-.7,0c0-.35-.08-.67-.47-.69s-.51.33-.5.66.07.65.5.64S38.51,39.86,38.52,39.55Z"/><path class="cls-10" d="M68.07,44.59a1.16,1.16,0,1,1,1.32-1.18A1.21,1.21,0,0,1,68.07,44.59Zm0-.5c.37,0,.65-.23.64-.65s-.29-.65-.73-.64a.62.62,0,0,0-.67.64A.66.66,0,0,0,68.1,44.09Z"/><path class="cls-7" d="M63.31,44.59a1.25,1.25,0,0,1-1.39-1.13,1.38,1.38,0,0,1,2.72,0A1.23,1.23,0,0,1,63.31,44.59ZM64,43.45a.64.64,0,0,0-.66-.65c-.44,0-.73.19-.74.63a.61.61,0,0,0,.65.66A.66.66,0,0,0,64,43.45Z"/><path class="cls-10" d="M3.79,44.59a1.24,1.24,0,0,1-1.38-1.14,1.26,1.26,0,0,1,1.36-1.16,1.16,1.16,0,1,1,0,2.3Zm.08-1.79c-.52,0-.83.28-.8.66a.63.63,0,0,0,.69.63.64.64,0,0,0,.71-.67A.61.61,0,0,0,3.87,42.8Z"/><path class="cls-10" d="M45,44.59a1.22,1.22,0,0,1-1.33-1.18,1.36,1.36,0,0,1,2.69,0A1.22,1.22,0,0,1,45,44.59Zm.7-1c0-.45-.17-.7-.6-.74a.63.63,0,0,0-.77.59.6.6,0,0,0,.62.69C45.3,44.11,45.59,44,45.65,43.55Z"/><path class="cls-11" d="M28.66,39.51c0-1.14,0-1.16,1.12-1.13.27,0,.76-.22.78.21s-.48.17-.74.25-.42-.1-.41.21.27.16.43.18a1.82,1.82,0,0,0,.33,0c.18,0,.35,0,.33.25s-.16.21-.31.21h-.56c-.15,0-.24.06-.23.23s.1.22.25.22h.66c.2,0,.31.05.31.28s-.14.26-.33.26a11.22,11.22,0,0,0-1.16,0c-.37,0-.51-.1-.48-.46A5.77,5.77,0,0,0,28.66,39.51Z"/><path class="cls-10" d="M28.06,44.52c-.83.34-.87-.48-1.32-.81,0,.23,0,.4,0,.57s-.11.3-.34.31S26,44.5,26,44.27c0-.54,0-1.07,0-1.6,0-.25.06-.38.34-.35s.75,0,1.11.06c.57.1.84.76.41,1s-.26.49,0,.76A2.66,2.66,0,0,1,28.06,44.52Zm-1.13-1.74c-.1,0-.24,0-.24.3s.11.28.31.27.38,0,.41-.27S27.24,42.8,26.93,42.78Z"/><path class="cls-12" d="M40.16,43.41c0-1.18,0-1.18,1.19-1.06a1.11,1.11,0,1,1,.1,2.21C40.25,44.77,40.16,44.69,40.16,43.41Zm.6,0c.12.21-.23.69.36.66.4,0,.74-.16.74-.65s-.31-.63-.73-.65S40.84,43.19,40.76,43.44Z"/><path class="cls-7" d="M7.48,39.5c0-1.13,0-1.13,1.12-1.13h.56c.16,0,.23.08.23.24s-.07.24-.23.23H8.55c-.14,0-.33-.05-.34.17s.2.21.36.21H9c.17,0,.29,0,.27.24s-.11.22-.26.22H8.42c-.12,0-.22,0-.22.18s0,.26.21.27H9c.2,0,.48-.08.47.28s-.26.24-.45.25H8.66C7.48,40.68,7.48,40.68,7.48,39.5Z"/><path class="cls-7" d="M20.78,40.71a1,1,0,0,1-.81-.28c-.12-.13-.3-.34-.14-.47a.46.46,0,0,1,.61,0c.08.09.14.21.27.26a.31.31,0,0,0,.39-.12c.11-.19-.05-.27-.19-.32s-.46-.13-.68-.23a.58.58,0,0,1-.39-.61.62.62,0,0,1,.47-.55,1.35,1.35,0,0,1,1.13.07c.18.1.37.29.25.48s-.37.11-.55,0-.16-.15-.25-.21a.23.23,0,0,0-.34.07c-.1.19.09.2.2.24a2.92,2.92,0,0,0,.42.13c.42.1.73.31.66.8s-.42.62-.83.67Z"/><path class="cls-10" d="M2.47,40.68c-.35,0-.63.12-.88-.26a.51.51,0,0,0-.83,0,.46.46,0,0,1-.66.18c-.23-.11,0-.32,0-.48.16-.47.36-.92.51-1.4a.49.49,0,0,1,.55-.4.51.51,0,0,1,.55.42C2,39.4,2.22,40,2.47,40.68ZM1.2,39.11c-.11.21-.28.41-.16.65a.22.22,0,0,0,.3,0C1.49,39.53,1.3,39.33,1.2,39.11Z"/><path class="cls-9" d="M13.36,40.66c.27-.71.53-1.34.75-2,.09-.27.25-.31.5-.3s.42,0,.52.29c.18.52.39,1,.57,1.55.05.14.24.34,0,.43a.52.52,0,0,1-.65-.1.56.56,0,0,0-.95,0C13.92,40.79,13.67,40.65,13.36,40.66ZM14.7,39c-.24.31-.34.53-.27.77s.23.11.29,0C15,39.55,14.65,39.34,14.7,39Z"/><path class="cls-9" d="M57.33,40.68a.43.43,0,0,1-.47-.21.55.55,0,0,0-.89,0,.49.49,0,0,1-.64.17c-.27-.1,0-.32,0-.45.16-.51.38-1,.55-1.51.09-.29.27-.34.54-.34s.42.06.51.32c.19.56.39,1.11.61,1.66C57.68,40.62,57.61,40.72,57.33,40.68Zm-.91-1.58c-.06.23-.34.43-.13.68,0,0,.22,0,.25,0C56.76,39.54,56.47,39.34,56.42,39.1Z"/><path class="cls-10" d="M51.31,43.44c0,.26,0,.52,0,.78s0,.37-.33.37-.33-.14-.33-.37a.58.58,0,0,0-.84-.56c-.25.1-.13.31-.15.48s0,.45-.31.45-.32-.22-.32-.44V42.71c0-.21,0-.39.3-.39s.32.12.33.35c0,.5.35.7.82.55.27-.09.16-.31.16-.47s0-.45.39-.44.26.28.27.47A4.85,4.85,0,0,1,51.31,43.44Z"/><path class="cls-7" d="M16.41,44.53c.28-.67.57-1.32.84-2,.09-.22.25-.22.44-.21s.39,0,.5.22c.26.66.55,1.32.85,2-.34,0-.62.14-.81-.24s-.87-.2-1.05,0S16.91,44.59,16.41,44.53Zm1.27-1.46c0,.24-.35.41-.15.65.06.08.35.09.4,0S17.84,43.27,17.68,43.07Z"/><path class="cls-9" d="M53.85,44.55c.28-.68.55-1.35.84-2a.54.54,0,0,1,.93,0c.3.64.56,1.31.85,2-.34,0-.62.13-.8-.25-.1-.22-.92-.22-1,0C54.46,44.68,54.19,44.58,53.85,44.55Zm1.32-1.48c-.12.21-.34.4-.22.63a.3.3,0,0,0,.4,0C55.5,43.47,55.27,43.28,55.17,43.07Z"/><path class="cls-13" d="M7.94,43.07A1.17,1.17,0,0,1,7,42.9a.59.59,0,0,0-.84.15.57.57,0,0,0,0,.76A.6.6,0,0,0,7,44a1.19,1.19,0,0,1,.89-.17,1.17,1.17,0,0,1-1.4.74,1.18,1.18,0,0,1-1.09-1,1.1,1.1,0,0,1,.84-1.21A1.35,1.35,0,0,1,7.94,43.07Z"/><path class="cls-13" d="M46.34,38.37h0c.82,0,1.1.17,1.12.66s-.22.68-1,.78c-.28,0-.28.19-.27.37s0,.54-.42.51-.3-.33-.32-.55,0-.63,0-.94C45.53,38.37,45.53,38.37,46.34,38.37Zm.09.45c-.09,0-.16.07-.16.23s0,.31.2.31a.28.28,0,0,0,.3-.25C46.79,38.93,46.68,38.84,46.43,38.82Z"/><path class="cls-9" d="M26.11,40.72c-.63,0-1-.2-1.21-.71a1.19,1.19,0,0,1,1.7-1.55c.2.13.48.32.35.54a.41.41,0,0,1-.67,0,.35.35,0,0,0-.61,0,.78.78,0,0,0,0,1,.36.36,0,0,0,.61-.09c.21-.38.48-.18.63,0s-.05.37-.17.5A.9.9,0,0,1,26.11,40.72Z"/><path class="cls-14" d="M26.09,34.2c0-.28,0-.48,0-.68s0-.34.19-.33.12.2.13.31,0,.41,0,.64c.43-.06.53-.39.67-.67.06-.12.07-.36.27-.26s.07.27,0,.4a1.5,1.5,0,0,1-.65.8c-.44.26-.44.45,0,.72a1.51,1.51,0,0,1,.71,1c0,.09,0,.19-.09.23s-.16-.07-.2-.15a1.17,1.17,0,0,0-.72-.85v.8c0,.11,0,.24-.15.25s-.16-.12-.17-.24A2.67,2.67,0,0,0,26,35.4a1,1,0,0,0-.51.75c0,.1,0,.25-.19.22s-.14-.19-.11-.32a1.35,1.35,0,0,1,.62-.94c.39-.22.36-.46,0-.68a1.38,1.38,0,0,1-.62-1c0-.11,0-.24.13-.25s.15.08.17.17A1.15,1.15,0,0,0,26.09,34.2Z"/><path class="cls-15" d="M68.91,28.89c0-.46,0-.92,0-1.38s.15-.35.41-.36.34.13.34.37q0,.91,0,1.83c0,.28-.09.58.22.8a.38.38,0,0,1,0,.46c-.2.21-.49.08-.74.09s-.22-.16-.22-.31Z"/><path class="cls-7" d="M1,44.6l-.33-.06a.74.74,0,0,1-.53-.44c0-.08,0-.17.06-.18.24,0,.47-.07.67.14s.38.17.48,0-.13-.29-.3-.34-.32-.09-.48-.15-.49-.27-.46-.61a.63.63,0,0,1,.51-.57,1.28,1.28,0,0,1,1.17.14c.12.08.25.19.19.36s-.25.08-.38.1-.29-.14-.44-.2a.24.24,0,0,0-.33.1c-.08.16,0,.23.17.28s.35.12.52.18.6.26.56.65-.35.54-.7.61A3.63,3.63,0,0,1,1,44.6Z"/><path class="cls-16" d="M29,35.39c-.42.14-.47.47-.57.78,0,.1-.05.24-.2.2s-.13-.16-.1-.28a1.35,1.35,0,0,1,.64-1c.38-.23.39-.46,0-.68a1.27,1.27,0,0,1-.61-.88c0-.13-.12-.32.1-.37s.17.16.2.27a1,1,0,0,0,.48.71c.17-.19.06-.4.1-.59s-.06-.36.12-.37.13.25.16.39a1,1,0,0,0,0,.17c0,.13-.1.33.1.37s.26-.13.34-.25a3.8,3.8,0,0,0,.26-.49c0-.11.08-.28.25-.2s.08.22,0,.34a1.54,1.54,0,0,1-.74.92c-.35.19-.35.45,0,.63a1.71,1.71,0,0,1,.78,1c0,.12,0,.23-.1.27s-.16-.07-.19-.16a1.57,1.57,0,0,0-.42-.7c-.07-.06-.14-.14-.24-.1s0,.16-.08.24c-.07.24.17.68-.16.69s-.07-.47-.12-.73A1.17,1.17,0,0,1,29,35.39Z"/><path class="cls-17" d="M12.77,35.12c0,.4,0,.69,0,1a.14.14,0,0,1-.17.15c-.1,0-.12-.09-.12-.16V33.45c0-.19.16-.23.32-.23h1.39a.28.28,0,0,1,.28.13c0,.13-.06.21-.14.28L13,34.86l1.55,1.06c.11.07.25.17.16.3s-.23,0-.33,0Zm1.13-1.58c-1.27,0-1.32,0-1.07,1.09Z"/><path class="cls-5" d="M46.67,43.45c0-1.27,0-1.27,1.28-1.1.41,0,.71.23.72.69a.67.67,0,0,1-.71.7c-.42,0-.77,0-.66.62.05.21-.13.22-.29.22s-.34,0-.34-.24Zm.89-.09c.26,0,.47-.06.47-.32s-.21-.27-.4-.29-.33.08-.33.32S47.38,43.38,47.56,43.36Z"/><path class="cls-18" d="M24,43.41c0-1.07,0-1.07,1.05-1.08h.33c.15,0,.25,0,.26.21s-.1.22-.26.26-.65-.24-.69.18.41.18.63.25.2.06.21.2-.09.24-.24.23a.49.49,0,0,0-.17,0c-.18,0-.45-.1-.45.24s.29.22.48.26.47-.12.48.2-.31.23-.49.23C24,44.6,24,44.59,24,43.41Z"/><path class="cls-19" d="M13.72,43.44c0-1.16.2-1.31,1.41-1.12.21,0,.25.13.22.3s-.13.16-.25.16h-.39c-.18,0-.34,0-.34.23s.15.23.31.22h.05c.18.06.52-.15.5.23s-.31.15-.49.17-.38,0-.37.28.19.23.36.23h.44a.2.2,0,0,1,.19.23c0,.13-.07.21-.2.21H13.94c-.22,0-.22-.16-.22-.31Z"/><path class="cls-20" d="M38.13,42.33h.55c.16,0,.25,0,.25.22a.2.2,0,0,1-.22.24h-.5c-.16,0-.25,0-.25.22s0,.24.22.24h.06c.19.07.57-.17.56.21s-.37.14-.57.19-.27.07-.27.26.11.22.27.26.68-.2.68.2-.47.21-.71.22c-.9,0-.9,0-.9-.89v-.5C37.3,42.33,37.3,42.33,38.13,42.33Z"/><path class="cls-18" d="M29.61,43.45c0-1.1,0-1.11,1.1-1.11.18,0,.5-.17.49.22s-.33.17-.51.22-.4-.13-.42.19.24.24.43.26.41-.07.39.23-.23.17-.38.18-.44-.1-.44.24.25.24.43.26H31c.16,0,.24.08.23.24a.19.19,0,0,1-.21.2h-.22C29.61,44.61,29.61,44.61,29.61,43.45Z"/><path class="cls-10" d="M18.7,28.92c0-.46,0-.92,0-1.38,0-.29.08-.39.38-.39s.34.13.34.37c0,.59,0,1.18,0,1.77,0,.29-.13.62.24.84.12.06.11.35,0,.46s-.52.1-.78.11-.19-.15-.19-.28Z"/><path class="cls-4" d="M50.32,28.65v1c0,.12,0,.3.08.36a.37.37,0,0,1,.17.59c-.19.24-.52.12-.79.09s-.16-.29-.16-.46c0-.87,0-1.73,0-2.6,0-.24,0-.47.34-.48s.37.25.37.5Z"/><path class="cls-9" d="M41.93,28.91c0-.47,0-.95,0-1.43,0-.29.15-.32.38-.32s.34.07.33.31c0,.54,0,1.07,0,1.6,0,.38-.18.8.25,1.11a.34.34,0,0,1,0,.45c-.22.17-.5.07-.75.06s-.18-.15-.18-.28Z"/><path class="cls-7" d="M9.47,43.44c0-1.1,0-1.11,1.11-1.1.16,0,.45-.17.48.18s-.29.21-.48.26-.45-.15-.45.21.26.21.44.24.36-.07.38.2-.24.19-.4.2-.44-.06-.43.27.28.2.45.24.47-.12.48.2-.31.23-.49.23C9.47,44.6,9.47,44.59,9.47,43.44Z"/><path class="cls-21" d="M37.5,34.83a1.39,1.39,0,1,1-2.78,0,1.47,1.47,0,0,1,1.37-1.53A1.49,1.49,0,0,1,37.5,34.83Zm-2.46,0A1.16,1.16,0,0,0,36.12,36a1.19,1.19,0,0,0,1.06-1.21,1.16,1.16,0,0,0-1.06-1.2A1.12,1.12,0,0,0,35,34.78Z"/><path class="cls-13" d="M34.4,39.07c.24-.45.48-.91,1.13-.65a1.33,1.33,0,0,1-.32.55,1.78,1.78,0,0,0-.49,1.41c0,.19,0,.33-.27.3s-.47.07-.43-.18c.13-.86-.48-1.39-.84-2C33.75,38.31,33.75,38.31,34.4,39.07Z"/><path class="cls-16" d="M73.11,38.42c.6-.08.6-.08,1.19.65.26-.4.46-.94,1.13-.64a1.46,1.46,0,0,1-.36.61,1.7,1.7,0,0,0-.43,1.31c0,.23-.07.35-.31.33s-.45,0-.41-.22c.12-.77-.37-1.27-.73-1.84A.93.93,0,0,1,73.11,38.42Z"/><path class="cls-19" d="M51.49,40.68c-.26,0-.38-.07-.37-.33s0-.52,0-.78.07-.73-.5-.64c-.17,0-.21-.1-.21-.25s0-.31.22-.31h1.72c.21,0,.2.16.21.31s-.09.27-.27.24c-.41-.06-.46.17-.44.49s0,.63,0,.94S51.74,40.72,51.49,40.68Z"/><path class="cls-19" d="M73.74,43.45c0-1.1,0-1.11,1.11-1.11.18,0,.5-.18.48.22s-.33.17-.51.22-.41-.12-.44.18.23.25.42.27.41-.11.42.2-.24.19-.4.21-.45-.08-.44.25.26.23.45.25h.33c.14,0,.18.1.18.22s-.06.21-.2.21h-.22C73.74,44.61,73.74,44.61,73.74,43.45Z"/><path class="cls-9" d="M39.62,39.5c0-1.13,0-1.13,1.12-1.13.11,0,.22,0,.33,0s.33,0,.33.26-.17.19-.31.22-.68-.18-.71.17.41.17.63.24.22.1.21.26a.19.19,0,0,1-.26.2c-.52-.08-.71.14-.63.64,0,.28-.13.32-.37.33s-.35-.11-.34-.37S39.62,39.77,39.62,39.5Z"/><path class="cls-17" d="M65.77,39.52c0-.26,0-.51,0-.77s.08-.39.38-.39.38.15.36.41,0,.26,0,.39c0,.81,0,.82.81.92.21,0,.28.11.27.31s-.07.31-.29.3H67C65.77,40.69,65.77,40.69,65.77,39.52Z"/><path class="cls-22" d="M55.66,34.72v-.11c0-1.54,0-1.53,1.55-1.4.29,0,.4.13.4.4v2.33c0,.13,0,.34-.2.32s-.12-.2-.12-.32c0-.64,0-1.29,0-1.94,0-.35-.09-.48-.46-.47-1,0-.82-.09-.84.81,0,.53,0,1.07,0,1.6,0,.12,0,.31-.13.32s-.19-.19-.19-.32C55.66,35.53,55.66,35.12,55.66,34.72Z"/><path class="cls-10" d="M31.9,38.37c.26,0,.52,0,.77,0s.34.09.34.32-.15.27-.32.24c-.39-.06-.42.16-.41.46s0,.59,0,.88,0,.42-.34.42-.39-.17-.38-.44,0-.48,0-.72.05-.7-.49-.6c-.19,0-.25-.08-.25-.26s.07-.31.28-.3S31.64,38.37,31.9,38.37Z"/><path class="cls-18" d="M57.87,39.5c0-.26,0-.52,0-.77s.07-.37.34-.37.39.07.37.34,0,.3,0,.44c0,.85,0,.86.81.94.2,0,.29.07.3.28s-.09.34-.33.32h-.27C57.87,40.69,57.87,40.69,57.87,39.5Z"/><path class="cls-19" d="M2.69,39.52c0-.26,0-.52,0-.77s.09-.39.38-.39.34.14.33.38,0,.33,0,.5c0,.77,0,.78.79.84.23,0,.34.08.33.32s-.1.3-.3.29H3.88C2.69,40.68,2.69,40.68,2.69,39.52Z"/><path class="cls-23" d="M12.36,42.31h.77c.14,0,.25,0,.26.21s-.07.28-.26.26c-.42-.06-.44.19-.42.5s0,.62,0,.93,0,.38-.32.38-.35-.12-.34-.36,0-.52,0-.78.13-.79-.5-.68c-.14,0-.18-.09-.19-.21s.05-.25.22-.25Z"/><path class="cls-17" d="M39.14,33.22a.88.88,0,0,1,.72.36c.1.15.24.37.07.49s-.22-.15-.3-.26a.56.56,0,0,0-.62-.25.53.53,0,0,0-.39.49.51.51,0,0,0,.37.55c.14,0,.34.06.33.24S39.09,35,39,35c-.31.07-.56.2-.56.57a.5.5,0,0,0,.37.55.75.75,0,0,0,.86-.33c.08-.12.06-.41.29-.3s.06.33,0,.48a1.12,1.12,0,0,1-1.46.35.87.87,0,0,1-.1-1.35c.19-.2.14-.31,0-.51A.86.86,0,0,1,39.14,33.22Z"/><path class="cls-24" d="M52.66,42.32h.72c.17,0,.29,0,.29.22s-.11.27-.28.24c-.38-.07-.43.13-.41.44s0,.66,0,1,0,.38-.32.38-.35-.11-.34-.36,0-.59,0-.89,0-.64-.46-.56c-.17,0-.23-.09-.22-.24s.08-.23.24-.22Z"/><path class="cls-14" d="M3.1,36.15c.3-.06.62-.11.73-.48,0-.11.06-.24.2-.2s.13.2.09.32a1,1,0,0,1-.88.65.78.78,0,0,1-.89-.4.81.81,0,0,1,.08-1c.24-.23.2-.38.09-.64A.84.84,0,0,1,3,33.28a.89.89,0,0,1,1.12.46c.05.12.11.27,0,.35s-.21-.07-.26-.18a.52.52,0,0,0-.61-.36.51.51,0,0,0-.44.51.53.53,0,0,0,.43.56c.13,0,.29.06.27.22s-.24.12-.36.15c-.38.08-.6.28-.55.69S2.81,36.11,3.1,36.15Z"/><path class="cls-25" d="M16.26,34.76c0,.39,0,.78,0,1.16s-.23.39-.51.39-.5,0-.49-.4c0-.8,0-1.59,0-2.38,0-.14,0-.35.17-.35s.16.22.16.36v2.1c0,.12,0,.3.14.31s.18-.19.18-.32c0-.7,0-1.4,0-2.1,0-.14,0-.35.16-.35s.16.22.16.36C16.27,34,16.26,34.35,16.26,34.76Z"/><path class="cls-26" d="M69.66,34.73V33.51c0-.13,0-.34.18-.32s.14.19.14.31c0,.66,0,1.33,0,2,0,.16-.12.44.15.46s.16-.28.17-.44c0-.66,0-1.32,0-2,0-.13,0-.34.16-.34s.16.18.16.31c0,.81,0,1.63,0,2.44,0,.4-.24.37-.51.38s-.5-.05-.48-.42S69.66,35.12,69.66,34.73Z"/><path class="cls-22" d="M71.2,34.73c0-.41,0-.81,0-1.22,0-.13-.06-.34.17-.32s.15.19.15.31c0,.68,0,1.37,0,2,0,.14-.1.39.14.4s.18-.24.18-.38c0-.7,0-1.4,0-2.1,0-.12,0-.3.16-.28s.15.15.15.26c0,.85,0,1.69,0,2.54,0,.42-.33.29-.57.32s-.42-.06-.41-.37S71.2,35.13,71.2,34.73Z"/><path class="cls-27" d="M34.44,34.77c0,.41,0,.81,0,1.22,0,.11,0,.29-.17.27s-.12-.17-.12-.27c0-.65,0-1.29,0-1.94,0-.41-.11-.54-.53-.52-.9,0-.77-.11-.78.75V36c0,.12,0,.28-.18.27s-.14-.15-.14-.27c0-.81,0-1.62,0-2.43,0-.26.12-.37.37-.36h.06C34.44,33.13,34.44,33.13,34.44,34.77Z"/><path class="cls-28" d="M67.54,34.77c0,.35,0,.7,0,1s-.14.49-.52.49c-1.41,0-1.41,0-1.41-1.37,0-.44,0-.88,0-1.32,0-.12,0-.31.12-.32s.16.21.16.34c0,.62,0,1.25,0,1.88,0,.36.1.48.47.47,1,0,.82.11.83-.82,0-.54,0-1.07,0-1.61,0-.13,0-.3.16-.3s.17.15.17.29Z"/><path class="cls-29" d="M9.11,33.8c-.36.86-.66,1.61-1,2.35-.05.13-.09.34-.28.26s-.06-.26,0-.38c.34-.84.69-1.67,1-2.51.05-.11.08-.27.24-.27s.18.16.23.28c.35.83.7,1.66,1,2.5,0,.12.2.29,0,.38s-.23-.13-.28-.26Z"/><path class="cls-17" d="M6,33.8c-.35.84-.65,1.57-1,2.3,0,.12-.09.35-.26.29s-.08-.28,0-.41l1-2.45c0-.12.07-.28.23-.27s.19.16.24.27l1,2.56c.05.11.14.26,0,.32s-.2-.1-.25-.22C6.7,35.43,6.39,34.67,6,33.8Z"/><path class="cls-24" d="M56.77,43.46c0-.26,0-.52,0-.77s0-.38.32-.37.35.1.34.35,0,.7,0,1,.06.48.42.45c.16,0,.41-.1.42.19s-.27.22-.44.23C56.77,44.6,56.77,44.6,56.77,43.46Z"/><path class="cls-21" d="M65,43.47v-.72c0-.22,0-.44.32-.44s.35.17.34.41,0,.6,0,.89,0,.62.49.54c.16,0,.36,0,.36.22s-.21.2-.37.21C65,44.63,65,44.63,65,43.47Z"/><path class="cls-30" d="M28.17,39.54c0,.22,0,.44,0,.67s0,.5-.39.49-.36-.27-.36-.52c0-.45,0-.89,0-1.33,0-.28,0-.5.39-.49s.36.21.36.46S28.17,39.3,28.17,39.54Z"/><path class="cls-5" d="M19.35,43.4c0-.26,0-.51,0-.77s.08-.3.32-.31.31.1.31.32,0,.51,0,.77c0,.44-.06.88.62.75.14,0,.24,0,.24.21s-.12.21-.26.21h-.06C19.35,44.68,19.35,44.68,19.35,43.4Z"/><path class="cls-31" d="M53.18,33.07c.3,0,.61,0,.27.37a.44.44,0,0,0-.05.26v2.1c0,.11,0,.24.07.3s.37,0,.31.23-.31.13-.48.14H53c-.14,0-.34,0-.36-.15s.15-.17.28-.18.19-.19.19-.33v-2.1c0-.09,0-.21,0-.26s-.33-.08-.21-.3S53.08,33.1,53.18,33.07Z"/><path class="cls-32" d="M23,34.82c-.08.19-.25.15-.38.13-.38-.05-.49.12-.46.47a3.1,3.1,0,0,1,0,.61c0,.15.06.4-.18.38s-.14-.26-.15-.41a4.85,4.85,0,0,1,0-.66c0-.28-.07-.42-.37-.39-.13,0-.34.07-.36-.14s.19-.2.33-.18c.45.07.37-.23.41-.51s-.22-.85.18-.89.13.57.12.88.08.59.52.52C22.81,34.61,23,34.61,23,34.82Z"/><path class="cls-33" d="M54.71,36.47h-.38c-.11,0-.23,0-.24-.17s.08-.15.18-.16c.28,0,.24-.22.24-.4v-2a.8.8,0,0,0,0-.27c-.05-.13-.39-.14-.17-.35s.42-.07.64,0,.16.12.09.24c-.47.84-.09,1.74-.2,2.61a.18.18,0,0,0,.06.15c.1.11.46,0,.32.28S54.86,36.45,54.71,36.47Z"/><path class="cls-13" d="M12.37,39.5c0-.27,0-.55,0-.82s.18-.31.4-.31.31.1.31.33q0,.82,0,1.65c0,.28-.12.33-.36.34s-.36-.11-.35-.36S12.37,39.78,12.37,39.5Z"/><path class="cls-34" d="M9,43.42c0,.28,0,.55,0,.83s-.11.34-.36.34-.3-.14-.3-.35V42.65c0-.21,0-.35.3-.34s.38.07.36.34S9,43.16,9,43.42Z"/><path class="cls-35" d="M28.5,43.44c0-.26,0-.51,0-.77s.06-.35.34-.35.33.14.32.37c0,.51,0,1,0,1.54,0,.25-.07.36-.35.36s-.32-.15-.32-.38S28.5,43.7,28.5,43.44Z"/><path class="cls-26" d="M1.79,34.79c0,.16-.12.18-.23.16-.53-.09-.5.23-.51.59s.14.72-.14.71-.13-.48-.17-.74S.8,34.88.31,35a.13.13,0,0,1-.17-.15.16.16,0,0,1,.18-.17c.48.07.39-.26.42-.55s-.18-.74.17-.74.14.49.14.75.05.62.5.54A.19.19,0,0,1,1.79,34.79Z"/><path class="cls-15" d="M42.5,34.82c0,.17-.2.15-.31.13-.49-.08-.57.17-.53.57a4.14,4.14,0,0,1,0,.61c0,.1,0,.24-.13.26s-.15-.14-.15-.24,0-.33,0-.5c0-.38.11-.83-.55-.7a.16.16,0,0,1-.2-.15.16.16,0,0,1,.18-.16c.69.12.55-.36.58-.75,0-.23-.14-.66.13-.66s.14.42.14.65c0,.44-.06.89.63.76A.17.17,0,0,1,42.5,34.82Z"/><path class="cls-11" d="M50.73,34.84c-.08.15-.23.13-.35.11-.45-.07-.53.16-.49.54a5,5,0,0,1,0,.67c0,.1,0,.24-.16.22s-.12-.12-.12-.21,0-.37,0-.55c0-.38.06-.77-.53-.67a.16.16,0,0,1-.21-.13.14.14,0,0,1,.15-.18c.7.11.59-.36.6-.78,0-.22-.1-.64.11-.63s.16.42.16.63c0,.49,0,.91.66.78A.16.16,0,0,1,50.73,34.84Z"/><path class="cls-9" d="M73.25,43.46v.82c0,.2,0,.3-.28.3s-.35,0-.34-.29q0-.85,0-1.71c0-.22.1-.27.31-.26s.32,0,.31.26S73.25,43.17,73.25,43.46Z"/><path class="cls-8" d="M45.73,34.83v1.32c0,.12,0,.25-.14.26s-.18-.14-.18-.26v-2.7c0-.11,0-.25.14-.26s.18.14.18.26Z"/><path class="cls-36" d="M62.51,34.84v1.32c0,.13,0,.28-.2.27s-.14-.16-.14-.27V33.45c0-.1,0-.25.14-.26s.19.14.2.26v1.39Z"/><path class="cls-37" d="M75.36,34.8v1.38c0,.11,0,.25-.15.25S75,36.3,75,36.19q0-1.38,0-2.76c0-.11,0-.25.16-.25s.16.18.16.3C75.37,33.92,75.36,34.36,75.36,34.8Z"/><path class="cls-21" d="M24.51,34.69c-.05.31-.21.51-.54.48a.45.45,0,0,1-.46-.51.47.47,0,0,1,.54-.49A.49.49,0,0,1,24.51,34.69Z"/><path class="cls-21" d="M17.58,34.16a.5.5,0,0,1,.47.57.45.45,0,0,1-.52.44.46.46,0,0,1-.47-.55A.49.49,0,0,1,17.58,34.16Z"/><path class="cls-17" d="M58.71,34.16c.32,0,.52.21.5.54a.46.46,0,0,1-.49.48.46.46,0,0,1-.5-.47A.49.49,0,0,1,58.71,34.16Z"/><path class="cls-35" d="M31.3,35.18a.48.48,0,0,1-.47-.5.5.5,0,1,1,1,0A.48.48,0,0,1,31.3,35.18Z"/><path class="cls-14" d="M69.13,34.67a.5.5,0,0,1-1,0,.48.48,0,0,1,.51-.52C68.94,34.17,69.1,34.37,69.13,34.67Z"/><path class="cls-38" d="M73.57,34.86H73c-.11,0-.24,0-.24-.17s.13-.16.25-.16h1.17c.11,0,.24,0,.23.18s-.13.14-.24.15Z"/><path class="cls-39" d="M11.47,34.94a.35.35,0,0,1,.35.35.37.37,0,1,1-.35-.35Z"/><path class="cls-22" d="M73.9,33.83a.36.36,0,0,1-.34.34.37.37,0,1,1,0-.74A.36.36,0,0,1,73.9,33.83Z"/><path class="cls-40" d="M51.65,34.94a.36.36,0,0,1,.38.33.35.35,0,0,1-.35.41.35.35,0,0,1-.37-.39C51.31,35.08,51.44,35,51.65,34.94Z"/><path class="cls-41" d="M41.18,27.79a1.48,1.48,0,0,1-.73,0c.12-.26,0-.56.29-.73.11-.07.24-.14.36,0a.23.23,0,0,1,.08.18c0,.18-.18.05-.24.08-.25.14-.12.23.07.29A.19.19,0,0,1,41.18,27.79Z"/><path class="cls-40" d="M11.82,34.14a.37.37,0,1,1-.4-.35A.36.36,0,0,1,11.82,34.14Z"/><path class="cls-23" d="M51.63,33.79a.37.37,0,0,1,.4.32.35.35,0,0,1-.35.4.33.33,0,0,1-.37-.31A.36.36,0,0,1,51.63,33.79Z"/><path class="cls-42" d="M45.55,31.75c-.2,0-.35-.11-.34-.34a.34.34,0,0,1,.37-.33c.22,0,.4.12.38.38S45.77,31.75,45.55,31.75Z"/><path class="cls-43" d="M13.76,31.07c.21,0,.39.15.37.39s-.18.3-.39.29-.38-.12-.36-.37S13.56,31.1,13.76,31.07Z"/><path class="cls-44" d="M57,31.75c-.2,0-.37-.09-.38-.31a.33.33,0,0,1,.34-.35.35.35,0,0,1,.41.34C57.41,31.65,57.25,31.74,57,31.75Z"/><path class="cls-45" d="M65.28,31.44a.36.36,0,0,1-.39.31c-.2,0-.35-.11-.35-.33a.33.33,0,0,1,.4-.33A.34.34,0,0,1,65.28,31.44Z"/><path class="cls-42" d="M44.19,27.5a.31.31,0,0,1,.34.3c0,.25-.16.36-.39.36a.33.33,0,0,1-.35-.34C43.79,27.61,43.93,27.5,44.19,27.5Z"/><path class="cls-14" d="M73.54,35.16a.37.37,0,0,1,0,.73.37.37,0,0,1,0-.73Z"/><path class="cls-45" d="M22.69,31.07c.24,0,.4.12.42.32s-.16.35-.39.35a.31.31,0,0,1-.35-.33C22.37,31.19,22.53,31.11,22.69,31.07Z"/><path class="cls-44" d="M36.1,31.08c.21,0,.37.1.39.31s-.11.34-.32.36-.41-.08-.42-.32S35.91,31.12,36.1,31.08Z"/><path class="cls-32" d="M56.49,31.42a.38.38,0,0,1-.39.33c-.21,0-.36-.11-.36-.33a.33.33,0,0,1,.41-.33A.36.36,0,0,1,56.49,31.42Z"/><path class="cls-33" d="M53.13,26.83c.19,0,.37.07.38.3s-.16.37-.38.37a.34.34,0,0,1-.36-.34C52.76,26.94,52.92,26.85,53.13,26.83Z"/><path class="cls-39" d="M34.92,27.17a.36.36,0,0,1-.37.33.34.34,0,0,1-.38-.37.32.32,0,0,1,.38-.3A.36.36,0,0,1,34.92,27.17Z"/><path class="cls-46" d="M33.61,26.82c.18,0,.35.09.36.32a.32.32,0,0,1-.33.36.35.35,0,0,1-.42-.34C33.22,26.94,33.38,26.84,33.61,26.82Z"/><path class="cls-31" d="M7,27.5c.2,0,.36.09.36.32a.33.33,0,0,1-.35.34.34.34,0,0,1-.39-.36C6.62,27.58,6.8,27.5,7,27.5Z"/><path class="cls-45" d="M37.42,31.41a.35.35,0,0,1-.38.34c-.21,0-.35-.12-.33-.35a.31.31,0,0,1,.36-.32A.35.35,0,0,1,37.42,31.41Z"/><path class="cls-28" d="M13.18,31.39a.31.31,0,0,1-.34.35.33.33,0,1,1,0-.65A.32.32,0,0,1,13.18,31.39Z"/><path class="cls-40" d="M54.44,27.15a.35.35,0,0,1-.36.35.32.32,0,0,1-.36-.33.3.3,0,0,1,.34-.34A.33.33,0,0,1,54.44,27.15Z"/><path class="cls-47" d="M15,41.63c0,.17,0,.28-.19.32s-.42.21-.66.17c0,0,0-.09,0-.14s.73-.55.84-.47S14.94,41.61,15,41.63Z"/><path class="cls-48" d="M10.7,41.69c0,.22-.19.25-.34.3s-.33.2-.51.12-.07-.18,0-.25a1.65,1.65,0,0,1,.73-.35C10.69,41.47,10.7,41.6,10.7,41.69Z"/><path class="cls-15" d="M43.3,42.37c0,.11.07.35-.23.35s-.23-.2-.24-.35,0-.34.22-.35S43.33,42.13,43.3,42.37Z"/><path class="cls-49" d="M45.53,17.94a8.45,8.45,0,0,1-8.38,4.73,8.23,8.23,0,0,1-7.83-5.55A13.61,13.61,0,0,1,29.66,6.2a9.18,9.18,0,0,1,3.41-4A2.9,2.9,0,0,0,33.85,2l1.23-.12c.2-.16.45-.06.67-.13l.11.13-.35.1a6.78,6.78,0,0,0-3,3.43,16.93,16.93,0,0,0-1.17,7,18,18,0,0,0,.82,4.93,1.08,1.08,0,0,0-.32.49v.05l-.76.44c-.28.15-.21.41-.17.64s.26.19.44.18l1.72,0a6.94,6.94,0,0,0,1.17,1.47,4.8,4.8,0,0,0,5.15,1.25,5.5,5.5,0,0,0,3.14-3,.83.83,0,0,0,.23-.43,1.71,1.71,0,0,0,.3-.69c0-.1.09-.2.13-.31a18.32,18.32,0,0,0,.59-8.91,11.58,11.58,0,0,0-2.26-5.19A10.12,10.12,0,0,0,39.75,2l-.33-.11c-.11,0-.26,0-.24-.12s.23-.06.35-.08a.19.19,0,0,0,0,.08l.63,0,0,.07.43,0,.29,0a3.71,3.71,0,0,0,1.14.21c.09.12.21.11.34.1a.38.38,0,0,0,.33.11C45.57,4.22,46.67,7,47,10.26A13.46,13.46,0,0,1,45.53,17.94Z"/><polygon class="cls-49" points="33.85 2 33.86 1.99 33.85 2 33.85 2"/><path class="cls-50" d="M59.72,12.1a37.55,37.55,0,0,1-7.92,6.22.66.66,0,0,1-.15.05s0-.08,0-.11c1.31-1,2.66-2.05,3.9-3.18,1-.94,2-1.91,3-2.92.19-.2.29-.33,0-.57A37.39,37.39,0,0,0,43.75,2.38,6.74,6.74,0,0,0,43,2.21a.72.72,0,0,0-.45-.13c-.16-.14-.31-.08-.46,0-.11-.37-.46-.18-.69-.28l-.66-.12-.22,0-1-.12a15.54,15.54,0,0,0-3.67,0,9.57,9.57,0,0,0-1.2.13c-.27.08-.65-.08-.81.3-.36-.2-.68,0-1,.11a25.94,25.94,0,0,0-6.75,2.63A41.59,41.59,0,0,0,17,11.5c-.32.3-.26.46,0,.74A48.27,48.27,0,0,0,23.4,18c.17.09.37.14.43.41a.74.74,0,0,1-.57-.27,37.53,37.53,0,0,1-7.55-6c-.28-.29-.11-.43.06-.63a39.41,39.41,0,0,1,9.42-7.78A25,25,0,0,1,36.42,0a21.53,21.53,0,0,1,9.36,1.51,36.73,36.73,0,0,1,13.94,10C59.89,11.75,59.93,11.89,59.72,12.1Z"/><path class="cls-20" d="M51.64,18.26s0,.07,0,.11a.8.8,0,0,1-.64.28Z"/><path class="cls-51" d="M34.07,18.38a1.54,1.54,0,0,0,.52.14c.45,0,.49.21.28.54a15.16,15.16,0,0,0-3-.09,2.28,2.28,0,0,1-.27,0c-.16,0-.38.19-.48-.08s.12-.34.29-.46.45-.2.45-.49v-.05c.33.08.31-.22.43-.37A9,9,0,0,0,33,15.56a11.6,11.6,0,0,1,.11,2,.52.52,0,0,0,.33.59c.06,0,.14,0,.12.13C33.63,18.56,33.88,18.36,34.07,18.38Z"/><path class="cls-52" d="M42.65,18.29l-.24.55a5.72,5.72,0,0,1-1.75.12,6.77,6.77,0,0,1-.78,0c-.13,0-.35.15-.37-.15s.15-.3.35-.31l.22,0a.78.78,0,0,0,.66-.34c.25-.29.42-.58,0-.87v0c.27-.45-.07-.79-.2-1.17l-.8-2.55a1.37,1.37,0,0,0-.19-.58c0-.11,0-.24-.13-.32a.84.84,0,0,0-.25-.09H34.72c-.11,0-.22,0-.28.11a5.36,5.36,0,0,0-.37,1.3.76.76,0,0,1-.22-1c.27-.7.47-1.43.72-2.14,0-.13,0-.42.31-.31A.42.42,0,0,1,35,11c-.1.26-.16.55-.24.83-.15.43.22.23.34.23,1.12,0,2.24,0,3.36,0,1,0,1,0,.55-.91a1.61,1.61,0,0,0-.22-.67L37,5h-.13L36,8.08c-.45-.07-.36-.37-.26-.66L37.08,3.1c.12-.34.24-.68.37-1,0-.13.08-.3.28-.28s.2.14.24.27c.11.31.22.61.34.92.75,2.57,1.66,5.08,2.48,7.62q1,3.18,2.09,6.35a1,1,0,0,1,.08.65A2.2,2.2,0,0,0,42.65,18.29Z"/><path class="cls-53" d="M35,10.43a4.45,4.45,0,0,1-1.69-3.06,3.57,3.57,0,0,1,3.57-4c-.05.24-.09.45-.38.55a2.59,2.59,0,0,0-.61,4.45,9,9,0,0,0,2,1.45,1.44,1.44,0,0,1,.76.86,1.29,1.29,0,0,0,.21.66c.19.49,0,.64-.49.59a11.28,11.28,0,0,0-1.3,0Z"/><path class="cls-54" d="M33.84,14.44a5.56,5.56,0,0,0,.84,2.66,3.36,3.36,0,0,0,4.15,1.24,2.4,2.4,0,0,0,1.4-1.55c.05-.16,0-.38.18-.48l.33.93v0a1.53,1.53,0,0,1-.09.79l-.57.23c-.27.17-.82-.13-.84.49,0,.06-.25.12-.39.14a5.86,5.86,0,0,1-4.19-.75c-.21-.12-.54-.46-.81,0l-.32.07c0-.1-.06-.11-.12-.13a1.77,1.77,0,0,0-.21-.71v-2c0-.42,0-.85,0-1.27,0-.16-.1-.38.21-.41s.28.2.31.4A1.77,1.77,0,0,0,33.84,14.44Z"/><path class="cls-55" d="M41.51,3.47l-.09,4c0,.16.08.38-.23.4s-.28-.18-.3-.37a5.3,5.3,0,0,0-.64-2.09A3.23,3.23,0,0,0,39,4.08c-.23-.14-.51-.27-.27-.62.46.26.91.53,1.38.78s.73.21.84-.39C41,3.48,41.19,3.4,41.51,3.47Z"/><path class="cls-49" d="M34.17,19.74c-.19-.31.11-.19.19-.19.64,0,1.29,0,1.94,0,1.59,0,3.17,0,4.76,0,.09,0,.41-.23.33.17Z"/><path class="cls-56" d="M34.63,20.28l-.11-.11c.16-.2.38-.1.57-.1h6c0,.14-.13.19-.23.24Z"/><path class="cls-57" d="M35.86,21.18l-.32-.13s0-.05,0-.08H40v0c0,.14-.13.17-.22.24Z"/><path class="cls-58" d="M34.17,19.74h7.22l-.08.13-7.12,0S34.18,19.77,34.17,19.74Z"/><path class="cls-59" d="M34.4,20.07c.12-.17.3-.12.46-.12h6.31l-.08.1h-6c-.19,0-.41-.1-.57.1Z"/><path class="cls-60" d="M35,20.61c.06-.16.21-.12.33-.12h5c.11,0,.23,0,.28.11H35Z"/><path class="cls-61" d="M40.42,20.75H35.18l-.11-.13h5.46Z"/><path class="cls-62" d="M36.53,21.5a.34.34,0,0,1,0-.1,13.33,13.33,0,0,1,2.53.08A5.64,5.64,0,0,1,36.53,21.5Z"/><path class="cls-63" d="M39.05,21.48a13.33,13.33,0,0,0-2.53-.08c.34-.24.72-.09,1.08-.11.57,0,1.14,0,1.72,0C39.27,21.4,39.2,21.49,39.05,21.48Z"/><path class="cls-64" d="M39.3,12.75l.13.33.09.42c-.42-.08-.6-.52-1-.65C38.77,12.63,39.05,12.79,39.3,12.75Z"/><path class="cls-63" d="M35.53,21c.06-.13.17-.13.28-.13h3.87c.11,0,.22,0,.28.13Z"/></g></g></svg>