<?xml version="1.0" encoding="utf-8"?>
<!-- Generator: Adobe Illustrator 26.0.2, SVG Export Plug-In . SVG Version: 6.00 Build 0)  -->
<svg version="1.1" id="Layer_1" xmlns="http://www.w3.org/2000/svg" xmlns:xlink="http://www.w3.org/1999/xlink" x="0px" y="0px"
	 viewBox="0 0 918.8 629.4" style="enable-background:new 0 0 918.8 629.4;" xml:space="preserve">
<style type="text/css">
	.st0{fill:#28519B;}
</style>
<g id="Layer_2_00000013880272982121804090000013038236244879514024_">
	<g id="Layer_1-2">
		<path class="st0" d="M58.8,408.5c0,0.7,0.2,1.5-0.4,2l-0.5-0.1l-1.2,0.1l-0.4-0.1l-3,0.1c-7,0-13.8-0.1-20.8-0.1
			c-7.7,0-15.3,0.1-23,0.1H7.7c-1.4-0.1-2.8-0.1-4.3,0L0,410.4V163.8c0.5,0,0.5,0.4,0.7,0.7c2.3,2.8,4.5,5.7,7,8.3
			c14.5,18.2,27.8,37.5,41.2,56.5c0.1,0.1,0.2,0.2,0.2,0.4c0,0,0,0,0,0c0,0.2,0.1,0.3,0.3,0.3c0.3,0.7,0.7,1.3,1.3,1.8
			c2,3.6,4.5,6.8,6.7,10.3c0.5,0.6,0.9,1.3,1,2c0.3,0.4,0.5,0.9,0.4,1.4c0,3.4-0.1,6.8-0.1,10.2c0.1,0.8,0.1,1.6,0.1,2.3V408.5z"/>
		<path class="st0" d="M0.4,147.5L0.4,147.5c0.2,0,0.4,0.1,0.3,0.4c0.1,0,0.2,0.1,0.2,0.2c0,0,0,0,0,0.1
			c8.5,9.3,15.9,19.9,23.4,29.9s14.1,21.4,22.1,31c2.9,4.5,5.7,9,8.9,13.3c0,0.3,0.2,0.7,0.5,0.8c0,0.2,0.1,0.4,0.3,0.5
			c0.6,1.2,1.4,2.4,2.4,3.4c0.1-1.6,0.1-3.1,0.2-4.7c0-0.6-0.1-1.1-0.1-1.7c0-25.6,0-51.2,0-76.8c-0.1-0.1-0.2-0.1-0.3-0.2
			c0-0.1,0.1-0.3,0.1-0.4l-0.1-0.4l-0.3-0.4l-0.2-0.4c-0.2-0.1-0.4-0.2-0.3-0.4c-0.3-0.2-0.5-0.5-0.5-0.8c-0.2-0.1-0.4-0.3-0.4-0.5
			l0,0c-0.2-0.1-0.3-0.1-0.3-0.4c-0.3-0.2-0.5-0.5-0.5-0.8c-0.2-0.1-0.4-0.3-0.4-0.5l0,0c-0.2-0.1-0.3-0.1-0.3-0.4
			c-0.2-0.2-0.5-0.4-0.6-0.8c-0.2-0.1-0.4-0.3-0.4-0.5l0,0c-0.2,0-0.3-0.1-0.3-0.4c-0.3-0.2-0.5-0.5-0.6-0.9
			c-0.2-0.1-0.4-0.2-0.3-0.4c-0.3-0.2-0.5-0.4-0.5-0.8c-0.2-0.1-0.4-0.3-0.4-0.5l0,0c-0.2-0.1-0.3-0.2-0.3-0.4
			c-0.3-0.2-0.5-0.5-0.6-0.8c-0.2-0.1-0.4-0.3-0.4-0.5l0,0c-0.2-0.1-0.3-0.1-0.3-0.3l-0.2-0.4c-0.2-0.1-0.4-0.3-0.4-0.5l0,0
			c-0.2-0.1-0.3-0.2-0.3-0.4c-0.3-0.2-0.5-0.5-0.5-0.8c-0.2-0.1-0.4-0.2-0.3-0.4c-0.3-0.2-0.5-0.4-0.5-0.8c-0.2-0.1-0.4-0.3-0.4-0.5
			l0,0c-0.2-0.1-0.3-0.2-0.3-0.4c-0.3-0.2-0.5-0.5-0.6-0.9c-0.2-0.1-0.4-0.2-0.3-0.4c-0.2-0.2-0.5-0.4-0.5-0.8
			c-0.2-0.1-0.4-0.3-0.4-0.5l0,0c-0.2-0.1-0.3-0.1-0.3-0.3c-0.3-0.2-0.5-0.5-0.6-0.8c-0.2-0.1-0.4-0.2-0.3-0.4
			c-0.4-0.3-0.8-0.8-0.9-1.3c-0.2-0.1-0.3-0.2-0.3-0.4c-0.3-0.2-0.5-0.5-0.5-0.8c-0.2-0.1-0.4-0.3-0.4-0.5l0,0
			c-0.2,0-0.3-0.2-0.3-0.4c-0.3-0.2-0.5-0.5-0.6-0.8c-0.2-0.1-0.4-0.2-0.3-0.4c-0.3-0.2-0.5-0.4-0.5-0.8c-0.2-0.1-0.4-0.3-0.4-0.5
			l0,0c-0.2-0.1-0.3-0.2-0.3-0.4c-0.2-0.2-0.5-0.4-0.6-0.8c-0.2-0.1-0.4-0.3-0.4-0.5v-0.1c-0.2,0-0.3-0.1-0.3-0.3l-0.2-0.3
			c-0.2-0.1-0.4-0.3-0.4-0.5l0,0c-0.2-0.1-0.3-0.2-0.3-0.4c-0.2-0.2-0.5-0.5-0.5-0.8c-0.2-0.1-0.4-0.2-0.3-0.4
			c-0.3-0.2-0.5-0.5-0.5-0.8c-0.2-0.1-0.4-0.2-0.3-0.5c-0.3-0.2-0.5-0.4-0.5-0.8c-0.2-0.1-0.4-0.3-0.4-0.5l0,0
			c-0.2-0.1-0.3-0.2-0.3-0.4c-0.2-0.2-0.6-0.5-0.6-0.9c-0.2-0.1-0.3-0.2-0.3-0.4c-0.3-0.2-0.5-0.5-0.5-0.9c-0.2-0.1-0.3-0.2-0.3-0.4
			c-0.3-0.2-0.5-0.5-0.5-0.8c-0.2,0-0.4-0.2-0.4-0.5l0,0c-0.2-0.1-0.3-0.1-0.3-0.4c-0.3-0.2-0.5-0.5-0.6-0.8c-0.8-0.7-1.5-1.6-2-2.6
			c-0.1,0-0.2-0.1-0.2-0.3c0,0,0,0,0,0c-0.2-0.1-0.4-0.3-0.4-0.5c-0.2-0.1-0.4-0.3-0.3-0.5v-0.1c-0.2,0-0.3-0.1-0.3-0.3l-0.2-0.3
			c-0.2-0.1-0.4-0.3-0.4-0.5l0,0c-0.2-0.1-0.4-0.2-0.3-0.4c-0.3-0.2-0.5-0.5-0.5-0.8c-0.2,0-0.4-0.3-0.4-0.5l0,0
			c-0.5-0.5-0.9-1-1.2-1.7c-0.3-0.2-0.5-0.5-0.5-0.8c-0.2,0-0.4-0.3-0.4-0.5l0,0c-0.2,0-0.3-0.2-0.3-0.3c-0.1,0-0.2-0.2-0.2-0.3
			c-0.2-0.1-0.4-0.3-0.4-0.5c-0.2-0.1-0.4-0.2-0.3-0.4c-0.3-0.2-0.5-0.4-0.5-0.8c-0.2-0.1-0.4-0.3-0.4-0.5l0,0
			c-0.4-0.3-0.7-0.7-0.9-1.2c-0.2,0-0.4-0.3-0.4-0.5l0,0c-0.2,0-0.3-0.1-0.3-0.4c-0.1,0-0.2-0.2-0.2-0.3c-0.4-0.2-0.6-0.6-0.7-1
			C19.2,88.3,19,88,19,87.7c-0.2-0.1-0.4-0.3-0.4-0.5l0,0c-0.2,0-0.3-0.1-0.3-0.4l-0.2-0.4c-0.7-0.6-1.2-1.4-1.5-2.2l0,0
			c-0.2,0-0.3-0.1-0.3-0.4c-0.2,0.1-0.5,0.1-0.7-0.2c-0.1-0.2-0.1-0.5,0.2-0.7c-0.2-0.1-0.4-0.3-0.4-0.5c-0.2-0.1-0.4-0.2-0.3-0.4
			c-0.3-0.2-0.5-0.5-0.5-0.8c-0.2-0.1-0.4-0.3-0.4-0.5l0,0c-0.4-0.3-0.7-0.7-0.9-1.2c-0.2-0.1-0.4-0.2-0.3-0.4
			c-0.3-0.2-0.5-0.5-0.5-0.8c-0.6-0.5-1-1.1-1.3-1.8c-0.2-0.1-0.4-0.2-0.3-0.4c-0.3-0.2-0.5-0.5-0.5-0.8C10,75.2,9.8,75,9.8,74.8
			l0,0c-0.2,0-0.3-0.1-0.3-0.4c-0.3-0.2-0.5-0.5-0.6-0.8c-0.2-0.1-0.4-0.2-0.4-0.4c-0.1,0-0.2-0.1-0.1-0.2c0,0,0,0,0-0.1
			C8.2,72.8,8,72.6,8,72.3c-0.2-0.1-0.4-0.3-0.3-0.5c-0.2-0.1-0.4-0.2-0.3-0.4c-0.3-0.2-0.5-0.5-0.5-0.8c-0.2-0.1-0.4-0.2-0.4-0.5
			l0,0C4.3,67.4,2.1,64.7,0,62v85.1C0.3,147.1,0.4,147.2,0.4,147.5z"/>
		<polygon class="st0" points="30.6,602.9 30.6,602.9 30.6,602.8 		"/>
		<path class="st0" d="M34.9,595.6L34.9,595.6z"/>
		<path class="st0" d="M232.7,594.8L232.7,594.8L232.7,594.8z"/>
		<polygon class="st0" points="240.8,584.5 240.8,584.5 240.8,584.5 		"/>
		<path class="st0" d="M279.4,617.8L279.4,617.8L279.4,617.8z"/>
		<path class="st0" d="M281.5,613.8L281.5,613.8L281.5,613.8z"/>
		<path class="st0" d="M283.3,603.4c-0.3-1.2-0.4-2.3-0.3-3.5h-0.1v-0.1c-0.7-3.5-2.1-6.8-4.1-9.8c-0.9-1.1-1.7-2.3-2.5-3.2
			c-1.8-1.3-3.5-2.5-5.2-3.8c-0.2,0-0.3,0-0.4-0.1c-0.1,0-0.4-0.1-0.4-0.3h-0.3l-0.1-0.1c-6.9-3-14.6-3.5-21.8-1.3
			c-1.4,0.4-2.8,1-4.1,1.6c-0.1,0.1-0.3,0.2-0.4,0.1c-0.8,0.7-1.6,1.4-2.5,1.8c-0.1,0.1-0.1,0.3-0.4,0.3c0,0.1-0.1,0.1-0.3,0.1
			c-2.3,2.2-4.3,4.6-6.1,7.2c-0.1,0.1-0.1,0.3-0.3,0.4c0,0.1-0.1,0.3-0.1,0.4c0,0.1-0.1,0.3-0.3,0.4c-0.1,0.1-0.1,0.3-0.1,0.4
			c-0.1,0.1-0.2,0.3-0.1,0.4c0,0.3,0,0.4-0.3,0.6c0.1,0.4-0.1,0.9-0.4,1.1c-0.1,0.1-0.2,0.3-0.1,0.4c0.1,0.4-0.1,0.7-0.3,1
			c-0.1,0.1-0.1,0.4-0.1,0.7c-1.7,15.4,5.2,28.1,21.3,30.3c2.7,0.5,5.5,0.5,8.2,0.1c2.6-0.2,5.2-0.8,7.6-2c2.3-1,4.4-2.4,6.2-4h0.1
			c0-0.2,0.1-0.4,0.3-0.4c0,0,0.1,0,0.1,0c0.3-0.3,0.6-0.6,0.8-0.9c0-0.2,0.1-0.4,0.3-0.4c0,0,0.1,0,0.1,0c0-0.2,0.1-0.4,0.3-0.4
			h0.1c0.7-0.9,1.3-1.8,2-2.7c0.1-0.3,0.3-0.6,0.6-0.7c0-0.3,0.1-0.6,0.3-0.6c0-0.2,0-0.3,0.2-0.4c0-0.3,0.1-0.4,0.3-0.4
			c0-0.2,0-0.3,0.1-0.4c0-0.3,0.1-0.4,0.3-0.4c0-0.2,0-0.3,0.1-0.4c0-0.1,0-0.4,0.3-0.4c0.3-1,0.6-2,1-3v-1.3c-0.1-0.4,0-0.7,0.3-1
			c0-0.1,0-0.1,0.1-0.3c0-1.1,0-2.2,0.3-3.2C283.1,604.5,283.1,603.9,283.3,603.4z M255.7,619.1c-17.3-1.7-16.5-30.8,1.7-29
			C275.2,586.4,276.3,621.2,255.7,619.1z"/>
		<path class="st0" d="M534.3,596.7c0,5.1,0.4,10.5-0.4,15.4c-1.7,9.5-7.9,14.6-16.8,16.5c-3,0.4-6,0.4-8.9,0
			c-2.5-0.4-4.9-1.1-7.2-2.3c-1-0.6-2-1.1-2.8-1.7c-0.1-0.3-0.1-0.4-0.4-0.4c-0.7-0.6-1.3-1.3-2-1.8c-2.1-2.8-3.6-6.1-4.4-9.5
			c0.1-0.1,0.1-0.3,0-0.3c0.1-0.9-0.1-1.8-0.4-2.7c0.1-0.4,0.1-0.8-0.1-1.1c0.2-1.4,0.1-2.8-0.3-4.1c0.1-0.4,0.1-0.8,0-1.1
			c0.1-0.4,0.1-0.9,0-1.3c0.1-0.7,0.1-1.4,0-2.1c0.1-4.1,0.1-8.2,0-12.4c0.1-0.7,0.1-1.4,0-2.1c0.1-1.3,0.1-2.6,0-3.8V581l1.3-0.8
			h9.8c0.5,0.2,0.9,0.5,1.3,0.8c-0.1,4.5-0.1,9-0.1,13.4c-0.1,2.7,0,5.5,0.1,8.2c-0.4,1.5-0.4,3.1,0,4.7c-0.3,0.3-0.1,0.7,0,1.1
			c-0.1,1.5,0.2,3,0.9,4.4c0,0.2,0,0.5,0.1,0.7c-0.1,0.3,0,0.4,0.3,0.6c-0.1,0.1,0,0.3,0.1,0.3v0.1c0,0.2,0.1,0.3,0.3,0.3
			c1.5,2.8,4.2,4,7.2,4.2h0.4c1.5,0.3,3.1,0,4.4-0.8h0.3c0.3,0,0.6-0.1,0.6-0.4l0.3,0.1v-0.1c0.3,0,0.4-0.1,0.6-0.4
			c0.1,0,0.3-0.1,0.4-0.1c0.2,0,0.3-0.1,0.3-0.3c0.2,0,0.4-0.1,0.4-0.3c0,0,0-0.1,0-0.1c0.2,0,0.4-0.1,0.4-0.3c0,0,0-0.1,0-0.1
			c0.2,0,0.4-0.1,0.4-0.3c0,0,0-0.1,0-0.1c0.3-0.2,0.5-0.5,0.6-0.8c0.1,0,0.3-0.1,0.3-0.4s0.2-0.1,0.2-0.3c0.3-0.2,0.3-0.3,0.3-0.6
			s0.1-0.3,0.1-0.4c2.4-3,0.8-11.7,0.8-15.4v-17c2.1-0.7,8.6-0.7,11.6-0.1C536,584.2,534.3,592.8,534.3,596.7z"/>
		<path class="st0" d="M635.8,611.7c0,6.1,0.3,9.2-0.1,10.3c-1.6,4.2-8.6,5.7-14.8,6.2c-3.8,0.3-7.1,0.2-8.9,0.2
			c-17.7-2.7-28.1-23-17.1-38.5c5.7-7.6,14.1-10.5,23.3-10.2c5.3,0,10.5,1.7,14.8,4.8c2.4,1.8,3.7,2.4,2,5.1c-1.3,2-4,3.7-5.8,5.2
			c-1.8-0.8-3.1-3-5.1-3.8c-1.7-0.8-3.6-1.2-5.5-1.1c-3.7-0.1-7.1-0.1-10.2,1.8c-6.5,4.2-8.2,13.7-4.2,20.2
			c3.1,5.1,18.4,12.2,20.9,3.5c0.8-3.1-2-9.3,0-11.9c1.5-2,8.3-0.8,10.5-0.3C637,605.1,635.8,609.7,635.8,611.7z"/>
		<path class="st0" d="M870.7,599.5L870.7,599.5z"/>
		<polygon class="st0" points="852.1,585.7 852.1,585.7 852.1,585.7 		"/>
		<path class="st0" d="M859.8,580.7L859.8,580.7L859.8,580.7z"/>
		<path class="st0" d="M873.4,611.4L873.4,611.4z"/>
		<path class="st0" d="M887.9,615.7l-0.2,1.2c-2.2,7-8,11-15.1,11.5c-4.5,0-18-0.9-21.9-3.3c-3.1-2-1.7-1.8-1.2-5.1
			c0.1-0.1,0.2-0.2,0.1-0.4c0.2-0.1,0.3-0.3,0.3-0.5c0.1-0.2,0.1-0.3,0.1-0.4c1-1.1,1-2.9,2.2-4c2.9,1.5,5.6,3.1,8.8,3.9
			c0.1,0,0.3,0,0.4,0.1c0.6,0.4,1.4,0.6,2.1,0.4c0.3,0.1,0.6,0.2,0.9,0.1c1,0.2,2,0.2,3,0c0.8,0,1.7,0,2.5,0
			c2.1,0.4,4.2-0.5,5.5-2.1l0,0c0.2,0,0.4-0.2,0.4-0.4l0,0c0.6-0.4,0.9-1.3,0.6-2c-0.4-1.5-1.6-2.7-3.1-3.1
			c-0.1-0.2-0.2-0.3-0.4-0.3l-0.4-0.1c-1.7-0.8-3.5-1.4-5.4-1.7c-2.4-0.6-4.8-1.2-7.1-1.9c-2.4-0.7-4.6-1.8-6.6-3.3
			c0-0.2-0.2-0.4-0.4-0.4l0,0c0-0.2-0.2-0.4-0.4-0.4l0,0c-1.6-1.7-2.7-3.8-3.3-6.1c0.1-0.1,0.1-0.3,0-0.3c0,0,0,0,0,0c0-1,0-2,0-3
			c0-0.6,0-1.2,0-1.7c0.4-1.5,0.9-2.9,1.6-4.3c0.1-0.1,0.1-0.2,0.2-0.4c0.2-0.1,0.4-0.2,0.3-0.5c0.3-0.2,0.5-0.5,0.5-0.8
			c0.2-0.1,0.4-0.3,0.4-0.5c0.2,0,0.4-0.2,0.4-0.4l0,0c0.2,0,0.4-0.2,0.4-0.4l0,0l2.6-2.1c0.1,0,0.3,0,0.4-0.2l3-1.6l0.4-0.1
			c0.2,0.1,0.4,0,0.5-0.2c0,0,0,0,0,0c0.4,0,0.9,0,1.2-0.4l1.3-0.2c2.5-0.4,25.7-0.4,23.1,5.2c-0.1,0.2-0.1,0.5-0.2,0.7
			c-0.2,0.1-0.3,0.3-0.3,0.6c0,0.2-0.1,0.5-0.2,0.7c-0.5,0.9-0.9,1.8-1.1,2.8c-0.1,0-0.2,0.2-0.1,0.3c0,0,0,0,0,0
			c-0.2,0.1-0.3,0.3-0.3,0.5c0,0,0,0,0,0c-0.1,0.3-0.2,0.5-0.2,0.8c-1.1,2.2-24.1-9.3-22.1,3.1l0,0c-0.1,1.3,0.9,1.8,1.8,2.3
			c2.5,1.3,5.2,2.1,8,2.3c0.2,0.3,0.5,0.4,0.9,0.3c0.3,0,0.5,0.1,0.8,0.1c0.2,0.3,0.5,0.4,0.9,0.3l0.8,0.1c0.2,0.3,0.6,0.4,0.9,0.3
			h0.4c0.3,0.2,0.7,0.3,1,0.4c4,1,7.6,3.4,10,6.8c0,0.1,0.1,0.3,0.2,0.4s0.1,0.3,0.3,0.4s0.1,0.3,0.1,0.5s0.1,0.4,0.3,0.5
			c0,0.1,0,0.3,0.1,0.3C887.9,611.9,888,613.8,887.9,615.7z"/>
		<path class="st0" d="M320.7,587C320.7,587,320.7,587,320.7,587C320.7,587,320.7,587,320.7,587L320.7,587z"/>
		<path class="st0" d="M321.1,586.6C321.1,586.6,321.1,586.6,321.1,586.6L321.1,586.6L321.1,586.6z"/>
		<path class="st0" d="M359.2,619.9c0.1,1.3-0.7,1.8-1.4,2.4c-2.2,2-4.6,3.6-7.2,4.9h-0.4c-2,0.4-4,0.6-5.9,0.7
			c-2.7,0.3-5.4,0.4-8.1,0.3c-12.9-0.1-20.5-10.9-22-22.6c0.2-0.9,0.1-1.7-0.2-2.5c0.3-2,0.6-3.8,0.9-5.8c0.3-0.3,0.4-0.6,0.3-0.8
			c0.1-0.2,0.2-0.5,0.2-0.7c0.3-0.1,0.4-0.3,0.3-0.6c0.1-0.1,0.2-0.3,0.1-0.4c1-1.8,2.1-3.7,3.1-5.5c0.2,0,0.3-0.2,0.3-0.3v0
			c0,0,0-0.1,0-0.1c0.1,0,0.1-0.1,0.2-0.1c0,0.1-0.1,0.1-0.1,0.2c0,0,0.1-0.1,0.2-0.2c0.1-0.1,0.1-0.1,0.2-0.2h0c0,0,0,0,0,0
			c0.4-0.4,0.7-0.8,1-1.1c0.1-0.1,0.2-0.3,0.4-0.4c0,0,0,0,0,0c0.2-0.2,0.3-0.3,0.4-0.4c0,0,0,0,0,0c0.3-0.3,0.4-0.4,0.4-0.4
			c0,0,0,0,0,0.1c0,0.1-0.1,0.2-0.1,0.2c1.2-1.1,2.5-2.1,4.1-3.2c1.5-1,3-1.7,4.3-2.3c0.1,0,0.4-0.1,0.6-0.1
			c0.6-0.3,1.3-0.1,1.8-0.7c0.4,0,0.9,0,1.3-0.1c9.5-1.4,19.4,0.1,25.7,7.9c-1.1,2-2.8,3.1-4.1,4.7c-1,0.7-1.8,1.4-3,2.3
			c-2.7-2-6.1-5.5-9.8-5c-1.6-0.1-3,0-4.4,0c-2.2-0.1-4.3,0.6-5.9,2c-1.1,0.6-2.1,1.4-2.8,2.4c-3.8,3.4-4.7,12-1.8,17.1
			c4.2,7.8,14.4,10.8,22.8,3.8c0.8-0.5,1.2-1.4,2.2-1.7C354.5,615.8,357.2,617.6,359.2,619.9z"/>
		<polygon class="st0" points="314.8,597.3 314.8,597.3 314.8,597.3 		"/>
		<polygon class="st0" points="226.3,585.8 226.3,585.8 226.3,585.8 		"/>
		<path class="st0" d="M197.1,626.7L197.1,626.7L197.1,626.7z"/>
		<path class="st0" d="M194.9,605.5c0.3,5.9,4.2,11.1,9.9,12.9c2.7,0.9,5.6,1,8.3,0.3c3.2-0.8,5.2-4,8.2-5.1
			c3.5,2.8,8.9,5.5,4.5,9.6c-1.3,1.4-2.9,2.5-4.7,3.1c-2.7,1-5.5,1.5-8.3,1.6c-2.4,0.3-4.8,0.4-7.2,0.3c-2.9,0.2-5.9-0.3-8.6-1.4
			c0-0.3-0.3-0.3-0.4-0.3l-0.1-0.2h-0.1c-0.7-0.5-1.5-0.9-2.3-1.3c-0.1-0.3-0.3-0.3-0.4-0.3h-0.1c0-0.3-0.1-0.4-0.3-0.4
			s-0.6-0.4-0.9-0.6c-0.1-0.2-0.3-0.3-0.6-0.3c-0.7-0.7-1.4-1.3-2-1.8c-0.4-0.5-0.8-1-1.3-1.4c0-0.1,0-0.3-0.3-0.3
			c0.1-0.1,0-0.3-0.3-0.3v-0.1c-0.9-1.3-1.7-2.5-2.4-3.8c0-0.3,0-0.3-0.1-0.4c0-0.3-0.1-0.4-0.3-0.4c0-0.3,0-0.3-0.1-0.4
			c-0.2-0.7-0.5-1.5-0.9-2.1v-1.1c-0.1,0-0.3-0.1-0.4-0.1c0.1-0.1,0.2-0.3,0.1-0.4c0-0.1-0.1-0.3-0.1-0.4v-0.8
			c-0.1,0-0.1-0.1-0.3-0.1v-0.7c0-0.1-0.1-0.4-0.1-0.6v-2c-0.1-0.2-0.3-0.2-0.3-0.3c0.1-0.7,0.1-1.3,0-2c0.1-0.2,0.1-0.5,0-0.7
			l0.3-0.3c-0.3-0.7,0.1-1.5,0-2.4h0.1V599h0.3c0-0.4,0.1-0.8,0.1-1.3c0-0.2,0-0.3-0.1-0.4c0.1-0.1,0.3-0.2,0.4-0.1v-0.7
			c0-0.2,0-0.5,0.1-0.7c0.2-0.1,0.3-0.3,0.3-0.6c0.6-1.3,1.1-2.5,1.8-3.8c0.6-1,1.3-2,2-3.1c1-0.7,1.8-1.6,2.6-2.5
			c1.3-0.8,2.4-1.7,3.5-2.5c3.4-1.9,7.1-3.1,11-3.5c2.7,0.1,5.5,0,8.2,0.3c4.5,0.6,8.7,2.5,12.2,5.4c0.1,0.3,0.3,0.4,0.4,0.4
			c0.1,0.3,0.3,0.4,0.4,0.4c0.1,0.3,0.3,0.4,0.4,0.4c0.1,0.3,0.3,0.4,0.4,0.4c0.1,0.3,0.3,0.4,0.4,0.4c0.2,0.2,0.3,0.3,0.4,0.6
			c0.1,0.4-0.3,0.7-0.6,1.1c-1.2,0.9-2.3,2-3.3,3.2c-0.1,0-0.3,0-0.3,0.3h-0.1c-1,0.7-1.8,1.5-2.8,2.4c-5.4-4.8-12.4-7.3-19.4-3.7
			C196.7,594,194.5,599.8,194.9,605.5z"/>
		<polygon class="st0" points="189.8,621.6 189.8,621.6 189.7,621.6 		"/>
		<path class="st0" d="M194.1,625L194.1,625L194.1,625z"/>
		<path class="st0" d="M708.9,619.6c0.3,2.1-3,4.1-4.5,5.4c-1.3,0.7-2.7,1.4-4.2,2.1c-1.7,0.5-3.4,1-5.1,1.3
			c-3.3,0.6-6.6,0.7-9.9,0.1c-0.7-0.8-3.5-0.8-4.5-1.1c-2-0.6-4-1.4-5.8-2.5c-3.4-2.3-6.2-5.4-8.1-9c-3.7-7.1-3.8-15.6-0.3-22.8
			c7.1-14.4,33.5-20.1,43-5c-1.8,2.7-4.7,4.7-7.2,6.8c-2.5-0.4-4.7-4-7.5-4.7c-3.1-0.7-6.3-0.6-9.3,0.2c-5.8,1.4-9.8,7.8-9.9,13.4
			c-0.2,5.8,3.1,11.2,8.3,13.7c6.9,3.2,13,0.8,18.4-4.1C703.7,614.7,708.6,617.9,708.9,619.6z"/>
		<polygon class="st0" points="23,93.2 23,93.2 23,93.2 		"/>
		<path class="st0" d="M28.5,100.9L28.5,100.9L28.5,100.9z"/>
		<polygon class="st0" points="7.7,71.8 7.7,71.8 7.7,71.8 		"/>
		<polygon class="st0" points="15.3,82.5 15.3,82.5 15.3,82.5 		"/>
		<path class="st0" d="M8,72.3L8,72.3L8,72.3z"/>
		<polygon class="st0" points="11.1,76.5 11.1,76.5 11.1,76.5 		"/>
		<path class="st0" d="M20.8,90.2L20.8,90.2z"/>
		<polygon class="st0" points="13.2,79.5 13.2,79.5 13.2,79.5 		"/>
		<path class="st0" d="M2.1,555c6-0.2,11.9,0,17.9,0.1c0.3,0,0.6-0.1,0.8-0.1c2.5,0,2.5,0,2.6-2.5c-0.3-15.6-0.1-31.3-0.1-46.9
			s-0.6-31.5,0.1-47.2c-0.3-1.1,0.2-2.3-0.5-3.4h-2.5L0,454.9V555C0.7,554.8,1.4,554.8,2.1,555z"/>
		<path class="st0" d="M540.3,75.8L540.3,75.8L540.3,75.8z"/>
		<path class="st0" d="M311.4,277.1L311.4,277.1L311.4,277.1z"/>
		<path class="st0" d="M532.7,81.7L532.7,81.7L532.7,81.7z"/>
		<polygon class="st0" points="521.5,90.6 521.5,90.6 521.5,90.6 		"/>
		<path class="st0" d="M532.2,82.1L532.2,82.1z"/>
		<path class="st0" d="M533,81.3L533,81.3L533,81.3L533,81.3L533,81.3z"/>
		<path class="st0" d="M539.8,76.1L539.8,76.1L539.8,76.1z"/>
		<path class="st0" d="M516.9,94.5L516.9,94.5L516.9,94.5z"/>
		<polygon class="st0" points="188.4,105.2 188.4,105.2 188.4,105.2 		"/>
		<path class="st0" d="M178.2,91.1L178.2,91.1L178.2,91.1z"/>
		<path class="st0" d="M174.8,86.3L174.8,86.3L174.8,86.3z"/>
		<path class="st0" d="M175.1,86.8L175.1,86.8L175.1,86.8z"/>
		<path class="st0" d="M316,283.5L316,283.5L316,283.5z"/>
		<polygon class="st0" points="516.4,94.9 516.4,94.9 516.4,94.9 		"/>
		<path class="st0" d="M316.4,284L316.4,284L316.4,284z"/>
		<path class="st0" d="M280.2,233.5L280.2,233.5L280.2,233.5z"/>
		<path class="st0" d="M276.9,228.8L276.9,228.8L276.9,228.8z"/>
		<path class="st0" d="M277.2,229.2L277.2,229.2z"/>
		<path class="st0" d="M405,209.9L405,209.9z"/>
		<path class="st0" d="M336.5,301L336.5,301L336.5,301z"/>
		<path class="st0" d="M336.1,301.5L336.1,301.5z"/>
		<path class="st0" d="M271.7,221.5L271.7,221.5L271.7,221.5z"/>
		<path class="st0" d="M360.3,370.6L360.3,370.6z"/>
		<polygon class="st0" points="518.5,153 518.5,153 518.5,153 		"/>
		<path class="st0" d="M402,312L402,312L402,312z"/>
		<path class="st0" d="M424.9,278.3L424.9,278.3z"/>
		<path class="st0" d="M406.2,306.1L406.2,306.1L406.2,306.1z"/>
		<path class="st0" d="M291.9,352.7L291.9,352.7L291.9,352.7z"/>
		<path class="st0" d="M621,61.5L621,61.5z"/>
		<path class="st0" d="M675,33.2L675,33.2L675,33.2z"/>
		<path class="st0" d="M606.2,71.8L606.2,71.8z"/>
		<polygon class="st0" points="568.3,102.6 568.3,102.6 568.3,102.6 		"/>
		<polygon class="st0" points="599.8,76.5 599.8,76.5 599.8,76.5 		"/>
		<path class="st0" d="M572.1,99.1L572.1,99.1z"/>
		<path class="st0" d="M571.7,99.6L571.7,99.6z"/>
		<path class="st0" d="M692.9,27.2L692.9,27.2z"/>
		<polygon class="st0" points="576,95.7 576,95.7 576,95.7 		"/>
		<path class="st0" d="M901.5,70c-5.4-4.8-11-9.6-16.8-14.1c-12.3-9.4-25.3-17.9-38.9-25.3c-0.1-0.1-0.3-0.2-0.4-0.2
			c-5.7-3-11.5-5.8-17.4-8.3c-12.3-5.5-25-10-38-13.4h-0.7c-0.3-0.4-0.6-0.4-1-0.4c-0.2,0-0.5,0-0.7-0.1c-3.5-1-7-1.9-10.6-2.5
			C773.7,5,770.4,4,767,3.8l-0.1-0.1l-0.2,0.1c-1-0.4-2-0.6-3.1-0.6c-2.5-0.7-5-1.1-7.6-1.1h-0.8c-0.4-0.1-0.9-0.1-1.3,0
			c-2.5-0.4-5.1-0.7-7.6-0.8c-0.3-0.6-1-0.3-1.3-0.7c1.4-0.3,2.8,0.3,4.1-0.6H705c1.7,0.7,3.8,0.3,5.7,1c-3.3,1.1-7.5,0.3-10.9,1.1
			h-0.4c-6.7-0.3-14.3,2.1-20.8,3.7s-12.9,3.1-19.1,5.1c-12.4,4-25.7,8.3-37,14.7c-0.3,0-0.4,0-0.4,0.1c-24,9.8-44.2,25.9-66.3,38.9
			c-1.1,1-2.3,1.8-3.5,2.5c0,0.1-0.1,0.3-0.4,0.3c-0.2,0.3-0.5,0.5-0.8,0.6c0,0.2-0.1,0.4-0.3,0.4c0,0-0.1,0-0.1,0
			c0,0.1-0.1,0.3-0.4,0.3c0,0.1-0.1,0.3-0.3,0.1c-0.1,0.3-0.3,0.4-0.6,0.4c0,0.2-0.1,0.3-0.3,0.3h-0.1c-0.1,0.3-0.4,0.5-0.7,0.6
			c-0.1,0.3-0.3,0.4-0.6,0.4s-0.1,0.3-0.4,0.3c-0.2,0.3-0.5,0.5-0.8,0.6c0,0.2-0.1,0.4-0.3,0.4c0,0-0.1,0-0.1,0
			c-0.2,0.3-0.4,0.5-0.7,0.6c-0.1,0.2-0.3,0.3-0.6,0.3c0,0.2-0.1,0.4-0.3,0.4c0,0-0.1,0-0.1,0c-0.3,0.4-0.8,0.7-1.3,0.9
			c0,0.2-0.1,0.4-0.3,0.4c0,0-0.1,0-0.1,0c-0.2,0.3-0.5,0.5-0.8,0.6c0,0.1-0.1,0.3-0.4,0.3c-0.1,0.3-0.4,0.6-0.7,0.6
			c-0.1,0.3-0.3,0.4-0.6,0.4c0,0.1-0.1,0.3-0.4,0.3v0.1c0,0.1-0.1,0.3-0.4,0.3c-0.2,0.3-0.4,0.5-0.7,0.6c-0.1,0.3-0.3,0.3-0.6,0.4
			s-0.1,0.3-0.4,0.3c-0.3,0.5-0.7,0.8-1.3,1c0,0.1-0.1,0.3-0.4,0.3v0.1c-0.1,0.1-0.1,0.3-0.4,0.3c-0.3,0.3-0.4,0.6-0.8,0.6
			c-0.3,0.6-0.7,0.7-1.1,1c-0.1,0.2-0.3,0.3-0.6,0.3c0,0.2-0.1,0.4-0.3,0.4c0,0-0.1,0-0.1,0c0,0.2-0.1,0.4-0.3,0.4c0,0-0.1,0-0.1,0
			c-0.1,0.1-0.1,0.3-0.4,0.3c-0.3,0.3-0.4,0.6-0.8,0.6c0,0.2-0.1,0.4-0.3,0.4c0,0-0.1,0-0.1,0c-0.1,0.1-0.1,0.3-0.3,0.3h-0.1
			c-0.3,0.5-0.7,0.8-1.3,1c-0.2,0.3-0.3,0.4-0.4,0.4h-0.1c0,0.2-0.1,0.3-0.3,0.3c-0.1,0.1-0.3,0.1-0.4,0.3c-1,1.1-2.2,2-3.4,2.8
			c-0.1,0.3-0.3,0.4-0.4,0.4h-0.1c0,0.2-0.1,0.3-0.3,0.3c-0.3,0.3-0.4,0.6-0.8,0.6c0,0.2-0.1,0.4-0.3,0.4c0,0-0.1,0-0.1,0
			c-0.1,0.3-0.3,0.4-0.4,0.4H521c0,0.3-0.1,0.4-0.3,0.4c-0.5,0.6-1,1.1-1.7,1.4c-0.1,0.1-0.3,0.3-0.4,0.3h-0.1
			c0,0.3-0.1,0.4-0.3,0.4c-0.2,0.3-0.5,0.5-0.8,0.6c0,0.2-0.1,0.4-0.3,0.4c0,0-0.1,0-0.1,0c0,0.3-0.3,0.3-0.4,0.4
			c-0.1,0.2-0.3,0.3-0.6,0.3c-0.6,0.7-1.2,1.3-2,1.8c-0.2,0.3-0.3,0.3-0.6,0.3v0.2c0,0.1-0.1,0.3-0.4,0.3c-0.2,0.5-0.6,0.8-1.1,1
			c-0.1,0.3-0.3,0.4-0.6,0.4c0,0.1-0.1,0.3-0.4,0.3v0.1c0,0.2-0.1,0.3-0.3,0.3c-0.3,0.3-0.4,0.6-0.8,0.6c-0.4,0.7-1.1,1.3-1.8,1.7
			c0,0.2-0.1,0.4-0.3,0.4c0,0-0.1,0-0.1,0c-0.7,0.9-1.6,1.6-2.5,2.1c0,0.2-0.1,0.4-0.3,0.4c0,0-0.1,0-0.1,0
			c-0.1,0.3-0.4,0.5-0.7,0.6c-0.6,0.8-1.4,1.5-2.3,2c-5.2,5.1-10.6,9.9-16.1,14.7c-1,1.3-2.1,2.4-3.4,3.2
			c-11.9,11.7-23,25.2-35.8,35.9c-1.3,1.6-2.6,3.1-4.1,4.5c-0.5,0.7-1.2,1.4-1.8,2c-1.3,1.7-2.8,3.1-4.2,4.7
			c-2.3,2.5-4.5,5.1-6.6,7.6c-3.4,3.8-6.6,7.8-9.9,11.6c-0.1,0.4-0.4,0.7-0.9,0.9c-0.3,0.7-0.8,1.3-1.4,1.7c-1.3,2-2.8,3.9-4.5,5.7
			c-2.3,3.2-4.7,6.3-7.3,9.3c0,0.2-0.1,0.4-0.3,0.4c0,0-0.1,0-0.1,0c-0.1,0.4-0.3,0.8-0.7,1c0,0.1,0,0.3-0.3,0.3
			c-11.3,14.7-22,30.1-34.1,44.1c-1.7,2.6-3.6,5.1-5.7,7.4c0,0.1,0,0.3-0.1,0.3c0,0.2-0.1,0.4-0.3,0.4c0,0-0.1,0-0.1,0
			c0,0.2-0.1,0.4-0.3,0.6c0,0.1-0.1,0.3-0.4,0.4c-0.9,1.5-1.9,2.9-3.1,4.1c-0.3,0.7-0.7,1.3-1.3,1.7c-2.8,4.1-5.7,8.2-8.8,12.2
			c0,0.1-0.1,0.1-0.3,0.3c0.1,0.3,0,0.4-0.3,0.4c0,0.3,0,0.4-0.3,0.6c-2.4,3.7-5,7.3-7.8,10.8c0.1,0.1,0,0.3-0.1,0.3
			c0.1,0.3-0.1,0.4-0.3,0.4c0,0.3,0,0.4-0.3,0.4c-1.1,1.8-2.2,3.5-3.5,5.1c0,0.3-0.2,0.4-0.4,0.6c0,0.1-0.1,0.4-0.3,0.4
			c-0.5,0.9-1.1,1.8-1.8,2.5c0,0.4-0.3,0.6-0.6,0.9c-1.7,3.7-4.5-2.7-5.7-4.4c-0.2,0-0.3-0.1-0.3-0.3c-3.1-4.2-6.2-8.5-9.2-12.9
			c-0.3-0.3-0.6-0.4-0.6-0.8c-0.2-0.1-0.3-0.3-0.3-0.6h-0.1c-0.6-0.6-1-1.2-1.3-2c-0.2,0-0.4-0.2-0.4-0.4c-0.3-0.1-0.3-0.3-0.3-0.6
			h-0.1c-0.1,0-0.3-0.1-0.3-0.4c0-0.3-0.1-0.1-0.3-0.3c-1.3-1.7-2.6-3.4-3.7-5.2c-0.3,0-0.4-0.1-0.3-0.4l-0.1-0.1
			c-0.2,0-0.3-0.1-0.3-0.3c0-0.1-0.1-0.3-0.1-0.4c-0.8-0.7-1.4-1.6-1.8-2.5c-0.3,0-0.3-0.1-0.3-0.4c-2.6-3.1-4.9-6.5-7.1-9.9
			c-0.3-0.1-0.5-0.4-0.6-0.7c-0.3-0.1-0.4-0.3-0.4-0.6c-2.4-3.1-4.7-6.4-6.9-9.8c-0.9-0.9-1.6-1.9-2.1-3c-0.8-0.8-1.5-1.7-2-2.7
			c-0.1-0.1-0.3-0.1-0.3-0.4c-0.1-0.1-0.1-0.2-0.1-0.3c-0.3-0.1-0.4-0.3-0.4-0.6c-2.8-3.8-5.7-7.5-8.2-11.4c-0.4-0.1-0.6-0.6-0.7-1
			c-0.3-0.2-0.5-0.4-0.6-0.7c-0.2-0.1-0.3-0.3-0.3-0.6c-0.6-0.5-1.1-1.2-1.4-2c-0.3-0.1-0.4-0.3-0.4-0.4c-0.2-0.1-0.3-0.3-0.3-0.6
			c-1.8-2.1-3.4-4.4-4.8-6.8c-0.4-0.1-0.6-0.4-0.7-0.9v-0.1c-2.7-3.4-5.3-6.9-7.6-10.6c-0.1,0-0.1-0.1-0.1-0.1
			c-3.4-4.5-6.6-8.9-9.8-13.6c-10.4-14.6-20.9-29.2-31.3-43.8c-10.5-14.6-21.6-28.7-31.2-43.7c-0.2-0.1-0.3-0.3-0.3-0.6
			c-0.2,0-0.3-0.1-0.3-0.3v-0.2c-0.3-0.1-0.5-0.4-0.6-0.7c-0.3-0.1-0.4-0.3-0.4-0.6c-0.2,0-0.4-0.2-0.4-0.4c0,0,0-0.1,0-0.1
			c-0.1,0-0.1-0.1-0.1-0.3c-0.3,0-0.3-0.3-0.4-0.6c-0.1,0-0.3-0.1-0.3-0.4H188v-0.3h-0.4v-0.1c0-0.3-0.2-0.4-0.3-0.4l-0.4-0.8h-0.1
			c0-0.1-0.1-0.3-0.4-0.4v-0.4H186c-0.1-0.4-0.4-0.6-0.6-0.8c0-0.3-0.1-0.3-0.4-0.4c0-0.3,0-0.4-0.3-0.6c-0.8-1.3-1.7-2.5-2.5-3.7
			c-0.3-0.2-0.5-0.5-0.6-0.8c-0.3,0-0.3-0.3-0.4-0.4s-0.3-0.1-0.3-0.4c-0.3-0.3-0.6-0.4-0.6-0.9c-0.2-0.1-0.3-0.3-0.3-0.6
			c-0.7-0.7-1.3-1.5-1.8-2.4c-0.2-0.1-0.3-0.3-0.3-0.6h-0.1c-0.5-0.5-0.9-1.1-1.1-1.7c-0.3-0.1-0.6-0.4-0.6-0.7
			c-0.2-0.1-0.3-0.3-0.3-0.6h-0.1c-0.3-0.1-0.4-0.4-0.4-0.7c-0.3-0.1-0.4-0.3-0.4-0.6c-0.1,0-0.3-0.1-0.3-0.4h-0.1
			c-2.7-3.5-5.2-7.1-7.6-10.7c-3.1-4.4-6.5-8.5-9.5-13.2c-0.3-0.4-0.7-0.8-1.3-1.5c-0.4,1.3,0.1,2.5-0.3,3.7c0.1,5,0.1,9.9,0,15
			c0.1,0.3,0.1,0.6,0,0.8v0.9c0.1,7.6,0.1,15.3-0.4,22.9c0.2,0.6,0.2,1.3,0.1,2c0,4.9,0,9.9-0.1,14.8c-1.4,17,0,34.5,0,51.5
			c0,17.4-0.7,34.8,0,52c-1,15.6,0.6,31.2,0,46.9c0.1,0,0.2,0.1,0.3,0.1c0,3.7,0,7.4,0.1,11c0.1,5.7,0.1,11.2-0.1,16.7v1.7
			c0.1,2.4,0.1,4.7,0.1,6.9c0,0.2,0,0.5-0.1,0.7c0,0.2-0.2,0.2-0.3,0.3c0.3,5.9,0.4,12,0.4,18.1v30.7c-0.1,15.5-0.4,31.2-0.4,46.7
			c0.1,0.1,0.3,0.1,0.3,0.3c0.1,2.1,0.1,4.1,0.1,6.2c0.4,0.1,0.8,0.2,1.3,0.1c0.4,0,0.9-0.1,1.3-0.1s0.6,0.1,0.8,0.1h0.4
			c15.7-0.1,31.5-0.4,47.2,0h6.8c0.3,0,0.6-0.1,0.9-0.1c0-54,1.5-108.3,0-162.4c0-0.9,0.1-1.7,0.1-2.5c0-0.1,0.1-0.1,0.1-0.3
			c0,0.1,0.1,0.1,0.1,0.3c0.2,0,0.4,0.1,0.4,0.3c0,0,0,0.1,0,0.1c1.4,1.4,2.3,3.2,3.5,4.8c1.3,1.6,2.3,3.4,3.5,4.9
			c0.2,0.1,0.3,0.3,0.3,0.6c2.5,3.4,5.1,6.9,7.6,10.3c10.8,15.1,21.6,30.2,32.5,45.2c0,0.1,0.2,0.3,0.2,0.4c0.6,0.4,1,1,1.3,1.7
			c0.3,0.2,0.5,0.5,0.4,0.8c4.7,6.4,9.5,12.6,13.9,19.2c0.3,0.2,0.6,0.6,0.7,1c4.4,5.8,8.6,11.7,12.7,17.8c1.2,1.2,2.2,2.6,3,4.1
			c0.3,0.1,0.4,0.3,0.4,0.6c0.2,0,0.3,0,0.4,0.1c1,2.1,2.8,3.8,3.8,5.9c1.2,1.3,2.3,2.7,3.1,4.2c2.4,3,4.7,6.1,6.7,9.3
			c4.4,5.8,8.6,11.9,12.9,17.8c0.7,1.1,1.4,2.1,2.1,3.1c0.1,0.1,0.1,0.4,0.3,0.6c2.5,3,4.5,6.2,6.8,9.3c0.3,0.6,1,0.9,1.6,0.6
			c0,0,0,0,0.1,0c0.7-0.8,1.4-1.8,2.1-2.7c0-0.1,0.1-0.4,0.3-0.4c0.1,0,0.2-0.3,0.3-0.4c0-0.2,0.1-0.3,0.3-0.3v-0.1
			c0-0.2,0.1-0.4,0.3-0.4c0,0,0.1,0,0.1,0c0-0.4,0.3-0.6,0.4-0.9c0-0.3,0.1-0.3,0.4-0.4c0-0.4,0.3-0.6,0.6-0.8
			c0-0.3,0.1-0.3,0.3-0.4c0-0.2,0.1-0.4,0.3-0.4c0,0,0.1,0,0.1,0c0-0.3,0.2-0.6,0.4-0.9c0-0.2,0.1-0.4,0.3-0.4c0,0,0.1,0,0.1,0
			c0-0.4,0.3-0.6,0.6-0.8c0-0.3,0.1-0.3,0.3-0.4c0.1-0.1,0.1-0.4,0.4-0.6c0-0.2,0-0.3,0.3-0.4c1.5-2.3,3.1-4.5,4.8-6.6v-0.1
			c0-0.2,0.2-0.3,0.4-0.4c0-0.4,0.3-0.6,0.6-0.9c-0.1-0.3,0.2-0.3,0.3-0.4c0-0.4,0.3-0.6,0.6-0.9c0-0.2,0.1-0.3,0.3-0.3v-0.1
			c0-0.1,0.2-0.3,0.4-0.4c0-0.4,0.3-0.6,0.6-0.8c-0.1-0.3,0-0.3,0.3-0.4c0-0.4,0.3-0.6,0.6-0.8c0-0.3,0.1-0.3,0.3-0.4
			c0-0.2,0.1-0.4,0.3-0.4c0,0,0.1,0,0.1,0c0-0.4,0.2-0.7,0.6-0.8c0-0.3,0.1-0.3,0.3-0.4c0-0.2,0.1-0.4,0.3-0.4c0,0,0.1,0,0.1,0
			c0-0.3,0-0.4,0.3-0.6c0.6-1.2,1.4-2.3,2.3-3.2c0-0.2,0.1-0.4,0.3-0.4c0,0,0.1,0,0.1,0c0-0.4,0.2-0.7,0.6-0.9
			c0-0.3,0.1-0.4,0.3-0.4c0-0.3,0.1-0.4,0.4-0.6c0-0.1,0.1-0.2,0.1-0.3c0-0.3,0.2-0.4,0.3-0.4h0.1c-0.1-0.3,0-0.4,0.3-0.6
			c0-0.3,0.3-0.6,0.6-0.8c-0.1-0.3,0.2-0.3,0.3-0.4c0.1-0.2,0.3-0.6,0.6-0.8c0-0.2,0.1-0.3,0.3-0.3c0-0.3,0.1-0.4,0.4-0.6
			c0-0.4,0.3-0.6,0.6-0.9c0-0.1,0.1-0.3,0.3-0.4c0-0.2,0.2-0.4,0.4-0.4c0.8-1.5,1.8-2.9,3-4.2c0.1-0.3,0.3-0.6,0.6-0.9
			c0-0.3,0.1-0.3,0.3-0.4c0-0.3,0.1-0.4,0.4-0.6c0-0.1,0-0.3,0.3-0.4c0.5-0.9,1.1-1.8,1.8-2.5c0.1-0.3,0.3-0.6,0.6-0.7
			c0-0.3,0.1-0.4,0.3-0.4c0-0.3,0.2-0.4,0.4-0.6c0-0.4,0.3-0.6,0.6-0.7c0.6-1.3,1.4-2.5,2.4-3.5c1.9-2.9,3.9-5.8,6.1-8.5
			c0-0.2,0.1-0.4,0.3-0.4c0,0,0.1,0,0.1,0c0-0.3,0.2-0.6,0.4-0.8c0-0.2,0.1-0.4,0.3-0.4c0,0,0.1,0,0.1,0c0-0.4,0.3-0.6,0.6-0.8
			c-0.1-0.3,0-0.4,0.3-0.4c0-0.2,0.1-0.4,0.3-0.6c3.2-5,7.1-9.8,10.5-14.6c1.2-1.9,2.5-3.8,4-5.5c1.1-2,2.5-3.8,4-5.5
			c0.6-1.3,1.4-2.4,2.4-3.4c0.4-1,1-1.9,1.8-2.5c0-0.3,0.1-0.4,0.4-0.6c0-0.1,0-0.3,0.2-0.3c0-0.3,0.1-0.3,0.3-0.4
			c0.1-0.1,0.1-0.4,0.4-0.6c0-0.3,0.3-0.6,0.6-0.7c0.4-0.8,0.9-1.6,1.5-2.3c0-0.3,0.2-0.6,0.4-0.7h0.1c-0.1-0.3,0-0.4,0.3-0.6
			c0-0.1,0.1-0.4,0.3-0.4c3.1-5.1,6.7-10,9.9-14.9c2.7-4,5.1-8.2,8.2-12c0-0.3,0.1-0.4,0.3-0.4c2.5-4,5-7.8,7.8-11.5
			c0-0.3,0.1-0.6,0.4-0.6c0-0.2,0-0.3,0.1-0.4c0-0.2,0.1-0.3,0.3-0.3v-0.1c0-0.2,0.1-0.4,0.3-0.4c0,0,0.1,0,0.1,0
			c0-0.2,0-0.3,0.1-0.4c0-0.2,0.1-0.3,0.3-0.3v-0.1c0-0.2,0.1-0.4,0.3-0.4c0,0,0.1,0,0.1,0c0-0.4,0.3-0.6,0.6-0.9
			c-0.1-0.3,0-0.3,0.3-0.4c0-0.1,0-0.4,0.3-0.4c11.6-19.5,25.5-38.7,39.4-56.5c0.3-0.4,0.6-0.8,1-1.1c1.2-1.8,2.5-3.5,4-5.1
			c1.8-2.7,3.8-5.3,5.9-7.8c2.1-2.9,4.4-5.8,6.8-8.5c0.4-0.8,1-1.5,1.7-2.1c0-0.3,0.3-0.4,0.4-0.6c0-0.2,0.2-0.4,0.4-0.4
			c0.1-0.6,0.6-0.8,1-1.3c0-0.2,0.1-0.3,0.3-0.3l0.1-0.1c0-0.1,0.1-0.3,0.3-0.4c0.1-0.1,0.1-0.3,0.4-0.4c0.1-0.6,0.6-0.8,1-1.3
			c0-0.3,0.1-0.3,0.3-0.4c0-0.2,0.1-0.4,0.3-0.4c0,0,0.1,0,0.1,0c0.3-0.7,0.7-1.2,1.3-1.7h0.1c0.4-0.8,1-1.6,1.7-2.1
			c0-0.3,0.1-0.3,0.4-0.3V171c0-0.3,0.1-0.4,0.3-0.4h0.1c0-0.3,0.1-0.4,0.3-0.4c0.5-0.8,1.1-1.6,1.8-2.1c0-0.2,0.1-0.4,0.3-0.4
			c0,0,0.1,0,0.1,0c0-0.3,0.1-0.4,0.3-0.4c0.1-0.2,0.2-0.4,0.4-0.6c0.3-0.5,0.6-0.9,1-1.3c0-0.2,0.1-0.3,0.4-0.3
			c0-0.2,0.1-0.4,0.3-0.6c0.4-0.6,0.9-1.2,1.4-1.7c0-0.1,0.1-0.3,0.4-0.3c0.9-1.5,2.1-2.8,3.4-4c0-0.1,0.1-0.3,0.4-0.4
			c0-0.3,0.1-0.4,0.3-0.4c0.8-1.1,1.7-2.1,2.7-3c0.4-0.7,0.9-1.2,1.5-1.7c0.5-0.8,1.1-1.5,1.8-2.1c0-0.2,0.1-0.4,0.3-0.4
			c0,0,0.1,0,0.1,0c0-0.3,0.1-0.4,0.4-0.6c0.3-0.6,0.7-1.1,1.1-1.6c0.1-0.1,0.3-0.1,0.4-0.3c1.3-1.8,3.1-3.1,4.4-5
			c1.7-1.4,2.8-3.2,4.7-4.7c1.1-1.5,2.4-2.9,3.8-4c1.4-1.9,3-3.6,4.8-5.1c4.1-4.1,8.1-8.3,12.3-12.3c0-0.3,0.1-0.3,0.4-0.4v-0.3h0.3
			c0.3-0.4,0.6-0.7,0.8-1.1h0.4v-0.3c1.3-1.1,2.5-2.3,3.8-3.5l0.4-0.4c0.2-0.1,0.3-0.3,0.4-0.4l0.4-0.4c0.1-0.2,0.3-0.3,0.6-0.3
			v-0.1c0-0.1,0.1-0.3,0.4-0.3c0-0.2,0.1-0.4,0.3-0.4c0,0,0.1,0,0.1,0v0c0-0.1,0.1-0.3,0.4-0.3v-0.1c0.1-0.1,0.1-0.2,0.1-0.3
			c0.1,0,0.1,0,0.3-0.3c0.1,0.1,0.3,0,0.3-0.3c0.2,0,0.4-0.1,0.4-0.3c0,0,0-0.1,0-0.1c0.2,0,0.4-0.1,0.4-0.3c0,0,0-0.1,0-0.1
			c1-0.7,1.8-1.4,2.7-2.1c0.1-0.1,0.1-0.1,0.1-0.3h0.2c0.5-0.6,1.1-1,1.7-1.4c0.1-0.3,0.3-0.3,0.4-0.4h0.2c0.3-0.3,0.6-0.6,0.8-0.9
			c0-0.1,0.1-0.3,0.4-0.3c0-0.2,0.1-0.3,0.3-0.3c0.4-0.7,1-1.2,1.7-1.5c0.1-0.3,0.3-0.4,0.6-0.4c0-0.2,0.1-0.4,0.3-0.4
			c0,0,0.1,0,0.1,0c0-0.2,0.1-0.4,0.3-0.4c0,0,0.1,0,0.1,0c0-0.2,0.1-0.4,0.3-0.4c0,0,0.1,0,0.1,0c0.1-0.1,0.1-0.3,0.4-0.3
			c0.4-0.6,0.9-1.1,1.5-1.4c0.1-0.2,0.3-0.4,0.6-0.6c0-0.1,0.1-0.3,0.4-0.3c0-0.3,0.1-0.4,0.4-0.4c0-0.2,0.1-0.4,0.3-0.4
			c0,0,0.1,0,0.1,0c0.3-0.4,0.8-0.8,1.3-1c0-0.1,0.2-0.3,0.4-0.3v-0.1c0-0.1,0.1-0.3,0.4-0.3s0.2-0.3,0.3-0.3h0.1
			c0.3-0.5,0.7-0.9,1.3-1.1c0-0.1,0.1-0.3,0.4-0.3V91c0.1-0.1,0.1-0.3,0.4-0.3c0.3-0.5,0.7-0.8,1.3-1c0-0.1,0.1-0.3,0.4-0.4
			c0-0.1,0.2-0.3,0.4-0.3v-0.1c0.1-0.1,0.1-0.3,0.4-0.3c0.3-0.5,0.7-0.8,1.3-1c0-0.2,0.1-0.4,0.3-0.4c0,0,0.1,0,0.1,0
			c0.1-0.1,0.1-0.4,0.4-0.4h0.2c0-0.1,0-0.3,0.3-0.3c0.3-0.5,0.7-0.8,1.3-1c0-0.2,0.1-0.4,0.3-0.4c0,0,0.1,0,0.1,0
			c0.1-0.1,0.1-0.3,0.4-0.3c0.3-0.5,0.7-0.8,1.3-1c0-0.2,0.1-0.4,0.3-0.4c0,0,0.1,0,0.1,0c0.1-0.1,0.1-0.3,0.4-0.3
			c0.3-0.3,0.4-0.6,0.8-0.6c0-0.2,0.1-0.4,0.3-0.4c0,0,0.1,0,0.1,0c0.1-0.1,0.1-0.3,0.3-0.3h0c0.1-0.4,0.5-0.6,0.8-0.6
			c0-0.2,0.1-0.4,0.3-0.4c0,0,0.1,0,0.1,0c0.1-0.3,0.1-0.4,0.4-0.4c0.3-0.4,0.8-0.7,1.3-0.8c0.1-0.3,0.3-0.4,0.4-0.4h0.1
			c0-0.3,0.1-0.4,0.3-0.3c0.3-0.3,0.4-0.6,0.8-0.7c0-0.1,0.1-0.3,0.4-0.3c0.2-0.3,0.3-0.4,0.4-0.4c0.2-0.3,0.5-0.5,0.8-0.6
			c0-0.3,0.1-0.3,0.4-0.3c0.1-0.3,0.1-0.4,0.4-0.4c0.4-0.4,0.7-0.8,1.3-1c0.1-0.1,0.3-0.3,0.4-0.3h0.1c1.3-1.2,2.6-2.2,4.1-3.1
			c0.1-0.3,0.3-0.4,0.6-0.4c0-0.2,0.1-0.3,0.3-0.3c0.3-0.1,0.6-0.6,1-0.6c0-0.2,0.1-0.3,0.3-0.3c0.3-0.3,0.4-0.6,0.8-0.6
			c0.1-0.3,0.3-0.4,0.6-0.4c0.1-0.1,0.2-0.2,0.3-0.2c0.2-0.3,0.6-0.5,1-0.6c0-0.1,0.1-0.4,0.4-0.3c0.1-0.3,0.4-0.5,0.7-0.6
			c0.1-0.3,0.3-0.4,0.6-0.4c0-0.2,0.1-0.3,0.3-0.3c0.1,0,0.3-0.1,0.4-0.1c0.5-0.6,1.1-1,1.8-1.3c0-0.1,0.1-0.3,0.4-0.3
			c0-0.1,0.1-0.3,0.3-0.1c0.1-0.3,0.3-0.4,0.6-0.4c0-0.1,0.1-0.3,0.4-0.3c0-0.1,0.1-0.3,0.3-0.1c0.1-0.3,0.3-0.4,0.6-0.4
			c0-0.2,0.1-0.3,0.3-0.3h0.1l0.3-0.3c0.8-0.7,1.6-1.2,2.5-1.7c0.1-0.2,0.3-0.3,0.6-0.3c0-0.1,0.1-0.3,0.4-0.3
			c0-0.1,0.1-0.1,0.3-0.3c0.1-0.2,0.3-0.3,0.6-0.3c0.2-0.1,0.2-0.3,0.4-0.3s0.3-0.1,0.3-0.3c0.7-0.6,1.4-1,2.3-1.3
			c0-0.2,0.1-0.4,0.3-0.4c0,0,0.1,0,0.1,0c0.1-0.1,0.1-0.3,0.4-0.1l0.3-0.3c0.1-0.2,0.3-0.3,0.6-0.3c0.3-0.3,0.4-0.6,0.8-0.6
			c0-0.1,0.1-0.3,0.4-0.3s0.4-0.6,0.8-0.6c1.8-1.2,3.6-2.3,5.5-3.2c0.2-0.1,0.2-0.1,0.3-0.1c0.1-0.3,0.3-0.4,0.6-0.4
			s0.6-0.4,0.8-0.4s0.1-0.3,0.4-0.3s0.3-0.1,0.4-0.1c0.3-0.4,0.8-0.7,1.3-0.8c0.3-0.1,0.6-0.4,0.8-0.4s0.3-0.3,0.4-0.3
			s0.3-0.1,0.4-0.1s0.1-0.3,0.4-0.3s0.3-0.3,0.4-0.1c0-0.2,0.1-0.4,0.3-0.4c0,0,0.1,0,0.1,0c0.1,0,0.1-0.1,0.3,0
			c2.4-1.5,5-2.8,7.3-4.1c0.2-0.1,0.4-0.2,0.6-0.1c0-0.2,0.1-0.3,0.3-0.3c0.2-0.1,0.3-0.1,0.6-0.1c0-0.3,0.1-0.4,0.3-0.3
			c0.1-0.1,0.3-0.2,0.4-0.1c0.2-0.3,0.3-0.4,0.4-0.3c0.1-0.1,0.3-0.2,0.4-0.1c0.1-0.3,0.3-0.4,0.4-0.3c0.1-0.1,0.3-0.2,0.4-0.2
			c0.1-0.3,0.3-0.4,0.4-0.3c0.1-0.1,0.3-0.1,0.6-0.1c0-0.3,0.1-0.4,0.3-0.3c0.2-0.1,0.4-0.2,0.6-0.1c0-0.3,0.1-0.4,0.3-0.3
			c0.2-0.1,0.4-0.1,0.6-0.1c0-0.3,0.1-0.4,0.3-0.3c0.3-0.1,0.4-0.1,0.6-0.3c0.2-0.1,0.1-0.3,0.3-0.1c0.5-0.4,1.1-0.6,1.7-0.7
			c0-0.3,0.3-0.3,0.6-0.3c0-0.1,0.1-0.1,0.3-0.1c0.1-0.3,0.3-0.3,0.6-0.3c0-0.1,0.1-0.1,0.3-0.1c0.1-0.2,0.3-0.3,0.6-0.3
			c0.2,0,0.3,0,0.4-0.1c0-0.1,0.1-0.3,0.4-0.3s0.4-0.1,0.6-0.1c0.1-0.3,0.4-0.4,0.7-0.3c0,0,0,0,0,0c0-0.1,0.1-0.1,0.3-0.1
			c0.1-0.2,0.3-0.3,0.6-0.3c0.2,0,0.3,0,0.4-0.2c0-0.1,0.1-0.3,0.4-0.3c0.2-0.1,0.5-0.1,0.7-0.1c0-0.3,0.3-0.4,0.6-0.3
			c0-0.1,0.1-0.1,0.3-0.1c0.1-0.2,0.3-0.3,0.6-0.3c0.2,0,0.4-0.1,0.6-0.1c0.4-0.6,1-0.6,1.5-0.7c0.2-0.1,0.2-0.1,0.4-0.1
			c0-0.1,0.1-0.3,0.4-0.3c0.4-0.1,0.8-0.7,1.6-0.6c0.1-0.3,0.3-0.4,0.6-0.3c0.1,0,0.3-0.1,0.4-0.1s0.3-0.1,0.4-0.3
			c0.1-0.1,0.6-0.1,0.8-0.1c0.3-0.4,0.7-0.4,1.1-0.6c0.1-0.1,0.3-0.1,0.6-0.1c0.2-0.1,0.5-0.2,0.7-0.1c0.1-0.3,0.3-0.4,0.6-0.3
			c0.1-0.1,0.3-0.2,0.4-0.2c0-0.1,0.1-0.3,0.4-0.3c0.2,0,0.5-0.1,0.7-0.1c0.1-0.3,0.3-0.3,0.6-0.3c0.2-0.1,0.5-0.2,0.7-0.1
			c0.1-0.3,0.3-0.4,0.6-0.3c0.2-0.1,0.5-0.2,0.7-0.1c0.1-0.3,0.3-0.4,0.6-0.3c0.3-0.1,0.4-0.1,0.7-0.3c0.1-0.2,0.3-0.3,0.6-0.3h0.4
			c0.1-0.1,0.1-0.3,0.4-0.3s0.6-0.3,0.8-0.1c0-0.3,0.1-0.3,0.4-0.3c0.3-0.1,0.6-0.2,0.8-0.1c0-0.3,0.3-0.3,0.4-0.3
			c0.2-0.2,0.6-0.2,0.8-0.1c0.3-0.3,0.6-0.4,0.8-0.3c0.3-0.1,0.6-0.1,0.7-0.3c0.1-0.1,0.3-0.3,0.6-0.1c0.1-0.1,0.3-0.2,0.4-0.2
			c1.1-0.5,2.2-0.9,3.4-1c0-0.3,0.3-0.3,0.4-0.1c0.3-0.1,0.6-0.2,0.8-0.1c0.2-0.2,0.5-0.4,0.8-0.4h0.8c0.2-0.3,0.5-0.5,0.8-0.4
			c0.2,0,0.5,0,0.7-0.1c0.1-0.1,0.4-0.3,0.6-0.1c0.4-0.1,0.8-0.1,1.1-0.3c0.2-0.2,0.3-0.3,0.6-0.3c0.4,0,0.8,0,1.1-0.1
			c0.1-0.2,0.3-0.3,0.6-0.3c0.4,0,0.8,0,1.1-0.1c0.2-0.2,0.4-0.3,0.7-0.3l-0.1-0.1h1.3c0.3-0.2,0.6-0.4,1-0.3c0.3,0,0.7,0,1-0.1
			c0.3-0.2,0.6-0.3,1-0.3c0.4,0,0.8-0.1,1.3-0.1c0.3-0.2,0.6-0.4,1-0.3c0.2,0,0.5,0,0.7-0.1c0.3-0.2,0.6-0.3,1-0.3
			c0.3,0,0.7-0.1,1.1-0.1c0.3-0.2,0.6-0.3,1-0.3c0.6-0.2,1.2-0.2,1.8-0.1c0.6-0.3,1.3-0.4,2-0.3c0.6,0,1.3-0.1,1.8-0.1
			c0.3-0.2,0.7-0.3,1.1-0.3h0.8c0.7-0.3,1.4-0.5,2.1-0.4c0.4,0,0.7-0.1,1.1-0.1c0.1-0.1,0.4-0.3,0.6-0.4h0.4v0.1
			c0.1,0,0.3-0.1,0.4-0.1h4.5c0.1-0.1,0.1-0.1,0.1-0.3c0.3,0.1,0.6,0,0.8-0.1h0.4c0.3,0.1,0.6,0.1,0.8,0c0.6,0,1.1,0.1,1.7,0.1
			c8.3-0.3,16.7-0.1,24.9-0.1h1.1c0.4,0.1,0.9,0.1,1.3,0c0.2,0,0.3,0,0.4,0.1h0.3c2,0.6,4,0.3,6.1,0.3h1.3c0.1,0.1,0.3,0.2,0.4,0.1
			c0.8,0.3,1.7,0.4,2.5,0.4c1,0.4,2,0.5,3,0.3l0.1,0.1h0.1c1.3,0.4,2.7,0.5,4,0.3h0.4c0.3,0.1,0.6,0.3,0.8,0.1h0.4
			c0.4,0.2,0.8,0.3,1.3,0.3h0.8c0.3,0.1,0.6,0.1,0.8,0.3c1.1,0.5,2.2,0.6,3.4,0.6l0.1,0.1h0.3c1,0.3,2,0.4,3,0.4h0.3
			c0.3,0.2,0.6,0.3,1,0.3c0.4,0,0.8,0.1,1.3,0.1c0.2,0.2,0.5,0.3,0.8,0.3h0.2c0.2,0,0.3,0,0.4,0.1c2.7,2,9.5,2.1,12.7,2.8
			c4.4,1.1,8.8,2.5,13.1,3.7c0.1,0.1,0.3,0.2,0.4,0.1h0.1c0.3,0.1,0.6,0.2,0.8,0.1c2,1,4.2,1.7,6.4,2.3c0,0.1,0.2,0.2,0.3,0.2
			c0,0,0.1,0,0.1,0c0.3,0.1,0.6,0.1,0.8,0.3c1.3,0.7,2.8,1.2,4.2,1.5l0.2,0.2h0.1c4.5,1.8,8.9,3.7,13.3,5.5c0.1,0.2,0.3,0.3,0.6,0.3
			c0.1,0,0.2,0.1,0.3,0.1c1.2,0.7,2.5,1.3,3.8,1.7c0.1,0.3,0.3,0.3,0.6,0.3l0.2,0.1h0.1c0.1,0.2,0.3,0.3,0.6,0.3
			c0.1,0,0.2,0.1,0.3,0.1c0.1,0.2,0.3,0.3,0.6,0.3c0.2,0,0.3,0,0.4,0.1c0,0.1,0.1,0.3,0.4,0.3c0.2,0,0.3,0,0.4,0.1
			c0,0.2,0.1,0.3,0.3,0.3h0.1c0.2,0,0.3,0,0.4,0.1c0.9,0.7,1.9,1.2,3,1.6c0.2,0,0.3,0,0.4,0.1c0,0.1,0.2,0.3,0.4,0.3
			s0.3,0.1,0.4,0.1c0,0.2,0.1,0.3,0.3,0.3c0,0,0.1,0,0.1,0l0.1,0.1h0.1c0.1,0.3,0.3,0.4,0.6,0.3c0,0.1,0.1,0.1,0.3,0.1
			c1.2,0.9,2.6,1.6,4,2.1c0,0.3,0.1,0.4,0.4,0.3c0.1,0.1,0.3,0.1,0.4,0.3c2,1.1,4.1,2.4,6.1,3.5c3.8,2.4,7.6,4.7,11.3,6.9
			c0.1,0.1,0.3,0.4,0.4,0.6h0.4c0.1,0.1,0.3,0.3,0.4,0.3c0.3,0.3,0.6,0.6,0.8,0.6C889,65,907.1,77.5,915,83.5
			C910.2,79.2,906.1,74.1,901.5,70z"/>
		<path class="st0" d="M645,580.5v47.1c2,0.7,10.1,0.7,11.7,0v-47.1C652.8,580.1,648.9,580.1,645,580.5z"/>
		<polygon class="st0" points="744.4,587.1 744.4,587.1 744.4,587.1 		"/>
		<path class="st0" d="M576.3,612.7c1.7-0.9,3.3-1.6,4.2-3l0.1-0.1c0.2,0,0.3-0.1,0.3-0.3l0.1-0.1c1.6-1.4,2.8-3.3,3.4-5.4
			c0.2-0.2,0.3-0.4,0.3-0.7V603c0.1-0.3,0.2-0.6,0.2-0.8c0.4-0.8,0.6-1.8,0.4-2.7v-3c0.1-3.4-1.1-6.6-3.2-9.2
			c-2.6-3.2-6.3-5.4-10.3-6.1h-0.4c-1.8-0.6-3.7-0.9-5.6-0.9c-6.6,0-13.3-0.1-19.9-0.1c-1.8,0.1-1.1,1.5-1.1,2.5
			c-0.2,9.5-0.2,19-0.2,28.4c0,5,0,9.9,0.2,14.8c-0.1,0.3-0.2,0.7-0.2,1c0,0.3,0.1,0.6,0.3,0.8c1.8,0.9,9.6,1.1,11.2-0.6v-12
			c4.5,0,9.5-1.1,11.9,3.5c0.1,0.3,0.3,0.6,0.6,0.8c0.6,1,1.1,1.8,1.7,2.8c2.4,3.1,3.2,5.5,7.1,5.7c1.7,0,8.9,1.1,8.8-1.3
			C582.7,622.3,578.6,617.8,576.3,612.7z M569.2,604.9c-0.1,0.1-0.3,0.2-0.4,0.1c-0.9,0.3-1.8,0.4-2.7,0.4H562
			c-1.2-0.1-2.4-0.1-3.5,0c-0.7,0-1.6-0.1-2.6-0.1c0-2.1-1-15,0.9-15.4c1.9,0.1,3.8,0.1,5.7,0c1.7,0.1,3.5,0.1,5.4,0.3
			c0.1,0.2,0.4,0.3,0.6,0.2c0.1,0.1,0.1,0.1,0.3,0.1c0.1,0.2,0.3,0.3,0.6,0.3c0.1,0,0.3,0.1,0.4,0.1
			C575,594.9,575.3,601.4,569.2,604.9z"/>
		<path class="st0" d="M155.2,595.5c-6.9-18.7-30.5-15.6-46.2-14.7v46.9c0.1,0.1,0.1,0.3,0.3,0.3c0.4,0.3,1,0.5,1.6,0.4
			c6.1,1,12.4,1.1,18.5,0.1c0.8,0,1.6-0.1,2.4-0.3c1-0.1,1.9-0.3,2.8-0.6C150.8,627.4,160.5,610.3,155.2,595.5z M120.4,618.4
			c-0.1-9.6,0.2-18.8-0.3-28.4c6.4,0.6,13.6-1.1,19.2,2.7c3.8,2.7,5.6,7.2,5.6,11.9C144.8,618.8,130.8,618.5,120.4,618.4z"/>
		<path class="st0" d="M100.8,618.7c-0.3,3.1,0.4,6.1-0.4,8.9c-0.1,0.6-0.6,0.6-1,0.4h-1.7c-1.1,0.2-2.2,0.3-3.3,0.3
			c-9.6,0.9-19.2,0.9-28.8,0c-0.1-0.3-0.3-0.3-0.6-0.3c-0.3,0-0.7-0.1-0.8-0.4c-0.3-1-0.4-2-0.3-3c0-14-0.1-28.1-0.1-42.1
			c0-1.8,0.1-1.8,2-1.8c10.6-0.1,21.2-0.1,31.8-0.1c1.8,0,2,0.1,2,2v5.1c0,1.8-0.2,2-2,2c-6.8,0-13.6-0.2-20.4-0.2
			c-0.7-0.1-1.4,0-2,0.3c-0.3,3.1,0,6.4-0.1,9.6h21.6v8.9H75.3c-0.3,3.5-0.1,6.9-0.1,10.5L100.8,618.7z"/>
		<path class="st0" d="M175.3,581c-0.3-1.6-6-0.8-7.3-0.8c-2.4,0-3.3-0.3-4.2,1.8c-1,2.4,0,7.4,0,10.1c0,3.6,0,7.1,0,10.7
			c0,7.2-0.6,14.8,0.1,22c0.3,3.6,1.1,3.3,4.8,3.3c1.2,0,6.3,0.8,6.6-0.8c0-8.2-0.1-16.3-0.1-24.5
			C175.3,595.5,175.3,588.3,175.3,581z"/>
		<path class="st0" d="M53.1,583.1c0.1-0.8,0-1.7-0.4-2.4c-2.1-0.1-6.7-0.8-8.6,0.3c-1.7,1-2.5,3.7-3.7,5.3c0,0.1,0,0.3-0.2,0.3
			c-0.7,1.4-1.5,2.7-2.4,3.9c0,0.1,0,0.3-0.1,0.4c0,0.2-0.1,0.3-0.3,0.4c0,0.3-0.2,0.6-0.5,0.8c0,0.2-0.1,0.5-0.3,0.5
			c0,0.1,0,0.3-0.1,0.3c0,0.2-0.1,0.4-0.3,0.4c0,0.1,0,0.3-0.2,0.4c-0.2,0.7-0.6,1.3-1.1,1.8c-1.1,2.3-2.4,4.4-3.8,6.5
			c0,0.1,0,0.3-0.1,0.3c0,0.3-0.1,0.4-0.3,0.4c-0.3,0.8-0.7,1.5-1.3,2.1l-0.2,0.4c-0.8,1.3-1.5,2.6-2.1,4c-0.9-0.2-1.2-0.8-1.6-1.5
			c-5.1-8.6-10.2-17.2-15.3-25.7c-0.6-1-1.7-1.6-2.8-1.5c-2.5,0-4.9,0.2-7.4-0.1v47c2.8,0.1,5.7,0.1,8.6,0.2c0.6,0,1.1,0,1.6-0.3
			c0.4-0.2,0.6-0.4,0.4-0.9V626c0.6-3.9,0.1-8.2,0.1-12.1c0-2.7,1.3-9-0.4-11.1c0-0.4,0.1-0.9,0.1-1.5c3.4,3.2,5.6,8.2,8,12.2
			c1.7,2.8,3.8,8.9,7.5,9.5c4.2,0.7,6.3-5.5,7.9-8.2c2.8-4.7,5.6-9.5,8.4-14.2l0.3,0.1v26.9c1.9,0,11,1.8,10.6-1.7
			c0.6-7,0.1-14.1,0.1-21.1S54.2,590,53.1,583.1z"/>
		<path class="st0" d="M479.5,620.5v-0.1c-0.1,0-0.3-0.1-0.3-0.3c0-0.1-0.1-0.3-0.1-0.4c-0.3-0.1-0.4-0.3-0.4-0.6
			c-0.2,0-0.3-0.1-0.3-0.3c-0.1-0.1-0.2-0.3-0.1-0.4c-1.5-1.7-2.8-3.4-4-5.2c0.9-0.8,2-1.5,3.1-2c0.1-0.3,0.4-0.5,0.7-0.6
			c0.7-0.9,1.4-1.5,2.1-2.3c0-0.1,0-0.3,0.1-0.3c1.3-1.7,2.2-3.6,2.8-5.7c0.1-3.1,0.1-6.2,0-9.3c-2.1-6.6-6.8-10.5-13.4-12
			c-0.4,0-0.7-0.1-1-0.3c-0.2,0-0.5-0.1-0.7-0.1c-0.8,0.1-1.6-0.1-2.3-0.4h-21.6c-0.6,0.3-1.1,0-1.6,0.6v47.1
			c1.8,0.8,9.9,1.4,11.2-0.6c1.8-3.1-1.4-8.8,0.4-12c2.3,0,6.8-0.9,9,0.3c2.3,1.1,3.7,5.2,5.2,7.4c2.4,3.4,3.5,5.2,7.9,5.2
			c1.7,0.1,6.8,1.1,7.8-0.8C482.9,624.9,480.8,622.9,479.5,620.5z M453.9,605.5L453.9,605.5c0-5.2-0.1-10.2,0.1-15.6
			c6.6,0.6,17.1-1.8,17.2,7.8C471.4,607.3,460.7,605.5,453.9,605.5z"/>
		<path class="st0" d="M409.7,580.5c-3.9-0.3-7.7-0.3-11.6-0.1v18.2h-20.4v-16.6v-1.2l-1.7-0.5h-9.3c-2,1.2-0.9,6.5-0.9,8.5v12.8
			c0,8.5,0.2,17.1-0.1,25.7c0.5,1.7,10.8,1.2,11.9,0.3c0.1-1.3,0.1-2.5,0-3.8v-14.9h20.5v18.7c0.5,0.4,1.1,0.6,1.8,0.5
			c2.6,0,5.2,0,7.9,0c2.2,0,2.2,0,2.2-2.3c0-14.3,0-28.6,0-42.9C410.2,582.1,410.1,581.2,409.7,580.5z"/>
		<path class="st0" d="M420.4,580.3v47.6h11.7v-47.4C428.2,580.2,424.3,580.1,420.4,580.3z"/>
		<polygon class="st0" points="183,602.9 183,602.9 183,602.9 		"/>
		<path class="st0" d="M307.1,604.1c-5.2,0.2-10.5,0.2-15.8,0c-1.3,0.1-2.8-0.2-3,1.8c0.1,0.7,0.1,1.4,0,2.1
			c0.1,3.8-0.5,4.5,2.6,5.5c4.5,1.4,11.9,0.1,16.6,0.1l0.2-0.1h0.2l0.5-0.4l0,0c0-0.3,0.1-0.7,0.4-0.9c0-2.1,0-4.2,0-6.4
			C308.9,604.9,308.1,604.1,307.1,604.1C307.1,604.1,307.1,604.1,307.1,604.1z"/>
		<path class="st0" d="M762.1,626.8c-0.1-0.1-0.2-0.3-0.1-0.4c-0.6-0.7-1-1.6-1.3-2.5c-0.1-0.1-0.1-0.2-0.1-0.4c0,0,0,0,0.1-0.1
			c-0.3-0.1-0.4-0.1-0.3-0.4c-0.1-0.1-0.2-0.3-0.1-0.4c-0.5-0.8-1-1.6-1.3-2.5c-0.1-0.1-0.1-0.2-0.1-0.4l0.1-0.1
			c-0.9-1.3-1.6-2.8-2.1-4.4c-0.1,0-0.1-0.1-0.1-0.3c-1.1-1.8-1.9-3.7-2.6-5.7c-0.7-1.2-1.3-2.5-1.7-3.8v-0.1
			c-0.5-0.7-0.9-1.5-1.1-2.4c-0.1-0.1-0.2-0.3-0.1-0.4c-0.1,0-0.3-0.3-0.3-0.4c0-0.1,0-0.3-0.1-0.4c-0.5-0.8-0.9-1.7-1.1-2.7
			c-0.1,0-0.1-0.1-0.1-0.3c-0.2-0.1-0.3-0.3-0.3-0.6c-0.1,0-0.1-0.1-0.1-0.3c-0.2-0.1-0.3-0.3-0.3-0.6c0-0.1,0-0.3-0.1-0.4
			c-1.2-2.2-2.2-4.4-3-6.8h-0.3c0-1.1-1-1.8-1-3c-0.3,0-0.3-0.3-0.3-0.4c-0.1-0.1-0.2-0.3-0.1-0.4c-0.6-1.3-1.4-2.5-2-3.8
			c-0.6-1.6-1.4-2.4-3.1-2.3c-5.7,0.1-8.3-1-10.9,4.4c-2.1,4.4-4,9-5.9,13.6c-4,9.2-8.1,18.2-12.2,27.4c-0.3,0.9-0.4,1.8-0.1,2.7
			c2.8,0,9.6,1.3,11.7-1.4c0.9-3,2.1-5.8,3.4-8.6c0.1-0.2,0.3-0.3,0.6-0.3h0.1l0.1-0.1c0.2,0,0.3,0,0.4,0.1c1.1,0.2,2.2,0.2,3.2,0
			c2,0.4,4.1,0,6.1,0.4c1.3-0.2,2.5-0.2,3.8-0.1c1.1-0.1,2.3-0.1,3.4,0h0.4c0.5-0.1,1-0.1,1.5,0c0.3-0.1,0.4-0.1,0.6-0.3h0.3
			c0,0.2,0.1,0.3,0.3,0.3h0.3c0.1,0.1,0.2,0.3,0.1,0.4c0.7,1.3,1.3,2.8,1.7,4.2v0.1c0.1,0.1,0.3,0.1,0.3,0.4v0.4
			c2.6,2.6,1.3,4,5.2,4.2c1.3,0.1,8.5,0.8,8.8-0.7C761.9,627.3,761.9,627.1,762.1,626.8z M741.9,608.8c-2.8,0.3-5.8,0-8.8,0.2h-3.5
			c-0.7,0-0.4-0.4-0.6-0.9c0.1-0.1,0.2-0.3,0.1-0.4c2.1-5,4.2-9.8,6.4-14.7c0.8,0.9,0.8,2.3,1.7,3.2c0,0.1,0,0.1,0.1,0.3
			c-0.1,0.3,0,0.6,0.2,0.7c0,0,0,0,0,0c0,0.3,0,0.6,0.1,0.9c0.1,0.2,0.2,0.4,0.3,0.6v0.4c0.3,0.1,0.3,0.3,0.3,0.4
			c0,0.1,0.1,0.3,0.1,0.4c0.4,0.3,0.6,0.8,0.6,1.3c0.1,0.1,0.3,0.3,0.1,0.6c0.2,0,0.2,0.3,0.2,0.4c0.4,0.2,0.6,0.7,0.6,1.1
			c0.2,0.1,0.3,0.4,0.3,0.6v0.4c0.4,0.1,0.5,0.5,0.4,0.9c0.1,0,0.1,0.1,0.1,0.3c0.2,0.1,0.2,0.4,0.1,0.6c0.1,0.1,0.2,0.3,0.1,0.4
			c0.1,0.1,0.3,0.1,0.3,0.4c0.1,0.1,0.2,0.3,0.1,0.4c0.1,0,0.4,0.1,0.3,0.4c0.1,0.1,0.2,0.3,0.1,0.4
			C742.1,608.3,742.7,608.6,741.9,608.8z"/>
		<path class="st0" d="M739.8,603.2L739.8,603.2L739.8,603.2z"/>
		<path class="st0" d="M739,601.1L739,601.1L739,601.1z"/>
		<polygon class="st0" points="754.2,609.3 754.2,609.3 754.2,609.3 		"/>
		<path class="st0" d="M762.2,627.3L762.2,627.3z"/>
		<path class="st0" d="M747.9,622.9L747.9,622.9L747.9,622.9z"/>
		<polygon class="st0" points="752.5,605.4 752.5,605.4 752.5,605.5 		"/>
		<path class="st0" d="M745.6,590.1L745.6,590.1L745.6,590.1z"/>
		<path class="st0" d="M844,629.1v0.2h-37.5v-1.8l0,0c0-14.3,0-28.7,0-43c0-0.8,0-1.6-0.1-2.3c0.2-0.8-0.2-1.8,1-2.1l34.3,0
			c0.8,0.2,1.3,0.9,1.3,1.7c-0.1,2.3-0.1,4.6,0,6.8c-0.3,0.8-0.7,1.4-1.7,1.3h-22.9v7.2c0,0.6-0.3,1.2,0.3,1.8l2.6-0.1l17,0.1l2,0.4
			v9.3h-21.9c-0.1,2.6-0.1,5.2,0,7.8c-0.2,0.5-0.2,1.1,0,1.6c0.5,0.3,1.1,0.3,1.6,0.1c5,0,10,0.1,15,0.1c2.2,0,4.3,0,6.5,0
			c0.9,0.4,2.5-0.1,2.4,1.7C843.9,622.3,843.9,626.7,844,629.1z"/>
		<path class="st0" d="M801.5,619.9c0-1-0.3-1.5-1.5-1.5c-0.9,0.2-1.8,0.1-2.7-0.2c-5.9,0.1-11.8,0.1-17.7,0c-0.4,0.3-0.9,0.3-1.3,0
			c0-0.4,0-0.9,0.1-1.3c0-12,0-24,0-35.9c-0.1-0.1-0.2-0.1-0.3-0.1c-0.1-0.5-0.6-0.5-1-0.8h-8.5c-2.5,0.4-2.6,0.5-2.5,3.1
			c0.1,0.8,0.1,1.7-0.1,2.5c0.1,0.3,0.1,0.6,0,0.9c0.2,11.8,0.5,23.7,0,35.5c0.2,0.6,0.2,1.2,0,1.7c0.1,0.4,0.1,0.9,0,1.3
			c0.2,0.5,0.2,1.1,0.1,1.6c1.2,2.6,34.8,2.6,35.3,0.5C801.4,624.8,801.4,622.4,801.5,619.9z"/>
		<polygon class="st0" points="558.5,111.5 558.5,111.6 558.5,111.6 		"/>
		<polygon class="st0" points="559,111.1 559,111.1 559,111.1 		"/>
		<polygon class="st0" points="559.4,110.7 559.4,110.7 559.4,110.7 		"/>
		<path class="st0" d="M437.4,534.5L437.4,534.5L437.4,534.5z"/>
		<path class="st0" d="M444.4,553.6c1.4-0.9,3-1.2,4.4-2.2c4.1-2,7.7-4.9,10.6-8.4l0,0l2-3l0.2-0.4c0-0.2,0.1-0.3,0.3-0.4
			s0.1-0.3,0.2-0.4s0.1-0.3,0.3-0.4l0.1-0.5c0-0.2,0.1-0.3,0.3-0.4s0.1-0.3,0.1-0.5s0.1-0.4,0.3-0.5c0-0.1,0.1-0.3,0.1-0.4
			c-0.1-0.2,0-0.4,0.2-0.5c0.2-1,0.5-2,0.9-3c-0.1-0.1-0.1-0.2,0-0.3c0,0,0,0,0,0c0.2-1.8,0.4-3.6,0.8-5.4c-0.2-0.5-0.2-1.2,0-1.7
			c-0.3-1.2-0.5-2.4-0.4-3.6c-3.2-12.2-10.5-18.4-22.3-22.4c-10.3-3.4-24.4-3.4-32.9-10.7c0-0.2-0.1-0.3-0.3-0.3c0,0,0,0-0.1,0
			c-2.5-3.5-2.1-8.3,0.9-11.3c3.5-3.5,8-3.2,12.3-4.4h7c1.2,0.3,2.4,0.5,3.5,0.4h0.4l7.6,1.8l0,0c4.2,1.5,8.3,3.4,12.3,5.6
			c2.3-2.8,3.3-7,4.6-10.3c1.4-3.6,4-6.4,0.9-9c-5.4-4.7-17.5-7.2-24.6-7.2c-0.4-0.2-0.8-0.2-1.1,0c-1.7-0.4-3.5-0.5-5.2-0.3
			c-1.7-0.1-3.4-0.1-5.1,0c-1.5-0.2-3-0.1-4.4,0.3l-0.1-0.1l-0.1,0.1c-10.6,0.2-23.3,5.7-29.4,14.8c-7.3,11-6.1,25.6,3,35.3
			c2.8,2.1,5.8,3.9,8.9,5.5c0.3-0.1,0.7,0.1,0.9,0.4l6.8,2.5l0.8,0.2l12.8,3.3c0.6-0.1,1.2,0,1.7,0.4c0.6,0.1,1.2-0.1,1.7,0.4
			l1.2,0.2c0.8,0.1,1.5,0.3,2.2,0.7c1.9,0.3,3.7,0.9,5.5,1.8c1.6,0.5,3,1.3,4.2,2.5c0.3,0,0.5,0.2,0.5,0.4c1.7,1.1,2.2,2.9,2.6,4.7
			c-0.2,1.5,0.1,3-0.8,4.3c0,0.1-0.1,0.3-0.1,0.4c0,0.2-0.1,0.4-0.3,0.5c0,0,0,0,0,0c-0.7,1.2-1.7,2.1-2.9,2.6
			c-0.1,0.2-0.3,0.4-0.5,0.3l0,0c-0.1,0.2-0.2,0.3-0.4,0.3l-0.4,0.1c-0.6,0.5-1.3,0.8-2.1,0.9c-0.1,0.2-0.3,0.3-0.5,0.2l-0.8,0.2
			c-1.3,0.6-2.8,0.9-4.3,0.7c-3,0.3-6,0.3-8.9,0c-2.5,0.2-4.9,0-7.3-0.8l0,0c-1.8-0.2-3.5-0.6-5.2-1.3l-0.8-0.2
			c-0.2,0.1-0.5,0-0.6-0.3l-0.7-0.2c-0.2,0.1-0.5,0-0.6-0.3l-0.6-0.2c-4.8-1.2-9.5-4.1-13.5-6.9c-0.7,0.6-0.7,1.5-1.4,2
			c0,0.1-0.1,0.3-0.1,0.4c0.1,0.2-0.1,0.4-0.3,0.5c0.1,0.1,0,0.3-0.1,0.4c0.1,0.2-0.1,0.4-0.3,0.5c0,0.5-0.2,0.9-0.5,1.2l-0.1,0.5
			c0,0.2-0.1,0.4-0.3,0.5c0.1,0.1,0,0.3-0.1,0.4c0.1,0.2-0.1,0.4-0.3,0.5c-0.1,0.8-0.4,1.5-0.9,2.1c0,0.2-0.1,0.3-0.1,0.4
			s-0.1,0.3-0.3,0.4l-0.1,0.4c0.1,0.2-0.1,0.4-0.3,0.5c0.1,0.1,0,0.3-0.1,0.4c0.1,0.2-0.1,0.4-0.3,0.5c-0.2,1.1-0.7,2.1-1.4,2.9
			l-0.1,0.5c0,0.2-0.1,0.3-0.3,0.4l-0.1,0.4c-0.1,0.5-0.3,1-0.7,1.3c0,0.1,0,0.3,0,0.4c1.3,3.2,7.9,5.3,10.7,6.5
			c4,1.7,8.2,3,12.5,3.9c8.8,1.7,17.7,2.2,26.6,1.5c0.2-0.1,0.4-0.2,0.6-0.1c0.3-0.3,0.7-0.4,1.1-0.3l1.2-0.1
			c0.7-0.4,1.5-0.5,2.2-0.4l0.1-0.1h0.1c0.3-0.3,0.6-0.4,1-0.3l0.8-0.1c0.2-0.3,0.6-0.4,0.9-0.3l0.7-0.1c0.1-0.2,0.3-0.3,0.5-0.2
			l0.4-0.1c0.7-0.4,1.4-0.6,2.1-0.8L444.4,553.6z"/>
		<path class="st0" d="M384.6,538.8L384.6,538.8L384.6,538.8z"/>
		<path class="st0" d="M433.9,536.2L433.9,536.2L433.9,536.2z"/>
		<path class="st0" d="M386.7,534.1L386.7,534.1L386.7,534.1z"/>
		<path class="st0" d="M388,531.1L388,531.1L388,531.1z"/>
		<path class="st0" d="M440.3,531.9L440.3,531.9L440.3,531.9z"/>
		<path class="st0" d="M718.1,555.4c12.2-0.7,24.5,0,36.7,0s24.3-0.2,36.5,0.1c0.4-0.1,0.9-0.1,1.3,0c0.8-0.3,2.2,0.4,2.2-1.3
			c0-0.1-0.1-0.3-0.1-0.4c0.1-5.1,0.1-10.3,0-15.4c0.1-0.8,0.1-1.7-0.1-2.5l-1.1-0.1c-2.4,0.1-4.8,0.1-7.2-0.1
			c-0.4,0.1-0.9,0.1-1.3,0c-4.2,0-8.3,0.1-12.5,0.1h-19.8c-2-0.2-4-0.2-6,0h-4.7c-1.5,0.1-1-1-0.9-1.7c0-2.6-0.1-5.3-0.1-7.9
			c0-4.1-0.1-8.1,0.2-12.2l43.3-0.1c0.6,0,1.3,0.3,1.8-0.3c1.6-1.1,1.2-17.1-0.2-18.5H776c-0.5-0.3-1.1-0.3-1.6-0.2
			c-11.1-0.1-22.2-0.3-33.3-0.1c-1-0.8-1.3-19.9-0.2-20.9h3.6c7.8,0,15.7-0.1,23.5-0.1c6.5,0,13,0,19.5,0.1c1.6-0.3,3.3,0.2,5-0.3
			c0.1-1.3,0.1-2.5,0.2-3.6c-0.2-3.6,0-7.1,0.1-10.7c-0.3-1.4,0.3-2.8-0.4-4.1c-0.6-0.2-1.3-0.3-2-0.2h-68.4c-0.6,0-1.1,0-1.7,0.1
			h-1.3c-0.7-0.2-1.5-0.1-2.1,0.4c0,17.1,0,34.1,0,51.2c0,4.5,0,9,0,13.4c0,0.1,0,0.2,0,0.3s0,0.3,0,0.4c0,4.2,0,8.4,0,12.6
			C716.9,536.5,715,554.1,718.1,555.4z"/>
		<path class="st0" d="M117.8,554.1L117.8,554.1c0.2,0,0.4,0.2,0.4,0.4l0,0c1,0.7,2.2,0.4,3.3,0.5c0.8,0,1.7,0.1,2.5,0.3
			c4.2-0.2,8.4-0.1,12.5,0c0.7-0.1,1.3-0.3,1.3-1.2s0-1.6,0-2.3c0-31.5,0-63,0-94.5c0.1-0.8,0.1-1.5-0.2-2.2h-22.9
			c-0.1,20-0.1,39.8,0,60c-4.5-4.9-8.6-10.2-12.8-15.4s-8.1-11.3-13-15.7l-0.3-0.4c0-0.2-0.1-0.3-0.3-0.4l0,0c0-0.2-0.2-0.4-0.4-0.5
			c-0.3-0.6-0.7-1.2-1.3-1.6v0c0-0.2-0.1-0.4-0.4-0.4c0,0,0,0,0,0l0,0c-0.4-0.8-1-1.5-1.7-2.1l0,0c-0.4-0.8-1-1.5-1.7-2.1l0,0
			c0-0.2-0.2-0.4-0.4-0.4l0,0c-0.4-0.8-1-1.5-1.7-2.1l0,0c-0.3-0.6-0.7-1.1-1.2-1.5c0-0.1-0.1-0.3-0.2-0.3c0,0,0,0,0,0
			c0-0.2-0.1-0.3-0.3-0.3l0,0c0-0.2-0.1-0.4-0.4-0.4c0,0,0,0,0,0l0,0c0-0.2-0.2-0.4-0.4-0.5c0-0.2-0.2-0.4-0.4-0.5
			c0-0.2-0.2-0.4-0.4-0.5c0-0.1-0.1-0.3-0.2-0.3c0,0,0,0,0,0c0-0.2-0.1-0.3-0.3-0.3l0,0c0-0.2-0.2-0.4-0.4-0.4l0,0
			c0-0.2-0.2-0.4-0.4-0.5c0-0.2-0.2-0.4-0.4-0.5c-0.1-0.3-0.3-0.6-0.6-0.7c0-0.2-0.1-0.3-0.3-0.4l0,0c-0.3-0.6-0.7-1.1-1.2-1.5
			c0-0.1,0-0.2-0.1-0.3c0,0,0,0-0.1,0c0-0.2-0.1-0.3-0.3-0.4l0,0c0-0.2-0.2-0.4-0.4-0.5c-0.3-0.6-0.8-1.2-1.3-1.6v0
			c0-0.2-0.1-0.4-0.4-0.4c0,0,0,0,0,0l0,0c-0.2-0.5-0.6-1-1.1-1.4l-0.3-0.4c0-0.2-0.1-0.3-0.3-0.4l0,0c-0.4-0.8-1-1.5-1.7-2.1v0
			c0-0.2-0.2-0.4-0.4-0.4l0,0c0-0.2-0.2-0.4-0.4-0.5c-0.5-0.8-1-1.6-2.1-1.6c-5.7-0.1-11.3-0.1-17,0h-0.8c-0.8,0.4-0.4,1.1-0.4,1.7
			c-0.1,3.1-0.1,6.2-0.1,9.4c0.6,13.1,0.1,26.5,0.1,39.6c0,13.2,0.5,26.6-0.1,39.9v6c0.3,1-0.3,2.1,0.5,3c1.4,0.8,2.9,0,4.3,0.4
			c5.7-0.1,11.3-0.3,17,0c0.8-0.2,1.8,0,1.8-1.3c-0.6-18.3-0.6-36.9,0-55.2L70,498c0.2-0.7-0.1-1.4,0.3-2.2l2.2,2.4
			c0,0.1,0,0.2,0.2,0.2c0,0.2,0.1,0.3,0.3,0.4l0,0c0,0.2,0.2,0.4,0.4,0.5c0.1,0.4,0.4,0.7,0.7,0.9c0.1,0.3,0.3,0.6,0.7,0.8
			c0,0.2,0.1,0.3,0.3,0.4l0,0c0,0.2,0.2,0.4,0.4,0.4l0,0c0,0.2,0.2,0.4,0.4,0.5c0,0.2,0.2,0.4,0.4,0.5c0,0.1,0.1,0.3,0.2,0.3
			c0,0,0,0,0,0c0,0.2,0.1,0.3,0.3,0.3c0,0,0,0,0,0v0c0,0.2,0.1,0.4,0.4,0.5c0.1,0.4,0.4,0.8,0.8,1c0,0.1,0,0.3,0.2,0.3c0,0,0,0,0,0
			c0,0.2,0.1,0.3,0.3,0.3c0,0,0,0,0,0v0.1c0,0.2,0.2,0.4,0.4,0.4l0,0c0.4,0.8,1,1.5,1.7,2.1l0,0c0,0.2,0.2,0.4,0.4,0.4l0,0
			c0,0.2,0.2,0.4,0.4,0.5c0.1,0.4,0.4,0.8,0.8,1c0,0.1,0,0.3,0.2,0.3c0,0,0,0,0,0c0,0.2,0.1,0.3,0.3,0.3v0c0,0.2,0.1,0.4,0.4,0.4
			c0,0,0,0,0,0l0,0c0.4,0.8,1,1.5,1.7,2.1l0,0c0,0.2,0.2,0.4,0.4,0.4l0,0c2.2,3.2,4.8,6.1,7.3,9.1c5.2,6.3,10.3,12.8,15.7,19
			c2.6,3.7,5.7,7,8.4,10.6C116.9,552.8,117.4,553.5,117.8,554.1z"/>
		<polygon class="st0" points="117.8,554.1 117.8,554.1 117.8,554.1 		"/>
		<path class="st0" d="M650,547.5c-1.7-2.4-3.4-4.9-5.2-7.5c-3.8-5.5-7.8-11-11.5-16.8c1.7-2,5.2-3,7.3-4.7c2.2-1.6,4.1-3.5,5.8-5.7
			c4.1-5.4,5.5-11.5,6.9-18c0-1.1,0.1-2.4,0.1-3.7v-0.9c0-1-0.1-1.8-0.1-2.8c-0.7-2.8-1.1-5.7-2-8.5c-1.6-4.5-4.1-8.6-7.4-12.1
			c-0.3,0-0.3-0.3-0.4-0.4c-0.2,0-0.4-0.2-0.4-0.4c-0.3-0.3-0.6-0.4-0.9-0.7c-8.3-7.3-18.4-10-29.3-10.3
			c-15.3-0.1-30.4-0.1-45.7-0.1c-0.3,0-0.7,0-0.8,0.4v1.3c1,31.7-0.9,63.3,0.1,95c-0.2,1.2-0.1,2.5,0.1,3.7h16.5
			c5.4,0,7.1,0.9,7.1-5.1v-20.1c0.1-0.9-0.3-1.8,0.3-2.7c0.8,0.1,1.8,0.1,2.7,0.3c4.1-0.3,8.2-0.3,12.3-0.1c0-0.1,0.1-0.3,0.3-0.3
			c0.9,0.2,1.9,0.1,2.8-0.1c4.2,0.6,8.1,9.3,10.3,12.7c2.8,4.1,5.5,9.8,9,13.3c3.2,3.1,7.2,2.3,11.5,2.3c2.7,0,13.3,1.5,15-0.4
			C655.2,553.2,650.8,549,650,547.5z M590.6,508v-33.5c12.9,0.7,36.5-4.2,38.5,14.6C631.3,511.8,605.2,508,590.6,508z"/>
		<path class="st0" d="M809.6,533.3L809.6,533.3L809.6,533.3z"/>
		<path class="st0" d="M837.1,537L837.1,537z"/>
		<path class="st0" d="M812.1,527.6L812.1,527.6L812.1,527.6z"/>
		<path class="st0" d="M821.8,532.4L821.8,532.4L821.8,532.4z"/>
		<polygon class="st0" points="829.9,535.3 829.9,535.3 829.9,535.3 		"/>
		<path class="st0" d="M806.6,540.1L806.6,540.1z"/>
		<path class="st0" d="M857.1,556.2c0.3-0.2,0.7-0.4,1.2-0.4c2.6-0.3,5.1-1,7.5-2c5.8-1.7,11-5,15-9.5l1.1-1.2l0,0
			c1.9-2.7,3.4-5.6,4.5-8.6l0.2-0.8c-0.1-0.3,0-0.7,0.3-0.9c0-0.3,0.1-0.5,0.1-0.8c-0.1-0.5,0-1,0.3-1.4c0-0.2,0-0.5,0.1-0.8V522
			c-0.5-1.6-0.6-3.3-1.2-4.9c-2.7-7.9-8.3-12.7-15.9-15.5l-0.4-0.1c-1.5-0.9-3.1-1.5-4.8-1.9c-5.9-1.9-11.9-3.4-18.1-4.5
			c-5.5-3.4-15.6-2-17.2-10.5c-1.8-9.3,8.8-10.9,15-12.5h7.2c2.1,0.3,4.2,0.6,6.2,1c4.9,1.1,9.7,2.7,14.2,4.8l0.2,0.1h0.2
			c0.1,0.2,0.3,0.4,0.5,0.3l0.1,0.1h0.2c0.7,0.7,1.5,1.2,2.4,1.4l7-17.3c-0.2-3.5-15.5-6.9-18.2-7.3c-0.2-0.2-0.5-0.3-0.8-0.2
			l-0.5,0c-1.9-0.6-3.9-0.9-6-0.9c-0.2-0.2-0.5-0.2-0.7-0.1c-1.4-0.4-2.9-0.5-4.4-0.4c-0.3-0.1-0.7-0.1-1.1,0
			c-1.6-0.5-3.2,0-4.8-0.3l-0.3,0.3c-0.5-0.2-1-0.1-1.5,0.1c-3.3-0.1-6.6,0.3-9.8,1.2l-1.2,0.2c-0.3-0.1-0.7,0-0.9,0.3l-0.8,0.1
			c-0.3-0.1-0.7,0-0.9,0.3l-0.8,0.1c-3.5,0.9-6.8,2.5-9.8,4.5l-0.4,0.2l0.2,0.6l-0.2-0.6c0-0.1,0-0.2,0.1-0.2
			c-0.3,0.2-0.5,0.5-0.9,0.5c-0.5,0.7-1.4,0.9-1.9,1.6c-0.1,0-0.2,0-0.2,0.2c-1.7,1.1-3.1,2.5-4.2,4.2l0,0c-0.2,0-0.4,0.1-0.3,0.4
			c-0.3,0.2-0.5,0.5-0.5,0.8c-0.2,0.1-0.4,0.3-0.4,0.5l0,0c-0.2,0.1-0.3,0.1-0.3,0.4l-0.2,0.4c-3.4,5-4.9,11.1-4.3,17.2
			c0,0.1,0,0.3,0,0.4c-0.1,1,0,2,0.2,3c0.8,4.2,2.6,8.2,5.3,11.6c1.7,1.7,3.6,3.3,5.5,4.7l5.5,3c0.5,0,0.9,0.2,1.3,0.5l3.4,1.1
			l0.6,0.1c1.3,0.8,2.8,0.8,4.1,1.6l0,0c1.3,0.1,2.5,0.5,3.7,1c0.5-0.1,0.9,0,1.3,0.3c3.1,0.5,6.1,1.2,9,2.2l0,0
			c0.8,0,1.7,0.1,2.5,0.5c3.4,1,6.9,1.8,9.9,3.8c0.1-0.1,0.3,0,0.3,0.1c0,0,0,0,0,0c2.8,1.3,4.6,4.1,4.6,7.2c0.1,0.3,0.1,0.6,0,0.9
			c0.1,0.2,0,0.5-0.3,0.6c0.1,0.1,0,0.2-0.1,0.2c0.1,0.4-0.1,0.7-0.4,0.9c0,0.1,0,0.2,0.1,0.4h-0.2c0.1,0.2-0.1,0.5-0.3,0.6
			c0.1,0.1,0,0.3-0.1,0.3c0,0,0,0,0,0c0,0.2-0.1,0.4-0.3,0.5l-0.2,0.4c0,0.2-0.1,0.3-0.3,0.3v0.1c0,0.2-0.1,0.4-0.3,0.4c0,0,0,0,0,0
			l0,0c-0.4,0.6-1,1-1.7,1.3c-0.2,0.3-0.5,0.5-0.8,0.5c-0.1,0.2-0.2,0.4-0.5,0.3c-0.1,0.1-0.2,0.2-0.3,0.1c-0.1,0.2-0.3,0.3-0.5,0.3
			l-0.4,0.1c-0.1,0.2-0.2,0.3-0.4,0.3l-0.8,0.2c-0.1,0.2-0.3,0.3-0.5,0.3l-0.8,0.2c-1.5,0.6-3.2,0.9-4.8,0.7c-3.1,0.2-6.2,0.2-9.4,0
			c-1.3,0.2-2.6,0.1-3.8-0.3c-1.3,0.1-2.6-0.2-3.8-0.8l-0.8-0.2c-0.3,0.1-0.7,0-0.9-0.3c-0.1,0.1-0.3,0-0.4-0.1
			c-0.5,0.1-1,0-1.3-0.4c-0.5,0.1-1,0-1.4-0.4l-0.7-0.2c-1.5-0.3-2.9-0.9-4.2-1.6l-0.4-0.1c-0.2,0.1-0.4-0.1-0.5-0.3
			c-0.1,0.1-0.3,0-0.4-0.1c-0.2,0.1-0.4,0-0.5-0.2c0,0,0,0,0,0c-1.3-0.3-2.4-0.9-3.5-1.8c-0.1,0.1-0.3,0-0.3-0.1c0,0,0,0,0,0
			c-0.2,0-0.4-0.1-0.5-0.3c-0.1,0.1-0.3,0-0.4-0.2c-0.2,0-0.4-0.1-0.4-0.3l-0.4-0.2c-1-0.5-2-1-2.9-1.7c-0.4-0.3-0.9-0.4-1.3-0.3
			c-0.3,1.4-0.9,2.6-1.8,3.8l-0.1,0.5c0,0.2-0.1,0.4-0.3,0.5l-0.1,0.4c0.1,0.2,0,0.4-0.2,0.5c0,0,0,0,0,0c-0.1,0.7-0.5,1.4-1,2
			l-0.1,0.5c0,0.2-0.1,0.4-0.3,0.5c0.1,0.1,0,0.3-0.1,0.4c0.1,0.2-0.1,0.5-0.3,0.5c0,0,0,0,0,0c0.1,0.1,0,0.2-0.1,0.3
			c0.1,0.3-0.1,0.5-0.3,0.6c-0.1,0.2-0.1,0.4-0.2,0.7c0,0.2-0.1,0.4-0.3,0.5c0.1,0.1,0,0.3-0.1,0.4c0.1,0.2-0.1,0.4-0.3,0.5
			c0,0,0,0,0,0c-0.4,3-2.6,3.7-0.8,6.2c1.6,2.2,6.1,3.5,8.4,4.8h0.2l0.2,0.1c0.2,0,0.4,0.1,0.5,0.3h0.2l0.2,0.1
			c0.3-0.1,0.5,0.1,0.6,0.3l0.7,0.2c0.2-0.1,0.4,0.1,0.5,0.3l0.8,0.2c12.3,4.1,25.4,5.4,38.3,3.8L857.1,556.2z"/>
		<polygon class="st0" points="505.8,194.1 505.8,194.1 505.8,194.1 		"/>
		<path class="st0" d="M449.1,406.6v2.6l0.1,1.3l2.1,0.1l0.4-0.1h0.9l0,0.1h3c16-0.1,32.1-0.5,48.1,0l1.7-0.1l3.4,0
			c0-1.7,0-3.4,0-5.1v-7.7c1-31.6,0.1-63.5,0.1-95.1s1-63.5-0.1-95.1v-5.1c0-3.4,0-6.8,0.1-10.3c-0.7-0.6-0.8,0.2-1.1,0.4
			c-0.6,0.5-1.2,1.1-1.9,1.7c0,0.2-0.2,0.4-0.4,0.5c-0.1,0.3-0.3,0.6-0.6,0.8c0,0.2-0.1,0.3-0.3,0.4l0,0c0,0.2-0.2,0.4-0.4,0.5
			c-0.2,0.5-0.5,1-1,1.3c0,0.2-0.1,0.3-0.3,0.4l0,0c0,0.2-0.2,0.4-0.4,0.5c-2.9,3.9-6,7.7-9,11.5c0,0.2-0.1,0.3-0.3,0.4l0,0
			c-1.3,2-2.7,3.8-4.2,5.6l0,0c0,0.2-0.1,0.4-0.4,0.5c-0.1,0.3-0.3,0.6-0.6,0.8c0,0.2-0.1,0.3-0.3,0.4l0,0c0,0.2-0.2,0.4-0.4,0.5
			c-0.1,0.3-0.3,0.6-0.5,0.8c-0.6,1.1-1.4,2.1-2.3,3.1c-0.1,0.1-0.2,0.2-0.3,0.4s-0.1,0.3-0.3,0.4l0,0c0,0.2-0.1,0.5-0.4,0.5
			c-0.1,0.3-0.3,0.6-0.6,0.8c0,0.2-0.1,0.3-0.3,0.4l0,0c0,0.2-0.2,0.4-0.4,0.5c-0.1,0.3-0.3,0.6-0.5,0.8c-2.1,3.1-4.3,6.2-6.6,9.1
			c0,0.1,0,0.3-0.2,0.3l0,0c0,0.2-0.1,0.3-0.3,0.4l0,0c0,0.2-0.1,0.5-0.4,0.5c-0.1,0.3-0.2,0.6-0.5,0.8c0,0.3-0.1,0.4-0.4,0.4
			c0,0.3-0.2,0.6-0.5,0.8c-0.2,0.6-0.6,1.1-1.1,1.4l0,0c-0.2,0.5-0.5,1-1,1.3c0,0.1,0,0.3-0.1,0.3c0,0,0,0,0,0
			c0,0.2-0.1,0.3-0.3,0.4l0,0c0,0.2-0.1,0.5-0.4,0.5c0,0.3-0.2,0.6-0.5,0.8c-0.7,1.3-1.5,2.4-2.5,3.5c0,0.3-0.2,0.6-0.5,0.8
			c-1.2,2.1-2.6,4.1-4.2,6.1c0,0.3-0.2,0.6-0.5,0.8c0,0.3-0.1,0.4-0.3,0.5c0,0.3-0.2,0.6-0.5,0.8c-0.5,1.1-1.2,2.1-2.1,2.9l0,0
			c0,0.2-0.1,0.4-0.4,0.5c0,0.3-0.2,0.6-0.5,0.8c0,0.2-0.1,0.5-0.4,0.5c0,0.3-0.2,0.6-0.5,0.8c-1.7,2.8-3.5,5.5-5.4,8.2
			c0,0.1,0,0.3-0.1,0.4c-1.7,2.4-2,5.1-2,8.1c0,42.3,0,84.6,0,126.9C449.2,405,449.2,405.8,449.1,406.6z"/>
		<path class="st0" d="M463.6,535.6L463.6,535.6L463.6,535.6z"/>
		<polygon class="st0" points="499.4,555 499.4,554.9 499.4,554.9 		"/>
		<path class="st0" d="M499,554.5L499,554.5L499,554.5z"/>
		<path class="st0" d="M553,474.5c0.5-0.3,1.1,0,1.6-0.5c0.2-0.7,0.2-1.3,0.1-2v-17c-0.2-0.1-0.4-0.1-0.5-0.1h-85
			c-0.5,0-1-0.2-1.3,0.4c0,0.8,0.1,1.5,0.1,2.3c0,4.8,0,9.6,0.1,14.4c-0.2,0.7-0.1,1.5,0.1,2.2c4.4,1.5,11.4,0.3,16,0.3h0.3
			c3.4,0.2,6.9,0.4,9.6-0.4c0.3-0.1,0.6-0.2,0.9-0.3c2,0,3.6,0.2,4,0.8l-0.1,8.6c0,7,0.1,13.9,0.1,20.8c0,7.7,0,15.5-0.1,23.2
			c0.1,8.3,0.1,16.5,0,24.8c0,0.8,0,1.7,0.1,2.5c0.1,0,0.2,0.1,0.4,0.1c0,0.1,0.1,0.2,0.1,0.3l0.9,0.4c6.6,0,13.3-0.1,19.9,0
			c0.6-0.1,1.1-0.1,1.7,0l0.2-0.1h0.2l0.5-0.4l0,0c0-0.1,0-0.3,0-0.4c0.1,0,0.2-0.1,0.3-0.1c0.1-2.7,0.1-5.4,0-8.1
			c0.8-22.6-0.3-45.4,0.2-68c0-1.3,0-2.5,0-3.8c0.7-0.1,1.4-0.1,2.1,0c1.7-0.2,3.4-0.2,5.1,0c5.5-0.2,11.1-0.1,16.6,0
			C549,474.3,551,474.3,553,474.5z"/>
		<polygon class="st0" points="247.1,540.8 247.1,540.8 247.1,540.8 		"/>
		<polygon class="st0" points="247.6,540.4 247.6,540.4 247.6,540.4 		"/>
		<polygon class="st0" points="248.9,539.1 248.8,539.1 248.8,539.1 		"/>
		<path class="st0" d="M249.3,538.7L249.3,538.7z"/>
		<polygon class="st0" points="248,540 248,540 248,540 		"/>
		<polygon class="st0" points="248.4,539.5 248.4,539.6 248.4,539.6 		"/>
		<polygon class="st0" points="251.8,535.7 251.8,535.7 251.8,535.7 		"/>
		<polygon class="st0" points="246.7,541.3 246.7,541.3 246.7,541.3 		"/>
		<polygon class="st0" points="246.3,541.7 246.3,541.7 246.3,541.7 		"/>
		<path class="st0" d="M261.6,501.2c-2-11.9-5.2-22.5-14-31.2c-8.9-8.7-20.8-13.9-33.2-14.6H214c-0.2-0.1-0.4-0.1-0.6,0
			c-1.6-0.4-3.3-0.5-5-0.3c-6.9-0.1-13.8-0.1-20.7-0.1h-1.7c-3.4,0-6.9,0-10.3,0c-4.1,0-8.2,0-12.4,0.1H163c-0.7-0.3-1.4-0.2-2,0.3
			c0,32.9,0.3,65.9-0.1,98.8c0.3,1.1,1.1,1.3,2.1,1.3h10.6c12.9-0.2,25.7,0,38.6,0l0.3-0.4c0.2,0.1,0.5,0.1,0.7,0h1.3
			c0.6,0,1-0.1,1.6-0.1c2-0.7,4.1-0.7,6.1-1.1c0.4,0,0.8,0,1.1-0.1c0.2-0.2,0.4-0.2,0.6-0.3h0.8c0.6-0.4,1.4-0.7,2.1-0.8
			c0.3,0,0.6,0,0.8-0.1c0-0.1,0.2-0.2,0.4-0.2c0,0,0,0,0.1,0c0.3-0.1,0.6-0.1,0.9-0.3c0.9-0.6,2-1,3.1-1.1v-0.1h0.1
			c0.1-0.3,0.4-0.3,0.7-0.3l0.1-0.1h0.1c1.3-0.6,2.7-1.3,4-2c0.1,0,0.3,0,0.4-0.1c2.3-1.6,4.5-3.1,6.8-4.7c0-0.1,0.1-0.3,0.4-0.3
			c0-0.2,0.1-0.2,0.3-0.2c0.3-0.6,0.8-1,1.4-1.3c0.4-0.4,0.8-0.8,1.3-1.3c0-0.2,0.1-0.4,0.3-0.4c0,0,0.1,0,0.1,0
			c0-0.2,0.1-0.4,0.3-0.4c0,0,0.1,0,0.1,0c0.3-0.3,0.6-0.6,0.8-0.8c0.5-1,1.3-1.8,2.1-2.5c0-0.2,0.1-0.4,0.4-0.4h0.1
			c0-0.2,0.1-0.4,0.3-0.6c0.1-0.3,0.3-0.5,0.6-0.7c0-0.3,0.1-0.4,0.4-0.6c0-0.3,0.3-0.6,0.4-0.7s0.1-0.4,0.4-0.6
			c0-0.3,0.2-0.5,0.4-0.7c0-0.3,0.1-0.6,0.4-0.6c0-0.1,0-0.3,0.1-0.4c0-0.1,0.1-0.3,0.3-0.4c0.6-1.5,1.3-2.9,2.1-4.2
			c0,0,0-0.1,0-0.1c0-0.1,0.1-0.2,0.1-0.3c0-0.1,0-0.4,0.3-0.4c0-0.1,0-0.3,0.1-0.4c0,0,0,0,0,0c-0.1-0.3,0-0.4,0.3-0.6
			c1.1-3.6,2-7.3,2.7-11c0.3-1.1,0.4-2.2,0.3-3.4l0.1-0.1v-0.1c0.3-2.1,0.3-4.2,0.1-6.4C261.6,502.7,261.7,501.9,261.6,501.2z
			 M237.4,506.2c0,1.7-0.2,3.3-0.4,5l0,0c-0.7,4-1.8,7.9-4.4,11.3c-0.5,1-1.1,1.9-1.8,2.7c-0.1,0-0.3,0.1-0.4,0.3s0,0.3-0.3,0.4
			c0,0.2-0.1,0.4-0.3,0.4c0,0-0.1,0-0.1,0c0,0.2-0.1,0.4-0.3,0.4c0,0-0.1,0-0.1,0c0,0.2-0.1,0.4-0.3,0.4c0,0-0.1,0-0.1,0
			c0,0.2-0.1,0.4-0.4,0.4h-0.1c0,0.3-0.1,0.3-0.3,0.3c-0.2,0.3-0.5,0.6-0.8,0.7c-0.1,0.3-0.3,0.3-0.4,0.3c-0.2,0.3-0.3,0.4-0.4,0.4
			c-0.2,0.2-0.5,0.4-0.8,0.6c-0.2,0.1-0.3,0.3-0.4,0.3c-0.2,0.3-0.6,0.5-1,0.6c-0.9,0.9-2,1.4-3.2,1.7c-0.1,0.3-0.3,0.3-0.6,0.3
			c0,0.1-0.1,0.1-0.3,0.1c-0.1,0.2-0.3,0.3-0.6,0.3c-0.1,0-0.4,0.1-0.6,0.1c-0.1,0.3-0.4,0.3-0.7,0.3c-0.2,0-0.3,0-0.4,0.2
			c-0.2,0.3-0.5,0.4-0.9,0.3h-0.4c-0.6,0.5-1.3,0.7-2,0.6h-0.1c-0.3,0.4-0.4,0.4-0.8,0.3c-0.2,0.1-0.4,0.2-0.6,0.1
			c-0.1,0.3-0.4,0.3-0.7,0.3c-0.4,0.1-0.9,0.1-1.3,0c-2,0.1-4,0.1-5.9,0.1c-5.2,0-10.5,0-15.7-0.1c-0.6,0.1-1.1,0.2-1.7,0.1
			c-0.4,0-0.9,0-1.3-0.1c-0.8,0.1-1.4,0.3-1.4-0.9c0-0.7,0-1.3,0.1-2c-0.1-2-0.3-3.8-0.3-5.6c0.1-4-0.1-9-0.3-13.2
			c0-12.9,0.4-25.9,0.4-38.7c0.7-0.4,1.5-0.6,2.3-0.7h4.4c1.7,0.2,3.4,0.2,5.1,0c1.9,0.2,3.8,0.2,5.7,0c1.1,0.3,2.2,0.5,3.4,0.5
			c0.5,0,0.9,0,1.4,0c0.1,0.1,0.2,0.1,0.4,0.1c0.2,0.1,0.5,0.1,0.8,0c0.5,0.2,1,0.3,1.6,0.3c2.9,0.1,5.8,0.6,8.5,1.7
			c9,3.1,14.7,9.2,17.7,18.2c0.6,2.2,1,4.4,1.3,6.6c-0.1,0.4-0.1,0.9,0.1,1.3c0,0.6,0,1.2,0,1.8
			C237.4,505.1,237.4,505.7,237.4,506.2z"/>
		<path class="st0" d="M252.2,535.2L252.2,535.2L252.2,535.2z"/>
		<path class="st0" d="M255.2,530.6L255.2,530.6L255.2,530.6z"/>
		<path class="st0" d="M694,455h-23.2c-0.9,0.4-0.4,1.2-0.4,1.8c0,32.1,0,64.1,0,96.2c-0.1,0.7,0,1.5,0.3,2.2
			c0.2,0.1,0.5,0.1,0.8,0.2c7.2,0,14.3,0,21.5,0c1.3,0,1.4-0.7,1.2-1.6c0-0.4,0.1-0.7,0.1-1.1c0-32.1,0-64.3,0-96.5
			C694.2,455.8,694.4,455.3,694,455z"/>
		<path class="st0" d="M365.8,528c0.1-0.3,0.1-0.5,0.2-0.8c-0.1-0.3,0-0.7,0.3-0.9l0.1-0.8c-0.1-0.4,0-0.8,0.3-1
			c0-0.7,0.1-1.4,0.2-2.1c0.3-2.1,0.8-4.2,0.6-6.3c0-0.4,0.1-0.7,0.1-1.1c0-19.6,0-39.2,0-58.8c0-0.4,0.1-0.9-0.3-1.2l-1.4,0.1h-2.1
			c-5.5-0.1-11.1-0.1-16.6,0c-0.8-0.1-1.7-0.1-2.5,0c-0.9,0.5-0.4,1.3-0.4,1.9c0,17,0,33.9,0,50.9c0,1.8,0,3.6,0.1,5.3l0,3.8
			c-0.1,0.3-0.2,0.6-0.1,0.9c-0.6,2-0.8,4.1-1.8,6c-1,2.6-2,5.2-4.2,7.2l-0.1,0.1c0,0.1-0.1,0.3-0.2,0.3c0,0,0,0,0,0
			c0,0.2-0.1,0.2-0.2,0.2c-1.7,1.7-3.8,3-6.2,3.7l-0.7,0.2c-0.1,0.2-0.4,0.3-0.6,0.3l-1.2,0.2c-0.5,0.3-1.1,0.5-1.6,0.4l-6.6,0.4
			c-0.9-0.2-1.9-0.4-2.9-0.4c-4-0.6-7.7-2-10.5-5.1c-0.4-0.2-0.7-0.5-0.9-0.9c-1.2-1.2-2.1-2.7-2.7-4.3c-0.1-0.1-0.2-0.2-0.1-0.3
			c-0.2-0.1-0.4-0.3-0.3-0.5c0-0.2-0.1-0.3-0.1-0.4c-1.2-2.6-1.9-5.3-2-8.1c-0.1-2.4-0.1-4.9-0.1-7.3c0.5-16.1,0.1-32.2,0-48.3v-2.1
			c0.2-1.3,0.1-2.6-0.1-3.9l-1.9,0.1h-21.7c0,20-0.8,40.2,0.1,60.2v4.1c0.6,2.2,0.9,4.5,1.5,6.8c0.8,3.6,2.2,7.2,3.9,10.5l0.2,0.4
			c1.6,2.6,3.5,5,5.5,7.3l0,0c0.2,0,0.4,0.2,0.4,0.4l0,0c0.5,0.3,1,0.8,1.4,1.3c7.3,6.8,16.1,9.8,25.8,10.7c0.2,0.1,0.5,0.2,0.8,0.3
			c5.3,0.1,10.6,0.4,15.8-0.8c9.6-1.1,18.5-5.7,25-12.9c0-0.1,0-0.2,0.2-0.3c0,0,0,0,0,0c0-0.2,0.1-0.3,0.3-0.4l0,0
			c1.5-2.3,3.1-4.7,4.6-7c-0.1-0.1,0-0.3,0.1-0.3c0-0.2,0.1-0.5,0.3-0.5c-0.1-0.1,0-0.3,0.1-0.3c0,0,0,0,0,0c-0.1-0.2,0-0.4,0.2-0.5
			c0-0.5,0.2-0.9,0.5-1.2c0-0.1,0.1-0.3,0.1-0.4c-0.1-0.2,0.1-0.5,0.3-0.6c-0.1-0.1,0-0.2,0-0.3c0,0,0,0,0,0
			C364.8,530.2,365.2,529.1,365.8,528z"/>
		<path class="st0" d="M363.6,533.9L363.6,533.9L363.6,533.9z"/>
		<path class="st0" d="M846.6,453.3L846.6,453.3L846.6,453.3z"/>
		<path class="st0" d="M807.3,404.8L807.3,404.8z"/>
		<path class="st0" d="M885.2,351.8c0-0.1,0.1-0.3,0.1-0.4l-0.4,0.5L885.2,351.8z"/>
		<path class="st0" d="M885.2,345.5c-0.4-0.6-1-1-1.7-1.3c0-0.2-0.1-0.4-0.3-0.4c0,0-0.1,0-0.1,0c-0.5-0.5-1-1-1.7-1.3
			c0-0.2-0.1-0.3-0.3-0.3H881c0-0.3-0.1-0.3-0.3-0.3c-0.3-0.5-0.8-0.9-1.4-1.1c-0.1-0.3-0.1-0.3-0.4-0.3c0-0.3-0.1-0.3-0.3-0.3
			c0-0.2,0-0.3-0.1-0.4h-0.3c-0.1-0.1-0.1-0.1-0.1-0.3h-0.4c0-0.1-0.1-0.3-0.1-0.4h-0.3V339c-0.2,0-0.3-0.1-0.3-0.4h-0.6v-0.4h-0.4
			c0-0.1-0.1-0.3-0.4-0.4c0-0.1-0.1-0.3-0.4-0.3c-0.1-0.1-0.2-0.3-0.1-0.4h-0.3v-0.1c-0.1,0-0.2-0.1-0.3-0.1c-0.4-0.5-0.9-0.8-1.4-1
			v-0.1c-0.6-0.7-1.3-1.2-2.1-1.6v-0.1c-0.1-0.1-0.1-0.3-0.4-0.3c0-0.1-0.1-0.1-0.3-0.1s-0.2-0.3-0.2-0.4h-0.4
			c0-0.2-0.1-0.4-0.3-0.4c0,0-0.1,0-0.1,0c-0.1-0.1-0.1-0.3-0.4-0.3c-0.1-0.1-0.3-0.4-0.4-0.6c-0.2,0-0.4-0.1-0.4-0.3
			c0,0,0-0.1,0-0.1h-0.4c0-0.2-0.2-0.4-0.4-0.4c0,0,0,0,0,0c0-0.2-0.1-0.4-0.3-0.4c0,0-0.1,0-0.1,0h-0.1c0-0.1,0-0.3-0.3-0.3
			c-0.2-0.3-0.5-0.6-0.8-0.6c0-0.2-0.1-0.4-0.3-0.4c0,0-0.1,0-0.1,0c-0.2-0.3-0.2-0.4-0.4-0.4h-0.1c0-0.2-0.1-0.3-0.3-0.3
			c0-0.1-0.1-0.3-0.3-0.1c-0.1-0.3-0.3-0.4-0.6-0.4c0-0.2-0.1-0.4-0.3-0.4c0,0-0.1,0-0.1,0c-0.1-0.1-0.1-0.3-0.3-0.3h-0.1
			c-0.1-0.3-0.4-0.6-0.7-0.6c-0.2-0.3-0.3-0.4-0.6-0.4c-0.1-0.3-0.3-0.4-0.4-0.4h-0.1v-0.3h-0.3v-0.3h-0.3c-0.1-0.1-0.1-0.1-0.1-0.3
			l-1.3-0.9h-0.2c0-0.3,0-0.4-0.3-0.4c-0.3-0.1-0.5-0.3-0.7-0.6c-0.4-0.5-0.8-0.9-1.4-1.1c-0.1-0.3-0.3-0.4-0.4-0.4
			c-0.1-0.3-0.3-0.4-0.4-0.4H855c0-0.3-0.1-0.4-0.3-0.4s-0.1-0.1-0.3-0.1s-0.1-0.3-0.1-0.4c-0.2,0-0.4-0.1-0.4-0.3c0,0,0-0.1,0-0.1
			h-0.4c-0.1-0.1-0.3-0.3-0.4-0.3h-0.1c0-0.3-0.1-0.4-0.3-0.4s-0.1-0.1-0.3-0.1c-0.2-0.4-0.6-0.7-1-0.9c-0.2-0.1-0.3-0.3-0.4-0.3
			l-0.1-0.1c0-0.2-0.1-0.3-0.3-0.3c-0.2-0.1-0.2-0.1-0.3-0.1c-0.3-0.5-0.8-0.9-1.4-1.1c-0.3-0.3-0.4-0.6-0.8-0.6
			c-0.1-0.3-0.3-0.4-0.6-0.4c0-0.1-0.2-0.3-0.4-0.3l0.1-0.3c-0.1,0-0.2,0.1-0.3,0.1c-0.1-0.1-0.2-0.3-0.1-0.4l-0.8-0.4
			c-0.1-0.1-0.3-0.4-0.4-0.3c-0.3-0.3-0.4-0.6-0.8-0.6c-0.1-0.3-0.3-0.4-0.6-0.4c0-0.1,0-0.3-0.3-0.3c-0.3-0.3-0.4-0.6-0.8-0.6
			c-0.3-0.6-0.6-0.6-0.8,0c-0.2,0-0.4,0.1-0.4,0.3c0,0,0,0.1,0,0.1c-0.3,0.1-0.5,0.4-0.6,0.7c-0.2,0.1-0.4,0.3-0.4,0.6
			c-0.1,0-0.3,0.1-0.4,0.4c-0.2,0-0.3,0.1-0.4,0.4c-0.1,0-0.3,0.1-0.3,0.4h-0.1c-0.1,0.1-0.3,0.3-0.3,0.4v0.1
			c-0.3,0-0.4,0.1-0.4,0.3c-0.2,0.2-0.3,0.3-0.6,0.4c-0.2,0.2-0.3,0.5-0.4,0.7c-2.5,2.7-5.2,5.2-7.8,7.8c-0.2,0-0.3,0.1-0.3,0.3
			c-0.1,0-0.3,0-0.3,0.3h-0.1c-0.1,0-0.3,0.1-0.3,0.4h-0.2c-0.1,0-0.3,0.1-0.4,0.4c-0.3,0-0.3,0.1-0.4,0.4c-0.2,0-0.4,0.1-0.4,0.3
			c0,0,0,0.1,0,0.1c-0.4,0.1-0.7,0.3-0.8,0.7c-0.1,0-0.3,0.1-0.4,0.3c-0.2,0-0.3,0.1-0.3,0.3h-0.1c-0.2,0-0.3,0.1-0.4,0.4
			c-0.2,0-0.4,0.1-0.4,0.3c0,0,0,0.1,0,0.1c-0.3,0-0.4,0.1-0.6,0.4c-0.1-0.1-0.3,0-0.3,0.1c-0.2,0-0.3,0.1-0.3,0.3h-0.1
			c-0.2,0-0.4,0.1-0.4,0.3c0,0,0,0.1,0,0.1c-0.2,0-0.4,0.1-0.4,0.3c0,0,0,0.1,0,0.1c-0.4,0-0.7,0.2-0.8,0.6c-0.3,0-0.3,0.1-0.4,0.3
			c-0.2,0-0.4,0.1-0.4,0.3c0,0,0,0.1,0,0.1c-0.4,0-0.7,0.2-0.8,0.6c-0.3,0-0.4,0.1-0.4,0.3c-0.3,0-0.4,0.1-0.6,0.4
			c-0.3,0.1-0.6,0.3-0.7,0.6c-0.1-0.1-0.3,0-0.4,0.1c0,0,0,0.1,0,0.1c-0.4,0-0.7,0.2-0.8,0.6c-0.3,0-0.4,0.1-0.4,0.3
			c-1,0.4-1.8,1-2.5,1.7c-0.4,0-0.7,0.2-0.8,0.6c-0.3,0-0.4,0-0.6,0.3c-0.1,0-0.3,0-0.3,0.1c-0.3,0-0.4,0.1-0.4,0.3
			c-0.3,0-0.6,0.1-0.6,0.4c-0.1,0-0.3,0-0.3,0.1c-0.2,0-0.4,0.1-0.6,0.3l-0.3,0.3c-0.7,0.2-1.3,0.5-1.8,1c-0.1,0-0.3,0-0.3,0.1
			c-0.2,0-0.4,0.1-0.4,0.3c0,0,0,0.1,0,0.1c-0.2,0-0.3,0-0.4,0.1c-0.7,0.2-1.3,0.5-1.8,1c-0.1,0-0.3,0-0.3,0.1
			c-0.2,0-0.4,0.1-0.6,0.3c-0.1,0.1-0.2,0.1-0.3,0.1c-0.2,0-0.4,0.1-0.6,0.3c-0.1,0-0.3,0-0.3,0.1c-0.2,0-0.4,0.1-0.6,0.3
			c-0.1,0-0.3,0-0.3,0.1c-0.2,0-0.4,0.1-0.6,0.3c-0.1,0-0.3,0-0.3,0.1c-0.3,0-0.4,0-0.6,0.3c-0.8,0.1-1.5,0.5-2,1
			c-0.2,0-0.4,0-0.6,0.1c-0.2-0.1-0.3,0-0.4,0.3c-0.1-0.1-0.3,0-0.3,0.1c-0.3-0.1-0.6,0-0.6,0.3c-0.1-0.1-0.2-0.1-0.3-0.1
			c0,0-0.1,0-0.1,0.1c-0.2,0-0.4,0.1-0.6,0.3c-0.1,0.1-0.4,0.1-0.7,0.3s-0.3,0-0.4,0.3c-0.1-0.1-0.3,0-0.4,0.1
			c-0.1-0.1-0.4,0-0.6,0.3c-0.2,0-0.5,0-0.7,0.1c-0.1,0-0.3,0-0.4,0.3c-0.1-0.1-0.3,0-0.4,0s-0.4,0.1-0.6,0.4c-0.2,0-0.5,0-0.7,0.1
			c-0.3-0.1-0.4,0-0.6,0.3c-0.2,0.1-0.5,0.1-0.7,0.1c-0.1,0-0.3,0-0.4,0.3c-1,0-1.9,0.3-2.7,0.9c-0.2,0.1-0.5,0.1-0.7,0.1
			c-0.3,0-0.4,0-0.6,0.3c-0.2,0-0.5,0-0.7,0.1c-0.3-0.1-0.6,0-0.8,0.3c-0.3,0-0.6,0.1-0.8,0.1s-0.4,0-0.6,0.3
			c-0.2,0.1-0.5,0.1-0.7,0.1c-0.4-0.1-0.8,0-1,0.3c-0.2-0.1-0.2-0.1-0.3,0c-0.5-0.1-1,0.1-1.4,0.4c-0.4,0-0.8,0-1.1,0.1
			c-0.3-0.1-0.7,0-0.8,0.3c-0.3,0-0.6,0.1-0.8,0.1s-0.6,0-0.8,0.3c-0.1,0-0.3,0.1-0.4,0.1c-0.6-0.2-1.3-0.1-1.8,0.3
			c-0.4,0-0.7,0.1-1.1,0.1c-0.8-0.2-1.6-0.1-2.3,0.3c-0.3,0-0.7,0.1-1.1,0.1h-1.6c0,0.1-0.1,0.1-0.3,0.3c-0.4,0-0.7,0.1-1.1,0.1
			c-0.5-0.1-1,0-1.4,0.3c-0.7,0-1.4,0.1-2,0.1c-1.3,0-2.5-0.1-3.8-0.1c-0.6,0-1.1,0.1-1.7,0.1h-1.4l0.2-0.2c-1.8,0-3.7,0-5.7,0.1
			h-7.2c-0.4,0-1-0.1-1.6-0.1c-0.7-0.4-1.5-0.6-2.3-0.4h-0.2c-0.1-0.1-0.3-0.3-0.3-0.3h-1.3v-0.1c-2.3-0.1-4.6-0.6-6.8-1.3h-1.3
			c-0.3,0-0.6-0.2-0.8-0.4c-1.6-0.1-3.2-0.5-4.7-1.1c-0.3-0.1-0.6-0.2-0.8-0.1c-1.7-0.3-3.3-0.9-4.8-1.7c-0.2,0-0.5,0-0.7-0.1
			c-0.2,0-0.4-0.1-0.4-0.3h-0.1c-1.3-0.2-2.5-0.6-3.5-1.3c-0.2,0-0.4,0-0.6-0.1c-8.7-3.2-16.9-7.6-24.3-13.1c-0.2,0-0.4-0.1-0.4-0.3
			c0,0,0-0.1,0-0.1c-0.1,0.1-0.3,0-0.4-0.1c-2.7-1.8-5.3-3.9-7.6-6.1c-0.1-0.1-0.3-0.3-0.4-0.3s-0.3-0.1-0.3-0.3l-0.2-0.1
			c-0.3,0-0.4-0.1-0.4-0.3c-0.2,0-0.4-0.2-0.4-0.4c-1-0.3-1.3-1.4-2.3-1.7v-0.4H676c-0.1,0-0.1-0.1-0.1-0.1v0
			c-0.2-0.1-0.3-0.3-0.3-0.6c0,0.1-0.1,0.1-0.1,0.1c0,0,0,0,0,0v0.1l-0.3-0.3c0.2,0,0.2-0.1,0.2-0.3h-0.2c-0.1,0-0.3-0.1-0.4-0.4
			c-0.3,0-0.3-0.1-0.4-0.4c-0.4-0.4-0.8-0.9-1.3-1.3c-0.4-0.4-0.8-0.9-1.3-1.3c-0.3-0.3-0.6-0.6-0.8-0.9c-0.1,0-0.3-0.1-0.3-0.4
			c-0.4-0.3-0.7-0.6-1.1-0.9v-0.3c-0.1,0-0.1,0-0.3-0.1c-0.4-0.6-0.8-1.1-1.3-1.7c-0.2,0-0.4-0.1-0.4-0.3c0,0,0-0.1,0-0.1
			c-0.2,0-0.4-0.1-0.4-0.3c0,0,0-0.1,0-0.1c-0.1,0-0.1-0.1-0.1-0.1v0c-1.3-1.4-2.6-2.9-3.7-4.5c-0.3-0.2-0.5-0.5-0.6-0.8
			c-0.1,0-0.3-0.1-0.3-0.4c-0.3-0.1-0.4-0.1-0.4-0.4s-0.4-0.4-0.4-0.9c-0.2,0-0.4-0.2-0.4-0.4c-0.3-0.1-0.4-0.3-0.4-0.4
			s-0.4-0.6-0.4-0.9c-0.3-0.1-0.4-0.3-0.4-0.4c-0.3-0.2-0.5-0.5-0.6-0.9c-0.2-0.1-0.3-0.3-0.3-0.6c-0.3-0.1-0.4-0.4-0.4-0.7
			c-0.9-0.8-1.5-1.9-1.8-3v-0.1c-1.7-2.2-3.2-4.7-4.4-7.2c-0.1-0.1-0.1-0.3-0.3-0.4s-0.3-0.1-0.3-0.4c0-0.2,0-0.3-0.2-0.4
			c-0.1-0.1-0.3-0.1-0.3-0.4c0-0.2,0-0.3-0.1-0.4c-0.1-0.1-0.3-0.3-0.3-0.4c0-0.2,0-0.3-0.2-0.4c-0.1-0.1-0.3-0.3-0.3-0.4
			c0-0.2,0-0.3-0.2-0.4c-0.1-0.1-0.3-0.3-0.3-0.4c0-0.2,0-0.4-0.1-0.6c-0.5-0.8-0.9-1.6-1.1-2.5c-0.1,0-0.1-0.1-0.1-0.3
			c-0.3-0.2-0.4-0.6-0.3-1c-0.1,0-0.1-0.1-0.1-0.3c-0.3,0-0.3-0.3-0.3-0.6s-0.1-0.3-0.1-0.4c-0.4-0.5-0.7-1.1-0.7-1.7
			c-0.1-0.1-0.1-0.1-0.1-0.3c-0.2-0.1-0.3-0.3-0.3-0.6c-0.1-0.2-0.1-0.5-0.1-0.7c-0.6-1-1-2-1.1-3.1c-0.1-0.1-0.3-0.1-0.1-0.3
			c-0.3-0.1-0.3-0.3-0.3-0.6s-0.1-0.6-0.1-0.9c-1.3-3-2.2-6.2-2.8-9.5c0-0.3-0.1-0.4-0.1-0.7c-0.3-0.2-0.4-0.6-0.3-1
			c0-0.4-0.1-1-0.1-1.5c-0.6-1.4-0.9-2.9-0.8-4.4c-0.3-0.3-0.4-0.6-0.3-0.9s-0.2-0.6-0.2-0.9c-0.4-0.5-0.5-1.1-0.3-1.7
			c-0.1-0.5-0.2-1-0.1-1.6l-0.3-0.3v-5c-0.2-0.8-0.2-1.6-0.1-2.4c-0.4-1.1-0.5-2.3-0.4-3.5c-0.2-2.1-0.2-4.3,0.1-6.4
			c-0.2-1.5-0.1-3.1,0.3-4.5c-0.1-0.7,0-1.4,0.1-2v-0.4c-0.1-1-0.2-2-0.1-3c0.1-0.3,0.1-0.6,0-0.9c0.1-0.1,0.2-0.3,0.1-0.4
			c0.1,0,0.1,0,0.3-0.1c-0.1-0.7-0.1-1.4,0.1-2c-0.2-0.5-0.1-1.1,0.3-1.6c0-0.3,0.2-0.7,0.2-1c-0.1-0.4,0-0.7,0.3-1
			c-0.1-0.7,0.1-1.5,0.4-2.1c0.1-0.8,0.3-1.7,0.4-2.5c-0.1-0.1-0.1-0.2-0.1-0.4c0,0,0-0.1,0.1-0.1c-0.1-0.6,0-1.3,0.4-1.8
			c0-0.3,0.1-0.4,0.1-0.7s0-0.6,0.3-0.9c0.1-0.4,0.2-0.8,0.2-1.3c1.8-6.7,4.2-13.3,7.1-19.6c0-0.2,0-0.3,0.2-0.4
			c1.4-2.7,2.7-5.4,4.2-8.1c3.3-6.2,7.3-12,11.9-17.2c0.9-1.5,2-2.8,3.2-4v-0.3l0.1-0.1c2.4-2.3,4.7-4.8,7.1-7.1l0.1-0.1
			c0.2-0.2,0.5-0.3,0.7-0.4c10-9.2,21.6-16.6,34.2-21.6c5.7-2.4,11.7-4.2,17.8-5.4c0.6-0.4,1.4-0.3,2.1-0.3c0.3-0.3,0.6-0.4,1-0.4
			c0.2,0,0.5,0.1,0.7,0.1c0.4-0.1,0.8-0.2,1.1-0.1c0.5-0.3,1.2-0.5,1.8-0.4c0.2-0.1,0.5-0.1,0.7,0c3.4-1.3,6.9-0.8,10.3-1.1
			c5.4-0.4,10.7,0,16.3-0.2c2.3,0.7,4.7,0.4,6.9,1.3l0.1-0.1l0.1,0.1c4.4,0.4,8.8,1.3,13,2.7c6.6,1.6,13,4.1,19,7.2
			c0.2,0,0.3,0,0.4,0.1c0.2-0.1,0.2-0.1,0.3-0.1s0.2,0.3,0.2,0.4c0.1-0.1,0.1-0.1,0.3,0h0.4c0,0.1,0.1,0.2,0.1,0.3h0.4l-0.1,0.1h0.4
			c0,0.1,0.1,0.2,0.1,0.3h0.4c0.3,0,0.5,0.2,0.6,0.4c11.9,6.3,22.6,14.6,31.7,24.5c0.2,0.2,0.5,0.3,0.7,0.4c1.3-1.1,2.7-2.3,4-3.4
			h0.1c0.3-0.3,0.6-0.6,0.8-0.9c0-0.2,0.1-0.3,0.3-0.3c0.3-0.3,0.4-0.6,0.8-0.7c2.3-2.4,4.7-4.6,7.3-6.6c0.3-0.3,0.6-0.6,0.8-0.8
			c0.9-1,1.9-1.9,3-2.7c0-0.1,0.1-0.3,0.4-0.4c0-0.1,0.1-0.3,0.4-0.3v-0.1c0-0.1,0.1-0.3,0.4-0.3v-0.1c0-0.1,0.1-0.3,0.4-0.3v-0.1
			c0.1-0.1,0.1-0.3,0.4-0.3c0.2,0,0.3-0.1,0.3-0.3c0.8-0.9,1.7-1.7,2.7-2.4c0-0.3,0.2-0.3,0.4-0.4c0-0.2,0.1-0.4,0.3-0.4
			c0,0,0.1,0,0.1,0c0.2-0.1,0.2-0.3,0.4-0.3c0.1-0.2,0.2-0.3,0.3-0.6h0.1c0.3-0.1,0.4-0.3,0.7-0.4c0.4-0.5,0.8-1,1.4-1.3
			c0-0.2,0.1-0.4,0.3-0.4c0,0,0.1,0,0.1,0c0-0.2,0.1-0.4,0.3-0.4c0,0,0.1,0,0.1,0c0-0.2,0.1-0.4,0.3-0.4c0,0,0.1,0,0.1,0h0.1
			c0-0.1,0-0.3,0.3-0.3c0-0.2,0.1-0.3,0.3-0.3c0.7-0.8,1.4-1.4,2.3-2c0-0.2,0.1-0.4,0.3-0.4c0,0,0.1,0,0.1,0
			c0.1-0.3,0.1-0.4,0.4-0.4c0.1-0.3,0.1-0.4,0.4-0.4h0.2c0-0.3,0-0.3,0.3-0.3c0.1-0.4,0.4-0.7,0.8-0.7c0.3-0.6,0.7-1,1.3-1.3
			c0-0.1,0.1-0.3,0.4-0.4c0-0.1,0.1-0.3,0.4-0.3v0.1c0.1-0.1,0.1-0.3,0.4-0.3v-0.1c0.2-0.1,0.2-0.3,0.4-0.3l0.1-0.2
			c0-0.1,0-0.3,0.3-0.3c0.3-0.4,0.7-0.8,1.1-1c0.5-0.7,1.1-1.2,1.8-1.7c0.1-0.3,0.3-0.3,0.4-0.4l0.4-0.4h0.1c0-0.2,0.1-0.3,0.3-0.3
			l0.1-0.1c0-0.2,0.1-0.3,0.3-0.3l0.1-0.1c0-0.2,0.1-0.3,0.3-0.3l1.4-1.4c-0.1-1.3-1.4-1.8-1.8-3c-0.3-0.1-0.4-0.3-0.4-0.4
			c-0.2,0-0.4-0.1-0.4-0.3c0,0,0-0.1,0-0.1c-0.3,0-0.3-0.2-0.4-0.4s-0.3-0.3-0.4-0.4s-0.4-0.3-0.4-0.4c-0.3-0.1-0.4-0.3-0.4-0.4
			c-0.3-0.1-0.4-0.3-0.4-0.4c-0.3-0.1-0.4-0.3-0.4-0.4c-0.3-0.1-0.4-0.3-0.4-0.4c-0.3-0.1-0.4-0.3-0.4-0.4c-0.3-0.1-0.4-0.3-0.4-0.4
			c-0.3-0.1-0.4-0.3-0.4-0.4c-0.3-0.1-0.4-0.3-0.4-0.6c-0.3-0.3-0.6-0.6-0.8-0.8c-0.4-0.4-0.8-0.9-1.3-1.3c-0.3-0.3-0.6-0.6-0.8-0.8
			c-0.2,0-0.4-0.1-0.4-0.3c0,0,0-0.1,0-0.1c-0.8-0.6-1.6-1.2-2.3-2c-0.2,0-0.3-0.1-0.3-0.3c-0.3,0-0.3-0.1-0.3-0.3h-0.1
			c-0.3,0-0.3-0.1-0.4-0.4s-0.6-0.4-0.8-0.6c-11-9.8-23.2-18-36.5-24.4c-13-6.5-26.7-11.7-41.2-14.4c-3-0.6-5.8-1.8-8.9-1.5
			c-1.3-0.6-2.7-0.4-4-0.7c-3.8-0.9-7.8-1.3-11.7-1.1h-0.3c-1.6-0.4-3.2-0.5-4.8-0.3c-2.7-0.1-5.5-0.1-8.2,0h-9.4
			c-1.2,0.3-2.4,0.4-3.7,0.3c-0.6,0.2-1.2,0.2-1.8,0.1c-0.5,0.2-1,0.3-1.5,0.3c-0.6,0-1,0.2-1.6,0.2c-0.4,0.2-0.9,0.3-1.4,0.3
			c-0.4,0-0.7,0.1-1.1,0.1c-1,0.8-2.3,0-3.1,0.7c-0.2,0-0.3,0-0.4,0.1c-0.7,0-1.4-0.1-2.1-0.1c-0.2,0.1-0.5,0.1-0.7,0.1
			c-0.4,0.3-0.9,0.4-1.4,0.3c-0.4,0-0.8,0.1-1.1,0.1c-0.3,0.2-0.6,0.3-1,0.3c-0.4,0-0.7,0.1-1.1,0.1c-0.2,0.3-0.6,0.4-1,0.3h-0.4
			c-0.5,0.3-1.1,0.5-1.7,0.4c-0.4,0.1-0.8,0.2-1.3,0.1c-0.2,0.3-0.5,0.4-0.8,0.3c-0.3,0.1-0.6,0.2-0.8,0.1c-0.3,0.3-0.6,0.4-0.8,0.3
			c-0.3,0.1-0.6,0.2-0.8,0.1c0,0.3-0.3,0.3-0.4,0.3c-0.3,0-0.6,0-0.8,0.1c-0.4,0.3-0.8,0.4-1.3,0.4h-0.7c-0.1,0.2-0.3,0.3-0.6,0.3
			c-0.3,0-0.6,0.1-0.8,0.1c-0.3,0.3-0.6,0.4-0.8,0.3c-0.2,0.1-0.5,0.2-0.8,0.1c0,0.3-0.3,0.3-0.4,0.3s-0.6,0.1-0.8,0.1
			c-0.5,0.3-1.1,0.5-1.7,0.6c-0.1,0.1-0.3,0.3-0.4,0.1c-0.3,0.1-0.6,0.2-0.8,0.1c-0.1,0.3-0.3,0.3-0.4,0.3c-0.3,0.1-0.6,0.2-0.8,0.2
			c-0.1,0.3-0.3,0.4-0.4,0.3c-0.3,0.1-0.6,0.2-0.8,0.1c-0.2,0.3-0.3,0.4-0.4,0.3c-0.3,0.1-0.6,0.2-0.8,0.2c-0.2,0.3-0.3,0.4-0.6,0.3
			c-0.1,0.1-0.4,0.1-0.7,0.3s-0.3,0.3-0.6,0.1c-0.2,0.1-0.4,0.1-0.6,0.3s-0.4,0.3-0.7,0.3h-0.4c0,0.3-0.1,0.3-0.4,0.3
			s-0.4,0.1-0.7,0.3c-0.1,0.2-0.3,0.3-0.6,0.3h-0.4c0,0.3-0.1,0.3-0.4,0.3s-0.4,0.1-0.7,0.3c0,0.3-0.3,0.3-0.6,0.3
			c0,0.2-0.1,0.2-0.3,0c-0.1,0.3-0.3,0.4-0.6,0.3c-0.2,0.1-0.4,0.1-0.7,0.3c-0.1,0.2-0.3,0.3-0.6,0.3H687c0,0.3-0.1,0.3-0.4,0.3
			c-0.2,0.2-0.4,0.2-0.7,0.3s-0.3,0.3-0.6,0.3c-0.1,0.1-0.1,0.1-0.3,0.1c-0.1,0.2-0.3,0.3-0.6,0.3H684c-0.1,0.1-0.3,0.3-0.4,0.3
			c-0.4,0.4-1,0.6-1.5,0.7c-0.1,0.3-0.3,0.3-0.6,0.3c-0.2,0-0.3,0-0.4,0.1c0,0.1-0.1,0.3-0.4,0.1c-0.1,0.1-0.3,0.2-0.4,0.1
			c-0.1,0.1-0.3,0.3-0.4,0.3c-0.7,0.5-1.5,0.9-2.4,1.1c-0.1,0.3-0.3,0.3-0.6,0.3s-0.1,0.1-0.3,0.1c-0.2,0.3-0.3,0.3-0.6,0.3
			c-0.7,0.7-1.6,1.1-2.5,1.4c-0.2,0-0.3,0.1-0.4,0.3c-0.2,0-0.3,0-0.4,0.1c-0.1,0.1-0.1,0.3-0.4,0.3s-0.2,0.1-0.3,0.1
			c-0.1,0.3-0.3,0.4-0.6,0.3c-0.3,0.3-0.6,0.6-0.8,0.4c-0.1,0.1-0.3,0.1-0.4,0.3c-0.4,0.3-0.8,0.6-1.3,0.7c-0.1,0.1-0.1,0.3-0.4,0.3
			s-0.1,0.1-0.4,0.1c0,0.2-0.1,0.4-0.3,0.4c0,0-0.1,0-0.1,0c-0.3,0.1-0.6,0.4-0.8,0.4s-0.3,0.3-0.4,0.3s-0.3,0.1-0.4,0.1
			c0,0.3-0.1,0.4-0.4,0.3c-0.3,0.3-0.6,0.6-0.8,0.6s-0.3,0.3-0.4,0.3c-0.1,0.1-0.3,0.2-0.4,0.1c0,0.2-0.1,0.4-0.3,0.4
			c0,0-0.1,0-0.1,0c-0.2,0.2-0.5,0.4-0.8,0.4c-0.1,0.3-0.1,0.4-0.4,0.3c-0.1,0.1-0.3,0.3-0.4,0.1c0,0.2-0.2,0.4-0.4,0.4H661
			l-0.3,0.3c-0.1,0-0.3,0.1-0.4,0.1c-0.1,0.3-0.3,0.4-0.4,0.4c-0.2,0.3-0.5,0.4-0.8,0.4c-0.2,0.3-0.3,0.4-0.4,0.4s-0.6,0.4-0.8,0.4
			c-0.2,0.3-0.3,0.4-0.4,0.4c-0.2,0.2-0.5,0.4-0.8,0.4c-0.1,0.3-0.3,0.4-0.4,0.4s-0.6,0.4-0.8,0.6s-0.3,0.3-0.4,0.3
			c-0.2,0.3-0.5,0.5-0.8,0.6c-0.1,0.2-0.3,0.3-0.6,0.3c0,0.3-0.1,0.4-0.3,0.4s-0.6,0.4-0.8,0.6c-0.1,0.2-0.3,0.3-0.6,0.3
			c-0.3,0.5-0.7,0.8-1.3,1c0,0.1-0.1,0.3-0.4,0.3c0,0.2-0.1,0.3-0.3,0.3c0,0.1-0.3,0.3-0.4,0.3c-0.1,0.3-0.3,0.4-0.6,0.4
			c0,0.1-0.2,0.3-0.4,0.3v0.1c0,0.1-0.1,0.3-0.4,0.3c-0.1,0.3-0.4,0.5-0.7,0.6c-0.1,0.3-0.3,0.4-0.6,0.4c0,0.1-0.2,0.3-0.4,0.3
			c-0.4,0.6-1,1.1-1.7,1.4c0,0.1-0.1,0.4-0.4,0.3v0.1c-0.1,0.2-0.1,0.3-0.4,0.3c-0.1,0.3-0.4,0.5-0.7,0.6c-0.1,0.3-0.3,0.4-0.6,0.4
			c0,0.2-0.1,0.3-0.3,0.3h-0.1v0.1c-0.1,0.1-0.1,0.3-0.4,0.3c-0.3,0.5-0.7,0.8-1.3,1c-0.3,0.3-0.6,0.6-0.8,0.8
			c0,0.2-0.1,0.4-0.3,0.4c0,0-0.1,0-0.1,0c-0.1,0.1-0.1,0.3-0.4,0.3c-6.5,7.3-13.9,13.7-20.1,21.3c-6,7.6-11.3,15.5-16.1,23.9
			c-9.7,17.4-16.5,36.3-20.1,55.8c0.2,0.6,0.1,1.2-0.3,1.7c0,0.7,0,1.4-0.1,2.1c0.1,0.4,0,0.8-0.3,1c0,0.4,0,0.8-0.1,1.1
			c0.1,0.5,0,1-0.3,1.4c0,0.4-0.1,0.9-0.1,1.1c0.1,0.5,0,1.1-0.3,1.6c0,0.8,0,1.6-0.1,2.4c0.2,1.7,0.1,3.5-0.3,5.2
			c0.1,0.1,0.1,0.1,0,0.3c0.3,4.8-0.7,9.6-0.7,14.4c0.1,4.5,0.8,8.9,0.7,13.4c0.1,0.2,0.1,0.4,0,0.6c0.4,0.6,0.1,1.4,0.4,2v4.4
			c0.4,0.7,0.6,1.6,0.4,2.4v0.4c0.7,0.7,0.1,1.8,0.7,2.5c0.1,0.8,0.2,1.7,0.1,2.5c0.1,0.1,0.1,0.1,0,0.3c0.6,3.7,1.8,7.2,2.1,10.9
			c0.1,0.1,0.1,0.1,0,0.3c0.3,0.2,0.4,0.6,0.3,1c0.1,0.3,0.2,0.6,0.1,0.9c0.7,1.6,1.1,3.3,1.4,5v0.1c0.5,1.3,0.9,2.6,1.1,4
			c0.1,0,0.1,0.1,0,0.3c0.3,0,0.4,0.3,0.3,0.6c0.1,0.2,0.2,0.5,0.1,0.7c0.3,0.1,0.4,0.3,0.3,0.6s0.1,0.3,0.1,0.4
			c0.5,0.9,0.8,1.8,1,2.8v0.1c0.2,0.1,0.3,0.3,0.2,0.4c0.1,0.2,0.2,0.5,0.1,0.7c2.3,5.4,4.4,10.6,6.5,15.8v0.1
			c0.1,0.1,0.3,0.1,0.3,0.4v0.4c0.9,1.5,1.7,3,2.4,4.7c0.1,0.1,0.2,0.3,0.1,0.4c0.3,0.1,0.4,0.3,0.4,0.4v0.4c0.1,0,0.3,0.1,0.4,0.1
			v0.7c0.1,0,0.3,0.1,0.4,0.1v0.3c0,0.2,0,0.3,0.1,0.4c0.7,0.9,1.2,2,1.6,3.1c0.3,0,0.4,0.1,0.4,0.3c-0.1,0-0.1,0.1-0.1,0.1v0
			c0.2,0,0.3,0.1,0.3,0.3c0.5,0.5,0.8,1.2,1,1.8c0.1,0.1,0.2,0.3,0.1,0.4c0.3,0.3,0.6,0.6,0.8,0.9c0,0.1,0.1,0.4,0.3,0.4v0.3
			c0.1,0.1,0.1,0.3,0.3,0.4c1.8,3,3.7,5.9,5.5,8.9c0.3,0,0.3,0.3,0.4,0.4c3.2,4.5,6.6,8.9,10,13.3c0.1,0,0.1,0.1,0.1,0.3
			c0.8,0.6,1.5,1.4,2.1,2.3v0.1c1.2,1.2,2.4,2.4,3.4,3.8c0.2,0,0.4,0.1,0.4,0.3c0,0,0,0.1,0,0.1c0.1,0,0.3,0.1,0.4,0.4
			c0.2,0,0.3,0.1,0.3,0.4h0.1c0.1,0,0.3,0.1,0.3,0.4h0.1c0.2,0,0.3,0.1,0.3,0.4c0.3,0.2,0.5,0.4,0.7,0.7c1.8,1.7,3.3,3.7,5.4,5.1
			c0,0.2,0.1,0.3,0.3,0.3c1.5,1.6,3.2,3.1,5,4.8l0.3,0.3c0.3,0,0.4,0.1,0.4,0.3v0.1c1.5,0.9,2.8,2,4,3.2c0.3,0.2,0.5,0.4,0.7,0.7
			c0.3,0,0.4,0,0.4,0.3c0.2,0,0.4,0.1,0.4,0.3c0,0,0,0.1,0,0.1c0.1,0,0.3,0.1,0.4,0.3h0.1c1.6,1.1,3.1,2.3,4.5,3.5
			c0.3,0,0.3,0.1,0.4,0.4h0.1c0.7,0.3,1.2,0.7,1.7,1.3c0.1,0,0.3,0.1,0.4,0.1c0.2,0,0.3,0.1,0.3,0.3c1.9,1.1,3.8,2.4,5.5,3.8
			c0.3,0,0.4,0.1,0.6,0.4c1.2,0.5,2.4,1.2,3.4,2.1c0.2,0,0.3,0,0.4,0.1c0.6,0.2,1.2,0.6,1.7,1.1c0.4,0,0.6,0.3,0.8,0.6
			c0.3,0,0.4,0,0.4,0.3c0.3,0,0.3,0,0.4,0.1s0.3,0.1,0.4,0.3s0.6,0.3,0.8,0.6c1.9,0.9,3.7,1.9,5.5,3c0.1,0,0.3,0.1,0.4,0.1
			s0.3,0.1,0.4,0.3c0.2,0,0.3,0,0.4,0.1c1.9,0.8,3.8,1.7,5.5,2.8c0.1,0,0.3,0.1,0.4,0.1s0.3,0.1,0.4,0.3s0.3,0.1,0.4,0.1
			s0.4,0.1,0.4,0.3c0.2,0,0.3,0,0.4,0.1c0.1,0,0.3-0.1,0.4-0.1c0,0.2,0,0.3,0.1,0.4c0.1,0,0.2,0.1,0.3,0.1v-0.3
			c0.1,0.1,0.3,0.2,0.4,0.1c0,0.2,0,0.3,0.1,0.4h0.1l0.1,0.1c0.1-0.1,0.3,0,0.4,0.1h0c0.7,0.2,1.4,0.5,2,1c0.2,0,0.3,0,0.4,0.1
			c0.6,0.1,1.3,0.1,1.7,0.7c0.1,0,0.3,0.1,0.4,0.1s0.3,0,0.4,0.1c0,0.1,0.1,0.1,0.1,0.1l0,0l0.3-0.1c0.3,0.1,0.6,0.1,0.7,0.3
			c5.6,2.4,11.4,4.3,17.2,5.8c0.3,0,0.6,0,0.8,0.1c1.6,0.7,3.5,0.7,5.1,1.6h1.3v0.1c0.2,0,0.4,0.1,0.6,0.3c0.3,0,0.4,0.1,0.7,0.1
			c2,0.3,4.1,0.3,5.9,1.3l0.3-0.1l0.1,0.1c0.6-0.1,1.3,0,1.8,0.3c0.4,0.1,0.7,0.2,1.1,0.1h1.7c0.3,0.1,0.6,0.1,0.8,0
			c0,0.1,0,0.3,0.1,0.3c0.5,0.1,1,0.2,1.6,0.1c0.4,0,0.9,0,1.3-0.1c0.2,0.3,0.6,0.3,0.8,0.1c0.8,0.4,1.7,0.6,2.5,0.4
			c0,0.1,0.1,0.2,0.1,0.3c0.7,0.1,1.3,0.2,2,0.1h1.3c0.3,0.1,0.6,0.1,0.8,0c0,0.1,0.1,0.3,0.1,0.4h3.7c0.4,0,0.9,0,1.3-0.1
			c0.3,0.1,0.6,0.2,0.8,0.1c0.7,0.3,1.4-0.1,2,0.3h8.6c2-0.3,4-0.4,6.1-0.3c0.9-0.2,1.8-0.2,2.7,0c0.8-0.3,1.6-0.5,2.4-0.4
			c0.8-0.2,1.6-0.2,2.4-0.1c2.5-0.4,5.2-0.9,7.8-1.1c0.4-0.1,0.7-0.2,1.1-0.1c0.6-0.2,1.2-0.3,1.8-0.3c0.4,0,0.8,0,1.1-0.1
			c1.8-0.6,3.8-0.7,5.7-1.1c0.4,0,0.8,0,1.1-0.1c0.3-0.2,0.6-0.3,1-0.3c0.4,0,0.8,0,1.1-0.1c0.9-0.3,1.8-0.5,2.7-0.7
			c0.4,0,0.8-0.1,1.1-0.1c0.1-0.2,0.3-0.3,0.6-0.3c0.3,0,0.6,0,0.8-0.1c0.3-0.2,0.5-0.3,0.8-0.3c0.3,0,0.6,0,0.8-0.1
			c0.3-0.2,0.5-0.3,0.8-0.3h0.6c2-0.8,4.1-1.4,6.2-1.8c0-0.3,0.1-0.3,0.3-0.3h0.3c0.2-0.1,0.5-0.1,0.7-0.1c0-0.3,0.3-0.3,0.6-0.3
			c0.2-0.1,0.5-0.1,0.7-0.1c0.1-0.3,0.3-0.3,0.6-0.3c0.2-0.1,0.5-0.1,0.7-0.1c0.1-0.3,0.3-0.3,0.6-0.3c0.2,0,0.3,0,0.4-0.1
			c0.4-0.6,1.3-0.1,1.7-0.9c0.2,0,0.3,0,0.4-0.1c0.3,0.1,0.4,0,0.6-0.1s0.4-0.1,0.7-0.3c0.3,0.1,0.4,0,0.4-0.3c0.2,0.1,0.3,0,0.4,0
			c0.2,0,0.4-0.1,0.6-0.3c0.2,0,0.2,0,0.3-0.1s0.7,0,0.8-0.4c0.1,0,0.3,0.1,0.4,0.1v-0.1h0.4c0-0.1,0.1-0.1,0.1-0.3h0.3
			c0.1,0,0.3-0.1,0.4-0.3s0.2,0.1,0.3,0.1c0.1-0.1,0.2-0.3,0.2-0.4c0.1,0,0.3,0.1,0.4,0.1v-0.1h0.4c0-0.1,0.1-0.3,0.1-0.4
			c0.2,0,0.5,0,0.7-0.1c0.3,0,0.4-0.1,0.4-0.3c0.2,0,0.3,0,0.4-0.1c0.3,0.1,0.4,0,0.4-0.1c0.6-0.1,1-0.1,1.3-0.6
			c0.1,0,0.3-0.1,0.4-0.1c0.3,0,0.4-0.1,0.4-0.3c0.2,0,0.3,0,0.4-0.1c0.3,0.1,0.4,0,0.6-0.3h0.1l0.1-0.2c0.3,0.1,0.4,0,0.6-0.3
			c0.2,0,0.5-0.1,0.7-0.1c0.1-0.1,0.3-0.3,0.4-0.3c0.1-0.1,0.3-0.2,0.4-0.1c0.3,0,0.4-0.1,0.4-0.3c0.1-0.1,0.3-0.2,0.4-0.1
			c0.3,0,0.4-0.1,0.4-0.3s0.3-0.1,0.4-0.1c0.2,0,0.4-0.1,0.6-0.3c0.1,0,0.1-0.1,0.3-0.1v0.1h0.4c0-0.2,0-0.3,0.1-0.4
			c0.1,0,0.1-0.1,0.3-0.1v0.1h0.4c0-0.2,0-0.3,0.1-0.4c0.1,0,0.2-0.1,0.3-0.1v0.3c0.1-0.1,0.3-0.2,0.4-0.1c0-0.1,0.1-0.3,0.1-0.4
			h0.3v0.1c0.1-0.1,0.3-0.1,0.4-0.3c0-0.1,0.1-0.2,0.1-0.3c0.1-0.1,0.2-0.1,0.3-0.1v0.1c0.1-0.1,0.3-0.2,0.4-0.1
			c0-0.1,0.1-0.2,0.1-0.3c0.1-0.1,0.1-0.1,0.3,0s0.3-0.1,0.4-0.1v-0.3c0.1-0.1,0.3-0.2,0.4-0.1c0.3,0,0.4-0.1,0.4-0.3
			s0.3-0.1,0.4-0.3c0.3,0.1,0.4,0,0.4-0.3c0.3,0,0.6-0.1,0.8-0.1c0.1-0.1,0.3-0.2,0.4-0.1c0.1-0.3,0.1-0.4,0.4-0.4
			c0.1-0.1,0.3-0.2,0.4-0.1c0-0.1,0-0.1,0.1-0.3s0.1-0.1,0.3,0c0.1-0.1,0.1-0.1,0.3-0.1c0.1-0.1,0.2-0.3,0.1-0.4
			c0.2,0,0.4,0,0.6-0.1c0.1,0,0.3,0,0.3-0.3c0.3,0,0.6,0,0.7-0.3h0.1v-0.1c0.2,0,0.4-0.1,0.6-0.3c0.1,0,0.3,0,0.3-0.1
			c0.2,0,0.4-0.1,0.4-0.3c0,0,0-0.1,0-0.1c0.4,0,0.7-0.1,1-0.4c0.2,0,0.4-0.1,0.4-0.3s0.3-0.1,0.4-0.3c0.1,0.1,0.3,0,0.4-0.3
			c0.3,0,0.6-0.2,0.7-0.4c0.3,0,0.4-0.1,0.6-0.4c0.2,0,0.3,0,0.4-0.1c0-0.1,0.2-0.1,0.3-0.3c0.3,0,0.6-0.1,0.6-0.4
			c0.1,0.1,0.3,0,0.4-0.1c0.2,0,0.3-0.1,0.3-0.3h0.1c0.2,0,0.4-0.1,0.6-0.3h0.2c0.1,0,0.3-0.1,0.4-0.1s0.1-0.3,0.1-0.4h0.4
			c0-0.2,0.1-0.3,0.3-0.3c0.1,0,0.3-0.1,0.4-0.1s0.2-0.3,0.2-0.4c0.3,0,0.6-0.1,0.8-0.4c0.1,0,0.3-0.1,0.4-0.4
			c0.4,0,0.6-0.3,0.8-0.6l0.1,0.1h0.1c0-0.2,0-0.3,0.1-0.4h0.4c0-0.1,0.1-0.3,0.1-0.4c0.2,0.1,0.2,0,0.3-0.1s0.3-0.1,0.4-0.3
			c0.2,0,0.4-0.2,0.4-0.4c0.1,0,0.2-0.1,0.3-0.1v0.3c0.1-0.1,0.1-0.3,0.3-0.3s0.1-0.1,0.1-0.3l0.1-0.1c0.1,0.1,0.3-0.1,0.4-0.3
			c0.4,0,0.6-0.3,0.8-0.6c0.2,0,0.3-0.1,0.3-0.3l0.1-0.1c0.1,0.1,0.3-0.1,0.4-0.3s0.4-0.1,0.6-0.4l0.1-0.1l0.1,0.1
			c0.2-0.2,0.3-0.4,0.4-0.6h0.3c0.1-0.1,0.1-0.2,0.1-0.3h0.4c0-0.2,0-0.3,0.1-0.4h0.1c0.3-0.1,0.5-0.3,0.6-0.6h0.3
			c0-0.1,0.1-0.2,0.2-0.3c0.2,0,0.3,0,0.4-0.1v-0.3h0.4c0.1-0.2,0.3-0.4,0.4-0.6c0.1,0,0.3-0.1,0.3-0.4h0.1c0.3,0,0.3-0.1,0.4-0.3
			l0.8-0.4c0-0.2,0-0.3,0.1-0.4h0.3c0.1-0.1,0.1-0.3,0.3-0.4c0.3-0.1,0.5-0.3,0.6-0.6h0.4c0.1-0.4,0.4-0.7,0.8-0.7V372
			c0-0.1,0.1-0.3,0.4-0.3v-0.1c0.1,0,0.1-0.1,0.1-0.3s0.3-0.1,0.3-0.3v0.4c0.1-0.3,0.3-0.4,0.4-0.7h0.3c0-0.1,0.1-0.3,0.1-0.4
			c0.2,0,0.4-0.1,0.4-0.3c0,0,0-0.1,0-0.1l0.8-0.4c0-0.2,0.1-0.4,0.3-0.4c0,0,0.1,0,0.1,0c0-0.2,0.2-0.4,0.4-0.4l0.4-0.4
			c0-0.1,0.1-0.2,0.1-0.3h0.2l0.6-0.6c0.1-0.1,0.1-0.3,0.4-0.3s0.3-0.4,0.4-0.6h0.3c0-0.1,0.1-0.3,0.1-0.4c0.3-0.3,0.6-0.6,0.8-0.8
			h0.4c0.3-0.3,0.6-0.6,0.8-0.9c0-0.2,0.1-0.4,0.3-0.4c0,0,0.1,0,0.1,0c0.3-0.3,0.6-0.6,0.8-0.9c0-0.2,0.1-0.4,0.3-0.4
			c0,0,0.1,0,0.1,0c0-0.2,0.1-0.4,0.3-0.4c0,0,0.1,0,0.1,0c0-0.2,0.1-0.4,0.3-0.4c0,0,0.1,0,0.1,0c0-0.2,0.1-0.4,0.3-0.4
			c0,0,0.1,0,0.1,0V361h0.4v-0.4c0.3-0.1,0.4-0.3,0.4-0.4c0.3-0.1,0.4-0.3,0.4-0.4c0.1-0.1,0.3-0.2,0.4-0.1v-0.4
			c0.1,0,0.1-0.1,0.3-0.3c0.1,0,0.1-0.1,0.1-0.1v0c0.2-0.1,0.4-0.2,0.6-0.4c0.1-0.1,0.1-0.3,0.3-0.3c0.1-0.1,0.1-0.2,0.1-0.3
			c0.1-0.1,0.2-0.1,0.3-0.1l0.4-0.4c0.1-0.3,0.3-0.4,0.4-0.4c0-0.3,0.3-0.4,0.4-0.6l0.4-0.9c0.2,0,0.4-0.1,0.4-0.3c0,0,0-0.1,0-0.1
			c0.2,0,0.4-0.1,0.4-0.3c0,0,0-0.1,0-0.1c0.2,0,0.3,0,0.4-0.1c0-0.1,0-0.3,0.2-0.3v-0.1c0.1-0.1,0.3-0.1,0.3-0.3l0.4-0.4
			c0.3-0.4,0.6-0.9,0.8-1.3l0.4-0.4c0.2-0.1,0.4-0.2,0.6-0.4c0.1-0.2,0.2-0.3,0.3-0.4c0.1-0.1,0.1-0.1,0.1-0.3s0.2-0.1,0.3-0.1
			c0.4-1,1.5-1.4,1.4-2.8C887,346.8,886.2,346.2,885.2,345.5z"/>
		<polygon class="st0" points="651.3,380.1 651.3,380.1 651.3,380.1 		"/>
		<path class="st0" d="M646.2,376.2L646.2,376.2z"/>
		<path class="st0" d="M659.8,386L659.8,386z"/>
		<path class="st0" d="M690.1,401.8L690.1,401.8L690.1,401.8z"/>
		<path class="st0" d="M685,399.7L685,399.7L685,399.7z"/>
		<path class="st0" d="M701.9,68.9L701.9,68.9L701.9,68.9z"/>
		<path class="st0" d="M649.2,96.2L649.2,96.2z"/>
		<polygon class="st0" points="639.8,103.9 639.8,103.9 639.8,103.9 		"/>
		<polygon class="st0" points="870.3,107.7 870.3,107.7 870.3,107.7 		"/>
		<polygon class="st0" points="870.8,108.1 870.8,108.2 870.8,108.2 		"/>
		<polygon class="st0" points="864.4,135.1 864.4,135.1 864.4,135.1 		"/>
		<path class="st0" d="M872.5,127.8L872.5,127.8z"/>
		<polygon class="st0" points="878.8,116.3 878.8,116.3 878.9,116.3 		"/>
		<polygon class="st0" points="868.7,131.2 868.6,131.2 868.6,131.2 		"/>
		<polygon class="st0" points="872.9,127.4 872.9,127.4 872.9,127.4 		"/>
		<polygon class="st0" points="878,115.4 878,115.4 878,115.4 		"/>
		<polygon class="st0" points="878.4,115.8 878.4,115.8 878.4,115.8 		"/>
		<path class="st0" d="M879.2,116.7L879.2,116.7L879.2,116.7z"/>
		<polygon class="st0" points="855.5,143.2 855.4,143.2 855.4,143.2 		"/>
		<polygon class="st0" points="855.9,142.8 855.9,142.8 855.9,142.8 		"/>
		<polygon class="st0" points="678.5,325.4 678.5,325.4 678.5,325.4 		"/>
		<path class="st0" d="M728.7,351.5L728.7,351.5z"/>
		<path class="st0" d="M717.2,348L717.2,348z"/>
		<path class="st0" d="M656.8,299.3l-0.1,0.1l0,0L656.8,299.3z"/>
		<path class="st0" d="M640.6,257L640.6,257L640.6,257z"/>
		<path class="st0" d="M595.6,311.6L595.6,311.6L595.6,311.6z"/>
		<path class="st0" d="M588.8,294.5L588.8,294.5z"/>
		<polygon class="st0" points="585.8,285.2 585.9,285.1 585.9,285.1 		"/>
		<polygon class="st0" points="610.5,337.8 610.5,337.7 610.4,337.7 		"/>
		<path class="st0" d="M610.1,337.2L610.1,337.2z"/>
		<polygon class="st0" points="731.2,123.1 731.2,123.1 731.2,123.1 		"/>
		<path class="st0" d="M640.6,217.6L640.6,217.6L640.6,217.6z"/>
		<path class="st0" d="M804.9,133.3L804.9,133.3L804.9,133.3z"/>
		<path class="st0" d="M220.9,532.4L220.9,532.4z"/>
		<polygon class="st0" points="226.7,528.9 226.8,528.9 226.8,528.9 		"/>
		<path class="st0" d="M214.5,534.5L214.5,534.5L214.5,534.5z"/>
	</g>
</g>
</svg>
