<svg xmlns="http://www.w3.org/2000/svg" viewBox="0 0 65.57 46.75"><defs><style>.cls-1{fill:#212860;}</style></defs><g id="Layer_2" data-name="Layer 2"><g id="Layer_2-2" data-name="Layer 2"><path class="cls-1" d="M47.54,37.7h.63c.16,0,.23,0,.23.26v7.9c0,.44-1.3.89-2.22.89-1.91,0-3.17-1.12-3.17-3.42,0-1.54,1-3.41,3-3.41a2.53,2.53,0,0,1,1.35.36V38c0-.23,0-.3.23-.3ZM35.6,39.88a2.88,2.88,0,0,1,1.63.47,3.41,3.41,0,0,1,1.21,3,3.4,3.4,0,0,1-1.21,3,3,3,0,0,1-1.63.45A2.89,2.89,0,0,1,34,46.3a3.42,3.42,0,0,1-1.2-3,3.43,3.43,0,0,1,1.2-3A3.09,3.09,0,0,1,35.6,39.88Zm-15.32,0a2.81,2.81,0,0,1,1.63.47,3.41,3.41,0,0,1,1.22,3,3.4,3.4,0,0,1-1.22,3,3,3,0,0,1-1.63.45,2.92,2.92,0,0,1-1.63-.45,3.4,3.4,0,0,1-1.2-3,3.4,3.4,0,0,1,1.2-3A3.07,3.07,0,0,1,20.28,39.88Zm-11.43,0a2.88,2.88,0,0,1,1.63.47,3.43,3.43,0,0,1,1.21,3,3.42,3.42,0,0,1-1.21,3,3,3,0,0,1-1.63.45,2.9,2.9,0,0,1-1.63-.45,3.37,3.37,0,0,1-1.21-3,3.38,3.38,0,0,1,1.21-3A3,3,0,0,1,8.85,39.88Zm41.25.18h.66c.19,0,.23,0,.23.23v6c0,.22,0,.22-.23.23h-.68c-.19,0-.19-.05-.19-.23v-6c0-.16,0-.23.21-.23Zm11,0h.58c.16,0,.22,0,.22.14a.59.59,0,0,1-.06.25,7.8,7.8,0,0,1-2.24,2.65l0,0L62,46.25a.26.26,0,0,1,.09.16c0,.14-.13.14-.19.15h-.84c-.2,0-.25,0-.38-.19l-2.23-3.21s0-.06,0-.07a.28.28,0,0,1,0-.07,5.5,5.5,0,0,0,2.22-2.79c.07-.21.16-.2.4-.2ZM12,40h.78c.19,0,.21,0,.28.2L14.78,45l1.64-4.79c0-.12.07-.16.15-.18h.62c.06,0,.16,0,.16.13a.8.8,0,0,1,0,.19l-2.2,6c-.06.18-.08.2-.24.2H14.4c-.11,0-.13-.05-.21-.2l-2.26-6a.35.35,0,0,1,0-.18A.14.14,0,0,1,12,40Zm42.33-.11c.86,0,1.68.27,1.68.76a.43.43,0,0,1-.46.44c-.38,0-.57-.47-1.3-.47a1,1,0,0,0-1.08,1c0,1.41,3.08,1.06,3.08,3.19a2,2,0,0,1-2.3,2c-1,0-2-.44-2-1a.42.42,0,0,1,.47-.42c.43,0,.68.65,1.57.65a1.15,1.15,0,0,0,1.28-1.1c0-.67-.66-.95-1.39-1.26-.92-.39-1.68-.86-1.68-1.94a1.92,1.92,0,0,1,2.15-1.79Zm-13.09,0c.88,0,1.64.19,1.64.66a.51.51,0,0,1-.55.56c-.44,0-.56-.6-1.35-.6a.59.59,0,0,0-.65.57v5.25c0,.19-.07.2-.22.2h-.63c-.19,0-.26,0-.26-.2V40.59c0-.21.15-.41.59-.52A5.39,5.39,0,0,1,41.28,39.88Zm-5.68.74a1.39,1.39,0,0,0-1.07.42,3.35,3.35,0,0,0-.59,2.29,3.25,3.25,0,0,0,.59,2.28,1.35,1.35,0,0,0,1.07.4,1.4,1.4,0,0,0,1.1-.4,3.24,3.24,0,0,0,.58-2.28A3.22,3.22,0,0,0,36.7,41,1.42,1.42,0,0,0,35.6,40.62Zm-6.32-.74c2.49,0,2.52,1.32,2.52,2.08V46.3c0,.12,0,.24-.12.26H31c-.21,0-.29,0-.29-.26V42.11c0-.6,0-1.55-1.46-1.55-.86,0-1.34.3-1.34.57V46.3c0,.24-.08.26-.26.26H27c-.2,0-.25,0-.25-.24v-5.6c0-.23.15-.38.57-.53a6.37,6.37,0,0,1,1.94-.31Zm-9,.74a1.47,1.47,0,0,0-1.11.42,3.36,3.36,0,0,0-.58,2.29,3.31,3.31,0,0,0,.58,2.28,1.47,1.47,0,0,0,1.11.4,1.38,1.38,0,0,0,1.08-.4A3.23,3.23,0,0,0,22,43.33,3.21,3.21,0,0,0,21.38,41,1.37,1.37,0,0,0,20.3,40.62Zm-11.45,0A1.4,1.4,0,0,0,7.77,41a3.24,3.24,0,0,0-.6,2.29,3.19,3.19,0,0,0,.6,2.28,1.37,1.37,0,0,0,1.08.4,1.39,1.39,0,0,0,1.09-.4,3.24,3.24,0,0,0,.58-2.28A3.27,3.27,0,0,0,9.94,41,1.42,1.42,0,0,0,8.85,40.62Zm-6.33-.74C5,39.88,5.05,41.2,5.05,42V46.3c0,.12,0,.24-.13.26h-.7c-.22,0-.29,0-.29-.26V42.11c0-.6,0-1.55-1.46-1.55-.88,0-1.35.3-1.35.57V46.3c0,.24-.09.26-.26.26H.23c-.18,0-.23,0-.23-.24v-5.6c0-.23.14-.38.56-.53a6.53,6.53,0,0,1,2-.31Zm43.61.81c-1.15,0-2,1-2,2.56C44.15,45,45,46,46.22,46c.56,0,1.09-.18,1.09-.5h0V41.1a1.62,1.62,0,0,0-1.19-.41Zm11.28-3h.66c.15,0,.23,0,.23.19v8.5c0,.18-.07.18-.23.18h-.66c-.17,0-.2,0-.2-.19V37.89C57.21,37.7,57.28,37.68,57.41,37.68Zm-6.94-.08a.65.65,0,0,1,.65.63.68.68,0,0,1-.67.71.64.64,0,0,1-.67-.66.67.67,0,0,1,.69-.68Zm13.1-3.07a2,2,0,0,1,0,4,2,2,0,0,1,0-4Zm0,.35a1.65,1.65,0,0,0-1.66,1.67,1.67,1.67,0,1,0,1.66-1.67Zm-.85.6h.77c.87,0,.9.45.9.59a.61.61,0,0,1-.58.61,1.53,1.53,0,0,1,.46.53l.26.43h-.41l-.19-.33c-.25-.48-.36-.58-.64-.58h-.2v.92h-.37Zm.34.3v.65h.43c.15,0,.5,0,.5-.32s-.33-.34-.54-.34ZM14.13,6.66c.11,0,.24.15.35.44a6.28,6.28,0,0,0,3.59,3.8,6.06,6.06,0,0,0,6.1-1.1c.57-.45.76-.19.25.64a7.46,7.46,0,0,1-3,2.42c-.25.15-.54.27,0,.54a29.1,29.1,0,0,0,11.64,2.67c2.9,0,5.7-.45,7.18-.56s4.15,0,4.8,3.13c.47,2.22.43,8.71.41,14.93,0,.44,0,.7-.47.7-1.61,0-1.67.06-1.81.46a16.3,16.3,0,0,0-.48,1.69c-.14.57-.25.77-.63.77h-2c-.32,0-.48-.37-.22-.87,2.58-4.63,2.38-8.23.87-10.2-.48,1.83-.68,2.64-.92,2.81-3.11,2.36-4.69,7.36-4.82,7.76s-.33.51-.82.51H32c-.64,0-.6-.45-.22-.89,3.45-3.69,4.33-5.07,5.34-8.21S35.72,24,33.89,25.6c-4.75-2.16-6,.66-5.73,2.24.44,2.51,2.13,6.76,2.24,8.77,0,.51-.41.62-.68.62H27.61c-.65,0-.39-.63-.34-.92,1.07-5.17-1.12-8.11-3.31-9.49-1.31,1-3,6.6-3.26,9.68,0,.37-.22.7-.53.7H17.72c-.39,0-.46-.44-.16-1,1.25-2.27,3.23-5.82,3.19-9.59a4.07,4.07,0,0,0-.61-2.43,28,28,0,0,1-2.78-4.8,2.2,2.2,0,0,0-1.55-1.21c-.51-.1-.89,0-1.32-.16s-.65-.63-1-1a.92.92,0,0,1-.16-1.21,7.9,7.9,0,0,0,1.1-1.49,2.11,2.11,0,0,0,.11-.72,4.48,4.48,0,0,1,1-1.43c.18-.22,0-.6-.31-1A5.87,5.87,0,0,1,14,7.33c0-.44.08-.64.17-.67Zm8.92,8.56c-.2,0-.28.08-.43.28-2.18,3-2.63,4.6-2.44,5.81A5.27,5.27,0,0,0,23,24.65a13,13,0,0,1,3.54,2.54c.13.13.27.16.32-.09.53-3.49,3.46-4,7.27-3.93,5.37.09,6.4,1.84,7.07,1.57s1.08-3,1.2-4.94.25-3.52-2.15-3.33c.57,1.17.67,2.45-.37,3.18S38,20,38,19.34a3.69,3.69,0,0,0-.86-2.47l-1,.12c.23,1,.5,3-.3,3.76s-3,.86-5.38.68a1.39,1.39,0,0,1-1.22-.77c-.12-.27-.3-.94-.34-3.91-.41-.06-.73-.11-1.13-.2-.42,2.86-1.38,3.92-2.39,4.17s-2.16,0-1.95-1a20.49,20.49,0,0,0,.79-4.11,5.73,5.73,0,0,0-1.15-.36ZM39.4,16.57c-.46.05-.9.11-1.33.18a4.27,4.27,0,0,1,.78,2.5,1.13,1.13,0,0,0,1-.69A2.51,2.51,0,0,0,39.4,16.57Zm-14.29-.69a23.2,23.2,0,0,1-.63,3.34c-.26.82.45.75.77.62s1.23-.91,1.64-3.48C26.29,16.21,25.7,16.06,25.11,15.88Zm4.61,1c.06.89.07,2.23.21,2.95s.37.67.61.7c.87.13,3.89.27,4.57-.41.42-.43.45-1.91.16-3.05A29.48,29.48,0,0,1,29.72,16.87ZM17,12.35a.93.93,0,0,0-.42.23,5.3,5.3,0,0,0-1.08,1.35c-.11.23-.05.77-.27,1.06l-.68.94c-.43.53-.23.57.23,1.13s1.39-.17,2.52.72c.57.45,1.26,2.13,1.76,2.79a13.52,13.52,0,0,1,2.32-5.06c.72-1.14.07-.86-2-2.15-1.31-.78-1.91-1.1-2.35-1Zm.35,1.51c.18,0,.31,0,.33.08.09.22-.92,1.47-1.45.7C15.83,14.1,16.8,13.85,17.33,13.86Zm26.3,7.59a.12.12,0,0,0-.11.12A37.53,37.53,0,0,0,43.14,26c.12.71.52,2.42.61,3.17.07.58.33.36.36.07.16-1.15.41-6.95-.32-7.71a.21.21,0,0,0-.16-.08ZM20.3,0a4.95,4.95,0,1,1-4.93,4.94A4.93,4.93,0,0,1,20.3,0Zm.14,1.16a3.27,3.27,0,1,0,3.27,3.29v0a3.27,3.27,0,0,0-3.27-3.27Z"/></g></g></svg>