<svg xmlns="http://www.w3.org/2000/svg" viewBox="0 0 89.38 22.98"><defs><style>.cls-1{fill:#010101;}.cls-2{fill:#6b4d9f;}</style></defs><g id="Layer_2" data-name="Layer 2"><g id="Layer_2-2" data-name="Layer 2"><path class="cls-1" d="M36.49,15.2V8.76a2.77,2.77,0,0,1,0-.41,1.19,1.19,0,0,1,.85-1,19.69,19.69,0,0,1,5-1.08,15.48,15.48,0,0,1,3.6.08,8,8,0,0,1,2.5.78,5,5,0,0,1,2.67,3.78,7.34,7.34,0,0,1,.1,1.32V22c0,.46-.22.68-.67.68H47.67A.6.6,0,0,1,47,22c0-.1,0-.22,0-.33V12.93a3.52,3.52,0,0,0-.14-1.12,2.47,2.47,0,0,0-2-1.66,7,7,0,0,0-2.33,0,8.3,8.3,0,0,0-1.07.19c-.6.14-.78.38-.78,1V22a.61.61,0,0,1-.67.66c-.5,0-1,0-1.51,0s-.88,0-1.32,0-.72-.23-.72-.74Z"/><path class="cls-1" d="M12.42,22.64H11c-.48,0-.64-.22-.51-.71a4.79,4.79,0,0,0,.18-1.07,2.51,2.51,0,0,0-1.11-2.18,6.71,6.71,0,0,0-1.79-.86c-1-.33-2.11-.64-3.15-1A9.13,9.13,0,0,1,2.2,15.72,4.33,4.33,0,0,1,.25,12.16,5.46,5.46,0,0,1,4.13,6.54,9.75,9.75,0,0,1,7.68,6a13.72,13.72,0,0,1,5.53,1.27c.25.11.49.24.74.38a.81.81,0,0,1,.41,1.16c-.08.2-.17.39-.26.59-.24.51-.47,1-.72,1.53a.85.85,0,0,1-1.3.43,12.16,12.16,0,0,0-2.95-1.19A6.64,6.64,0,0,0,6,10.08a2.41,2.41,0,0,0-.89.37,1.26,1.26,0,0,0-.07,2.13,4,4,0,0,0,1.13.58c1,.36,2,.6,3,.91a14.46,14.46,0,0,1,2.69,1.06,6.78,6.78,0,0,1,1.6,1.17,5.2,5.2,0,0,1,1.46,3.64,6.14,6.14,0,0,1-.2,1.86l-.09.29a.71.71,0,0,1-.79.56Z"/><path class="cls-1" d="M73.71,14.07V6.62a8.14,8.14,0,0,1,.61-3.2,5.38,5.38,0,0,1,4-3.2,9.25,9.25,0,0,1,3.92,0l.07,0c.64.15.78.36.66,1s-.21,1.14-.32,1.7-.32.73-.92.65a8.44,8.44,0,0,0-1.42-.14,3.4,3.4,0,0,0-.78.1,2.06,2.06,0,0,0-1.62,2c0,.23,0,.46,0,.68s0,.28.26.28h3.74c.57,0,.76.2.77.77s0,1.35,0,2-.2.76-.78.76H78a.12.12,0,0,0-.14.14v.3c0,3.75,0,7.5,0,11.26,0,.62-.16.94-.91.91s-1.65,0-2.48,0a.7.7,0,0,1-.8-.79C73.72,19.26,73.71,16.66,73.71,14.07Z"/><path class="cls-1" d="M89.24,14.55v7.34c0,.56-.2.75-.78.75H85.67A.6.6,0,0,1,85,22c0-.11,0-.22,0-.33V7.4c0-.76.18-.92.93-.92h2.52c.56,0,.76.2.77.77Z"/><path class="cls-2" d="M89.37,2.27a2,2,0,0,1-1.45,2.11,2.73,2.73,0,0,1-1.55,0,2.08,2.08,0,0,1-1.49-2.25A3.21,3.21,0,0,1,85,1.59a1.9,1.9,0,0,1,1.5-1.5,2.74,2.74,0,0,1,1.6.08,2,2,0,0,1,1.32,1.76C89.38,2,89.37,2.16,89.37,2.27Z"/><path class="cls-2" d="M4.5,20.72a5.2,5.2,0,0,1-.08.69,2,2,0,0,1-1.63,1.51,2.65,2.65,0,0,1-1.34-.07A1.92,1.92,0,0,1,.1,21.46a2.81,2.81,0,0,1,0-1.6,1.87,1.87,0,0,1,1.4-1.29,2.85,2.85,0,0,1,1.45,0,2,2,0,0,1,1.49,1.77C4.49,20.49,4.5,20.61,4.5,20.72Z"/><path class="cls-1" d="M32.56,8.53a1.21,1.21,0,0,0-.89-1.21l-.11,0A17.72,17.72,0,0,0,26.73,6.2a11.79,11.79,0,0,0-3.51.18,7.38,7.38,0,0,0-5.71,5.16,10.24,10.24,0,0,0,.1,6.54,6.68,6.68,0,0,0,3,3.75,8.18,8.18,0,0,0,3.79,1.09A15.9,15.9,0,0,0,29,22.56a17.31,17.31,0,0,0,2.75-.89,1.26,1.26,0,0,0,.82-1.12c0-.13,0-.25,0-.38V8.86C32.56,8.76,32.57,8.64,32.56,8.53Zm-4.8,10.18a6.45,6.45,0,0,1-3.64.22,3.43,3.43,0,0,1-2.45-2.29,6.16,6.16,0,0,1,0-4.13,3.51,3.51,0,0,1,3.25-2.44,7.51,7.51,0,0,1,2.5.22l.29.09a.85.85,0,0,1,.66.93v3.27c0,1.08,0,2.16,0,3.24A.84.84,0,0,1,27.76,18.71Z"/><path class="cls-1" d="M70.24,11.89a7.43,7.43,0,0,0-4.7-5.2,9.2,9.2,0,0,0-4.82-.39,7.18,7.18,0,0,0-5.45,4,9.51,9.51,0,0,0-.33,7.73,7.2,7.2,0,0,0,4.75,4.49,9.05,9.05,0,0,0,4.2.33A7.32,7.32,0,0,0,69.57,19a9.69,9.69,0,0,0,1-4.71A9.54,9.54,0,0,0,70.24,11.89Zm-4.31,4.86a3.47,3.47,0,0,1-3.79,2.31,4.3,4.3,0,0,1-1.24-.28,3.4,3.4,0,0,1-2-2.07,6.37,6.37,0,0,1,0-4.35A3.42,3.42,0,0,1,62.38,10a4.71,4.71,0,0,1,1.12.14,3.36,3.36,0,0,1,2.43,2.19A6.12,6.12,0,0,1,65.93,16.75Z"/></g></g></svg>