<svg xmlns="http://www.w3.org/2000/svg" viewBox="0 0 79.38 38.56"><defs><style>.cls-1{fill:#5050a2;}.cls-2{fill:#50509f;}.cls-3{fill:#5050a0;}.cls-4{fill:#5050a1;}.cls-5{fill:#4f509e;}.cls-6{fill:#5051a0;}.cls-7{fill:#5151a0;}.cls-8{fill:#5051a1;}.cls-9{fill:#5250a0;}.cls-10{fill:#50519f;}.cls-11{fill:#50519e;}.cls-12{fill:#50509d;}.cls-13{fill:#4f519f;}.cls-14{fill:#4f509d;}.cls-15{fill:#51519e;}.cls-16{fill:#51519f;}.cls-17{fill:#51509f;}.cls-18{fill:#4f51a0;}.cls-19{fill:#5251a0;}.cls-20{fill:#52539f;}.cls-21{fill:#51509e;}.cls-22{fill:#5052a0;}.cls-23{fill:#52519e;}.cls-24{fill:#53519f;}.cls-25{fill:#50519d;}.cls-26{fill:#4f519e;}.cls-27{fill:#50529f;}.cls-28{fill:#5354a0;}.cls-29{fill:#52519f;}.cls-30{fill:#4f52a0;}.cls-31{fill:#51529f;}.cls-32{fill:#54539b;}.cls-33{fill:#53529c;}.cls-34{fill:#52529b;}.cls-35{fill:#51519d;}.cls-36{fill:#52529d;}.cls-37{fill:#51529d;}.cls-38{fill:#52519c;}.cls-39{fill:#52529c;}.cls-40{fill:#525298;}.cls-41{fill:#52519b;}.cls-42{fill:#52519a;}.cls-43{fill:#53519c;}.cls-44{fill:#53539a;}.cls-45{fill:#51529b;}.cls-46{fill:#52539b;}.cls-47{fill:#51529c;}.cls-48{fill:#54529c;}.cls-49{fill:#54539c;}.cls-50{fill:#53519b;}.cls-51{fill:#525399;}.cls-52{fill:#53539c;}.cls-53{fill:#54529a;}.cls-54{fill:#50529c;}.cls-55{fill:#fbdab1;}.cls-56{fill:#167b9e;}.cls-57{fill:#7c4322;}.cls-58{fill:#537a85;}.cls-59{fill:#637e7a;}.cls-60{fill:#51baca;}.cls-61{fill:#5f3f24;}.cls-62{fill:#634126;}.cls-63{fill:#8e603a;}.cls-64{fill:#f4dfc7;}</style></defs><g id="Layer_2" data-name="Layer 2"><g id="Layer_2-2" data-name="Layer 2"><path class="cls-1" d="M35.18,7.56A10.37,10.37,0,0,1,36.09,3,5.17,5.17,0,0,1,38.36.56a4.84,4.84,0,0,1,6.21,1.53A7.77,7.77,0,0,1,45.88,5.6a12.39,12.39,0,0,1-.4,5.61,6.15,6.15,0,0,1-1.91,2.92,4.74,4.74,0,0,1-6.66-.72A7.86,7.86,0,0,1,35.35,9.7,14,14,0,0,1,35.18,7.56Zm5.75-5.24a2.25,2.25,0,0,0-1.81.43,3.66,3.66,0,0,0-1.31,2,10.09,10.09,0,0,0-.22,4.73,5.28,5.28,0,0,0,1,2.42,2.48,2.48,0,0,0,3.76.29,4.29,4.29,0,0,0,1.07-1.9,10.29,10.29,0,0,0,.22-4.55,5.19,5.19,0,0,0-1-2.44,2.33,2.33,0,0,0-1.44-.93C41.12,2.3,41,2.33,40.93,2.32Z"/><path class="cls-1" d="M33.31,14.9c-.3,0-.61,0-.91,0s-.23-.06-.27-.22c-.28-1.18-.57-2.35-.84-3.53,0-.16-.1-.21-.26-.21H27.32c-.18,0-.23.06-.27.22-.27,1.17-.56,2.34-.84,3.51,0,.17-.1.24-.29.23h-1.8c-.18,0-.19-.06-.15-.2q1.44-5.2,2.86-10.4c.34-1.26.69-2.51,1-3.77.05-.18.12-.25.31-.24.69,0,1.38,0,2.06,0,.21,0,.28.07.33.25q1.26,4.65,2.54,9.28.66,2.43,1.33,4.85c.06.2,0,.24-.18.23ZM29.2,2.3a.21.21,0,0,0-.11.19c-.43,2.09-.93,4.15-1.44,6.22,0,.19,0,.21.17.21h2.69c.22,0,.22-.07.18-.25-.38-1.56-.78-3.13-1.12-4.71C29.45,3.42,29.33,2.87,29.2,2.3Z"/><path class="cls-1" d="M48.5,7.6c0-2.35,0-4.71,0-7.06,0-.18,0-.25.24-.25h3.94a6,6,0,0,1,2,.34A3.45,3.45,0,0,1,56.91,3.1a6.22,6.22,0,0,1-.09,3.65,4,4,0,0,1-3.33,2.7,15.5,15.5,0,0,1-2.55.08c-.21,0-.26.06-.26.27,0,1.62,0,3.25,0,4.87,0,.17,0,.23-.22.23H48.74c-.2,0-.25-.06-.25-.25Q48.51,11.13,48.5,7.6Zm2.18-2.7V7.27c0,.15,0,.2.19.2.64,0,1.28,0,1.92,0a2.15,2.15,0,0,0,2.13-1.91A4.67,4.67,0,0,0,55,4.4a1.92,1.92,0,0,0-1.69-1.94,14.3,14.3,0,0,0-2.36-.1c-.17,0-.22,0-.22.22C50.69,3.35,50.68,4.13,50.68,4.9Z"/><path class="cls-1" d="M18.83,15.17a5.8,5.8,0,0,1-4.29-2c-.08-.08-.1-.14,0-.24q.56-.75,1.08-1.5c.1-.15.15-.12.25,0a4.81,4.81,0,0,0,2.41,1.45,3,3,0,0,0,1.55-.06A1.66,1.66,0,0,0,21,11.34a1.74,1.74,0,0,0-.73-1.8,21.71,21.71,0,0,0-2.12-1.15,10.22,10.22,0,0,1-1.8-1.08A4.19,4.19,0,0,1,16.91.62,4.35,4.35,0,0,1,21.6.76a5.5,5.5,0,0,1,1.2,1,.17.17,0,0,1,0,.25c-.28.4-.56.81-.83,1.22s-.2.29-.45,0a3.71,3.71,0,0,0-2.05-1,2.77,2.77,0,0,0-1.18.11,1.67,1.67,0,0,0-.54,2.86,6.76,6.76,0,0,0,1.45.84c.63.32,1.26.62,1.88,1a3.8,3.8,0,0,1,2.14,3.07,4.48,4.48,0,0,1-1,3.61A4.28,4.28,0,0,1,18.83,15.17Z"/><path class="cls-2" d="M60.2,37c.8,0,.64,0,.65-.58,0-.24,0-.47,0-.71s0-.19.19-.18h.84a1,1,0,0,1,1.06,1c0,.45,0,.45.44.45h1.29c.1,0,.14,0,.15-.14,0-.61-.44-.87-1.07-.72-.07,0-.16.12-.22,0a3.83,3.83,0,0,1-.17-.43l.09-.07a1.74,1.74,0,0,1,1-.07,1.13,1.13,0,0,1,.91,1.13c0,.1-.05.26.09.28a.8.8,0,0,0,.57,0c.08,0,0-.14,0-.22,0-.61,0-1.23,0-1.85,0-.19.07-.27.24-.22s.34-.12.35.12c0,.71,0,1.42,0,2.13a.68.68,0,0,1-.65.66H63a.94.94,0,0,0-.93,0,.86.86,0,0,1-.72-.15c-.07-.05-.13-.07-.2,0a.71.71,0,0,1-.52.17H57.85c-.22,0-.41-.18-.59-.16s-.35.17-.56.16-.58.09-.81-.06a.63.63,0,0,0-.65,0,.92.92,0,0,1-1.07-.25,1,1,0,0,1-.2-1.16.91.91,0,0,1,.91-.57h.91c.13,0,.16,0,.16.16,0,.35,0,.7,0,1.05,0,.2.07.28.27.28.73,0,.73,0,.73-.72v0c0-.4.08-.46.48-.38.11,0,.1.08.1.15v.63c0,.23.11.34.34.35h.63c.17,0,.17,0,.11-.17s-.13-.27-.19-.41a.51.51,0,0,1,.3-.77,1.75,1.75,0,0,1,.78-.15.88.88,0,0,1,.8,1.26A2,2,0,0,1,60.2,37Zm1.56-.89c-.33,0-.33,0-.33.34a.86.86,0,0,0,0,.16.42.42,0,0,0,.46.4.45.45,0,0,0,.46-.43.42.42,0,0,0-.41-.46Zm-6.68,0a.85.85,0,0,0-.36,0,.42.42,0,0,0-.24.54A.46.46,0,0,0,55,37c.29-.06.4-.29.38-.75C55.36,36,55.16,36.14,55.08,36.07Zm4.33,0-.23,0c-.24.05-.26.07-.14.3l.16.33c.12.25.21.27.4.07a.67.67,0,0,0,.16-.25C59.87,36.25,59.73,36.05,59.41,36.05Z"/><path class="cls-3" d="M60.93,11.74c0-1,0-1.94,0-2.91,0-.17,0-.22.22-.21.51,0,1,0,1.53,0a2.15,2.15,0,0,1,2,1.5,4.81,4.81,0,0,1,0,3.2,2.21,2.21,0,0,1-2.21,1.56H61.16c-.18,0-.24,0-.24-.23C60.93,13.69,60.93,12.72,60.93,11.74Zm.93,0v1.82c0,.41,0,.41.4.41a1.47,1.47,0,0,0,1.54-1.14,4,4,0,0,0,0-2.2,1.43,1.43,0,0,0-.89-1,2.51,2.51,0,0,0-.86-.11c-.16,0-.21.05-.21.21C61.86,10.41,61.86,11.09,61.86,11.77Z"/><path class="cls-4" d="M56.58,11.77c0-1,0-2,0-2.93,0-.17,0-.23.22-.22.91,0,1.83,0,2.74,0,.17,0,.24,0,.22.22a4.86,4.86,0,0,0,0,.54c0,.15,0,.18-.19.18H57.72c-.16,0-.21,0-.21.21,0,.4,0,.8,0,1.2,0,.18.06.22.23.21.48,0,1,0,1.45,0,.2,0,.24.07.23.24a2.78,2.78,0,0,0,0,.5c0,.15,0,.21-.21.21h-1.5c-.16,0-.2.05-.2.2,0,.49,0,1,0,1.48,0,.16.06.19.21.19h1.92c.14,0,.21,0,.2.2a3.74,3.74,0,0,0,0,.58c0,.13,0,.16-.16.16H56.77c-.16,0-.19-.06-.19-.2C56.59,13.72,56.58,12.74,56.58,11.77Z"/><path class="cls-5" d="M15.59,37a1.09,1.09,0,0,1,0-.9,1,1,0,0,1,1.14-.56,1,1,0,0,1,.77,1,0,0,0,0,0,0,0c0,.16-.08.41,0,.46a1.59,1.59,0,0,0,.62,0c.14,0,.09-.12.09-.2q0-1,0-1.92c0-.21.08-.25.26-.23s.35-.06.32.24,0,.51,0,.77.06.21.23.16.5-.16.76-.24a1.13,1.13,0,0,1,1.5,1.11c0,.83-.05.89-.88.89H15.26a.83.83,0,0,1-.65-.2.76.76,0,0,1-.22-.57c0-.64,0-1.29,0-1.94,0-.18.06-.24.23-.22a.33.33,0,0,0,.14,0c.16,0,.22,0,.21.21,0,.59,0,1.18,0,1.78,0,.36,0,.36.36.36Zm4.17,0h.8c.08,0,.14,0,.17-.11a.6.6,0,0,0-.8-.75l-.78.24c-.36.11-.36.11-.34.48,0,.1,0,.15.15.14Zm-2.83-.28c0-.43-.16-.64-.44-.63a.47.47,0,0,0-.44.48c0,.29.21.42.62.44S17,36.85,16.93,36.69Z"/><path class="cls-2" d="M49.41,37a1.1,1.1,0,0,1,0-.16c0-.56-.37-.81-1-.72-.1,0-.23.13-.3,0a1,1,0,0,1-.18-.4c0-.08,0-.1.07-.11.86-.33,1.94,0,1.93,1.11,0,.18.06.25.24.24.47,0,.47,0,.47-.44s0-1.13,0-1.69c0-.18.05-.24.22-.22a.74.74,0,0,0,.21,0c.12,0,.15,0,.15.15,0,.69,0,1.38,0,2.06a.71.71,0,0,1-.74.72c-1,0-1.89,0-2.84,0-.28,0-.35,0-.42.3a1,1,0,0,1-.79.68c-.11,0-.16,0-.19-.1a.7.7,0,0,0-.08-.2c-.1-.17,0-.23.14-.27s.42-.21.42-.55q0-.85,0-1.71c0-.16.05-.2.2-.2.38,0,.38,0,.38.38s0,.51,0,.77a.29.29,0,0,0,.32.33Z"/><path class="cls-6" d="M41.74,36.27c0,.2,0,.39,0,.59a.69.69,0,0,1-.64.68c-.37,0-.73,0-1.1,0a.46.46,0,0,1-.31-.09.28.28,0,0,0-.41,0,1,1,0,0,1-1.14-.13,1.07,1.07,0,0,1-.29-1.16.91.91,0,0,1,.89-.64c.32,0,.64,0,1,0,.14,0,.17,0,.16.18,0,.34,0,.68,0,1,0,.19.06.28.27.27H41c.16,0,.22-.06.22-.22,0-.36,0-.72,0-1.08,0-.14,0-.18.18-.18.4,0,.4,0,.4.38v.4ZM39,36.07c-.42,0-.62.14-.61.44a.44.44,0,0,0,.45.46c.29,0,.47-.2.47-.55S39.35,36.09,39,36.07Z"/><path class="cls-7" d="M33.83,36.56c0,.32,0,.64,0,1a1.06,1.06,0,0,1-.91,1,4.07,4.07,0,0,1-.49.05c-.38,0-.37,0-.38-.37,0-.18.05-.21.21-.21a2.19,2.19,0,0,0,.51,0,.55.55,0,0,0,.39-.2s.08-.08.06-.14-.09-.05-.14-.05h-.26a1,1,0,0,1-1-1,1,1,0,0,1,1-1h.85c.12,0,.16,0,.16.16,0,.3,0,.61,0,.91Zm-.57,0c0-.47,0-.47-.4-.46a.44.44,0,0,0-.46.45c0,.31.23.45.66.45s.14-.26.2-.4Z"/><path class="cls-8" d="M40,21.63a1.13,1.13,0,0,1,1.17.88,1.89,1.89,0,0,1-.07,1.22,1.14,1.14,0,0,1-1.12.72,1.16,1.16,0,0,1-1.1-.73,2,2,0,0,1-.07-1.15A1.12,1.12,0,0,1,40,21.63Zm.6,1.35a1,1,0,0,0-.13-.55.54.54,0,0,0-.94,0,1.29,1.29,0,0,0,0,1.22.51.51,0,0,0,.48.28.54.54,0,0,0,.47-.31A1.32,1.32,0,0,0,40.62,23Z"/><path class="cls-8" d="M57.58,29.43a1.25,1.25,0,0,1,.84-1.33,1.2,1.2,0,0,1,1.6,1,1.55,1.55,0,0,1-.38,1.41,1.23,1.23,0,0,1-2.06-.87A2.26,2.26,0,0,1,57.58,29.43Zm1.83,0a1.06,1.06,0,0,0-.11-.56.53.53,0,0,0-.49-.32.52.52,0,0,0-.5.32,1.3,1.3,0,0,0,0,1.17.52.52,0,0,0,.88.06A1,1,0,0,0,59.41,29.46Z"/><path class="cls-9" d="M71.31,31.71a1.22,1.22,0,0,1-.65-.14.41.41,0,0,1-.08-.7c.08-.07.15-.11,0-.23a.38.38,0,0,1,0-.55c.06-.07.08-.11,0-.18a.65.65,0,0,1-.12-.76.7.7,0,0,1,.64-.43c.38,0,.76.05,1.14,0,.18,0,.07.17.09.26s0,.19-.11.18-.2,0-.16.18a.63.63,0,0,1-.49.75,1.11,1.11,0,0,1-.48,0c-.07,0-.13,0-.15.07a.14.14,0,0,0,.07.18.55.55,0,0,0,.25,0,3.65,3.65,0,0,1,.66,0c.19.05.38.12.43.35a.58.58,0,0,1-.22.62A1.43,1.43,0,0,1,71.31,31.71Zm0-.38a.73.73,0,0,0,.39-.09c.07,0,.14-.11.11-.21s-.1-.11-.18-.11-.36,0-.53,0A.17.17,0,0,0,71,31a.18.18,0,0,0,.09.24A.76.76,0,0,0,71.36,31.33Zm0-2.21c-.19,0-.28.12-.28.35s.08.32.29.32.29-.15.28-.35A.29.29,0,0,0,71.34,29.12Z"/><path class="cls-10" d="M18.23,24.34c-.23-.29-.24-.41,0-.69.07-.08,0-.11,0-.17a.71.71,0,0,1,.47-1.19,11.84,11.84,0,0,1,1.19.05c.16,0,.07.17.08.26s0,.19-.11.17-.18.05-.15.2a.62.62,0,0,1-.42.7.93.93,0,0,1-.52.06c-.1,0-.18,0-.19.1s.06.15.15.17h.61c.38,0,.61.15.66.39a.65.65,0,0,1-.42.73,1.66,1.66,0,0,1-1,.11c-.24,0-.47-.11-.55-.37A.47.47,0,0,1,18.23,24.34Zm.68.56a.74.74,0,0,0,.36-.09c.08,0,.14-.1.12-.2s-.1-.12-.19-.12l-.53,0c-.11,0-.17,0-.19.13a.17.17,0,0,0,.08.22A.72.72,0,0,0,18.91,24.9Zm.24-1.83c0-.24-.11-.4-.28-.39a.31.31,0,0,0-.29.34.31.31,0,0,0,.29.35A.28.28,0,0,0,19.15,23.07Z"/><path class="cls-7" d="M9.52,30.44a2.38,2.38,0,0,1,.46,0,.51.51,0,0,1,.25.89,1.41,1.41,0,0,1-1.18.33,1.55,1.55,0,0,1-.36-.08.44.44,0,0,1-.15-.78c.07-.06.1-.08,0-.17a.4.4,0,0,1,0-.57c.07-.07.08-.1,0-.19a.71.71,0,0,1,.49-1.19,9.16,9.16,0,0,1,1.17.05c.18,0,.06.18.09.28s0,.16-.12.15-.19,0-.16.18c.08.5-.3.83-.87.79-.1,0-.24-.1-.25.09s.12.16.23.17Zm-.21.48-.25,0c-.09,0-.14.05-.18.12a.18.18,0,0,0,0,.21.76.76,0,0,0,.81,0A.16.16,0,0,0,9.8,31a.16.16,0,0,0-.16-.11C9.52,30.91,9.41,30.92,9.31,30.92Zm.25-1.5a.29.29,0,0,0-.28-.31c-.17,0-.29.14-.28.35s.06.32.27.34S9.57,29.66,9.56,29.42Z"/><path class="cls-7" d="M52.49,25.29a1.67,1.67,0,0,1-.58-.12.43.43,0,0,1-.12-.73c.1-.09.11-.13,0-.23a.4.4,0,0,1,0-.54c.08-.08.08-.12,0-.2a.64.64,0,0,1-.12-.72.7.7,0,0,1,.6-.46c.4,0,.79.06,1.19.05.18,0,.06.19.09.28s0,.16-.12.15-.18,0-.16.19c.08.5-.3.82-.88.78-.09,0-.21-.09-.23.08s.12.18.23.19.43,0,.64,0,.45.08.53.34a.61.61,0,0,1-.25.68A1.67,1.67,0,0,1,52.49,25.29Zm.08-.81h-.23a.15.15,0,0,0-.18.11.19.19,0,0,0,.06.23.8.8,0,0,0,.78,0,.15.15,0,0,0,.07-.16.14.14,0,0,0-.15-.12A2.06,2.06,0,0,0,52.57,24.48ZM52.27,23c0,.24.12.38.29.37s.27-.16.28-.34-.13-.36-.3-.35A.29.29,0,0,0,52.27,23Z"/><path class="cls-11" d="M13.8,36.27v1.38a.66.66,0,0,1-.72.72,5.3,5.3,0,0,1-.89,0,1.13,1.13,0,0,1-.94-1.12c0-.2,0-.39,0-.59s.05-.18.19-.18c.39,0,.41,0,.39.4-.05.82.25,1,.95.94h.14c.22,0,.31-.08.31-.3,0-.88,0-1.75,0-2.63,0-.16,0-.28.22-.24s.38-.09.36.25,0,.93,0,1.4Z"/><path class="cls-12" d="M24,35.82v1a.72.72,0,0,1-.76.77c-.45,0-.89,0-1.33,0-.16,0-.22,0-.2-.19s0,0,0,0c0-.36,0-.37.35-.35s.28,0,.28-.27c0-.45,0-.9,0-1.36,0-.16,0-.21.2-.21.38,0,.38,0,.38.38v1.25c0,.13,0,.23.18.21s.33,0,.32-.22c0-.6,0-1.2,0-1.8,0-.11-.08-.27.05-.32a1.19,1.19,0,0,1,.46,0c.09,0,.07.11.07.17v1Z"/><path class="cls-13" d="M36.53,35.83c0,.32,0,.64,0,1a.71.71,0,0,1-.74.76H34.4c-.12,0-.16,0-.16-.15,0-.42,0-.43.4-.42.18,0,.23,0,.22-.23,0-.46,0-.92,0-1.38,0-.19.06-.25.24-.23h.19c.14,0,.17,0,.17.18,0,.48,0,1,0,1.43,0,.14,0,.24.19.23s.32,0,.32-.23c0-.63,0-1.27,0-1.9,0-.18,0-.26.23-.23a.6.6,0,0,0,.19,0c.13,0,.17.05.17.18C36.52,35.14,36.53,35.48,36.53,35.83Z"/><path class="cls-8" d="M46,28.87c0-.27,0-.53,0-.79s0-.19.18-.19c.44,0,.44,0,.44.42,0,.75,0,1.49,0,2.23,0,.09.1.27-.09.28s-.39.12-.46-.18a1.11,1.11,0,0,1-.46.23.76.76,0,0,1-.84-.5,1.41,1.41,0,0,1,0-1.14A.8.8,0,0,1,46,28.87Zm0,.91a1.47,1.47,0,0,1,0-.21.28.28,0,0,0-.24-.36.35.35,0,0,0-.42.22.93.93,0,0,0,0,.75.3.3,0,0,0,.38.18A.28.28,0,0,0,46,30,2.25,2.25,0,0,1,46,29.78Z"/><path class="cls-7" d="M64,24.21a.81.81,0,0,1-1.38-.54,1.41,1.41,0,0,1,0-.76A.83.83,0,0,1,64,22.43c0-.26,0-.51,0-.76s0-.21.19-.21c.43,0,.43,0,.43.41v2.25c0,.09.07.26-.09.27S64.1,24.53,64,24.21ZM64,23.36a1,1,0,0,1,0-.24.27.27,0,0,0-.24-.33.33.33,0,0,0-.41.18.93.93,0,0,0,0,.8.32.32,0,0,0,.4.16.27.27,0,0,0,.24-.31Z"/><path class="cls-7" d="M27.31,35.5h.49a1,1,0,0,1,.9,1.21,1,1,0,0,1-1.21.81c-.16-.05-.21,0-.26.15a1,1,0,0,1-.74.74c-.09,0-.15,0-.16-.1a1.18,1.18,0,0,0,0-.2c-.06-.16,0-.25.15-.31s.27-.3.27-.52c0-.53,0-1.05,0-1.57,0-.2.06-.24.24-.22h.37Zm0,.85c0,.43.14.62.43.62a.43.43,0,0,0,.44-.45c0-.31-.19-.43-.6-.45S27.25,36.17,27.28,36.35Z"/><path class="cls-7" d="M44.68,36.24c0,.19,0,.37,0,.56a.73.73,0,0,1-.71.75,2.47,2.47,0,0,1-.72,0c-.13,0-.14,0-.16.11a1.05,1.05,0,0,1-.76.87c-.15,0-.27,0-.3-.14a.37.37,0,0,0-.05-.11c-.09-.17-.08-.26.14-.31a.48.48,0,0,0,.41-.55c0-.56,0-1.12,0-1.68,0-.17,0-.26.21-.22h.12c.19,0,.26,0,.25.24a8.42,8.42,0,0,0,0,.87c0,.26.11.37.37.37.74,0,.6.09.61-.59,0-.24,0-.47,0-.7s.05-.19.19-.19c.41,0,.41,0,.41.4v.35Z"/><path class="cls-14" d="M36.44,22.43c0-.27,0-.53,0-.79s0-.18.17-.18c.44,0,.44,0,.44.42V24.2c0,.07.05.2-.09.19s-.33.11-.42-.07-.08-.08-.15,0a.77.77,0,0,1-1.23-.47,1.59,1.59,0,0,1,0-.81A.84.84,0,0,1,36.44,22.43Zm0,.91a1.2,1.2,0,0,1,0-.19c0-.19,0-.33-.24-.36a.34.34,0,0,0-.43.26,1,1,0,0,0,0,.67.31.31,0,0,0,.41.21.28.28,0,0,0,.25-.33A2.26,2.26,0,0,1,36.44,23.34Z"/><path class="cls-6" d="M74.09,24.26a.82.82,0,0,1-1.33-.67,1.73,1.73,0,0,1,0-.64.81.81,0,0,1,1.35-.45.47.47,0,0,1,.51-.17c.06,0,0,.1,0,.15V25c0,.12,0,.16-.15.16-.57,0-.45.07-.46-.43Zm0-.93h0a1.2,1.2,0,0,1,0-.19c0-.2,0-.33-.25-.36a.35.35,0,0,0-.41.26.94.94,0,0,0,0,.66.31.31,0,0,0,.4.23.28.28,0,0,0,.26-.34A2.26,2.26,0,0,1,74.09,23.33Z"/><path class="cls-6" d="M15.45,21.67c.43,0,.33-.08.47.35.23.72.45,1.44.68,2.16.06.16.06.23-.15.22-.43,0-.44,0-.54-.42,0-.19-.11-.27-.31-.23h0c-.52,0-.53,0-.66.5-.06.19-.19.15-.31.15-.37,0-.37,0-.26-.35L15,22C15.08,21.67,15.07,21.67,15.45,21.67Zm0,.54h0c-.06.23-.11.45-.17.68-.1.4-.1.4.32.38h0c.1,0,.12,0,.1-.13C15.61,22.83,15.53,22.52,15.45,22.21Z"/><path class="cls-2" d="M5.92,28.1c.26-.09.34.09.41.34.22.73.45,1.45.69,2.18.06.18,0,.21-.16.21-.43,0-.44,0-.53-.42,0-.19-.13-.27-.32-.24H6c-.51,0-.52,0-.65.5,0,.17-.14.16-.26.16-.42,0-.42,0-.3-.39.21-.65.41-1.31.62-2C5.48,28.1,5.48,28.1,5.92,28.1Zm-.36,1.6H6c.09,0,.1-.05.08-.12l-.26-1Z"/><path class="cls-10" d="M1.06,21.63a1.21,1.21,0,0,1,.74.24c.1.06.12.11,0,.22s-.25.31-.49.13a.52.52,0,0,0-.47,0,.21.21,0,0,0-.17.18.2.2,0,0,0,.12.23l.6.26a.78.78,0,0,1,.58.78.86.86,0,0,1-.7.78,1.5,1.5,0,0,1-1.2-.24C0,24.1,0,24,.07,23.93l.08-.09c.1-.16.2-.21.38-.07a.7.7,0,0,0,.64.12.23.23,0,0,0,.2-.21.23.23,0,0,0-.14-.24l-.58-.25a.8.8,0,0,1-.56-.92A.89.89,0,0,1,1,21.63Z"/><path class="cls-15" d="M40.88,28.1a2.79,2.79,0,0,1,.76.06.78.78,0,0,1,.6.77.86.86,0,0,1-.54.87,1.12,1.12,0,0,1-.6.09c-.23,0-.3.07-.27.28a4,4,0,0,1,0,.49c0,.13,0,.16-.16.17-.45,0-.45,0-.45-.43V28.29c0-.14,0-.21.19-.19Zm-.05.88c0,.41,0,.42.07.43a1.18,1.18,0,0,0,.46,0,.37.37,0,0,0,.27-.42.33.33,0,0,0-.3-.35C40.88,28.51,40.83,28.54,40.83,29Z"/><path class="cls-6" d="M58.22,23V21.85c0-.12,0-.19.16-.18.32,0,.64,0,1,0a.83.83,0,0,1,.9.84.89.89,0,0,1-.83.94h-.09c-.16,0-.36-.07-.45,0s0,.31,0,.47c0,.43,0,.43-.44.42-.15,0-.19,0-.18-.18Zm.61-.47c0,.46.1.53.51.41a.4.4,0,0,0,.29-.42.34.34,0,0,0-.32-.36C58.87,22.09,58.83,22.12,58.83,22.55Z"/><path class="cls-6" d="M22,30.87a1.47,1.47,0,0,1-.88-.29c-.09-.06-.12-.11,0-.21.24-.28.23-.29.55-.13a.78.78,0,0,0,.54.09.25.25,0,0,0,.23-.21.23.23,0,0,0-.16-.25l-.57-.26a.79.79,0,0,1-.57-.8.85.85,0,0,1,.72-.73,1.24,1.24,0,0,1,1,.22c.09.07.1.12,0,.22s-.24.31-.48.13a.54.54,0,0,0-.45,0c-.11,0-.19.08-.21.19a.23.23,0,0,0,.15.24l.54.23c.49.2.68.49.6.92a.9.9,0,0,1-.87.69Z"/><path class="cls-6" d="M28,22.58a1.05,1.05,0,0,1,.65-.3.57.57,0,0,1,.65.54,14.42,14.42,0,0,1,0,1.47.1.1,0,0,1-.11.11h0c-.47,0-.47,0-.47-.44,0-.29,0-.57,0-.85s0-.31-.26-.31a.37.37,0,0,0-.38.33c0,.36,0,.71,0,1.07,0,.15,0,.2-.19.2-.42,0-.42,0-.42-.41s0-.92,0-1.38c0-.1-.1-.27.1-.27S27.93,22.21,28,22.58Z"/><path class="cls-13" d="M30.35,22.58a1,1,0,0,1,.65-.3.57.57,0,0,1,.63.47,3.62,3.62,0,0,1,0,.87c0,.18,0,.36,0,.54s0,.25-.24.24c-.38,0-.38,0-.38-.38v-.87c0-.18,0-.35-.27-.35a.36.36,0,0,0-.37.38c0,.34,0,.67,0,1,0,.16,0,.22-.2.21-.41,0-.41,0-.41-.4V22.55c0-.08-.07-.24.11-.22s.37-.13.42.15A.58.58,0,0,0,30.35,22.58Z"/><path class="cls-16" d="M42.25,22.59a1.06,1.06,0,0,1,.69-.31.57.57,0,0,1,.62.51,12.47,12.47,0,0,1,0,1.5c0,.09-.05.11-.14.11h-.32c-.13,0-.16,0-.16-.16,0-.35,0-.7,0-1.06,0-.18,0-.37-.26-.38a.36.36,0,0,0-.37.4c0,.34,0,.68,0,1,0,.13,0,.17-.17.17-.45,0-.45,0-.45-.44s0-.92,0-1.38c0-.09-.1-.27.12-.25S42.26,22.2,42.25,22.59Z"/><path class="cls-6" d="M61.07,29a1.13,1.13,0,0,1,.62-.3.59.59,0,0,1,.67.55c.06.48,0,1,0,1.45,0,.1,0,.12-.15.13-.48,0-.48,0-.48-.45v-.87c0-.17-.06-.29-.26-.28a.35.35,0,0,0-.37.31q0,.54,0,1.08c0,.15,0,.21-.2.21-.42,0-.42,0-.42-.42s0-.92,0-1.38c0-.09-.1-.25.11-.27S61,28.74,61.07,29Z"/><path class="cls-17" d="M23.29,29.78a1,1,0,0,1,1-1.08,1.09,1.09,0,0,1,0,2.17A1,1,0,0,1,23.29,29.78Zm1.39,0a2,2,0,0,0-.05-.27.33.33,0,0,0-.34-.27.34.34,0,0,0-.32.26,1,1,0,0,0,0,.46c0,.28.17.46.37.46s.35-.16.38-.45A.92.92,0,0,0,24.68,29.74Z"/><path class="cls-7" d="M49.32,23.36a1,1,0,1,1,1,1.09A1,1,0,0,1,49.32,23.36Zm.63-.05a.93.93,0,0,0,.07.43.31.31,0,0,0,.29.21.32.32,0,0,0,.32-.19.92.92,0,0,0,0-.81.32.32,0,0,0-.57,0A.66.66,0,0,0,50,23.31Z"/><path class="cls-18" d="M2.3,23.37a1,1,0,1,1,1,1.08A1,1,0,0,1,2.3,23.37Zm.62,0a1,1,0,0,0,.09.4.32.32,0,0,0,.3.19.3.3,0,0,0,.3-.18,1,1,0,0,0,0-.82.32.32,0,0,0-.56,0A.81.81,0,0,0,2.92,23.36Z"/><path class="cls-6" d="M68.11,29.78a1,1,0,0,1,1-1.08,1,1,0,0,1,1,1.1,1,1,0,1,1-2,0Zm1.39,0c0-.06,0-.15,0-.24a.35.35,0,0,0-.34-.3c-.2,0-.3.11-.35.29a1,1,0,0,0,0,.62.33.33,0,0,0,.33.27.34.34,0,0,0,.33-.26A1.09,1.09,0,0,0,69.5,29.74Z"/><path class="cls-6" d="M36.48,28.7a1,1,0,0,1,1,1.08,1,1,0,0,1-1,1.09,1,1,0,0,1-1-1.07A1,1,0,0,1,36.48,28.7Zm.38,1.09a.78.78,0,0,0,0-.34.36.36,0,0,0-.33-.26.33.33,0,0,0-.32.26.82.82,0,0,0-.06.34c0,.37.14.58.37.58S36.87,30.17,36.86,29.79Z"/><path class="cls-6" d="M66.64,29.8a1,1,0,0,1-1,1.07,1.09,1.09,0,0,1,0-2.17A1,1,0,0,1,66.64,29.8Zm-1.38.06a1,1,0,0,0,0,.24.32.32,0,0,0,.33.28.34.34,0,0,0,.34-.27,1,1,0,0,0,0-.73.33.33,0,0,0-.59,0A.9.9,0,0,0,65.26,29.86Z"/><path class="cls-6" d="M45.84,23.35a1,1,0,0,1,1-1.07,1.09,1.09,0,1,1-1,1.07Zm1.38,0a1.24,1.24,0,0,0,0-.33.35.35,0,0,0-.35-.26.32.32,0,0,0-.32.26,1,1,0,0,0,0,.71.33.33,0,0,0,.62,0A.83.83,0,0,0,47.22,23.36Z"/><path class="cls-10" d="M76.56,24.1a1,1,0,0,1-.65.35.57.57,0,0,1-.64-.49,11.42,11.42,0,0,1,0-1.55c0-.06,0-.08.08-.08h0c.48-.07.51,0,.51.43v.85c0,.17.05.31.26.32a.36.36,0,0,0,.36-.35c0-.35,0-.7,0-1,0-.14,0-.21.19-.21.43,0,.43,0,.43.43s0,.92,0,1.38c0,.09.11.28-.13.27S76.52,24.5,76.56,24.1Z"/><path class="cls-7" d="M18.41,29a1,1,0,0,1,.65-.3.58.58,0,0,1,.63.56,14,14,0,0,1,0,1.45c0,.09,0,.11-.13.12-.48.05-.48.05-.48-.43,0-.3,0-.59,0-.89s-.07-.29-.27-.28a.36.36,0,0,0-.36.31q0,.54,0,1.08c0,.16,0,.21-.21.21-.41,0-.41,0-.41-.4s0-1,0-1.46c0-.08-.06-.24.12-.21s.36-.14.4.16C18.38,28.94,18.4,29,18.41,29Z"/><path class="cls-11" d="M68,23.61c0,.25,0,.45,0,.66s0,.15-.14.13-.35.1-.42-.16c0-.06-.09,0-.13,0a.85.85,0,0,1-.43.17.62.62,0,0,1-.36-1.16,1.77,1.77,0,0,1,.71-.21c.19,0,.16-.1.08-.21a.3.3,0,0,0-.25-.11,1,1,0,0,0-.34.08.28.28,0,0,1-.41-.23c0-.09,0-.11.1-.14a1.43,1.43,0,0,1,1-.17.66.66,0,0,1,.55.56A2.8,2.8,0,0,1,68,23.61Zm-.61,0c-.05,0,.1-.19-.1-.18s-.48.16-.48.32.09.2.22.2A.33.33,0,0,0,67.37,23.63Z"/><path class="cls-3" d="M50,30.09v.58c0,.13,0,.18-.16.15s-.32.1-.38-.14c0-.08-.09,0-.12,0a.76.76,0,0,1-.45.17.59.59,0,0,1-.64-.43.6.6,0,0,1,.28-.72,2.12,2.12,0,0,1,.66-.21c.07,0,.18,0,.19-.08a.22.22,0,0,0-.14-.2.57.57,0,0,0-.54.06c-.15.08-.21.05-.3-.1s-.08-.26.11-.34a3.38,3.38,0,0,1,.42-.13.81.81,0,0,1,1.07.9Zm-.61,0c0-.06.05-.17-.11-.17s-.48.17-.47.32.11.2.24.2A.32.32,0,0,0,49.37,30.05Z"/><path class="cls-7" d="M16.77,30.63a1.37,1.37,0,0,1-.45.23.61.61,0,0,1-.73-.36.63.63,0,0,1,.29-.8,2.2,2.2,0,0,1,.65-.19c.06,0,.16,0,.17-.08a.2.2,0,0,0-.13-.2.68.68,0,0,0-.54.05c-.07,0-.15.12-.21,0a.94.94,0,0,1-.17-.33c0-.05,0-.07.08-.09a1.52,1.52,0,0,1,1-.19.68.68,0,0,1,.55.62,12.29,12.29,0,0,1,0,1.36c0,.1,0,.14-.14.13S16.82,30.91,16.77,30.63Zm-.06-.57c0-.06.07-.2-.11-.18s-.46.16-.46.32.09.19.22.2A.32.32,0,0,0,16.71,30.06Z"/><path class="cls-17" d="M33.45,30.21c.11-.42.23-.79.31-1.16s.15-.34.39-.3a1.24,1.24,0,0,0,.28,0c-.1.3-.19.58-.29.85-.19.51-.32,1-.55,1.52a.83.83,0,0,1-.86.51c-.16,0-.23-.06-.18-.23s.05-.28.28-.27.36-.26.28-.48c-.22-.57-.45-1.15-.68-1.72-.07-.15,0-.19.13-.19.41,0,.42,0,.55.4S33.32,29.83,33.45,30.21Z"/><path class="cls-10" d="M73.68,30.22c.11-.43.22-.82.32-1.21a.27.27,0,0,1,.33-.26c.33,0,.34,0,.22.33-.23.67-.43,1.35-.71,2a.79.79,0,0,1-.9.55c-.08,0-.21,0-.17-.12s0-.32.17-.36c.42-.07.51-.22.35-.62s-.41-1.06-.63-1.59c-.07-.15,0-.19.13-.19.41,0,.42,0,.54.38Z"/><path class="cls-16" d="M78.72,23.54c-.15,0-.31,0-.47,0s-.14.06-.09.17a.56.56,0,0,0,.73.22.3.3,0,0,1,.38.24c0,.06,0,.08-.08.11A1.11,1.11,0,0,1,77.68,24a1.16,1.16,0,0,1,.36-1.6.89.89,0,0,1,1,.05,1.14,1.14,0,0,1,.34,1c0,.1-.08.1-.16.1Zm-.24-.4a1.21,1.21,0,0,1,.19,0c.2,0,.21-.07.13-.22a.35.35,0,0,0-.6,0c0,.06-.11.13-.08.21s.13,0,.2,0Z"/><path class="cls-10" d="M21.34,23.54c-.16,0-.33,0-.49,0s-.13.05-.09.14a.56.56,0,0,0,.74.26.27.27,0,0,1,.38.23c0,.08-.05.09-.09.12A1.11,1.11,0,0,1,20.27,24a1.16,1.16,0,0,1,.39-1.57.89.89,0,0,1,1,.06,1.13,1.13,0,0,1,.32,1c0,.09-.07.11-.15.11Zm-.27-.4h.16c.07,0,.2.06.22-.05a.26.26,0,0,0-.16-.29.36.36,0,0,0-.41,0c-.09.07-.18.17-.14.28s.15,0,.23,0Z"/><path class="cls-19" d="M61.67,23.54h-.49c-.12,0-.13,0-.09.14a.56.56,0,0,0,.74.26.27.27,0,0,1,.38.24c0,.07-.05.08-.1.11A1.13,1.13,0,0,1,60.64,24a1.2,1.2,0,0,1,.24-1.58,1,1,0,0,1,1,0,1.08,1.08,0,0,1,.39,1c0,.09-.07.11-.15.11Zm-.26-.4h.12c.08,0,.23.08.25-.06a.29.29,0,0,0-.21-.31.38.38,0,0,0-.4.1c-.07.07-.14.15-.11.24s.14,0,.21,0Z"/><path class="cls-10" d="M33.29,23.54c-.16,0-.32,0-.47,0s-.15.07-.1.17a.58.58,0,0,0,.74.22.27.27,0,0,1,.37.24c0,.07,0,.08-.07.1a1.18,1.18,0,0,1-1.32-.05,1.2,1.2,0,0,1-.27-1.35.92.92,0,0,1,1.75.59c0,.08-.08.08-.14.08Zm-.25-.4h.12c.08,0,.22.07.24-.05a.3.3,0,0,0-.2-.32.39.39,0,0,0-.41.09c-.06.07-.14.15-.1.25s.14,0,.21,0Z"/><path class="cls-10" d="M43.66,30c-.16,0-.31,0-.47,0s-.14.06-.09.17a.57.57,0,0,0,.73.22.28.28,0,0,1,.38.24c0,.07-.05.09-.09.12a1.14,1.14,0,0,1-1.46-.24,1.21,1.21,0,0,1,.15-1.54.91.91,0,0,1,1-.17.84.84,0,0,1,.52.77v.1c0,.33,0,.33-.32.33Zm-.23-.41a.4.4,0,0,0,.11,0c.09,0,.22.06.24-.06a.27.27,0,0,0-.18-.3.39.39,0,0,0-.41.06c-.07.07-.16.16-.13.26s.15,0,.23,0A.65.65,0,0,0,43.43,29.56Z"/><path class="cls-17" d="M9,23.54H8.51s-.12,0-.15,0,0,.12.05.17a.58.58,0,0,0,.75.17c.13-.06.18,0,.25.08s.08.26-.11.34A1.11,1.11,0,0,1,7.91,24a1.18,1.18,0,0,1,.18-1.48.91.91,0,0,1,1-.18.79.79,0,0,1,.51.74c.05.46.05.46-.41.46Zm-.26-.4a.29.29,0,0,0,.13,0c.08,0,.21.07.24-.06a.27.27,0,0,0-.18-.3.35.35,0,0,0-.37,0c-.09.07-.18.16-.16.27s.16,0,.24.06Z"/><path class="cls-6" d="M12.61,23.54c-.15,0-.3,0-.45,0s-.18.07-.1.2a.51.51,0,0,0,.69.19c.26-.12.29.05.38.19s0,.12-.06.16a1.16,1.16,0,0,1-1.44-.18,1.22,1.22,0,0,1,0-1.51,1,1,0,0,1,1.14-.22,1,1,0,0,1,.43,1.06c0,.1-.06.11-.14.11Zm-.26-.4h0a1.47,1.47,0,0,1,.21,0c.19,0,.18-.09.13-.21a.36.36,0,0,0-.59-.06c-.06.06-.13.14-.1.22s.14,0,.21.05Z"/><path class="cls-6" d="M56.25,23.54c-.15,0-.3,0-.44,0s-.18.07-.11.2a.59.59,0,0,0,.72.2c.07,0,.15-.12.21-.05a1,1,0,0,1,.16.28c0,.08,0,.09-.09.12a1.12,1.12,0,0,1-1.44-.22,1.19,1.19,0,0,1,.08-1.5.94.94,0,0,1,1.14-.18,1.06,1.06,0,0,1,.41,1.05c0,.09-.07.1-.15.1Zm-.25-.4h.12c.08,0,.21.07.24-.06a.28.28,0,0,0-.18-.3.37.37,0,0,0-.43.09c-.06.06-.14.15-.1.24s.14,0,.21,0Z"/><path class="cls-16" d="M25.73,23.54c.07.38.38.53.78.39a.28.28,0,0,1,.36.25c0,.06,0,.08-.07.1A1.12,1.12,0,0,1,25.27,24a1.14,1.14,0,0,1,.42-1.6.86.86,0,0,1,1,.09,1,1,0,0,1,.31,1c0,.11-.1.09-.18.09Zm.33-.4h.16c.08,0,.2.06.22-.05a.27.27,0,0,0-.15-.29.38.38,0,0,0-.45.06c-.07.07-.14.16-.12.24s.15,0,.23,0Z"/><path class="cls-7" d="M29.94,30c-.16,0-.31,0-.47,0s-.15.06-.1.17a.57.57,0,0,0,.74.22c.2-.06.31,0,.37.22s0,.1-.07.12a1.11,1.11,0,0,1-1.53-.3,1.16,1.16,0,0,1,.39-1.59.88.88,0,0,1,1,.06,1,1,0,0,1,.34,1c0,.1-.08.1-.15.1Zm-.26-.41h.21c.22,0,.19-.1.13-.23a.37.37,0,0,0-.55-.07c-.08.07-.16.16-.13.26s.15,0,.22,0A.48.48,0,0,0,29.68,29.56Z"/><path class="cls-16" d="M11.76,30c-.16,0-.33,0-.49,0s-.13.07-.1.16a.59.59,0,0,0,.74.24c.2-.07.31,0,.37.2s0,.1-.06.13a1.17,1.17,0,0,1-1.2,0,1.06,1.06,0,0,1-.47-1.14,1,1,0,0,1,.71-.85.85.85,0,0,1,.86.19,1.11,1.11,0,0,1,.26.94c0,.1-.08.1-.15.1Zm-.27-.41h0a.65.65,0,0,0,.14,0c.08,0,.21.07.23-.07a.26.26,0,0,0-.19-.29.37.37,0,0,0-.39.06c-.08.06-.16.16-.14.25s.15,0,.23,0A.48.48,0,0,0,11.49,29.56Z"/><path class="cls-7" d="M38,30c0-.21,0-.43,0-.64s0-.15-.1-.14-.19-.06-.17-.19-.08-.29.16-.28.11-.11.12-.18a.74.74,0,0,1,1-.71c.09,0,.18.05.13.16s0,.32-.2.31-.28,0-.32.18,0,.26.19.24.15.18.17.3,0,.19-.18.17-.19.06-.19.2c0,.39,0,.78,0,1.17,0,.19-.06.24-.24.23-.39,0-.39,0-.39-.4V30Z"/><path class="cls-10" d="M10.07,23.37V23c0-.13,0-.22-.18-.21s-.1-.14-.11-.23-.06-.23.1-.23.24-.1.26-.27.16-.38.46-.3c.07,0,.08.06.08.12a1.2,1.2,0,0,1,0,.19c0,.2.05.29.26.25s.24.05.24.24-.06.27-.25.24-.27,0-.25.23,0,.41,0,.61.1.34.33.31.13.17.18.26,0,.17-.13.2c-.65.13-1-.14-1-.8Z"/><path class="cls-6" d="M50.51,29.77v-.28c0-.14,0-.29-.2-.26s-.09-.12-.08-.18-.07-.27.08-.27.25-.16.28-.33,0-.21.06-.23a1,1,0,0,1,.42,0c.1,0,0,.15,0,.23,0,.31,0,.32.31.31s.19.11.19.25,0,.25-.2.24-.3,0-.3.31,0,.36,0,.54.11.32.35.29.13.18.18.27,0,.16-.11.19a.74.74,0,0,1-1-.77Z"/><path class="cls-3" d="M68.51,23.34v-.28c0-.13,0-.29-.2-.26s-.09-.11-.08-.18-.07-.27.07-.27.26-.17.29-.34,0-.2.07-.22a.85.85,0,0,1,.42,0c.09,0,0,.17,0,.26s.06.32.29.28.23,0,.23.23,0,.29-.24.25-.3,0-.28.27a5.61,5.61,0,0,1,0,.58c0,.24.12.32.35.3s.13.18.18.27,0,.15-.09.18c-.63.18-1-.11-1-.76Z"/><path class="cls-7" d="M31.05,29.77v-.28c0-.14,0-.28-.19-.27s-.08-.15-.09-.24-.05-.22.1-.21.24-.13.26-.29a.34.34,0,0,1,.48-.28c.1.05.05.14.05.21,0,.34,0,.35.33.34s.16.14.18.26,0,.23-.19.23-.31,0-.31.32,0,.36,0,.54.12.32.33.29.15.18.2.28,0,.15-.14.17c-.62.16-1-.13-1-.77Z"/><path class="cls-11" d="M45.11,22.28a.72.72,0,0,1,.19,0c.37.08.41.21.17.49-.06.06-.1.09-.17,0a.39.39,0,0,0-.2-.06.46.46,0,0,0-.43.31.73.73,0,0,0,.14.76.41.41,0,0,0,.52,0c.26-.15.22.13.3.21s0,.17-.08.22a1.07,1.07,0,0,1-1.21-.1,1.19,1.19,0,0,1-.27-1.27A1,1,0,0,1,45.11,22.28Z"/><path class="cls-7" d="M26.74,28.7a1.78,1.78,0,0,1,.22,0c.12,0,.29.07.31.18s-.13.22-.21.33-.1,0-.16,0a.43.43,0,0,0-.6.26.75.75,0,0,0,0,.57.43.43,0,0,0,.65.24c.24-.13.22.1.3.19s0,.18-.08.24A1.09,1.09,0,0,1,26,30.63a1.16,1.16,0,0,1-.27-1.23A1.05,1.05,0,0,1,26.74,28.7Z"/><path class="cls-6" d="M63.92,28.7l.21,0c.12,0,.29.07.3.19s-.13.21-.2.32-.1,0-.16,0a.42.42,0,0,0-.6.26.79.79,0,0,0,0,.48.45.45,0,0,0,.67.34c.26-.15.23.11.31.2s0,.18-.1.23a1.08,1.08,0,0,1-1.19-.11,1.18,1.18,0,0,1-.27-1.27A1.07,1.07,0,0,1,63.92,28.7Z"/><path class="cls-13" d="M55.85,28.7l.22,0c.13,0,.29.07.31.18s-.13.21-.2.33-.1,0-.16,0a.45.45,0,0,0-.63.33.72.72,0,0,0,.09.62.4.4,0,0,0,.58.12c.27-.14.23.13.32.22s0,.17-.1.22a1.06,1.06,0,0,1-1.1,0,1,1,0,0,1-.45-1A1.06,1.06,0,0,1,55.85,28.7Z"/><path class="cls-3" d="M4.63,23.34a1,1,0,0,1,1.49-1c.07,0,.24.07.14.18s-.09.37-.35.26a.45.45,0,0,0-.61.27.8.8,0,0,0,0,.55.42.42,0,0,0,.63.26c.27-.15.25.11.34.21s0,.18-.12.23A1,1,0,0,1,4.63,23.34Z"/><path class="cls-10" d="M30.17,38l.26,0a.46.46,0,0,0,.42-.53c0-.58,0-1.17,0-1.75,0-.15,0-.2.19-.19.39,0,.39,0,.39.39,0,.57,0,1.13,0,1.69a1,1,0,0,1-.84,1c-.16,0-.24,0-.29-.17A1.74,1.74,0,0,0,30.17,38Z"/><path class="cls-20" d="M7.29,29.15c0-.35,0-.7,0-1,0-.17,0-.21.21-.21.4,0,.4,0,.4.4v1.78c0,.13,0,.25.16.33s.1.26.09.39-.15.08-.24.08c-.37,0-.57-.13-.6-.5s0-.81,0-1.22Z"/><path class="cls-17" d="M16.88,22.72c0-.36,0-.71,0-1.06,0-.15,0-.2.19-.2.43,0,.43,0,.43.41V23.7c0,.1,0,.19.13.26s.11.27.1.4-.15.08-.24.09c-.4,0-.6-.19-.61-.63v-1.1Z"/><path class="cls-21" d="M48.86,22.69c0,.29,0,.59,0,.89,0,.14-.06.31.16.4s.11.26.06.4-.16.06-.25.07c-.36,0-.57-.17-.57-.53,0-.77,0-1.55,0-2.32,0-.1,0-.13.14-.14.48,0,.48-.05.48.43Z"/><path class="cls-22" d="M67,29.17c0-.36,0-.72,0-1.07,0-.17,0-.21.21-.21.41,0,.41,0,.41.4V30.1c0,.12,0,.22.14.3s.11.26.09.39-.15.08-.23.08c-.39,0-.59-.16-.6-.55s0-.76,0-1.15Z"/><path class="cls-20" d="M51.92,36.08c0-.42,0-.83,0-1.25,0-.18,0-.22.22-.21.42,0,.37-.06.37.35,0,.78,0,1.57,0,2.35,0,.19,0,.27-.25.24a.43.43,0,0,0-.16,0c-.15,0-.18-.06-.18-.2C51.93,36.93,51.92,36.51,51.92,36.08Z"/><path class="cls-23" d="M45.23,36.1c0-.42,0-.85,0-1.27,0-.15,0-.22.21-.21.38,0,.38,0,.38.38v2.25c0,.31,0,.3-.32.31s-.28-.05-.27-.27c0-.4,0-.79,0-1.19Z"/><path class="cls-24" d="M24.53,36.08c0-.42,0-.83,0-1.25,0-.18.06-.22.23-.21.35,0,.35,0,.35.34v2.39c0,.16-.05.21-.21.21-.36,0-.36,0-.36-.36Z"/><path class="cls-25" d="M67.36,36.08c0-.42,0-.84,0-1.26,0-.15,0-.21.19-.2.38,0,.38,0,.38.38,0,.77,0,1.54,0,2.32,0,.18,0,.24-.23.24-.35,0-.35,0-.35-.33Z"/><path class="cls-26" d="M29.87,36.1c0,.42,0,.84,0,1.26,0,.15,0,.21-.18.19h-.14c-.2,0-.27,0-.26-.26q0-1.23,0-2.46c0-.17,0-.25.21-.22a.49.49,0,0,0,.17,0c.15,0,.2,0,.2.19C29.87,35.24,29.87,35.67,29.87,36.1Z"/><path class="cls-7" d="M13.38,29.09a.76.76,0,0,1,.68-.39c.12,0,.17.05.13.18a1.57,1.57,0,0,0,0,.23c0,.1-.05.15-.18.14a.48.48,0,0,0-.54.5c0,.31,0,.61,0,.92,0,.12,0,.16-.16.16-.45,0-.45,0-.45-.43s0-.94,0-1.41c0-.1-.06-.26.15-.23s.38-.1.38.2A.53.53,0,0,0,13.38,29.09Z"/><path class="cls-26" d="M23,22.64a.71.71,0,0,1,.65-.36c.14,0,.18,0,.15.19a1.74,1.74,0,0,0-.05.22c0,.12-.06.13-.17.13a.49.49,0,0,0-.54.53c0,.29,0,.57,0,.86s0,.19-.18.2c-.44,0-.44,0-.44-.43V22.55c0-.11,0-.26.16-.22s.38-.11.37.2A.11.11,0,0,0,23,22.64Z"/><path class="cls-11" d="M52.58,29.12a.74.74,0,0,1,.67-.42c.13,0,.19.05.15.19s0,.13,0,.2,0,.17-.19.16a.46.46,0,0,0-.52.49c0,.3,0,.59,0,.89,0,.14,0,.2-.19.2-.42,0-.43,0-.42-.41s0-1,0-1.43c0-.11-.06-.26.15-.23s.39-.1.37.21C52.56,29,52.57,29,52.58,29.12Z"/><path class="cls-27" d="M70.58,22.68c.19-.26.38-.43.67-.4.13,0,.19,0,.15.18a1.55,1.55,0,0,0,0,.21c0,.12,0,.17-.19.15a.48.48,0,0,0-.53.49c0,.3,0,.59,0,.89s0,.21-.19.21c-.43,0-.43,0-.43-.42s0-.95,0-1.43c0-.1-.06-.26.14-.23s.39-.1.38.21C70.56,22.57,70.57,22.6,70.58,22.68Z"/><path class="cls-22" d="M27.68,29.79c0-.28,0-.55,0-.82s0-.22.2-.22c.43,0,.43,0,.43.44s0,.95,0,1.42c0,.16,0,.22-.21.22-.42,0-.42,0-.42-.41v-.63Z"/><path class="cls-28" d="M24.7,23.36c0,.29,0,.58,0,.87,0,.13,0,.17-.18.17-.45,0-.45,0-.45-.43s0-1,0-1.45c0-.15,0-.2.2-.2.43,0,.43,0,.43.43Z"/><path class="cls-27" d="M72.31,23.37c0,.27,0,.55,0,.82s0,.22-.2.22c-.42,0-.42,0-.42-.42s0-1,0-1.45c0-.16,0-.22.2-.22.42,0,.42,0,.42.42Z"/><path class="cls-29" d="M14.49,29.78v-.87c0-.12,0-.16.15-.16.46,0,.46,0,.46.44s0,1,0,1.43c0,.16,0,.21-.21.21-.41,0-.41,0-.41-.42v-.63Z"/><path class="cls-12" d="M65.13,23.37c0-.29,0-.58,0-.87,0-.12,0-.17.17-.18.45,0,.45,0,.45.44s0,.95,0,1.43c0,.18,0,.22-.23.21-.39,0-.39,0-.39-.4Q65.15,23.69,65.13,23.37Z"/><path class="cls-6" d="M54,23.35c0-.28,0-.56,0-.85,0-.12,0-.17.16-.18.45,0,.45,0,.45.44s0,.93,0,1.4c0,.17,0,.25-.23.24-.39,0-.39,0-.39-.4v-.65Z"/><path class="cls-13" d="M7.32,23.39c0,.28,0,.56,0,.84,0,.13,0,.17-.17.17-.45,0-.45,0-.45-.43s0-1,0-1.48c0-.13,0-.16.17-.16.45,0,.45,0,.45.42v.64Z"/><path class="cls-16" d="M54.31,29.81c0,.29,0,.58,0,.87,0,.11,0,.15-.15.15-.57,0-.46.08-.47-.43s0-.95,0-1.43c0-.17,0-.22.22-.22.4,0,.4,0,.4.39Z"/><path class="cls-30" d="M47.14,29.77c0-.28,0-.56,0-.84,0-.13,0-.18.18-.18.44,0,.44,0,.44.44s0,.95,0,1.43c0,.16,0,.21-.2.21-.41,0-.41,0-.41-.4v-.66Z"/><path class="cls-31" d="M38.26,22c0,.2-.08.51-.12.81,0,.14-.08.14-.18.14s-.18,0-.2-.13a8.18,8.18,0,0,1-.11-1.11c0-.1,0-.15.13-.14h.16C38.31,21.54,38.26,21.48,38.26,22Z"/><path class="cls-32" d="M35.13,34.89h-.31c-.06,0-.14,0-.15-.06s0-.18,0-.2.08-.15.1-.23a.4.4,0,0,1,.27-.32.43.43,0,0,1,.46.09c.05,0,.13.12,0,.19s-.12.18-.22,0a.13.13,0,0,0-.19,0,.11.11,0,0,0,0,.15c0,.08.1.08.17.07a1.48,1.48,0,0,0,.21,0c.12,0,.13,0,.13.14s0,.16-.12.16Z"/><path class="cls-33" d="M22.53,34.89h-.28c-.21,0-.22-.17-.15-.23s.08-.22.12-.32a.43.43,0,0,1,.72-.17s.13.11,0,.17-.1.19-.22.07-.13-.1-.2,0a.11.11,0,0,0,0,.13c0,.09.11.09.19.09h.21c.1,0,.12,0,.11.13s0,.16-.11.16Z"/><path class="cls-34" d="M44.38,35.2h-.31a.14.14,0,0,1-.14-.22c.12-.1.08-.22.12-.33a.43.43,0,0,1,.69-.17c0,.05.15.11.06.19s-.12.17-.23,0l-.1,0a.12.12,0,0,0-.14.1.1.1,0,0,0,.1.13,1.31,1.31,0,0,0,.28,0c.12,0,.13.05.14.15s0,.15-.15.14Z"/><path class="cls-35" d="M21.9,21.33l-.09.1c-.19.16-.38.32-.56.49s-.2,0-.28-.09-.14-.13,0-.24a5.85,5.85,0,0,0,.45-.54c.08-.1.14-.09.22,0Z"/><path class="cls-36" d="M61.83,20.94a2,2,0,0,1,.35.38c.06.09-.09.14-.15.2a4.48,4.48,0,0,0-.4.36c-.14.14-.22.06-.32,0s-.12-.19,0-.31.29-.33.43-.49Z"/><path class="cls-37" d="M12.43,22a.87.87,0,0,1-.27-.23c-.08-.08,0-.12.05-.17s.3-.34.44-.52.11-.11.21,0c.33.3.33.29,0,.58l-.32.27Z"/><path class="cls-38" d="M9.48,21.29a.15.15,0,0,1-.08.15l-.52.47a.15.15,0,0,1-.25,0c-.06-.09-.23-.13-.09-.28s.31-.37.47-.56.11-.09.18,0S9.4,21.22,9.48,21.29Z"/><path class="cls-39" d="M24.74,21.69a.36.36,0,0,1-.71,0,.32.32,0,0,1,.35-.32A.33.33,0,0,1,24.74,21.69Z"/><path class="cls-36" d="M65.44,21.37a.34.34,0,0,1,.36.32.33.33,0,0,1-.35.33.33.33,0,0,1-.36-.32A.34.34,0,0,1,65.44,21.37Z"/><path class="cls-40" d="M72.35,21.69A.32.32,0,0,1,72,22a.33.33,0,0,1-.36-.32.32.32,0,0,1,.35-.32A.31.31,0,0,1,72.35,21.69Z"/><path class="cls-39" d="M14.8,27.8a.34.34,0,0,1,.35.33.33.33,0,0,1-.36.31.31.31,0,0,1-.35-.32A.34.34,0,0,1,14.8,27.8Z"/><path class="cls-41" d="M28.35,28.12a.32.32,0,0,1-.34.32.33.33,0,0,1-.37-.31.32.32,0,0,1,.35-.32A.31.31,0,0,1,28.35,28.12Z"/><path class="cls-42" d="M7.37,21.68A.35.35,0,0,1,7,22a.33.33,0,0,1-.36-.31A.32.32,0,0,1,7,21.38.34.34,0,0,1,7.37,21.68Z"/><path class="cls-35" d="M54,27.81c.22,0,.34.13.33.33a.32.32,0,0,1-.37.3.32.32,0,1,1,0-.63Z"/><path class="cls-43" d="M54.67,21.7a.34.34,0,0,1-.39.31.31.31,0,0,1-.32-.34.32.32,0,0,1,.37-.29A.33.33,0,0,1,54.67,21.7Z"/><path class="cls-36" d="M47.8,28.12a.32.32,0,0,1-.35.32.33.33,0,0,1-.36-.32.33.33,0,0,1,.36-.31A.32.32,0,0,1,47.8,28.12Z"/><path class="cls-44" d="M55.89,34.82a.33.33,0,1,1-.66-.06.33.33,0,0,1,.36-.28A.32.32,0,0,1,55.89,34.82Z"/><path class="cls-45" d="M38.64,35.13a.33.33,0,0,1-.33-.34.31.31,0,0,1,.33-.31.3.3,0,0,1,.32.32A.33.33,0,0,1,38.64,35.13Z"/><path class="cls-46" d="M49.06,37.86a.33.33,0,0,1,.29.36.34.34,0,0,1-.36.3.33.33,0,0,1,.07-.66Z"/><path class="cls-47" d="M16.52,34.47a.31.31,0,0,1,.32.33.33.33,0,0,1-.34.32.34.34,0,0,1-.32-.34A.33.33,0,0,1,16.52,34.47Z"/><path class="cls-48" d="M39.48,35.13a.33.33,0,0,1-.33-.33.32.32,0,0,1,.32-.33.32.32,0,0,1,.33.33A.35.35,0,0,1,39.48,35.13Z"/><path class="cls-49" d="M40.9,38.19a.31.31,0,0,1-.32.33.33.33,0,0,1-.34-.32.34.34,0,0,1,.35-.33A.31.31,0,0,1,40.9,38.19Z"/><path class="cls-50" d="M58,38.19a.32.32,0,0,1-.32.33.33.33,0,1,1,0-.65A.33.33,0,0,1,58,38.19Z"/><path class="cls-51" d="M55.05,34.79a.34.34,0,0,1-.34.34.35.35,0,0,1-.32-.33.34.34,0,0,1,.33-.33A.32.32,0,0,1,55.05,34.79Z"/><path class="cls-36" d="M41.74,38.19a.32.32,0,0,1-.32.33.33.33,0,0,1-.34-.32.35.35,0,0,1,.33-.33A.32.32,0,0,1,41.74,38.19Z"/><path class="cls-52" d="M56.8,37.86a.36.36,0,0,1,.32.35.32.32,0,0,1-.34.31.33.33,0,0,1-.32-.34A.35.35,0,0,1,56.8,37.86Z"/><path class="cls-53" d="M64.46,38.52a.33.33,0,0,1-.33-.33.33.33,0,0,1,.32-.33.33.33,0,1,1,0,.66Z"/><path class="cls-54" d="M47,34.47a.33.33,0,1,1,0,.65.33.33,0,0,1-.33-.33A.32.32,0,0,1,47,34.47Z"/><path class="cls-55" d="M42,3.22l.17.43a.64.64,0,0,1-.24.22c-.15,0-.16.13-.2.22a1.3,1.3,0,0,1-2.17.3c-.13-.16-.15-.39-.34-.51s-.16-.15-.28-.15a.89.89,0,0,1,.21-.51c.06.11.14,0,.16,0a2.7,2.7,0,0,1,.38-.66,1.77,1.77,0,0,1,.84-.24c-.17.06-.29.15-.29.35a.48.48,0,0,0,.34.46c-.06-.13-.08-.21,0-.27.28-.12.29-.26.09-.49.06,0,.13,0,.18-.05s.19,0,.28.05.28.14.38.26l-.05.05a2.73,2.73,0,0,1,.29.53C41.86,3.27,42,3.34,42,3.22Zm-2.14,0s0,0,0,0,0,.12,0,.18a.2.2,0,0,0,.13.24.15.15,0,0,0,.18-.08.34.34,0,0,0,0-.35A.13.13,0,0,0,39.89,3.22Zm1.25,0c-.15,0-.11.15-.12.24s0,.25.19.22.16-.17.15-.31-.07-.18-.23-.14Zm-.94.89c0,.28.16.44.4.43s.39-.18.37-.46c-.08.21-.16.39-.4.38S40.28,4.26,40.2,4.09Z"/><path class="cls-56" d="M39,3.73c.12,0,.17.14.28.15a3.66,3.66,0,0,0,0,1.19,2.68,2.68,0,0,0,.45,1.42,1.14,1.14,0,0,0,1.73.15,2.45,2.45,0,0,0,.53-1.1,4.93,4.93,0,0,0,0-1.67.64.64,0,0,0,.24-.22,5.07,5.07,0,0,1-.31,4,1.45,1.45,0,0,1-2.58,0,4,4,0,0,1-.53-1.94A6.11,6.11,0,0,1,39,3.73Z"/><path class="cls-57" d="M40.75,2.37c.2.23.19.37-.09.49-.13.06-.11.14,0,.27a.48.48,0,0,1-.34-.46c0-.2.12-.29.29-.35Z"/><path class="cls-58" d="M42,3.22c-.07.12-.17,0-.2,0a2.73,2.73,0,0,0-.29-.53l.05-.05A3.62,3.62,0,0,1,42,3.22Z"/><path class="cls-59" d="M39.72,2.56a2.7,2.7,0,0,0-.38.66s-.1.11-.16,0A2,2,0,0,1,39.72,2.56Z"/><path class="cls-60" d="M42,3.87a4.93,4.93,0,0,1,0,1.67,2.45,2.45,0,0,1-.53,1.1,1.14,1.14,0,0,1-1.73-.15,2.68,2.68,0,0,1-.45-1.42,3.66,3.66,0,0,1,0-1.19c.19.12.21.35.34.51a1.3,1.3,0,0,0,2.17-.3C41.8,4,41.81,3.88,42,3.87Z"/><path class="cls-61" d="M41.13,3.21c.16,0,.22,0,.23.14s0,.29-.15.31S41,3.58,41,3.44s0-.21.11-.24a.33.33,0,0,0-.06.1.09.09,0,0,0,0,.13s.07,0,.08,0,.07-.09,0-.15Z"/><path class="cls-62" d="M39.89,3.22a.13.13,0,0,1,.23,0,.34.34,0,0,1,0,.35.15.15,0,0,1-.18.08.2.2,0,0,1-.13-.24c0-.06,0-.14,0-.18s0,.16.08.19a.08.08,0,0,0,.1-.07C40.06,3.25,40,3.23,39.89,3.22Z"/><path class="cls-63" d="M40.2,4.09c.08.17.14.34.37.35s.32-.17.4-.38c0,.28-.13.46-.37.46S40.2,4.37,40.2,4.09Z"/><path class="cls-64" d="M39.89,3.22c.09,0,.17,0,.15.15a.08.08,0,0,1-.1.07c-.1,0-.08-.12-.08-.19S39.88,3.23,39.89,3.22Z"/><path class="cls-55" d="M41.13,3.21l.09.06c.05.06,0,.11,0,.15s-.06,0-.08,0a.09.09,0,0,1,0-.13.33.33,0,0,1,.06-.1Z"/></g></g></svg>