<svg xmlns="http://www.w3.org/2000/svg" viewBox="0 0 40.88 68.75"><defs><style>.cls-1{fill:#fdda03;}.cls-2{fill:#f9d70b;}.cls-3{fill:#224081;}.cls-4{fill:#243e67;}.cls-5{fill:#263e69;}.cls-6{fill:#253f66;}.cls-7{fill:#263f6a;}.cls-8{fill:#28406a;}.cls-9{fill:#2a4068;}.cls-10{fill:#253f6d;}.cls-11{fill:#273f6a;}.cls-12{fill:#253f6e;}.cls-13{fill:#24406b;}.cls-14{fill:#2e4463;}.cls-15{fill:#273c5b;}.cls-16{fill:#3c4d52;}.cls-17{fill:#415050;}.cls-18{fill:#24406d;}.cls-19{fill:#21407d;}.cls-20{fill:#414d23;}.cls-21{fill:#3c4920;}.cls-22{fill:#293f2c;}.cls-23{fill:#2a4671;}.cls-24{fill:#d5c946;}.cls-25{fill:#2a3d20;}.cls-26{fill:#bdba67;}.cls-27{fill:#c8bc66;}.cls-28{fill:#e4dd64;}.cls-29{fill:#dbda7a;}.cls-30{fill:#e5db5d;}.cls-31{fill:#e5db5b;}.cls-32{fill:#22332e;}.cls-33{fill:#d8d672;}.cls-34{fill:#173145;}.cls-35{fill:#29341e;}.cls-36{fill:#212f2b;}.cls-37{fill:#1f3f76;}</style></defs><g id="Layer_2" data-name="Layer 2"><g id="Layer_2-2" data-name="Layer 2"><path class="cls-1" d="M.11,35.84c0-.42-.1-.85-.11-1.27Q0,18.74,0,2.92C0,0,0,0,2.81,0c11.88,0,23.77,0,35.65,0,1.83,0,2.45.61,2.41,2.42-.11,5.35-.08,10.7-.11,16-1.38,1-.28,2.13-.18,3.15.36,3.58-.84,7-.77,10.58a16.64,16.64,0,0,1,.09,3.31c-.07.38.2.88-.53,1.15-.58-1.5-.84-3.11-1.3-4.62-1-3.26-3.21-5.53-5.47-7.82-.51-.52-.84-.07-1.09.39l-1.66-1a17.43,17.43,0,0,0-12.29-2.41c-7.63,1.37-12.38,6-14.72,13.29-.42-.33-.84-.76-1.31-.07-.26.38-.82.5-.39,1.29a9.5,9.5,0,0,1,.82,5c-.08,1.82.06,3.65-.05,5.46-.06,1,.5,2.78-.4,2.78S.5,47.13.33,46v-.16a71.65,71.65,0,0,1,.31-8.41C.7,36.83.73,36.22.11,35.84ZM28.92,7.23c.25.35.64.28,1,.32A7.92,7.92,0,0,0,38,7.8a.92.92,0,0,0,.57-1.28c-.26-.57-.76-.17-1.09,0A7.86,7.86,0,0,1,32,7.15a8.27,8.27,0,0,0-7.71-.68c.57.31.87,1.14,1.73.75l.1,0,2.81,0Zm-23.78-2a4.27,4.27,0,0,0,3,.05,4,4,0,0,0,2.59-1,9.87,9.87,0,0,1,6.86.59,6.76,6.76,0,0,0,6.31-.29L25.76,4a11.19,11.19,0,0,1,5.45.94A7.6,7.6,0,0,0,38,4.53a.88.88,0,0,0,.54-1.17c-.21-.58-.62-.35-1-.1a7.84,7.84,0,0,1-6.91,0,8.2,8.2,0,0,0-7.09.06,7.38,7.38,0,0,1-6.31,0,8.14,8.14,0,0,0-7.65.23,10.33,10.33,0,0,1-4.75.37L3.29,3.25c-.36-.24-.78-.53-1,.08-.13.38-.17.85.34,1.09A6,6,0,0,0,5.14,5.27ZM11.9,15.83a1.4,1.4,0,0,0-1.34.32,8,8,0,0,1-8.17-.31c-.05,2.86,4.77,3.46,8.88,1.38.64-.06,1.27-.11,1.9-.19.3,0,.72,0,.69-.45s-.18-.9-.64-1a1.21,1.21,0,0,0-1.32.24Zm17.18,0a8.39,8.39,0,0,0-.89-.28.94.94,0,0,0-1.22.89c-.13.89.66.61,1.06.61,1.16,0,2.11.62,3.18.88a8.12,8.12,0,0,0,6.48-.22c.84-.35,1.11-.88.66-1.91a7.63,7.63,0,0,1-8,.37,1,1,0,0,0-1.09-.32A.1.1,0,0,0,29.08,15.84ZM16.56,6.32a8.32,8.32,0,0,0-6.41.19,7.36,7.36,0,0,1-6.61.1c-.35-.17-.88-.77-1.21-.11s.06,1,.7,1.37A7.75,7.75,0,0,0,10.12,8a7.93,7.93,0,0,1,4.35-.76A2,2,0,0,0,16.56,6.32ZM27.07,9.21c.06.56.15,1.2.78,1.24,1.6.08,2.92,1,4.42,1.36a8.51,8.51,0,0,0,5.61-.7c.62-.28.85-.69.67-1.25-.25-.82-.82-.24-1.13-.08a7.07,7.07,0,0,1-6.77,0A5.14,5.14,0,0,0,27.07,9.21ZM13.9,9.15c-2.26-.35-4,.77-5.76,1.32-2.1.62-3.85-.4-5.7-1-.15,1.32-.12,1.28.62,1.71,3.65,2.09,6.93-.08,10.32-.9C13.6,10.19,13.69,9.62,13.9,9.15ZM38.35,12.5a7.49,7.49,0,0,1-8.3.24A2.85,2.85,0,0,0,29,12.49c-.38-.05-.88-.37-1,.33s.08,1,.69,1a7.86,7.86,0,0,1,2.56.88,8.08,8.08,0,0,0,6.53-.3C38.5,14.05,38.77,13.58,38.35,12.5Zm-35.83,0c-.49,1.18-.13,1.7.71,2a11.35,11.35,0,0,0,3.42.78c1.92.12,3.47-1,5.23-1.36.61-.13,1.24-.3,1-1.12s-.89-.34-1.3-.19C8.58,13.65,5.59,14.9,2.52,12.47Z"/><path class="cls-2" d="M.11,35.84c.62.38.59,1,.53,1.57a71.65,71.65,0,0,0-.31,8.41V46c.17,1.15.27,3,1.18,3s.34-1.79.4-2.78c.11-1.81,0-3.64.05-5.46a9.5,9.5,0,0,0-.82-5c-.43-.79.13-.91.39-1.29.47-.69.89-.26,1.31.07l-.38,2.33a105.08,105.08,0,0,0-.12,13.28c0,.07.15.14.23.21a28.14,28.14,0,0,0,8.69,0c.73-.87.31-1.86.32-2.8,1.21-.61,2.52-.25,3.78-.36s1.59-.54,1-1.64c0-.37,0-.73,0-1.1.67-.76.29-1.32-.36-1.81l.3-.78c.24-.45.79-.87.11-1.38a.23.23,0,0,0-.15-.14L15.78,40a2.19,2.19,0,0,0-1.84-.25,2,2,0,0,1-2.37-1.3l-.34-.14L8.42,35.5c-1.6-2.16-1.61-4.05,0-5.36s3.39-1,5.32.91c1.09,1.08,2.22,2.11,3.33,3.17h0a.29.29,0,0,0,.32.31h0a7.22,7.22,0,0,0,2.23,2.24h0l.3.34c1,1.06,1.12-.34,1.63-.63,1.93-1.89,3.89-3.76,5.8-5.68,1.27-1.27,2.65-2,4.41-1.11s2.12,2.2,1.64,4.5l-.26.54c-1.42,1.69-3.78,2.65-4,5.24H25.52c-.55,0-1.07.06-1.31.63s.11,1,.56,1.32l-.11.93-.18.19c-.7.49-.21.95,0,1.42.08.32.64.47.33.93l-.44.37c-.18,1.19,0,1.4,1.21,1.48s2.44.12,3.66.17v.14c0,.91,0,1.82,0,2.72a26.86,26.86,0,0,0,9,.05l.38-.37c.45-.44.27-1,.27-1.52,0-2.79,0-5.58,0-8.37,0-.77.29-1.61-.28-2.33l-.49-2.47c-.91-3.34-2.19-6.47-4.93-8.78l-1.71-1.89c.25-.46.58-.91,1.09-.39,2.26,2.29,4.47,4.56,5.47,7.82.46,1.51.72,3.12,1.3,4.62.73-.27.46-.77.53-1.15a16.64,16.64,0,0,0-.09-3.31c-.07-3.56,1.13-7,.77-10.58-.1-1-1.2-2.19.18-3.15q0,9.39.09,18.79c0,4.34,0,8.67,0,13,0,1.61-.47,2.29-2.21,2.28-11.88,0-23.77,0-35.65,0-3,0-3,0-3-3Q0,42.66.11,35.84ZM19.91,51.6a54.75,54.75,0,0,0,7.8-.31c.83-.14,1.37-.34,1.2-1.28a2.67,2.67,0,0,0-3.16-2.13c-2,.33-2.08,0-2.65-1.91-.45-1.49.68-2.61.28-4-.57-2,.64-3.21,2.75-3,.7.08,1.69.41,2-.45a8.6,8.6,0,0,1,3.31-3.82,2.74,2.74,0,0,0,.05-4.22c-.34-.3-1-.66-1.08-.3-.35,1.14-1.42.83-2.06,1.29-1,.71-1.74,1.71-2.69,2.48-1.61,1.29-2.56,3.3-4.6,4.13A1.4,1.4,0,0,1,19.54,38c-1.28-.8-1.94-2.2-3.17-3a24.19,24.19,0,0,1-2.88-2.45c-1-.86-2-2-3.63-1.83-.51.06-1,.35-1,.87s.56.37.9.38c.76,0,.92.37.66,1.05-.74,1.91-.17,3.29,1.4,4.63,1,.84,1.6,1.51,3.07,1.15,1.8-.43,2.67.9,2.63,2.72,0,1.58-.56,3.27.41,4.79.36.57.49,1-.51,1.15-1.2.18-2.35.66-3.55.91-1.38.28-1.3,1.51-1.44,2.39s.87.42,1.35.56C15.9,51.92,18.06,51.41,19.91,51.6ZM9.68,33.68l-.37-.28c-.08.12-.22.24-.22.35s.18.2.28.3Z"/><path class="cls-3" d="M2.46,36.86l.38-2.33c2.34-7.27,7.09-11.92,14.72-13.29a17.43,17.43,0,0,1,12.29,2.41l1.66,1,1.71,1.89a1.33,1.33,0,0,1-.75,2.12,3.76,3.76,0,0,0-.62.45H28.32l-2.55-3.22,0,0-.33-.3c-.82-.72-1.16-2.11-2.65-1.91a6.32,6.32,0,0,0-5.65.61c-2,.07-2,1.74-2.3,3-.18.66,0,1.48-1,1.5s-2.2.52-3.33.3C8.25,28.6,6.71,31,6.52,33c-.13,1.48.81,2.63,1.9,2.54l2.81,2.76c.11.55-.28,1.21.37,1.64a.29.29,0,0,1,.14.13c1.46.79,3,.2,4.52.31a.23.23,0,0,1,.15.14c-.07.76-.38,1.17-1.24,1a6.35,6.35,0,0,0-3,.13c-.39.09-.9,0-.85.68a.82.82,0,0,0,.88.75c1,.09,1.91.09,2.86.16.39,0,1-.14,1,.49s-.57.49-1,.54c-1.05.12-2.15-.39-3.15.29-.69.84-.09,1,.58,1,1.27,0,2.55,0,3.82,0,.63,1.1.17,1.53-1,1.64s-2.57-.25-3.78.36c-.37.06-.38.37-.33.6.34,1.62-.65,1.75-1.84,1.72-1.81,0-3.63-.12-5.44-.06-1.23,0-1.48-.46-1.47-1.6C2.55,44.42,2.48,40.64,2.46,36.86Z"/><path class="cls-4" d="M23.89,4.64a6.76,6.76,0,0,1-6.31.29,9.87,9.87,0,0,0-6.86-.59c-.59-.18-1.16.58-1.83.06l.71-.83a8.14,8.14,0,0,1,7.65-.23,7.38,7.38,0,0,0,6.31,0,8.2,8.2,0,0,1,7.09-.06c-.4.14-1-.24-1.21.47.45.2.87.42,1.3.6A7.59,7.59,0,0,0,37,4.55c.54-.25,1.39-.43.53-1.29.37-.25.78-.48,1,.1A.88.88,0,0,1,38,4.53a7.6,7.6,0,0,1-6.8.39A11.19,11.19,0,0,0,25.76,4c-.66-1.31-1.49-.48-2.25-.17-.23.09-.59.2-.46.54S23.59,4.57,23.89,4.64Zm-4.51.17a2.24,2.24,0,0,0,2.42.08A3.39,3.39,0,0,0,19.38,4.81Zm7.39-1.5a1.07,1.07,0,0,0,1.5,0A1.06,1.06,0,0,0,26.77,3.31Z"/><path class="cls-5" d="M16.56,6.32a2,2,0,0,1-2.09.92A7.93,7.93,0,0,0,10.12,8,7.75,7.75,0,0,1,3,7.87c-.64-.33-1-.77-.7-1.37s.86-.06,1.21.11a7.36,7.36,0,0,0,6.61-.1A8.32,8.32,0,0,1,16.56,6.32Z"/><path class="cls-6" d="M27.07,9.21a5.14,5.14,0,0,1,3.58.54,7.07,7.07,0,0,0,6.77,0c.31-.16.88-.74,1.13.08.18.56,0,1-.67,1.25a8.51,8.51,0,0,1-5.61.7c-1.5-.36-2.82-1.28-4.42-1.36C27.22,10.41,27.13,9.77,27.07,9.21Z"/><path class="cls-7" d="M13.9,9.15c-.21.47-.3,1-.52,1.09-3.39.82-6.67,3-10.32.9-.74-.43-.77-.39-.62-1.71,1.85.64,3.6,1.66,5.7,1C10,9.92,11.64,8.8,13.9,9.15Z"/><path class="cls-8" d="M38.35,12.5c.42,1.08.15,1.55-.63,1.92a8.08,8.08,0,0,1-6.53.3,7.86,7.86,0,0,0-2.56-.88c-.61,0-.8-.46-.69-1s.64-.38,1-.33a2.85,2.85,0,0,1,1.09.25A7.49,7.49,0,0,0,38.35,12.5Z"/><path class="cls-9" d="M32,7.15a7.86,7.86,0,0,0,5.43-.63c.33-.17.83-.57,1.09,0A.92.92,0,0,1,38,7.8a7.92,7.92,0,0,1-8-.25c-.22-.44-.61-.37-1-.32h0a2.39,2.39,0,0,0-2.81,0l-.1,0c-.23-.2-.65-.4-.65-.6,0-.37.43-.34.74-.39C28.18,5.87,30.05,6.84,32,7.15Z"/><path class="cls-10" d="M2.52,12.47c3.07,2.43,6.06,1.18,9.06.13.41-.15,1.05-.68,1.3.19s-.39,1-1,1.12c-1.76.38-3.31,1.48-5.23,1.36a11.35,11.35,0,0,1-3.42-.78C2.39,14.17,2,13.65,2.52,12.47Z"/><path class="cls-11" d="M30.33,16.18a7.63,7.63,0,0,0,8-.37c.45,1,.18,1.56-.66,1.91a8.12,8.12,0,0,1-6.48.22c-.87-1.38-2.53-.89-3.81-1.37.46-.87,1.16-.54,1.68-.73a.1.1,0,0,1,.16,0A1.19,1.19,0,0,0,30.33,16.18Z"/><path class="cls-12" d="M11.27,17.22C7.16,19.3,2.34,18.7,2.39,15.84a8,8,0,0,0,8.17.31c.48,0,1,.15,1.34-.32h0c.36.18.89-.05,1.12.47C12.64,17,11.7,16.63,11.27,17.22Z"/><path class="cls-13" d="M37.56,3.26c.86.86,0,1-.53,1.29a7.59,7.59,0,0,1-6.29-.19c-.43-.18-.85-.4-1.3-.6.22-.71.81-.33,1.21-.47A7.84,7.84,0,0,0,37.56,3.26Z"/><path class="cls-14" d="M9.6,3.57l-.71.83c.67.52,1.24-.24,1.83-.06a4,4,0,0,1-2.59,1A.8.8,0,0,1,8,5.19c-.34-.89-1.1-.91-1.81-.74A1.14,1.14,0,0,1,4.79,4l.06-.08A10.33,10.33,0,0,0,9.6,3.57Z"/><path class="cls-15" d="M32,7.15c-2-.31-3.83-1.28-5.89-.92-.31,0-.75,0-.74.39,0,.2.42.4.65.6-.86.39-1.16-.44-1.73-.75A8.27,8.27,0,0,1,32,7.15Z"/><path class="cls-16" d="M29.08,15.84c-.52.19-1.22-.14-1.68.73,1.28.48,2.94,0,3.81,1.37-1.07-.26-2-.89-3.18-.88-.4,0-1.19.28-1.06-.61a.94.94,0,0,1,1.22-.89A8.39,8.39,0,0,1,29.08,15.84Z"/><path class="cls-13" d="M23.89,4.64c-.3-.07-.71.06-.84-.29s.23-.45.46-.54c.76-.31,1.59-1.14,2.25.17Z"/><path class="cls-17" d="M11.27,17.22c.43-.59,1.37-.22,1.75-.92-.23-.52-.76-.29-1.12-.47a1.21,1.21,0,0,1,1.32-.24c.46.09.62.57.64,1s-.39.42-.69.45C12.54,17.11,11.91,17.16,11.27,17.22Z"/><path class="cls-14" d="M5.14,5.27a6,6,0,0,1-2.5-.85c-.51-.24-.47-.71-.34-1.09.21-.61.63-.32,1-.08l-.09.11c-.51.58-.53.61,0,.92s1.29.61,1.94.91Z"/><path class="cls-15" d="M26.13,7.2a2.39,2.39,0,0,1,2.81,0Z"/><path class="cls-14" d="M8.13,5.32a4.27,4.27,0,0,1-3-.05l.05-.08H8A.8.8,0,0,0,8.13,5.32Z"/><path class="cls-14" d="M3.29,3.25l1.56.69L4.79,4C4.2,4,3.55,4,3.2,3.36Z"/><path class="cls-17" d="M11.9,15.83c-.36.47-.86.34-1.34.32A1.4,1.4,0,0,1,11.9,15.83Z"/><path class="cls-16" d="M30.33,16.18a1.19,1.19,0,0,1-1.09-.32A1,1,0,0,1,30.33,16.18Z"/><path class="cls-15" d="M28.92,7.23c.38-.05.77-.12,1,.32C29.56,7.51,29.17,7.58,28.92,7.23Z"/><path class="cls-1" d="M19.91,51.6c-1.85-.19-4,.32-6.11-.3-.48-.14-1.48.33-1.35-.56s.06-2.11,1.44-2.39c1.2-.25,2.35-.73,3.55-.91,1-.14.87-.58.51-1.15-1-1.52-.45-3.21-.41-4.79,0-1.82-.83-3.15-2.63-2.72-1.47.36-2.09-.31-3.07-1.15-1.57-1.34-2.14-2.72-1.4-4.63.26-.68.1-1-.66-1.05-.34,0-.9.15-.9-.38s.47-.81,1-.87c1.6-.19,2.65,1,3.63,1.83A24.19,24.19,0,0,0,16.37,35c1.23.79,1.89,2.19,3.17,3a1.4,1.4,0,0,0,1.55.12c2-.83,3-2.84,4.6-4.13.95-.77,1.71-1.77,2.69-2.48.64-.46,1.71-.15,2.06-1.29.11-.36.74,0,1.08.3a2.74,2.74,0,0,1-.05,4.22,8.6,8.6,0,0,0-3.31,3.82c-.34.86-1.33.53-2,.45-2.11-.23-3.32,1-2.75,3,.4,1.4-.73,2.52-.28,4,.57,1.9.68,2.24,2.65,1.91A2.67,2.67,0,0,1,28.91,50c.17.94-.37,1.14-1.2,1.28A54.75,54.75,0,0,1,19.91,51.6Z"/><path class="cls-3" d="M24.48,43.06a1.54,1.54,0,0,0,.17-.19h3.62c.66,0,1.21-.06.93-.95a3.93,3.93,0,0,0-2.69-.45c-.75.06-1.56.17-2.16-.81.76-.1,1.38-.18,2-.28.93-.14,1.94.3,2.79-.38.23-2.59,2.59-3.55,4-5.24.77-.27,1.36-.29,1.3.82,0,.54-.18,1.23.85,1.43-.27-1.35-.25-2.67-1.13-3.75v-.63c.42.15.89.56,1.2-.12s.67-.75,1.11-.36.06.76-.3,1c-.6.45-.33,1.31,0,1.16,1.39-.62,1.07,1,1.77,1.17.46,4.32.15,8.65.31,13,0,1.16-.45,1.49-1.53,1.45-1.92-.06-3.85-.1-5.77,0-1.15.05-1.54-.39-1.47-1.46,0-.29.12-.65-.21-.88v-.14c.08-1-.59-1.21-1.4-1.3a3.26,3.26,0,0,0-1.77.54,1.36,1.36,0,0,1-1.34-.29l.7-.53c1.24-.44,2.65.47,3.82-.49,0-.36,0-.7-.39-.88-.83-.69-1.78-.37-2.7-.36C25.43,44.13,24.48,44.33,24.48,43.06Z"/><path class="cls-18" d="M34.16,32.63c0,.21,0,.42,0,.63,0,.5-.09,1-.76,1,.48-2.3,0-3.69-1.64-4.5s-3.14-.16-4.41,1.11c-1.91,1.92-3.87,3.79-5.8,5.68.13-1.31,1.59-1.66,2-2.76-2.52.7-2.52.7-6.09,0-.39-.08-.38.28-.48.51-1.11-1.06-2.24-2.09-3.33-3.17-1.93-1.91-3.74-2.23-5.32-.91s-1.56,3.2,0,5.36c-1.09.09-2-1.06-1.9-2.54.19-2,1.73-4.36,4-3.92,1.13.22,2.21-.27,3.33-.3s.82-.84,1-1.5c.35-1.28.32-2.95,2.3-3-.21.24-.41.49-.62.72a5.38,5.38,0,0,0,.22,7.62,5.45,5.45,0,0,0,7.75-.32c2.31-2.58,1.62-6.09-1.7-8.63,1.49-.2,1.83,1.19,2.65,1.91l.33.3,0,0c-.17.87.78,1.41.65,2.27l0,1.92a.85.85,0,0,0-.58.65c0,.24-.05.63.06.69.26.13.4-.16.51-.38l.32-.32,1.28-1a.59.59,0,0,0,.33-.62h3.53l.64.33.65.64A6.21,6.21,0,0,1,34.16,32.63Zm-21-3.06c.45.45.56,1.29,1.35,1.18.34,0,.38-.5.29-.81C14.48,29,13.75,29.49,13.12,29.57Z"/><path class="cls-19" d="M34.16,32.63a6.21,6.21,0,0,0-1-2.59.4.4,0,0,0,.11-.66c-.24-.29-.51-.33-.76,0l-.64-.33a3.76,3.76,0,0,1,.62-.45,1.33,1.33,0,0,0,.75-2.12c2.74,2.31,4,5.44,4.93,8.77a.35.35,0,0,0-.2.23c-.7-.17-.38-1.79-1.77-1.17-.34.15-.61-.71,0-1.16.36-.26.73-.63.3-1s-.85-.2-1.11.36S34.58,32.78,34.16,32.63Zm.28-4.29c-.26,3.15-.14,3.34,1.55,2.55C35.28,30.28,35.11,29.35,34.44,28.34Z"/><path class="cls-20" d="M2.46,36.86c0,3.78.09,7.56,0,11.35,0,1.14.24,1.64,1.47,1.6,1.81-.06,3.63,0,5.44.06,1.19,0,2.18-.1,1.84-1.72-.05-.23,0-.54.33-.6,0,.94.41,1.93-.32,2.8H2.57c-.08-.07-.22-.14-.23-.21A105.08,105.08,0,0,1,2.46,36.86Z"/><path class="cls-19" d="M17,34.22c.1-.23.09-.59.48-.51,3.57.74,3.57.74,6.09,0-.45,1.1-1.91,1.45-2,2.76-.51.29-.59,1.69-1.63.63l-.3-.34h0c.53-.51,1.12-1.39,0-1.44s-1.44-.83-2.27-.8h0l-.32-.31Z"/><path class="cls-21" d="M38,35.5a.35.35,0,0,1,.2-.23c.16.83.33,1.66.49,2.48q0,6.12,0,12.22l-.38.37-9-.05c0-.9,0-1.81,0-2.72.33.23.23.59.21.88-.07,1.07.32,1.51,1.47,1.46,1.92-.09,3.85,0,5.77,0,1.08,0,1.57-.29,1.53-1.45C38.1,44.15,38.41,39.82,38,35.5Z"/><path class="cls-22" d="M11.92,44.5c1-.68,2.1-.17,3.15-.29.41-.05,1,0,1-.54s-.6-.46-1-.49c-1-.07-1.91-.07-2.86-.16a.82.82,0,0,1-.88-.75c-.05-.64.46-.59.85-.68a6.35,6.35,0,0,1,3-.13c.86.19,1.17-.22,1.24-1,.68.51.13.93-.1,1.38-1.53.29-3.15-.23-4.66.28v.5H16c.65.49,1,1,.36,1.81Z"/><path class="cls-23" d="M25.46,45.85l-.7.53a1.36,1.36,0,0,0,1.34.29,3.26,3.26,0,0,1,1.77-.54c.81.09,1.48.27,1.4,1.3-1.22,0-2.44-.08-3.66-.17S24.22,47,24.4,45.78Z"/><path class="cls-24" d="M11.92,44.5l4.44,0c0,.37,0,.73,0,1.1-1.27,0-2.55,0-3.82,0C11.83,45.48,11.23,45.34,11.92,44.5Z"/><path class="cls-25" d="M29.14,40c-.85.68-1.86.24-2.79.38-.62.1-1.24.18-2,.28.6,1,1.41.87,2.16.81a3.93,3.93,0,0,1,2.69.45l-4.43,0c-.45-.33-.82-.72-.56-1.32S25,40,25.52,40Z"/><path class="cls-26" d="M24.77,41.94l4.43,0c.28.89-.27.95-.93.95H24.65Z"/><path class="cls-27" d="M28.89,44.48c.38.18.4.52.39.88l-4.44,0c.31-.46-.25-.61-.33-.93Z"/><path class="cls-28" d="M38.66,50q0-6.11,0-12.22c.57.72.27,1.56.28,2.33,0,2.79,0,5.58,0,8.37C38.93,49,39.11,49.53,38.66,50Z"/><path class="cls-29" d="M16,42.64H11.66v-.5c1.51-.51,3.13,0,4.66-.28C16.2,42.12,16.1,42.38,16,42.64Z"/><path class="cls-30" d="M29.29,50.29l9,.05A26.86,26.86,0,0,1,29.29,50.29Z"/><path class="cls-31" d="M2.57,50.35h8.69A28.14,28.14,0,0,1,2.57,50.35Z"/><path class="cls-19" d="M33.41,34.22c.67,0,.73-.46.76-1,.88,1.08.86,2.4,1.13,3.75-1-.2-.88-.89-.85-1.43.06-1.11-.53-1.09-1.3-.82Z"/><path class="cls-18" d="M17.38,34.55c.83,0,1.31.76,2.27.8s.49.93,0,1.44A7.22,7.22,0,0,1,17.38,34.55Z"/><path class="cls-32" d="M28.89,44.48H24.51c-.24-.47-.73-.93,0-1.42,0,1.27.95,1.07,1.71,1.06C27.11,44.11,28.06,43.79,28.89,44.48Z"/><path class="cls-33" d="M11.57,38.4a2,2,0,0,0,2.37,1.3,2.19,2.19,0,0,1,1.84.25l-4,.08a.24.24,0,0,0-.14-.12Z"/><path class="cls-34" d="M24.84,45.41l4.44,0c-1.17,1-2.58,0-3.82.49l-1.06-.07Z"/><path class="cls-35" d="M11.74,40l4-.08.48.39C14.76,40.23,13.2,40.82,11.74,40Z"/><path class="cls-1" d="M9.68,33.68l-.31.37c-.1-.1-.27-.19-.28-.3s.14-.23.22-.35Z"/><path class="cls-36" d="M11.57,38.4l0,1.51c-.65-.44-.26-1.1-.37-1.65Z"/><path class="cls-18" d="M19.63,36.8l.3.34Z"/><path class="cls-18" d="M17.05,34.23l.32.31A.29.29,0,0,1,17.05,34.23Z"/><path class="cls-2" d="M22.77,23.61c3.32,2.54,4,6.05,1.7,8.63a5.45,5.45,0,0,1-7.75.32,5.38,5.38,0,0,1-.22-7.62c.21-.23.41-.48.62-.72A6.32,6.32,0,0,1,22.77,23.61Z"/><path class="cls-19" d="M28.32,29.06a.59.59,0,0,1-.33.62c.12-1.16-1.11-1-1.57-1.57.13-.86-.82-1.4-.65-2.27Z"/><path class="cls-19" d="M25.75,25.82l-.33-.3Z"/><path class="cls-37" d="M19.38,4.81a3.39,3.39,0,0,1,2.42.08A2.24,2.24,0,0,1,19.38,4.81Z"/><path class="cls-13" d="M26.77,3.31a1.06,1.06,0,0,1,1.5,0A1.07,1.07,0,0,1,26.77,3.31Z"/><path class="cls-4" d="M3.2,3.36C3.55,4,4.2,4,4.79,4a1.14,1.14,0,0,0,1.4.43C6.9,4.28,7.66,4.3,8,5.19H5.19c-.65-.3-1.31-.58-1.94-.91S2.69,3.94,3.2,3.36Z"/><path class="cls-3" d="M26.42,28.11c.46.58,1.69.41,1.57,1.57l-1.28,1L26.4,30Z"/><path class="cls-3" d="M13.12,29.57c.63-.08,1.36-.59,1.64.37.09.31.05.77-.29.81C13.68,30.86,13.57,30,13.12,29.57Z"/><path class="cls-3" d="M32.49,29.4c.25-.35.52-.31.76,0a.4.4,0,0,1-.11.66Z"/><path class="cls-19" d="M26.4,30l.31.64-.32.32-.57-.31A.85.85,0,0,1,26.4,30Z"/><path class="cls-3" d="M25.82,30.68l.57.31c-.11.22-.25.51-.51.38C25.77,31.31,25.83,30.92,25.82,30.68Z"/><path class="cls-3" d="M34.44,28.34c.67,1,.84,1.94,1.55,2.55C34.3,31.68,34.18,31.49,34.44,28.34Z"/><path class="cls-3" d="M1.15,60.85c.91,0,1.13-.7,1.13-1.46a1.86,1.86,0,0,0-1-1.79c-.5-.38-.6-.57-.6-1.07s.1-.75.47-.75.46.29.46.74v.24h.57V56.5c0-.69-.21-1.22-1-1.23S.11,55.93.11,56.61A1.66,1.66,0,0,0,1,58.14a1.39,1.39,0,0,1,.71,1.33c0,.59-.15.87-.54.87S.6,60.07.6,59.56v-.31H0v.31C0,60.27.27,60.85,1.15,60.85Z"/><path class="cls-3" d="M5,59.54V57.81c0-.78-.37-1.24-1.06-1.24S2.84,57,2.84,57.8v1.76c0,.88.39,1.28,1.06,1.28S5,60.44,5,59.54Zm-1.57,0V57.8c0-.46.15-.71.5-.71s.49.29.49.7v1.79c0,.52-.17.74-.5.74S3.42,60,3.42,59.58Z"/><path class="cls-3" d="M7.56,59.52v-.05H7v.13c0,.52-.11.74-.44.74s-.44-.39-.44-.77V57.8c0-.49.13-.73.45-.73s.43.33.43.7v.14h.57v-.16c0-.56-.14-1.18-1-1.18s-1,.57-1,1.27v1.6c0,.84.2,1.4,1,1.4S7.56,60.24,7.56,59.52Z"/><rect class="cls-3" x="8.14" y="56.64" width="0.58" height="4.13"/><rect class="cls-3" x="8.15" y="55.11" width="0.58" height="0.84"/><polygon class="cls-3" points="11.51 55.05 10.84 55.05 10.06 56.12 10.57 56.12 11.51 55.05"/><path class="cls-3" d="M10.42,60.84c.92,0,1-.74,1-1.22v0h-.57v0c0,.39-.07.71-.46.71s-.49-.43-.49-.84v-.68h1.53v-.93c0-.72-.23-1.32-1-1.32s-1.07.7-1.07,1.32v1.54C9.36,60.27,9.56,60.84,10.42,60.84Zm-.49-3c0-.45.11-.77.5-.77s.47.38.47.77v.51h-1Z"/><path class="cls-3" d="M12.92,60.83a1.36,1.36,0,0,0,.45-.06v-.45a1.06,1.06,0,0,1-.26,0c-.26,0-.3-.2-.3-.41V57.15h.58v-.51h-.58v-1h-.57v1h-.48v.51h.48V60C12.24,60.66,12.52,60.83,12.92,60.83Z"/><polygon class="cls-3" points="14.39 56.12 14.9 56.12 15.83 55.05 15.17 55.05 14.39 56.12"/><path class="cls-3" d="M14.76,56.57c-.85,0-1.07.7-1.07,1.32v1.54c0,.84.2,1.41,1.06,1.41s1-.74,1-1.22v0h-.57v0c0,.39-.07.71-.46.71s-.49-.43-.49-.84v-.68h1.53v-.93C15.79,57.17,15.56,56.57,14.76,56.57Zm.47,1.78h-1v-.51c0-.45.1-.77.49-.77s.48.38.48.77Z"/><path class="cls-3" d="M18,59H19l.28,1.73h.6l-.93-5.42h-.82l-.89,5.42h.58Zm.44-3.16h0c.06.51.19,1.44.38,2.63h-.76C18.27,57.52,18.46,56.3,18.48,55.88Z"/><rect class="cls-3" x="20.36" y="55.11" width="0.58" height="5.66"/><path class="cls-3" d="M23.22,57a.63.63,0,0,0-.68-.43c-.64,0-1,.51-1,1.23v1.66c0,.81.25,1.27.88,1.27a.68.68,0,0,0,.7-.43v.53c0,.59-.1.91-.52.91a.47.47,0,0,1-.48-.53v0h-.58v0a.92.92,0,0,0,1,1c1,0,1.12-.7,1.12-1.54v-3c0-.49,0-.86,0-1.09h-.5A3.48,3.48,0,0,0,23.22,57Zm-.06,2.18c0,.56-.07,1-.54,1s-.46-.26-.46-.79V57.83c0-.47.15-.73.51-.73s.49.38.49.86Z"/><polygon class="cls-3" points="25.08 56.12 25.59 56.12 26.52 55.05 25.85 55.05 25.08 56.12"/><path class="cls-3" d="M25.44,56.57c-.84,0-1.06.7-1.06,1.32v1.54c0,.84.19,1.41,1.05,1.41s1-.74,1-1.22v0H25.9v0c0,.39-.08.71-.47.71s-.49-.43-.49-.84v-.68h1.53v-.93C26.47,57.17,26.24,56.57,25.44,56.57Zm.47,1.78H25v-.51c0-.45.1-.77.49-.77s.47.38.47.77Z"/><path class="cls-3" d="M27.65,57.29c0-.28,0-.54,0-.65h-.55c0,.37,0,.74,0,1.41v2.72h.58V58.34c0-.74.35-1,.86-1v-.72A.9.9,0,0,0,27.65,57.29Z"/><rect class="cls-3" x="28.94" y="56.64" width="0.58" height="4.13"/><rect class="cls-3" x="28.94" y="55.11" width="0.58" height="0.84"/><path class="cls-3" d="M31.22,56.57c-.84,0-1.06.7-1.06,1.32v1.54c0,.84.19,1.41,1.05,1.41s1-.74,1-1.22v0h-.56v0c0,.39-.08.71-.47.71s-.49-.43-.49-.84v-.68h1.53v-.93C32.25,57.17,32,56.57,31.22,56.57Zm.48,1.78h-1v-.51c0-.45.1-.77.49-.77s.48.38.48.77Z"/><path class="cls-3" d="M34.19,56.57a.75.75,0,0,0-.76.48,4,4,0,0,0,0-.41h-.55v4.13h.58V58.06c0-.79.21-1,.55-1s.44.21.44.61v3.06H35V57.59C35,56.83,34.64,56.57,34.19,56.57Z"/><path class="cls-3" d="M37.09,56.57a.75.75,0,0,0-.76.48,4,4,0,0,0,0-.41h-.55v4.13h.58V58.06c0-.79.2-1,.55-1s.43.21.43.61v3.06h.58V57.59C37.9,56.83,37.54,56.57,37.09,56.57Z"/><path class="cls-3" d="M40.64,58.82v-.93c0-.72-.23-1.32-1-1.32s-1.07.7-1.07,1.32v1.54c0,.84.2,1.41,1.06,1.41s1-.74,1-1.22v0h-.57v0c0,.39-.07.71-.46.71s-.49-.43-.49-.84v-.68Zm-1.53-1c0-.45.11-.77.5-.77s.47.38.47.77v.51h-1Z"/><path class="cls-3" d="M1.3,63.27h-1v5.42h1c1.23,0,1.35-.86,1.35-1.7V64.85C2.61,64,2.47,63.27,1.3,63.27ZM2,67.11c0,.71-.16,1.08-.81,1.08H.89V63.77h.33c.69,0,.81.39.81,1Z"/><path class="cls-3" d="M5.17,64.49c-.85,0-1.07.69-1.07,1.32v1.54c0,.84.2,1.4,1.06,1.4s1-.73,1-1.21v0H5.62v0c0,.4-.07.72-.46.72s-.49-.43-.49-.84v-.68H6.2v-.93C6.2,65.08,6,64.49,5.17,64.49Zm.47,1.78h-1v-.51c0-.45.1-.77.5-.77s.47.38.47.76Z"/><path class="cls-3" d="M10.24,63.27h-1v5.42h.58V66.3h.37c1,0,1.23-.6,1.23-1.42v-.33C11.43,63.67,11.05,63.27,10.24,63.27Zm.61,1.6c0,.56-.09.94-.7.94H9.83V63.76h.37c.56,0,.65.38.65.82Z"/><path class="cls-3" d="M14,64.49c-.84,0-1.06.69-1.06,1.32v1.54c0,.84.19,1.4,1.05,1.4s1-.73,1-1.21v0h-.56v0c0,.4-.08.72-.47.72s-.49-.43-.49-.84v-.68H15v-.93C15,65.08,14.79,64.49,14,64.49Zm.48,1.78h-1v-.51c0-.45.1-.77.49-.77s.48.38.48.76Z"/><polygon class="cls-3" points="13.63 64.04 14.14 64.04 15.07 62.97 14.4 62.97 13.63 64.04"/><path class="cls-3" d="M18.73,63h-.58V64.8a.71.71,0,0,0-.65-.31c-.64,0-.93.5-.93,1.23v1.69c0,.79.18,1.34.87,1.34a.7.7,0,0,0,.72-.47,2.63,2.63,0,0,0,0,.41h.55c0-.23,0-.57,0-1.07Zm-.58,4.21c0,.57-.1,1-.53,1s-.47-.27-.47-.8V65.75c0-.45.14-.73.48-.73s.52.41.52.86Z"/><rect class="cls-3" x="21.02" y="64.56" width="0.58" height="4.13"/><rect class="cls-3" x="21.02" y="63.03" width="0.58" height="0.84"/><path class="cls-3" d="M26,65.55c0-.61-.23-1.06-.95-1.06s-1,.49-1,1.07v.1h.57v-.11c0-.32.09-.57.41-.57s.39.24.39.61v.66h-.18a1.16,1.16,0,0,0-1.32,1.26v.08c0,.63.24,1.16.84,1.16a.65.65,0,0,0,.67-.4c0,.07,0,.24.05.34H26c0-.12,0-.43,0-.72Zm-.57,1.76c0,.62-.13.93-.51.93s-.44-.3-.44-.67V67.5c0-.59.28-.79.75-.79h.2Z"/><path class="cls-3" d="M28.86,63.54h-.58v1h-.47v.51h.47V68c0,.63.28.8.68.8a1.29,1.29,0,0,0,.45-.07v-.44l-.26,0c-.26,0-.29-.2-.29-.42V65.07h.58v-.51h-.58Z"/><path class="cls-3" d="M32.13,65.2c0-.28,0-.54,0-.64h-.55c0,.36,0,.74,0,1.4v2.73h.57V66.26c0-.75.35-1,.86-1.05V64.5A.89.89,0,0,0,32.13,65.2Z"/><rect class="cls-3" x="35.65" y="64.56" width="0.58" height="4.13"/><rect class="cls-3" x="35.65" y="63.03" width="0.58" height="0.84"/><path class="cls-3" d="M39.61,64.49c-.85,0-1.07.69-1.07,1.32v1.54c0,.84.2,1.4,1.06,1.4s1-.73,1-1.21v0h-.57v0c0,.4-.07.72-.46.72s-.49-.43-.49-.84v-.68h1.53v-.93C40.64,65.08,40.41,64.49,39.61,64.49Zm.47,1.78h-1v-.51c0-.45.11-.77.5-.77s.47.38.47.76Z"/></g></g></svg>