<svg xmlns="http://www.w3.org/2000/svg" viewBox="0 0 78.34 33.65"><defs><style>.cls-1{fill:#cd5e86;}</style></defs><g id="Layer_2" data-name="Layer 2"><g id="Layer_2-2" data-name="Layer 2"><path class="cls-1" d="M26.22,1C23,2.29,21.91,4.19,22.4,7.54a36.91,36.91,0,0,0,3.46,10l-4.53,4,2.52,3.13,3.94-3.37L32,28.09l4.89-4.62a29.92,29.92,0,0,1-5.79-5.56c2.19-2.8,4.36-5.58,5-9.4a15.07,15.07,0,0,1,2.88,5.36c2.09,7.08-.62,13-8,16.66a25.82,25.82,0,0,1-24,.31C.9,27.9-1.33,23.17.78,16.64,3.49,8.24,9.1,2.48,17.91.35A14.22,14.22,0,0,1,26.22,1Z"/><path class="cls-1" d="M28.66,14.49c-1.56-2.85-3.09-5.54-3-8.79a1.18,1.18,0,0,1,1.28-1.31,6.06,6.06,0,0,1,3.69,1A2.92,2.92,0,0,1,32,9.16,20.45,20.45,0,0,1,28.66,14.49Z"/><path class="cls-1" d="M78.34,14.33c-.09-1.77,0-3.55,0-5.33,0-2.07-.49-2.49-2.77-2.22-.47,1.51-1.52,2.83-1.39,4.73-.56-1.43-1.1-2.67-1.54-3.95a1.26,1.26,0,0,0-1.48-.88c-.73,0-1.52.26-1.54,1-.1,2.7,0,5.4,0,8.06,1.34.33,1.81-.17,1.75-1.44-.07-1.81,0-3.63,0-5.55.63,1.31.43,3.13,1.84,3.56,3.07.94,2.37-2.36,3.49-3.48v6.92C77.88,16,78.41,15.66,78.34,14.33Z"/><path class="cls-1" d="M57.22,8.15c-.48-1.44-1.48-1.6-2.78-1.36l-3.16,9h1.95L53.85,14H57l-.51-1.55-2.06-.09,1-2.85L54.81,7.6,55,7.53l.85,2c.68,2.11,1.37,4.22,2,6.24,1.68.28,2-.34,1.47-1.66C58.58,12.13,57.87,10.15,57.22,8.15Z"/><path class="cls-1" d="M66.4,6.94a8.52,8.52,0,0,0-5,.08.53.53,0,0,0-.26.4c0,2.78,0,5.56,0,8.51,3.26-.49,1.09-3.08,2-4.27l.25.85c3.4.34,5.1-.94,4.72-3.44A2.27,2.27,0,0,0,66.4,6.94ZM64.55,11c-.47,0-.94,0-1.5,0V7.68c.33.8.94.6,1.47.61.87,0,1.64.18,1.66,1.29S65.46,11,64.55,11Z"/><path class="cls-1" d="M48.69,13c.17,1.06-.49,1.39-1.23,1.5-1.21.19-2.29,0-2.69-1.35a1.38,1.38,0,0,0-1.41.28c-.27,1.2.49,1.79,1.37,2.24a4.58,4.58,0,0,0,5.38-1A2,2,0,0,0,48.69,13Z"/><path class="cls-1" d="M44.92,9.51A1.39,1.39,0,0,1,46.22,8a1.86,1.86,0,0,1,2,.8.89.89,0,0,0,1.48.35c.59-.42.3-1,0-1.45a4.1,4.1,0,0,0-6,.14C43.61,8.71,44.21,9.06,44.92,9.51Z"/><path class="cls-1" d="M47.19,10.48l-2.87-1-1-.94c-.33,2,.38,2.85,2.54,3.25a.15.15,0,0,0,.13,0l2.53.66h0a4.46,4.46,0,0,1,1.83,1.55C50.91,12,49.77,10.73,47.19,10.48Z"/><path class="cls-1" d="M43.24,18.32c0-.08.25-.16.55-.16h34c.31,0,.55.08.55.16s-.24.16-.55.16h-34C43.49,18.48,43.24,18.41,43.24,18.32Z"/><path class="cls-1" d="M43.42,22.28a.16.16,0,0,1,.09,0l.12,0,.23.08.2,0a.76.76,0,0,0,.53-.2.59.59,0,0,0,.22-.47.65.65,0,0,0-.13-.38,1.48,1.48,0,0,0-.52-.35,2.73,2.73,0,0,1-.35-.19.71.71,0,0,1-.15-.15.28.28,0,0,1,0-.13.26.26,0,0,1,.1-.2.35.35,0,0,1,.25-.09.58.58,0,0,1,.4.17.75.75,0,0,1,.23.44h.06l0-.73h0a.34.34,0,0,1,0,.13s0,0-.06,0a.38.38,0,0,1-.16-.05l-.18-.07a.69.69,0,0,0-.2,0,.66.66,0,0,0-.48.19.59.59,0,0,0-.2.44.68.68,0,0,0,.07.28,1.07,1.07,0,0,0,.2.23,2.74,2.74,0,0,0,.43.25,1.29,1.29,0,0,1,.29.17.4.4,0,0,1,.13.13.28.28,0,0,1,0,.15.31.31,0,0,1-.11.23.41.41,0,0,1-.28.1.62.62,0,0,1-.44-.19,1,1,0,0,1-.27-.52h-.06v.82h.06A.21.21,0,0,1,43.42,22.28Z"/><path class="cls-1" d="M46.12,20.89a.66.66,0,0,0-.36-.11.63.63,0,0,0-.52.24.92.92,0,0,0-.18.57.91.91,0,0,0,.18.55.64.64,0,0,0,.52.23.62.62,0,0,0,.54-.26.84.84,0,0,0,.16-.53,1.11,1.11,0,0,0-.08-.41A.64.64,0,0,0,46.12,20.89ZM46,22.07a.24.24,0,0,1-.08.15.19.19,0,0,1-.12,0,.2.2,0,0,1-.14-.06.34.34,0,0,1-.07-.17,1.67,1.67,0,0,1,0-.32,3.56,3.56,0,0,1,0-.51.4.4,0,0,1,.07-.24.2.2,0,0,1,.14-.06.18.18,0,0,1,.11,0,.27.27,0,0,1,.09.15,1.52,1.52,0,0,1,0,.37A4,4,0,0,1,46,22.07Z"/><path class="cls-1" d="M47.7,22.28A.86.86,0,0,0,48,22l-.05,0a.6.6,0,0,1-.16.14.28.28,0,0,1-.15,0,.38.38,0,0,1-.21-.07.64.64,0,0,1-.19-.29,1.34,1.34,0,0,1-.06-.4.74.74,0,0,1,.08-.38.15.15,0,0,1,.13-.08.11.11,0,0,1,.09,0,.27.27,0,0,1,.05.14.32.32,0,0,0,.07.22.21.21,0,0,0,.16.06.2.2,0,0,0,.14-.05.2.2,0,0,0,.06-.15.36.36,0,0,0-.14-.26.53.53,0,0,0-.37-.12.64.64,0,0,0-.54.28.94.94,0,0,0-.17.54.87.87,0,0,0,.18.55.58.58,0,0,0,.48.22A.69.69,0,0,0,47.7,22.28Z"/><path class="cls-1" d="M48.91,22.27a.17.17,0,0,1-.14-.05.31.31,0,0,1,0-.2V20.83H48.1v.06a.21.21,0,0,1,.15.05.43.43,0,0,1,0,.2V22a.36.36,0,0,1,0,.19.18.18,0,0,1-.15.06v.06h.81Z"/><path class="cls-1" d="M48.51,20.6a.26.26,0,0,0,.17-.07.25.25,0,0,0,.08-.18.28.28,0,0,0-.25-.25.25.25,0,0,0-.18.08.21.21,0,0,0-.07.17.24.24,0,0,0,.07.18A.29.29,0,0,0,48.51,20.6Z"/><path class="cls-1" d="M50.06,22.27a.92.92,0,0,0,.27-.35l-.06,0a.72.72,0,0,1-.16.2.37.37,0,0,1-.18.05.39.39,0,0,1-.27-.13.86.86,0,0,1-.15-.48h.82a.88.88,0,0,0-.18-.55.54.54,0,0,0-.4-.19.61.61,0,0,0-.47.23.8.8,0,0,0-.2.59.93.93,0,0,0,.13.52.58.58,0,0,0,.51.25A.57.57,0,0,0,50.06,22.27Zm-.56-.91a.75.75,0,0,1,.09-.39.17.17,0,0,1,.14-.08.12.12,0,0,1,.09,0,.28.28,0,0,1,.09.14,2.67,2.67,0,0,1,0,.36H49.5Z"/><polygon class="cls-1" points="50.17 20.08 49.69 20.08 49.5 20.64 49.64 20.64 50.17 20.08"/><path class="cls-1" d="M50.66,21.8a1.33,1.33,0,0,0,0,.29.36.36,0,0,0,.12.18.41.41,0,0,0,.24.08.44.44,0,0,0,.43-.31l0,0c-.06.1-.13.15-.2.15a.06.06,0,0,1,0,0s0,0-.05-.06a.63.63,0,0,1,0-.17V21h.36v-.16h-.36v-.55h0a1.83,1.83,0,0,1-.25.35,1.66,1.66,0,0,1-.34.3V21h.19Z"/><path class="cls-1" d="M52.27,22.37a.57.57,0,0,0,.34-.1.92.92,0,0,0,.27-.35l-.06,0a.72.72,0,0,1-.16.2.41.41,0,0,1-.18.05.39.39,0,0,1-.27-.13.86.86,0,0,1-.15-.48h.82A.88.88,0,0,0,52.7,21a.54.54,0,0,0-.4-.19.61.61,0,0,0-.47.23.8.8,0,0,0-.2.59.93.93,0,0,0,.13.52A.58.58,0,0,0,52.27,22.37Zm-.22-1a.75.75,0,0,1,.09-.39.17.17,0,0,1,.14-.08.12.12,0,0,1,.09,0,.28.28,0,0,1,.09.14,2.67,2.67,0,0,1,0,.36h-.43Z"/><polygon class="cls-1" points="52.72 20.08 52.24 20.08 52.05 20.64 52.19 20.64 52.72 20.08"/><path class="cls-1" d="M54.34,22.27a.58.58,0,0,1-.21,0,.14.14,0,0,1-.07-.13.45.45,0,0,1,0-.18l.09-.21H55l.12.27a.48.48,0,0,1,0,.12.13.13,0,0,1,0,.06.08.08,0,0,1,0,.07.3.3,0,0,1-.18,0h0v.06h1v-.06a.34.34,0,0,1-.16-.06,1.12,1.12,0,0,1-.18-.32l-.78-1.78h0L54,21.84a1.36,1.36,0,0,1-.19.33.32.32,0,0,1-.19.1v.06h.72Zm.24-1.43.33.75h-.66Z"/><path class="cls-1" d="M56.84,22.27a.17.17,0,0,1-.14-.05.31.31,0,0,1,0-.2V20.15H56v.06a.26.26,0,0,1,.15.05.45.45,0,0,1,0,.21V22a.36.36,0,0,1,0,.19.18.18,0,0,1-.15.06v.06h.81Z"/><path class="cls-1" d="M57,22.74a.21.21,0,0,0,.07.15.67.67,0,0,0,.24.11,2.1,2.1,0,0,0,.37,0,1.42,1.42,0,0,0,.48-.08.52.52,0,0,0,.22-.17.41.41,0,0,0,.08-.24.34.34,0,0,0-.18-.32,1,1,0,0,0-.47-.07h-.27a.21.21,0,0,1-.15,0,.1.1,0,0,1,0-.09.14.14,0,0,1,0-.11.13.13,0,0,1,.12-.05h.19a.77.77,0,0,0,.27-.07.62.62,0,0,0,.25-.19.41.41,0,0,0,.08-.27.48.48,0,0,0,0-.18.63.63,0,0,0-.11-.15h.28v-.17H58a.92.92,0,0,0-.31-.07.65.65,0,0,0-.46.17.48.48,0,0,0-.18.38.43.43,0,0,0,.1.29.57.57,0,0,0,.31.21.64.64,0,0,0-.27.18.33.33,0,0,0-.09.22.31.31,0,0,0,.21.28.41.41,0,0,0-.2.1A.18.18,0,0,0,57,22.74ZM57.52,21a.17.17,0,0,1,.15-.1.19.19,0,0,1,.15.08.84.84,0,0,1,.07.39.53.53,0,0,1-.07.34.18.18,0,0,1-.16.09.2.2,0,0,1-.15-.09.6.6,0,0,1-.06-.32A.68.68,0,0,1,57.52,21Zm-.16,1.6a.54.54,0,0,1,.22,0,2.27,2.27,0,0,1,.46,0,.23.23,0,0,1,.13.06.09.09,0,0,1,0,.07.19.19,0,0,1-.13.17.82.82,0,0,1-.35.06.75.75,0,0,1-.36-.07.19.19,0,0,1-.09-.15A.14.14,0,0,1,57.36,22.58Z"/><path class="cls-1" d="M59.9,21.92l-.06,0a.72.72,0,0,1-.16.2.41.41,0,0,1-.18.05.39.39,0,0,1-.27-.13.86.86,0,0,1-.15-.48h.82a.88.88,0,0,0-.18-.55.54.54,0,0,0-.4-.19.61.61,0,0,0-.47.23.8.8,0,0,0-.21.59.94.94,0,0,0,.14.52.58.58,0,0,0,.51.25.57.57,0,0,0,.34-.1A.92.92,0,0,0,59.9,21.92Zm-.83-.56a.75.75,0,0,1,.09-.39.17.17,0,0,1,.14-.08.12.12,0,0,1,.09,0,.28.28,0,0,1,.09.14,2.67,2.67,0,0,1,0,.36h-.43Z"/><polygon class="cls-1" points="59.74 20.08 59.26 20.08 59.07 20.64 59.21 20.64 59.74 20.08"/><path class="cls-1" d="M60.9,22.27l-.12,0a.13.13,0,0,1-.06-.07.31.31,0,0,1,0-.12v-.43a.93.93,0,0,1,0-.34.29.29,0,0,1,.1-.16.16.16,0,0,1,.09,0h0a.21.21,0,0,1,.08.06.24.24,0,0,0,.14,0,.16.16,0,0,0,.13-.06.21.21,0,0,0,.05-.16.25.25,0,0,0-.05-.16.18.18,0,0,0-.14-.06.4.4,0,0,0-.22.08,1,1,0,0,0-.26.31v-.34H60.1v.06a.13.13,0,0,1,.1,0,.1.1,0,0,1,0,.06.67.67,0,0,1,0,.17V22a.56.56,0,0,1,0,.24.22.22,0,0,1-.13.05v.06h.8Z"/><path class="cls-1" d="M61.9,20.6a.29.29,0,0,0,.18-.07.24.24,0,0,0,.07-.18.21.21,0,0,0-.07-.17.25.25,0,0,0-.18-.08.23.23,0,0,0-.17.08.21.21,0,0,0-.07.17.24.24,0,0,0,.07.18A.26.26,0,0,0,61.9,20.6Z"/><path class="cls-1" d="M62.16,22.22a.43.43,0,0,1,0-.2V20.83H61.5v.06a.17.17,0,0,1,.14.05.31.31,0,0,1,0,.2V22a.36.36,0,0,1,0,.19.19.19,0,0,1-.15.06v.06h.81v-.06A.21.21,0,0,1,62.16,22.22Z"/><path class="cls-1" d="M63.45,22.27a.92.92,0,0,0,.27-.35l0,0a.72.72,0,0,1-.17.2.34.34,0,0,1-.17.05.35.35,0,0,1-.27-.13.79.79,0,0,1-.16-.48h.82a.78.78,0,0,0-.18-.55.52.52,0,0,0-.39-.19.65.65,0,0,0-.48.23.84.84,0,0,0-.2.59.94.94,0,0,0,.14.52.55.55,0,0,0,.5.25A.55.55,0,0,0,63.45,22.27Zm-.56-.91A.75.75,0,0,1,63,21a.16.16,0,0,1,.13-.08.12.12,0,0,1,.09,0,.28.28,0,0,1,.09.14,1.48,1.48,0,0,1,0,.36h-.44Z"/><path class="cls-1" d="M64.67,22.27a.15.15,0,0,1-.11-.06s0-.1,0-.21v-.8c.08-.13.17-.2.26-.2a.13.13,0,0,1,.08,0,.13.13,0,0,1,0,.07s0,.11,0,.23V22a.4.4,0,0,1,0,.2.15.15,0,0,1-.12.07v.06h.76v-.06a.23.23,0,0,1-.13-.05.48.48,0,0,1,0-.22v-.58a1.28,1.28,0,0,0,0-.35.34.34,0,0,0-.13-.2.32.32,0,0,0-.24-.09.43.43,0,0,0-.22.06.9.9,0,0,0-.23.18v-.19h-.61v.06a.23.23,0,0,1,.13.05.42.42,0,0,1,0,.21V22a.4.4,0,0,1,0,.21.23.23,0,0,1-.14.06v.06h.76Z"/><path class="cls-1" d="M66.5,22.27a.17.17,0,0,1-.12-.06.45.45,0,0,1,0-.21v-.8c.08-.13.16-.2.26-.2a.11.11,0,0,1,.07,0,.13.13,0,0,1,0,.07.92.92,0,0,1,0,.23V22a.4.4,0,0,1,0,.2.19.19,0,0,1-.12.07v.06h.76v-.06a.23.23,0,0,1-.13-.05s0-.1,0-.22v-.58a1.44,1.44,0,0,0,0-.35.39.39,0,0,0-.13-.2.32.32,0,0,0-.24-.09.46.46,0,0,0-.23.06,1.09,1.09,0,0,0-.22.18v-.19h-.61v.06a.27.27,0,0,1,.13.05.45.45,0,0,1,0,.21V22a.4.4,0,0,1,0,.21.2.2,0,0,1-.13.06v.06h.76Z"/><path class="cls-1" d="M68.22,22.37a.57.57,0,0,0,.34-.1.92.92,0,0,0,.27-.35l0,0a.72.72,0,0,1-.17.2.33.33,0,0,1-.44-.08.79.79,0,0,1-.16-.48h.82a.88.88,0,0,0-.18-.55.52.52,0,0,0-.39-.19.63.63,0,0,0-.48.23.84.84,0,0,0-.2.59.86.86,0,0,0,.14.52A.55.55,0,0,0,68.22,22.37Zm-.22-1a.67.67,0,0,1,.1-.39.16.16,0,0,1,.13-.08.12.12,0,0,1,.09,0,.28.28,0,0,1,.09.14,1.48,1.48,0,0,1,0,.36H68Z"/><path class="cls-1" d="M44.69,26a.82.82,0,0,1,0-.2V24.09H44v.07a.41.41,0,0,1,.14,0,.2.2,0,0,1,.06.07.93.93,0,0,1,0,.21v.45a.6.6,0,0,0-.18-.15.53.53,0,0,0-.19,0,.6.6,0,0,0-.31.1.68.68,0,0,0-.23.29,1.18,1.18,0,0,0-.08.43.93.93,0,0,0,.13.52.53.53,0,0,0,.46.25.46.46,0,0,0,.2,0,.57.57,0,0,0,.2-.19v.24l.63-.12v-.05a.24.24,0,0,1-.12,0S44.7,26.06,44.69,26Zm-.46-.12c-.08.15-.17.22-.26.22a.18.18,0,0,1-.11,0,.53.53,0,0,1-.11-.2,1.47,1.47,0,0,1,0-.42,1.21,1.21,0,0,1,0-.38.38.38,0,0,1,.09-.18.17.17,0,0,1,.1,0c.12,0,.21.08.29.23Z"/><path class="cls-1" d="M46.14,24.91a.54.54,0,0,0-.4-.19.61.61,0,0,0-.47.23.8.8,0,0,0-.2.59.93.93,0,0,0,.13.52.58.58,0,0,0,.51.25.57.57,0,0,0,.34-.1.92.92,0,0,0,.27-.35l-.06,0a.65.65,0,0,1-.16.19.32.32,0,0,1-.18.06.36.36,0,0,1-.27-.14.8.8,0,0,1-.15-.47h.82A.86.86,0,0,0,46.14,24.91Zm-.65.45V25.3a.7.7,0,0,1,.09-.39.15.15,0,0,1,.14-.08.12.12,0,0,1,.09,0,.28.28,0,0,1,.09.14,2.56,2.56,0,0,1,0,.36Z"/><path class="cls-1" d="M48.92,24.26a1.08,1.08,0,0,0-.67-.17h-1v.06a.43.43,0,0,1,.2,0,.19.19,0,0,1,.08.07.88.88,0,0,1,0,.22v1.42a.88.88,0,0,1,0,.22.19.19,0,0,1-.08.07.43.43,0,0,1-.2,0v.06h1.1v-.06a.49.49,0,0,1-.2,0,.19.19,0,0,1-.08-.07.88.88,0,0,1,0-.22v-.61a2.25,2.25,0,0,0,.53,0A.64.64,0,0,0,49,25a.52.52,0,0,0,.13-.36A.53.53,0,0,0,48.92,24.26Zm-.44.78a.38.38,0,0,1-.3.12H48.1v-.94h.07a.42.42,0,0,1,.31.11.51.51,0,0,1,.11.35A.5.5,0,0,1,48.48,25Z"/><path class="cls-1" d="M50.67,26.08h0l0,0v-.71a1,1,0,0,0,0-.31.42.42,0,0,0-.16-.2.55.55,0,0,0-.34-.09.92.92,0,0,0-.33.06.61.61,0,0,0-.26.16.33.33,0,0,0-.09.22.16.16,0,0,0,.07.14.24.24,0,0,0,.17.06.2.2,0,0,0,.15-.05.18.18,0,0,0,.06-.13.22.22,0,0,0-.06-.14.15.15,0,0,1,0-.08.1.1,0,0,1,0-.07.33.33,0,0,1,.17,0,.21.21,0,0,1,.12,0,.23.23,0,0,1,.07.07.88.88,0,0,1,0,.22v.15a2.6,2.6,0,0,0-.64.36.43.43,0,0,0-.15.31.29.29,0,0,0,.08.21.29.29,0,0,0,.22.09.79.79,0,0,0,.49-.24.26.26,0,0,0,.09.18.28.28,0,0,0,.2.06.33.33,0,0,0,.19-.06.55.55,0,0,0,.17-.17l-.05,0A.12.12,0,0,1,50.67,26.08Zm-.51-.15A.3.3,0,0,1,50,26a.14.14,0,0,1-.11-.05.18.18,0,0,1,0-.12.32.32,0,0,1,.06-.18.79.79,0,0,1,.29-.24Z"/><path class="cls-1" d="M51.57,24.22h-.06a1.8,1.8,0,0,1-.24.35,1.72,1.72,0,0,1-.35.3v.06h.2v.81a1.8,1.8,0,0,0,0,.29.32.32,0,0,0,.13.18.41.41,0,0,0,.24.08.43.43,0,0,0,.42-.31l0,0c-.07.11-.13.16-.2.16a.07.07,0,0,1-.06,0l0-.06a.67.67,0,0,1,0-.17v-.92h.35v-.16h-.35Z"/><path class="cls-1" d="M53.56,26.16s0-.1,0-.22v-.58a1.58,1.58,0,0,0,0-.37.38.38,0,0,0-.13-.19.41.41,0,0,0-.24-.08.43.43,0,0,0-.22.06.79.79,0,0,0-.22.18v-.87h-.61v.06a.2.2,0,0,1,.13.06.43.43,0,0,1,0,.21v1.52a.43.43,0,0,1,0,.21.2.2,0,0,1-.13.06v.06h.76v-.06c-.07,0-.11,0-.13-.07a.69.69,0,0,1,0-.2v-.8a.58.58,0,0,1,.13-.16.19.19,0,0,1,.12,0A.11.11,0,0,1,53,25s0,0,.05.07a.92.92,0,0,1,0,.23v.67a.38.38,0,0,1,0,.2.19.19,0,0,1-.12.07v.06h.76v-.06A.23.23,0,0,1,53.56,26.16Z"/><path class="cls-1" d="M55,24.82a.75.75,0,0,0-.36-.1.6.6,0,0,0-.51.24.93.93,0,0,0,0,1.11.62.62,0,0,0,.52.24.65.65,0,0,0,.54-.26.84.84,0,0,0,.16-.53.94.94,0,0,0-.08-.41A.73.73,0,0,0,55,24.82ZM54.8,26a.28.28,0,0,1-.08.15.16.16,0,0,1-.12,0,.18.18,0,0,1-.13-.06.3.3,0,0,1-.08-.17c0-.1,0-.21,0-.32s0-.39,0-.51a.49.49,0,0,1,.07-.24.2.2,0,0,1,.14-.06.16.16,0,0,1,.11,0,.27.27,0,0,1,.09.15,1.52,1.52,0,0,1,0,.37A4,4,0,0,1,54.8,26Z"/><path class="cls-1" d="M56.16,26.16a.31.31,0,0,1,0-.2V24.09h-.63v.06c.07,0,.12,0,.14.05a.31.31,0,0,1,0,.2V26a.36.36,0,0,1,0,.19.18.18,0,0,1-.15.06v.06h.81v-.06C56.23,26.2,56.18,26.19,56.16,26.16Z"/><path class="cls-1" d="M57.52,24.82a.82.82,0,0,0-.37-.1.6.6,0,0,0-.51.24.86.86,0,0,0-.19.56.82.82,0,0,0,.19.55.61.61,0,0,0,.52.24.65.65,0,0,0,.54-.26.9.9,0,0,0,.16-.53,1,1,0,0,0-.09-.41A.71.71,0,0,0,57.52,24.82ZM57.35,26a.28.28,0,0,1-.08.15.16.16,0,0,1-.12,0,.18.18,0,0,1-.13-.06.38.38,0,0,1-.08-.17c0-.1,0-.21,0-.32s0-.39,0-.51A.39.39,0,0,1,57,24.9a.18.18,0,0,1,.14-.06.2.2,0,0,1,.11,0,.27.27,0,0,1,.09.15,1.52,1.52,0,0,1,0,.37A2.78,2.78,0,0,1,57.35,26Z"/><path class="cls-1" d="M59.38,26.17a1,1,0,0,0-.47-.07h-.27a.21.21,0,0,1-.15,0,.1.1,0,0,1,0-.09.15.15,0,0,1,0-.12.16.16,0,0,1,.12,0h.19a.74.74,0,0,0,.27-.06.65.65,0,0,0,.24-.19.42.42,0,0,0,.09-.27.41.41,0,0,0,0-.19.53.53,0,0,0-.1-.14h.28v-.17h-.5a.73.73,0,0,0-.31-.07.69.69,0,0,0-.46.16.51.51,0,0,0-.18.38.49.49,0,0,0,.09.3.64.64,0,0,0,.32.21.58.58,0,0,0-.27.18.32.32,0,0,0-.09.21.31.31,0,0,0,.21.29.51.51,0,0,0-.21.1.21.21,0,0,0,0,.13.21.21,0,0,0,.07.15.67.67,0,0,0,.24.11,2,2,0,0,0,.37,0,1.32,1.32,0,0,0,.47-.08.47.47,0,0,0,.22-.17.37.37,0,0,0,.09-.25A.33.33,0,0,0,59.38,26.17Zm-.77-1.25a.19.19,0,0,1,.16-.1.16.16,0,0,1,.14.08.71.71,0,0,1,.08.39.64.64,0,0,1-.07.34.18.18,0,0,1-.16.09.18.18,0,0,1-.15-.09.64.64,0,0,1-.06-.33A.79.79,0,0,1,58.61,24.92Zm.56,1.89a1.08,1.08,0,0,1-.35.05.75.75,0,0,1-.36-.06.2.2,0,0,1-.09-.15.14.14,0,0,1,.09-.13.51.51,0,0,1,.22,0,2.27,2.27,0,0,1,.46,0,.23.23,0,0,1,.13.06.09.09,0,0,1,0,.07A.2.2,0,0,1,59.17,26.81Z"/><path class="cls-1" d="M60.35,26.16a.31.31,0,0,1,0-.2V24.77h-.63v.06a.21.21,0,0,1,.15.05.4.4,0,0,1,0,.2V26a.36.36,0,0,1,0,.19.18.18,0,0,1-.15.06v.06h.81v-.06C60.42,26.2,60.37,26.19,60.35,26.16Z"/><path class="cls-1" d="M59.91,24.47a.29.29,0,0,0,.18.07.26.26,0,0,0,.17-.07.24.24,0,0,0,0-.36.24.24,0,0,0-.17-.07.29.29,0,0,0-.18.07.27.27,0,0,0,0,.36Z"/><path class="cls-1" d="M61.73,24.91a.54.54,0,0,0-.4-.19.61.61,0,0,0-.47.23.8.8,0,0,0-.21.59.94.94,0,0,0,.14.52.58.58,0,0,0,.51.25.57.57,0,0,0,.34-.1.92.92,0,0,0,.27-.35l-.06,0a.65.65,0,0,1-.16.19.32.32,0,0,1-.18.06.36.36,0,0,1-.27-.14.8.8,0,0,1-.15-.47h.82A.86.86,0,0,0,61.73,24.91Zm-.65.45V25.3a.7.7,0,0,1,.09-.39.15.15,0,0,1,.14-.08.12.12,0,0,1,.09,0,.28.28,0,0,1,.09.14,2.56,2.56,0,0,1,0,.36Z"/><path class="cls-1" d="M64.37,25.53l-.61-1.44h-.89v.06h.07a.33.33,0,0,1,.15,0,.18.18,0,0,1,.07.08.64.64,0,0,1,0,.2v1.38a1.48,1.48,0,0,1,0,.16.33.33,0,0,1-.05.12.15.15,0,0,1-.09.06.32.32,0,0,1-.14,0h0v.06h.75v-.06a.4.4,0,0,1-.22-.05.22.22,0,0,1-.09-.13.87.87,0,0,1,0-.2V24.3l.84,2h0l.84-2v1.61a.78.78,0,0,1,0,.21.16.16,0,0,1-.07.07.22.22,0,0,1-.15,0h-.07v.06h1.13v-.06h-.07a.26.26,0,0,1-.14,0,.13.13,0,0,1-.07-.08s0-.09,0-.21V24.46a.45.45,0,0,1,0-.2.11.11,0,0,1,.06-.07.24.24,0,0,1,.15,0h.07v-.06H65Z"/><path class="cls-1" d="M67.36,26.08h0a.05.05,0,0,1,0,0,.38.38,0,0,1,0-.13v-.58a1.67,1.67,0,0,0,0-.31.49.49,0,0,0-.16-.2.59.59,0,0,0-.34-.09,1,1,0,0,0-.34.06.61.61,0,0,0-.26.16.33.33,0,0,0-.09.22.16.16,0,0,0,.07.14.25.25,0,0,0,.17.06.2.2,0,0,0,.15-.05.18.18,0,0,0,.06-.13.22.22,0,0,0-.06-.14.15.15,0,0,1,0-.08s0-.05,0-.07a.29.29,0,0,1,.17,0,.2.2,0,0,1,.11,0,.15.15,0,0,1,.07.07.56.56,0,0,1,0,.22v.15a2.82,2.82,0,0,0-.64.36.43.43,0,0,0-.15.31.31.31,0,0,0,.3.3.79.79,0,0,0,.49-.24.26.26,0,0,0,.09.18.3.3,0,0,0,.2.06.31.31,0,0,0,.19-.06.46.46,0,0,0,.17-.17l0,0S67.39,26.08,67.36,26.08Zm-.52-.15a.3.3,0,0,1-.18.09.17.17,0,0,1-.12-.05.18.18,0,0,1-.05-.12.32.32,0,0,1,.06-.18.89.89,0,0,1,.29-.24Z"/><path class="cls-1" d="M70.06,26.15a.4.4,0,0,1,0-.21v-.61A1.44,1.44,0,0,0,70,25a.43.43,0,0,0-.13-.19.46.46,0,0,0-.25-.07.47.47,0,0,0-.25.07.88.88,0,0,0-.24.21.49.49,0,0,0-.15-.21.48.48,0,0,0-.24-.07.44.44,0,0,0-.23.06.74.74,0,0,0-.23.19v-.2h-.61v.06c.06,0,.11,0,.13.05a.45.45,0,0,1,0,.21v.85a.43.43,0,0,1,0,.21.23.23,0,0,1-.13.06v.06h.77v-.06a.18.18,0,0,1-.13-.06.45.45,0,0,1,0-.21v-.8a.44.44,0,0,1,.16-.17.15.15,0,0,1,.11,0,.16.16,0,0,1,.09,0,.22.22,0,0,1,0,.08,1.11,1.11,0,0,1,0,.26v.64a.54.54,0,0,1,0,.17.1.1,0,0,1,0,.07.17.17,0,0,1-.1,0v.06h.77v-.06a.19.19,0,0,1-.14-.07.38.38,0,0,1,0-.2v-.8A.78.78,0,0,1,69.3,25a.24.24,0,0,1,.14-.05.13.13,0,0,1,.08,0,.16.16,0,0,1,0,.08,1.5,1.5,0,0,1,0,.26v.64a.43.43,0,0,1,0,.2.17.17,0,0,1-.13.07v.06h.77v-.06A.2.2,0,0,1,70.06,26.15Z"/><path class="cls-1" d="M72.8,26.15a.4.4,0,0,1,0-.21v-.61a1.33,1.33,0,0,0,0-.35.36.36,0,0,0-.13-.19.44.44,0,0,0-.25-.07.44.44,0,0,0-.24.07.9.9,0,0,0-.25.21.37.37,0,0,0-.15-.21.43.43,0,0,0-.24-.07.46.46,0,0,0-.23.06A.74.74,0,0,0,71,25v-.2H70.4v.06c.07,0,.11,0,.13.05a.45.45,0,0,1,0,.21v.85a.73.73,0,0,1,0,.21.26.26,0,0,1-.14.06v.06h.77v-.06a.2.2,0,0,1-.13-.06.45.45,0,0,1,0-.21v-.8a.53.53,0,0,1,.16-.17.19.19,0,0,1,.12,0,.13.13,0,0,1,.08,0,.14.14,0,0,1,0,.08,1.11,1.11,0,0,1,0,.26v.64a.67.67,0,0,1,0,.17.18.18,0,0,1-.05.07.15.15,0,0,1-.1,0v.06h.78v-.06c-.07,0-.12,0-.14-.07a.38.38,0,0,1,0-.2v-.8A.76.76,0,0,1,72,25a.27.27,0,0,1,.14-.05.11.11,0,0,1,.08,0,.16.16,0,0,1,0,.08,1.18,1.18,0,0,1,0,.26v.64a.43.43,0,0,1,0,.2.19.19,0,0,1-.14.07v.06h.78v-.06A.18.18,0,0,1,72.8,26.15Z"/><path class="cls-1" d="M74.47,26.08h0a.05.05,0,0,1,0,0,.38.38,0,0,1,0-.13v-.58a1.67,1.67,0,0,0,0-.31.45.45,0,0,0-.17-.2.54.54,0,0,0-.33-.09,1,1,0,0,0-.34.06.61.61,0,0,0-.26.16.33.33,0,0,0-.09.22.16.16,0,0,0,.07.14.24.24,0,0,0,.17.06.2.2,0,0,0,.15-.05.18.18,0,0,0,.06-.13.22.22,0,0,0-.06-.14.15.15,0,0,1,0-.08s0-.05,0-.07a.29.29,0,0,1,.17,0,.2.2,0,0,1,.11,0,.15.15,0,0,1,.07.07.88.88,0,0,1,0,.22v.15a2.82,2.82,0,0,0-.64.36.43.43,0,0,0-.15.31.31.31,0,0,0,.3.3.79.79,0,0,0,.49-.24.26.26,0,0,0,.09.18.3.3,0,0,0,.2.06.31.31,0,0,0,.19-.06.46.46,0,0,0,.17-.17l0,0S74.49,26.08,74.47,26.08ZM74,25.93a.3.3,0,0,1-.18.09.17.17,0,0,1-.12-.05.18.18,0,0,1-.05-.12.32.32,0,0,1,.06-.18.89.89,0,0,1,.29-.24Z"/><path class="cls-1" d="M75.39,26.16a.31.31,0,0,1,0-.2V24.77h-.63v.06a.17.17,0,0,1,.14.05s0,.09,0,.2V26a.36.36,0,0,1,0,.19.18.18,0,0,1-.15.06v.06h.81v-.06C75.46,26.2,75.41,26.19,75.39,26.16Z"/><path class="cls-1" d="M75.13,24.54a.28.28,0,0,0,.17-.07.27.27,0,0,0,0-.36.26.26,0,0,0-.17-.07.29.29,0,0,0-.18.07.27.27,0,0,0,0,.36A.29.29,0,0,0,75.13,24.54Z"/><path class="cls-1" d="M76.78,24.72a.42.42,0,0,0-.22.08,1.11,1.11,0,0,0-.26.31v-.34h-.61v.06a.13.13,0,0,1,.1,0,.1.1,0,0,1,0,.06.67.67,0,0,1,0,.17v.82a.65.65,0,0,1,0,.25s-.07,0-.13.05v.06h.81v-.06a.21.21,0,0,1-.13,0,.09.09,0,0,1-.06-.06.35.35,0,0,1,0-.12v-.43a1.16,1.16,0,0,1,0-.34.37.37,0,0,1,.1-.16.16.16,0,0,1,.09,0h0l.08.06a.25.25,0,0,0,.15.05.14.14,0,0,0,.12-.06.22.22,0,0,0,0-.17.2.2,0,0,0,0-.15A.18.18,0,0,0,76.78,24.72Z"/><path class="cls-1" d="M78.12,26a.27.27,0,0,1-.17.06.33.33,0,0,1-.27-.14.74.74,0,0,1-.16-.47h.82a.76.76,0,0,0-.18-.55.52.52,0,0,0-.39-.19.65.65,0,0,0-.48.23.84.84,0,0,0-.2.59.94.94,0,0,0,.14.52.55.55,0,0,0,.5.25.55.55,0,0,0,.34-.1.92.92,0,0,0,.27-.35l0,0A.66.66,0,0,1,78.12,26Zm-.61-.71a.7.7,0,0,1,.1-.39.14.14,0,0,1,.13-.08.12.12,0,0,1,.09,0,.28.28,0,0,1,.09.14,1.43,1.43,0,0,1,0,.36h-.44Z"/></g></g></svg>