<svg xmlns="http://www.w3.org/2000/svg" viewBox="0 0 106.78 42.12"><defs><style>.cls-1{fill:#30ad66;}.cls-2{fill:#0d6635;}.cls-3{fill:#0c6735;}</style></defs><g id="Layer_2" data-name="Layer 2"><g id="Layer_2-2" data-name="Layer 2"><path class="cls-1" d="M20.82,0c.78,0,1.55,0,2.33,0a19.63,19.63,0,0,1,2.43.27,21.1,21.1,0,0,1,3.49.92,20.14,20.14,0,0,1,2.74,1.2A21.1,21.1,0,0,1,38.54,8a21.29,21.29,0,0,1,2.23,3.49,20.92,20.92,0,0,1,2.21,8,21.76,21.76,0,0,1,0,3.61,21.18,21.18,0,0,1-1,4.65,20.58,20.58,0,0,1-1.8,4,21.11,21.11,0,0,1-7.89,7.73,20.14,20.14,0,0,1-3,1.38,21.23,21.23,0,0,1-4.44,1.11,23.31,23.31,0,0,1-3.64.18.15.15,0,0,0-.09,0A14.53,14.53,0,0,1,19.51,42a18.64,18.64,0,0,1-2.46-.44,15.69,15.69,0,0,1-1.53-.42,20.59,20.59,0,0,1-2.63-1,22.51,22.51,0,0,1-2.39-1.35A21.55,21.55,0,0,1,8,36.83,21.8,21.8,0,0,1,6,34.71a21.06,21.06,0,0,1-1.82-2.48A21.3,21.3,0,0,1,3,30.08a20.53,20.53,0,0,1-.9-2.24A21.64,21.64,0,0,1,1.29,25c-.09-.45-.15-.91-.21-1.37C1,22.86,1,22.13.93,21.39c0-.37,0-.75,0-1.12,0-.55.07-1.1.13-1.65a17.75,17.75,0,0,1,.28-1.8c.15-.67.31-1.34.52-2s.45-1.29.71-1.93A19.6,19.6,0,0,1,4.91,8.74a20.6,20.6,0,0,1,3.81-4,21.13,21.13,0,0,1,2.13-1.52c.54-.34,1.1-.65,1.67-.94.42-.21.85-.4,1.29-.59A16.91,16.91,0,0,1,15.87.91,17.63,17.63,0,0,1,17.74.44c.52-.11,1-.2,1.55-.27A13.83,13.83,0,0,1,20.71.05C20.76.05,20.8.06,20.82,0Zm1.35,38.46a.21.21,0,0,0,.19,0,12.77,12.77,0,0,0,1.38-.08,12.54,12.54,0,0,0,1.37-.19,19.28,19.28,0,0,0,2.09-.51,17.08,17.08,0,0,0,2.9-1.21,16.24,16.24,0,0,0,2-1.23,17,17,0,0,0,2.15-1.81,17.45,17.45,0,0,0,1.46-1.64A18.27,18.27,0,0,0,37,30a18.71,18.71,0,0,0,1.07-2.15,16.51,16.51,0,0,0,.8-2.37c.15-.58.26-1.17.36-1.76a15.11,15.11,0,0,0,.18-1.78,20.45,20.45,0,0,0-.08-2.71A17.18,17.18,0,0,0,39,17.32c-.08-.4-.19-.8-.31-1.2a15.29,15.29,0,0,0-.62-1.76,16.51,16.51,0,0,0-.76-1.59A18.06,18.06,0,0,0,35,9.46a16.54,16.54,0,0,0-1.85-1.8,17.62,17.62,0,0,0-4.21-2.59,12.55,12.55,0,0,0-1.28-.5l-.94-.3c-.52-.14-1-.26-1.57-.36a14.62,14.62,0,0,0-1.48-.2l-.91-.08a3.24,3.24,0,0,0-.76,0c-.23,0-.46,0-.69,0a18.31,18.31,0,0,0-4,.64,17.33,17.33,0,0,0-8.94,5.92,17.16,17.16,0,0,0-2.54,4.36A17.27,17.27,0,0,0,4.75,23.7a16.8,16.8,0,0,0,.9,3.48,17.6,17.6,0,0,0,2.2,4.1,16.52,16.52,0,0,0,2.06,2.36,17.73,17.73,0,0,0,4.46,3.12A16.77,16.77,0,0,0,17.72,38a16.38,16.38,0,0,0,4,.52Z"/><path class="cls-2" d="M20.82,0s-.06,0-.11,0a13.83,13.83,0,0,0-1.42.12c-.52.07-1,.16-1.55.27a17.63,17.63,0,0,0-1.87.47,16.91,16.91,0,0,0-2.06.75c-.44.19-.87.38-1.29.59-.57.29-1.13.6-1.67.94A21.13,21.13,0,0,0,8.72,4.71a20.6,20.6,0,0,0-3.81,4,19.6,19.6,0,0,0-2.33,4.15c-.26.64-.5,1.28-.71,1.93s-.37,1.33-.52,2a17.75,17.75,0,0,0-.28,1.8C1,19.17,1,19.72.94,20.27c0,.37,0,.75,0,1.12,0,.74.06,1.47.15,2.21.06.46.12.92.21,1.37a21.64,21.64,0,0,0,.76,2.87A20.53,20.53,0,0,0,3,30.08a21.3,21.3,0,0,0,1.18,2.15A21.06,21.06,0,0,0,6,34.71,21.8,21.8,0,0,0,8,36.83a21.55,21.55,0,0,0,2.48,1.88,22.51,22.51,0,0,0,2.39,1.35,20.59,20.59,0,0,0,2.63,1,15.69,15.69,0,0,0,1.53.42,18.64,18.64,0,0,0,2.46.44,14.53,14.53,0,0,0,1.61.12.15.15,0,0,1,.09,0A18.44,18.44,0,0,1,18.64,42a21,21,0,0,1-4.41-1A21.16,21.16,0,0,1,1.41,28.66a21.11,21.11,0,0,1-1.36-9A21,21,0,0,1,4.67,7.83,21.08,21.08,0,0,1,10.23,3a20.55,20.55,0,0,1,6-2.44A20.31,20.31,0,0,1,19.73.05c.22,0,.44,0,.67,0a1.2,1.2,0,0,0,.38,0Z"/><path class="cls-1" d="M20.78,0a1.2,1.2,0,0,1-.38,0A1.2,1.2,0,0,1,20.78,0Z"/><path class="cls-3" d="M22.17,38.47a17.71,17.71,0,0,0,3.95-.71,17.44,17.44,0,0,0,10.26-25,17.66,17.66,0,0,0-3.19-4.2A17.31,17.31,0,0,0,22,3.65a3.24,3.24,0,0,1,.76,0l.91.08a14.62,14.62,0,0,1,1.48.2c.53.1,1.05.22,1.57.36l.94.3a12.55,12.55,0,0,1,1.28.5,17.62,17.62,0,0,1,4.21,2.59A16.54,16.54,0,0,1,35,9.46a18.06,18.06,0,0,1,2.33,3.31,16.51,16.51,0,0,1,.76,1.59,15.29,15.29,0,0,1,.62,1.76c.12.4.23.8.31,1.2a17.18,17.18,0,0,1,.31,1.86,20.45,20.45,0,0,1,.08,2.71,15.11,15.11,0,0,1-.18,1.78c-.1.59-.21,1.18-.36,1.76a16.51,16.51,0,0,1-.8,2.37A18.71,18.71,0,0,1,37,30a18.27,18.27,0,0,1-1.29,1.87,17.45,17.45,0,0,1-1.46,1.64,17,17,0,0,1-2.15,1.81,16.24,16.24,0,0,1-2,1.23,17.08,17.08,0,0,1-2.9,1.21,19.28,19.28,0,0,1-2.09.51,12.54,12.54,0,0,1-1.37.19,12.77,12.77,0,0,1-1.38.08A.21.21,0,0,1,22.17,38.47Z"/><path class="cls-1" d="M16.65,21.57a20.57,20.57,0,0,1,2.22.05,14.56,14.56,0,0,1,3.8.81,10.56,10.56,0,0,1,3.07,1.68,6.5,6.5,0,0,1,1.94,2.38,4.6,4.6,0,0,1,0,3.92,6.45,6.45,0,0,1-1.83,2.29,10.62,10.62,0,0,1-3.08,1.73,14.68,14.68,0,0,1-3.57.82,12.37,12.37,0,0,1-2,.07l0,0a2.31,2.31,0,0,1-1.36-.9,5.46,5.46,0,0,1-.87-1.52,11.53,11.53,0,0,1-.63-2.3A19.6,19.6,0,0,1,14,28.06a13.31,13.31,0,0,1,.05-1.67,10.8,10.8,0,0,1,.2-1.59A6.74,6.74,0,0,1,15,22.66a2.17,2.17,0,0,1,1.06-1C16.28,21.61,16.47,21.63,16.65,21.57Z"/><path class="cls-1" d="M21.24,5.8h1a7,7,0,0,1,2.64.51,4,4,0,0,1,1.28.79,1.43,1.43,0,0,1,.48,1.45,1.2,1.2,0,0,1-.73.82c-1.08.52-2.17,1-3.26,1.47a4.2,4.2,0,0,0-1.81,1.41,1.76,1.76,0,0,0-.17,1.82,3.35,3.35,0,0,0,1.18,1.45,5.68,5.68,0,0,0,.78.39c.94.44,1.88.88,2.79,1.37.29.16.56.33.84.51a1,1,0,0,1,.14,1.43,4,4,0,0,1-1.23.89,6.74,6.74,0,0,1-2.9.64h-.75l-.06,0a12.65,12.65,0,0,1-1.64-.17,14.41,14.41,0,0,1-2.76-.66,5.33,5.33,0,0,1-2.29-1.5,3.2,3.2,0,0,1-.76-1.5,1.29,1.29,0,0,1,.67-1.29,9.22,9.22,0,0,1,1.13-.46,2.52,2.52,0,0,0,.89-.46,1.94,1.94,0,0,0,.09-2.74,3,3,0,0,0-1-.56,7.47,7.47,0,0,1-1.1-.45A1.21,1.21,0,0,1,14,9.78a2.29,2.29,0,0,1,.46-1.22A4.87,4.87,0,0,1,16.39,7a10.39,10.39,0,0,1,2.78-.84,18.4,18.4,0,0,1,2.09-.28s0,0,0,0Z"/><path class="cls-1" d="M27.41,9.77l.74,0a1.14,1.14,0,0,1,.94.54,4.31,4.31,0,0,1,.7,1.83,8.23,8.23,0,0,1,.06,2.8,3.37,3.37,0,0,1-.45,1.35,1,1,0,0,1-.89.52h-1s0,0-.06,0a6.82,6.82,0,0,1-1.73-.35A5,5,0,0,1,23.45,15a2.56,2.56,0,0,1-.7-1.5,2.39,2.39,0,0,1,.39-1.58,4.06,4.06,0,0,1,1.5-1.35,6,6,0,0,1,.9-.4,7.22,7.22,0,0,1,1.19-.32C27,9.83,27.19,9.83,27.41,9.77Z"/><path class="cls-2" d="M21.24,5.8h0s0,0,0,0a18.4,18.4,0,0,0-2.09.28A10.39,10.39,0,0,0,16.39,7a4.87,4.87,0,0,0-1.9,1.61A2.29,2.29,0,0,0,14,9.78a1.21,1.21,0,0,0,.66,1.15,7.47,7.47,0,0,0,1.1.45,3,3,0,0,1,1,.56,1.94,1.94,0,0,1-.09,2.74,2.52,2.52,0,0,1-.89.46,9.22,9.22,0,0,0-1.13.46A1.29,1.29,0,0,0,14,16.89a3.2,3.2,0,0,0,.76,1.5,5.33,5.33,0,0,0,2.29,1.5,14.41,14.41,0,0,0,2.76.66,12.65,12.65,0,0,0,1.64.17l.06,0a12.09,12.09,0,0,1-2.25-.13,19.54,19.54,0,0,1-2.42-.48,6.44,6.44,0,0,1-2.52-1.26,3.7,3.7,0,0,1-1.15-1.58A1.31,1.31,0,0,1,14,15.51c.32-.15.65-.25,1-.37a2.91,2.91,0,0,0,.79-.39,1.69,1.69,0,0,0,.67-1.25,1.8,1.8,0,0,0-1.11-2c-.37-.15-.75-.26-1.12-.41a2.08,2.08,0,0,1-.6-.34,1.24,1.24,0,0,1-.4-1.37A3.68,3.68,0,0,1,14.5,7.56a6.94,6.94,0,0,1,2.63-1.21,19.07,19.07,0,0,1,3.75-.55Z"/><path class="cls-3" d="M16.65,21.57c-.18.06-.37,0-.56.12a2.17,2.17,0,0,0-1.06,1,6.74,6.74,0,0,0-.75,2.14,10.8,10.8,0,0,0-.2,1.59A13.31,13.31,0,0,0,14,28.06a19.6,19.6,0,0,0,.27,2.52,11.53,11.53,0,0,0,.63,2.3,5.46,5.46,0,0,0,.87,1.52,2.31,2.31,0,0,0,1.36.9l0,0A2.47,2.47,0,0,1,15.57,35a3.25,3.25,0,0,1-1-1,9.07,9.07,0,0,1-1.15-3.1A15.92,15.92,0,0,1,13.11,28a13.76,13.76,0,0,1,.38-3.78,5.13,5.13,0,0,1,.79-1.81,1.78,1.78,0,0,1,1.5-.82C16.07,21.58,16.36,21.56,16.65,21.57Z"/><path class="cls-2" d="M27.41,9.77c-.22.06-.45.06-.68.1a7.22,7.22,0,0,0-1.19.32,6,6,0,0,0-.9.4,4.06,4.06,0,0,0-1.5,1.35,2.39,2.39,0,0,0-.39,1.58,2.56,2.56,0,0,0,.7,1.5,5,5,0,0,0,2.25,1.39,6.82,6.82,0,0,0,1.73.35s.05,0,.06,0a7.28,7.28,0,0,1-1.68-.12,6.22,6.22,0,0,1-2.65-1.07,3.19,3.19,0,0,1-1.26-1.67,2.44,2.44,0,0,1,.53-2.3,4.82,4.82,0,0,1,2.24-1.46,7.71,7.71,0,0,1,2.43-.42Z"/><path class="cls-3" d="M49.19,6.81a1.7,1.7,0,0,0,.5.27,4.87,4.87,0,0,0,.71.18,5.32,5.32,0,0,1,.66.18.65.65,0,0,1,.34.25.82.82,0,0,1,.11.44,1.08,1.08,0,0,1-.12.54A.73.73,0,0,1,51,9a1.37,1.37,0,0,1-.58.1,4.36,4.36,0,0,1-.48,0L49.41,9,48.9,9l-.06.53.52.07.6.07.54,0a2.4,2.4,0,0,0,.89-.16A1.18,1.18,0,0,0,52,9a1.8,1.8,0,0,0,.21-.93,1.53,1.53,0,0,0-.09-.56.81.81,0,0,0-.27-.39,1.6,1.6,0,0,0-.47-.25,5.48,5.48,0,0,0-.67-.2c-.29-.07-.53-.13-.7-.19a.83.83,0,0,1-.39-.26.81.81,0,0,1-.12-.48.79.79,0,0,1,.12-.45A.77.77,0,0,1,49.94,5,2,2,0,0,1,50.52,5,3.56,3.56,0,0,1,51,5l.55,0,.51.05,0-.54-.48-.07L51,4.4l-.51,0a2.44,2.44,0,0,0-.89.15A1.1,1.1,0,0,0,49,5a1.42,1.42,0,0,0-.21.82,1.82,1.82,0,0,0,.09.61A1.12,1.12,0,0,0,49.19,6.81Z"/><path class="cls-3" d="M53.47,9.46a1.65,1.65,0,0,0,.89.21h.51l.53-.05.44-.06,0-.49-.42,0-.5,0h-.46a.83.83,0,0,1-.73-.28A1.57,1.57,0,0,1,53.5,8h2.44l0-.46a1.86,1.86,0,0,0-.39-1.32,1.45,1.45,0,0,0-1.14-.42,1.75,1.75,0,0,0-.85.2,1.31,1.31,0,0,0-.54.63,2.76,2.76,0,0,0-.2,1.13A3.22,3.22,0,0,0,53,8.82,1.24,1.24,0,0,0,53.47,9.46Zm.14-2.64a.76.76,0,0,1,.32-.38,1,1,0,0,1,.51-.12.81.81,0,0,1,.68.26,1.53,1.53,0,0,1,.2.92H53.5A1.82,1.82,0,0,1,53.61,6.82Z"/><path class="cls-3" d="M57.42,6.91l.36-.17.47-.18c.17,0,.34-.1.5-.13V5.8a1.94,1.94,0,0,0-.51.14,4,4,0,0,0-.46.22,2.87,2.87,0,0,0-.36.21V5.88H56.8V9.6h.62Z"/><polygon class="cls-3" points="61.3 9.6 62.31 5.88 61.66 5.88 60.81 9.06 60.54 9.06 59.72 5.88 59.04 5.88 60.06 9.6 61.3 9.6"/><rect class="cls-3" x="63" y="4.4" width="0.63" height="0.69"/><rect class="cls-3" x="63" y="5.88" width="0.63" height="3.72"/><path class="cls-3" d="M65.12,9.48a1.91,1.91,0,0,0,.94.19h.32l.39-.05.35,0,0-.51-.3,0-.33,0H66.2A1.3,1.3,0,0,1,65.54,9a.68.68,0,0,1-.3-.45,3.22,3.22,0,0,1-.08-.84,2.66,2.66,0,0,1,.09-.77.69.69,0,0,1,.31-.41,1.27,1.27,0,0,1,.64-.13h.26l.33,0,.3,0,0-.53-.34,0-.38,0-.32,0a1.82,1.82,0,0,0-.9.19,1.05,1.05,0,0,0-.5.59,3.08,3.08,0,0,0-.16,1.1,4,4,0,0,0,.14,1.16A1.09,1.09,0,0,0,65.12,9.48Z"/><path class="cls-3" d="M68.33,9.46a1.63,1.63,0,0,0,.89.21h.5l.54-.05.44-.06,0-.49-.42,0-.5,0H69.3a.82.82,0,0,1-.73-.28A1.41,1.41,0,0,1,68.36,8h2.43l0-.46a1.91,1.91,0,0,0-.38-1.32A1.48,1.48,0,0,0,69.3,5.8a1.75,1.75,0,0,0-.85.2,1.32,1.32,0,0,0-.55.63,3,3,0,0,0-.19,1.13,3.22,3.22,0,0,0,.15,1.06A1.19,1.19,0,0,0,68.33,9.46Zm.14-2.64a.72.72,0,0,1,.32-.38,1,1,0,0,1,.51-.12.79.79,0,0,1,.67.26,1.52,1.52,0,0,1,.21.92H68.36A1.82,1.82,0,0,1,68.47,6.82Z"/><path class="cls-3" d="M49.24,18.35a1,1,0,0,0,.39.2,1.88,1.88,0,0,0,.49.06,1.61,1.61,0,0,0,.37,0l.35-.12.27-.13v.21h1V13.27h-1v1.52l-.23,0-.29,0h-.26a1.73,1.73,0,0,0-.93.23,1.3,1.3,0,0,0-.51.67,3.33,3.33,0,0,0-.16,1.08,4.14,4.14,0,0,0,.06.75A1.87,1.87,0,0,0,49,18,1,1,0,0,0,49.24,18.35Zm.56-2.29a.75.75,0,0,1,.23-.39.69.69,0,0,1,.45-.13h.21l.24,0,.17,0v2l-.19.08-.26.07-.28,0a.75.75,0,0,1-.26-.05.57.57,0,0,1-.2-.18.84.84,0,0,1-.13-.33,2.58,2.58,0,0,1-.05-.53A2.81,2.81,0,0,1,49.8,16.06Z"/><polygon class="cls-3" points="53.9 13.45 52.85 13.45 52.96 15.18 53.78 15.18 53.9 13.45"/><polygon class="cls-3" points="58.08 14.3 58.08 13.45 54.7 13.45 54.7 18.53 58.08 18.53 58.08 17.68 55.73 17.68 55.73 16.38 57.63 16.38 57.63 15.54 55.73 15.54 55.73 14.3 58.08 14.3"/><path class="cls-3" d="M62.08,18.53V16.6a5.44,5.44,0,0,0-.06-.88,1.63,1.63,0,0,0-.22-.58.86.86,0,0,0-.4-.33,2,2,0,0,0-.65-.1,1.24,1.24,0,0,0-.37.06,2.53,2.53,0,0,0-.36.12,2.64,2.64,0,0,0-.29.14V14.8h-1v3.73h1V15.77l.21-.09.28-.07.28,0a.56.56,0,0,1,.37.11A.58.58,0,0,1,61,16a3.28,3.28,0,0,1,.05.62v1.88Z"/><path class="cls-3" d="M64.12,18.61a1.53,1.53,0,0,0,.36,0l.35-.12.28-.13v.21h1V13.27h-1v1.52l-.23,0-.29,0h-.26a1.68,1.68,0,0,0-.93.23,1.21,1.21,0,0,0-.51.67,3.08,3.08,0,0,0-.16,1.08,4.14,4.14,0,0,0,.06.75A1.88,1.88,0,0,0,63,18a1.15,1.15,0,0,0,.28.36,1.2,1.2,0,0,0,.39.2A2,2,0,0,0,64.12,18.61Zm-.32-2.55a.74.74,0,0,1,.22-.39.69.69,0,0,1,.45-.13h.22l.23,0,.18,0v2l-.2.08-.26.07-.27,0a.71.71,0,0,1-.26-.05.6.6,0,0,1-.21-.18,1,1,0,0,1-.13-.33,2.66,2.66,0,0,1,0-.53A2.33,2.33,0,0,1,63.8,16.06Z"/><path class="cls-3" d="M70.1,17.76a3.2,3.2,0,0,0,.17-1.13,2.82,2.82,0,0,0-.18-1.09,1.19,1.19,0,0,0-.57-.62,2.06,2.06,0,0,0-1-.21,2.12,2.12,0,0,0-1,.21,1.22,1.22,0,0,0-.56.62,2.82,2.82,0,0,0-.18,1.09A3.2,3.2,0,0,0,67,17.76a1.24,1.24,0,0,0,.56.65,2.21,2.21,0,0,0,1,.2,2.3,2.3,0,0,0,1-.2A1.22,1.22,0,0,0,70.1,17.76Zm-.9-.45a.55.55,0,0,1-.21.37.76.76,0,0,1-.47.12.78.78,0,0,1-.47-.12.64.64,0,0,1-.21-.37,3.2,3.2,0,0,1,0-.68,2.81,2.81,0,0,1,.06-.65.58.58,0,0,1,.23-.34.79.79,0,0,1,.44-.11.81.81,0,0,1,.45.11.57.57,0,0,1,.22.34,2.3,2.3,0,0,1,.07.65A3.1,3.1,0,0,1,69.2,17.31Z"/><path class="cls-3" d="M71.47,18.42a2.14,2.14,0,0,0,1,.19,2.68,2.68,0,0,0,.39,0l.42-.05.36-.07,0-.79-.33,0-.35,0-.28,0a1,1,0,0,1-.51-.11.55.55,0,0,1-.25-.35,2.81,2.81,0,0,1-.06-.65A2,2,0,0,1,71.9,16a.57.57,0,0,1,.25-.33,1.13,1.13,0,0,1,.5-.1h.28l.34,0,.32,0,0-.8-.36-.06-.42,0-.37,0a2,2,0,0,0-1,.19,1.05,1.05,0,0,0-.53.6,3.12,3.12,0,0,0-.17,1.13A3.64,3.64,0,0,0,71,17.78,1.05,1.05,0,0,0,71.47,18.42Z"/><path class="cls-3" d="M75.27,16.07a2.44,2.44,0,0,1,.32-.15,2.48,2.48,0,0,1,.41-.15,2.22,2.22,0,0,1,.41-.1v-1a1.86,1.86,0,0,0-.43.12l-.4.2a2.41,2.41,0,0,0-.31.2V14.8h-1v3.73h1Z"/><rect class="cls-3" x="76.92" y="14.8" width="0.99" height="3.74"/><rect class="cls-3" x="76.92" y="13.35" width="1" height="0.85"/><path class="cls-3" d="M79.72,15.77l.22-.09.27-.07.28,0a.54.54,0,0,1,.37.11A.53.53,0,0,1,81,16a4.68,4.68,0,0,1,0,.62v1.88h1V16.6a5.31,5.31,0,0,0-.07-.88,1.47,1.47,0,0,0-.22-.58.86.86,0,0,0-.4-.33,2,2,0,0,0-.65-.1,1.18,1.18,0,0,0-.36.06,1.9,1.9,0,0,0-.36.12,2.15,2.15,0,0,0-.3.14V14.8h-1v3.73h1Z"/><path class="cls-3" d="M83.44,18.41a2.28,2.28,0,0,0,1,.2,2.22,2.22,0,0,0,1-.2,1.24,1.24,0,0,0,.56-.65,3.2,3.2,0,0,0,.17-1.13A2.82,2.82,0,0,0,86,15.54a1.24,1.24,0,0,0-.57-.62,2.49,2.49,0,0,0-2,0,1.18,1.18,0,0,0-.56.62,2.82,2.82,0,0,0-.18,1.09,3,3,0,0,0,.17,1.13A1.22,1.22,0,0,0,83.44,18.41ZM83.79,16a.54.54,0,0,1,.23-.34.77.77,0,0,1,.44-.11.83.83,0,0,1,.45.11.61.61,0,0,1,.22.34,2.73,2.73,0,0,1,.07.65,3.1,3.1,0,0,1-.06.68.64.64,0,0,1-.21.37.78.78,0,0,1-.47.12.76.76,0,0,1-.47-.12.64.64,0,0,1-.21-.37,3.1,3.1,0,0,1-.06-.68A2.3,2.3,0,0,1,83.79,16Z"/><rect class="cls-3" x="86.92" y="13.27" width="0.99" height="5.26"/><path class="cls-3" d="M89.35,18.41a2.21,2.21,0,0,0,1,.2,2.3,2.3,0,0,0,1-.2,1.22,1.22,0,0,0,.55-.65,3.2,3.2,0,0,0,.17-1.13,2.82,2.82,0,0,0-.18-1.09,1.19,1.19,0,0,0-.57-.62,2.06,2.06,0,0,0-1-.21,2.09,2.09,0,0,0-1,.21,1.22,1.22,0,0,0-.56.62,2.82,2.82,0,0,0-.18,1.09,3.2,3.2,0,0,0,.17,1.13A1.24,1.24,0,0,0,89.35,18.41ZM89.69,16a.58.58,0,0,1,.23-.34.79.79,0,0,1,.44-.11.81.81,0,0,1,.45.11A.57.57,0,0,1,91,16a2.3,2.3,0,0,1,.07.65,3.1,3.1,0,0,1-.06.68.59.59,0,0,1-.21.37.76.76,0,0,1-.47.12.78.78,0,0,1-.47-.12.64.64,0,0,1-.21-.37,3.1,3.1,0,0,1-.06-.68A2.73,2.73,0,0,1,89.69,16Z"/><path class="cls-3" d="M96.19,18.94a1.44,1.44,0,0,0-.13-.69.72.72,0,0,0-.45-.34,2.87,2.87,0,0,0-.85-.1h-.49a.91.91,0,0,1-.27,0,.26.26,0,0,1-.13-.07.23.23,0,0,1,0-.13.53.53,0,0,1,0-.13l.06-.17.17,0h.16a3.21,3.21,0,0,0,.89-.1.92.92,0,0,0,.52-.4,1.44,1.44,0,0,0,.18-.79.83.83,0,0,0-.06-.34,1.61,1.61,0,0,0-.12-.23h.56v-.67L95,14.8l-.36-.06-.41,0a2.58,2.58,0,0,0-.85.13,1,1,0,0,0-.53.41,1.32,1.32,0,0,0-.19.76,1.55,1.55,0,0,0,.09.57,1,1,0,0,0,.22.36,1,1,0,0,0,.28.19l-.14.2-.13.22a.41.41,0,0,0,0,.16A.64.64,0,0,0,93,18a.47.47,0,0,0,.16.22l-.31.28a.75.75,0,0,0-.17.28,1,1,0,0,0-.06.35,1,1,0,0,0,.2.67,1,1,0,0,0,.6.33,4.64,4.64,0,0,0,1,.09,2.28,2.28,0,0,0,1.29-.32A1.09,1.09,0,0,0,96.19,18.94Zm-2.41-3.39a.65.65,0,0,1,.47-.14.65.65,0,0,1,.49.14.61.61,0,0,1,.15.46.62.62,0,0,1-.15.46.7.7,0,0,1-.49.13.69.69,0,0,1-.47-.13.67.67,0,0,1-.14-.46A.65.65,0,0,1,93.78,15.55Zm1.27,3.84a1.56,1.56,0,0,1-.67.11,2.34,2.34,0,0,1-.52-.05.44.44,0,0,1-.27-.14.46.46,0,0,1-.08-.27.48.48,0,0,1,0-.18.26.26,0,0,1,.09-.13.78.78,0,0,1,.16-.15h.71a2.64,2.64,0,0,1,.45,0,.36.36,0,0,1,.23.12.41.41,0,0,1,.07.28A.37.37,0,0,1,95.05,19.39Z"/><rect class="cls-3" x="96.76" y="14.8" width="0.99" height="3.74"/><rect class="cls-3" x="96.76" y="13.35" width="1" height="0.85"/><path class="cls-3" d="M100.14,14.71a1.84,1.84,0,0,0-.94.22,1.31,1.31,0,0,0-.57.65,2.79,2.79,0,0,0-.2,1.13,2.92,2.92,0,0,0,.16,1.06,1.14,1.14,0,0,0,.51.64,2.07,2.07,0,0,0,1,.2,5.62,5.62,0,0,0,.57,0l.59-.07.47-.06,0-.69-.46,0-.55,0h-.51a.68.68,0,0,1-.56-.21,1,1,0,0,1-.17-.62h2.34l0-.55a1.8,1.8,0,0,0-.42-1.32A1.7,1.7,0,0,0,100.14,14.71Zm-.71,1.66a1.52,1.52,0,0,1,.08-.53.5.5,0,0,1,.24-.29.75.75,0,0,1,.39-.09.61.61,0,0,1,.52.2,1.14,1.14,0,0,1,.16.71Z"/><path class="cls-3" d="M52.52,23a1.52,1.52,0,0,0-.65-.49,2.68,2.68,0,0,0-1-.17H48.92v5.08h2a2.29,2.29,0,0,0,1-.19,1.47,1.47,0,0,0,.64-.54,2.25,2.25,0,0,0,.34-.82,5,5,0,0,0,.1-1.07,4.58,4.58,0,0,0-.11-1A2,2,0,0,0,52.52,23Zm-.63,2.49a1.84,1.84,0,0,1-.16.56.81.81,0,0,1-.33.38,1,1,0,0,1-.56.13H50V23.24h.89a1.13,1.13,0,0,1,.56.12.87.87,0,0,1,.33.33,1.73,1.73,0,0,1,.16.5,4.45,4.45,0,0,1,0,.65A4.93,4.93,0,0,1,51.89,25.53Z"/><rect class="cls-3" x="53.69" y="23.73" width="0.99" height="3.74"/><rect class="cls-3" x="53.69" y="22.28" width="1" height="0.85"/><path class="cls-3" d="M58.38,27.52h.46l0-.69a.53.53,0,0,1-.22-.08.19.19,0,0,1-.11-.16v-1.7a1.38,1.38,0,0,0-.17-.73.9.9,0,0,0-.48-.4,2.62,2.62,0,0,0-.8-.11l-.55,0-.57.07-.46.1,0,.7L56,24.5l.54,0H57a.62.62,0,0,1,.39.11.44.44,0,0,1,.14.37v.23l-.91.08a2.44,2.44,0,0,0-.72.13.89.89,0,0,0-.44.34,1.2,1.2,0,0,0-.15.65,1.22,1.22,0,0,0,.29.89,1.19,1.19,0,0,0,.88.3A2.5,2.5,0,0,0,57,27.5l.44-.11.32-.12a.72.72,0,0,0,.19.14.7.7,0,0,0,.3.09Zm-.85-.89-.22.08-.3.07-.29,0a.35.35,0,0,1-.31-.13.52.52,0,0,1-.1-.35.45.45,0,0,1,.11-.34.5.5,0,0,1,.35-.15l.76-.07Z"/><path class="cls-3" d="M62.18,23.86a1.48,1.48,0,0,0-.83-.21l-.34,0-.35.08-.27.09V22.2h-1v5.23l.49.06.55,0,.46,0A2.82,2.82,0,0,0,62,27.36a1.15,1.15,0,0,0,.58-.64,3.46,3.46,0,0,0,.16-1.18,3.41,3.41,0,0,0-.13-1.05A1.18,1.18,0,0,0,62.18,23.86Zm-.5,2.33a.6.6,0,0,1-.24.39.91.91,0,0,1-.55.13h-.24l-.26,0V24.63l.2-.07.26,0,.25,0a.61.61,0,0,1,.38.11.55.55,0,0,1,.2.34,2.59,2.59,0,0,1,.06.62A2.9,2.9,0,0,1,61.68,26.19Z"/><path class="cls-3" d="M66.55,26.7l-.47,0-.54,0H65a.65.65,0,0,1-.56-.2,1.07,1.07,0,0,1-.18-.63h2.34l.05-.55a1.8,1.8,0,0,0-.42-1.32A1.7,1.7,0,0,0,65,23.65a1.92,1.92,0,0,0-.94.21,1.42,1.42,0,0,0-.58.65,2.8,2.8,0,0,0-.19,1.13,3.28,3.28,0,0,0,.15,1.07,1.21,1.21,0,0,0,.52.63,2,2,0,0,0,1,.21l.57,0,.58-.06.47-.07Zm-2.17-1.93a.57.57,0,0,1,.23-.29.82.82,0,0,1,.4-.09.64.64,0,0,1,.52.2,1.24,1.24,0,0,1,.16.71h-1.4A1.3,1.3,0,0,1,64.38,24.77Z"/><polygon class="cls-3" points="64.14 22.61 64.57 23.17 66.16 22.63 65.59 21.87 64.14 22.61"/><path class="cls-3" d="M69.26,26.67h-.37a.41.41,0,0,1-.27-.07.34.34,0,0,1-.12-.23c0-.11,0-.26,0-.45V24.55h1v-.82h-1v-1h-1v1h-.44v.82h.44V26.2a2.25,2.25,0,0,0,.11.82.65.65,0,0,0,.36.41,1.56,1.56,0,0,0,.66.12h.26l.31-.05.27,0,0-.8Z"/><path class="cls-3" d="M73.34,25.57a2.78,2.78,0,0,0-.18-1.09,1.3,1.3,0,0,0-.57-.63,2.6,2.6,0,0,0-2,0,1.24,1.24,0,0,0-.56.63,2.78,2.78,0,0,0-.18,1.09A3,3,0,0,0,70,26.69a1.22,1.22,0,0,0,.55.65,2.15,2.15,0,0,0,1,.21,2.09,2.09,0,0,0,1-.21,1.24,1.24,0,0,0,.56-.65A3.18,3.18,0,0,0,73.34,25.57Zm-1.07.67a.61.61,0,0,1-.21.37.78.78,0,0,1-.47.12.76.76,0,0,1-.47-.12.61.61,0,0,1-.21-.37,3.07,3.07,0,0,1-.06-.67,2.37,2.37,0,0,1,.07-.66.54.54,0,0,1,.23-.34.77.77,0,0,1,.44-.11.83.83,0,0,1,.45.11.61.61,0,0,1,.22.34,2.83,2.83,0,0,1,.07.66A3.07,3.07,0,0,1,72.27,26.24Z"/><rect class="cls-3" x="74.05" y="22.2" width="0.99" height="5.26"/><path class="cls-3" d="M78.52,27.34a1.22,1.22,0,0,0,.55-.65,3.18,3.18,0,0,0,.17-1.12,2.78,2.78,0,0,0-.18-1.09,1.25,1.25,0,0,0-.57-.63,2.07,2.07,0,0,0-1-.2,2.12,2.12,0,0,0-1,.2,1.28,1.28,0,0,0-.56.63,2.78,2.78,0,0,0-.18,1.09,3.18,3.18,0,0,0,.17,1.12,1.24,1.24,0,0,0,.56.65,2.08,2.08,0,0,0,1,.21A2.16,2.16,0,0,0,78.52,27.34Zm-1.71-1.1a3.15,3.15,0,0,1,0-.67,2.91,2.91,0,0,1,.06-.66.58.58,0,0,1,.23-.34.79.79,0,0,1,.44-.11.81.81,0,0,1,.45.11.57.57,0,0,1,.22.34,2.37,2.37,0,0,1,.07.66,3.07,3.07,0,0,1-.06.67.53.53,0,0,1-.21.37.76.76,0,0,1-.47.12.78.78,0,0,1-.47-.12A.61.61,0,0,1,76.81,26.24Z"/><path class="cls-3" d="M83.32,27.87a1.49,1.49,0,0,0-.13-.69.72.72,0,0,0-.45-.34,2.82,2.82,0,0,0-.85-.1H81.4a.91.91,0,0,1-.27,0,.26.26,0,0,1-.13-.07.23.23,0,0,1,0-.13.66.66,0,0,1,0-.13l.06-.16h.17l.16,0a3.17,3.17,0,0,0,.89-.11.87.87,0,0,0,.52-.39,1.51,1.51,0,0,0,.18-.8.86.86,0,0,0-.06-.34,1.08,1.08,0,0,0-.12-.22h.57v-.67l-1.22,0-.36-.06-.41,0a2.64,2.64,0,0,0-.85.12,1,1,0,0,0-.53.41,1.4,1.4,0,0,0-.19.76,1.51,1.51,0,0,0,.09.57,1,1,0,0,0,.22.36,1,1,0,0,0,.28.19l-.14.21a2.39,2.39,0,0,0-.13.21.47.47,0,0,0,0,.16.64.64,0,0,0,.07.31.47.47,0,0,0,.16.22l-.31.28a.72.72,0,0,0-.17.29.9.9,0,0,0-.06.34,1.06,1.06,0,0,0,.2.68,1.08,1.08,0,0,0,.6.32,4.64,4.64,0,0,0,1,.09,2.34,2.34,0,0,0,1.3-.32A1.09,1.09,0,0,0,83.32,27.87Zm-2.41-3.39a.89.89,0,0,1,1,0,.78.78,0,0,1,0,.92.89.89,0,0,1-1,0,.83.83,0,0,1,0-.92Zm1.27,3.84a1.42,1.42,0,0,1-.67.11,2.43,2.43,0,0,1-.52,0,.51.51,0,0,1-.27-.15.43.43,0,0,1-.08-.27.4.4,0,0,1,0-.17.24.24,0,0,1,.09-.14.76.76,0,0,1,.16-.14h.13l.19,0h.39a2.83,2.83,0,0,1,.45,0,.36.36,0,0,1,.23.12.43.43,0,0,1,.07.28A.37.37,0,0,1,82.18,28.32Z"/><rect class="cls-3" x="83.89" y="23.73" width="0.99" height="3.74"/><rect class="cls-3" x="83.89" y="22.28" width="1" height="0.85"/><path class="cls-3" d="M88.37,27.46l.47-.07,0-.69-.46,0-.55,0h-.5a.68.68,0,0,1-.57-.2,1,1,0,0,1-.17-.63H88.9l0-.55a1.8,1.8,0,0,0-.42-1.32,1.7,1.7,0,0,0-1.25-.41,2,2,0,0,0-.94.21,1.35,1.35,0,0,0-.57.65,2.79,2.79,0,0,0-.2,1.13,3,3,0,0,0,.16,1.07,1.15,1.15,0,0,0,.51.63,2,2,0,0,0,1,.21l.57,0Zm-1.73-2.69a.54.54,0,0,1,.24-.29.75.75,0,0,1,.39-.09.64.64,0,0,1,.52.2,1.16,1.16,0,0,1,.16.71H86.56A1.52,1.52,0,0,1,86.64,24.77Z"/><path class="cls-3" d="M49.79,32.26a.8.8,0,0,1,.4-.37,1.58,1.58,0,0,1,.67-.12,3.7,3.7,0,0,1,.45,0l.48,0,.39.06,0-.54-.4-.08-.5-.07-.53,0a2.23,2.23,0,0,0-1,.17,1.34,1.34,0,0,0-.58.5,2.14,2.14,0,0,0-.29.83,7.82,7.82,0,0,0-.08,1.16A7.63,7.63,0,0,0,49,35a2.15,2.15,0,0,0,.29.82,1.29,1.29,0,0,0,.58.5,2.2,2.2,0,0,0,1,.17l.51,0,.5-.06.42-.08,0-.55-.63.09a5.71,5.71,0,0,1-.68,0,1.68,1.68,0,0,1-.69-.12.87.87,0,0,1-.39-.37,2,2,0,0,1-.19-.64,8.22,8.22,0,0,1-.05-.92,8.14,8.14,0,0,1,.05-.93A2.09,2.09,0,0,1,49.79,32.26Z"/><polygon class="cls-3" points="56.26 33.53 53.75 33.53 53.75 31.26 53.1 31.26 53.1 36.4 53.75 36.4 53.75 34.1 56.26 34.1 56.26 36.4 56.91 36.4 56.91 31.26 56.26 31.26 56.26 33.53"/><path class="cls-3" d="M61.09,34.83a1,1,0,0,1-.31.82,1.34,1.34,0,0,1-.88.25,1.3,1.3,0,0,1-.86-.25,1,1,0,0,1-.31-.82V31.26h-.65v3.55a1.94,1.94,0,0,0,.21,1,1.31,1.31,0,0,0,.63.53,2.58,2.58,0,0,0,1,.16,2.69,2.69,0,0,0,1-.16,1.23,1.23,0,0,0,.63-.53,1.86,1.86,0,0,0,.22-1V31.26h-.66Z"/><rect class="cls-3" x="64.55" y="31.26" width="0.66" height="5.14"/><path class="cls-3" d="M68.45,34.41a3.14,3.14,0,0,0-.74-.19,3.36,3.36,0,0,1-.59-.13.5.5,0,0,1-.27-.16.39.39,0,0,1-.08-.25.53.53,0,0,1,.1-.32.59.59,0,0,1,.28-.16,1.48,1.48,0,0,1,.38,0l.42,0,.48,0,.42.06v-.54l-.4-.06-.5-.06-.46,0a2.07,2.07,0,0,0-.66.1,1.07,1.07,0,0,0-.51.34,1,1,0,0,0-.19.67,1,1,0,0,0,.13.57.78.78,0,0,0,.41.31,4.23,4.23,0,0,0,.7.17,2.84,2.84,0,0,1,.6.12.61.61,0,0,1,.28.16.47.47,0,0,1,.08.28.59.59,0,0,1-.1.36.51.51,0,0,1-.3.18,1.68,1.68,0,0,1-.48,0,2.62,2.62,0,0,1-.37,0l-.45,0-.43-.06,0,.54.42.06c.16,0,.32,0,.49.06l.43,0a2.48,2.48,0,0,0,.78-.11,1,1,0,0,0,.51-.37A1.31,1.31,0,0,0,69,35.3a1.1,1.1,0,0,0-.12-.57A.79.79,0,0,0,68.45,34.41Z"/><path class="cls-3" d="M71.93,34.41a3.43,3.43,0,0,0-.74-.19,3.15,3.15,0,0,1-.59-.13.53.53,0,0,1-.28-.16.39.39,0,0,1-.07-.25.47.47,0,0,1,.1-.32.61.61,0,0,1,.27-.16,1.56,1.56,0,0,1,.39,0l.42,0,.48,0,.42.06v-.54l-.41-.06-.49-.06-.47,0a2,2,0,0,0-.65.1,1.07,1.07,0,0,0-.51.34,1,1,0,0,0-.19.67,1,1,0,0,0,.13.57.74.74,0,0,0,.41.31,3.86,3.86,0,0,0,.69.17,2.71,2.71,0,0,1,.6.12.56.56,0,0,1,.28.16.41.41,0,0,1,.08.28.53.53,0,0,1-.1.36.48.48,0,0,1-.29.18,1.72,1.72,0,0,1-.49,0,2.57,2.57,0,0,1-.36,0l-.46,0-.42-.06,0,.54.43.06c.16,0,.32,0,.49.06l.42,0a2.6,2.6,0,0,0,.79-.11,1,1,0,0,0,.5-.37,1.22,1.22,0,0,0,.18-.69,1,1,0,0,0-.13-.57A.77.77,0,0,0,71.93,34.41Z"/><path class="cls-3" d="M76,35.66V33.8a1.47,1.47,0,0,0-.13-.68.76.76,0,0,0-.4-.39,1.64,1.64,0,0,0-.71-.13l-.51,0c-.19,0-.36,0-.54.06l-.43.07,0,.48.45,0,.51,0,.45,0a.69.69,0,0,1,.48.15.67.67,0,0,1,.16.52v.3l-1.11.11a1.94,1.94,0,0,0-.65.15.89.89,0,0,0-.39.35,1.48,1.48,0,0,0,.14,1.46,1.06,1.06,0,0,0,.8.29,2,2,0,0,0,.49,0,4.46,4.46,0,0,0,.46-.11l.36-.13a1.09,1.09,0,0,0,.17.13.72.72,0,0,0,.2.09l.17,0,.19,0h.2l0-.49a.71.71,0,0,1-.28-.09A.32.32,0,0,1,76,35.66Zm-.64.07-.3.1c-.13,0-.26.06-.4.09l-.4,0a.51.51,0,0,1-.4-.17.75.75,0,0,1-.13-.47.64.64,0,0,1,.14-.45.66.66,0,0,1,.46-.19l1-.1Z"/><path class="cls-3" d="M79.33,32.69a1.3,1.3,0,0,0-.26,0l-.32,0h-.31a1.66,1.66,0,0,0-.91.22,1.19,1.19,0,0,0-.5.65,3.37,3.37,0,0,0-.16,1.1,4.49,4.49,0,0,0,.07.8,2,2,0,0,0,.19.54,1.12,1.12,0,0,0,.3.34,1,1,0,0,0,.37.17,1.45,1.45,0,0,0,.43,0,2,2,0,0,0,.41,0,3.56,3.56,0,0,0,.39-.13l.31-.13v.24H80V31.07h-.63Zm0,3a2.49,2.49,0,0,1-.27.11,1.89,1.89,0,0,1-.36.1,1.64,1.64,0,0,1-.37,0,.81.81,0,0,1-.31-.06.56.56,0,0,1-.25-.19.92.92,0,0,1-.18-.41,3.1,3.1,0,0,1-.06-.68,2.91,2.91,0,0,1,.09-.79.84.84,0,0,1,.3-.47.9.9,0,0,1,.57-.16h.29l.31,0,.24,0Z"/><polygon class="cls-3" points="85.88 33.53 83.38 33.53 83.38 31.26 82.72 31.26 82.72 36.4 83.38 36.4 83.38 34.1 85.88 34.1 85.88 36.4 86.54 36.4 86.54 31.26 85.88 31.26 85.88 33.53"/><path class="cls-3" d="M90.35,35.66V33.8a1.61,1.61,0,0,0-.13-.68.82.82,0,0,0-.41-.39,1.61,1.61,0,0,0-.71-.13l-.51,0c-.18,0-.36,0-.53.06l-.44.07,0,.48.45,0,.52,0,.45,0a.66.66,0,0,1,.47.15.67.67,0,0,1,.17.52v.3l-1.12.11a1.88,1.88,0,0,0-.64.15.86.86,0,0,0-.4.35,1.33,1.33,0,0,0-.13.6,1.22,1.22,0,0,0,.27.86,1.06,1.06,0,0,0,.8.29,2,2,0,0,0,.49,0l.47-.11.35-.13.17.13a.67.67,0,0,0,.21.09l.16,0,.19,0h.2l0-.49a.76.76,0,0,1-.29-.09A.31.31,0,0,1,90.35,35.66Zm-.64.07a2.28,2.28,0,0,1-.31.1,3.75,3.75,0,0,1-.39.09l-.4,0a.49.49,0,0,1-.4-.17.75.75,0,0,1-.14-.47.69.69,0,0,1,.14-.45.66.66,0,0,1,.46-.19l1-.1Z"/><path class="cls-3" d="M93.54,34.41a3.43,3.43,0,0,0-.74-.19,3.15,3.15,0,0,1-.59-.13.49.49,0,0,1-.28-.16.39.39,0,0,1-.07-.25.47.47,0,0,1,.1-.32.61.61,0,0,1,.27-.16,1.51,1.51,0,0,1,.39,0l.41,0,.48,0,.42.06,0-.54-.41-.06-.49-.06-.47,0a2,2,0,0,0-.65.1,1.07,1.07,0,0,0-.51.34,1,1,0,0,0-.19.67,1,1,0,0,0,.13.57.74.74,0,0,0,.41.31,3.86,3.86,0,0,0,.69.17,2.84,2.84,0,0,1,.6.12.56.56,0,0,1,.28.16.41.41,0,0,1,.08.28.53.53,0,0,1-.1.36.48.48,0,0,1-.29.18,1.72,1.72,0,0,1-.49,0,2.57,2.57,0,0,1-.36,0l-.46,0-.42-.06,0,.54.43.06.48.06.43,0a2.6,2.6,0,0,0,.79-.11,1,1,0,0,0,.5-.37,1.22,1.22,0,0,0,.18-.69,1,1,0,0,0-.13-.57A.77.77,0,0,0,93.54,34.41Z"/><path class="cls-3" d="M97,34.41a3.14,3.14,0,0,0-.74-.19,3.36,3.36,0,0,1-.59-.13.5.5,0,0,1-.27-.16.39.39,0,0,1-.08-.25.53.53,0,0,1,.1-.32.59.59,0,0,1,.28-.16,1.48,1.48,0,0,1,.38,0l.42,0,.48,0,.42.06,0-.54L97,32.68l-.49-.06-.47,0a2.07,2.07,0,0,0-.66.1,1,1,0,0,0-.5.34,1,1,0,0,0-.2.67,1,1,0,0,0,.13.57.82.82,0,0,0,.41.31,4.23,4.23,0,0,0,.7.17,2.84,2.84,0,0,1,.6.12.61.61,0,0,1,.28.16.47.47,0,0,1,.08.28.59.59,0,0,1-.1.36.51.51,0,0,1-.3.18,1.68,1.68,0,0,1-.48,0,2.62,2.62,0,0,1-.37,0l-.45,0-.42-.06,0,.54.42.06c.16,0,.32,0,.49.06l.43,0a2.48,2.48,0,0,0,.78-.11,1,1,0,0,0,.51-.37,1.22,1.22,0,0,0,.17-.69,1.1,1.1,0,0,0-.12-.57A.79.79,0,0,0,97,34.41Z"/><path class="cls-3" d="M101.06,35.66V33.8a1.61,1.61,0,0,0-.13-.68.78.78,0,0,0-.41-.39,1.59,1.59,0,0,0-.7-.13l-.51,0c-.19,0-.37,0-.54.06l-.44.07,0,.48.45,0,.52,0,.45,0a.65.65,0,0,1,.47.15.67.67,0,0,1,.17.52v.3l-1.12.11a1.88,1.88,0,0,0-.64.15.86.86,0,0,0-.4.35,1.33,1.33,0,0,0-.13.6,1.22,1.22,0,0,0,.27.86,1.07,1.07,0,0,0,.8.29,2.12,2.12,0,0,0,.5,0l.46-.11.35-.13.18.13a.61.61,0,0,0,.2.09l.16,0,.19,0h.21l0-.49a.76.76,0,0,1-.29-.09A.31.31,0,0,1,101.06,35.66Zm-.64.07a2.28,2.28,0,0,1-.31.1,3.75,3.75,0,0,1-.39.09l-.4,0a.49.49,0,0,1-.4-.17.75.75,0,0,1-.14-.47.69.69,0,0,1,.14-.45.68.68,0,0,1,.46-.19l1-.1Z"/><path class="cls-3" d="M104.9,33a.79.79,0,0,0-.38-.32,1.69,1.69,0,0,0-.64-.1,2.08,2.08,0,0,0-.41,0l-.4.13a2.26,2.26,0,0,0-.31.15v-.26h-.63V36.4h.63v-3l.27-.12a2,2,0,0,1,.35-.1,1.61,1.61,0,0,1,.37,0,.84.84,0,0,1,.5.12.67.67,0,0,1,.21.41,3.77,3.77,0,0,1,.06.75V36.4h.63v-2a6.53,6.53,0,0,0-.05-.84A1.66,1.66,0,0,0,104.9,33Z"/><rect class="cls-3" x="106.15" y="31.19" width="0.63" height="0.69"/><rect class="cls-3" x="106.15" y="32.67" width="0.63" height="3.72"/></g></g></svg>