<svg xmlns="http://www.w3.org/2000/svg" viewBox="0 0 60.17 59.81"><defs><style>.cls-1{fill:#872c7a;}.cls-2{fill:#fff;}</style></defs><g id="Layer_2" data-name="Layer 2"><g id="Layer_2-2" data-name="Layer 2"><path class="cls-1" d="M59.38,6.67a10.11,10.11,0,0,0-2.91-4c-1.95-1.53-4-2.88-6.66-2.69Q30.25,0,10.72.06A9.84,9.84,0,0,0,3.8,3a10.46,10.46,0,0,0-2.61,3.4A6.88,6.88,0,0,0,.33,9.63c0,.26.23.71-.33.78V49.13c.11.15.33.3.33.45a9.48,9.48,0,0,0,1.61,4.86A12.38,12.38,0,0,0,4.79,57.5a10.15,10.15,0,0,0,6.09,2.28q19.19.06,38.34,0a9.6,9.6,0,0,0,2.91-.49,11.68,11.68,0,0,0,7.67-7.7A4.29,4.29,0,0,0,60.17,50V9.82A7.48,7.48,0,0,0,59.38,6.67ZM21.42,39a.69.69,0,0,1-.29.1c-1.05.35-2.12.7-3.18,1.08l-.86.34c-1.87.64-3.71,1.35-5.54,2.06-1.19.49-2.35,1-3.51,1.53-.19.08-.38.15-.71.3v-26a3.31,3.31,0,0,1,.18-1.46c.68-1.65,1.09-2,2.77-2H21.17a.43.43,0,0,1,.22,0l0,0c.18.09.09.34.09.54v7.4c0,5.06,0,10.14,0,15.19C21.48,38.37,21.7,38.76,21.42,39Zm16.12-4.87c-1.64.41-3.36.67-5,1.23-2.77.94-5.65,1.57-8.34,2.66,0,0-.06,0-.09-.09l-.12,0s-.08-.08-.11-.11v-.19c-.6,0-.34-.52-.34-.78V15.65c0-.26-.26-.71.34-.78h.21c4.36,0,8.75,0,13.21,0v0h.21Zm16-3.78c-.58.13-1.15.26-1.73.37s-1.08.23-1.62.33l-1.67.33c-1.11.22-2.23.43-3.34.66l-.28.06-1.4.3c-.56.12-1.11.25-1.67.39l-1.67.44V14.87c3.63,0,7.17,0,10.73,0h.51l.36,0a2.35,2.35,0,0,1,.4.09,1.66,1.66,0,0,1,.33.15l.07,0a1.74,1.74,0,0,1,.55.52,2.5,2.5,0,0,1,.23.39,3.26,3.26,0,0,1,.2.53Z"/><path class="cls-2" d="M40.16,14.86c3.63,0,7.18,0,10.74,0a2.31,2.31,0,0,1,2.65,1.8V30.31c-4.46,1-8.93,1.64-13.38,2.88Z"/><path class="cls-2" d="M21.13,39.06c-1.35.45-2.73.9-4.09,1.38-1.84.68-3.72,1.35-5.54,2.06C10.3,43,9.18,43.51,8,44c-.18.07-.37.14-.71.29v-26a3.47,3.47,0,0,1,.19-1.46c.68-1.6,1.09-2,2.77-2h10.9c.48,0,.33.38.33.6v7.41c0,5.05,0,10.13,0,15.18C21.43,38.42,21.8,39,21.13,39.06Z"/><path class="cls-2" d="M37.54,14.87V34.09c-1.64.41-3.36.67-5,1.23-2.77.94-5.65,1.57-8.34,2.66,0,0-.06,0-.09-.09l-.12,0s-.08-.08-.11-.11v-.19c-.6,0-.34-.52-.34-.78V15.65c0-.26-.26-.71.34-.78Z"/></g></g></svg>