<svg xmlns="http://www.w3.org/2000/svg" viewBox="0 0 46.29 29.47"><defs><style>.cls-1{fill:#fff;}</style></defs><g id="Layer_2" data-name="Layer 2"><g id="Layer_2-2" data-name="Layer 2"><path class="cls-1" d="M32.9,0c3.63,0,7.18,0,10.74,0,1.19,0,2.2.22,2.65,1.8V15.45c-4.46,1-8.93,1.64-13.38,2.87Z"/><path class="cls-1" d="M13.87,24.19c-1.35.45-2.73.9-4.09,1.39-1.84.67-3.72,1.35-5.54,2.06-1.2.45-2.32,1-3.52,1.53l-.71.3v-26A3.45,3.45,0,0,1,.2,2C.88.41,1.29,0,3,0h10.9c.48,0,.33.37.33.6V8c0,5.05,0,10.14,0,15.19C14.17,23.56,14.54,24.08,13.87,24.19Z"/><path class="cls-1" d="M30.28,0V19.22c-1.64.41-3.36.67-5,1.23-2.77.94-5.65,1.57-8.34,2.66,0,0-.06-.05-.09-.09l-.12.05s-.08-.08-.11-.11v-.19c-.6,0-.34-.52-.34-.78V.78c0-.26-.26-.71.34-.78Z"/></g></g></svg>