<svg xmlns="http://www.w3.org/2000/svg" viewBox="0 0 304.64 77.04"><defs><style>.cls-1{fill:#872c7a;}</style></defs><g id="Layer_2" data-name="Layer 2"><g id="Layer_2-2" data-name="Layer 2"><path class="cls-1" d="M215,31.66c0-2.32-1.05-4.37-1.86-6.47a22.3,22.3,0,0,0-2.6-4.11,21.62,21.62,0,0,0-6.13-5.27c-.94.15-1.54-.64-2.44-.79a9.56,9.56,0,0,0-2.69-.56c-.93.11-1.72-.41-2.6-.37a20.68,20.68,0,0,0-2.6.29,16.13,16.13,0,0,0-5,1.65.78.78,0,0,1-.26,0c0-.3-.08-.56-.11-.86H177v.56q0,25.51,0,51a29.57,29.57,0,0,1,.33,4c.71.59.3,1.45.53,2.2a19,19,0,0,0,1.9,4.09c3.93,0,7.86,0,11.67-.11-.71-1.46-1.49-2.84-2.05-4.34a17.71,17.71,0,0,1-1.09-6.28V60.76c0-.37,0-.74.07-1.12.38,0,.64-.11.83,0,2,1.2,4.19,1,6.35,1.35.68.11,1.24-.41,2-.37a7.65,7.65,0,0,0,2.77-.34,19.51,19.51,0,0,0,3.51-1.45,13.11,13.11,0,0,0,3-1.94,24.44,24.44,0,0,0,6.66-9,37.43,37.43,0,0,0,2.17-9.8,7.47,7.47,0,0,0-.26-3.48C215.07,33.68,215.63,32.6,215,31.66Zm-11.52,9.61c-.42,1,.18,2.06-.56,2.88.11,1.61-.68,3-1.16,4.38a7.88,7.88,0,0,1-3.82,4.56,5.25,5.25,0,0,1-2.6.79,12.34,12.34,0,0,0-1.72,0,4.62,4.62,0,0,1-3.14-1.2,23.56,23.56,0,0,1-2.06-2.06c0-8.63,0-17.24,0-25.91a7.84,7.84,0,0,1,4.16-2.77c1.08-.37,2.28-1.05,3.59-.3.48.3,1.11,0,1.75.34a7.64,7.64,0,0,1,4.3,5.27,15.28,15.28,0,0,1,1.05,6c.64,1.64.27,3.36.34,5a8.69,8.69,0,0,1-.16,3Z"/><path class="cls-1" d="M304.31,43.15a6,6,0,0,0-.94-2.92,23.75,23.75,0,0,0-7-7.56c-2.1-1.57-4.6-2.54-6.43-4.49-1.05,0-1.09-1.15-1.69-1.68s-.56-1.61-.56-2.51V23c.49-.56.86-1,1.2-1.34a1.44,1.44,0,0,0,.74-.08,3.45,3.45,0,0,1,2.77-.15,9.2,9.2,0,0,1,4.3,2.51c.74.9,1.61,1.64,2.43,2.47.3.3.64.6,1.05,1,.67-1.57,1.38-3,1.94-4.49s1.69-2.88,1.76-4.49a47.93,47.93,0,0,0-6.58-2.8,33.38,33.38,0,0,0-6.62-1.49,4.31,4.31,0,0,0-2.6.33A9.41,9.41,0,0,0,283,15.89a11.44,11.44,0,0,0-4.86,4.83,6.18,6.18,0,0,0-.82,3.44c-1,1.57.22,3.14,0,4.71A16.33,16.33,0,0,0,281,35.3a18.68,18.68,0,0,0,2.43,2.1,31,31,0,0,0,3.89,2.65,19.55,19.55,0,0,1,4.23,3.11,7.74,7.74,0,0,1,2.65,6.66c-.22.41-.37.67-.52,1a5.63,5.63,0,0,1-3.63,2.8,4.62,4.62,0,0,1-3,0,15.9,15.9,0,0,1-2.91-1.31,26.17,26.17,0,0,1-3.9-4.9c-.67.48-.71,1.31-1,2q-1.63,3.42-3.35,6.84c.49.34.9.64,1.31.9,1.54.93,2.88,2.09,4.64,2.58s3.66,1.39,5.72,1.16c.19,0,.52,0,.64.07a1.5,1.5,0,0,0,1.76.23c1.11-.56,2.27-.07,3.4-.6.86-.41,2.65-1,3.51-1.48a19.23,19.23,0,0,0,4.12-3.44,10.94,10.94,0,0,0,3.25-7c0-.07.22-.19.34-.26,0-1.61,0-3.22.11-4.94C304.52,43.33,304.31,43.22,304.31,43.15Z"/><path class="cls-1" d="M57.7,60.05H46.78c-1.54-1.27-2.1-3-2.58-4.94a27.85,27.85,0,0,1-.34-3c-.67-4.09-.22-8.18-.3-12.31s0-8.3,0-12.45a12.31,12.31,0,0,0-.37-2.17c-.67-.6-1.39-1.23-2.06-1.79-1.27.07-2.47-.19-3.59.37-.37.19-.89.23-1.16.49-1.31,1.34-2.92,2.46-3.51,4.41,0,.09-.15.15-.26.21V51.84c.56.07.3.52.34.79a10.79,10.79,0,0,0,1.79,5.29,21.3,21.3,0,0,1,1,1.94l-.19.19a.27.27,0,0,1-.14.07H24.75a2.34,2.34,0,0,0-.41-.74,7,7,0,0,1-1.8-3.74,31.12,31.12,0,0,1-.71-7.14q.06-9.76,0-19.53a10.21,10.21,0,0,0-.37-2.8A4.52,4.52,0,0,0,19.7,24a2.34,2.34,0,0,0-1.86-.49c-.56.08-1.15,0-1.68.08-2.5.78-4,2.6-5.05,5.16V52c.49,2.2.71,4.48,1.91,6.46a12.14,12.14,0,0,1,.6,1.39,2.48,2.48,0,0,0-.19.26.17.17,0,0,1-.15.07h-10A9.53,9.53,0,0,1,.66,55C.37,53.65.59,52.34.33,51.14c-.53-2.32-.27-4.63-.27-7,0-8.94,0-17.84,0-26.78V15.77l.48-.49H10.72v3.07c.83-.6,1.49-1.12,2.17-1.65a10.26,10.26,0,0,1,5.65-2.21c.6-.07,1.11-.45,1.76-.33,2.21.41,4.49.45,6.58,1.68a12.81,12.81,0,0,1,3.55,3.21l.83,1c.86-.86,1.6-1.72,2.5-2.47A12.51,12.51,0,0,1,39,14.83a7.71,7.71,0,0,0,1.91-.37,3,3,0,0,1,1.94-.27,18.33,18.33,0,0,1,4.9,1.05,7.48,7.48,0,0,1,2.17,1.38,12.53,12.53,0,0,1,2.54,2.92,17.16,17.16,0,0,1,1.83,5.8c.53,3.63.19,7.29.27,10.92s0,7.25,0,10.88c0,1.2,0,2.44,0,3.63a14.36,14.36,0,0,0,1.42,6A35.5,35.5,0,0,0,57.7,60.05Z"/><path class="cls-1" d="M144.76,60.05H126.25c-.74-.74-1.61-1.53-2.39-2.39A25.41,25.41,0,0,1,120.55,53c-1-1.8-2.21-3.59-3.29-5.39-.68-1.11-1.24-2.23-1.86-3.36a25.18,25.18,0,0,0-3.26-4.86,9.07,9.07,0,0,0-3,6.92c0,.86,0,1.72,0,2.58a18.8,18.8,0,0,0,.26,3.51,21.16,21.16,0,0,0,.78,3.35c.42,1,.9,2.05,1.39,3.06.19.42.41.82.67,1.31h-11a12.67,12.67,0,0,1-2.47-4.93,11,11,0,0,1-.37-3.48c0-14.29,0-28.58,0-42.86a4.32,4.32,0,0,0-.3-1.95c-.26-.56.22-1.34-.37-1.9a3.49,3.49,0,0,0-1.91-2.81A9.77,9.77,0,0,1,94.06.34L93.73,0h12.45V.34h0a3.23,3.23,0,0,1,1.58,1.79c.26.75.67,1.39.89,2.17s0,1.84.64,2.61h0l0,22.77c0,.11.07.19.15.37,3.1-4.26,7.1-7.67,10.73-11.37,1.2-1.19,2.54-2.23,3.89-3.44h13c-2.32,2.06-4,4.38-6.39,6a7.11,7.11,0,0,0-.74.71c-2,2-4,4-6,6-1.86,1.79-3.85,3.55-5.79,5.31,1.94,1.23,3.92,2.23,5,4.3C125.64,40,127,43.18,129,45.91s3.55,5.35,5.38,7.93a18.76,18.76,0,0,0,2.54,2.58,2.46,2.46,0,0,0,1,.56,35.17,35.17,0,0,1,4,1.65A22.61,22.61,0,0,1,144.76,60.05Z"/><path class="cls-1" d="M274.79,59.83s0,.11-.08.14-.07.12-.11.12H263.88a6.68,6.68,0,0,1-1.95-3.56l-1.08,1.09a11.59,11.59,0,0,1-5.39,2.84,10.44,10.44,0,0,1-1.76.3,15.41,15.41,0,0,1-1.76.3,4.33,4.33,0,0,1-2.13-.3c-.63-.3-1.42.19-2.13-.3a8.81,8.81,0,0,0-1.83-.52A18,18,0,0,1,244,59c-1.11-.63-4-3.51-4.38-4.63-.37-1.32-1.31-2.43-1.11-3.86-.6-1.11-.34-2.32-.34-3.48V15.13h10.36c.11.08.41.23.41.3,0,.45,0,.94,0,1.39V43.67a29.15,29.15,0,0,1,0,3.1c-.15,1,.42,1.95.37,3h0a1.35,1.35,0,0,1,.58.45c1,2,2.84,2.43,4.75,2.58a5.76,5.76,0,0,0,3.14-1.12,8.53,8.53,0,0,0,3.18-4.52,5.88,5.88,0,0,0,0-1.39V15.13h10.36c.11.08.41.26.41.34,0,.52,0,1,0,1.53V52.52c.56.52.07,1.41.67,1.94a12.15,12.15,0,0,0,2.36,5.08C274.79,59.6,274.76,59.75,274.79,59.83Z"/><path class="cls-1" d="M91.62,51.6c-.08-4.49,0-9,0-13.47s.41-8.9-.3-13.35a11.51,11.51,0,0,0-.9-3.44c-2-4.3-4.78-5.76-9.12-6.92-1.42.26-2.81-.26-4.19-.37a27.18,27.18,0,0,0-3.14.37,15.65,15.65,0,0,0-4.57,1.09,19,19,0,0,0-3.43,1.72,13.06,13.06,0,0,0-3.45,2.69c1.28,2.88,2.51,5.76,3.74,8.68a17.35,17.35,0,0,0,2.17-2.21,15.63,15.63,0,0,1,4-3.72,6.49,6.49,0,0,1,4.46-1.34h.85a6.56,6.56,0,0,1,2.77,2.13A8.14,8.14,0,0,1,80.89,25a4.93,4.93,0,0,1-2.21,4.56,33.17,33.17,0,0,1-5.23,3.18,61.52,61.52,0,0,0-9.31,5.5,12,12,0,0,0-4,4.9c-1.35,3.18-1.69,4.6-1,8.3a9.4,9.4,0,0,0,1.8,4.46A18.94,18.94,0,0,0,64,59a10.61,10.61,0,0,0,3,1.39c1.16.37,2.35.48,3.51.74.74.18,1.38-.34,2.09-.37a11.37,11.37,0,0,0,4.64-1.31,17.68,17.68,0,0,0,4.46-2.58,13.91,13.91,0,0,0,.68,1.76,16.15,16.15,0,0,0,1,1.42H94.74a14.12,14.12,0,0,0-.94-1.76A12.12,12.12,0,0,1,91.62,51.6Zm-11-14c0,3.4,0,6.77,0,10.17a3.47,3.47,0,0,1-.93,2.39,10.43,10.43,0,0,1-2.54,2.55,5.33,5.33,0,0,1-2.44.82h-2L70.6,51.68c-.82-1.53-.6-2.84-.67-4.11a6.45,6.45,0,0,1,1.91-4.71,19.23,19.23,0,0,1,3.47-2.81c1.28-.93,2.6-1.86,3.85-2.8.42-.3.9-.6,1.46-1Z"/><path class="cls-1" d="M168.25,22.54a9.64,9.64,0,0,0-5.12-6.32,18.27,18.27,0,0,0-4.23-1.46c-1.23-.34-2.51-.18-3.74-.52a5.47,5.47,0,0,0-3.82.26,11.43,11.43,0,0,0-4.83,1.31,14.31,14.31,0,0,0-4.15,2.84A24,24,0,0,0,139.29,22a29.3,29.3,0,0,0-3,5.12,12.55,12.55,0,0,0-.71,2.47c-.23.83-.53,1.53-.68,2.32a8.8,8.8,0,0,0-.33,2.6,16.22,16.22,0,0,1-.38,2.62,37.33,37.33,0,0,0,.45,5.39,23.22,23.22,0,0,0,1.31,5.12,21,21,0,0,0,2.23,4.75,19.31,19.31,0,0,0,4.57,5,12.55,12.55,0,0,0,3.14,1.95c1.3.44,2.54,1.38,4,1.11.59.68,1.38.23,2.09.34s1.38.26,2.09.34c1.28.11,2.51-.6,3.82-.34.63-.71,1.68,0,2.32-.68a14.27,14.27,0,0,0,4.71-1.94A8.69,8.69,0,0,0,167.75,56c-1.31-2.84-2.66-5.76-4-8.52a9.18,9.18,0,0,0-1.45,1.72,11.78,11.78,0,0,1-3.56,3.47,7.65,7.65,0,0,1-3.25,1.28,8.7,8.7,0,0,1-4.68-.87A6.4,6.4,0,0,1,148,50a5.74,5.74,0,0,1-.93-3.93,11.53,11.53,0,0,1,1.83-1.8c2.21-1.42,4.49-2.72,6.77-4,1.57-.9,3.25-1.57,4.83-2.55s3.29-1.68,4.6-3.06a14.78,14.78,0,0,0,2.28-2.85,6.55,6.55,0,0,0,1-3.55C169.37,26.31,168.66,24.33,168.25,22.54Zm-12.87,8.68c-1.19.85-2.32,1.83-3.59,2.6a41.19,41.19,0,0,1-3.62,2.46c-.64.31-.94,1.12-1.84,1.49a19.18,19.18,0,0,1,.61-6.44,27.31,27.31,0,0,1,2.09-6.4A9.74,9.74,0,0,1,151.42,22a2.19,2.19,0,0,1,1.65-.6,24.9,24.9,0,0,0,2.73.22L158,23.77a5.51,5.51,0,0,1,.37,1.42,7,7,0,0,1-3,6Z"/><path class="cls-1" d="M231.27,49.91c0-4.78,0-9.53,0-14.32s.07-9.46,0-14.18.33-9.49-.3-14.21a20.16,20.16,0,0,0-1-4.26,4.23,4.23,0,0,0-1.8-2.6V0h-11.4l.33.34c.19.33.3.71.52,1,2.21,3.26,2.61,4.79,2.61,7.9.11,13.5.07,27,0,40.43a24.71,24.71,0,0,0,.65,5.74,7.88,7.88,0,0,0,1.94,4,3.36,3.36,0,0,1,.3.6h11c-.22-.53-.37-.9-.56-1.28A18.22,18.22,0,0,1,231.27,49.91Z"/></g></g></svg>