<svg xmlns="http://www.w3.org/2000/svg" viewBox="0 0 373.39 77.04"><defs><style>.cls-1{fill:#872c7a;}.cls-2{fill:#fff;}</style></defs><g id="Layer_2" data-name="Layer 2"><g id="Layer_2-2" data-name="Layer 2"><path class="cls-1" d="M49.81.32C52.47.13,54.53,1.48,56.47,3a10.34,10.34,0,0,1,2.92,4,7.63,7.63,0,0,1,.79,3.14V50.33a4.41,4.41,0,0,1-.38,1.56,11.68,11.68,0,0,1-7.66,7.71,10,10,0,0,1-2.92.49q-19.18,0-38.33,0a10.12,10.12,0,0,1-6.1-2.29,12.34,12.34,0,0,1-2.85-3A9.64,9.64,0,0,1,.33,49.88c0-.14-.22-.3-.33-.45V10.72c.56-.08.33-.53.33-.79A6.85,6.85,0,0,1,1.2,6.68a10.29,10.29,0,0,1,2.6-3.4A9.85,9.85,0,0,1,10.72.36Q30.25.3,49.81.32ZM23.91,15.17c-.6.08-.34.52-.34.79v21.2c0,.26-.26.75.34.79v.18s.07.11.11.11c2.69-1.11,5.58-1.72,8.34-2.65,1.61-.56,3.35-.82,5-1.23V15.13C32.8,15.17,28.35,15.17,23.91,15.17Zm-2.77,24.2c.67-.12.34-.64.34-1,0-5,0-10.14,0-15.19v-7.4c0-.27.14-.6-.34-.6H10.28c-1.68,0-2.09.37-2.77,2a3.42,3.42,0,0,0-.18,1.46v26c.34-.15.52-.23.71-.3,1.16-.52,2.32-1.05,3.51-1.54,1.84-.71,3.67-1.42,5.54-2.05,1.31-.54,2.66-1,4-1.42Zm19-24.2V33.49c4.46-1.23,8.92-1.85,13.38-2.87V17a2.33,2.33,0,0,0-2.66-1.8c-3.52,0-7.11,0-10.73,0Z"/><path class="cls-1" d="M283.75,31.66c0-2.32-1.05-4.37-1.86-6.47a22.3,22.3,0,0,0-2.6-4.11,21.66,21.66,0,0,0-6.14-5.27c-.93.15-1.53-.64-2.43-.79a9.7,9.7,0,0,0-2.69-.56c-.93.11-1.72-.41-2.6-.37a20.68,20.68,0,0,0-2.6.29,16,16,0,0,0-5,1.65.84.84,0,0,1-.27,0c0-.3-.07-.56-.11-.86h-11.7v.56q0,25.51,0,51a28.05,28.05,0,0,1,.34,4c.71.59.3,1.45.53,2.2a19,19,0,0,0,1.9,4.09c3.93,0,7.86,0,11.67-.11-.71-1.46-1.49-2.84-2.06-4.34a17.92,17.92,0,0,1-1.08-6.28V60.76c0-.37,0-.74.07-1.12.37,0,.64-.11.83,0,2,1.2,4.19,1,6.35,1.35.68.11,1.24-.41,1.95-.37a7.67,7.67,0,0,0,2.77-.34,19.51,19.51,0,0,0,3.51-1.45,13.33,13.33,0,0,0,3-1.94,24.44,24.44,0,0,0,6.66-9,37.43,37.43,0,0,0,2.17-9.8,7.47,7.47,0,0,0-.26-3.48C283.82,33.68,284.38,32.6,283.75,31.66Zm-11.53,9.61c-.41,1,.19,2.06-.56,2.88.11,1.61-.67,3-1.16,4.38a7.9,7.9,0,0,1-3.81,4.56,5.25,5.25,0,0,1-2.61.79,12.34,12.34,0,0,0-1.72,0,4.62,4.62,0,0,1-3.14-1.2,26.69,26.69,0,0,1-2.06-2.06c0-8.63,0-17.24,0-25.91a7.82,7.82,0,0,1,4.15-2.77c1.09-.37,2.29-1.05,3.59-.3.49.3,1.12,0,1.76.34a7.67,7.67,0,0,1,4.3,5.27,15.28,15.28,0,0,1,1.05,6c.64,1.64.26,3.36.34,5a8.93,8.93,0,0,1-.16,3Z"/><path class="cls-1" d="M373.05,43.15a6,6,0,0,0-.93-2.92,23.78,23.78,0,0,0-7-7.56c-2.09-1.57-4.59-2.54-6.43-4.49-1,0-1.08-1.15-1.68-1.68s-.56-1.61-.56-2.51V23c.49-.56.86-1,1.2-1.34a1.44,1.44,0,0,0,.74-.08,3.45,3.45,0,0,1,2.77-.15,9.2,9.2,0,0,1,4.3,2.51c.74.9,1.61,1.64,2.43,2.47.3.3.63.6,1.05,1,.67-1.57,1.38-3,1.94-4.49s1.68-2.88,1.76-4.49a48.46,48.46,0,0,0-6.58-2.8,33.38,33.38,0,0,0-6.62-1.49,4.31,4.31,0,0,0-2.6.33,9.41,9.41,0,0,0-5.13,1.43,11.39,11.39,0,0,0-4.86,4.83,6.27,6.27,0,0,0-.83,3.44c-1,1.57.23,3.14,0,4.71a16.21,16.21,0,0,0,3.67,6.43,18.68,18.68,0,0,0,2.43,2.1,31,31,0,0,0,3.89,2.65,19.49,19.49,0,0,1,4.22,3.11,7.72,7.72,0,0,1,2.66,6.66c-.23.41-.37.67-.52,1a5.68,5.68,0,0,1-3.63,2.8,4.62,4.62,0,0,1-3,0,16.31,16.31,0,0,1-2.92-1.31,26.11,26.11,0,0,1-3.89-4.9c-.67.48-.71,1.31-1,2-1.08,2.28-2.2,4.56-3.34,6.84.49.34.9.64,1.31.9,1.53.93,2.88,2.09,4.64,2.58s3.66,1.39,5.72,1.16c.19,0,.52,0,.64.07a1.48,1.48,0,0,0,1.75.23c1.12-.56,2.28-.07,3.4-.6.87-.41,2.66-1,3.52-1.48a19.17,19.17,0,0,0,4.11-3.44,11,11,0,0,0,3.26-7c0-.07.22-.19.33-.26,0-1.61,0-3.22.12-4.94C373.27,43.33,373.05,43.22,373.05,43.15Z"/><path class="cls-1" d="M126.45,60.05H115.53c-1.54-1.27-2.1-3-2.59-4.94a27.81,27.81,0,0,1-.33-3c-.67-4.09-.22-8.18-.3-12.31s0-8.3,0-12.45a12.31,12.31,0,0,0-.37-2.17c-.67-.6-1.39-1.23-2.06-1.79-1.27.07-2.47-.19-3.59.37-.37.19-.9.23-1.16.49-1.31,1.34-2.92,2.46-3.52,4.41,0,.09-.14.15-.25.21V51.84c.56.07.3.52.34.79a10.88,10.88,0,0,0,1.78,5.29,19.18,19.18,0,0,1,1,1.94l-.19.19a.26.26,0,0,1-.15.07H93.5a2.34,2.34,0,0,0-.41-.74,7,7,0,0,1-1.8-3.74,30,30,0,0,1-.71-7.14q.06-9.76,0-19.53a10.21,10.21,0,0,0-.37-2.8A4.58,4.58,0,0,0,88.45,24a2.35,2.35,0,0,0-1.86-.49c-.56.08-1.16,0-1.68.08-2.51.78-4,2.6-5,5.16V52c.49,2.2.71,4.48,1.91,6.46.22.45.42.92.6,1.39a2.48,2.48,0,0,0-.19.26.17.17,0,0,1-.15.07h-10A9.53,9.53,0,0,1,69.41,55c-.3-1.31-.07-2.62-.33-3.82-.53-2.32-.27-4.63-.27-7,0-8.94,0-17.84,0-26.78V15.77l.48-.49H79.47v3.07c.83-.6,1.49-1.12,2.17-1.65a10.23,10.23,0,0,1,5.65-2.21c.6-.07,1.11-.45,1.76-.33,2.2.41,4.49.45,6.58,1.68a12.81,12.81,0,0,1,3.55,3.21c.26.34.56.68.83,1,.85-.86,1.6-1.72,2.5-2.47a12.51,12.51,0,0,1,5.24-2.77,7.53,7.53,0,0,0,1.9-.37,3,3,0,0,1,1.95-.27,18.33,18.33,0,0,1,4.9,1.05,7.48,7.48,0,0,1,2.17,1.38,12.76,12.76,0,0,1,2.54,2.92,17.16,17.16,0,0,1,1.83,5.8c.52,3.63.19,7.29.26,10.92s0,7.25,0,10.88c0,1.2,0,2.44,0,3.63a14.52,14.52,0,0,0,1.42,6A35.59,35.59,0,0,0,126.45,60.05Z"/><path class="cls-1" d="M213.51,60.05H195c-.75-.74-1.61-1.53-2.4-2.39A25.84,25.84,0,0,1,189.3,53c-1.05-1.8-2.21-3.59-3.3-5.39-.67-1.11-1.23-2.23-1.85-3.36a25.65,25.65,0,0,0-3.26-4.86,9.08,9.08,0,0,0-3,6.92c0,.86,0,1.72,0,2.58a18.81,18.81,0,0,0,.27,3.51,21.16,21.16,0,0,0,.78,3.35c.42,1,.9,2.05,1.39,3.06.18.42.41.82.67,1.31H170.09a12.67,12.67,0,0,1-2.47-4.93,11,11,0,0,1-.37-3.48c0-14.29,0-28.58,0-42.86a4.32,4.32,0,0,0-.3-1.95c-.26-.56.22-1.34-.37-1.9a3.49,3.49,0,0,0-1.91-2.81A9.77,9.77,0,0,1,162.81.34L162.48,0h12.45V.34h0a3.18,3.18,0,0,1,1.57,1.79c.26.75.68,1.39.9,2.17s0,1.84.64,2.61h0l0,22.77c0,.11.07.19.15.37,3.1-4.26,7.1-7.67,10.73-11.37,1.2-1.19,2.54-2.23,3.89-3.44h13c-2.32,2.06-4,4.38-6.39,6a7.22,7.22,0,0,0-.75.71c-2,2-4,4-6,6-1.86,1.79-3.85,3.55-5.79,5.31,1.94,1.23,3.92,2.23,5,4.3,2.43,2.43,3.78,5.61,5.76,8.34s3.56,5.35,5.39,7.93a18.2,18.2,0,0,0,2.54,2.58,2.46,2.46,0,0,0,1,.56,35.17,35.17,0,0,1,4,1.65A22.61,22.61,0,0,1,213.51,60.05Z"/><path class="cls-1" d="M343.53,59.83s0,.11-.07.14-.07.12-.11.12H332.63a6.61,6.61,0,0,1-1.95-3.56l-1.08,1.09a11.59,11.59,0,0,1-5.39,2.84,10.62,10.62,0,0,1-1.76.3,15.41,15.41,0,0,1-1.76.3,4.31,4.31,0,0,1-2.13-.3c-.64-.3-1.42.19-2.13-.3a8.81,8.81,0,0,0-1.83-.52,18,18,0,0,1-1.86-.94c-1.12-.63-4-3.51-4.38-4.63-.37-1.32-1.31-2.43-1.11-3.86-.6-1.11-.34-2.32-.34-3.48V15.13h10.36c.11.08.41.23.41.3,0,.45,0,.94,0,1.39V43.67a29.15,29.15,0,0,1,0,3.1c-.15,1,.41,1.95.37,3h0a1.35,1.35,0,0,1,.58.45c1,2,2.84,2.43,4.75,2.58a5.79,5.79,0,0,0,3.14-1.12,8.58,8.58,0,0,0,3.18-4.52,5.39,5.39,0,0,0,0-1.39V15.13h10.37c.11.08.4.26.4.34,0,.52,0,1,0,1.53V52.52c.57.52.08,1.41.68,1.94a12.26,12.26,0,0,0,2.35,5.08C343.53,59.6,343.51,59.75,343.53,59.83Z"/><path class="cls-1" d="M160.37,51.6c-.08-4.49,0-9,0-13.47s.41-8.9-.3-13.35a11.51,11.51,0,0,0-.9-3.44c-2-4.3-4.78-5.76-9.13-6.92-1.42.26-2.8-.26-4.18-.37a26.67,26.67,0,0,0-3.14.37,15.65,15.65,0,0,0-4.57,1.09,19.39,19.39,0,0,0-3.44,1.72,13,13,0,0,0-3.44,2.69c1.27,2.88,2.51,5.76,3.74,8.68a18,18,0,0,0,2.17-2.21,15.76,15.76,0,0,1,4-3.72,6.51,6.51,0,0,1,4.46-1.34h.86a6.63,6.63,0,0,1,2.77,2.13,8.14,8.14,0,0,1,.45,1.53,4.93,4.93,0,0,1-2.21,4.56,33.63,33.63,0,0,1-5.23,3.18,61,61,0,0,0-9.31,5.5,12,12,0,0,0-4,4.9c-1.35,3.18-1.69,4.6-1,8.3a9.4,9.4,0,0,0,1.8,4.46,18.94,18.94,0,0,0,3.1,3.1,10.67,10.67,0,0,0,3,1.39c1.16.37,2.36.48,3.52.74.74.18,1.38-.34,2.09-.37a11.41,11.41,0,0,0,4.64-1.31,17.68,17.68,0,0,0,4.46-2.58,13.85,13.85,0,0,0,.67,1.76,14.45,14.45,0,0,0,1,1.42h11.26a15.57,15.57,0,0,0-.94-1.76A12.12,12.12,0,0,1,160.37,51.6Zm-11-14c0,3.4,0,6.77,0,10.17a3.51,3.51,0,0,1-.93,2.39,10.47,10.47,0,0,1-2.55,2.55,5.25,5.25,0,0,1-2.43.82H141.4l-2.05-1.86c-.83-1.53-.6-2.84-.68-4.11a6.53,6.53,0,0,1,1.91-4.71,19.3,19.3,0,0,1,3.48-2.81c1.27-.93,2.6-1.86,3.85-2.8.41-.3.9-.6,1.46-1Z"/><path class="cls-1" d="M237,22.54a9.58,9.58,0,0,0-5.12-6.32,18,18,0,0,0-4.22-1.46c-1.24-.34-2.51-.18-3.74-.52a5.47,5.47,0,0,0-3.82.26,11.39,11.39,0,0,0-4.83,1.31,14.31,14.31,0,0,0-4.15,2.84A24,24,0,0,0,208,22a30,30,0,0,0-3,5.12,14.08,14.08,0,0,0-.71,2.47c-.22.83-.52,1.53-.67,2.32a9.15,9.15,0,0,0-.34,2.6,15.17,15.17,0,0,1-.37,2.62,37.33,37.33,0,0,0,.45,5.39,22.68,22.68,0,0,0,1.31,5.12,21,21,0,0,0,2.23,4.75,19.45,19.45,0,0,0,4.56,5,12.73,12.73,0,0,0,3.14,1.95c1.31.44,2.55,1.38,4,1.11.6.68,1.39.23,2.1.34s1.38.26,2.09.34c1.27.11,2.51-.6,3.82-.34.63-.71,1.68,0,2.31-.68a14.24,14.24,0,0,0,4.72-1.94A8.69,8.69,0,0,0,236.5,56c-1.32-2.84-2.66-5.76-4-8.52a9.24,9.24,0,0,0-1.46,1.72,11.64,11.64,0,0,1-3.55,3.47,7.7,7.7,0,0,1-3.25,1.28,8.7,8.7,0,0,1-4.68-.87A6.31,6.31,0,0,1,216.71,50a5.69,5.69,0,0,1-.93-3.93,11.53,11.53,0,0,1,1.83-1.8c2.21-1.42,4.49-2.72,6.77-4,1.57-.9,3.25-1.57,4.83-2.55s3.29-1.68,4.6-3.06a14.78,14.78,0,0,0,2.28-2.85,6.64,6.64,0,0,0,1-3.55C238.12,26.31,237.41,24.33,237,22.54Zm-12.86,8.68c-1.19.85-2.32,1.83-3.59,2.6a39.9,39.9,0,0,1-3.63,2.46c-.63.31-.93,1.12-1.83,1.49a19.44,19.44,0,0,1,.6-6.44,27.31,27.31,0,0,1,2.1-6.4A9.59,9.59,0,0,1,220.17,22a2.19,2.19,0,0,1,1.65-.6,24.71,24.71,0,0,0,2.73.22l2.16,2.17a5.16,5.16,0,0,1,.38,1.42,7,7,0,0,1-3,6Z"/><path class="cls-1" d="M300,49.91c0-4.78,0-9.53,0-14.32s.08-9.46,0-14.18.34-9.49-.29-14.21a20.82,20.82,0,0,0-1-4.26,4.22,4.22,0,0,0-1.79-2.6V0H285.5l.34.34c.19.33.3.71.52,1,2.21,3.26,2.6,4.79,2.6,7.9.12,13.5.08,27,0,40.43a25.25,25.25,0,0,0,.64,5.74,8,8,0,0,0,1.95,4,3.36,3.36,0,0,1,.3.6h11c-.22-.53-.37-.9-.56-1.28A18.23,18.23,0,0,1,300,49.91Z"/><path class="cls-2" d="M40.17,15.17c3.62,0,7.18,0,10.73,0,1.2,0,2.21.22,2.66,1.8V30.62c-4.46,1-8.94,1.64-13.38,2.87Z"/><path class="cls-2" d="M21.13,39.37c-1.35.45-2.73.9-4.09,1.38-1.84.67-3.72,1.35-5.54,2.06-1.19.45-2.32,1-3.51,1.53l-.71.3v-26a3.31,3.31,0,0,1,.18-1.46c.68-1.61,1.09-2,2.77-2h10.9c.49,0,.34.37.34.6v7.4c0,5,0,10.14,0,15.19C21.43,38.73,21.8,39.25,21.13,39.37Z"/><path class="cls-2" d="M37.54,15.17V34.39c-1.64.42-3.36.68-5,1.24-2.77.93-5.65,1.57-8.34,2.65,0,0-.07-.07-.11-.11s0-.11,0-.19c-.6-.07-.34-.52-.34-.78,0-2.92,0-5.87,0-8.79V16c0-.29-.26-.74.34-.82Z"/></g></g></svg>