<svg xmlns="http://www.w3.org/2000/svg" viewBox="0 0 122.01 34.76"><defs><style>.cls-1{fill:#5da3d3;}.cls-2{fill:#107ec2;}.cls-3{fill:#60bbea;}.cls-4{fill:#60cbf3;}.cls-5{fill:#22a2dc;}.cls-6{fill:#0d68b1;}.cls-7{fill:#2192d0;}.cls-8{fill:#b9e3f9;}.cls-9{fill:#28b4e9;}</style></defs><g id="Layer_2" data-name="Layer 2"><g id="Layer_2-2" data-name="Layer 2"><path class="cls-1" d="M18.15,16.13,18,16.08,18,16,18,16a17.21,17.21,0,0,1,1.09-2.24l.16.09a19.57,19.57,0,0,0-.94,1.89l1-.94.13.14Z"/><path class="cls-1" d="M17.75,18.5a3,3,0,0,1,.43-1.8,3.72,3.72,0,0,1,1.07-1l.23-.17.12.15-.24.17a3.63,3.63,0,0,0-1,1,3,3,0,0,0-.41,1.69Z"/><path class="cls-2" d="M17.49,15.24l-.19,0a4,4,0,0,0,.1-.79c0-.12,0-.23,0-.34a2.82,2.82,0,0,0,0-.4c0-.69,0-1.39.06-2.07a5,5,0,0,1,.51-2,5.42,5.42,0,0,0-2.49,2.18l-.16-.1a5.62,5.62,0,0,1,2.75-2.33.14.14,0,0,1,.11,0l0,0,0,.05a.16.16,0,0,1,0,.1,4.65,4.65,0,0,0-.57,2.1c-.05.67-.07,1.37-.06,2.06a3.1,3.1,0,0,1,0,.42c0,.1,0,.21,0,.32A4.26,4.26,0,0,1,17.49,15.24Zm.69-5.74Z"/><path class="cls-1" d="M22.51,22.54a11.92,11.92,0,0,0-2-1.36l-.6-.36a4.76,4.76,0,0,1-2-1.8l-.16-.34L18,18.6c.06.12.11.23.17.34A4.5,4.5,0,0,0,20,20.66l.6.36a12.09,12.09,0,0,1,2,1.38Z"/><path class="cls-2" d="M14.86,17.41a2.72,2.72,0,0,1-.46-.07l0-.19a1.5,1.5,0,0,0,.46.06,2.56,2.56,0,0,0,1.74-.64l.18-.18.13.13-.16.18a2.72,2.72,0,0,1-1.87.7Z"/><path class="cls-2" d="M14.25,17.92h-.06l.06-.18s0,0,0,0a0,0,0,0,0,0,0,.1.1,0,0,0,0-.05l.18-.08a.2.2,0,0,1,0,.21A.12.12,0,0,1,14.25,17.92Z"/><path class="cls-1" d="M16.51,18.74a2.11,2.11,0,0,0-1.74-.33,5.24,5.24,0,0,0-.8.25l-.07-.18a7.69,7.69,0,0,1,.82-.26,2.32,2.32,0,0,1,1.9.36Z"/><path class="cls-1" d="M17.93,23.25a.47.47,0,0,1,0-.16,19.13,19.13,0,0,1-.27-2.15l.19,0c.05.72.14,1.44.26,2.14a.93.93,0,0,0,0,.13Z"/><path class="cls-1" d="M18.58,23.31a17,17,0,0,0-.41-2.37l.18,0a15.71,15.71,0,0,1,.42,2.39Z"/><path class="cls-1" d="M20.93,27.77l-.19,0a8.22,8.22,0,0,0-.22-3.17A13,13,0,0,0,18,19.87l.15-.12a13.38,13.38,0,0,1,2.55,4.78A8.6,8.6,0,0,1,20.93,27.77Z"/><path class="cls-1" d="M14.61,25.27c0-.24,0-.49,0-.73a8.63,8.63,0,0,1,.8-3.24,8.67,8.67,0,0,1-3.23.76v-.19a8.49,8.49,0,0,0,3.31-.81.11.11,0,0,1,.11,0,.12.12,0,0,1,.06.17,8.41,8.41,0,0,0-.85,3.32c0,.24,0,.48,0,.71Zm.87-4.13Z"/><polygon class="cls-3" points="18.8 24.03 18.78 24.03 18.87 24.02 18.8 24.03"/><path class="cls-4" d="M16.38,34.76l-.06,0a.13.13,0,0,1-.07-.08.48.48,0,0,1,0-.27.44.44,0,0,0,0-.1,11,11,0,0,0,0-1.46,15.71,15.71,0,0,0-.56-2.76c-.32-1.07-.57-1.94-.72-2.59a10.2,10.2,0,0,1-.33-3,8.57,8.57,0,0,1,.85-3.29,8,8,0,0,1-3.78.79,5.43,5.43,0,0,1-2.93-1.13l0,0v-.06a.12.12,0,0,1,0-.09l0,0h.06a4.51,4.51,0,0,0,1.56-.34,14.5,14.5,0,0,0,1.76-.89,11.56,11.56,0,0,1,2.35-1.08,2.29,2.29,0,0,1,2.58.87,2.79,2.79,0,0,1,.56,1.42l.09.75c.05.49.1,1,.17,1.45a10.23,10.23,0,0,0,.45,1.66c.06.21.13.43.2.66a1.63,1.63,0,0,1,.07.26,5.55,5.55,0,0,1,0-.73.06.06,0,0,0,0-.06l0-.56h.19l0,.56a.27.27,0,0,1,0,.09,5.28,5.28,0,0,0,0,.81v.05l-.06.57,0,.05h-.06a.11.11,0,0,1-.11-.11,6.81,6.81,0,0,0-.18-.87q-.11-.35-.21-.66a11.36,11.36,0,0,1-.44-1.69c-.08-.49-.13-1-.18-1.46q0-.36-.09-.75A2.58,2.58,0,0,0,17,19.32a2.07,2.07,0,0,0-2.37-.81,11.28,11.28,0,0,0-2.32,1.07,18.33,18.33,0,0,1-1.77.9,4.87,4.87,0,0,1-1.44.34,5.26,5.26,0,0,0,2.67,1,8,8,0,0,0,3.86-.85.12.12,0,0,1,.17.06.17.17,0,0,1,0,.1,8.29,8.29,0,0,0-.92,3.39,10.22,10.22,0,0,0,.32,3c.16.64.4,1.51.72,2.58a15,15,0,0,1,.57,2.79,11.5,11.5,0,0,1,0,1.49.58.58,0,0,1,0,.14s0,0,0,.06a14.59,14.59,0,0,0,3.13-3.63,8.1,8.1,0,0,0,1-5.85,12,12,0,0,0-2.31-4.71,18.11,18.11,0,0,1,.57,2.88,7.87,7.87,0,0,1,0,.84h-.19a7.5,7.5,0,0,0,0-.82A18.75,18.75,0,0,0,18,20a.11.11,0,0,1,0-.13.11.11,0,0,1,.16,0A12.49,12.49,0,0,1,20.75,25a8.26,8.26,0,0,1-1,6,14.52,14.52,0,0,1-3.27,3.75l0,0h-.06Zm.05-.15Zm-.73-13.5ZM18,20h0Zm.13-.07Z"/><path class="cls-5" d="M18.86,24.08l-.12,0h-.06v0s0-.06,0-.08h.19v0A.27.27,0,0,1,18.86,24.08Z"/><path class="cls-2" d="M13.11,24.91a1.22,1.22,0,1,1,1.22-1.22A1.22,1.22,0,0,1,13.11,24.91Zm0-2.24a1,1,0,1,0,1,1A1,1,0,0,0,13.11,22.67Z"/><path class="cls-6" d="M19.19,13.76A17.24,17.24,0,0,0,18.1,16s0,0,0,0h0l1.24-1.2.17.76a4.94,4.94,0,0,0-1.28,1.17,3,3,0,0,0-.42,1.75c-.18-1.08-.33-2.17-.45-3.28a4.12,4.12,0,0,0,.11-.81c0-.26,0-.52,0-.74,0-.69,0-1.38.05-2.07a4.91,4.91,0,0,1,.59-2.15,0,0,0,0,0,0,0h0a5.49,5.49,0,0,0-2.71,2.29,23.47,23.47,0,0,0-1-7.18,29.78,29.78,0,0,0-1.52-4s0,0,0,0h0L14,.4a.12.12,0,0,1,.1,0L15.27,2h0L16.35.52h0a75,75,0,0,1,.82,8.8h0A74.11,74.11,0,0,1,18.05.52a0,0,0,0,1,0,0h0L19.13,2s0,0,0,0h0L20.4.42a.09.09,0,0,1,.07,0l1,.11s0,0,0,0h0a29,29,0,0,0-2,5.64A21.1,21.1,0,0,0,19.19,13.76Zm-2-4.38v.09a0,0,0,0,0,0,0v0s0,0,0-.09,0,0,0,0Z"/><path class="cls-7" d="M15.44,11.7a5.49,5.49,0,0,1,2.71-2.29s0,0,0,0,0,0,0,0a4.91,4.91,0,0,0-.59,2.15c0,.69-.06,1.38-.05,2.07,0,.22,0,.48,0,.74a4.12,4.12,0,0,1-.11.81,3.39,3.39,0,0,1-.5,1.23l-.17.19a2.61,2.61,0,0,1-1.8.67,1.6,1.6,0,0,1-.5-.07c-.23-.09-.48-.16-.7-.26l-1.45-.63a12.45,12.45,0,0,0-2.53-.72,7.91,7.91,0,0,1-1.1-.34s0,0,0,0h0a15.79,15.79,0,0,0,5.59,2.44s0,0,0-.05,0,.14,0,.12l-1.17.11a12.12,12.12,0,0,1-3.24-.14,8.21,8.21,0,0,1-5.5-3.43A13.37,13.37,0,0,1,2.23,8.92s0,0,0,0h0a10.09,10.09,0,0,0,3.83,1.76c1.1.27,2,.51,2.77.71a9.11,9.11,0,0,1,5.59,3.8h0A10.24,10.24,0,0,1,14.66,14,9.66,9.66,0,0,1,15.44,11.7Z"/><path class="cls-8" d="M22.57,22.47A16.06,16.06,0,0,0,20,20.74,4.61,4.61,0,0,1,18,19c-.05-.11-.11-.22-.16-.34l0-.14a3,3,0,0,1,.42-1.75,4.94,4.94,0,0,1,1.28-1.17,10.9,10.9,0,0,0,2.13-1.77,12.09,12.09,0,0,1,1.46-1.43,0,0,0,0,0,0,0h0a14,14,0,0,0-3.75,2.46L18.13,16h0a0,0,0,0,1,0,0,17.24,17.24,0,0,1,1.09-2.24,12.38,12.38,0,0,1,1.35-1.83,8.19,8.19,0,0,1,6.1-2.82,13.5,13.5,0,0,1,5,.86l.26.09v0h0A11.52,11.52,0,0,0,27.93,13a24,24,0,0,1-2.82,2.66,8.56,8.56,0,0,1-4.8,1.76,0,0,0,0,0,0,0h0c2.05,1.46,3.55,3.34,3.18,6l0,0h0A3.72,3.72,0,0,0,22.57,22.47Z"/><circle class="cls-6" cx="13.02" cy="11.27" r="1.11"/><path class="cls-6" d="M16.89,16.45l-.33,2.21a2.16,2.16,0,0,0-1.81-.34,6.27,6.27,0,0,0-.82.25l.29-.75c.07,0,.09,0,0-.12l.16-.46a1.6,1.6,0,0,0,.5.07,2.61,2.61,0,0,0,1.8-.67Z"/><circle class="cls-8" cx="24.48" cy="18.67" r="1.11"/><path class="cls-9" d="M16.56,18.66l.35.33a2.34,2.34,0,0,1,.68,1.2c0,.25.09.5.12.74A21.57,21.57,0,0,0,18,23.07a.83.83,0,0,0,0,.15v.1c.22.75.5,1.5.66,2.27a0,0,0,0,0,0,0h0a13.47,13.47,0,0,0,0-2.29,15.8,15.8,0,0,0-.42-2.38L18,19.87a0,0,0,0,1,0,0s.05,0,.11,0a13.32,13.32,0,0,1,2.52,4.74,8.46,8.46,0,0,1,.23,3.21l-.15.68a11.91,11.91,0,0,1-4.32,6.31.06.06,0,0,1-.1-.06,8.67,8.67,0,0,0,.09-1,11.52,11.52,0,0,0-.4-2.9c-.2-.73-.42-1.52-.68-2.38a14.68,14.68,0,0,1-.57-3.15,5.77,5.77,0,0,1,0-.72,8.45,8.45,0,0,1,.87-3.36,0,0,0,0,0,0-.05h0a8.52,8.52,0,0,1-3.34.83,5.46,5.46,0,0,1-3.39-1.19.06.06,0,0,1,0-.08.06.06,0,0,1,.05,0A5.48,5.48,0,0,0,11.28,20c.66-.34,1.69-.95,2.59-1.36l.06,0h0a6.27,6.27,0,0,1,.82-.25A2.16,2.16,0,0,1,16.56,18.66ZM18.78,24h0l0,.57v.07a5.5,5.5,0,0,0,0,.83v0l-.05.54h0a0,0,0,0,1,0,0,5.74,5.74,0,0,0-.18-.89,17.21,17.21,0,0,1-.65-2.33c-.11-.73-.17-1.39-.26-2.21a2.69,2.69,0,0,0-.55-1.37,2.16,2.16,0,0,0-2.47-.84,44.93,44.93,0,0,0-4.1,2,4.55,4.55,0,0,1-1.6.34s0,0,0,0v0a5.35,5.35,0,0,0,2.87,1.11A8.18,8.18,0,0,0,15.66,21s0,0,0,0v0a8.56,8.56,0,0,0-.93,3.42,10.37,10.37,0,0,0,.33,3c.15.63.39,1.5.72,2.59a16.61,16.61,0,0,1,.57,2.77,14.65,14.65,0,0,1,0,1.48c0,.1-.07.21,0,.33a.05.05,0,0,0,.05,0h0a14.44,14.44,0,0,0,3.25-3.73,8.13,8.13,0,0,0,1-5.92,12.42,12.42,0,0,0-2.55-5s0,0,0,0,0,0,0,0a18,18,0,0,1,.66,3.22A7.7,7.7,0,0,1,18.78,24Z"/><path class="cls-9" d="M18.78,24a.29.29,0,0,0,0-.13s0,.08,0,.12a7.7,7.7,0,0,0-.05-.83A18,18,0,0,0,18.07,20a0,0,0,0,1,0,0h0a12.42,12.42,0,0,1,2.55,5,8.13,8.13,0,0,1-1,5.92,14.44,14.44,0,0,1-3.25,3.73h0v0c0-.12,0-.23,0-.33a14.65,14.65,0,0,0,0-1.48,16.61,16.61,0,0,0-.57-2.77c-.33-1.09-.57-2-.72-2.59a10.37,10.37,0,0,1-.33-3,8.56,8.56,0,0,1,.93-3.42s0,0,0,0h0a8.18,8.18,0,0,1-3.91.87,5.35,5.35,0,0,1-2.87-1.11s0,0,0,0h0a4.55,4.55,0,0,0,1.6-.34,44.93,44.93,0,0,1,4.1-2,2.16,2.16,0,0,1,2.47.84,2.69,2.69,0,0,1,.55,1.37c.09.82.15,1.48.26,2.21a17.21,17.21,0,0,0,.65,2.33,5.74,5.74,0,0,1,.18.89,0,0,0,0,0,0,0h0l.05-.54v0a5.5,5.5,0,0,1,0-.83v-.07Z"/><path class="cls-6" d="M22.57,22.47A42.36,42.36,0,0,0,34.43,33.75s0,0,0,0h0l-4.93-.54a.12.12,0,0,0-.08,0l-.94,1.2a.08.08,0,0,1-.07,0l-3.12-.1a.07.07,0,0,1-.06,0,32.62,32.62,0,0,1-4.38-6.62,8.46,8.46,0,0,0-.23-3.21,13.32,13.32,0,0,0-2.52-4.74l-.22-1.17c.05.12.11.23.16.34A4.61,4.61,0,0,0,20,20.74,16.06,16.06,0,0,1,22.57,22.47Z"/><path class="cls-6" d="M18.26,20.92a15.8,15.8,0,0,1,.42,2.38L18,23.22a.83.83,0,0,1,0-.15,21.57,21.57,0,0,1-.27-2.14Z"/><path class="cls-6" d="M14.71,25.27l-.36.84A32.43,32.43,0,0,1,9.2,34.4l0,0L6,34.51a.09.09,0,0,1-.06,0L5,33.28s-.06,0-.09,0L0,33.78a0,0,0,0,1,0,0s0,0,0,0a55.91,55.91,0,0,0,6.27-4.87,33.61,33.61,0,0,0,5.9-6.9,8.52,8.52,0,0,0,3.34-.83,0,0,0,0,1,.05,0v0a8.45,8.45,0,0,0-.87,3.36A5.77,5.77,0,0,0,14.71,25.27Zm-.48-1.58a1.12,1.12,0,1,0-1.12,1.12A1.12,1.12,0,0,0,14.23,23.69Z"/><circle class="cls-7" cx="13.11" cy="23.69" r="1.12"/><path class="cls-7" d="M18.78,24h0s0-.08,0-.12A.29.29,0,0,1,18.78,24Z"/><path class="cls-6" d="M60.25.81c-.1,0-.2,0-.3,0a.05.05,0,0,1,0-.05.79.79,0,0,1,.14-.54c.1-.14.3-.27.46-.13a.11.11,0,0,1,0,.1l0,.15a0,0,0,0,1-.06,0h0c-.11-.09-.23-.07-.35.06a.06.06,0,0,0,0,.08h0a1.12,1.12,0,0,0,.73,0s0,0,0,0h0l-.07.2h0a1.31,1.31,0,0,0-.64.46s0,0,0,0,0,0,0,0a.75.75,0,0,1,.21-.32,0,0,0,0,0,0,0Z"/><path class="cls-6" d="M118.82.84l0,.15a.12.12,0,0,1,0,.05.87.87,0,0,0-.3.13l-.38.3s0,0,0,0,0,0,0,0l.22-.29s0,0,0,0H118a.12.12,0,0,1-.11-.11.8.8,0,0,1,.25-.66.4.4,0,0,1,.31-.1.15.15,0,0,1,.11.13.41.41,0,0,1-.06.23s0,0,0,0h0c-.15-.13-.29-.1-.41.08,0,0,0,0,0,.05h0a1.27,1.27,0,0,0,.77,0s0,0,0,0Z"/><path class="cls-6" d="M54.33,1s0,0,0,0h0c.13,1,.22,2,.26,3a3.42,3.42,0,0,1-.29,1.76h0L54,2.19a.25.25,0,0,1,0-.08Z"/><path class="cls-6" d="M121.72,1s0,0,0,0a0,0,0,0,1,0,0c.13,1,.21,2,.26,3a3.32,3.32,0,0,1-.3,1.76h0l-.31-3.55a.28.28,0,0,1,0-.09Z"/><path class="cls-6" d="M94.3,1s0,0,0,0h0c.12,1,.21,2,.25,3a3.46,3.46,0,0,1-.29,1.77h0L94,2.2a.22.22,0,0,1,0-.08Z"/><path class="cls-6" d="M60.36,1s0,0,0,0h0c.13,1,.21,2,.26,3a3.4,3.4,0,0,1-.3,1.76h0L60,2.21s0-.06,0-.08Z"/><path class="cls-6" d="M85.49,1s0,0,0,0,0,0,0,0c.13,1,.22,2,.26,3a3.4,3.4,0,0,1-.29,1.76h0l-.31-3.53a.19.19,0,0,1,0-.08Z"/><path class="cls-6" d="M114.67,1.8l-.55.78s0,0,0,0a8.09,8.09,0,0,0-1.41.53,2.68,2.68,0,0,0-.94.61,0,0,0,0,0,0,.07h0a3.58,3.58,0,0,0,.76.1c1,0,1.63.06,1.77,0l1.14-.1a4.85,4.85,0,0,1,.6,0l.61,0a2.13,2.13,0,0,1,.75.38,1.15,1.15,0,0,1,.36.78.13.13,0,0,1,0,.06l-.31.65a.05.05,0,0,1-.05,0h-6.76a1.86,1.86,0,0,1-.68-.08.92.92,0,0,1-.51-.69,9.67,9.67,0,0,1-.15-1.11c-.08-1-.13-1.6-.15-1.95a.13.13,0,0,1,0-.06l.36-.73a0,0,0,0,1,0,0,0,0,0,0,1,0,0c.07,1.24.15,2.32.24,3.23a.7.7,0,0,0,.35.6,1.63,1.63,0,0,0,.71.07H117a0,0,0,0,0,0,0h0a.85.85,0,0,0-.86-.49l-1.68.07a20.74,20.74,0,0,1-2.37,0c-.25,0-1.15-.05-1-.48a.65.65,0,0,1,.11-.19,4.08,4.08,0,0,1,1-1,6.84,6.84,0,0,1,2.46-1.1h0Z"/><path class="cls-6" d="M68.16,1.15s0,0,0,0h0c0,1,.12,1.9.18,2.85,0,.6.05,1,.69,1h1.45a0,0,0,0,0,0,0h0a.58.58,0,0,0-.71-.33s0,0,0,0v0L70.05,4l0,0a1.22,1.22,0,0,1,1.09-.17c.29.09.67.39.58.73a1.76,1.76,0,0,1-.18.47s0,0,0,0h0l1.66,0a0,0,0,0,0,0,0h0Q73.06,3,73,2.65a.84.84,0,0,0-.09-.34c-.14-.21-.24-.31-.17-.53a2.2,2.2,0,0,1,.34-.64s0,0,0,0,0,0,0,0a.55.55,0,0,0,.1.39,3.67,3.67,0,0,0,.53.59,0,0,0,0,1,0,.06l-.26.41a.08.08,0,0,0,0,.08c0,.34,0,1,.09,1.93a2.34,2.34,0,0,1-.17,1,.18.18,0,0,1-.16.1H71.46a.6.6,0,0,1-.53-.28s0,0,0,0h0a.72.72,0,0,1-.62.28c-.71,0-1.16,0-1.37,0a.84.84,0,0,1-.75-.46s0,0,0,0h0a.52.52,0,0,1-.53.49c-.33,0-.64,0-.91,0,0,0,0,0,0,0a2.85,2.85,0,0,1-.27.87,1.07,1.07,0,0,1-1,.68A3.58,3.58,0,0,1,64,6.85v0h0l.6.06a1.32,1.32,0,0,0,.58,0A1.37,1.37,0,0,0,66,6.21a2.34,2.34,0,0,0,.16-.41.05.05,0,0,0,0,0h0c-.41,0-1.13.08-1.22-.49A1.85,1.85,0,0,1,65,4.61a2.39,2.39,0,0,1,.46-.77c.24-.26.53-.14.72.11A2.24,2.24,0,0,1,66.63,5s0,0,0,0c.36,0,.65,0,.86,0a.64.64,0,0,0,.34-.09.16.16,0,0,0,.06-.08,1.13,1.13,0,0,0,0-.35c-.07-.76-.15-1.59-.22-2.46,0,0,0,0,0-.06ZM66.05,5a.79.79,0,0,0-.34-.48c-.18-.06-.3.11-.35.26s0,.06,0,.08A1.19,1.19,0,0,0,66,5h0Z"/><path class="cls-6" d="M88.9,4.59c.06-.44.24-.95.76-.95a1,1,0,0,1,.42.11,3.51,3.51,0,0,0,1.9.43.06.06,0,0,1,.06.06s0,0,0,0l-.23.43a.11.11,0,0,1-.12.06,2.62,2.62,0,0,0-.37,0,1.56,1.56,0,0,0-.45.11s0,0,0,0h0a1,1,0,0,0,.48.11H93s0,0,0,0h0c-.05-.65-.11-1.41-.18-2.29a1.77,1.77,0,0,0,0-.32.3.3,0,0,0,0-.08l-.17-.26V2c-.07-.27.18-.67.36-.89,0,0,0,0,0,0a0,0,0,0,1,0,0,.57.57,0,0,0,.06.31,4.24,4.24,0,0,0,.58.69,0,0,0,0,1,0,0l-.26.41a.19.19,0,0,0,0,.08c0,1.24.07,1.92.07,2a2,2,0,0,1-.19.93.14.14,0,0,1-.14.09l-1.81,0a.6.6,0,0,1-.67-.67s0,0,0,0h0a4.81,4.81,0,0,0-.42.48.59.59,0,0,1-.45.19H88.45a2.07,2.07,0,0,1-.73-.18s0,0,0,0h0a2.29,2.29,0,0,1-.76,1.47c-.25.21-.44.12-.76,0a1.64,1.64,0,0,1-.83-.53v0h0a1.75,1.75,0,0,0,1.1.06c.37-.11.54-.39.73-.75a2.71,2.71,0,0,0,.18-.41.12.12,0,0,0,0-.14,3,3,0,0,1-.41-.51.14.14,0,0,1,0-.06,3.4,3.4,0,0,1,0-.79s0,0,0,0h0a7.76,7.76,0,0,0,.64.73,1.49,1.49,0,0,0,1.2.4h.61a1.21,1.21,0,0,0,1-.36,0,0,0,0,0,0,0h0a1.9,1.9,0,0,0-1.46,0h0Z"/><path class="cls-6" d="M119,3.34v.1a0,0,0,0,1,0,0h0l-.17-.07-.79-.5c-.08-.05-.12-.26-.12-.36,0-.31,0-.56,0-.77a.1.1,0,0,1,.1-.09h0a8.33,8.33,0,0,1,.9.66,2.47,2.47,0,0,1,.43.44A8.93,8.93,0,0,1,120,3.87h0a5,5,0,0,0,.09-1.45h0l-.09-.32a.19.19,0,0,1,0-.15,4.21,4.21,0,0,1,.42-.79,0,0,0,0,1,0,0,0,0,0,0,1,0,0c-.05.37.28.78.51,1.05a.06.06,0,0,1,0,.06c-.11.2-.24.41-.37.63,0,0,0,0-.08,0s0,0,0,0h0a4.26,4.26,0,0,1-.08.8c0,.2-.16.45-.21.62a.34.34,0,0,0,0,.1,2.81,2.81,0,0,1,.12,1.24s0,0-.06.06H118.5a0,0,0,0,1,0,0h0l.24-.66a.08.08,0,0,1,0,0,1.67,1.67,0,0,0,1-.62.06.06,0,0,0,0-.07,3.26,3.26,0,0,0-.79-1,0,0,0,0,0,0,0A0,0,0,0,0,119,3.34Zm.57,1.7H120a0,0,0,0,0,0,0h0L120,4.76s0,0,0,0h0a.9.9,0,0,1-.36.27,0,0,0,0,0,0,0Z"/><path class="cls-6" d="M83.4,2.91h0s0,0,0,0a.7.7,0,0,1,.25-.41,0,0,0,0,0,0,0h0c-.11,0-.3,0-.38-.06s0,0,0,0a.83.83,0,0,1,.42-.86c.33-.13.42.18.26.39,0,0,0,0,0,0h0a.29.29,0,0,0-.48.1,0,0,0,0,0,0,.06,1.37,1.37,0,0,0,.9,0h0l-.07.24,0,0a1.23,1.23,0,0,0-.36.16A2.15,2.15,0,0,0,83.4,2.91Z"/><path class="cls-6" d="M76.85,2a0,0,0,0,1,0,.05h0l-.35.48s0,0,0,0a1.93,1.93,0,0,1-.55-.36,0,0,0,0,0-.05,0h0l-.25.31a0,0,0,0,1-.06,0A2.3,2.3,0,0,1,75,2.16a0,0,0,0,1,0,0l.39-.5h0l.5.4S76,2,76,2h0l.29-.36a0,0,0,0,1,0,0h0A2.22,2.22,0,0,0,76.85,2Z"/><path class="cls-6" d="M97.8,2s0,0,0,.05h0l-.34.48s0,0,0,0a2,2,0,0,1-.55-.36s0,0,0,0h0l-.25.31a0,0,0,0,1-.06,0A2.3,2.3,0,0,1,96,2.16a0,0,0,0,1,0,0l.39-.5a0,0,0,0,1,0,0l.5.39s0,0,.06,0l.28-.36s0,0,0,0h0A2.22,2.22,0,0,0,97.8,2Z"/><path class="cls-6" d="M87.44,2.42s0,0,0,0h0L87,2.87s0,0-.06,0a.92.92,0,0,1-.46-.41,0,0,0,0,1,0-.05L86.93,2a0,0,0,0,1,0,0h0A2.54,2.54,0,0,0,87.44,2.42Z"/><path class="cls-6" d="M51.86,2.49a0,0,0,0,1,0,0h0l-.41.41a.07.07,0,0,1-.06,0,1,1,0,0,1-.47-.42s0,0,0,0l.42-.42h0A2.25,2.25,0,0,0,51.86,2.49Z"/><path class="cls-6" d="M62.37,7.87h0c-.07-.56-.15-1.32-.24-2.29a2,2,0,0,1,.13-1A1.2,1.2,0,0,1,63.17,4s0,0,0,0h0a.5.5,0,0,0-.81,0h0a0,0,0,0,1,0,0c0-.33.23-.88.58-1s.61.16.84.45a4.53,4.53,0,0,0,.49.54l0,0,.19.11a0,0,0,0,1,0,0l-.32.54a.05.05,0,0,1,0,0,2.46,2.46,0,0,0-1.18,0,.79.79,0,0,0-.38.23.07.07,0,0,0,0,.06c.05.43.09.87.12,1.34S62.71,7.59,62.37,7.87Z"/><path class="cls-6" d="M106.69,5s0,0,0,0h0l.15,0h1.45a0,0,0,0,0,0,0h0c-.09-.49-.51-1.31-1.12-1.15,0,0,0,0,0,0h0a.89.89,0,0,1,.23-.72c.12-.11.33,0,.46.1a2.14,2.14,0,0,1,.84,1.52,1.67,1.67,0,0,1-.22,1s0,0,0,0H107C106.56,5.76,106.72,5.22,106.69,5Z"/><path class="cls-6" d="M79.83,3.26a2.23,2.23,0,0,1,.46,2c-.13.29-.16.53-.44.53H78a1,1,0,0,1-.48-.08.65.65,0,0,1-.33-.36,1.35,1.35,0,0,0-.31-.6.12.12,0,0,0-.15,0,.78.78,0,0,0-.24.27c-.11.2-.26.48-.45.87a.92.92,0,0,1-.2.19.42.42,0,0,1-.66-.13A3,3,0,0,1,75,4.06a.24.24,0,0,1,.07-.12s0,0,0,0h0c0,.31-.07,1.77.56,1.53.17-.07.28-.39.42-.67s.74-1.15,1.11-.69a.07.07,0,0,1,0,.06,2.46,2.46,0,0,0,.3.73.27.27,0,0,0,.23.11c.63,0,1.32,0,2.08,0a0,0,0,0,0,0,0h0a1.79,1.79,0,0,0-.38-.86.11.11,0,0,1,0-.08l.29-.8s0,0,0,0Z"/><path class="cls-6" d="M84.17,3.24h0a2.48,2.48,0,0,1,.53,1.83q0,.1-.24.57a.1.1,0,0,1,0,.05.45.45,0,0,1-.23.07H82.81a2.27,2.27,0,0,1-.74-.18s0,0,0,0h0a2.32,2.32,0,0,1-.83,1.53.53.53,0,0,1-.25.08h-.07a4.38,4.38,0,0,1-.83-.34.07.07,0,0,0-.06,0l-.2.29s0,0,0,0a2,2,0,0,1-.54-.36,0,0,0,0,0,0,0h0l-.25.32a0,0,0,0,1,0,0,1.76,1.76,0,0,1-.56-.37,0,0,0,0,1,0,0l.39-.5h0l.48.38a.06.06,0,0,0,.07,0h0l.26-.33a0,0,0,0,1,.07,0l.45.32,0,0a1.61,1.61,0,0,0,.58,0A1.09,1.09,0,0,0,81.46,6a3.69,3.69,0,0,0,.26-.56.14.14,0,0,0,0-.15,3.55,3.55,0,0,1-.37-.44,1.93,1.93,0,0,1-.08-.93,0,0,0,0,1,0,0h0a5.8,5.8,0,0,0,.7.79A1.43,1.43,0,0,0,83.06,5h1.16a0,0,0,0,0,0,0h0a2.07,2.07,0,0,0-.38-.86,0,0,0,0,1,0-.06Z"/><path class="cls-6" d="M100.33,5.3a.67.67,0,0,1-.69.46h-.81a.72.72,0,0,1-.7-.39,1.89,1.89,0,0,0-.34-.66.14.14,0,0,0-.15,0,1,1,0,0,0-.25.28L97,5.84a.66.66,0,0,1-.24.23.42.42,0,0,1-.64-.19A3.13,3.13,0,0,1,96,4.21a.66.66,0,0,1,.1-.27h0c0,.34-.08,1.63.5,1.56l.06,0c.23-.15.33-.5.44-.71a1.73,1.73,0,0,1,.7-.74.3.3,0,0,1,.41.12.08.08,0,0,1,0,0,2.22,2.22,0,0,0,.27.7.35.35,0,0,0,.26.13c.3,0,.57,0,.81,0s.49,0,.59-.22a2.45,2.45,0,0,1,.34-.59.11.11,0,0,1,.13,0,.23.23,0,0,1,0,.15,1.81,1.81,0,0,0,0,.41s0,0,0,0a.65.65,0,0,0,.45.2,4.27,4.27,0,0,0,.64,0,.56.56,0,0,0,.46-.23c.34-.45.69-1,1.17-1a.26.26,0,0,1,.33.19c.17.5.25,1.1.93,1.09h.89a0,0,0,0,0,0,0h0a2,2,0,0,0-.38-.89.07.07,0,0,1,0-.06l.3-.83h0A2.61,2.61,0,0,1,106.05,5a3.21,3.21,0,0,1-.27.7.08.08,0,0,1,0,0,.42.42,0,0,1-.21.06h-.91a.93.93,0,0,1-.64-.24h0l-.22.32a.14.14,0,0,1-.16,0,1.39,1.39,0,0,1-.29-.17,9.46,9.46,0,0,1-.75-.59h0a1.24,1.24,0,0,1-.57.62l-.09,0a7.34,7.34,0,0,1-1,0,.51.51,0,0,1-.45-.43h0Zm3.2-.31a4.45,4.45,0,0,0-.16-.48.15.15,0,0,0-.18-.1.5.5,0,0,0-.22.17,0,0,0,0,0,0,0,1.9,1.9,0,0,0,.52.4,0,0,0,0,0,0,0Z"/><path class="cls-6" d="M49.61,4.19h0a2.05,2.05,0,0,0,.55.83.14.14,0,0,0,.15,0c.33-.22.72-.48,1.08-.75s1-.67,1.4-.59a1,1,0,0,1,.64.35.62.62,0,0,1,.06.67,1.64,1.64,0,0,1-1,1,3.42,3.42,0,0,1-1,.09H50.35A1.13,1.13,0,0,1,50,5.69l0,0h0c-.12.54-.21.87-.25,1a1.22,1.22,0,0,1-.3.37,2,2,0,0,1-2.26,0,1.09,1.09,0,0,1-.3-.68,2.52,2.52,0,0,1,.56-1.69s0,0,0,0,0,0,0,0a0,0,0,0,1,0,0l-.17.54s0,0,0,.08a2.38,2.38,0,0,0,0,.84.69.69,0,0,0,.4.4,2,2,0,0,0,1,.07,1.77,1.77,0,0,0,.55-.17A.7.7,0,0,0,49.61,6a.17.17,0,0,0,0-.1l-.36-.77a.13.13,0,0,1,0-.12ZM51,5.05h1.37A1.9,1.9,0,0,0,52.93,5,.1.1,0,0,0,53,4.82h0a.7.7,0,0,0-.45-.41,1.18,1.18,0,0,0-.61.08A9.54,9.54,0,0,0,51,5a0,0,0,0,0,0,0Z"/><path class="cls-6" d="M54.17,6.54s0,0,0,0h0a1.88,1.88,0,0,0,.91.11c.61-.09.81-.55,1-1a.69.69,0,0,0,.06-.24s0,0,0,0l-.41-.51a.31.31,0,0,1-.05-.1,4.14,4.14,0,0,1,0-.8,0,0,0,0,1,0,0h0a6.15,6.15,0,0,0,.68.77,1.3,1.3,0,0,0,.94.36c.37,0,.61,0,.77-.33s.33-.78.69-1,.54.19.62.51a6,6,0,0,1,.14.88v0l-.24.43-.05,0a2.19,2.19,0,0,1-.9-.49,0,0,0,0,0,0,0h0l-.08.16a.68.68,0,0,1-.72.45,2.14,2.14,0,0,1-1-.18s0,0,0,0h0a2.34,2.34,0,0,1-.74,1.47.52.52,0,0,1-.52.1A2.16,2.16,0,0,1,54.17,6.54Zm4.92-1.73c0-.21-.16-.67-.46-.35a.06.06,0,0,0,0,.08h0l.41.29h0A0,0,0,0,0,59.09,4.81Z"/><path class="cls-6" d="M90.64,6.54a0,0,0,0,1,0,0h0L90.23,7a.07.07,0,0,1-.06,0,.94.94,0,0,1-.47-.41s0,0,0,0l.41-.42s0,0,0,0h0A2.19,2.19,0,0,0,90.64,6.54Z"/><path class="cls-6" d="M101.1,6.64s0,0,0,0h0l-.34.48s0,0,0,0a2.14,2.14,0,0,1-.55-.35s0,0-.05,0h0l-.24.32a.06.06,0,0,1-.07,0,2,2,0,0,1-.55-.37s0,0,0,0l.39-.5h0l.5.39s0,0,.06,0l.29-.36h0A2.55,2.55,0,0,0,101.1,6.64Z"/><path class="cls-6" d="M106,6.64s0,0,0,0h0l-.34.48s0,0,0,0a2.48,2.48,0,0,1-.55-.36s0,0,0,0h0l-.25.32s0,0-.06,0a2,2,0,0,1-.55-.37,0,0,0,0,1,0,0l.39-.51h0l.5.39s0,0,.06,0l.29-.36h0A2.55,2.55,0,0,0,106,6.64Z"/><path class="cls-6" d="M73,10.06h0c.13,1,.22,2,.26,3a3.32,3.32,0,0,1-.3,1.76h0l-.3-3.55a.11.11,0,0,1,0-.08Z"/><path class="cls-6" d="M87.68,10.06h0c.13,1,.22,2,.26,3a3.3,3.3,0,0,1-.3,1.76h0l-.3-3.55s0,0,0-.08Z"/><path class="cls-6" d="M113.24,10.06h0c.12,1,.21,2,.25,3a3.32,3.32,0,0,1-.29,1.76h0l-.31-3.55a.22.22,0,0,1,0-.08Z"/><path class="cls-6" d="M81.91,10.18h0c0,.49.07,1.16.13,2,0,.61.09,1.06.13,1.34.07.48.4.58.82.57s.82.05,1-.23a2,2,0,0,1,.36-.59.08.08,0,0,1,.12,0l0,0a2,2,0,0,1,0,.35c0,.33.38.41.62.41h.79a0,0,0,0,0,0,0h0a3.33,3.33,0,0,1-.2-.84c0-.53-.09-.94-.13-1.23a.94.94,0,0,0,0-.16c-.08-.21-.23-.4-.09-.67a5.74,5.74,0,0,1,.35-.6s0,0,0,0a0,0,0,0,1,0,0,.66.66,0,0,0,.17.59l.32.35a0,0,0,0,1,0,.06l-.31.48a.16.16,0,0,0,0,.09,9.51,9.51,0,0,0,.18,1.48c.06.27.35.46.6.59s.22.69,0,.94a0,0,0,0,1,0,0c-.27-.21-.44-.4-.75-.38a10.57,10.57,0,0,1-1.25,0c-.32,0-.52-.14-.59-.46h0c-.21.58-.72.46-1.2.47a1.35,1.35,0,0,1-.49,0c-.61-.17-.67-.83-.73-1.39-.09-.88-.16-1.68-.2-2.4a.09.09,0,0,1,0-.05Z"/><path class="cls-6" d="M109.52,14.15a2.7,2.7,0,0,0-.32.36.65.65,0,0,1-.55.31h-1.24a.76.76,0,0,1-.76-.39s0,0,0,0h0a.58.58,0,0,1-.46.36,1.18,1.18,0,0,1-.8-.17h-.06a1.67,1.67,0,0,1-1.26.11.52.52,0,0,1-.21-.11,0,0,0,0,0,0,0,.91.91,0,0,1-.58.19,3.14,3.14,0,0,1-.6,0c-.6-.1-.77-.59-.83-1.13-.1-.84-.18-1.74-.23-2.7a.07.07,0,0,1,0-.05l.36-.75h0c0,.92.12,1.85.19,2.79.05.59.05,1.11.78,1.13a3.55,3.55,0,0,0,.8-.06c.18,0,.42-.32.62-.54a.05.05,0,0,1,0,0,.27.27,0,0,1,.14,0s0,0,0,0a0,0,0,0,1,0,0l-.28.5a0,0,0,0,0,0,0h0c.29.09,1,.18,1.12-.21a.77.77,0,0,1,.5-.45s0,0,0,0h0l-.2.55s0,0,0,0c.22.11.66.24.79,0,0-.1.09-.21.15-.34a1,1,0,0,1,.31-.41s0,0,.06,0,0,0,0,0c-.06.29-.21.6,0,.77a.83.83,0,0,0,.43.07h1.05a1.05,1.05,0,0,0,.8-.36,0,0,0,0,0,0,0h0a2.36,2.36,0,0,0-.59-.15,1.45,1.45,0,0,0-.88.12h0c.08-.51.28-1.05.91-.94a3.68,3.68,0,0,1,.55.22,3.37,3.37,0,0,0,1.66.3s0,0,0,0h0l-.24.51a.07.07,0,0,1-.07,0,2.58,2.58,0,0,0-.81.09.09.09,0,0,0-.06,0s0,0,0,0h0a.8.8,0,0,0,.41.1H112l0,0h0c-.07-.88-.13-1.68-.19-2.38a.66.66,0,0,0-.09-.34c-.13-.2-.23-.29-.16-.52a2.06,2.06,0,0,1,.35-.65h0l0,.2a.07.07,0,0,0,0,0,2.63,2.63,0,0,0,.62.76,0,0,0,0,1,0,.06l-.27.42a.14.14,0,0,0,0,.06l.08,2.38s0,0,0,0l-.16.54a.2.2,0,0,1-.18.12H110.2c-.41,0-.63-.21-.65-.66,0,0,0,0,0,0Z"/><path class="cls-6" d="M64.21,10.2h0v0c.07,1.33.15,2.41.24,3.25.06.55.41.65.91.64a3.26,3.26,0,0,0,.93-.06.43.43,0,0,0,.2-.16c.07-.1.18-.51.38-.6a.08.08,0,0,1,.12,0v.4c0,.31.37.38.61.38H69l0,0h0a.57.57,0,0,0-.7-.34,0,0,0,0,1,0,0v0l.26-.62,0,0a1.17,1.17,0,0,1,1.63.25.44.44,0,0,1,0,.36,1.44,1.44,0,0,1-.17.42s0,0,0,0h1.67c-.12-1.42-.2-2.22-.22-2.43a.9.9,0,0,0,0-.19l0-.07-.18-.28c-.13-.21.22-.75.36-.93h0a.78.78,0,0,0,.17.5,5.75,5.75,0,0,0,.48.53s0,0,0,0l-.26.4a.12.12,0,0,0,0,.1q.08,1.48.09,2a2,2,0,0,1-.14.84.36.36,0,0,1-.11.17s0,0,0,0H70.26c-.39,0-.65,0-.85-.29h0a.61.61,0,0,1-.5.28c-.63,0-1.17,0-1.61,0a.55.55,0,0,1-.44-.23,1.2,1.2,0,0,1-.09-.21s0,0,0,0h0a.66.66,0,0,1-.65.46h-.69a1.73,1.73,0,0,1-.69-.07.92.92,0,0,1-.52-.7,5.88,5.88,0,0,1-.13-.82c-.08-.81-.14-1.55-.18-2.23a.07.07,0,0,1,0-.05Z"/><path class="cls-6" d="M76.51,11.12l-.34.48s0,0,0,0a1.93,1.93,0,0,1-.55-.36,0,0,0,0,0,0,0h0l-.25.32a.06.06,0,0,1-.06,0,2.3,2.3,0,0,1-.55-.37,0,0,0,0,1,0,0l.39-.5h0l.5.39s0,0,.06,0l.29-.36s0,0,0,0h0a2.49,2.49,0,0,0,.52.37s0,0,0,0Z"/><path class="cls-6" d="M57.26,11.07s0,0,0,0h0l-.34.48s0,0,0,0a1.8,1.8,0,0,1-.55-.36s0,0-.05,0h0l-.25.32a.06.06,0,0,1-.06,0,2.3,2.3,0,0,1-.55-.37,0,0,0,0,1,0,0l.39-.5h0l.5.39s0,0,.06,0l.28-.36a0,0,0,0,1,.05,0h0A2.22,2.22,0,0,0,57.26,11.07Z"/><path class="cls-6" d="M93.77,11.07s0,0,0,0h0l-.34.48s0,0,0,0a1.93,1.93,0,0,1-.55-.36s0,0,0,0h0l-.25.32a.06.06,0,0,1-.06,0,2.3,2.3,0,0,1-.55-.37,0,0,0,0,1,0,0l.39-.5h0l.5.39s0,0,.06,0l.29-.36s0,0,0,0h0A2.49,2.49,0,0,0,93.77,11.07Z"/><path class="cls-6" d="M84.52,11.69a.06.06,0,0,1,0,0h0l-.41.41a0,0,0,0,1-.06,0,1,1,0,0,1-.47-.41,0,0,0,0,1,0-.05l.42-.42h0A2.54,2.54,0,0,0,84.52,11.69Z"/><path class="cls-6" d="M90.15,13.68c-.09.29-.28.58-.61.58-.83,0-.63-1-.43-1.45a1.89,1.89,0,0,1,.49-.72c.27-.21.52.12.64.33A2.81,2.81,0,0,1,90.62,14c0,.66-.32,2-1,2.23a1,1,0,0,1-.45.05,6.32,6.32,0,0,1-1-.16,1.88,1.88,0,0,1-.57-.19v0h0a3.85,3.85,0,0,0,1.71-.27,1.79,1.79,0,0,0,1-1.44.92.92,0,0,0,0-.48h0ZM90,13.29a.53.53,0,0,0-.28-.38c-.21-.11-.39.17-.43.34a.08.08,0,0,0,0,.08.42.42,0,0,0,.67,0A0,0,0,0,0,90,13.29Z"/><path class="cls-6" d="M61.44,14l.15.05h1.46a0,0,0,0,0,0,0h0c-.1-.49-.52-1.3-1.12-1.14,0,0,0,0,0,0h0a.89.89,0,0,1,.23-.72c.13-.11.33,0,.46.1a2.15,2.15,0,0,1,.85,1.53,1.81,1.81,0,0,1-.22,1,.05.05,0,0,1-.05,0H61.71c-.43,0-.27-.53-.3-.76l0,0Z"/><path class="cls-6" d="M60.2,12.32a0,0,0,0,1,0,0h0a2.22,2.22,0,0,1,.45,2c-.12.29-.16.53-.43.53H58.37a.92.92,0,0,1-.48-.08.65.65,0,0,1-.33-.36,1.53,1.53,0,0,0-.31-.6.14.14,0,0,0-.16,0,1.05,1.05,0,0,0-.24.27c-.11.2-.26.49-.44.87a1.16,1.16,0,0,1-.2.2.42.42,0,0,1-.66-.14,3,3,0,0,1-.11-1.84.19.19,0,0,1,.07-.13h0c0,.31-.07,1.77.56,1.53.17-.07.28-.39.42-.67s.73-1.15,1.11-.69l0,.06A2,2,0,0,0,58,14a.25.25,0,0,0,.23.11c.63,0,1.32,0,2.08,0l0,0h0a1.84,1.84,0,0,0-.38-.86.09.09,0,0,1,0-.07Z"/><path class="cls-6" d="M81.12,14s0,0,0,0h0l-.47.67,0,0a24.08,24.08,0,0,1-2.94.11h-.15a.73.73,0,0,1-.68-.35l-.2-.47a.46.46,0,0,0-.14-.21.12.12,0,0,0-.17,0,.86.86,0,0,0-.27.33c-.13.24-.26.5-.4.78a.66.66,0,0,1-.27.25c-.36.23-.64-.12-.72-.46a4,4,0,0,1,0-1.42.67.67,0,0,1,.09-.26h0s0,0,0,0a2.67,2.67,0,0,0,.2,1.41.27.27,0,0,0,.38.12c.14,0,.26-.36.36-.57s.71-1.19,1.13-.81a.26.26,0,0,1,.08.14,2,2,0,0,0,.27.67.3.3,0,0,0,.21.12l.75,0,0,0h0a1,1,0,0,1,0-.66c.26-.57,1-1.38,1.69-1a1.72,1.72,0,0,1,.88.92s0,0,0,0h0a1.88,1.88,0,0,0-2.12-.1,0,0,0,0,0,0,.06,1.3,1.3,0,0,0,.31.53,1.6,1.6,0,0,0,.95.23Z"/><path class="cls-6" d="M101,13a2.28,2.28,0,0,1,0,1.27.89.89,0,0,1-.24.42c-.31.22-.74,0-1.06-.21a0,0,0,0,0,0,0,.79.79,0,0,1-.6.29,2.41,2.41,0,0,1-1-.08H98a1,1,0,0,1-.3.08,4.88,4.88,0,0,1-.78,0c-.32,0-.5-.12-.57-.45,0,0,0,0,0,0h0c-.17.48-.52.48-1,.47s-1,.09-1.21-.41a1.69,1.69,0,0,0-.32-.62.12.12,0,0,0-.16,0,.78.78,0,0,0-.24.27c-.08.14-.23.43-.46.89a1.33,1.33,0,0,1-.19.17.33.33,0,0,1-.22.11c-.76,0-.65-1.41-.59-1.88A.71.71,0,0,1,92,13h0a4.15,4.15,0,0,0,.12,1.26.38.38,0,0,0,.35.31h0c.23-.1.32-.38.41-.59a1.74,1.74,0,0,1,.86-.91h.06a.34.34,0,0,1,.26.14.08.08,0,0,1,0,.05,2.09,2.09,0,0,0,.3.73.29.29,0,0,0,.2.11c.34,0,.61,0,.83,0s.56,0,.68-.35a1.37,1.37,0,0,1,.26-.45.11.11,0,0,1,.14,0s0,0,0,0a.14.14,0,0,1,0,.09,1.75,1.75,0,0,0,0,.41c0,.15.32.25.46.26a5,5,0,0,0,.78,0,.64.64,0,0,0,.55-.33,1.83,1.83,0,0,1,.47-.54h0a3.7,3.7,0,0,1-.34.84s0,0,0,0h0a1.18,1.18,0,0,0,.43,0,.88.88,0,0,0,.77-.69.08.08,0,0,1,0,0,1,1,0,0,1,.37-.28s0,0,0,0h0l-.29.7a.05.05,0,0,0,0,.07,1.13,1.13,0,0,0,.63.23,0,0,0,0,0,0,0h0l0-.4a.14.14,0,0,1,0-.09l.33-.57s0,0,0,0Z"/><path class="cls-6" d="M60.54,15.7s0,0,0,0h0l-.34.48h0a2,2,0,0,1-.55-.36,0,0,0,0,0,0,0h0l-.24.32a0,0,0,0,1-.06,0,1.89,1.89,0,0,1-.55-.37,0,0,0,0,1,0,0l.4-.51s0,0,0,0l.5.39s0,0,.06,0l.28-.36h0A2.6,2.6,0,0,0,60.54,15.7Z"/><path class="cls-6" d="M97.08,15.7s0,0,0,0h0l-.34.48h0a2.23,2.23,0,0,1-.56-.36,0,0,0,0,0-.05,0h0l-.24.32a.06.06,0,0,1-.07,0,2.21,2.21,0,0,1-.55-.37,0,0,0,0,1,0,0l.4-.51s0,0,0,0l.5.39a0,0,0,0,0,.07,0l.28-.36h0A2.6,2.6,0,0,0,97.08,15.7Z"/><path class="cls-6" d="M67.49,15.7s0,0,0,0h0l-.34.47s0,0,0,0a2.17,2.17,0,0,1-.55-.36,0,0,0,0,0,0,0h0l-.24.32a.06.06,0,0,1-.07,0,2,2,0,0,1-.55-.37,0,0,0,0,1,0,0l.39-.51s0,0,0,0l.5.39a0,0,0,0,0,.06,0l.29-.36h0A2.55,2.55,0,0,0,67.49,15.7Z"/><ellipse class="cls-6" cx="60.04" cy="22.2" rx="0.39" ry="0.43" transform="translate(-0.15 0.42) rotate(-0.4)"/><path class="cls-6" d="M94,23.22c0-.56.06-1.23.7-1.4a1.19,1.19,0,0,1,.7,0h0l-.11.31h0c-.67-.19-.71.66-.7,1.07a0,0,0,0,0,0,0h.66a.11.11,0,0,1,.11.1.43.43,0,0,1,0,0v0a.3.3,0,0,1-.26.17c-.35,0-.53.1-.53.29,0,1-.06,1.59-.06,1.63a4.53,4.53,0,0,1-.13,1,.4.4,0,0,1-.21.25l-.07,0a.1.1,0,0,1-.14-.05.13.13,0,0,1,0-.06,5,5,0,0,0,0-.78V23.66a0,0,0,0,0,0,0h-.52a.05.05,0,0,1,0-.05,0,0,0,0,1,0,0l.08-.29a.07.07,0,0,1,.05,0h.42A0,0,0,0,0,94,23.22Z"/><path class="cls-6" d="M50.72,25.91l0-3.61a.06.06,0,0,0,0,0c-.16-.13-.34-.27-.34-.31a0,0,0,0,1,0-.05h0l.9-.07h0l-.12,4s0,0,0,0l-.42,0a0,0,0,0,1,0,0Z"/><path class="cls-6" d="M78.46,24.79h0c-.21.46-.57,1-1.09,1.14a.78.78,0,0,1-.9-.58,1.8,1.8,0,0,1,2-2.11s0,0,0,0h0v-.87a.05.05,0,0,0,0,0L78.08,22a0,0,0,0,1,0-.07l0,0,.9-.1a0,0,0,0,1,0,0h0c0,1.91-.08,2.89-.08,2.95a7.12,7.12,0,0,0,0,1.08,0,0,0,0,1,0,.05h0C78.4,25.9,78.44,25.17,78.46,24.79Zm0-1a1.21,1.21,0,0,0-1.41.42,1,1,0,0,0-.16.67.55.55,0,0,0,.94.35,2.24,2.24,0,0,0,.65-1.4S78.45,23.75,78.43,23.75Z"/><path class="cls-6" d="M100.59,25.87l-.42.05s0,0,0,0h0l0-3.61a.08.08,0,0,0,0,0,2.36,2.36,0,0,1-.34-.31.05.05,0,0,1,0-.05h0l.9-.07a0,0,0,0,1,0,0h0l-.12,4Z"/><path class="cls-6" d="M101.7,25.87l-.42.05s0,0,0,0h0l0-3.61a.06.06,0,0,0,0,0,1.53,1.53,0,0,1-.34-.32s0,0,0,0h0l.9-.07h0l-.12,4S101.71,25.87,101.7,25.87Z"/><path class="cls-6" d="M113.23,25.87l-.42.05s0,0,0,0h0l0-3.61a.08.08,0,0,0,0,0,2.36,2.36,0,0,1-.34-.31.05.05,0,0,1,0-.05h0l.9-.07a0,0,0,0,1,0,0h0l-.12,4S113.24,25.87,113.23,25.87Z"/><path class="cls-6" d="M50.35,25.77s0,0,0,0l-.39.19s0,0,0,0h0l-.48-1.25a0,0,0,0,0,0,0l-1,0a1,1,0,0,0-.59.2,1.27,1.27,0,0,0-.25.41l-.23.47a.37.37,0,0,1-.2.17L47,26a.1.1,0,0,1-.13-.06.17.17,0,0,1,0-.07c.6-1.27,1-2.15,1.22-2.62a3.13,3.13,0,0,0,.35-1.07,0,0,0,0,1,0,0L49,22s0,0,0,0h0Zm-2.27-1.48s0,0,0,0h0l1.18.05a0,0,0,0,0,0,0h0l-.53-1.41s0,0,0,0h0Z"/><path class="cls-6" d="M99.77,25.81l-.39.18s0,0,0,0h0l-.48-1.24,0,0-1,0a1,1,0,0,0-.59.2,1.45,1.45,0,0,0-.26.41c-.08.19-.16.35-.22.47a.37.37,0,0,1-.2.17l-.12,0a.1.1,0,0,1-.13-.06.09.09,0,0,1,0-.07l1.22-2.62a3.13,3.13,0,0,0,.35-1.07,0,0,0,0,1,0,0l.54-.21a0,0,0,0,1,0,0h0l1.29,3.78A0,0,0,0,1,99.77,25.81Zm-2.25-1.52s0,0,0,0h0l1.17.05a0,0,0,0,0,0,0h0l-.53-1.41s0,0,0,0h0Z"/><path class="cls-6" d="M53.61,24.86c-.26.47-.63,1.1-1.25,1.07a.81.81,0,0,1-.75-.83,1.9,1.9,0,0,1,.87-1.63,1.42,1.42,0,0,1,1.21-.23s0,0,0,0h0l0-.16a0,0,0,0,1,0,0h0l.34.15s0,0,0,.06h0s0,.54,0,1.62c0,.74-.06,1.87-1,2.15a1.16,1.16,0,0,1-.94-.1.07.07,0,0,1,0-.06l0-.32a.05.05,0,0,1,0,0h0a1.45,1.45,0,0,0,.25.1c1,.29,1.2-1.05,1.18-1.73h0Zm0-1.11a1.21,1.21,0,0,0-1.41.42,1,1,0,0,0-.17.66.56.56,0,0,0,.94.37,2.3,2.3,0,0,0,.66-1.41A.05.05,0,0,0,53.64,23.75Z"/><path class="cls-6" d="M62.77,24.8h0a3.05,3.05,0,0,1-.62.87.85.85,0,0,1-1.11.09,1.12,1.12,0,0,1-.25-1.19,1.8,1.8,0,0,1,2-1.33s0,0,0,0h0l0-.2s0,0,0,0h0l.38.22a.05.05,0,0,1,0,0c-.05.68-.08,1.35-.09,2a3.7,3.7,0,0,0,0,.6.1.1,0,0,1-.07.09h0a.34.34,0,0,1-.28-.14A1.34,1.34,0,0,1,62.77,24.8Zm0-1.05a1.22,1.22,0,0,0-1.42.42.94.94,0,0,0-.16.66.56.56,0,0,0,.94.37,2.33,2.33,0,0,0,.66-1.41A.05.05,0,0,0,62.75,23.75Z"/><path class="cls-6" d="M70.07,24.8a0,0,0,0,0,0,0h0a2.71,2.71,0,0,1-.62.87.82.82,0,0,1-1.1.09,1.12,1.12,0,0,1-.25-1.19,1.78,1.78,0,0,1,2-1.32s0,0,0,0h0l0-.2a0,0,0,0,1,0,0h0l.38.22a.05.05,0,0,1,0,0c-.05.69-.09,1.35-.09,2a3.76,3.76,0,0,0,0,.6.07.07,0,0,1-.07.09h0a.32.32,0,0,1-.28-.14A1.39,1.39,0,0,1,70.07,24.8Zm0-1.05a1.21,1.21,0,0,0-1.41.42,1,1,0,0,0-.17.66.56.56,0,0,0,1,.37,2.36,2.36,0,0,0,.66-1.41S70.07,23.76,70.05,23.75Z"/><path class="cls-6" d="M75.54,24.8h0a3.05,3.05,0,0,1-.62.87.84.84,0,0,1-1.11.09,1.12,1.12,0,0,1-.25-1.19,1.79,1.79,0,0,1,2-1.32l0,0h0l0-.2s0,0,0,0h0l.37.22s0,0,0,0q-.08,1-.09,2a3.7,3.7,0,0,0,0,.6.1.1,0,0,1-.07.09h0a.34.34,0,0,1-.28-.14A1.34,1.34,0,0,1,75.54,24.8Zm0-1.05a1.22,1.22,0,0,0-1.42.42,1,1,0,0,0-.16.66.56.56,0,0,0,.94.37,2.33,2.33,0,0,0,.66-1.41A.05.05,0,0,0,75.52,23.75Z"/><path class="cls-6" d="M108.85,24.86h0c-.26.47-.63,1.1-1.25,1.07a.81.81,0,0,1-.75-.83,1.87,1.87,0,0,1,.87-1.62,1.39,1.39,0,0,1,1.21-.24.05.05,0,0,0,0,0h0l0-.16a0,0,0,0,1,.05,0h0l.34.15a0,0,0,0,1,0,.06h0s0,.54,0,1.62c0,.74-.06,1.86-.94,2.15a1.18,1.18,0,0,1-1-.1.09.09,0,0,1,0-.06l0-.32a.05.05,0,0,1,0,0h0a1.86,1.86,0,0,0,.25.1C108.72,26.88,108.87,25.54,108.85,24.86Zm0-1.11a1.21,1.21,0,0,0-1.41.42,1,1,0,0,0-.17.66.56.56,0,0,0,.94.37,2.3,2.3,0,0,0,.66-1.41A.05.05,0,0,0,108.85,23.75Z"/><path class="cls-6" d="M118.55,24.86h0c-.26.47-.63,1.1-1.25,1.07a.83.83,0,0,1-.76-.83,1.93,1.93,0,0,1,.88-1.63,1.42,1.42,0,0,1,1.21-.23.05.05,0,0,0,0,0h0l0-.16a0,0,0,0,1,0,0h0l.34.15s0,0,0,.06h0s0,.54,0,1.62c0,.74-.06,1.87-1,2.15a1.16,1.16,0,0,1-.94-.1.07.07,0,0,1,0-.06l0-.32s0,0,0,0h0l.25.11C118.41,26.88,118.56,25.54,118.55,24.86Zm0-1.11a1.2,1.2,0,0,0-1.41.42,1,1,0,0,0-.17.66.56.56,0,0,0,.94.37,2.3,2.3,0,0,0,.66-1.41A.05.05,0,0,0,118.55,23.75Z"/><path class="cls-6" d="M55.17,24.86s0,0,0,0h0c.3.7,1.13.63,1.72.36,0,0,0,0,.06,0a.06.06,0,0,1,0,0l-.06.21a.31.31,0,0,1-.09.11A1.63,1.63,0,0,1,55,25.7,1.27,1.27,0,0,1,54.78,24a1.76,1.76,0,0,1,1.35-.8c.41,0,.85.16.85.63C57,24.64,55.77,24.83,55.17,24.86Zm0-.33c.38,0,1-.17,1.2-.56s-.11-.43-.37-.41a1,1,0,0,0-.86.94,0,0,0,0,0,0,0Z"/><path class="cls-6" d="M58.06,24.14s0-.09.14-.25a1.17,1.17,0,0,1,1-.7s0,0,0,0h0l-.06.59s0,0,0,0c-.59,0-.88.32-1,.84A5.1,5.1,0,0,0,58,25.86a0,0,0,0,1,0,0l-.43.05h0l0-2.18a.06.06,0,0,0,0,0l-.36-.36a0,0,0,0,1,0,0s0,0,0,0l.92-.1s0,0,0,0h0l-.1.91s0,0,0,0Z"/><path class="cls-6" d="M59.78,25.93a0,0,0,0,1,0,0h0V23.74a.06.06,0,0,0,0,0l-.35-.33a.09.09,0,0,1,0-.07h0l.93-.09a0,0,0,0,1,0,0h0l-.12,2.64v0Z"/><path class="cls-6" d="M64.45,24.14a0,0,0,0,0,0,0,0,0,0,0,0,0,0c.25-.43.6-1,1.16-1s.63.54.63,1,0,.83-.07,1.35a1.39,1.39,0,0,0,0,.46.06.06,0,0,1,0,.07h0c-.4-.09-.46-.41-.45-.77s0-.79,0-1a.55.55,0,0,0-.19-.45.46.46,0,0,0-.52.12,2.79,2.79,0,0,0-.57,1.92,0,0,0,0,1,0,0l-.43.05a0,0,0,0,1,0,0h0l0-2.16a.08.08,0,0,0,0,0l-.34-.35a0,0,0,0,1,0-.05h0l.92-.1s0,0,0,0h0Z"/><path class="cls-6" d="M73.25,25.3h0l-.06.3s0,0,0,0a1.5,1.5,0,0,1-2-.14,1.31,1.31,0,0,1,0-1.54,1.66,1.66,0,0,1,.52-.5,2,2,0,0,1,1.42-.23.1.1,0,0,1,.07.09l-.07.63a0,0,0,0,1,0,0h0l-.43-.36h0a1,1,0,0,0-.8,1.7,1.12,1.12,0,0,0,1,.15A2.28,2.28,0,0,0,73.25,25.3Z"/><path class="cls-6" d="M80,24.86s0,0,0,0h0c.3.7,1.13.63,1.72.36,0,0,0,0,.07,0v0l-.06.21a.2.2,0,0,1-.08.1,1.63,1.63,0,0,1-1.77.08A1.27,1.27,0,0,1,79.58,24a1.76,1.76,0,0,1,1.35-.8c.41,0,.85.16.85.63C81.78,24.64,80.57,24.83,80,24.86Zm0-.33c.38,0,1-.17,1.2-.56s-.11-.43-.37-.41a1,1,0,0,0-.86.94,0,0,0,0,0,0,0Z"/><path class="cls-6" d="M82.85,24.13a0,0,0,0,0,0,0h0s.06-.1.14-.23a2.11,2.11,0,0,1,.48-.55.61.61,0,0,1,.94.12,1.1,1.1,0,0,1,.13.46.78.78,0,0,0,0,.19,0,0,0,0,0,0,0h0c.2-.44.63-1,1.18-.92s.53.59.52.95,0,.89-.07,1.26a2.49,2.49,0,0,0,0,.56s0,0,0,0a0,0,0,0,1,0,0c-.42-.06-.48-.41-.47-.79s0-.74,0-1,0-.52-.31-.51a.46.46,0,0,0-.34.16,2.81,2.81,0,0,0-.55,1.91,0,0,0,0,1,0,0l-.43.05s0,0,0,0h0a15.72,15.72,0,0,0,0-1.72c0-.16-.07-.42-.29-.41a.47.47,0,0,0-.37.16,2.86,2.86,0,0,0-.56,1.91s0,0,0,0l-.43,0s0,0,0,0h0l0-2.17s0,0,0,0L82,23.35a0,0,0,0,1,0-.05h0l.94-.1a0,0,0,0,1,0,0h0Z"/><path class="cls-6" d="M88,25.13l.76-1.85,0,0,.44,0s0,0,0,0v0l-1.38,3a.68.68,0,0,1-.64.47.35.35,0,0,1-.14-.06.05.05,0,0,1,0-.08h0a1.81,1.81,0,0,0,.37-.49c0-.1.11-.23.2-.4a.06.06,0,0,0,0-.06l-.82-2a.1.1,0,0,0,0-.05l-.29-.28s0,0,0-.06,0,0,0,0l.73-.06s0,0,0,0L88,25.13s0,0,0,0A0,0,0,0,0,88,25.13Z"/><path class="cls-6" d="M91.29,23.62a0,0,0,0,0,0,0h0l-.11-.14a.06.06,0,0,1,0-.07h0a1.9,1.9,0,0,1,1.08-.16,1.16,1.16,0,0,1,1,1.06,1.63,1.63,0,0,1-.68,1.38,1.22,1.22,0,0,1-1.61,0,1.19,1.19,0,0,1-.3-.87,1.37,1.37,0,0,1,.46-1Zm.46,0A1.28,1.28,0,0,0,91.3,25a.67.67,0,0,0,.86.47,1,1,0,0,0,.54-1,.87.87,0,0,0-.89-.93Z"/><path class="cls-6" d="M102.8,24.86l0,0h0c.31.7,1.13.63,1.72.36a0,0,0,0,1,.07,0,0,0,0,0,1,0,0l-.06.21a.16.16,0,0,1-.08.1,1.61,1.61,0,0,1-1.76.08A1.27,1.27,0,0,1,102.4,24a1.79,1.79,0,0,1,1.35-.8c.42,0,.85.16.85.63C104.61,24.64,103.4,24.83,102.8,24.86Zm0-.33c.38,0,1-.17,1.19-.56s-.1-.43-.36-.41a1,1,0,0,0-.86.94s0,0,0,0Z"/><path class="cls-6" d="M105.65,24.13a0,0,0,0,0,0,0h0l.14-.25a1.18,1.18,0,0,1,1.05-.7,0,0,0,0,1,0,0h0l-.06.59,0,0a1,1,0,0,0-1,.84,4.62,4.62,0,0,0-.16,1.19s0,0,0,0l-.43.05h0l0-2.18a.05.05,0,0,0,0,0l-.36-.36a0,0,0,0,1,0,0h0l.92-.1s0,0,0,0h0Z"/><path class="cls-6" d="M110.39,23.62a0,0,0,0,0,0,0h0l-.11-.14a.06.06,0,0,1,0-.07h0a1.91,1.91,0,0,1,1.08-.16,1.17,1.17,0,0,1,1,1.06,1.63,1.63,0,0,1-.68,1.38,1.22,1.22,0,0,1-1.61,0,1.19,1.19,0,0,1-.3-.87,1.37,1.37,0,0,1,.46-1Zm.46,0A1.28,1.28,0,0,0,110.4,25a.67.67,0,0,0,.86.47,1,1,0,0,0,.54-1,.88.88,0,0,0-.89-.93Z"/><path class="cls-6" d="M114.35,23.58l-.11-.14a0,0,0,0,1,0-.07h0a1.93,1.93,0,0,1,1.08-.16,1.16,1.16,0,0,1,1,1.06,1.61,1.61,0,0,1-.68,1.38,1.22,1.22,0,0,1-1.61,0,1.28,1.28,0,0,1-.3-.87,1.37,1.37,0,0,1,.46-1l.17-.14s0,0,0,0Zm.45,0a1.27,1.27,0,0,0-.46,1.42.67.67,0,0,0,.86.47,1,1,0,0,0,.54-1,.87.87,0,0,0-.89-.93Z"/><path class="cls-6" d="M120.73,25.13l.76-1.85,0,0,.44,0s0,0,0,0,0,0,0,0c-.57,1.26-1,2.27-1.38,3a.67.67,0,0,1-.63.47.34.34,0,0,1-.15-.06.07.07,0,0,1,0-.09h0a1.78,1.78,0,0,0,.36-.49l.21-.4s0,0,0-.06l-.83-2a.09.09,0,0,0,0-.05l-.3-.28s0,0,0-.06l0,0,.73-.06a.05.05,0,0,1,0,0l.65,1.91a0,0,0,0,0,0,0S120.73,25.14,120.73,25.13Z"/><ellipse class="cls-6" cx="71.59" cy="28.66" rx="0.39" ry="0.43" transform="translate(-0.3 0.75) rotate(-0.6)"/><ellipse class="cls-6" cx="75.85" cy="28.66" rx="0.39" ry="0.43" transform="translate(-0.2 0.53) rotate(-0.4)"/><path class="cls-6" d="M65.09,31.24c-.21.46-.57,1-1.09,1.14a.8.8,0,0,1-.91-.58,1.82,1.82,0,0,1,2-2.11l0,0h0V28.8a.08.08,0,0,0,0-.05l-.35-.27a.06.06,0,0,1,0-.07l0,0,.89-.1a0,0,0,0,1,0,0h0c0,1.91-.08,2.89-.08,3a8.71,8.71,0,0,0,0,1.08s0,0,0,0h0c-.54,0-.49-.76-.48-1.14h0Zm0-1a1.21,1.21,0,0,0-1.41.42,1,1,0,0,0-.16.67.56.56,0,0,0,.94.36,2.34,2.34,0,0,0,.65-1.41A.05.05,0,0,0,65.08,30.21Z"/><path class="cls-6" d="M70.55,32.34l-.43,0a0,0,0,0,1,0,0h0l0-3.6a.05.05,0,0,0,0,0,2.23,2.23,0,0,1-.34-.32s0,0,0-.05h0l.9-.07,0,0h0l-.12,4S70.56,32.34,70.55,32.34Z"/><path class="cls-6" d="M82.65,32.34l-.42,0h0l0-3.61a.05.05,0,0,0,0,0,2.91,2.91,0,0,1-.34-.32s0,0,0-.05h0l.91-.07,0,0h0l-.12,4Z"/><path class="cls-6" d="M104.72,32.34l-.42,0h0l0-3.61a.05.05,0,0,0,0,0,2.91,2.91,0,0,1-.34-.32.05.05,0,0,1,0-.05h0l.91-.07,0,0h0l-.12,4A0,0,0,0,1,104.72,32.34Z"/><path class="cls-6" d="M84.79,29l-.32-.42s0,0,0-.05h0l.94-.11a0,0,0,0,1,0,0h0l-.15,3.81s0,0,0,0l-.43,0s0,0,0,0h0l0-3.3A0,0,0,0,0,84.79,29Z"/><path class="cls-6" d="M59.17,31.26a0,0,0,0,0,0,0h0a2.87,2.87,0,0,1-.62.87.82.82,0,0,1-1.1.09A1.1,1.1,0,0,1,57.18,31a1.78,1.78,0,0,1,2-1.32l0,0h0l0-.2s0,0,0,0h0l.38.21,0,0c-.06.69-.09,1.35-.1,2a3.7,3.7,0,0,0,0,.6.08.08,0,0,1-.07.09h0a.32.32,0,0,1-.28-.14A1.34,1.34,0,0,1,59.17,31.26Zm0-1.05a1.21,1.21,0,0,0-1.41.42,1,1,0,0,0-.17.66.56.56,0,0,0,.94.37,2.27,2.27,0,0,0,.66-1.41S59.17,30.22,59.15,30.21Z"/><path class="cls-6" d="M81.1,31.26a2.87,2.87,0,0,1-.62.87.82.82,0,0,1-1.1.09A1.12,1.12,0,0,1,79.12,31a1.79,1.79,0,0,1,2-1.32l0,0h0l0-.2s0,0,0,0h0l.38.21,0,0c-.06.69-.09,1.35-.1,2a3.65,3.65,0,0,0,0,.59.08.08,0,0,1-.07.09h0a.34.34,0,0,1-.29-.14,1.39,1.39,0,0,1-.12-1h0Zm0-1.05a1.21,1.21,0,0,0-1.41.42,1,1,0,0,0-.17.66.56.56,0,0,0,.94.37,2.27,2.27,0,0,0,.66-1.41A.05.05,0,0,0,81.1,30.21Z"/><path class="cls-6" d="M110,31.32h0c-.26.47-.63,1.1-1.25,1.07a.83.83,0,0,1-.76-.83,1.9,1.9,0,0,1,.88-1.62,1.46,1.46,0,0,1,1.21-.24.05.05,0,0,0,0,0h0l0-.16a0,0,0,0,1,0,0h0l.34.15a0,0,0,0,1,0,.07h0s0,.54,0,1.62c0,.74-.06,1.87-1,2.15a1.16,1.16,0,0,1-.94-.1.07.07,0,0,1,0-.06l0-.32s0,0,0,0,0,0,0,0l.25.11C109.9,33.34,110.05,32,110,31.32Zm0-1.11a1.2,1.2,0,0,0-1.41.42,1,1,0,0,0-.17.67.55.55,0,0,0,.94.36,2.27,2.27,0,0,0,.66-1.41A.05.05,0,0,0,110,30.21Z"/><path class="cls-6" d="M75.55,30.17l-.35-.35s0-.05,0-.06h0l.9-.1s0,0,0,0h0l-.1,2.61a0,0,0,0,1,0,0l-.41,0s0,0,0,0h0l0-2.14S75.56,30.17,75.55,30.17Z"/><path class="cls-6" d="M86.75,30.6l.14-.23a1.94,1.94,0,0,1,.48-.55.61.61,0,0,1,.94.12,1.1,1.1,0,0,1,.13.47.74.74,0,0,0,0,.18s0,0,0,0a0,0,0,0,0,0,0c.2-.44.63-1,1.18-.92s.53.59.52.95,0,.89-.07,1.27a1.65,1.65,0,0,0,0,.55s0,0,0,.05h0c-.42-.06-.48-.41-.47-.78s0-.75,0-1-.06-.52-.31-.51a.44.44,0,0,0-.34.16,2.81,2.81,0,0,0-.55,1.91s0,0,0,0l-.42,0s0,0,0,0h0c0-.7,0-1.22,0-1.71,0-.17-.07-.43-.29-.42a.49.49,0,0,0-.37.16,2.81,2.81,0,0,0-.56,1.91s0,0,0,0l-.43,0s0,0,0,0h0l0-2.17s0,0,0,0l-.36-.37a0,0,0,0,1,0,0s0,0,0,0l.94-.1a0,0,0,0,1,0,0h0l-.1.91s0,0,0,0Z"/><path class="cls-6" d="M91.37,30.59a0,0,0,0,0,0,0h0s.06-.1.14-.23a2.11,2.11,0,0,1,.48-.55.61.61,0,0,1,.94.12,1.1,1.1,0,0,1,.13.47c0,.08,0,.14,0,.18s0,0,0,0,0,0,0,0c.2-.44.63-1,1.18-.92s.53.59.52.95,0,.89-.07,1.26a2.49,2.49,0,0,0,0,.56s0,0,0,.05h0c-.42-.06-.48-.41-.47-.79s0-.74,0-1,0-.52-.31-.51a.46.46,0,0,0-.34.16,2.87,2.87,0,0,0-.55,1.91s0,0,0,0l-.43,0,0,0h0a15.49,15.49,0,0,0,0-1.71c0-.17-.07-.43-.29-.42a.51.51,0,0,0-.37.16,2.86,2.86,0,0,0-.56,1.91s0,0,0,0l-.43,0s0,0,0,0h0V30.2s0,0,0,0l-.36-.36a0,0,0,0,1,0,0h0l.94-.1s0,0,0,0h0Z"/><path class="cls-6" d="M99.06,30.61c.25-.43.6-1,1.16-1s.63.54.63,1,0,.83-.07,1.35a1.36,1.36,0,0,0,0,.46.07.07,0,0,1,0,.07h0c-.4-.09-.46-.41-.45-.77s0-.79,0-1a.55.55,0,0,0-.18-.45.46.46,0,0,0-.53.13A2.75,2.75,0,0,0,99,32.3s0,0,0,0l-.43,0s0,0,0,0h0l0-2.16,0,0-.34-.35a0,0,0,0,1,0,0s0,0,0,0l.93-.1s0,0,0,0h0l-.09.92s0,0,0,0A0,0,0,0,0,99.06,30.61Z"/><path class="cls-6" d="M60.86,30.61a0,0,0,0,0,0,0s0,0,0,0c.25-.43.61-1,1.16-1s.64.54.63,1,0,.83-.06,1.35a1.16,1.16,0,0,0,0,.46.06.06,0,0,1,0,.07h0c-.4-.09-.45-.41-.45-.77s0-.79,0-1a.55.55,0,0,0-.18-.45.46.46,0,0,0-.53.13,2.75,2.75,0,0,0-.57,1.91,0,0,0,0,1,0,0l-.43.05s0,0,0,0h0l0-2.16a.06.06,0,0,0,0,0L60,29.81a0,0,0,0,1,0,0s0,0,0,0l.93-.1s0,0,0,0h0Z"/><path class="cls-6" d="M69.66,31.76h0l-.07.3,0,0a1.5,1.5,0,0,1-2-.14,1.32,1.32,0,0,1,0-1.54,1.56,1.56,0,0,1,.53-.49,1.92,1.92,0,0,1,1.41-.23.07.07,0,0,1,.07.09l-.07.62a0,0,0,0,1,0,0h0l-.43-.36h0a1,1,0,0,0-.8,1.7,1.1,1.1,0,0,0,1,.15A1.89,1.89,0,0,0,69.66,31.76Z"/><path class="cls-6" d="M71.32,32.39h0V30.2s0,0,0,0l-.34-.34a0,0,0,0,1,0-.07h0l.94-.09a0,0,0,0,1,0,0h0l-.12,2.64,0,0Z"/><path class="cls-6" d="M73.07,30.61h0c.24-.44.6-1,1.16-1s.63.54.63,1,0,.83-.07,1.35a1.7,1.7,0,0,0,0,.46.05.05,0,0,1,0,.07h0c-.4-.09-.46-.41-.45-.77s0-.79,0-1a.55.55,0,0,0-.19-.45.47.47,0,0,0-.53.13,2.74,2.74,0,0,0-.56,1.91,0,0,0,0,1,0,0l-.44,0s0,0,0,0h0V30.2a.08.08,0,0,0,0,0l-.35-.35a0,0,0,0,1,0,0h0l.92-.1s0,0,0,0h0Z"/><path class="cls-6" d="M78.84,31.76h0l-.06.3,0,0a1.51,1.51,0,0,1-2-.13,1.34,1.34,0,0,1,0-1.55,1.67,1.67,0,0,1,.53-.49,1.91,1.91,0,0,1,1.41-.23.08.08,0,0,1,.07.08l-.07.63a0,0,0,0,1,0,0h0l-.43-.36h0a1,1,0,0,0-.8,1.7,1.1,1.1,0,0,0,1,.15A2.08,2.08,0,0,0,78.84,31.76Z"/><path class="cls-6" d="M97.3,31.08a2.15,2.15,0,0,1-.93,1.27l0,0c-.8.16-.82-.64-.82-1.2,0-.16,0-.47,0-.94a.06.06,0,0,0,0,0l-.37-.37a0,0,0,0,1,0-.06h0l.92-.1a0,0,0,0,1,0,0h0q0,.62-.06,1.29a2.78,2.78,0,0,0,0,.61.26.26,0,0,0,.23.25c.22,0,.44-.31.54-.48a6.11,6.11,0,0,0,.56-1.62s0,0,0,0l.45-.05a0,0,0,0,1,0,0h0c0,.49,0,1.06-.06,1.69a5.25,5.25,0,0,0,0,.93.08.08,0,0,1-.06.1h-.06l-.15-.08a.37.37,0,0,1-.21-.25,3.31,3.31,0,0,1,0-1,0,0,0,0,0,0,0Z"/><path class="cls-6" d="M101.88,30.08a0,0,0,0,0,0,0h0l-.11-.14a.06.06,0,0,1,0-.07h0a1.82,1.82,0,0,1,1.08-.15,1.15,1.15,0,0,1,1,1.05,1.63,1.63,0,0,1-.68,1.38,1.22,1.22,0,0,1-1.61,0,1.19,1.19,0,0,1-.3-.87,1.37,1.37,0,0,1,.46-1Zm.46,0a1.3,1.3,0,0,0-.46,1.42.68.68,0,0,0,.87.47,1,1,0,0,0,.54-1,.88.88,0,0,0-.89-.93Z"/><path class="cls-6" d="M105.83,30.08s0,0,0,0h0l-.1-.14a0,0,0,0,1,0-.07h0a1.84,1.84,0,0,1,1.08-.15,1.15,1.15,0,0,1,1,1.05,1.61,1.61,0,0,1-.68,1.38,1.22,1.22,0,0,1-1.61,0,1.28,1.28,0,0,1-.3-.87,1.37,1.37,0,0,1,.46-1Zm.46,0a1.27,1.27,0,0,0-.46,1.42.67.67,0,0,0,.86.47,1,1,0,0,0,.54-1,.88.88,0,0,0-.89-.93Z"/><path class="cls-6" d="M112.22,31.59l.76-1.85,0,0,.44,0s0,0,0,0,0,0,0,0c-.57,1.26-1,2.27-1.38,3a.67.67,0,0,1-.63.47.34.34,0,0,1-.15-.06.06.06,0,0,1,0-.08h0a1.6,1.6,0,0,0,.36-.49l.21-.4a.06.06,0,0,0,0-.06l-.83-2,0-.05-.3-.28s0,0,0-.06l0,0,.73-.06s0,0,0,0l.66,1.91a0,0,0,0,0,0,0S112.22,31.6,112.22,31.59Z"/></g></g></svg>