<svg xmlns="http://www.w3.org/2000/svg" viewBox="0 0 86.83 25.25"><defs><style>.cls-1{fill:#19365e;}</style></defs><g id="Layer_2" data-name="Layer 2"><g id="Layer_2-2" data-name="Layer 2"><path class="cls-1" d="M31.73,19.58a3.28,3.28,0,0,0-1.12-1.07c1.33-2.25-1.35-3.8-3.35-3.54,0,0,0,0,0,.08a2.69,2.69,0,0,0-2.57,2.06c0,1.89,0,3.78,0,5.68,1.64,0,3.28.06,4.92,0C31.16,22.42,32.35,21.22,31.73,19.58ZM29.5,21.06a.72.72,0,0,1-.4.14c-.74-.08-1.49,0-2.27-.07,0-1.36,0-2.7,0-4a1.24,1.24,0,0,1,1.81-.28A.7.7,0,0,1,28.45,18c-1.13.27-.67.22-.75,1.57.32.29,1.24-.05,1.69.24A.71.71,0,0,1,29.5,21.06Z"/><path class="cls-1" d="M51.6,17.64c-1.66-.53-4.72-.36-4.73,1.94,0,1.89,0,3.77,0,5.65l2,0c.1-3.73-.43-1.85,2.59-2.66C53.05,22,53.06,21.22,53,19.7A2,2,0,0,0,51.6,17.64ZM51,20.83c-.14,1-1.33.61-2.07.68.1-.69-.31-2.46.37-2.68a1.67,1.67,0,0,1,1.35,0C51.29,19.18,50.86,20.21,51,20.83Z"/><path class="cls-1" d="M44.55,19.51A1.67,1.67,0,0,0,44,18.18a4.38,4.38,0,0,0-4.11-.53c-1.72.57-1.5,1.93-1.48,3.42.65,2.11,4.09,2.18,5.56,1C44.76,21.43,44.5,20.38,44.55,19.51Zm-2,1.46c-.29.79-2,.77-2.07-.18.11-.61-.29-1.58.35-1.95a1.65,1.65,0,0,1,1.39,0C42.79,19.12,42.36,20.38,42.51,21Z"/><path class="cls-1" d="M86.8,2.73s-.06-.1-.13-.09H84.76c-.13,0-.12.16-.12.27,0,1.12,0,2.25,0,3.37-.19.57-1.37.54-1.77.27s-.17-3.11-.29-3.91c-.17-.29-1.52-.05-1.92-.12s-.12,3.15-.21,3.76a.53.53,0,0,1-.65.28c-3.28.08-6.57,0-9.86,0,0-2.14.24-3.56-2.35-4l0-.08a4.63,4.63,0,0,0-3.06.69c-1,.63-.77,1.92-.72,2.9C64.06,8,66.39,8,67.87,8c-.1.58-.73.61-1.19.61-1,0-2.39.31-2.74,1.38,2-.11,5.34.6,6-2,3.21,0,6.44,0,9.65,0a4.14,4.14,0,0,0,1.77-.41c1,.25,2,.76,3.07.4C87.57,7.54,86.68,5.06,86.8,2.73Zm-19,2.72a5.19,5.19,0,0,1,0,1.11c-2,.17-2,.05-2-1.87,0-.8.84-.89,1.45-.78C68.05,4,67.78,4.88,67.8,5.45Z"/><path class="cls-1" d="M60.73,3.23a4,4,0,0,0-3.13-.62,2.66,2.66,0,0,0-2.16,1.23c-.81,2,1.72,2.72,3.33,2.67-5.81.27-11.91,0-17.81.1a.73.73,0,0,1-.61-.9c0-1.6,0-3.2,0-4.8h0C40.26.77,40.13.81,40,.8c-.33.07-1.65-.18-1.69.13,0,1.68,0,3.35,0,5A2.07,2.07,0,0,0,39.69,7.7,10.48,10.48,0,0,0,43.18,8c5.3,0,10.61,0,15.92,0,.91-.24,2.1-.6,2.28-1.69S61.65,3.82,60.73,3.23ZM59.27,5.06A3.45,3.45,0,0,1,57.57,5a.54.54,0,0,1,0-.91,1.58,1.58,0,0,1,1.66.09A1.23,1.23,0,0,1,59.27,5.06Z"/><path class="cls-1" d="M57.89,1.94A1,1,0,0,1,58.78.09,1,1,0,1,1,57.89,1.94Z"/><path class="cls-1" d="M10.13,18.16C9.68,17.93,9,18,8.5,17.69c-.24-.19-.54-.07-.68-.26a6.36,6.36,0,0,1-3.2-4.83A6.22,6.22,0,0,1,9.25,5.75V1.1a18.6,18.6,0,0,1,3.08,0c.21,7.75-.88,2.5,3.4,6.82A6.37,6.37,0,0,1,10.13,18.16Z"/><path class="cls-1" d="M21.56,13.24l-.08,0a10.73,10.73,0,0,1-7.31,8.89c-.25,0-.38.23-.64.2a.8.8,0,0,0-.43.1c-.15,0-.31,0-.44.1l-.05,0a1.15,1.15,0,0,1-.37.06c-.15-.05-.27.06-.39,0l0,0c-.71,0-1.42.05-2.13,0a1.94,1.94,0,0,0-.75-.1A11.34,11.34,0,0,1,5.77,21.5,10.86,10.86,0,0,1,0,11.91a20.91,20.91,0,0,1,2.86-.06A2.47,2.47,0,0,1,3,13a7.83,7.83,0,0,0,5,6.13c5,2.1,10.6-1.95,10.63-7.28a21.57,21.57,0,0,1,2.9,0A10.29,10.29,0,0,1,21.56,13.24Z"/><path class="cls-1" d="M61.47,22.46V19.54a2.28,2.28,0,0,0-1.5-1.9,5.88,5.88,0,0,0-2.36-.21.86.86,0,0,1-.32,0h0l0,0,0,0c0-.81,0-1.62,0-2.43l-2,0c0,2.51,0,5,0,7.56,0,.22.12.31.38.27s1.8.17,1.66-.23a24.54,24.54,0,0,1,.07-3.44A1.28,1.28,0,0,1,59.22,19c.25.17.07.53.11.78,0,.94,0,1.87,0,2.81,0,.35,1.68.11,2,.15C61.5,22.71,61.47,22.58,61.47,22.46Zm-4.25-5.11,0,0S57.22,17.36,57.22,17.35Z"/><path class="cls-1" d="M57.29,17.42h0l0,0Z"/><path class="cls-1" d="M34.52,16.73a1.05,1.05,0,0,1,1-1.78C37,15.59,35.82,17.77,34.52,16.73Z"/><path class="cls-1" d="M36.16,22.78H34.24c-.18-.1-.11-.28-.11-.43,0-1.53,0-3.06,0-4.58,0-.11,0-.3.12-.33a4.6,4.6,0,0,1,1.92,0c.17.1.11.26.11.39v3.26C36.21,21.4,36.41,22.67,36.16,22.78Z"/><path class="cls-1" d="M32,5.83c0-.81.15-1.72-.48-2.33a4.1,4.1,0,0,0-5.21-.12c-1,1.08-.37,3.71-.53,5.2a1.27,1.27,0,0,0-1.1,1.12c-.36.57,1.09.28,1.4.3a2.14,2.14,0,0,0,1.75-2A5.29,5.29,0,0,0,31,7.45a1.62,1.62,0,0,0,.89-1.17C32,6.15,32,6,32,5.83Zm-2.05,0c.07,1-1.31.8-2,.7.08-.62-.21-2,.12-2.42a1.69,1.69,0,0,1,1.62-.05C30.15,4.49,29.86,5.25,29.93,5.83Z"/><path class="cls-1" d="M69.85,19.14c-.55-2-3.13-2-4.73-1.5-1.55.71-1.44,1.6-1.41,3.09.29,2.84,4.14,1.93,6.12,2.05.1,0,.11-.12.11-.21A22.91,22.91,0,0,0,69.85,19.14Zm-2.06,2.35c-.69,0-2,.28-2.05-.72.11-.61-.27-1.51.32-1.91a1.39,1.39,0,0,1,1.74.28C67.8,19.93,67.79,20.71,67.79,21.49Z"/><path class="cls-1" d="M82.14,10.19c-.11,0-.16.12-.25.17a1.08,1.08,0,0,1-1.65-.65,1.08,1.08,0,0,1,1.87-.85C84.6,7.25,84.53,11.8,82.14,10.19Z"/><path class="cls-1" d="M85.65,10.55a1,1,0,0,1,0-2.05A1,1,0,0,1,85.65,10.55Z"/><path class="cls-1" d="M86.63,22.79c-.31-.06-2.22.24-2-.27V20c.06-.7,0-1.31-.85-1.29-.46,0-1,0-1.22.46v3.6a19.14,19.14,0,0,1-2,0c-.15-.1-.11-.25-.11-.38V19.13c0-.22-.28-.2-.41-.32-.49-.21-1.26-.19-1.53.32v3.32c0,.12,0,.26-.11.33v0c-.68,0-1.36,0-2,0,0-1.07,0-2.14,0-3.2a.79.79,0,0,1,.1-.56c.62-1.94,3.53-1.94,5.08-1.18a4.48,4.48,0,0,1,4.49.26,1.56,1.56,0,0,1,.64,1.24C86.65,20.49,86.78,21.67,86.63,22.79Z"/><path class="cls-1" d="M75.18,18.69c-.38.06-.86.1-1,.55-.17,4.07.94,3.58-2.12,3.55,0-2.5-.73-5.15,2.67-5.38a.29.29,0,0,1,0-.09c.14,0,.31-.06.42.1s.07.3.13.44S75.48,18.65,75.18,18.69Z"/><path class="cls-1" d="M36.15,7.82a2,2,0,0,1-1.07,1.76c-1.49.66-3.11.39-4.71.45.24-.93,1.42-1.18,2.19-1.39.5,0,1.25.19,1.47-.41.23-1.31,0-2.84.1-4.21.36.07,1.92-.16,2,.13C36.14,5.37,36.14,6.6,36.15,7.82Z"/></g></g></svg>