<svg xmlns="http://www.w3.org/2000/svg" viewBox="0 0 51.23 51.5"><defs><style>.cls-1{fill:#118b44;}</style></defs><g id="Layer_2" data-name="Layer 2"><g id="Layer_2-2" data-name="Layer 2"><path class="cls-1" d="M31.63,11.31H29V2.72h2.48l.09,1,.11-.08a3,3,0,0,1,2.61-1,2.16,2.16,0,0,1,1.63.74,4.65,4.65,0,0,1,.34.52l.39-.44A2.94,2.94,0,0,1,39,2.56a2.34,2.34,0,0,1,1.62.65,2.61,2.61,0,0,1,.71,1.48,5.88,5.88,0,0,1,.11,1.11c0,1.78,0,3.55,0,5.33v.18H38.81v-.22c0-1.77,0-3.54,0-5.31a2.17,2.17,0,0,0-.1-.62.8.8,0,0,0-.82-.57,1.28,1.28,0,0,0-1.22.56.55.55,0,0,0-.1.31c0,1.87,0,3.73,0,5.6v.26H34.07c-.15,0-.19-.05-.19-.2,0-1.81,0-3.61,0-5.42a1.91,1.91,0,0,0-.15-.7A.75.75,0,0,0,33,4.6a1.26,1.26,0,0,0-1,.24,1,1,0,0,0-.43.82c0,1.85,0,3.7,0,5.55Z"/><path class="cls-1" d="M0,.91,2.42.39C3,.27,3.55.14,4.12.06A5.08,5.08,0,0,1,9.71,3.35a7.85,7.85,0,0,1,.58,3.14,5,5,0,0,1-3.22,4.67,14.46,14.46,0,0,1-2,.51c-.84.2-1.68.36-2.53.55-.14,0-.19,0-.22-.15C2,10.22,1.57,8.38,1.18,6.53S.41,2.91,0,1.1A.84.84,0,0,1,0,.91ZM3.14,2.42l.22,1c.43,2,.85,4,1.28,6,0,.11.05.14.16.12.32-.08.65-.13,1-.22A2.14,2.14,0,0,0,7.46,7.58a4.63,4.63,0,0,0,0-1.89,7.43,7.43,0,0,0-.69-2.25A2.28,2.28,0,0,0,4.91,2.16,6.37,6.37,0,0,0,3.14,2.42Z"/><path class="cls-1" d="M8.1,14.33l7.93-1c0,.39.09.77.14,1.14s.06.53.1.79,0,.19-.17.21l-4,.5-1,.11c0,.32.07.62.11.92,0,.46.11.92.16,1.38,0,.13.06.16.18.15l2.54-.32,1.56-.18s.13.05.13.09c.09.62.16,1.24.23,1.86l0,.06-.81.1-3.1.39c-.14,0-.32,0-.39.09s0,.25,0,.38L12,23.24c0,.12.07.15.19.14L15.22,23l1.85-.23h.1l.25,2.1-7.91,1Z"/><path class="cls-1" d="M24.56,17.51V13.2h2.66V25.41h-.17c-.66,0-1.33,0-2,0-.19,0-.24-.08-.25-.24s-.07-.43-.11-.69c-.08.1-.15.16-.21.23a2.54,2.54,0,0,1-2.25.83,3,3,0,0,1-2.59-2.07,6.89,6.89,0,0,1-.36-3.12,5.06,5.06,0,0,1,.62-2.21,3,3,0,0,1,3.63-1.34,2.38,2.38,0,0,1,.86.58.83.83,0,0,1,.09.16Zm0,3.61h0c0-.5,0-1,0-1.5a.69.69,0,0,0-.09-.31,1.27,1.27,0,0,0-1.28-.61,1.13,1.13,0,0,0-1,.85A5.49,5.49,0,0,0,22,22.16a1.9,1.9,0,0,0,.41,1,1.34,1.34,0,0,0,2.08-.24.5.5,0,0,0,.08-.27Z"/><path class="cls-1" d="M6.1,38.59l1.5-.41c.1.38.2.74.3,1.1l.6,2.16a1,1,0,0,0,1.1.83H10a.54.54,0,0,0,.55-.53V36.37H12.1c0,.07,0,.14,0,.22V41.5c0,.55.22.77.77.76h4c0-.33,0-.64-.07-.94a1.37,1.37,0,0,0-1.25-1.19,3.84,3.84,0,0,0-1.68.2l-.12,0h0L13.14,39a3.84,3.84,0,0,1,1.13-.37,4,4,0,0,1,2.31.21,2.73,2.73,0,0,1,1.77,2.34c0,.25,0,.5,0,.76s.09.33.34.33.65,0,1,0S20,42.18,20,42s0-.34,0-.51V36.36H21.6c0,.07,0,.13,0,.2v5.49A1.81,1.81,0,0,1,20,43.81l-.36,0H12.76a2,2,0,0,1-1.22-.38c-.11-.08-.17-.09-.28,0a1.81,1.81,0,0,1-1.16.39c-.29,0-.58,0-.87,0A2.37,2.37,0,0,1,8,43.38c-.07-.05-.12-.08-.2,0a2.18,2.18,0,0,1-1.43.47c-.87,0-1.73,0-2.59,0H3.57V42.26H6.39c.49,0,.65-.22.53-.68-.27-.95-.52-1.89-.78-2.83C6.13,38.7,6.12,38.66,6.1,38.59Z"/><path class="cls-1" d="M34.15,16.78h2.5c.14,0,.18,0,.18.18v8.3s0,.07,0,.12H34.34l-.09-.91-.26.27a2.84,2.84,0,0,1-2.3.81,2.87,2.87,0,0,1-1.47-.44,2.49,2.49,0,0,1-1-1.69,4.86,4.86,0,0,1-.11-1c0-1.83,0-3.65,0-5.48V16.8h2.66v.25c0,1.76,0,3.53,0,5.29a2,2,0,0,0,0,.43.86.86,0,0,0,.64.69A1.58,1.58,0,0,0,34.05,23a.54.54,0,0,0,.1-.3v-5.9Z"/><path class="cls-1" d="M43.52,5.33A2.14,2.14,0,0,1,43.89,4a3.2,3.2,0,0,1,1.88-1.27,5.46,5.46,0,0,1,3,0,2.77,2.77,0,0,1,2.06,2.49c0,.42,0,.85,0,1.28V9.38a4,4,0,0,0,.34,1.78.58.58,0,0,1,0,.14l-.06,0H48.68a.25.25,0,0,1-.18-.12c-.08-.2-.14-.41-.2-.61a7.79,7.79,0,0,1-.63.51,2.62,2.62,0,0,1-1.64.38A3.06,3.06,0,0,1,44,10.56a2.55,2.55,0,0,1,.83-4,5.87,5.87,0,0,1,2.34-.44H48c.16,0,.25,0,.22-.22A6.86,6.86,0,0,0,48.07,5a.78.78,0,0,0-.75-.55,2.27,2.27,0,0,0-.58,0,.73.73,0,0,0-.55.7c0,.16-.06.21-.22.2H43.52ZM48.19,8.2V7.61c0-.09,0-.14-.12-.13-.32,0-.64,0-1,0a1.13,1.13,0,0,0-1.13,1,.84.84,0,0,0,.6,1,1.44,1.44,0,0,0,1.19-.23.78.78,0,0,0,.42-.83A2.8,2.8,0,0,1,48.19,8.2Z"/><path class="cls-1" d="M20.19,7.85H14.85a1.61,1.61,0,0,0,.27.75,1.75,1.75,0,0,0,1.5.82A2.55,2.55,0,0,0,18.21,9c.19-.13.36-.3.55-.46L20,10a3.46,3.46,0,0,1-1.83,1.25,5,5,0,0,1-3.59-.14,3.67,3.67,0,0,1-2.18-2.4,5.51,5.51,0,0,1,.33-4.12,3.47,3.47,0,0,1,2.58-1.91,4.71,4.71,0,0,1,2.24.05A3.4,3.4,0,0,1,20,5.31a7.35,7.35,0,0,1,.18,1.41C20.21,7.08,20.19,7.45,20.19,7.85ZM14.86,6.19H17.4c.09,0,.21,0,.19-.12a3.13,3.13,0,0,0-.15-.81,1.29,1.29,0,0,0-1.57-.62A1.59,1.59,0,0,0,14.86,6.19Z"/><path class="cls-1" d="M46.32,22.36A2.94,2.94,0,0,1,46,23.7a3.24,3.24,0,0,1-2.3,1.75A4.59,4.59,0,0,1,41,25.27a3.38,3.38,0,0,1-2-2.12A6,6,0,0,1,39,19a3.45,3.45,0,0,1,2.72-2.24,4.44,4.44,0,0,1,2.69.26,3,3,0,0,1,1.86,2.71c0,.12,0,.24,0,.37H43.85c0-.16-.05-.33-.08-.48a1.09,1.09,0,0,0-1-.88,1.07,1.07,0,0,0-1.24.69,3.43,3.43,0,0,0-.2.95,7.08,7.08,0,0,0,.09,2.2,1.13,1.13,0,0,0,.81.93,1.29,1.29,0,0,0,1.28-.28,1,1,0,0,0,.29-.67c0-.09,0-.17.15-.17.76,0,1.53,0,2.3,0Z"/><path class="cls-1" d="M29.87,43.6A2.72,2.72,0,0,1,27.4,46l-.3-1.53.4-.11a1.13,1.13,0,0,0,.83-1.16V38.55l.16,0h2.34a2.55,2.55,0,0,1,2.57,2.14,7.77,7.77,0,0,1,.05,1.18c0,.32.1.41.43.41s.59,0,.89,0,.3-.08.32-.3,0-.28,0-.42V36.37h1.57v5.56a1.84,1.84,0,0,1-1.9,1.91c-.39,0-.77,0-1.16,0a1.55,1.55,0,0,1-1-.49c-.07-.07-.11-.07-.19,0a2.27,2.27,0,0,1-2.42.3Zm0-3.45c0,.45,0,.88,0,1.31a.9.9,0,0,0,.21.49,1,1,0,0,0,1.21.21A1,1,0,0,0,31.89,41a.93.93,0,0,0-.78-.88A12,12,0,0,0,29.91,40.15Z"/><path class="cls-1" d="M40.77,42.26a5.43,5.43,0,0,1-.16-.76,2.66,2.66,0,0,1,1.29-2.61,2.56,2.56,0,0,1,3.45.82c.22.38.22.39-.11.68l-.89.8c0-.13-.07-.23-.11-.33a1.06,1.06,0,0,0-1.76-.44,1,1,0,0,0-.25.44c-.1.59-.06,1,.3,1.21a1.2,1.2,0,0,0,.69.19h2.67v1.56H40a1.85,1.85,0,0,1-1.91-1.52,1.51,1.51,0,0,1,0-.3c0-1.84,0-3.68,0-5.51a1.37,1.37,0,0,1,0-.16H39.4c.24,0,.24,0,.24.24v5.32c0,.26.1.35.35.35S40.52,42.26,40.77,42.26Z"/><path class="cls-1" d="M27.14,5.11l-.79-.05a2.23,2.23,0,0,0-1,.15,1.86,1.86,0,0,0-.44.29.77.77,0,0,0-.26.62c0,1.66,0,3.31,0,5v.22H22V2.72h2.29c.14,0,.19,0,.2.17,0,.3.05.59.08.93.11-.17.2-.31.29-.43a2,2,0,0,1,2.22-.77.2.2,0,0,1,.12.12,2.43,2.43,0,0,1,0,.27C27.17,3.7,27.16,4.39,27.14,5.11Z"/><path class="cls-1" d="M25.29,30.52A15.32,15.32,0,0,1,32,32.07a.81.81,0,1,1-.68,1.46,14.3,14.3,0,0,0-11.08-.47c-.39.15-.76.31-1.14.48a.64.64,0,0,1-.8-.19.81.81,0,0,1,.29-1.27c.52-.24,1.05-.47,1.6-.67A15.19,15.19,0,0,1,25.29,30.52Z"/><path class="cls-1" d="M25.6,51.5A15.26,15.26,0,0,1,18.9,50a.81.81,0,0,1-.49-.85.77.77,0,0,1,.7-.69,1,1,0,0,1,.52.1A15.34,15.34,0,0,0,23,49.61a14.36,14.36,0,0,0,8.79-1.11.67.67,0,0,1,.92.32.8.8,0,0,1-.34,1.11,15.17,15.17,0,0,1-4.15,1.35A14.37,14.37,0,0,1,25.6,51.5Z"/><path class="cls-1" d="M25.31,27.35A15.79,15.79,0,0,1,32,28.93a.82.82,0,0,1,0,1.51.9.9,0,0,1-.7-.06,13.62,13.62,0,0,0-2.55-.92A15.09,15.09,0,0,0,26,29.05a13.91,13.91,0,0,0-5.09.65,9.22,9.22,0,0,0-1.72.69.76.76,0,0,1-1.05-.6.83.83,0,0,1,.5-.86A14.66,14.66,0,0,1,23,27.56C23.78,27.45,24.55,27.42,25.31,27.35Z"/><path class="cls-1" d="M23,36.35h1.55v7.48H23Z"/><path class="cls-1" d="M15.2,45.2a.85.85,0,0,1,.88-.87.86.86,0,0,1,.89.89.89.89,0,0,1-.91.88A.88.88,0,0,1,15.2,45.2Z"/></g></g></svg>