<svg xmlns="http://www.w3.org/2000/svg" viewBox="0 0 82.99 22.28"><defs><style>.cls-1{fill:#f15e5a;}</style></defs><g id="Layer_2" data-name="Layer 2"><g id="Layer_2-2" data-name="Layer 2"><path class="cls-1" d="M20.54,7.37H15.73V21.88h4.81Z"/><path class="cls-1" d="M8.36,7a4.6,4.6,0,0,0-3.55,1.4V.48H0V21.87H4.81v-8A3,3,0,0,1,5.4,12a1.85,1.85,0,0,1,1.53-.69c1.28,0,1.87.74,1.87,2.3v8.28h4.81V12.58a5.51,5.51,0,0,0-1.53-4.2A5.32,5.32,0,0,0,8.36,7Z"/><path class="cls-1" d="M20.54,7.37H15.73V21.88h4.81Z"/><path class="cls-1" d="M20.81,3.24a2.73,2.73,0,0,0-5.36-1,2.73,2.73,0,1,0,5.36,1Z"/><path class="cls-1" d="M36.8,7.37H31.14L27.6,12.1V.47H22.79v21.4H27.6v-5.1l3.47,5.1h6l-5.94-7.55Z"/><path class="cls-1" d="M57.6,8.38A5.27,5.27,0,0,0,53.92,7a5,5,0,0,0-2.49.6A4,4,0,0,0,50,8.91a4.31,4.31,0,0,0-1.51-1.36A5,5,0,0,0,46.09,7a4.53,4.53,0,0,0-3.57,1.53V7.35H38V21.87h4.81v-8a3.13,3.13,0,0,1,.5-1.93,1.56,1.56,0,0,1,1.31-.64c1.41,0,1.57,1.23,1.57,2.15v8.38H51V13.75a3,3,0,0,1,.5-1.81,1.55,1.55,0,0,1,1.33-.62c1.38,0,1.54,1.23,1.54,2.15v8.38H59.2v-9.3A5.65,5.65,0,0,0,57.6,8.38Z"/><path class="cls-1" d="M68.56,18.25a2.48,2.48,0,0,1-2-1,4.06,4.06,0,0,1-.82-2.65,3.87,3.87,0,0,1,.82-2.56,2.66,2.66,0,0,1,4.1,0,3.85,3.85,0,0,1,.82,2.55,4.11,4.11,0,0,1-.82,2.65A2.52,2.52,0,0,1,68.56,18.25ZM71.15,8.13A5.54,5.54,0,0,0,67.54,7,6.15,6.15,0,0,0,62.71,9.1a8.14,8.14,0,0,0-1.88,5.51,8.16,8.16,0,0,0,1.87,5.54,6.11,6.11,0,0,0,4.81,2.13,5.41,5.41,0,0,0,3.85-1.44v1H76V7.35H71.14v.78Z"/><path class="cls-1" d="M83,19.54a2.73,2.73,0,1,1-2.72-2.73A2.72,2.72,0,0,1,83,19.54Z"/></g></g></svg>