<svg xmlns="http://www.w3.org/2000/svg" viewBox="0 0 71.46 54.78"><defs><style>.cls-1{fill:#0ca689;}.cls-2{fill:#082724;}.cls-3{fill:#065259;}.cls-4{fill:#002f41;}.cls-5{fill:#028e8c;}</style></defs><g id="Layer_2" data-name="Layer 2"><g id="Layer_2-2" data-name="Layer 2"><path class="cls-1" d="M.44,42.85a1.31,1.31,0,0,1,0-2,1.59,1.59,0,0,1,1.1-.4,1.63,1.63,0,0,1,1.1.38,1.17,1.17,0,0,1,.45.94,1.34,1.34,0,0,1-.44,1,1.53,1.53,0,0,1-1.11.41,1.63,1.63,0,0,1-1.1-.39m-.11,2H2.74v9.79H.33Z"/><path class="cls-1" d="M20.05,45.82A4.23,4.23,0,0,1,21.19,49v5.61H18.78V49.33a2.76,2.76,0,0,0-.6-1.93,2.19,2.19,0,0,0-1.71-.65,2.58,2.58,0,0,0-1.95.76,3,3,0,0,0-.73,2.17v5H11.38V49.33a2.76,2.76,0,0,0-.6-1.93,2.2,2.2,0,0,0-1.72-.65,2.61,2.61,0,0,0-2,.75,3,3,0,0,0-.72,2.18v5H4V44.86h2.3V46.1a3.63,3.63,0,0,1,1.44-1,5,5,0,0,1,1.93-.35,4.75,4.75,0,0,1,2,.41,3.31,3.31,0,0,1,1.42,1.22,4.37,4.37,0,0,1,1.64-1.2A5.53,5.53,0,0,1,17,44.75a4.3,4.3,0,0,1,3.08,1.07"/><path class="cls-1" d="M24.25,54.14a4.82,4.82,0,0,1-2.66-4.39,4.81,4.81,0,0,1,.71-2.58,4.87,4.87,0,0,1,1.95-1.78,6.55,6.55,0,0,1,5.65,0,4.9,4.9,0,0,1,0,8.75,6.55,6.55,0,0,1-5.65,0m5-2.17a2.94,2.94,0,0,0,.86-2.22,3,3,0,0,0-.86-2.22,3,3,0,0,0-2.2-.84A3.13,3.13,0,0,0,24.88,52a3,3,0,0,0,2.19.85,3,3,0,0,0,2.2-.85"/><path class="cls-1" d="M36.06,54.1a4.59,4.59,0,0,1-1.82-1.73,5.19,5.19,0,0,1,0-5,4.57,4.57,0,0,1,1.82-1.72A5.48,5.48,0,0,1,38.68,45a5.32,5.32,0,0,1,2.21.45,4,4,0,0,1,1.61,1.31l-.72.5a3.32,3.32,0,0,0-1.34-1.07,4.23,4.23,0,0,0-1.76-.36,4.41,4.41,0,0,0-2.11.5,3.68,3.68,0,0,0-1.47,1.43,4.45,4.45,0,0,0,0,4.21,3.59,3.59,0,0,0,1.47,1.42,4.31,4.31,0,0,0,2.11.51,4.23,4.23,0,0,0,1.76-.36,3.32,3.32,0,0,0,1.34-1.07l.72.49a4,4,0,0,1-1.61,1.32,5.81,5.81,0,0,1-4.83-.18"/><rect class="cls-1" x="43.29" y="41.04" width="0.96" height="13.61"/><path class="cls-1" d="M46.31,42.54a.7.7,0,0,1-.23-.53.74.74,0,0,1,.23-.53.82.82,0,0,1,.56-.22.79.79,0,0,1,.56.21.67.67,0,0,1,.23.53.7.7,0,0,1-.23.53.8.8,0,0,1-.56.22.81.81,0,0,1-.56-.21m.08,2.54h1v9.57h-1Z"/><path class="cls-1" d="M57.4,46.05a4,4,0,0,1,1.1,3v5.59h-1V49.13a3,3,0,0,0-3.25-3.3,3.81,3.81,0,0,0-2.8,1,3.64,3.64,0,0,0-1,2.71v5.1h-1V45.08h.93v2.07A3.75,3.75,0,0,1,52,45.57,5,5,0,0,1,54.41,45a4.15,4.15,0,0,1,3,1"/><path class="cls-1" d="M60.47,42.54a.68.68,0,0,1-.24-.53.71.71,0,0,1,.24-.53.82.82,0,0,1,1.11,0,.68.68,0,0,1,.24.53.71.71,0,0,1-.24.53.8.8,0,0,1-.56.22.79.79,0,0,1-.55-.21m.07,2.54h1v9.57h-1Z"/><path class="cls-1" d="M65,54.1a4.57,4.57,0,0,1-1.81-1.73,5.19,5.19,0,0,1,0-5A4.54,4.54,0,0,1,65,45.62,5.55,5.55,0,0,1,67.64,45a5.24,5.24,0,0,1,2.2.45,4,4,0,0,1,1.62,1.31l-.72.5a3.39,3.39,0,0,0-1.34-1.07,4.23,4.23,0,0,0-1.76-.36,4.41,4.41,0,0,0-2.11.5,3.61,3.61,0,0,0-1.47,1.43,4.45,4.45,0,0,0,0,4.21,3.53,3.53,0,0,0,1.47,1.42,4.31,4.31,0,0,0,2.11.51,4.23,4.23,0,0,0,1.76-.36,3.39,3.39,0,0,0,1.34-1.07l.72.49a4,4,0,0,1-1.62,1.32,5.24,5.24,0,0,1-2.2.44A5.43,5.43,0,0,1,65,54.1"/><path class="cls-2" d="M7.31,23.07a2.77,2.77,0,0,0,1.54.46,3.46,3.46,0,0,0,.51-.09,1.77,1.77,0,0,0,.41-.21,1.93,1.93,0,0,0,.27-.3.93.93,0,0,0,.18-.45,1.69,1.69,0,0,0-.35-1.86,1,1,0,0,1-.18-.13l-.13-.14a1.41,1.41,0,0,0-.74-.57c-.37-.15-.91.13-1.16.19a.53.53,0,0,0-.23,0,.59.59,0,0,0-.11.08,3.36,3.36,0,0,0-.21.35c-.11.18-.2.36-.29.54a2.52,2.52,0,0,0-.2.66,1.54,1.54,0,0,0,0,.65,1.29,1.29,0,0,0,.64.79"/><path class="cls-2" d="M13.44,31.62c-.31.55-.61,1-.88,1.46-.4.59-.73,1-1,1.33a2.49,2.49,0,0,1-.73.62l-.37.13a1.83,1.83,0,0,1-.42.07,2.89,2.89,0,0,1-1-.06,4.41,4.41,0,0,1-1-.36,3.85,3.85,0,0,1-1.47-1.56,6.38,6.38,0,0,1-.77-2.5c0-.42-.06-.88-.06-1.36A11.17,11.17,0,0,1,5.83,28c.07-.46.15-.89.25-1.29a3.31,3.31,0,0,1,.36-.95.9.9,0,0,1,.56-.4,2.61,2.61,0,0,1,1.26.15,3.42,3.42,0,0,1,.72.39.87.87,0,0,1,.33.45,1.72,1.72,0,0,1,0,.35,6.2,6.2,0,0,1-.1.63A25,25,0,0,0,9,29.89a14.13,14.13,0,0,0,.14,2.17,5,5,0,0,0,.1.81c.06.28.12.44.18.47s.1,0,.21-.16l.41-.45a11.19,11.19,0,0,0,1.05-1.41c.39-.6.78-1.24,1.17-1.9s.74-1.31,1.05-1.93l.19-.39c.07-.15.13-.3.2-.46l.4-.84,0-.06c.17-.35.35-.7.55-1.07.36-.69.74-1.38,1.14-2.05s1-1.46,1.45-2.08,1-1.29,1.63-2l.65-.72a4.38,4.38,0,0,1,.46-.44,1.63,1.63,0,0,1,.37-.22l.39-.1a3,3,0,0,1,1.36.22,2.6,2.6,0,0,1,1.15.76.62.62,0,0,1,.21.35,3.74,3.74,0,0,1,0,.59c0,.18,0,.37,0,.59a6.12,6.12,0,0,1-.14.77q-.11.45-.27,1.11c-.1.44-.24,1-.4,1.6-.1.35-.23.87-.41,1.54s-.35,1.31-.51,1.92c-.4,1.57-.73,2.87-1,3.91s-.46,2-.62,2.94c-.05.32-.09.62-.14.89s-.09.54-.13.76a4.47,4.47,0,0,0-.05.54c0,.13,0,.19,0,.17a6.14,6.14,0,0,0,.37-.61c.2-.36.37-.69.51-1s.28-.55.42-.85l.5-1.06.67-1.43c.26-.55.57-1.23.92-2,.47-1,.88-1.94,1.24-2.71s.67-1.47.95-2.1.56-1.22.83-1.76.55-1.13.83-1.74Q28.89,16.9,31,13.14t4.08-7c.22-.34.49-.78.83-1.33l1-1.66,1-1.52a8.74,8.74,0,0,1,.57-.84C38.76.28,39,0,39.2,0h.39a2.51,2.51,0,0,1,1.2.47,2.47,2.47,0,0,1,.92.94l.11.24v.57a6,6,0,0,1-.09,1c-.06.35-.18.88-.37,1.6-.12.43-.24.86-.36,1.31s-.27,1-.45,1.56S40.13,9,39.87,9.8s-.57,1.74-.95,2.84c-.68,2-1.27,3.75-1.75,5.27s-.92,2.93-1.31,4.22-.73,2.52-1,3.7-.61,2.41-.92,3.71c-.07.29-.13.55-.17.76a1.35,1.35,0,0,1-.11.35L34,30c.54-1.07,1.05-2.05,1.52-2.92s.94-1.7,1.41-2.49.94-1.54,1.42-2.27,1-1.48,1.51-2.27l1-1.36,1-1.39c.33-.45.63-.86.92-1.23s.52-.65.7-.86.49-.49.76-.73a2.66,2.66,0,0,1,.62-.47,1,1,0,0,1,.25-.12,2.08,2.08,0,0,1,.35,0l.39,0a1.59,1.59,0,0,1,.35.12,2,2,0,0,1,.91.62,2.11,2.11,0,0,1,.33,1,8.83,8.83,0,0,1-.07,1.08c0,.4-.14.94-.26,1.63s-.32,1.54-.55,2.57-.54,2.33-.92,3.9c-.24,1-.45,1.89-.64,2.7s-.35,1.58-.49,2.27-.27,1.36-.37,2S44,33,43.87,33.64a12.9,12.9,0,0,0-.11,4.51,2.9,2.9,0,0,1,.07.37s.12-.05.28-.21.26-.28.36-.3a1.54,1.54,0,0,1,.74,0,1.84,1.84,0,0,1,.65.22c.18.1.27.2.27.32a1.18,1.18,0,0,1-.23.35,6.52,6.52,0,0,1-.51.55l-.27.19a2.2,2.2,0,0,1-.26.15l-.29.1a1.62,1.62,0,0,1-.38,0h-.53a2.26,2.26,0,0,1-1.95-1.84,9.76,9.76,0,0,1-.25-3.11c.08-1.25.29-2.9.64-5,.21-1.16.42-2.21.62-3.13s.43-1.89.69-2.92a8,8,0,0,1,.23-.82c.08-.26.16-.55.24-.88s.19-.7.31-1.12.27-.94.45-1.55.31-1.14.43-1.6a10.69,10.69,0,0,0,.25-1.19c.07-.36.1-.56.1-.6s-.05,0-.14.1-.38.44-.64.79l-.84,1.12q-.46.62-.9,1.26l-.8,1.2c-.54.83-1.07,1.67-1.59,2.53s-1,1.8-1.57,2.79-1.09,2.1-1.68,3.3S36,31.81,35.32,33.31a33.51,33.51,0,0,1-2,3.83,2.27,2.27,0,0,1-.33.42l-.3.25a2.77,2.77,0,0,1-1.1.15,3.25,3.25,0,0,1-1.2-.22,1.86,1.86,0,0,1-.72-.45,1.74,1.74,0,0,1-.37-.72A9.31,9.31,0,0,1,29.2,34c.05-1.15.18-2.47.39-4s.62-3.19,1.06-5,1-3.69,1.59-5.64c.31-.95.71-2.09,1.2-3.45L35,11.7c.07-.21.15-.4.22-.58a4.61,4.61,0,0,0,.17-.47c.07-.15.13-.3.18-.43-.19.29-.35.55-.5.79s-.29.5-.45.79-.32.58-.46.87-.41.7-.66,1.14-.5.93-.77,1.45l-.82,1.54-.72,1.38L29.82,21c-.43.86-.87,1.74-1.3,2.65s-.89,1.87-1.36,2.89-1,2.18-1.56,3.48c-.35.78-.65,1.43-.88,1.95l-.62,1.34q-.27.58-.48,1l-.42.86a20.24,20.24,0,0,1-1.5,2.51,3.4,3.4,0,0,1-1.22,1.09,2.6,2.6,0,0,1-.74.17,3.63,3.63,0,0,1-.87,0,3.29,3.29,0,0,1-.83-.23,2.35,2.35,0,0,1-.64-.41,2.25,2.25,0,0,1-.53-1,4.31,4.31,0,0,1-.17-.84,9.64,9.64,0,0,1,0-1.35c0-.51,0-.89,0-1.12s.05-.5.09-.79c.12-1,.29-2,.52-3.11s.55-2.43,1-4c.1-.33.2-.7.3-1.09s.21-.77.32-1.12.19-.66.27-.91a3.12,3.12,0,0,0,.1-.41c0-.06,0-.05-.09.06l-.51.65L17.42,25c-.43.62-.83,1.21-1.18,1.8s-.67,1.11-.94,1.58Z"/><path class="cls-2" d="M51.18,19.73c.41-.52.91-1.09,1.51-1.73a18.1,18.1,0,0,1,2-1.83,12.47,12.47,0,0,1,2-1.26,5.58,5.58,0,0,1,2-.63,4.08,4.08,0,0,1,2.29.42,4,4,0,0,1,1.42,1.37,5.16,5.16,0,0,1,.7,1.86,6.64,6.64,0,0,1,0,1.93,14.23,14.23,0,0,1-.83,3.33,28.53,28.53,0,0,1-1.44,3.28,31.37,31.37,0,0,1-1.62,2.79,20.16,20.16,0,0,1-1.31,1.83q-.77.87-1.65,1.71a8.12,8.12,0,0,1-1.87,1.35,4.71,4.71,0,0,1-2.08.52A4.08,4.08,0,0,1,50,34a5.18,5.18,0,0,1-1.87-2,6,6,0,0,1-.67-2.44,9.12,9.12,0,0,1,.23-2.67,15,15,0,0,1,.86-2.69,18.77,18.77,0,0,1,1.26-2.45c.46-.77.91-1.44,1.34-2M51,28.23a5.1,5.1,0,0,0,.12,2.66A1.58,1.58,0,0,0,52.34,32a2.87,2.87,0,0,0,1.92-.49,8.77,8.77,0,0,0,2.31-2,13,13,0,0,0,1.35-1.88,24.41,24.41,0,0,0,1.22-2.27,15.56,15.56,0,0,0,.9-2.44,11.7,11.7,0,0,0,.42-2.42,3.29,3.29,0,0,0-.27-1.81,1.62,1.62,0,0,0-.94-.87,2,2,0,0,0-1.39.1,5,5,0,0,0-1.59,1.07,18.13,18.13,0,0,0-1.79,2,21.69,21.69,0,0,0-1.58,2.37,19.07,19.07,0,0,0-1.22,2.49,10.27,10.27,0,0,0-.65,2.4"/><path class="cls-3" d="M55.87,12.77S53.25,7.87,52.58,8s1.48,5.37,1.48,5.37.55,1.17,1.38,1,.7-1.11.43-1.59"/><path class="cls-4" d="M58.79,12.22S58.41,8.1,57.88,8s-.58,4.13-.58,4.13,0,1,.7,1,.83-.58.79-1"/><path class="cls-1" d="M61.34,12s.57-3.24.18-3.4-1.31,3-1.31,3-.21.74.32.95.76-.27.81-.59"/><path class="cls-5" d="M63.87,13.79s2.29-4.26,1.8-4.66-3.29,3.66-3.29,3.66-.74.89,0,1.46a1.07,1.07,0,0,0,1.45-.46"/></g></g></svg>