<svg xmlns="http://www.w3.org/2000/svg" xmlns:xlink="http://www.w3.org/1999/xlink" viewBox="0 0 34.29 58.18"><defs><style>.cls-1{fill:url(#linear-gradient);}.cls-2{fill:#f79c89;}.cls-2,.cls-3{fill-rule:evenodd;}.cls-3{fill:#4fa546;}</style><linearGradient id="linear-gradient" x1="19.63" y1="49.04" x2="19.63" gradientUnits="userSpaceOnUse"><stop offset="0.09" stop-color="#fff" stop-opacity="0"/><stop offset="0.11" stop-color="#fefdf5" stop-opacity="0.06"/><stop offset="0.17" stop-color="#fcf8d4" stop-opacity="0.25"/><stop offset="0.24" stop-color="#faf3b6" stop-opacity="0.43"/><stop offset="0.31" stop-color="#f8ef9d" stop-opacity="0.59"/><stop offset="0.38" stop-color="#f6eb87" stop-opacity="0.71"/><stop offset="0.46" stop-color="#f5e875" stop-opacity="0.82"/><stop offset="0.55" stop-color="#f4e668" stop-opacity="0.9"/><stop offset="0.65" stop-color="#f4e45e" stop-opacity="0.96"/><stop offset="0.77" stop-color="#f3e359" stop-opacity="0.99"/><stop offset="1" stop-color="#f3e357"/></linearGradient></defs><g id="Layer_2" data-name="Layer 2"><g id="Layer_2-2" data-name="Layer 2"><rect class="cls-1" x="4.96" width="29.32" height="49.04"/><path class="cls-2" d="M14.19,6.15a2.21,2.21,0,0,0-.14.8,3.41,3.41,0,0,0,.17,1.39,73.85,73.85,0,0,1,2.24,15.71,17.79,17.79,0,0,1-1.91,9.6A21.67,21.67,0,0,1,9.4,40.34a2.87,2.87,0,0,0-.89,1,2.05,2.05,0,0,0-.26,1.19,2.49,2.49,0,0,0,.69,2c.6.63,1.19.83,2.82,1l.93.08c1.09.11,4.45.16,10.13.15,6.4,0,6.5,0,6.82-.18a1,1,0,0,0,.67-1c0-.88-.62-1.87-2.07-3.37a17.3,17.3,0,0,1-2.38-2.88C23.66,35,22.42,30.66,22,25.06a66.24,66.24,0,0,1,.13-7.68,68.43,68.43,0,0,1,1.09-7.45,4.89,4.89,0,0,0,.21-2c-.21-.21-1,1.45-1.34,2.8a73.4,73.4,0,0,0-1.27,8.4,78.15,78.15,0,0,0,0,9.92c.62,5.65,2.08,10,4.45,13.1.71.95.77,1.09.62,1.32s-.3-.11-1.23-1.06A21,21,0,0,1,23,40.45a17.48,17.48,0,0,1-2.53-6l-.27-1.22c-.05-.19-.1,0-.21.81-.58,4.17-2.29,7.4-4.82,9.1-.64.42-.74.47-.81.35s0-.3.7-1c2-2,3.17-5,3.72-9.33a52.25,52.25,0,0,0,.12-6.72,73.93,73.93,0,0,0-1.72-11.56c-.93-4.23-2-7.75-2.48-8.48-.26-.37-.36-.42-.51-.25Z"/><path class="cls-2" d="M18.84,14.27a3.86,3.86,0,0,0-.52,2.67c.21,1.88,1.14,2.52,1.68,1.15a4.12,4.12,0,0,0,.14-1.49A3.73,3.73,0,0,0,20,15c-.32-.79-.77-1.09-1.12-.74Z"/><path class="cls-3" d="M2.28,0c-.08,0-.09,0,0,.09.26.26,0,.8-.43.8-.19,0-.2,0-.2-.44s0-.55-.3-.45A.58.58,0,0,0,1.1.73a1,1,0,0,0,.76.52.91.91,0,0,0,.7-.37C2.69.53,2.53,0,2.28,0Zm-.8.52c0,.33-.14.38-.22.07,0-.14,0-.23.06-.28S1.48.25,1.48.56Z"/><path class="cls-3" d="M2.37,1.45c0,.1-.12.12-.61.12a1.66,1.66,0,0,0-.64.07.61.61,0,0,0,0,.31c.05.19.07.21.12.09s.16-.14.54-.14.49,0,.55.18c.14.36,0,.47-.69.47s-.61,0-.57.12a.8.8,0,0,1,0,.26c0,.11,0,.11.1,0a1.2,1.2,0,0,1,.6-.1c.35,0,.54,0,.63-.13a.63.63,0,0,0,0-.69c-.07-.12-.06-.15,0-.15s.1,0,0-.29-.22-.38-.22-.16Z"/><path class="cls-3" d="M3.42,3.11s-.08.06-.08.12-.18.13-1.12.13H1.09v.49c0,.43,0,.52.24.69a.81.81,0,0,0,1.08,0A.54.54,0,0,0,2.6,4l0-.32H3c.29,0,.39,0,.39.12s0,.12.08.12.08-.18.08-.4S3.46,3.11,3.42,3.11ZM1.81,4.41c-.3,0-.58-.19-.58-.4s.19-.34.69-.31.49,0,.51.17S2.14,4.41,1.81,4.41Z"/><path class="cls-3" d="M2.45,5c0,.11-.12.13-.69.13a1.74,1.74,0,0,0-.69.07c0,.27.09.31.73.27s.65,0,.65.1,0,.11.08.08a.6.6,0,0,0,.08-.36.6.6,0,0,0-.08-.36s-.08,0-.08.07Z"/><path class="cls-3" d="M.34,5.29c0,.22.16.3.3.15s.08-.3-.14-.3a.14.14,0,0,0-.16.15Z"/><path class="cls-3" d="M1.15,6q0,.24-.12.24c-.16,0-.15,0,.08.29s.2.18.2.13.17-.09.44-.09c.6,0,.86-.11.86-.36s-.08-.45-.18-.45-.06,0,0,.13c.09.24-.11.35-.61.35s-.48,0-.48-.24,0-.24-.08-.24-.08.1-.08.24Z"/><path class="cls-3" d="M2.46,7.05c-.2-.17-.28-.17-.16,0a.5.5,0,0,1-.28.7.61.61,0,0,1-.32.07,1.23,1.23,0,0,1-.06-.48c0-.37,0-.44-.15-.44a.51.51,0,0,0-.29.15c-.34.38,0,1,.62,1,.32,0,.4,0,.58-.16A.67.67,0,0,0,2.46,7.05Zm-1,.46c0,.32,0,.33-.12.18s-.15-.44.11-.52A2,2,0,0,1,1.47,7.51Z"/><path class="cls-3" d="M.27,7.11c-.11.13-.05.19.38.41s.33.07,0-.26S.35,7,.27,7.11Z"/><path class="cls-3" d="M2.42,8.42c0,.09-.19.12-.62.12s-.58,0-.67.21a.49.49,0,0,0,0,.44l.09.24H.62c-.64,0-.71.06-.49.36.07.1.12.12.16.06s.41-.1,1.11-.1c.89,0,1.05,0,1.05.13s0,.1.08.08a.67.67,0,0,0,.08-.37c0-.18,0-.32-.08-.32a.08.08,0,0,0-.08.08c0,.06-.21.08-.55.06-.51,0-.55,0-.57-.22s.18-.41.65-.41c.27,0,.41,0,.44.12.09.24.19.12.19-.24s-.1-.48-.19-.24Z"/><path class="cls-3" d="M1.15,10.28c0,.13,0,.2-.12.2s-.15.08.08.37.2.2.2.1.1-.14.58-.16.6-.06.66-.15,0-.56-.11-.56-.06.07,0,.16-.26.34-.73.31c-.29,0-.33-.05-.35-.25s-.18-.29-.18,0Z"/><path class="cls-3" d="M1.12,11.27a.83.83,0,0,0-.05.31c0,.55.58.68.86.2.15-.25.32-.36.44-.28s.08.36-.08.46-.21.22,0,.22.34-.16.34-.45c0-.58-.5-.69-.89-.2-.16.2-.3.31-.37.28a.24.24,0,0,1,0-.41c.07,0,.13-.08.13-.12s-.28-.09-.36,0Z"/><path class="cls-3" d="M2,12.31s.08.11.17.19a.79.79,0,0,1,.21.46c.06.45-.1.6-.63.6h-.4v-.28a.45.45,0,0,1,.18-.4c.18-.12.17-.13-.26-.12s-.42,0-.26.09.18.16.18.4v.31H.34v-.32c0-.39.07-.57.21-.57s.12,0,.12-.08-.11-.08-.25-.08H.18v.81c0,.48,0,.81.08.81s.08-.06.08-.12.17-.13,1-.13,1,0,1.06.17c.11.4.19.08.19-.73s0-.9-.21-1-.36-.1-.36,0Z"/><path class="cls-3" d="M1.23,15.34c-.5.5.2,1.3.93,1.06a.58.58,0,0,0,.45-.65c0-.24-.29-.64-.39-.53s0,.09,0,.14c.26.26,0,.79-.43.79-.19,0-.2,0-.2-.48s-.11-.63-.41-.33Z"/><path class="cls-3" d="M1.48,15.79c0,.15,0,.28-.08.28s-.2-.37-.13-.48.21-.08.21.2Z"/><path class="cls-3" d="M2.45,16.72c0,.05-.23.08-.52.08a1.08,1.08,0,0,0-.71.15c-.17.15-.18.19-.1.49s.06.34,0,.35-.06.1,0,.19.11.16.7.13.65,0,.65.06a.08.08,0,0,0,.08.09c.1,0,.11-.62,0-.68s-.1,0-.12.08-.16.12-.56.1-.51,0-.53-.26.08-.37.61-.37c.31,0,.44,0,.48.12s.08.1.12.07.09-.68,0-.68a.08.08,0,0,0-.08.08Z"/><path class="cls-3" d="M2.45,18.54c0,.1-.12.12-.69.12a1.64,1.64,0,0,0-.69.08c0,.26.09.29.73.26.44,0,.65,0,.65.06a.08.08,0,0,0,.08.09s.08-.14.08-.32a.64.64,0,0,0-.08-.37s-.08,0-.08.08Z"/><path class="cls-3" d="M.34,18.82c0,.22.16.29.3.14s.08-.3-.14-.3a.15.15,0,0,0-.16.16Z"/><path class="cls-3" d="M1.17,19.41a.71.71,0,0,0,.11.86.77.77,0,0,0,1.23,0,.79.79,0,0,0-.06-.83c-.18-.22-.3-.16-.15.08a.5.5,0,0,1-.27.69c-.5.18-.95-.22-.69-.62s0-.41-.17-.2Z"/><path class="cls-3" d="M2.46,20.9c-.17-.15-.34-.18-.19,0s0,.79-.43.79c-.19,0-.2,0-.2-.45s0-.44-.15-.44a.51.51,0,0,0-.29.15.59.59,0,0,0,.07.8c.16.19.25.22.61.22s.45,0,.57-.19A.68.68,0,0,0,2.46,20.9Zm-1,.46c0,.32,0,.33-.12.18s-.15-.44.11-.52A2,2,0,0,1,1.47,21.36Z"/><path class="cls-3" d="M2.61,22.38c-.08-.27-.16-.39-.17-.27a.33.33,0,0,0,0,.14c0,.11-.38.15-1.4.12l-1,0,0,.2c.07.26.1.29.22.18a.83.83,0,0,1,.44-.1c.34,0,.35,0,.35.25a.82.82,0,0,0,1.35.68c.18-.18.2-.26.17-.57s0-.36,0-.36S2.65,22.52,2.61,22.38Zm-.83,1.06A.59.59,0,0,1,1.23,23c0-.26.18-.35.65-.32s.45,0,.47.28S2.14,23.44,1.78,23.44Z"/><path class="cls-3" d="M2.46,24.06c-.17-.15-.34-.18-.19,0s0,.76-.39.81c-.19,0-.2,0-.23-.45s0-.46-.17-.46a.43.43,0,0,0-.28.15.59.59,0,0,0,.11.83.74.74,0,0,0,1.3-.44A.59.59,0,0,0,2.46,24.06Zm-1.11.68c-.12-.11-.16-.34-.06-.43s.19,0,.19.24S1.46,24.82,1.35,24.74Z"/><path class="cls-3" d="M.23,24.16c-.06.09.06.18.42.37s.33.07,0-.22S.3,24,.23,24.16Z"/><path class="cls-3" d="M.18,25.58c0,.26,0,.28.89.7a5.58,5.58,0,0,1,.89.49,5.45,5.45,0,0,1-.89.45l-.89.39v.31c0,.19,0,.29.08.26A.22.22,0,0,0,.34,28c0-.11.11-.12.94-.07,1,.06,1.17.09,1.17.26s0,.11.08.11.08-.18.08-.4,0-.41-.08-.41-.08.05-.08.11-.2.19-1,.14l-.67,0,.9-.4a5.83,5.83,0,0,0,.9-.45,5.52,5.52,0,0,0-.77-.39c-1.18-.55-1.19-.57-.26-.58.73,0,.81,0,.84.16.09.32.19.16.19-.28s0-.53-.19-.33-.36.14-1,.18c-.93,0-1,0-1-.12s-.19-.21-.19.1Z"/><path class="cls-3" d="M2.24,29.29s0,.11,0,.16c.25.25-.09.8-.48.8-.13,0-.15-.07-.15-.49s0-.49-.16-.49a.4.4,0,0,0-.28.18.59.59,0,0,0,0,.66.71.71,0,0,0,.73.38c.44,0,.72-.24.72-.63S2.34,29.19,2.24,29.29Zm-.89.79a.33.33,0,0,1-.06-.43c.12-.12.19,0,.19.24S1.46,30.17,1.35,30.08Z"/><path class="cls-3" d="M2.56,30.79c-.05-.16-.2-.2-.17,0s-.27.11-1.18.12c-1.25,0-1.32.05-1.08.38.07.11.12.13.16.06a.7.7,0,0,1,.41-.09h.35l.05.34a.74.74,0,0,0,.81.71c.51,0,.7-.23.69-.85A4,4,0,0,0,2.56,30.79ZM1.8,32c-.38,0-.61-.23-.54-.53s.09-.2.58-.2.53,0,.53.21A.51.51,0,0,1,1.8,32Z"/><path class="cls-3" d="M2.24,33.34s0,.11,0,.16c.25.25-.09.79-.48.79-.13,0-.15-.06-.15-.48s0-.49-.16-.49a.4.4,0,0,0-.28.18.56.56,0,0,0,.11.8.74.74,0,0,0,1.3-.39C2.61,33.65,2.34,33.24,2.24,33.34Zm-.89.79a.33.33,0,0,1-.06-.43c.12-.12.19,0,.19.24S1.46,34.22,1.35,34.13Z"/><path class="cls-3" d="M2.45,34.82c0,.1-.11.12-.56.12-.75,0-1,.25-.73.75.07.12.06.18,0,.22s-.07.11,0,.25.12.15.19.09,1-.12,1.08,0,.19.11.19-.24-.1-.49-.19-.25-.17.12-.49.12c-.48,0-.65-.11-.6-.42s.07-.18.57-.21c.34,0,.55,0,.55.06a.08.08,0,0,0,.08.09s.08-.14.08-.32a.64.64,0,0,0-.08-.37s-.08,0-.08.08Z"/><path class="cls-3" d="M2.42,36.68c0,.1-.19.13-.62.13s-.58,0-.67.2a.51.51,0,0,0,0,.45c.06.17.06.24,0,.26s-.06.09,0,.26.12.2.19.13,1-.12,1.09,0,.08.1.12.08.09-.69,0-.69a.08.08,0,0,0-.08.09c0,.05-.21.07-.55.06-.51,0-.55,0-.57-.22a.32.32,0,0,1,.11-.31,1.11,1.11,0,0,1,1,0c.18.19.21.15.21-.24s-.1-.49-.19-.25Z"/><path class="cls-3" d="M2.46,38.56c-.17-.15-.34-.19-.19,0s0,.8-.43.8c-.19,0-.2,0-.2-.45s0-.44-.15-.44a.49.49,0,0,0-.29.14.6.6,0,0,0,0,.72.91.91,0,0,0,1.3.09A.72.72,0,0,0,2.46,38.56Zm-1,.45c0,.32,0,.34-.12.19s-.15-.44.11-.52A1.8,1.8,0,0,1,1.47,39Z"/><path class="cls-3" d="M2.42,39.93c0,.11-.16.13-.7.1s-.75,0-.54.3c.08.1.13.12.17.05s1-.12,1.07,0,.19.11.19-.24-.1-.49-.19-.24Z"/><path class="cls-3" d="M.4,40c-.12.12-.05.35.1.35s.29-.14.16-.29S.48,39.94.4,40Z"/><path class="cls-3" d="M1.11,40.72a.4.4,0,0,0,0,.28c.07.12.07.17,0,.2s-.07.1,0,.19.11.15.7.13.65,0,.65.06a.09.09,0,0,0,.08.09s.08-.17.08-.37c0-.36-.1-.48-.19-.24s-.16.12-.56.1-.51,0-.51-.26-.17-.38-.24-.18Z"/><path class="cls-3" d="M2.24,41.85s0,.1,0,.16c.25.24-.09.79-.48.79-.13,0-.15-.07-.15-.49s-.11-.62-.41-.32a.53.53,0,0,0-.07.67c.3.66,1.45.47,1.45-.23C2.61,42.16,2.34,41.74,2.24,41.85Zm-.89.79c-.12-.11-.16-.34-.06-.43s.19,0,.19.23S1.46,42.72,1.35,42.64Z"/><path class="cls-3" d="M.23,42.11c0,.08.06.17.27.28.47.24.56.2.25-.12s-.45-.35-.52-.16Z"/><path class="cls-3" d="M2.82,43.2c-.27,0-.36.15-.39.65,0,.33-.05.45-.14.45s-.14-.12-.17-.32-.25-.53-.54-.53c-.13,0-.19-.05-.19-.17,0-.3-.12-.16-.22.27-.13.58-.13.68.06.87a.61.61,0,0,0,.75,0c.09-.1.12-.1.25,0s.17.12.31,0,.19-.08.31,0c.31.28.65.05.65-.45S3.25,43.2,2.82,43.2ZM2,44.06c0,.12-.1.16-.35.16s-.33,0-.35-.19,0-.2.16-.25.26-.11.42,0A.28.28,0,0,1,2,44.06Zm1,.24c-.22,0-.24,0-.26-.31s0-.54.26-.54a.29.29,0,0,1,.3.2C3.42,44,3.27,44.3,3,44.3Z"/><path class="cls-3" d="M2.53,47.13s-.08,0-.08.08-.17.16-.53,0-.28-.15-.28-.45.06-.4.61-.54c.15,0,.2,0,.2.09s0,.11.08.08a2.44,2.44,0,0,0,.08-.81c0-.46,0-.77-.08-.77a.08.08,0,0,0-.08.08A3.46,3.46,0,0,1,1.22,45H0l.06.22c.07.28.1.31.22.2a2.71,2.71,0,0,1,1.09-.1c.85,0,1,0,1,.13a.32.32,0,0,1,0,.27,11.75,11.75,0,0,1-2.17.84c-.28.08,0,.25,1.13.67.73.27,1,.43,1.08.53s.07.15.11.15S2.63,47.19,2.53,47.13Zm-1.47-.21c-.38-.12-.39-.18-.05-.29s.47-.12.47.14S1.48,47,1.06,46.92Z"/><path class="cls-3" d="M2.24,48.73s0,.11,0,.16c.25.25-.09.79-.48.79-.13,0-.15-.06-.15-.48s0-.49-.16-.49a.4.4,0,0,0-.28.18.56.56,0,0,0,.11.8.74.74,0,0,0,1.3-.39C2.61,49,2.34,48.63,2.24,48.73Zm-.89.79a.33.33,0,0,1-.06-.43c.12-.12.19,0,.19.24S1.46,49.61,1.35,49.52Z"/><path class="cls-3" d="M.23,48.93c-.1.1-.05.16.26.33.47.26.57.22.26-.1s-.41-.34-.52-.23Z"/><path class="cls-3" d="M1.15,50.29a.33.33,0,0,1-.11.26c-.1.05-.08.11.08.31s.19.21.19.1.09-.14.61-.14.61,0,.65-.2,0-.53-.13-.53-.06.07,0,.16-.17.32-.69.32-.41,0-.41-.24,0-.24-.08-.24-.08.09-.08.2Z"/><path class="cls-3" d="M2.22,51.18s0,.09,0,.14c.26.26,0,.79-.43.79-.19,0-.2,0-.2-.48s0-.52-.3-.41-.34.8.08,1.06a.77.77,0,0,0,.86,0c.26-.13.33-.27.33-.62S2.32,51.08,2.22,51.18ZM1.4,52c-.1,0-.2-.37-.13-.48s.21-.08.21.2S1.44,52,1.4,52Z"/><path class="cls-3" d="M.26,51.42c-.07.09-.05.14.1.21l.37.22c.31.2.23-.09-.1-.33s-.29-.19-.37-.1Z"/><path class="cls-3" d="M7.13,51.74a1.59,1.59,0,0,0-1,2.46,3.19,3.19,0,0,0,1,.88c1.18.78,1.39,1,1.39,1.67a1.08,1.08,0,0,1-1.15,1.11A1.81,1.81,0,0,1,5.85,56.7c-.1-.31-.22-.38-.3-.17a3,3,0,0,0,.25,1.32,3,3,0,0,0,.57.22,3.08,3.08,0,0,0,2-.11,1.76,1.76,0,0,0,.37-2.88c-.14-.13-.59-.45-1-.73-.87-.57-1.12-.89-1.12-1.39,0-1.2,1.88-1.32,2.27-.15.14.42.32.36.31-.11,0-.81-.05-.86-.64-1a2.59,2.59,0,0,0-1.39,0Z"/><path class="cls-3" d="M16.84,57.93c0-.06-.16-.13-.32-.17a1,1,0,0,1-.42-.22c-.08-.08-.57-1.42-1.11-3s-1-2.84-1-2.87-.17,0-.31.12a.67.67,0,0,0-.27.28c0,.12-1.45,3.94-1.83,4.85-.29.66-.4.77-.87.85-.09,0-.18.07-.19.12s.21.11,1,.11,1.06,0,1.06-.09-.06-.11-.42-.19c-.14,0-.23-.1-.23-.2a8.36,8.36,0,0,1,.67-1.89,5,5,0,0,1,1.86,0,7.6,7.6,0,0,1,.63,1.87c0,.07-.09.15-.22.18-.38.08-.44.11-.39.19A7.51,7.51,0,0,0,16.84,57.93Zm-3.27-2.76a4.34,4.34,0,0,1-.82,0,4.37,4.37,0,0,1,.27-.88c.41-1.12.52-1.39.56-1.34s.2.52.4,1.12l.37,1.09Z"/><path class="cls-3" d="M18.16,51.91c0,.07.13.15.33.2a.53.53,0,0,1,.4.28,32.21,32.21,0,0,1-.33,5.11c0,.15-.15.21-.4.25s-.32.1-.32.16.22.12,1.1.12S20,58,20,57.92a.47.47,0,0,0-.31-.14,1.48,1.48,0,0,1-.38-.11,20.49,20.49,0,0,1,0-3.78c0-.65.07-.73.14-.56l.67,1.46c1.11,2.37,1.46,3.15,1.46,3.23a.1.1,0,0,0,.11.09A20.84,20.84,0,0,0,23,55.68c.67-1.34,1.24-2.43,1.27-2.43a15.45,15.45,0,0,1,.07,2.09c0,2.3,0,2.33-.49,2.43-.15,0-.29.1-.3.16s.26.1,1.18.1,1.23,0,1.23-.13-.08-.12-.23-.12c-.47,0-.53-.12-.6-1.26,0-.58-.05-1.74-.06-2.59,0-1.74,0-1.75.58-1.85.19,0,.31-.1.31-.17s-.16-.12-.81-.12h-.8l-.13.42c-.08.22-.6,1.34-1.17,2.47-1,2-1,2.06-1.16,1.88a46.64,46.64,0,0,1-2.07-4.44l0-.33H19c-.65,0-.8,0-.8.12Z"/><path class="cls-3" d="M27.67,51.88c-.07.11-.05.12.29.21s.49.19.47,2.92,0,2.67-.6,2.76a.56.56,0,0,0-.34.15c0,.08.49.11,2.39.11H32.3l.18-.56a3.86,3.86,0,0,0,.18-.69c0-.26-.22-.13-.48.28a1.14,1.14,0,0,1-.53.52,4.49,4.49,0,0,1-2,0c-.34-.15-.38-.32-.35-1.63l0-1H30c.82,0,1,.06,1.07.47,0,.14.13.27.21.28s.13-.07.13-1,0-1-.14-1-.16.13-.19.3c-.09.42-.17.45-1,.45H29.3V52.15h.89c1,0,1.27.09,1.48.61.09.2.19.31.28.31s.15,0,.1-.46c0-.26-.07-.55-.09-.65l0-.18h-2.1a10.44,10.44,0,0,0-2.16.09Z"/><path class="cls-3" d="M2.45,52.68s-.29.08-.69.08c-.73,0-.81.05-.58.36.08.11.13.12.17.06s1-.12,1.07,0,.19.11.19-.25c0-.2,0-.36-.08-.36a.08.08,0,0,0-.08.08Z"/><path class="cls-3" d="M.4,52.81A.37.37,0,0,0,.34,53c0,.12,0,.15.18.13s.19-.08.19-.19a.19.19,0,0,0-.31-.15Z"/><path class="cls-3" d="M2.2,53.49a.17.17,0,0,0,.09.12c.13.09.09.49-.08.64a.68.68,0,0,1-.82,0c-.19-.18-.2-.31,0-.58s.13-.2-.06-.18-.31.36-.15.73a.72.72,0,0,0,.74.47.7.7,0,0,0,.63-1c-.09-.17-.33-.29-.33-.17Z"/><path class="cls-3" d="M1.85,55a1,1,0,0,0-.46.1.75.75,0,0,0,.49,1.36.67.67,0,0,0,.73-.72A.71.71,0,0,0,1.85,55Zm.42,1c-.36.25-1,.07-1-.28s.67-.53,1.06-.32A.36.36,0,0,1,2.27,56Z"/><path class="cls-3" d="M.36,56.71C0,56.78.1,57.8.54,57.91s.6,0,.94-.49S1.85,57,2,57c.48,0,.59.52.17.83s-.31.33,0,.26.43-.25.43-.66a.67.67,0,0,0-.67-.75c-.31,0-.53.17-.83.65-.16.25-.25.32-.44.32a.49.49,0,0,1-.33-.12.46.46,0,0,1,.16-.61c.16-.08.23-.25.1-.23l-.24.05Z"/></g></g></svg>