<svg xmlns="http://www.w3.org/2000/svg" viewBox="0 0 90.9 30.15"><defs><style>.cls-1{fill:#eb1f25;}.cls-2{fill:#eb2526;}.cls-3{fill:#030302;}.cls-4{fill:#030303;}.cls-5{fill:#040404;}.cls-6{fill:#2670b8;}.cls-7{fill:#eb2025;}.cls-8{fill:#020202;}</style></defs><g id="Layer_2" data-name="Layer 2"><g id="Layer_2-2" data-name="Layer 2"><path class="cls-1" d="M32,10.53a6.17,6.17,0,0,1-3.23,4.64,3.29,3.29,0,0,1-3.48-.2c-3.28-2.13-6.57-4.23-9.83-6.39A3.36,3.36,0,0,1,14,4.64,6.2,6.2,0,0,1,18,.19a1.69,1.69,0,0,1,1.53.17c3.87,2.2,7.52,4.74,11.21,7.2A3.32,3.32,0,0,1,32,10.53Z"/><path class="cls-2" d="M31.38,5.9,22.58.69V.32c1.41,0,2.83,0,4.25,0Q50.54.27,74.27.24c.54,0,1.32-.34,1.46.7s-.41,1.31-1.42,1.31q-20.43,0-40.84,0c-2.22,0-1.91-.35-2,1.91C31.44,4.66,31.41,5.17,31.38,5.9Z"/><path class="cls-3" d="M78.8.1C76.52-.16,76.36,0,76.3,2.24a2.8,2.8,0,0,0,0,.29c.09,1.1-.24,1.42-1.48,1.29-3.88-.38-6.44,1.27-7.39,4.51-.79,2.68,0,5.32,1.89,6.52s4.21,1,6.55-1c-.34,2.16,1.15,1.32,2,1.45.65.11,1.1,0,1.1-.88,0-4.47.19-8.93.59-13.39C79.62.43,79.45.17,78.8.1ZM76.06,8a10.73,10.73,0,0,1-.59,3.45,2.64,2.64,0,0,1-2.72,1.82,2.56,2.56,0,0,1-2.41-2.34,4.14,4.14,0,0,1,3.78-5C75.89,5.75,76.14,6,76.06,8Z"/><path class="cls-4" d="M54.47,5.44A6,6,0,0,1,60.7,4.07a2.64,2.64,0,0,1,2.17,2.6c0,2.67-.17,5.33-.24,8,0,.51-.25.68-.73.65a5.07,5.07,0,0,0-1,0c-1.21.18-1.63-.21-1.45-1.49.21-1.53.17-3.09.28-4.64.09-1.35-.23-2.42-1.74-2.76a3,3,0,0,0-3.3,1.83,13.2,13.2,0,0,0-.54,3.43c-.06.48,0,1-.07,1.45,0,2.36-.2,2.46-2.6,2.19-.6-.06-.71-.28-.67-.82.19-3.24.37-6.49.51-9.73,0-.6.29-.75.82-.72a9.14,9.14,0,0,0,1.17,0C54.24,4,54.87,4.16,54.47,5.44Z"/><path class="cls-5" d="M36.81,6.49c0-2.11,0-2.19,2-2.46A13,13,0,0,1,44,4,2.66,2.66,0,0,1,46.31,7c-.1,2.52-.3,5-.4,7.57,0,.65-.28.78-.88.81-2.26.13-2.24.15-2.16-2,0-1.16,0-2.32,0-3.55-1,.33-2.19.65-3.29,1.08-.8.3-1.57.8-1.35,1.81s1.12,1.09,2,1.07c.48,0,1-.07,1.45-.11.1,1.39-.56,2-1.86,2a5.19,5.19,0,0,1-3.62-.85c-1.75-1.47-1.25-4.14,1-5.29a23,23,0,0,1,4.47-1.34c.74-.22,1.46-.51,1.37-1.43s-.93-1-1.66-1.1A12.52,12.52,0,0,0,36.81,6.49Z"/><path class="cls-6" d="M90.9,7.65c0,.78-.23,1.2-1.09,1.07a3.23,3.23,0,0,0-.44,0c-3.16,0-3.15,0-3.26,3.09-.08,2.27-.24,4.55-.29,6.83-.07,2.71.9,3.51,3.57,3.09.36-.06,1-.56,1.07.13s.09,1.36-.59,1.65a5.72,5.72,0,0,1-5.47-.23c-1.48-.89-1.57-2.36-1.49-3.85.16-3.1.33-6.19.55-9.29.07-1,0-1.64-1.25-1.43-.58.1-1-.1-.85-.79.08-.51-.22-1.35.76-1.21,1.79.25,1.74-.82,1.58-2a11.1,11.1,0,0,1,2.73-1.58c.1,1.15-.56,2.6.2,3.35s2.13.2,3.25.2C90.6,6.67,90.93,6.84,90.9,7.65Z"/><path class="cls-7" d="M21.73,15.12c-6.76,0-13.51,0-20.27,0-.7,0-1.18,0-1.18-1s.6-.91,1.23-.91c3.29,0,6.57,0,9.85,0,1.22,0,1.67-.32,1.54-1.52-.07-.65,0-1.32,0-2.26l9,5.31Z"/><path class="cls-2" d="M90.76.37,86.43,3.12A11.1,11.1,0,0,0,83.7,4.7l-2,1C81.66,4,81.57,2.33,81.5.68c0-.5.27-.66.74-.66A74.4,74.4,0,0,1,90.76.37Z"/><path class="cls-8" d="M82.28,16.27c-.43-.5-1-.28-1.52-.28H1.62c-.55,0-1.2-.28-1.62.35H0c.22.9,1,.49,1.46.49q39.75,0,79.51,0c.43,0,1,.3,1.3-.28h0Z"/><path class="cls-6" d="M2.41,20.55a5.83,5.83,0,0,0-.86-.25A1.89,1.89,0,0,1,.79,20a.43.43,0,0,1-.15-.34.51.51,0,0,1,.21-.41,1.08,1.08,0,0,1,.67-.17,1,1,0,0,1,.67.19.81.81,0,0,1,.27.55l.49,0a1.22,1.22,0,0,0-.19-.6,1.1,1.1,0,0,0-.51-.41,1.89,1.89,0,0,0-.75-.14,2,2,0,0,0-.71.13,1,1,0,0,0-.48.39,1,1,0,0,0-.16.54.86.86,0,0,0,.13.48,1.12,1.12,0,0,0,.41.36,3,3,0,0,0,.74.24,5.19,5.19,0,0,1,.69.19.78.78,0,0,1,.35.22.51.51,0,0,1,.1.32.57.57,0,0,1-.11.33.71.71,0,0,1-.33.24,1.6,1.6,0,0,1-.51.08A1.38,1.38,0,0,1,1,22.07a.88.88,0,0,1-.39-.3,1,1,0,0,1-.16-.47l-.48,0A1.34,1.34,0,0,0,.21,22a1.24,1.24,0,0,0,.55.46,2.28,2.28,0,0,0,.88.15,1.78,1.78,0,0,0,.74-.15,1.18,1.18,0,0,0,.51-.42,1.12,1.12,0,0,0,.17-.58.94.94,0,0,0-.16-.55A1.15,1.15,0,0,0,2.41,20.55Z"/><path class="cls-6" d="M4.83,19.73A1.28,1.28,0,0,0,4,20a1.41,1.41,0,0,0-.43,1.14,1.5,1.5,0,0,0,.36,1.08,1.27,1.27,0,0,0,1,.38,1.42,1.42,0,0,0,.67-.17A1.2,1.2,0,0,0,6,22a1.84,1.84,0,0,0,.16-.85,1.45,1.45,0,0,0-.36-1A1.27,1.27,0,0,0,4.83,19.73ZM5.41,22a.77.77,0,0,1-1.17,0,1.14,1.14,0,0,1-.23-.8,1.16,1.16,0,0,1,.23-.8.73.73,0,0,1,.59-.26.77.77,0,0,1,.58.26,1.15,1.15,0,0,1,.24.79A1.19,1.19,0,0,1,5.41,22Z"/><path class="cls-6" d="M8.27,22.08a.73.73,0,0,1-1-.09A1.25,1.25,0,0,1,7,21.18a1.21,1.21,0,0,1,.22-.81.74.74,0,0,1,.58-.26.57.57,0,0,1,.4.15.71.71,0,0,1,.23.42l.46-.07A1,1,0,0,0,8.55,20a1.11,1.11,0,0,0-.74-.23,1.41,1.41,0,0,0-.67.16,1.12,1.12,0,0,0-.45.51,2,2,0,0,0-.15.79,1.51,1.51,0,0,0,.35,1.07,1.2,1.2,0,0,0,.92.38,1.15,1.15,0,0,0,.77-.27A1.22,1.22,0,0,0,9,21.61l-.47-.06A.84.84,0,0,1,8.27,22.08Z"/><rect class="cls-6" x="9.37" y="19.79" width="0.47" height="2.79"/><rect class="cls-6" x="9.37" y="18.73" width="0.47" height="0.54"/><path class="cls-6" d="M12.53,22.4a1.22,1.22,0,0,0,.43-.66l-.49-.06a.88.88,0,0,1-.29.43.72.72,0,0,1-.44.14.79.79,0,0,1-.59-.24,1.14,1.14,0,0,1-.26-.71H13v-.12a1.49,1.49,0,0,0-.35-1.07,1.17,1.17,0,0,0-.91-.38,1.24,1.24,0,0,0-.94.38,1.57,1.57,0,0,0-.36,1.1,1.5,1.5,0,0,0,.35,1.05,1.3,1.3,0,0,0,1,.38A1.27,1.27,0,0,0,12.53,22.4Zm-1.36-2.07a.76.76,0,0,1,.54-.22.72.72,0,0,1,.59.28.89.89,0,0,1,.18.52H10.92A.89.89,0,0,1,11.17,20.33Z"/><polygon class="cls-6" points="12.4 18.71 11.78 18.71 11.43 19.44 11.82 19.44 12.4 18.71"/><path class="cls-6" d="M14.38,22.17a.4.4,0,0,1-.17,0,.39.39,0,0,1-.08-.1,1.07,1.07,0,0,1,0-.25V20.16h.47v-.37h-.47v-1l-.47.28v.69h-.35v.37h.35v1.6a1.67,1.67,0,0,0,.06.56.4.4,0,0,0,.2.21.81.81,0,0,0,.39.08,1.59,1.59,0,0,0,.36,0l-.07-.42Z"/><polygon class="cls-6" points="16.88 18.71 16.26 18.71 15.91 19.44 16.3 19.44 16.88 18.71"/><path class="cls-6" d="M16.21,22.64a1.27,1.27,0,0,0,.8-.24,1.22,1.22,0,0,0,.43-.66L17,21.68a.88.88,0,0,1-.29.43.72.72,0,0,1-.44.14.79.79,0,0,1-.59-.24,1.08,1.08,0,0,1-.25-.71h2.07c0-.05,0-.1,0-.12a1.49,1.49,0,0,0-.36-1.07,1.16,1.16,0,0,0-.91-.38,1.24,1.24,0,0,0-.94.38,1.57,1.57,0,0,0-.36,1.1,1.45,1.45,0,0,0,.36,1.05A1.26,1.26,0,0,0,16.21,22.64Zm-.56-2.31a.76.76,0,0,1,.54-.22.72.72,0,0,1,.59.28.89.89,0,0,1,.18.52H15.4A.89.89,0,0,1,15.65,20.33Z"/><path class="cls-6" d="M21.89,22.57h.58l-1.58-3.84h-.55l-1.47,3.84h.54l.42-1.16h1.61ZM20,21l.42-1.13a5.13,5.13,0,0,0,.21-.74c.06.21.15.48.27.8l.4,1.07Z"/><rect class="cls-6" x="22.8" y="18.73" width="0.47" height="3.85"/><path class="cls-6" d="M25,22.57a1,1,0,0,0,.77-.36,3.84,3.84,0,0,1,0,.61.67.67,0,0,1-.25.36,1,1,0,0,1-1,0,.41.41,0,0,1-.16-.31l-.46-.06a.73.73,0,0,0,.3.67,1.31,1.31,0,0,0,.8.23,1.52,1.52,0,0,0,.71-.16,1,1,0,0,0,.42-.43,2.26,2.26,0,0,0,.13-.92V19.79h-.44v.33a1,1,0,0,0-.81-.39,1.12,1.12,0,0,0-.64.18,1.15,1.15,0,0,0-.42.52,1.78,1.78,0,0,0-.15.74,1.61,1.61,0,0,0,.32,1A1,1,0,0,0,25,22.57Zm-.5-2.2a.69.69,0,0,1,.54-.25.67.67,0,0,1,.54.26,1.45,1.45,0,0,1,0,1.55.7.7,0,0,1-.55.25.66.66,0,0,1-.54-.25,1.18,1.18,0,0,1-.22-.8A1.13,1.13,0,0,1,24.53,20.37Z"/><path class="cls-6" d="M28.14,19.73a1.24,1.24,0,0,0-.94.38,1.57,1.57,0,0,0-.36,1.1,1.5,1.5,0,0,0,.35,1.05,1.3,1.3,0,0,0,1,.38,1.27,1.27,0,0,0,.8-.24,1.22,1.22,0,0,0,.43-.66l-.49-.06a.88.88,0,0,1-.29.43.72.72,0,0,1-.44.14.79.79,0,0,1-.59-.24,1.14,1.14,0,0,1-.26-.71H29.4v-.12a1.49,1.49,0,0,0-.35-1.07A1.17,1.17,0,0,0,28.14,19.73Zm-.79,1.18a.89.89,0,0,1,.25-.58.76.76,0,0,1,.54-.22.72.72,0,0,1,.59.28.89.89,0,0,1,.18.52Z"/><polygon class="cls-6" points="28.83 18.71 28.21 18.71 27.86 19.44 28.25 19.44 28.83 18.71"/><path class="cls-6" d="M30.45,21.12a1.59,1.59,0,0,1,.08-.55.48.48,0,0,1,.17-.26.44.44,0,0,1,.28-.1.68.68,0,0,1,.35.11l.16-.44a.93.93,0,0,0-.49-.15.53.53,0,0,0-.3.09,1.13,1.13,0,0,0-.3.39v-.42H30v2.78h.47Z"/><rect class="cls-6" x="31.77" y="18.73" width="0.47" height="0.54"/><rect class="cls-6" x="31.77" y="19.79" width="0.47" height="2.79"/><path class="cls-6" d="M35.36,21.74l-.49-.06a.88.88,0,0,1-.29.43.72.72,0,0,1-.44.14.79.79,0,0,1-.59-.24,1.14,1.14,0,0,1-.26-.71h2.08c0-.05,0-.1,0-.12A1.49,1.49,0,0,0,35,20.11a1.17,1.17,0,0,0-.91-.38,1.24,1.24,0,0,0-.94.38,1.57,1.57,0,0,0-.36,1.1,1.45,1.45,0,0,0,.36,1.05,1.42,1.42,0,0,0,1.76.14A1.22,1.22,0,0,0,35.36,21.74Zm-1.79-1.41a.76.76,0,0,1,.54-.22.72.72,0,0,1,.59.28.89.89,0,0,1,.18.52H33.32A.89.89,0,0,1,33.57,20.33Z"/><path class="cls-6" d="M36.42,21.05a1,1,0,0,1,.22-.72.76.76,0,0,1,.52-.19.58.58,0,0,1,.33.08.45.45,0,0,1,.2.23,1.2,1.2,0,0,1,.05.43v1.69h.48V20.86a2.39,2.39,0,0,0,0-.46,1,1,0,0,0-.15-.35.76.76,0,0,0-.31-.23,1.19,1.19,0,0,0-.47-.09,1,1,0,0,0-.88.45v-.39H36v2.78h.47Z"/><path class="cls-6" d="M39.41,21.05a1,1,0,0,1,.22-.72.76.76,0,0,1,.52-.19.58.58,0,0,1,.33.08.45.45,0,0,1,.2.23,1.48,1.48,0,0,1,0,.43v1.69h.47V20.86a2.64,2.64,0,0,0,0-.46,1,1,0,0,0-.15-.35.74.74,0,0,0-.32-.23,1.14,1.14,0,0,0-.46-.09,1,1,0,0,0-.88.45v-.39h-.43v2.78h.47Z"/><path class="cls-6" d="M43.1,22.64a1.29,1.29,0,0,0,.8-.24,1.2,1.2,0,0,0,.42-.66l-.48-.06a.89.89,0,0,1-.3.43.72.72,0,0,1-.44.14.77.77,0,0,1-.58-.24,1.09,1.09,0,0,1-.26-.71h2.08v-.12A1.49,1.49,0,0,0,44,20.11a1.16,1.16,0,0,0-.91-.38,1.26,1.26,0,0,0-.94.38,1.57,1.57,0,0,0-.36,1.1,1.45,1.45,0,0,0,.36,1.05A1.28,1.28,0,0,0,43.1,22.64Zm-.57-2.31a.78.78,0,0,1,.55-.22.7.7,0,0,1,.58.28.89.89,0,0,1,.18.52H42.28A.89.89,0,0,1,42.53,20.33Z"/><path class="cls-6" d="M48.65,22.57V18.73h-.47v1.38a.88.88,0,0,0-.32-.28.92.92,0,0,0-.44-.1,1.16,1.16,0,0,0-.63.18,1.08,1.08,0,0,0-.41.52,2,2,0,0,0,0,1.51,1.2,1.2,0,0,0,.43.51,1.08,1.08,0,0,0,.62.19.87.87,0,0,0,.78-.42v.35ZM48,22A.67.67,0,0,1,47,22a1.19,1.19,0,0,1-.23-.8,1.31,1.31,0,0,1,.21-.81.69.69,0,0,1,1.07,0,1.3,1.3,0,0,1,.22.84A1.21,1.21,0,0,1,48,22Z"/><path class="cls-6" d="M51.3,21.68a.82.82,0,0,1-.29.43.72.72,0,0,1-.44.14A.77.77,0,0,1,50,22a1,1,0,0,1-.26-.71H51.8a.62.62,0,0,0,0-.12,1.49,1.49,0,0,0-.36-1.07,1.16,1.16,0,0,0-.91-.38,1.26,1.26,0,0,0-.94.38,1.57,1.57,0,0,0-.36,1.1,1.45,1.45,0,0,0,.36,1.05,1.28,1.28,0,0,0,1,.38,1.24,1.24,0,0,0,.79-.24,1.22,1.22,0,0,0,.43-.66ZM50,20.33a.78.78,0,0,1,.55-.22.7.7,0,0,1,.58.28.89.89,0,0,1,.18.52H49.75A.89.89,0,0,1,50,20.33Z"/><polygon class="cls-6" points="54.42 19.55 56.44 22.57 56.96 22.57 56.96 18.73 56.47 18.73 56.47 21.75 54.45 18.73 53.93 18.73 53.93 22.57 54.42 22.57 54.42 19.55"/><path class="cls-6" d="M58.93,22.64a1.24,1.24,0,0,0,.79-.24,1.17,1.17,0,0,0,.43-.66l-.49-.06a.82.82,0,0,1-.29.43.72.72,0,0,1-.44.14.77.77,0,0,1-.58-.24,1.09,1.09,0,0,1-.26-.71h2.08v-.12a1.49,1.49,0,0,0-.36-1.07,1.16,1.16,0,0,0-.91-.38,1.26,1.26,0,0,0-.94.38,1.57,1.57,0,0,0-.36,1.1A1.45,1.45,0,0,0,58,22.26,1.28,1.28,0,0,0,58.93,22.64Zm-.57-2.31a.78.78,0,0,1,.55-.22.7.7,0,0,1,.58.28.89.89,0,0,1,.18.52H58.11A.89.89,0,0,1,58.36,20.33Z"/><polygon class="cls-6" points="59.59 18.71 58.97 18.71 58.62 19.44 59.01 19.44 59.59 18.71"/><path class="cls-6" d="M63,20.43a1.08,1.08,0,0,0-.41-.52,1.11,1.11,0,0,0-.63-.18,1,1,0,0,0-.46.1,1,1,0,0,0-.34.32v-.36h-.43v3.85h.47V22.29a1,1,0,0,0,.31.25.93.93,0,0,0,.42.1,1.14,1.14,0,0,0,.61-.18,1.17,1.17,0,0,0,.45-.53,1.89,1.89,0,0,0,.15-.77A1.73,1.73,0,0,0,63,20.43ZM62.46,22a.67.67,0,0,1-1.07,0,1.22,1.22,0,0,1-.22-.79,1.29,1.29,0,0,1,.23-.82.69.69,0,0,1,.54-.28.63.63,0,0,1,.52.26,1.21,1.21,0,0,1,.22.8A1.24,1.24,0,0,1,62.46,22Z"/><path class="cls-6" d="M66,22.57V20.81a1.53,1.53,0,0,0-.1-.63.68.68,0,0,0-.32-.33,1.13,1.13,0,0,0-.54-.12,1,1,0,0,0-.83.38V18.73h-.48v3.84h.48V21.05a1.39,1.39,0,0,1,.07-.51.61.61,0,0,1,.27-.3.77.77,0,0,1,.39-.11.62.62,0,0,1,.44.16.75.75,0,0,1,.15.52v1.76Z"/><path class="cls-6" d="M67.19,21.12a1.59,1.59,0,0,1,.08-.55.48.48,0,0,1,.17-.26.42.42,0,0,1,.28-.1.68.68,0,0,1,.35.11l.16-.44a.93.93,0,0,0-.49-.15.53.53,0,0,0-.3.09,1.13,1.13,0,0,0-.3.39v-.42h-.42v2.78h.47Z"/><path class="cls-6" d="M70.31,22.47a1.14,1.14,0,0,0,.47-.48,1.84,1.84,0,0,0,.16-.85,1.45,1.45,0,0,0-.36-1,1.25,1.25,0,0,0-.94-.37,1.3,1.3,0,0,0-.88.31,1.44,1.44,0,0,0-.43,1.14,1.46,1.46,0,0,0,.37,1.08,1.24,1.24,0,0,0,.94.38A1.39,1.39,0,0,0,70.31,22.47ZM69.05,22a1.19,1.19,0,0,1-.23-.8,1.21,1.21,0,0,1,.23-.8.74.74,0,0,1,.59-.26.75.75,0,0,1,.58.26,1.15,1.15,0,0,1,.24.79,1.24,1.24,0,0,1-.23.81.78.78,0,0,1-1.18,0Z"/><rect class="cls-6" x="71.49" y="18.73" width="0.47" height="3.85"/><path class="cls-6" d="M73.82,19.73A1.27,1.27,0,0,0,73,20a1.41,1.41,0,0,0-.43,1.14,1.5,1.5,0,0,0,.36,1.08,1.24,1.24,0,0,0,.94.38,1.43,1.43,0,0,0,.68-.17A1.18,1.18,0,0,0,75,22a1.83,1.83,0,0,0,.17-.85,1.45,1.45,0,0,0-.37-1A1.24,1.24,0,0,0,73.82,19.73ZM74.41,22a.75.75,0,0,1-.59.27.76.76,0,0,1-.59-.27,1.19,1.19,0,0,1-.23-.8,1.21,1.21,0,0,1,.23-.8.75.75,0,0,1,.59-.26.79.79,0,0,1,.59.26,1.2,1.2,0,0,1,.23.79A1.24,1.24,0,0,1,74.41,22Z"/><path class="cls-6" d="M77.52,20.12a1,1,0,0,0-.81-.39,1.15,1.15,0,0,0-.65.18,1.21,1.21,0,0,0-.42.52,2,2,0,0,0-.14.74,1.6,1.6,0,0,0,.31,1,1,1,0,0,0,.89.41,1,1,0,0,0,.77-.36,2.89,2.89,0,0,1,0,.61.61.61,0,0,1-.24.36.84.84,0,0,1-.51.13.78.78,0,0,1-.48-.13.41.41,0,0,1-.16-.31l-.46-.06a.76.76,0,0,0,.3.67,1.31,1.31,0,0,0,.8.23,1.52,1.52,0,0,0,.71-.16,1,1,0,0,0,.42-.43A2.26,2.26,0,0,0,78,22.2V19.79h-.43Zm-.23,1.81a.68.68,0,0,1-.54.25.7.7,0,0,1-.55-.25,1.23,1.23,0,0,1-.22-.8,1.19,1.19,0,0,1,.22-.76.71.71,0,0,1,1.09,0,1.48,1.48,0,0,1,0,1.55Z"/><rect class="cls-6" x="78.67" y="18.73" width="0.47" height="0.54"/><rect class="cls-6" x="78.67" y="19.79" width="0.47" height="2.79"/><path class="cls-6" d="M82.27,21.18a1.53,1.53,0,0,0-.35-1.07,1.18,1.18,0,0,0-.92-.38,1.24,1.24,0,0,0-.93.38,1.53,1.53,0,0,0-.37,1.1,1.45,1.45,0,0,0,.36,1.05,1.44,1.44,0,0,0,1.77.14,1.22,1.22,0,0,0,.43-.66l-.49-.06a.88.88,0,0,1-.29.43.75.75,0,0,1-.45.14.78.78,0,0,1-.58-.24,1.14,1.14,0,0,1-.26-.71h2.08Zm-2-.27a.88.88,0,0,1,.24-.58.78.78,0,0,1,.55-.22.73.73,0,0,1,.59.28,1,1,0,0,1,.17.52Z"/><path class="cls-6" d="M2.57,25.51A1.19,1.19,0,0,0,2,25.23a3.13,3.13,0,0,0-.69-.05H0V29H1.39A2.9,2.9,0,0,0,2,29a1.43,1.43,0,0,0,.45-.2,1.17,1.17,0,0,0,.35-.35,1.72,1.72,0,0,0,.27-.56,2.57,2.57,0,0,0,.1-.77A2.65,2.65,0,0,0,3,26.16,1.52,1.52,0,0,0,2.57,25.51Zm0,2.3a1.17,1.17,0,0,1-.28.49.93.93,0,0,1-.34.2,2.35,2.35,0,0,1-.6.07H.51V25.63h.81a2.09,2.09,0,0,1,.66.08,1.08,1.08,0,0,1,.48.43,1.84,1.84,0,0,1,.19.93A2.28,2.28,0,0,1,2.55,27.81Z"/><rect class="cls-6" x="4.8" y="26.24" width="0.47" height="2.79"/><rect class="cls-6" x="4.8" y="25.18" width="0.47" height="0.54"/><path class="cls-6" d="M9.61,27.85v-.63a3.66,3.66,0,0,0,0-.43.73.73,0,0,0-.15-.32.67.67,0,0,0-.33-.21,1.57,1.57,0,0,0-.58-.09,2,2,0,0,0-.63.1,1,1,0,0,0-.42.28,1.18,1.18,0,0,0-.2.48l.46.06A.77.77,0,0,1,8,26.68a.82.82,0,0,1,.49-.12.83.83,0,0,1,.54.16.53.53,0,0,1,.14.41s0,.06,0,.12a4,4,0,0,1-.84.17,2.24,2.24,0,0,0-.42.07,1,1,0,0,0-.34.15.78.78,0,0,0-.24.27.83.83,0,0,0-.1.38.76.76,0,0,0,.25.57,1,1,0,0,0,.71.22A1.5,1.5,0,0,0,8.67,29a1.63,1.63,0,0,0,.5-.31,1.13,1.13,0,0,0,.1.34h.49a1,1,0,0,1-.12-.33A6.9,6.9,0,0,1,9.61,27.85Zm-.48-.05a1.19,1.19,0,0,1-.07.47.73.73,0,0,1-.32.33,1.06,1.06,0,0,1-.48.11.66.66,0,0,1-.42-.12.43.43,0,0,1-.08-.54A.4.4,0,0,1,8,27.9a1.61,1.61,0,0,1,.41-.1,3.51,3.51,0,0,0,.77-.18Z"/><rect class="cls-6" x="11.68" y="25.18" width="0.47" height="3.85"/><path class="cls-6" d="M15.57,27.86c-.07.21-.14.42-.19.63-.06-.22-.13-.44-.2-.64l-.58-1.61h-.51L15.14,29a.43.43,0,0,1,0,.11,1.55,1.55,0,0,1-.14.35.33.33,0,0,1-.16.15.44.44,0,0,1-.25.05.93.93,0,0,1-.27,0l.05.44a1,1,0,0,0,.31.06A.64.64,0,0,0,15,30a.91.91,0,0,0,.29-.34,5.63,5.63,0,0,0,.26-.63l1.06-2.83h-.47Z"/><path class="cls-6" d="M19.54,27.55a5,5,0,0,0-.7-.22l-.42-.12a.41.41,0,0,1-.18-.12.26.26,0,0,1,0-.17.3.3,0,0,1,.13-.25.81.81,0,0,1,.47-.11.71.71,0,0,1,.43.12.5.5,0,0,1,.18.34l.46-.07a1,1,0,0,0-.16-.43.81.81,0,0,0-.37-.25,1.47,1.47,0,0,0-.58-.1,1.29,1.29,0,0,0-.4.06.84.84,0,0,0-.3.14.75.75,0,0,0-.24.26.82.82,0,0,0-.08.35.69.69,0,0,0,.1.37.67.67,0,0,0,.31.26,3.8,3.8,0,0,0,.72.23,2.49,2.49,0,0,1,.48.16.3.3,0,0,1,.14.25.37.37,0,0,1-.16.31.71.71,0,0,1-.48.14.75.75,0,0,1-.5-.15.64.64,0,0,1-.22-.43l-.47.07a1,1,0,0,0,.36.67,1.32,1.32,0,0,0,.83.22,1.38,1.38,0,0,0,.59-.11,1,1,0,0,0,.4-.32A.81.81,0,0,0,20,28.2a.65.65,0,0,0-.11-.4A.7.7,0,0,0,19.54,27.55Z"/><path class="cls-6" d="M22.27,26.17a1.21,1.21,0,0,0-.94.39A1.54,1.54,0,0,0,21,27.65a1.5,1.5,0,0,0,.35,1.06,1.29,1.29,0,0,0,1,.37,1.27,1.27,0,0,0,.8-.23,1.21,1.21,0,0,0,.43-.67L23,28.12a.92.92,0,0,1-.29.44.72.72,0,0,1-.44.14.76.76,0,0,1-.59-.25,1.09,1.09,0,0,1-.26-.7h2.08v-.13a1.5,1.5,0,0,0-.35-1.07A1.21,1.21,0,0,0,22.27,26.17Zm-.79,1.19a.86.86,0,0,1,.25-.58.72.72,0,0,1,.54-.22.74.74,0,0,1,.59.27,1,1,0,0,1,.18.53Z"/><path class="cls-6" d="M30.06,28.15a3.05,3.05,0,0,0,.34-.83l-.49-.11a2.63,2.63,0,0,1-.19.54L29,26.87c.49-.26.73-.57.73-.94a.77.77,0,0,0-.25-.58.89.89,0,0,0-.64-.24,1,1,0,0,0-.69.26.8.8,0,0,0-.27.6.87.87,0,0,0,.09.36,2.59,2.59,0,0,0,.34.48,2,2,0,0,0-.68.51,1,1,0,0,0-.23.64,1.08,1.08,0,0,0,.28.73,1.19,1.19,0,0,0,.94.4,1.45,1.45,0,0,0,.59-.13,1.58,1.58,0,0,0,.51-.39,2.61,2.61,0,0,0,.59.54l.32-.37A2.58,2.58,0,0,1,30.06,28.15Zm-1.54-2.53a.47.47,0,0,1,.32-.12.41.41,0,0,1,.31.12.42.42,0,0,1,.13.32.56.56,0,0,1-.09.31,1.21,1.21,0,0,1-.4.31l-.21-.24a.85.85,0,0,1-.14-.21.43.43,0,0,1,0-.19A.41.41,0,0,1,28.52,25.62Zm.57,2.92a.85.85,0,0,1-.44.13.62.62,0,0,1-.53-.25.85.85,0,0,1-.18-.49.67.67,0,0,1,.13-.38,1.61,1.61,0,0,1,.52-.43l.86,1.08A1.07,1.07,0,0,1,29.09,28.54Z"/><polygon class="cls-6" points="33.35 25.63 34.62 25.63 34.62 29.02 35.13 29.02 35.13 25.63 36.4 25.63 36.4 25.18 33.35 25.18 33.35 25.63"/><path class="cls-6" d="M38.15,26.27a1.13,1.13,0,0,0-.3.39v-.42h-.43V29h.48V27.56A1.63,1.63,0,0,1,38,27a.52.52,0,0,1,.17-.26.47.47,0,0,1,.28-.09.69.69,0,0,1,.35.1l.16-.44a1,1,0,0,0-.49-.15A.47.47,0,0,0,38.15,26.27Z"/><path class="cls-6" d="M42.62,27.85v-.63a3.66,3.66,0,0,0,0-.43.73.73,0,0,0-.15-.32.67.67,0,0,0-.33-.21,1.57,1.57,0,0,0-.58-.09,2,2,0,0,0-.63.1,1,1,0,0,0-.42.28,1.34,1.34,0,0,0-.21.48l.47.06a.77.77,0,0,1,.23-.41,1,1,0,0,1,1,0,.53.53,0,0,1,.13.41v.12a4,4,0,0,1-.84.17,2.24,2.24,0,0,0-.42.07,1,1,0,0,0-.34.15.78.78,0,0,0-.24.27.72.72,0,0,0-.1.38.76.76,0,0,0,.25.57,1,1,0,0,0,.71.22,1.54,1.54,0,0,0,.52-.09,1.63,1.63,0,0,0,.5-.31.9.9,0,0,0,.1.34h.49a1,1,0,0,1-.12-.33A6.9,6.9,0,0,1,42.62,27.85Zm-.48-.05a1.19,1.19,0,0,1-.07.47.73.73,0,0,1-.32.33,1.06,1.06,0,0,1-.48.11.62.62,0,0,1-.42-.12.4.4,0,0,1-.14-.32.43.43,0,0,1,.06-.22A.4.4,0,0,1,41,27.9a1.61,1.61,0,0,1,.41-.1,3.51,3.51,0,0,0,.77-.18Z"/><path class="cls-6" d="M45.75,26.5a.73.73,0,0,0-.32-.24,1.14,1.14,0,0,0-.46-.09,1,1,0,0,0-.89.46v-.39h-.42V29h.47V27.5a.94.94,0,0,1,.22-.73.81.81,0,0,1,.52-.19.58.58,0,0,1,.33.09.45.45,0,0,1,.2.23,1.43,1.43,0,0,1,.05.43V29h.47V27.31a4.32,4.32,0,0,0,0-.46A.93.93,0,0,0,45.75,26.5Z"/><path class="cls-6" d="M48.83,27.55a5.49,5.49,0,0,0-.7-.22l-.42-.12a.41.41,0,0,1-.18-.12.27.27,0,0,1-.06-.17.31.31,0,0,1,.14-.25.79.79,0,0,1,.47-.11.66.66,0,0,1,.42.12.55.55,0,0,1,.19.34l.46-.07a1,1,0,0,0-.17-.43.77.77,0,0,0-.36-.25,1.5,1.5,0,0,0-.58-.1,1.4,1.4,0,0,0-.41.06,1,1,0,0,0-.3.14.83.83,0,0,0-.23.26A.82.82,0,0,0,47,27a.69.69,0,0,0,.1.37.7.7,0,0,0,.3.26,4.39,4.39,0,0,0,.72.23,2.69,2.69,0,0,1,.49.16.3.3,0,0,1,.14.25.4.4,0,0,1-.16.31.74.74,0,0,1-.48.14.78.78,0,0,1-.51-.15.69.69,0,0,1-.22-.43l-.46.07a1,1,0,0,0,.36.67,1.32,1.32,0,0,0,.83.22,1.41,1.41,0,0,0,.59-.11.89.89,0,0,0,.39-.32.75.75,0,0,0,.14-.45.72.72,0,0,0-.11-.4A.76.76,0,0,0,48.83,27.55Z"/><path class="cls-6" d="M52.06,26.36a1,1,0,0,0-.63-.19,1,1,0,0,0-.47.11,1.13,1.13,0,0,0-.34.32v-.36h-.43v3.85h.47V28.73A1,1,0,0,0,51,29a.87.87,0,0,0,.42.1A1.17,1.17,0,0,0,52,28.9a1.21,1.21,0,0,0,.45-.52,1.92,1.92,0,0,0,.15-.77,2,2,0,0,0-.14-.74A1.1,1.1,0,0,0,52.06,26.36Zm-.16,2.07a.68.68,0,0,1-.54.27.66.66,0,0,1-.52-.26,1.19,1.19,0,0,1-.22-.8,1.25,1.25,0,0,1,.23-.82.69.69,0,0,1,.53-.28.66.66,0,0,1,.53.27,1.57,1.57,0,0,1,0,1.62Z"/><rect class="cls-6" x="54.47" y="25.18" width="0.47" height="3.85"/><path class="cls-6" d="M59.14,27.85v-.63a3.66,3.66,0,0,0,0-.43.73.73,0,0,0-.15-.32.67.67,0,0,0-.33-.21,1.57,1.57,0,0,0-.58-.09,2,2,0,0,0-.63.1,1,1,0,0,0-.42.28,1.18,1.18,0,0,0-.2.48l.46.06a.77.77,0,0,1,.23-.41.84.84,0,0,1,.5-.12.82.82,0,0,1,.53.16.53.53,0,0,1,.14.41.68.68,0,0,1,0,.12,4,4,0,0,1-.84.17,2.58,2.58,0,0,0-.42.07,1,1,0,0,0-.34.15.78.78,0,0,0-.24.27.82.82,0,0,0-.09.38.75.75,0,0,0,.24.57,1,1,0,0,0,.71.22A1.5,1.5,0,0,0,58.2,29a1.63,1.63,0,0,0,.5-.31,1.13,1.13,0,0,0,.1.34h.49a1,1,0,0,1-.12-.33A6.9,6.9,0,0,1,59.14,27.85Zm-.48-.05a1.19,1.19,0,0,1-.07.47.76.76,0,0,1-.31.33,1.14,1.14,0,0,1-.49.11.66.66,0,0,1-.42-.12.43.43,0,0,1-.08-.54.4.4,0,0,1,.19-.15,1.61,1.61,0,0,1,.41-.1,3.37,3.37,0,0,0,.77-.18Z"/><path class="cls-6" d="M62.27,26.5a.7.7,0,0,0-.31-.24,1.23,1.23,0,0,0-.47-.09,1,1,0,0,0-.88.46v-.39h-.43V29h.47V27.5a1,1,0,0,1,.22-.73.81.81,0,0,1,.52-.19.58.58,0,0,1,.33.09.41.41,0,0,1,.2.23,1.43,1.43,0,0,1,0,.43V29h.47V27.31a2.64,2.64,0,0,0,0-.46A.93.93,0,0,0,62.27,26.5Z"/><path class="cls-6" d="M65,28.62a.25.25,0,0,1-.16,0,.18.18,0,0,1-.08-.09.68.68,0,0,1,0-.26V26.6h.48v-.36h-.48v-1l-.47.29v.69h-.34v.36h.34v1.61a1.6,1.6,0,0,0,.06.55.53.53,0,0,0,.2.22.89.89,0,0,0,.4.08,2.63,2.63,0,0,0,.36,0l-.07-.42Z"/><path class="cls-6" d="M69.06,27.85v-.63a2,2,0,0,0,0-.43.73.73,0,0,0-.15-.32.64.64,0,0,0-.32-.21,1.61,1.61,0,0,0-.58-.09,2.1,2.1,0,0,0-.64.1.91.91,0,0,0-.41.28,1.06,1.06,0,0,0-.21.48l.46.06a.71.71,0,0,1,.24-.41.8.8,0,0,1,.49-.12.83.83,0,0,1,.54.16.53.53,0,0,1,.13.41v.12a4,4,0,0,1-.84.17,2.24,2.24,0,0,0-.42.07,1,1,0,0,0-.34.15.81.81,0,0,0-.25.27.82.82,0,0,0-.09.38.72.72,0,0,0,.25.57,1,1,0,0,0,.7.22,1.46,1.46,0,0,0,.52-.09,1.79,1.79,0,0,0,.51-.31.9.9,0,0,0,.09.34h.49a1.28,1.28,0,0,1-.11-.33A6.9,6.9,0,0,1,69.06,27.85Zm-.48-.05a1.17,1.17,0,0,1-.08.47.71.71,0,0,1-.31.33,1.07,1.07,0,0,1-.49.11.61.61,0,0,1-.41-.12.41.41,0,0,1-.15-.32.36.36,0,0,1,.07-.22.34.34,0,0,1,.18-.15,1.71,1.71,0,0,1,.42-.1,3.51,3.51,0,0,0,.77-.18Z"/><path class="cls-6" d="M71.63,28.62a.25.25,0,0,1-.16,0,.14.14,0,0,1-.08-.09.68.68,0,0,1,0-.26V26.6h.48v-.36h-.48v-1l-.47.29v.69h-.34v.36h.34v1.61a1.6,1.6,0,0,0,.06.55.53.53,0,0,0,.2.22.86.86,0,0,0,.4.08,2.81,2.81,0,0,0,.36,0l-.07-.42Z"/><rect class="cls-6" x="74.29" y="25.18" width="0.47" height="0.54"/><rect class="cls-6" x="74.29" y="26.24" width="0.47" height="2.79"/><path class="cls-6" d="M77.84,26.17a1.33,1.33,0,0,0-.88.31,1.43,1.43,0,0,0-.43,1.15,1.5,1.5,0,0,0,.36,1.08,1.26,1.26,0,0,0,1,.37,1.31,1.31,0,0,0,.67-.17,1.12,1.12,0,0,0,.47-.47,1.84,1.84,0,0,0,.16-.85,1.45,1.45,0,0,0-.36-1A1.27,1.27,0,0,0,77.84,26.17Zm.58,2.26a.77.77,0,0,1-1.17,0,1.51,1.51,0,0,1,0-1.6.74.74,0,0,1,.59-.27.74.74,0,0,1,.58.27,1.14,1.14,0,0,1,.24.78A1.2,1.2,0,0,1,78.42,28.43Z"/><path class="cls-6" d="M82.1,26.5a.73.73,0,0,0-.32-.24,1.14,1.14,0,0,0-.46-.09,1,1,0,0,0-.89.46v-.39H80V29h.47V27.5a.94.94,0,0,1,.22-.73.81.81,0,0,1,.52-.19.58.58,0,0,1,.33.09.39.39,0,0,1,.19.23,1.12,1.12,0,0,1,.06.43V29h.47V27.31a4.32,4.32,0,0,0,0-.46A.93.93,0,0,0,82.1,26.5Z"/></g></g></svg>