<svg xmlns="http://www.w3.org/2000/svg" viewBox="0 0 58.24 58.24"><defs><style>.cls-1{fill:#901c42;}.cls-2{fill:#7c2b45;}.cls-3{fill:#792a44;}.cls-4{fill:#792b44;}.cls-5{fill:#742d45;}.cls-6{fill:#732d44;}.cls-7{fill:#742d44;}.cls-8{fill:#742942;}.cls-9{fill:#8f1c42;}.cls-10{fill:#154b5c;}.cls-11{fill:#164b5b;}.cls-12{fill:#164b5c;}.cls-13{fill:#154b5b;}.cls-14{fill:#174b5a;}.cls-15{fill:#174b5b;}.cls-16{fill:#164c5b;}.cls-17{fill:#164c5a;}.cls-18{fill:#174c5c;}.cls-19{fill:#164b5d;}.cls-20{fill:#174b5d;}.cls-21{fill:#174c5a;}.cls-22{fill:#174b5c;}.cls-23{fill:#174c5d;}.cls-24{fill:#174c5b;}.cls-25{fill:#194c59;}.cls-26{fill:#164b5e;}.cls-27{fill:#194c5b;}.cls-28{fill:#194b5e;}.cls-29{fill:#1a4c5b;}.cls-30{fill:#1a4d5a;}.cls-31{fill:#1c4d59;}.cls-32{fill:#184b5e;}.cls-33{fill:#1a4d59;}.cls-34{fill:#1a4e58;}.cls-35{fill:#194d59;}.cls-36{fill:#154a5e;}.cls-37{fill:#1e4f59;}.cls-38{fill:#1a4d58;}.cls-39{fill:#1e4e5d;}.cls-40{fill:#1d4e5c;}.cls-41{fill:#1f4d5c;}.cls-42{fill:#1e4d5c;}.cls-43{fill:#16495f;}.cls-44{fill:#1e4e5c;}.cls-45{fill:#1b4e59;}.cls-46{fill:#1f4f58;}.cls-47{fill:#1c4e58;}.cls-48{fill:#1b4e58;}.cls-49{fill:#1f4e58;}.cls-50{fill:#23454e;}.cls-51{fill:#1f4f59;}.cls-52{fill:#204f58;}.cls-53{fill:#1c4e59;}.cls-54{fill:#23525a;}.cls-55{fill:#1c5059;}.cls-56{fill:#20505a;}.cls-57{fill:#224f59;}.cls-58{fill:#184b5f;}.cls-59{fill:#184c60;}.cls-60{fill:#26535f;}.cls-61{fill:#184a64;}.cls-62{fill:#1a4e55;}.cls-63{fill:#27474f;}.cls-64{fill:#25525a;}.cls-65{fill:#184e58;}.cls-66{fill:#772a43;}.cls-67{fill:#752c44;}.cls-68{fill:#2f565d;}.cls-69{fill:#712941;}.cls-70{fill:#204d57;}.cls-71{fill:#284750;}.cls-72{fill:#164c59;}.cls-73{fill:#1c4a61;}.cls-74{fill:#1d4f5a;}.cls-75{fill:#164a60;}.cls-76{fill:#154a5f;}.cls-77{fill:#144768;}</style></defs><g id="Layer_2" data-name="Layer 2"><g id="Layer_2-2" data-name="Layer 2"><path class="cls-1" d="M30.23,58.2a13.71,13.71,0,0,1-2.22,0s.08,0,.1-.05h-.93a2.76,2.76,0,0,1-.64,0c-.14-.12-.3,0-.46,0a19.1,19.1,0,0,1-2.39-.34,28.33,28.33,0,0,1-6.6-2.09A29.29,29.29,0,0,1,2.75,41.46a28.57,28.57,0,0,1-2-5.75,25,25,0,0,1-.58-3.55,3.69,3.69,0,0,0,0-.47c0-.11,0,0,0,0A17.54,17.54,0,0,1,0,29.93a27.65,27.65,0,0,1,.1-3.28s0-.07,0-.11,0,.13,0,0a3.68,3.68,0,0,0,0-.47,19.36,19.36,0,0,1,.34-2.39,28.52,28.52,0,0,1,1.59-5.44A29.34,29.34,0,0,1,14.8,3.78a28.78,28.78,0,0,1,7.55-3A24.94,24.94,0,0,1,26,.18h.09c.15,0,.32.07.46,0a2.31,2.31,0,0,1,.64-.05h1.1c-.11-.06-.19,0-.27,0A17.78,17.78,0,0,1,30.2,0a12.61,12.61,0,0,1,1.5.11s-.12,0,0,0a2.46,2.46,0,0,0,.47,0,20.76,20.76,0,0,1,2.35.33,28.87,28.87,0,0,1,7,2.27A29.41,29.41,0,0,1,56.08,18.12a28.77,28.77,0,0,1,1.75,6.17c.09.6.2,1.19.23,1.79,0,.16,0,.31,0,.47s0,.07,0,0,0,0,0,0a2.31,2.31,0,0,1,0,.64v1c.06-.05,0-.11.05-.16a16,16,0,0,1,0,2.19,12.61,12.61,0,0,1-.11,1.5s0-.09,0,0a4,4,0,0,0,0,.49,19.52,19.52,0,0,1-.34,2.4A28.63,28.63,0,0,1,56.13,40a29.34,29.34,0,0,1-14,15.18,28.54,28.54,0,0,1-6.41,2.31,27.58,27.58,0,0,1-4.51.67h-1s-.07,0,0,0ZM.79,28.31s0-.09-.05,0c0,.55,0,1.11,0,1.67,0,.07,0,0,.05,0a1.81,1.81,0,0,1,0,.23A28.56,28.56,0,0,0,1.42,35a28.33,28.33,0,0,0,9.81,16,28.08,28.08,0,0,0,16.35,6.35,28.57,28.57,0,0,0,5.84-.29A28.23,28.23,0,0,0,48.27,50,28,28,0,0,0,57.4,30.65a27.31,27.31,0,0,0-.58-7.43,27.88,27.88,0,0,0-1.93-5.83A28.44,28.44,0,0,0,36.45,1.76,28.78,28.78,0,0,0,30.62.84,28.42,28.42,0,0,0,26.1,1,28,28,0,0,0,15.79,4.14,28.32,28.32,0,0,0,5.05,14.21,28.24,28.24,0,0,0,.91,26.58C.86,27.16.83,27.73.79,28.31Z"/><path class="cls-2" d="M28,0c.08,0,.16,0,.27,0h-1.1A3.82,3.82,0,0,1,28,0Z"/><path class="cls-3" d="M58.2,28s0,.11-.05.16v-1A3.82,3.82,0,0,1,58.2,28Z"/><path class="cls-4" d="M27.18,58.15h.93c0,.06-.07,0-.1.05A3.82,3.82,0,0,1,27.18,58.15Z"/><path class="cls-4" d="M30.23,58.2l0,0s0,0,0,0h.83A3.82,3.82,0,0,1,30.23,58.2Z"/><path class="cls-5" d="M.18,26.08a3.68,3.68,0,0,1,0,.47c0,.12,0,0,0,0A1.21,1.21,0,0,1,.18,26.08Z"/><path class="cls-6" d="M58.06,32.16a4,4,0,0,1,0-.49c0-.06,0,0,0,0A1,1,0,0,1,58.06,32.16Z"/><path class="cls-6" d="M58.1,26.54s0,0,0,0,0,0,0,0,0-.31,0-.47A1,1,0,0,1,58.1,26.54Z"/><path class="cls-6" d="M32.16.18a2.46,2.46,0,0,1-.47,0c-.11,0,0,0,0,0A1.2,1.2,0,0,1,32.16.18Z"/><path class="cls-6" d="M.13,31.7s0-.12,0,0a3.69,3.69,0,0,1,0,.47A1.21,1.21,0,0,1,.13,31.7Z"/><path class="cls-7" d="M26.54.14c-.14.11-.31,0-.46,0A1.2,1.2,0,0,1,26.54.14Z"/><path class="cls-6" d="M26.08,58.06c.16,0,.32-.07.46,0A1.21,1.21,0,0,1,26.08,58.06Z"/><path class="cls-8" d="M.79,28.31v1.62s0,.1-.05,0c0-.56,0-1.12,0-1.67C.75,28.22.77,28.3.79,28.31Z"/><path class="cls-9" d="M31.58,41.94c-.4-.06-.49-.18-.37-.55a8.6,8.6,0,0,0,.29-4,4.81,4.81,0,0,0-.29-1c0-.08-.05-.19-.19-.22.09.45.21.89.27,1.33a6.35,6.35,0,0,1,0,1.57c-.09.1-.06.2,0,.31a6.9,6.9,0,0,1-.92,2.82,3.91,3.91,0,0,1-3.63,1.92,8.32,8.32,0,0,1-2.8-.47,4.07,4.07,0,0,1-2.75-3.12,6.79,6.79,0,0,1,.22-3.94,5.78,5.78,0,0,1,2.37-2.73,15.59,15.59,0,0,1,2.65-1.32,4,4,0,0,0,2.22-2.33,9.29,9.29,0,0,0,.45-1.5,2.26,2.26,0,0,0,1.37.4.66.66,0,0,0,.71-.42c0-.05.07-.13.11-.13s.12.08.15.15c.27.56.52,1.13.8,1.69a6.47,6.47,0,0,0,2.28,2.77,6.36,6.36,0,0,1,1.25,1.13,6.07,6.07,0,0,1,1.31,2.07,3.58,3.58,0,0,1-.66,3.6,5.67,5.67,0,0,1-3.82,2Z"/><path class="cls-9" d="M31.5,22.48l.41-1.05a.07.07,0,0,0,.05-.08,8.72,8.72,0,0,1,2-1.92,22.17,22.17,0,0,1,4.4-2.54.65.65,0,0,1,.84.12l.73.72c.11.11,0,.16,0,.22a8,8,0,0,1-1,.68,30.08,30.08,0,0,1-3.36,1.8A11.7,11.7,0,0,0,34,21.1a4.24,4.24,0,0,0-2.13,3.71,10.37,10.37,0,0,1-.34,2.48A2.51,2.51,0,0,1,31,28.38a1.3,1.3,0,0,1-1.66,0,1.09,1.09,0,0,1-.2-.89,5.82,5.82,0,0,1,.24-1,2.93,2.93,0,0,0,0-1.66,7.92,7.92,0,0,0-.91-2.38,1.37,1.37,0,0,0-.35-.41c-.26-.2-.45-.18-.63.1A6.79,6.79,0,0,0,27,23.18a7.12,7.12,0,0,1-1.12,2,2.53,2.53,0,0,1-2,.94.42.42,0,0,1-.22,0l.05,0v0h-.5a2.82,2.82,0,0,1-2.9-2.57,2.7,2.7,0,0,1,.32-1.52,7.53,7.53,0,0,1,1-1.73,5.2,5.2,0,0,0,.79-1.88,28.78,28.78,0,0,1,.77-2.9.5.5,0,0,1,.05-.13.48.48,0,0,1,.85-.17c.11.1.19.23.37.25s.11.11.13.2a1.85,1.85,0,0,1,0,.81,16.44,16.44,0,0,1-.86,3.38,1.7,1.7,0,0,0-.18.58s0,0,0,0a1.87,1.87,0,0,0,0,1.52c.23.51.49.59.94.29a1.56,1.56,0,0,0,.2-.16,9.49,9.49,0,0,0,1-1.07,5.82,5.82,0,0,1,1.1-1.06,1.45,1.45,0,0,1,1.51-.16,2.29,2.29,0,0,1,1.21,1.36c.19.65.37,1.3.55,1.95a2.18,2.18,0,0,0,.25.56.35.35,0,0,0,.61.06,1.3,1.3,0,0,0,.18-.23A4.13,4.13,0,0,0,31.5,22.48Z"/><path class="cls-9" d="M32,20.79c-.37.43-.66.92-1,1.37l0,0c-.15.13-.3.31-.52.21s-.16-.3-.18-.48c-.07-.62-.12-1.25-.19-1.88a1.28,1.28,0,0,0-1.13-1.33,2.27,2.27,0,0,0-.25-.06,2.49,2.49,0,0,0-2.49.83l-.6.71a2.49,2.49,0,0,1-.71.7.81.81,0,0,1-1.05-.28A1.45,1.45,0,0,1,24,20a4.23,4.23,0,0,0,.69-2.1,19.3,19.3,0,0,1,.36-2.5,2.39,2.39,0,0,1,1.35-1.75,7.82,7.82,0,0,1,4.4-.81,11.22,11.22,0,0,1,4.51,1.58,14.8,14.8,0,0,1,2.11,1.48c.15.12.13.17,0,.26-1,.55-2,1.14-2.9,1.78a11.28,11.28,0,0,0-2.32,2.41,2.09,2.09,0,0,0-.27.39Z"/><path class="cls-10" d="M44.43,49.69c0,.05,0,.06-.08.08-.39.23-.78.45-1.16.69-.14.08-.17,0-.22-.11-.33-.56-.66-1.12-1-1.69-.08-.13-.13-.16-.27-.08-.58.35-1.17.69-1.76,1-.12.07-.13.12-.06.24.35.57.68,1.16,1,1.73.07.11.06.16-.06.23-.37.21-.75.43-1.12.66-.11.06-.15,0-.2-.07l-3.1-5.3c-.06-.11,0-.16.05-.22l1.13-.65c.12-.08.16,0,.22.07L39,48.24c.08.13.13.17.27.08.58-.35,1.16-.68,1.74-1,.13-.08.15-.13.07-.28-.38-.63-.74-1.27-1.13-1.91-.09-.15-.06-.21.09-.28.34-.19.68-.38,1-.59s.23-.07.32.08q1.24,2.14,2.5,4.28l.54.93A.52.52,0,0,1,44.43,49.69Z"/><path class="cls-10" d="M35.08,50c-.16-.63-.32-1.25-.47-1.88,0-.15-.07-.3-.12-.44s0-.2.14-.24c.41-.09.83-.19,1.24-.3.12,0,.15,0,.18.11.49,2,1,4,1.48,5.92,0,.15,0,.21-.15.25-.39.08-.78.18-1.17.29-.15,0-.21,0-.24-.14-.16-.65-.33-1.29-.48-1.93,0-.15-.09-.16-.21-.13l-2,.5c-.14,0-.19.07-.15.23.17.63.32,1.26.49,1.89.05.18,0,.23-.16.26-.41.09-.81.18-1.2.3-.14,0-.17,0-.19-.13-.21-.84-.43-1.68-.64-2.52-.28-1.13-.55-2.27-.84-3.4,0-.16,0-.19.14-.22l1.17-.3c.16,0,.22,0,.26.16.16.68.33,1.35.5,2,.07.32.07.31.39.23a10.72,10.72,0,0,1,1.15-.28c.28.08.54-.09.82-.1C35.13,50.15,35.24,50.08,35.08,50Zm.09-.28s.07,0,.06,0a.05.05,0,0,0-.07,0s-.07,0-.06,0S35.14,49.72,35.17,49.72Z"/><path class="cls-10" d="M14.24,49.45a2.42,2.42,0,0,0,1.1.7,1,1,0,0,0,.34,0,.41.41,0,0,0,.35-.61,1.54,1.54,0,0,0-.37-.47l-.46-.47a.53.53,0,0,0-.47-.46,1.87,1.87,0,0,1-.23-2.73.81.81,0,0,1,.24-.21c.25-.1.53-.06.79-.15a2.42,2.42,0,0,0-.25,0c-.09,0,0-.06,0-.09h.52a1.41,1.41,0,0,1,.64.1,1.37,1.37,0,0,0,.74.17A3.15,3.15,0,0,1,19,47.4c.08.32.06.35-.27.4-.1,0-.2.07-.31,0s-.31,0-.46,0-.09.07-.09.13h-.09a.22.22,0,0,0-.19-.23,2.05,2.05,0,0,0-1.06-1.23,1.21,1.21,0,0,0-.41-.12.41.41,0,0,0-.4.16.38.38,0,0,0,0,.43,2.64,2.64,0,0,0,.43.51,14.52,14.52,0,0,1,1.22,1.26A1.85,1.85,0,0,1,16,51.65a2.46,2.46,0,0,1-1-.1l-.09-.18a7.71,7.71,0,0,1,1-.14,4.23,4.23,0,0,0-.71,0,.23.23,0,0,0-.27.18h-.41a3.23,3.23,0,0,1-2-2.21,2.13,2.13,0,0,1,0-.25c0-.25.08-.31.3-.29a.63.63,0,0,0,.53-.19h0a2.8,2.8,0,0,0,.29,0c.15,0,.19.05,0,.24s-.21.11-.2.13a2.8,2.8,0,0,1,.29,0,.12.12,0,0,0,.13-.14c0-.1-.09,0-.14,0s-.19.09-.08,0l.32-.07h0c0,.19,0,.37.17.47,0,0,0,0,0,0C14,49.28,14,49.43,14.24,49.45Z"/><path class="cls-10" d="M22.69,54.4l-.48-.12c-.11,0-.1-.1-.1-.18,0-.25,0-.5,0-.75a.19.19,0,0,0-.17-.22l-2.08-.59c-.11,0-.14,0-.18.09l-.46.65a.15.15,0,0,1-.2.08L17.64,53c-.13,0-.18-.06-.07-.2q1.92-2.62,3.82-5.27a.21.21,0,0,1,.29-.09l1.31.37c.12,0,.17.08.18.19l.18,2.21c0,.42.09.84.1,1.26.07.6-.14,1.2-.06,1.81.09-.12,0-.27.09-.41.08.07.05.14.05.2a4.61,4.61,0,0,0,.09,1.23c0,.06,0,.1.1.11v.09c-.1,0-.14.15-.24.08s0-.09-.06-.08-.07.05-.08.1l-.09,0c0-.11-.14,0-.16-.12s.13,0,.13-.11C23,54.21,22.88,54.41,22.69,54.4ZM22,49.18h-.05l-1.27,2c-.09.14,0,.14.1.16.34.09.69.18,1,.29.16.05.2,0,.19-.14,0-.35,0-.7,0-1.05Z"/><path class="cls-10" d="M30.13,52A1.9,1.9,0,0,1,28.45,53c-.44,0-.88,0-1.32,0-.16,0-.21,0-.21.2,0,.48,0,1,0,1.44,0,.14,0,.21-.2.2-.42,0-.84,0-1.25,0a.34.34,0,0,1-.1-.27,5.37,5.37,0,0,0,0-1.06c0-1.32,0-2.64.07-4,0,0,.05.12.05,0s0-.43,0-.64c0-.45,0-.44.44-.45a4.6,4.6,0,0,0,1,0c.57,0,1.14,0,1.71.05a1.85,1.85,0,0,1,1.63,1.21c0,.11-.1.23,0,.35a.58.58,0,0,1,.09.41v.75c0,.06,0,.15,0,.17C30.05,51.52,30.14,51.76,30.13,52ZM27,51.05a2.37,2.37,0,0,0,0,.46c0,.06.06.05.1.05.33,0,.66,0,1,0a.68.68,0,0,0,.71-.66,2.77,2.77,0,0,0,0-.5v-.25c0-.19-.15-.24-.24-.35s-.14,0-.21,0a1.83,1.83,0,0,1-.7,0c-.17-.06-.33,0-.5-.05s-.09.06-.09.12,0,0,0,0A2.93,2.93,0,0,0,27,51.05Z"/><path class="cls-10" d="M53.59,25.69c.25,0,.46-.06.67-.11s.16,0,.18.14c.05.37.06.37-.31.42l-1.82.29c-.14,0-.2,0-.21-.14a1.2,1.2,0,0,0,0-.2c0-.11,0-.17.12-.18s.44-.07.66-.1.14,0,.12-.16-.07-.48-.11-.72c0-.07,0-.11-.12-.09s-.39.05-.58.1-.28,0-.32-.21,0-.3.25-.32l1.51-.24L54,24.1c.11,0,.16,0,.18.12.06.38.07.38-.32.44-.18,0-.44,0-.52.13s0,.35.06.53,0,.17,0,.25S53.52,25.72,53.59,25.69Z"/><path class="cls-11" d="M39.47,6.78c-.17.42-.34.83-.5,1.25,0,.09-.08.09-.16.06-.38-.11-.39-.14-.24-.5.07-.17.24-.36.18-.52s-.31-.17-.48-.24c-.37-.16-.37-.15-.52.22a1.53,1.53,0,0,0-.11.27c0,.2-.13.24-.33.16s-.26-.17-.16-.39c.26-.57.49-1.16.73-1.75,0-.14.12-.22.28-.12s.36,0,.22.32-.15.37-.24.55,0,.15.07.19.42.16.63.26.17,0,.21-.1l.25-.6c0-.1.08-.11.18-.07.37.14.37.13.21.5-.06.16-.13.31-.19.46-.08-.08,0-.21-.09-.3,0,.1-.23,0-.23.18s.18,0,.22.15Z"/><path class="cls-12" d="M51.28,17.59c0,.14.24.28,0,.43a.7.7,0,0,1,.49.51s0,.06,0,.08c-.15.31.06.42.26.6a.6.6,0,0,1-.18,1l-1,.46c-.12.06-.15,0-.2-.09-.15-.33-.16-.32.17-.48l.6-.28c.24-.11.3-.25.22-.42s-.23-.23-.46-.14l-.11,0c-.19,0-.27-.17-.44-.21a.18.18,0,0,1,.2-.05c.08,0,.17.17.23,0s-.14-.09-.2-.15h-.07l.2-.11c.15-.09.26-.2.17-.41a.29.29,0,0,0-.42-.15l-.6.27-.06,0c-.11,0-.23.17-.31.1a.87.87,0,0,1-.19-.37c0-.1,0-.1.1-.12l1.39-.63C51.13,17.59,51.23,17.53,51.28,17.59Z"/><path class="cls-11" d="M11.68,11.47c-.16-.16-.32-.33-.49-.48s-.1-.12,0-.21c.27-.28.26-.28.54,0l1.39,1.36c.11.1.13.17,0,.25s-.16.36-.4.09a.77.77,0,0,1-.33.69.8.8,0,0,1-.56.13,1.1,1.1,0,0,1-.91-.93C10.87,11.93,11.12,11.63,11.68,11.47ZM12,12.78a.42.42,0,0,0,.44-.4.59.59,0,0,0-.55-.56.41.41,0,0,0-.42.41A.57.57,0,0,0,12,12.78Z"/><path class="cls-13" d="M53.39,34a.79.79,0,0,1-.24,1.13,1.11,1.11,0,0,1-1.36-.28A.82.82,0,0,1,52,33.7c-.2,0-.38-.1-.57-.13s-.16,0-.13-.17c.09-.36.08-.37.45-.29l1.76.37c.17,0,.25.09.16.27S53.7,34.1,53.39,34Zm-.81-.17a.45.45,0,0,0-.48.44.51.51,0,0,0,.54.45.42.42,0,0,0,.48-.42A.5.5,0,0,0,52.58,33.83Z"/><path class="cls-11" d="M42.36,8.14c.61,0,.9.29.94.76A1.14,1.14,0,0,1,42.51,10c-.4.1-.74-.12-1-.61-.11.16-.22.32-.31.48S41.1,10,41,9.9c-.3-.19-.31-.19-.11-.49.34-.52.68-1,1-1.57.08-.13.15-.14.24,0S42.5,7.89,42.36,8.14Zm.41.8a.44.44,0,0,0-.42-.45.59.59,0,0,0-.52.57.41.41,0,0,0,.41.42A.53.53,0,0,0,42.77,8.94Z"/><path class="cls-10" d="M53.91,29.41a.78.78,0,0,1-.07,1.12,1.1,1.1,0,0,1-1.38,0,.82.82,0,0,1,0-1.14,1.47,1.47,0,0,0-.55-.05c-.14,0-.2,0-.18-.18a.69.69,0,0,0,0-.2c0-.1,0-.14.13-.13l2.14.05s.1,0,.1,0a3.38,3.38,0,0,1,0,.45C54.08,29.41,54,29.36,53.91,29.41Zm-.74.82a.45.45,0,0,0,.51-.43.46.46,0,0,0-.5-.45.48.48,0,0,0-.53.44A.49.49,0,0,0,53.17,30.23Z"/><path class="cls-10" d="M5.94,29.09c.1.27-.07.35-.26.4a.29.29,0,0,0-.23.37.93.93,0,0,1,0,.29c0,.34.07.56.44.62.12,0,.22.43.14.53s-.09,0-.12,0L3.7,30.47c-.19-.08-.09-.25-.12-.38s0-.16.12-.21c.7-.33,1.39-.67,2.1-1C6.12,28.75,5.86,29.07,5.94,29.09ZM4.23,30.16l.76.28V30c0-.12,0-.15-.15-.09Z"/><path class="cls-13" d="M17.45,6.53a.75.75,0,0,1,.7.43.74.74,0,0,1,0,.82,1.28,1.28,0,0,1-.51.44c-.27.14-.27.14-.12.41a.59.59,0,0,0,0,.08c.15.28.15.27-.11.43s-.23.06-.31-.09c-.31-.58-.63-1.16-.95-1.74-.07-.13-.08-.19.07-.26s.46-.25.7-.38A1.07,1.07,0,0,1,17.45,6.53ZM17.38,7c-.17,0-.58.22-.57.31a1.81,1.81,0,0,0,.37.57.74.74,0,0,0,.55-.53A.34.34,0,0,0,17.38,7Z"/><path class="cls-12" d="M10.73,43.54c-.05.06.08.24-.11.21s-.38.11-.38-.2a.91.91,0,0,0-.27-.66.22.22,0,0,0-.29,0c-.11.06-.12.16-.08.28s.16.44.22.67a.58.58,0,0,1-.19.66.69.69,0,0,1-.74.12,1.3,1.3,0,0,1-.67-1.12c0-.07,0-.1.09-.1l.27,0c.09,0,.12,0,.13.11a1,1,0,0,0,.17.54c.08.09.17.2.31.14s.14-.21.1-.34-.15-.4-.21-.6a.64.64,0,0,1,.27-.76.68.68,0,0,1,.81,0A1.41,1.41,0,0,1,10.73,43.54Z"/><path class="cls-12" d="M29.48,4.52c.27-.45.76-.51,1.27-.15.06-.3.3-.13.45-.15s.1.16.1.24c0,.43,0,.87-.08,1.3a.77.77,0,0,1-.8.79,1.72,1.72,0,0,1-.87-.14c-.11,0-.23-.08-.12-.22s.06-.32.29-.17a.85.85,0,0,0,.52.12c.32,0,.46-.16.47-.51a.8.8,0,0,1-1.14,0A6.47,6.47,0,0,1,29.48,4.52Zm1.23.25a.5.5,0,0,0-.59-.16c-.23.09-.27.3-.26.52-.18.09-.08.22-.08.39.17-.22.3,0,.44,0a.59.59,0,0,1,.68.29s.06.06.09,0,.05-.07.05-.11c0-.21,0-.43,0-.64A.29.29,0,0,0,30.71,4.77Z"/><path class="cls-13" d="M47,12a.69.69,0,0,1,.61.27.54.54,0,0,1,0,.73c-.28.31-.6.58-.9.87-.06.06-.11,0-.16,0l-.06-.07c-.21-.23-.21-.23,0-.46s.36-.32.53-.5.17-.31,0-.46a.32.32,0,0,0-.47,0L46,13c-.11.11-.17.13-.28,0s-.22-.24,0-.46l1.45-1.36c.12-.11.19-.11.28,0a.67.67,0,0,0,.14.15c.08.07.06.12,0,.18S47.24,11.84,47,12Z"/><path class="cls-11" d="M22.23,5.36a.74.74,0,0,1,.51-.42.55.55,0,0,1,.68.39c.12.38.22.76.33,1.14,0,.08,0,.12-.07.15-.38.14-.4.13-.5-.24-.06-.22-.12-.44-.19-.65s-.2-.31-.38-.27a.3.3,0,0,0-.22.41,7.84,7.84,0,0,0,.23.83c0,.15,0,.22-.15.26-.32.08-.31.08-.4-.24-.17-.63-.34-1.26-.53-1.88-.09-.29.13-.24.26-.3s.22,0,.26.16S22.17,5.11,22.23,5.36Z"/><path class="cls-12" d="M53.13,36.36l-.29-.07c0,.11.08.2.09.3a.61.61,0,0,1-.82.67c-.36-.09-.71-.22-1.07-.33-.09,0-.1-.08-.08-.16.11-.37.1-.38.47-.27l.63.21c.21.06.38,0,.44-.17a.32.32,0,0,0-.24-.44c-.27-.1-.56-.18-.84-.27-.11,0-.15,0-.1-.18.12-.36.11-.37.46-.25l1.51.49c0,.06,0,.09-.1.1a.08.08,0,0,0-.06.14.08.08,0,0,0,.15,0c.1-.15.2-.09.29,0s.13,0,.19,0v0c-.06.05-.17,0-.18.13s-.08.09-.15.1h0C53.34,36.29,53.22,36.37,53.13,36.36Z"/><path class="cls-11" d="M52.05,32a1,1,0,0,1,1-1,1,1,0,0,1,1,1,1,1,0,0,1-1,1A1,1,0,0,1,52.05,32Zm.94.47a.47.47,0,1,0,0-.94.47.47,0,0,0-.52.46A.45.45,0,0,0,53,32.47Z"/><path class="cls-14" d="M24.86,4.49a.93.93,0,0,1,1,.94,1,1,0,0,1-1,1,1,1,0,0,1-.95-1A1,1,0,0,1,24.86,4.49Zm.46,1a.51.51,0,0,0-.5-.52.47.47,0,0,0-.47.48.51.51,0,0,0,.51.53A.47.47,0,0,0,25.32,5.46Z"/><path class="cls-11" d="M44.05,9.33a1,1,0,0,1,1,1,.94.94,0,0,1-.94.94,1,1,0,0,1-1-1A.92.92,0,0,1,44.05,9.33Zm.08.47a.55.55,0,0,0-.52.53.5.5,0,0,0,.48.48.58.58,0,0,0,.51-.53A.48.48,0,0,0,44.13,9.8Z"/><path class="cls-15" d="M9.45,41.51a.93.93,0,0,1-.93,1,1,1,0,0,1-1-1,1,1,0,0,1,.94-1A1,1,0,0,1,9.45,41.51ZM9,41.45A.48.48,0,0,0,8.52,41a.55.55,0,0,0-.54.51.51.51,0,0,0,.47.49A.56.56,0,0,0,9,41.45Z"/><path class="cls-12" d="M5.44,34.39a.9.9,0,0,1-.94-.87.91.91,0,0,1,.83-.92c.12,0,.16,0,.18.13,0,.32.12.64.17,1,0,.13.08.12.17,0a.51.51,0,0,0,0-.7.33.33,0,0,1,.06-.43c.08,0,.13,0,.17.07a1,1,0,0,1,.29,1.09A.94.94,0,0,1,5.44,34.39Zm-.08-.61-.09-.57c0-.08-.07-.07-.12,0a.38.38,0,0,0,.12.72C5.34,33.9,5.39,33.89,5.36,33.78Z"/><path class="cls-16" d="M49.29,17.41a.79.79,0,0,1-.55-.57.5.5,0,0,1,.17-.57.51.51,0,0,1,.62-.07,1.17,1.17,0,0,1,.47.62s0,.12.07.12.09-.06.12-.1a.31.31,0,0,0,0-.28,1.85,1.85,0,0,0-.21-.33c-.17-.17-.15-.27,0-.42s.1,0,.15,0a1.62,1.62,0,0,1,.5.69.66.66,0,0,1-.28.82c-.29.19-.6.36-.9.54-.08.05-.13,0-.17-.05a1,1,0,0,0-.11-.17C49.14,17.56,49.12,17.48,49.29,17.41Zm.29-.18c.06,0,.16,0,.18-.13a.53.53,0,0,0-.35-.48.2.2,0,0,0-.25.2A.44.44,0,0,0,49.58,17.23Z"/><path class="cls-11" d="M33.6,6.44a1,1,0,0,1-.14-1.92.9.9,0,0,1,.92,1.21c0,.09-.07.07-.14.06l-1-.18s-.11,0-.13,0,0,.1,0,.15a.52.52,0,0,0,.67.22.33.33,0,0,1,.36.21c0,.06,0,.08-.07.1A.89.89,0,0,1,33.6,6.44Zm-.43-1.18a5.33,5.33,0,0,1,.6.11c.17,0,.17,0,.14-.15a.36.36,0,0,0-.35-.28C33.35,4.93,33.24,5.06,33.17,5.26Z"/><path class="cls-12" d="M5.48,23.58H5.6c.18,0,.29.05.23.29a8.2,8.2,0,0,0-.18.86c0,.05,0,.12,0,.15a.3.3,0,0,0,.13,0A.5.5,0,0,0,6,24.18c-.11-.24.11-.25.2-.32s.14.07.17.13a1,1,0,0,1-.22,1.17,1,1,0,0,1-1.2.06.91.91,0,0,1-.35-1.07A.84.84,0,0,1,5.48,23.58ZM5,24.47a.26.26,0,0,0,.06.18c0,.08.12.16.21.15s0-.12.08-.19a.78.78,0,0,0,.06-.31c0-.07.1-.17,0-.21a.26.26,0,0,0-.27.07A.39.39,0,0,0,5,24.47Z"/><path class="cls-11" d="M13.56,11.73a1,1,0,0,1-1-1,.91.91,0,0,1,.94-.86,1.05,1.05,0,0,1,.73.43c.08.08,0,.13-.06.18l-.73.62s-.11.06-.08.12a.19.19,0,0,0,.13.07.5.5,0,0,0,.58-.37.29.29,0,0,1,.38-.16c.07,0,0,.11,0,.17A1,1,0,0,1,13.56,11.73Zm.18-1.3c-.19-.15-.37-.19-.54,0a.35.35,0,0,0-.12.43c0,.1.07.11.16,0Z"/><path class="cls-15" d="M47,44.27a1,1,0,0,1,1,.86.88.88,0,0,1-.73,1,1,1,0,0,1-.85-.31c-.08-.07,0-.13,0-.19.22-.23.43-.47.65-.71,0,0,.09-.07.07-.13s-.09,0-.14-.06a.5.5,0,0,0-.53.46c0,.26-.21.19-.34.18s-.08-.15-.07-.23A1,1,0,0,1,47,44.27Zm.54,1a.55.55,0,0,0-.11-.25s-.06,0-.09,0-.26.3-.4.44,0,.09,0,.12A.4.4,0,0,0,47.52,45.3Z"/><path class="cls-17" d="M6.89,18.21A.79.79,0,0,1,7,17.52a.54.54,0,0,1,.62-.21,10.74,10.74,0,0,1,1.19.56.08.08,0,0,1,0,.13s0,.07-.05.1c-.13.28-.13.28-.41.14l-.65-.33c-.22-.1-.38-.05-.47.13s0,.33.19.45l.77.39c.12.05.16.1.07.21a.69.69,0,0,0-.07.15c0,.13-.12.17-.27.09-.4-.22-.81-.43-1.23-.62-.22-.1-.22-.2-.11-.37S6.67,18.06,6.89,18.21Z"/><path class="cls-14" d="M7.93,16.33a1.32,1.32,0,0,1,0-.44.6.6,0,0,1,.87-.39c.35.19.69.41,1,.62.08.05.08.09,0,.16-.19.36-.19.36-.52.16l-.61-.37a.31.31,0,1,0-.33.52c.25.17.51.34.77.49s.14.13.05.24a.75.75,0,0,0-.09.15c0,.12-.11.14-.23.06-.42-.27-.85-.53-1.28-.79-.11-.07-.15-.13-.06-.24a.38.38,0,0,0,.09-.13C7.7,16.23,7.78,16.18,7.93,16.33Z"/><path class="cls-12" d="M52.54,37.73v.1c-.15.45-.15.45-.62.41l-.87-.05.82.69c.06.06.18.09.16.18a2.53,2.53,0,0,1-.18.42c0,.06-.07,0-.1,0-.51-.48-1-.94-1.51-1.43a.63.63,0,0,1,.1-.93.1.1,0,0,1,.17,0c0,.09.22.12.13.27s-.14.34.19.34Z"/><path class="cls-18" d="M52.82,27.63l1.06.27c.14,0,.23.09.2.25s0,.21,0,.34c-.69-.22-1.39-.42-2.08-.66a.61.61,0,0,1-.3-.88c0-.1.11-.06.16,0s.26,0,.23.19-.05.19,0,.26.18,0,.26,0L54,26.6s0,0,0,0c.08.46.07.46-.36.65Z"/><path class="cls-19" d="M49.66,41.94a.32.32,0,0,0,.48-.14,1.23,1.23,0,0,0,.12-.26c.08-.21.22-.27.41-.16,0,0,0,0,0,.09a1.32,1.32,0,0,1-.69,1,.66.66,0,0,1-.55-.08c-.3-.16-.59-.35-.89-.52-.1-.06-.11-.12,0-.19s.07-.36.34-.26a.79.79,0,0,1,.22-.7.52.52,0,0,1,.68-.09.51.51,0,0,1,.26.64.91.91,0,0,1-.19.38c-.11,0-.25,0-.25-.15a1.12,1.12,0,0,0,.05-.13.23.23,0,1,0-.43-.18.43.43,0,0,0-.07.41s-.15.08,0,.13.09,0,.1.08.13.13.2,0S49.62,41.83,49.66,41.94Z"/><path class="cls-12" d="M9.12,15.2A.87.87,0,0,1,9.23,14a.93.93,0,0,1,1.23,0c.09.08,0,.12,0,.19L9.88,15s-.09.08-.06.14.1.05.16.05a.52.52,0,0,0,.47-.48.31.31,0,0,1,.34-.25c.06,0,.06.05.07.1a.69.69,0,0,1,0,.4c-.06,0-.17,0-.16,0s-.15.22-.21.33a.77.77,0,0,1-.68.2C9.54,15.41,9.33,15.31,9.12,15.2Zm.39-.28.39-.51c.07-.1,0-.15-.07-.17a.36.36,0,0,0-.4.15C9.29,14.58,9.36,14.74,9.51,14.92Z"/><path class="cls-15" d="M7.42,40.48a1,1,0,0,1-1-1.14c0-.08,0-.23.18-.14s.34-.05.29.22a.46.46,0,0,0,.3.55.61.61,0,0,0,.64-.29.48.48,0,0,0-.18-.6c-.07,0-.19,0-.15-.2.07-.3.14-.34.4-.17a1,1,0,0,1,.41,1.07A1,1,0,0,1,7.42,40.48Z"/><path class="cls-16" d="M45.59,12.19c-.29.34-.48.33-.74,0a.43.43,0,0,1,0-.6c.17-.21.36-.4.54-.6,0,0,.11-.06.06-.12-.24-.25.11-.28.15-.42s0,0,0,0c.17.2.25,0,.33-.09s.18-.13.28,0a.29.29,0,0,0,.1.09c.11.08.14.17,0,.26s-.19.28,0,.41.08.17,0,.22-.13.3-.29.11-.29-.16-.42,0-.13.13-.19.2C45.25,11.94,45.25,12,45.59,12.19Z"/><path class="cls-20" d="M4.44,26.14c-.06,0-.11,0-.12-.08,0-.4,0-.45.45-.4l1.09.12a.79.79,0,0,1,.79.87,1.88,1.88,0,0,1-.2.9c-.08.14-.16.1-.23,0s-.28,0-.16-.24a1,1,0,0,0,.17-.65.37.37,0,0,0-.31-.37.14.14,0,0,0-.16,0s0,.06,0,.09,0,.1,0,.14-.14-.2-.2-.35c0,.12-.11.1-.14.16A.57.57,0,0,0,5,26.21.59.59,0,0,0,4.44,26.14Z"/><path class="cls-12" d="M6.14,34.54c.38-.14.43-.12.55.19s0,.58-.26.69-.51.14-.76.21c-.09,0-.21,0-.16.18s0,.11-.1.11-.28.13-.31,0c-.06-.25-.2-.11-.31-.11s-.15.11-.2,0a.69.69,0,0,1-.09-.44c0-.07.16-.06.24-.08s.19-.06.13-.22.08-.38.32-.35c.09,0,.08.08.08.14,0,.24.14.28.35.2A2,2,0,0,1,5.88,35C6.29,34.94,6.3,34.91,6.14,34.54Z"/><path class="cls-19" d="M18.94,8A.54.54,0,0,1,19,7.1a1.09,1.09,0,0,1,.54-.23c.15,0,.11-.08.05-.15a.32.32,0,0,0-.38-.06,1.78,1.78,0,0,0-.3.17c-.06,0-.12.15-.18.11a1.05,1.05,0,0,1-.23-.24s0-.09,0-.12a1,1,0,0,1,.39-.26.7.7,0,0,0,.34-.06.21.21,0,0,1,.32.06c-.15,0-.22.14-.4.14.3.1.37.06.4-.14.33,0,.35,0,.37.37,0,0,0,.18.06.14s.13.11.11.12,0,.23-.07.33,0,.12.07.14.19,0,.18.1-.13.06-.2.09-.05,0-.07,0-.15.27-.31.32Zm.93-.65c0-.08,0-.19-.15-.19s-.48.17-.48.33a.2.2,0,0,0,.22.23A.42.42,0,0,0,19.87,7.33Zm-.75.51s0,0-.06,0-.07,0-.08,0,0,0,.06,0A.09.09,0,0,0,19.12,7.84Z"/><path class="cls-12" d="M7.15,21a1,1,0,0,1-1.25-.55.91.91,0,0,1,.46-1.14,1,1,0,0,1,.86,0c.06,0,.07.06,0,.12l-.35.84a.61.61,0,0,0-.21.41.1.1,0,0,0,0,0C6.91,20.82,7,21,7.15,21ZM6.8,19.76c-.28-.05-.44,0-.5.21s0,.35.22.48Z"/><path class="cls-21" d="M5.41,26.33c0-.06.12,0,.14-.16.06.15,0,.31.2.35s0-.09,0-.14h0a.83.83,0,0,1-.12,1,.93.93,0,0,1-1.06.11.8.8,0,0,1-.21-1.23s.21-.06,0-.14a.59.59,0,0,1,.6.07l-.13,0a.48.48,0,0,0-.23.55.45.45,0,0,0,.46.31.44.44,0,0,0,.38-.4A.52.52,0,0,0,5.41,26.33Zm.22.64c0-.17.25-.09.22-.24s-.16-.09-.24-.15A.67.67,0,0,0,5.63,27Z"/><path class="cls-21" d="M39.82,8.24c.06-.49.11-1,.16-1.47,0-.13.05-.13.16-.08.33.16.34.16.29.52s-.1.6-.16,1c.28-.27.52-.48.74-.72s.27-.2.44-.06.16.05.22.15L40.33,8.7a.1.1,0,0,1,0-.09c.05-.13.17-.18.25-.28s.21-.06.22-.18.1-.11,0-.16-.11,0-.15,0a1.32,1.32,0,0,1-.26.22.31.31,0,0,0-.18.35h0c-.07,0-.18,0-.18-.08s-.08-.29.06-.36.1-.23.08-.35c0,.06-.08.19-.1.18-.22,0-.12.17-.18.25Z"/><path class="cls-21" d="M28.48,4.22a.85.85,0,0,1,.59.78,1,1,0,0,1-.54.94,1,1,0,0,1-1.31-.39c.1,0,0-.12.05-.17s-.07-.33.11-.43.19,0,.18.18-.1-.06-.18-.07a1.5,1.5,0,0,0,0,.3c.05.17.08.39.3.41s.54,0,.85,0c-.12-.1-.2-.19-.33-.09V5.59l.12-.06A.5.5,0,0,0,28.55,5a.49.49,0,0,0-.44-.4.51.51,0,0,0-.51.32l-.13,0s0,0,0,0,.12-.15.06-.24-.1-.07-.13,0a.21.21,0,0,0-.13.21.21.21,0,0,1-.17.21.81.81,0,0,1,.5-.69.56.56,0,0,0,.64.21c.14-.07.17,0,.22.09a.76.76,0,0,1,.09.18c.05.18.11.06.16,0s0-.15-.06-.21S28.45,4.38,28.48,4.22Z"/><path class="cls-12" d="M4.74,28.49H3.65c-.14,0-.19,0-.16-.17s-.1-.35.12-.34c.76,0,1.52,0,2.29.07.07,0,.09,0,.1.11,0,.4,0,.43-.39.41l-.87-.05Z"/><path class="cls-22" d="M50.41,14.82l-.1.09-1.84,1.26c-.1.07-.14,0-.2,0-.23-.3-.23-.3.08-.51.53-.36,1.07-.72,1.59-1.1.16-.11.23-.08.31.07A1.6,1.6,0,0,0,50.41,14.82Z"/><path class="cls-12" d="M26,3.88c0-.06-.08-.17,0-.21a.82.82,0,0,1,.44,0s0,.07,0,.1c.08.73.15,1.45.23,2.18,0,.33-.23.16-.36.22s-.14-.07-.16-.18C26.2,5.26,26.12,4.58,26,3.88Z"/><path class="cls-15" d="M5.3,22.55a1.18,1.18,0,0,0-.08-.13c-.09-.14-.17-.34,0-.44s.31,0,.46.08,0,.08,0,.12a.51.51,0,0,0,.37.58,6.13,6.13,0,0,0,.61.18c.14,0,.18.1.12.22s0,.34-.19.29c-.52-.12-1-.28-1.54-.41-.11,0-.13-.07-.09-.16S4.92,22.44,5.3,22.55Z"/><path class="cls-19" d="M21,6a4.13,4.13,0,0,0,.25.75c0,.13.14.15.25.09l.2-.12c0,.17.24.29,0,.46-.06,0-.1-.13-.2-.15s0,.27-.17.25S21,7.26,21,7s-.22-.47-.27-.73c0-.08-.07-.08-.14-.08s-.05-.05-.07-.05c-.3.08-.22-.19-.3-.32s0-.08.07-.09.08-.1.07-.18c.2-.08.06-.25.1-.37h0c.13,0,.26,0,.22.21s0,.05.06.07a.42.42,0,0,0,.51,0C21.34,5.76,21.09,5.82,21,6Z"/><path class="cls-19" d="M48.07,15.29l-.08.07a.73.73,0,0,0-.36-.16c-.05,0-.12-.08-.05-.15s-.06-.07-.06-.12-.09-.08-.06-.16.15,0,.2-.07a.35.35,0,0,0,.4,0c.11-.1,0-.18,0-.26s.16-.07.24,0,.09.09.12,0c.23-.23.09-.46-.14-.68s-.23-.21,0-.47a2.12,2.12,0,0,1,.43.51c0,.07.16.12.16-.06a.68.68,0,0,1-.08,1.06c-.18.15-.38.28-.56.43,0-.06,0-.14-.07-.17S48.08,15.21,48.07,15.29Z"/><path class="cls-21" d="M35.32,6.46c.06,0,.16,0,.17-.13s-.07-.13-.13-.17L35,5.9a.51.51,0,0,1-.17-.6A.54.54,0,0,1,35.32,5a1,1,0,0,1,.78.31c.09.07.1.14,0,.19s-.1.27-.27.12a.68.68,0,0,0-.4-.21.14.14,0,0,0-.16,0c0,.08,0,.12.06.16l.35.26c.29.21.36.41.25.68a.57.57,0,0,1-.64.33.81.81,0,0,1-.42-.14H35c.2,0,.39.12.59,0s.19-.11.19-.2.09-.33-.06-.43a1.43,1.43,0,0,1-.24-.19.25.25,0,0,0-.36,0c.14.06.21.18.34.24s.2.15.17.28a.3.3,0,0,1-.48.12Z"/><path class="cls-19" d="M6.51,36.85a.25.25,0,0,1,0,.07c0,.07,0,.21.12.2s.15-.13.18-.22a.56.56,0,0,0-.21-.55.32.32,0,0,1,0-.42c.06,0,.11,0,.16,0a1.06,1.06,0,0,1,.48,1,1,1,0,0,1-.72.77.85.85,0,0,1-.85-.18l.06-.07a.12.12,0,0,0,0,0s-.12-.12,0-.15a.16.16,0,0,1,.18.1.24.24,0,0,0,.35.14c0-.14-.13-.16-.2-.23l.14,0c.11,0,.1-.1.09-.17A.29.29,0,0,1,6.51,36.85Z"/><path class="cls-22" d="M48.32,44.79s-.06,0-.07,0a.88.88,0,0,1,.09-.5c0-.05.07-.23-.13-.15a2.15,2.15,0,0,0-.69-.65c-.12-.09-.13-.15,0-.25l.14-.18c.06-.08.1-.07.17,0l1.26,1a.11.11,0,0,1,0,.19l-.23.28c-.12,0-.13-.17-.27-.08,0,.08-.17,0-.1.15S48.44,44.73,48.32,44.79Z"/><path class="cls-21" d="M52.65,21A1,1,0,0,1,52.88,22a.94.94,0,0,1-1.7.13c0-.06,0-.14.07-.15a.14.14,0,0,0,.12-.18c-.11-.4.18-.62.37-.88,0-.05.08-.18.19-.07s-.11.09-.07.18.17.05.19,0c.16-.27.31,0,.46,0-.09.1-.27-.05-.32.14-.56-.09-.87.35-.64.77,0,.07,0,.15-.09.15s-.11.05-.08.12.1.06.15,0,.11-.1.17-.15a.65.65,0,0,0,.63-.09,1,1,0,0,0,.28.26c.07-.09,0-.2.09-.27a.44.44,0,0,0,.06-.59A.57.57,0,0,1,52.65,21Z"/><path class="cls-21" d="M6.18,37.29c.07.07.19.09.2.23A.24.24,0,0,1,6,37.38a.16.16,0,0,0-.18-.1c-.14,0,0,.1,0,.15a.12.12,0,0,1,0,0l-.06.07a.83.83,0,0,1-.31-.91A1,1,0,0,1,6.13,36c.09,0,.11,0,.13.08.09.26.17.53.25.8a.29.29,0,0,0-.1.25c0,.07,0,.16-.09.17l-.21-.63c0-.11-.08-.1-.15,0a.37.37,0,0,0-.13.39A.38.38,0,0,0,6.18,37.29Z"/><path class="cls-23" d="M49.75,43.19c-.28.44-.28.44-.7.15s-.6-.43-.91-.63-.18-.2,0-.33l.09-.13c0-.09.09-.1.18,0Z"/><path class="cls-12" d="M32.34,4.57c-.07.49-.13,1-.19,1.45,0,.13,0,.18-.18.14a.55.55,0,0,0-.18,0c-.13,0-.17-.07-.15-.19l.18-1.54s0-.09,0-.1a.9.9,0,0,1,.43.05C32.41,4.39,32.3,4.5,32.34,4.57Z"/><path class="cls-24" d="M7.8,38.12c0,.09,0,.09-.08.11l-1.47.62c-.1,0-.14,0-.17-.08A.51.51,0,0,0,6,38.6c-.09-.15,0-.22.12-.28.41-.15.8-.33,1.2-.49S7.78,37.82,7.8,38.12Z"/><path class="cls-22" d="M7.19,21.74a2.91,2.91,0,0,1-.12.35c0,.07-.09,0-.14,0l-1.52-.49c-.08,0-.09-.06-.06-.14.11-.39.11-.39.48-.27l1.25.41C7.14,21.63,7.21,21.63,7.19,21.74Z"/><path class="cls-21" d="M15.7,9.39a.37.37,0,0,1,.19.28c0,.34-.18.11-.29.06-.09.15,0,.24.06.35-.22,0-.34.22-.55.24a.07.07,0,0,0,0,.12.11.11,0,0,0,.15,0c.21-.06.28-.28.49-.33l-.05-.07c.08,0,.12-.08.17-.13s.05,0,.06,0c-.08.36-.68.64-1,.63-.14,0-.12-.09-.11-.16s-.1-.23.09-.25a.93.93,0,0,0,.51-.18c.06,0,.11-.11.08-.19s-.12-.08-.2-.06-.25.09-.39.12a.51.51,0,0,1-.65-.22.55.55,0,0,1,.11-.7c.13.17-.09.35,0,.54s0,.12.14.1A1.93,1.93,0,0,0,15,9.54c.12,0,.19-.06.17-.19a.4.4,0,0,1,.32,0,.25.25,0,0,1-.16.14c-.08,0-.06.09-.06.15s0,.09.06.1.09,0,.1,0c0-.23.17-.08.27-.07S15.6,9.47,15.7,9.39Z"/><path class="cls-19" d="M52.19,21.16c.05-.19.23,0,.32-.14-.15,0-.3-.24-.46,0,0,0-.13,0-.19,0s.21-.05.07-.18-.16,0-.19.07c-.19.26-.48.48-.37.88a.14.14,0,0,1-.12.18c-.08,0-.06.09-.07.15a.94.94,0,0,1,0-1c.05,0,0,.13.11.13a.09.09,0,0,0,.1-.1c0-.2.17-.27.31-.35a.13.13,0,0,0,.06-.11.83.83,0,0,1,.92.28.57.57,0,0,0,.11.42.44.44,0,0,1-.06.59c-.08.07,0,.18-.09.27a1,1,0,0,1-.28-.26l.08-.09c.09,0,.22.05.24-.11s0-.27-.18-.3a.22.22,0,0,1-.06-.14c.06,0,.14,0,.14-.09s-.08-.09-.14-.09Z"/><path class="cls-25" d="M47.66,14.7c0,.08-.15,0-.2.07s.14.06.06.16a.71.71,0,0,1-.51-.62.52.52,0,0,1,.31-.55l.11,0c.06,0,.11,0,0,.1s-.07.16,0,.25c.12-.11.18-.26.33-.32a1,1,0,0,1,.5.55s0,.11.09.11-.09,0-.12,0-.15-.06-.24,0c-.25-.32-.34-.34-.56-.14,0,.05-.11.13-.19.07s0-.12,0-.18a.23.23,0,0,0,0-.24.26.26,0,0,0-.15.31c0,.11-.07.25.08.33s.1-.17.22-.15A.66.66,0,0,0,47.66,14.7Z"/><path class="cls-26" d="M35.32,6.46h-.16a.3.3,0,0,0,.48-.12c0-.13-.09-.24-.17-.28s-.2-.18-.34-.24a.25.25,0,0,1,.36,0,1.43,1.43,0,0,0,.24.19c.15.1.07.29.06.43s-.09.15-.19.2-.39,0-.59,0h-.14a.56.56,0,0,1-.24-.16c-.22-.18-.21-.21,0-.39.07-.06.11-.07.18,0A1,1,0,0,0,35.32,6.46Z"/><path class="cls-27" d="M49.81,40.39a.5.5,0,0,1-.16-.61,1.12,1.12,0,0,1,.54-.7c.08,0,.16-.09.19,0s.24.19,0,.32a1,1,0,0,0-.35.35.2.2,0,0,0,0,.21c.06.09.14,0,.21,0h0a.36.36,0,0,1-.3.17c-.14,0-.17.07-.15.19Z"/><path class="cls-28" d="M15.2,9.35c0,.13,0,.14-.17.19a1.93,1.93,0,0,1-.52.08c-.1,0-.1,0-.14-.1s.1-.37,0-.54A1,1,0,0,1,15,8.65c.09,0,.16,0,.14.11s.14.25-.08.3a1,1,0,0,0-.4.14.17.17,0,0,0-.07.18c0,.09.11.07.17.06S15.05,9.33,15.2,9.35Z"/><path class="cls-29" d="M40.29,8.61a.1.1,0,0,0,0,.09,3.08,3.08,0,0,1-.27.24.63.63,0,0,1-.93-.15c0-.06-.07-.12,0-.16s.15-.21.27-.14c.33.16.32.17.38-.19a.14.14,0,0,1,0-.06h.06a.83.83,0,0,0-.05.35.1.1,0,0,0,.14.1c.08,0,.22.12.23-.09h.09Z"/><path class="cls-30" d="M19.6,6.32a.21.21,0,0,0-.32-.06.7.7,0,0,1-.34.06.73.73,0,0,1,1.21.35c.11.26.22.52.34.77s.07.21-.09.24l-.19.08c-.11.06-.15,0-.16-.1s0,0,.07,0,.19,0,.2-.09-.11-.08-.18-.1-.11-.09-.07-.14,0-.23.07-.33.08-.18-.11-.12S20,6.74,20,6.69c0-.34,0-.36-.37-.37Z"/><path class="cls-31" d="M52.84,23.25a2.41,2.41,0,0,1,.08.25c.08.31.07.3-.24.38-.14,0-.19,0-.22-.13s-.11-.46-.17-.68,0-.19.13-.22c.36-.08.37-.08.42.4-.21.05-.19-.09-.19-.23s0-.12-.1-.12-.08.06-.08.11v.32s0,.11.05.08S52.82,23.47,52.84,23.25Z"/><path class="cls-32" d="M6.92,20.61A.5.5,0,0,0,7.34,20c0-.23.14-.22.25-.27s.14.1.16.18a.61.61,0,0,1,0,.42.69.69,0,0,1,0-.2c0-.12-.07-.08-.1-.08s-.13.06-.09.11c.16.27,0,.42-.18.58S7.05,20.89,6.92,20.61Z"/><path class="cls-33" d="M51.09,40c-.12-.07-.2,0-.28.07s-.2.2-.31.29a.48.48,0,0,1-.69,0h0c.1,0,.21,0,.29-.07a.24.24,0,0,1,.34-.07c.11.06.15,0,.17-.11s0-.11-.12-.11h-.24c.17-.17.3-.39.55-.46,0,.07,0,.16-.07.19s-.13.06-.09.13.15.06.23,0,.1-.13.19-.13a.24.24,0,0,1,0,.08Z"/><path class="cls-34" d="M23.72,54.39c-.07,0-.08,0-.1-.11a4.61,4.61,0,0,1-.09-1.23c0-.06,0-.13-.05-.2-.08.14,0,.29-.09.41-.08-.61.13-1.21.06-1.81a9.28,9.28,0,0,1,.11,1.06C23.62,53.14,23.66,53.76,23.72,54.39Z"/><path class="cls-35" d="M50.81,18.91h.07c.06.06.25,0,.2.15s-.15,0-.23,0a.18.18,0,0,0-.2.05c.17,0,.25.24.44.21-.23.12-.47.22-.69.34s-.16,0-.21-.08c-.16-.33-.17-.33.16-.48Zm-.12.48c-.15-.27-.21-.29-.44-.15a.1.1,0,0,0-.07.1.21.21,0,0,0,.12.14c.06,0,.05-.05.07-.09s.1-.08.16,0S50.63,19.43,50.69,19.39Z"/><path class="cls-36" d="M51.09,40v-.18a.24.24,0,0,0,0-.08c-.09,0-.12.1-.19.13s-.17.06-.23,0,0-.11.09-.13.07-.12.07-.19h0c.2,0,.39,0,.38.3a.09.09,0,0,0,0,0c.27.28.28.31,0,.58a.33.33,0,0,0-.12.32l-.05,0c-.28,0,.09-.22-.09-.27s0-.06,0-.1.14-.16.21-.23,0-.12-.08-.13Z"/><path class="cls-37" d="M30.13,52c0-.21-.08-.45.15-.63,0,0,0-.11,0-.17v-.75a.58.58,0,0,0-.09-.41c-.1-.12,0-.24,0-.35A2.54,2.54,0,0,1,30.13,52Z"/><path class="cls-38" d="M6.92,20.61c.13.28.23.29.45.09s.34-.31.18-.58c0-.05,0-.11.09-.11s.13,0,.1.08a.69.69,0,0,0,0,.2.89.89,0,0,1-.6.73c-.16,0-.24-.2-.4-.24a.1.1,0,0,1,0,0,.61.61,0,0,1,.21-.41C6.93,20.43,6.74,20.52,6.92,20.61Z"/><path class="cls-39" d="M4.69,36.77c.56.24.57.25.62.63l-.55-.13c-.09,0-.12-.06-.1-.14Z"/><path class="cls-40" d="M50.31,43.56l-.15.21c-.17.24-.16.23-.41.07s-.12-.13,0-.24C49.93,43.29,49.93,43.28,50.31,43.56Z"/><path class="cls-41" d="M4.14,23.56c.16.29.43.51.21.88-.14-.14-.28-.28-.42-.4a.11.11,0,0,1,0-.16Z"/><path class="cls-42" d="M4.37,33.88c-.19-.07-.36-.15-.55-.21s-.08-.1-.07-.16c.06-.39,0-.37.36-.17A.52.52,0,0,1,4.37,33.88Z"/><path class="cls-43" d="M28.48,4.22c0,.16.1.23.18.32s.13.12.06.21-.11.17-.16,0a.76.76,0,0,0-.09-.18c0-.08-.08-.16-.22-.09a.56.56,0,0,1-.64-.21s.05,0,.09,0a.82.82,0,0,0,.58.06c-.07-.11-.19,0-.27-.11h.29Z"/><path class="cls-44" d="M6,38.92a.41.41,0,0,1-.37.2c-.17,0-.22-.27-.22-.42s.22-.2.32-.18S5.82,38.8,6,38.92Z"/><path class="cls-39" d="M5.09,21.54c-.14-.12-.38,0-.37-.23s0-.39.21-.41.33,0,.33.17A1,1,0,0,1,5.09,21.54Z"/><path class="cls-45" d="M32.18,4.13c-.11,0-.37.08-.3-.23,0-.09-.05-.3.13-.25s.45-.15.42.23S32.4,4.15,32.18,4.13Zm.17-.34c-.13,0-.21-.07-.29,0A.26.26,0,0,0,32.35,3.79Z"/><path class="cls-46" d="M20.55,6.23c.07,0,.13,0,.14.08,0,.26.2.48.27.73s.24.19.41.2.13-.15.17-.25.14.1.2.15c-.37.35-.77.27-.94-.18C20.71,6.72,20.64,6.48,20.55,6.23Z"/><path class="cls-31" d="M51.1,40.8a.33.33,0,0,1,.12-.32c.28-.27.27-.3,0-.58a.09.09,0,0,1,0,0c0-.28-.18-.3-.38-.3a.44.44,0,0,1,.53.11.55.55,0,0,1,.15.58A.93.93,0,0,1,51.1,40.8Z"/><path class="cls-47" d="M9.12,15.2c.21.11.42.21.64.3a.77.77,0,0,0,.68-.2c.06-.11.23-.15.21-.33s.1,0,.16,0a.92.92,0,0,1-.75.68A.89.89,0,0,1,9.12,15.2Z"/><path class="cls-26" d="M27.11,5a.21.21,0,0,0,.17-.21.21.21,0,0,1,.13-.21s.11,0,.13,0,0,.16-.06.24,0,0,0,0a.08.08,0,0,0-.09.09c-.18.1-.05.29-.11.43s.05.14-.05.17A.79.79,0,0,1,27.11,5Z"/><path class="cls-48" d="M17.19,45.23a1.37,1.37,0,0,1-.74-.17,1.41,1.41,0,0,0-.64-.1h-.52a2.33,2.33,0,0,1,1.7.16Z"/><path class="cls-49" d="M21,6c.07-.14.32-.2.19-.44a.42.42,0,0,1-.51,0s-.08,0-.06-.07-.09-.2-.22-.21c.27-.11.28-.12.36.15s.13.19.26.12.23,0,.31.14,0,.24-.16.28Z"/><path class="cls-31" d="M51.11,40.11c.07,0,.23,0,.08.13s-.13.16-.21.23-.07.08,0,.1-.19.26.09.27c-.08.1-.16.1-.2,0s-.23-.15-.07-.29A.8.8,0,0,0,51.11,40.11Z"/><path class="cls-50" d="M26.88,48.4a4.6,4.6,0,0,1-1,0c-.44,0-.44,0-.44.45,0,.21,0,.42,0,.64s0,0-.05,0c0-.34,0-.68,0-1,0-.09,0-.13.12-.13C26,48.39,26.43,48.39,26.88,48.4Z"/><path class="cls-51" d="M49.62,41.52c0,.19.14.14.25.15l-.21.27c0-.11-.06-.23-.2-.07s-.16.12-.2,0,0-.06-.1-.08,0-.09,0-.13c.21.19.22.19.4,0Z"/><path class="cls-52" d="M29.48,4.52a6.47,6.47,0,0,0,.09,1.08A.89.89,0,0,1,29.48,4.52Z"/><path class="cls-53" d="M13.28,48.43a.63.63,0,0,1-.53.19c-.22,0-.34,0-.3.29-.08-.33-.08-.35.22-.4S13.08,48.46,13.28,48.43Z"/><path class="cls-53" d="M53.76,36.18c-.06,0-.13,0-.19,0s-.19-.15-.29,0a.08.08,0,0,1-.15,0,.08.08,0,0,1,.06-.14c.06,0,.1,0,.1-.1l.41.11C53.79,36,53.84,36.08,53.76,36.18Z"/><path class="cls-54" d="M48.81,13.73c0,.18-.13.13-.16.06a2.12,2.12,0,0,0-.43-.51c.09-.09.15,0,.2.06A1.12,1.12,0,0,1,48.81,13.73Z"/><path class="cls-28" d="M15.7,9.39c-.1.08,0,.13,0,.21s-.25-.16-.27.07c0,0-.06,0-.1,0s-.06-.06-.06-.1,0-.14.06-.15a.25.25,0,0,0,.16-.14C15.59,9.33,15.66,9.33,15.7,9.39Z"/><path class="cls-55" d="M51.73,20.68a.13.13,0,0,1-.06.11c-.14.08-.31.15-.31.35a.09.09,0,0,1-.1.1c-.09,0-.06-.09-.11-.13A.82.82,0,0,1,51.73,20.68Z"/><path class="cls-37" d="M18.94,8h.8A.61.61,0,0,1,18.94,8Z"/><path class="cls-56" d="M35.08,50c.16.08.05.15,0,.16-.28,0-.54.18-.82.1C34.5,50.13,34.82,50.16,35.08,50Z"/><path class="cls-57" d="M48.32,44.79c.12-.06.27-.1.16-.29s.11-.07.1-.15a.41.41,0,0,1,.06.36C48.56,45,48.52,45,48.32,44.79Z"/><path class="cls-48" d="M15.29,45s-.1.06,0,.09a2.42,2.42,0,0,1,.25,0c-.26.09-.54.05-.79.15A1.06,1.06,0,0,1,15.29,45Z"/><path class="cls-58" d="M15.89,10s0-.08-.06,0-.09.12-.17.13h0c0-.11-.15-.2-.06-.35.11,0,.28.28.29-.06A.27.27,0,0,1,15.89,10Z"/><path class="cls-59" d="M47.8,13.77c-.15.06-.21.21-.33.32-.07-.09-.09-.17,0-.25s0-.09,0-.1A.35.35,0,0,1,47.8,13.77Z"/><path class="cls-57" d="M48.21,44.09c.2-.08.16.1.13.15a.88.88,0,0,0-.09.5c-.14-.07-.18-.16-.08-.3S48.21,44.21,48.21,44.09Z"/><path class="cls-60" d="M28.3,4.17H28c.08.09.2,0,.27.11a.82.82,0,0,1-.58-.06A.7.7,0,0,1,28.3,4.17Z"/><path class="cls-61" d="M39.47,6.78l-.07,0c0-.1-.22,0-.22-.15s.18-.08.23-.18c.1.09,0,.22.09.3Z"/><path class="cls-34" d="M22.69,54.4c.19,0,.34-.19.54-.07,0,.09-.11,0-.13.11s.16,0,.16.12A4,4,0,0,1,22.69,54.4Z"/><path class="cls-62" d="M14.73,48.17a.53.53,0,0,1,.47.46A3.41,3.41,0,0,1,14.73,48.17Z"/><path class="cls-63" d="M25.33,53.48a5.37,5.37,0,0,1,0,1.06.34.34,0,0,0,.1.27c-.1,0-.16,0-.16-.12Z"/><path class="cls-49" d="M20.42,5.22c0,.12.1.29-.1.37C20.19,5.29,20.19,5.29,20.42,5.22Z"/><path class="cls-34" d="M23.35,54.58s0-.08.08-.1,0,.06.06.08.14-.09.24-.08,0,.14,0,.23A2.19,2.19,0,0,1,23.35,54.58Z"/><path class="cls-53" d="M13.74,48.62c0-.13,0-.19-.18-.18a2.8,2.8,0,0,1-.29,0c.08-.07.18,0,.26-.06.29-.06.29-.06.31.23Z"/><path class="cls-64" d="M17.86,47.93c0-.06,0-.13.09-.13s.31,0,.46,0Z"/><path class="cls-65" d="M14.93,51.37l.09.18a1.25,1.25,0,0,1-.5-.18Z"/><path class="cls-54" d="M47.63,15.2a.73.73,0,0,1,.36.16C47.73,15.63,47.74,15.26,47.63,15.2Z"/><path class="cls-53" d="M53.42,36.45c.07,0,.14,0,.15-.1s.12-.08.18-.13C53.69,36.56,53.69,36.56,53.42,36.45Z"/><path class="cls-66" d="M31.58,41.94h1A2,2,0,0,1,31.58,41.94Z"/><path class="cls-64" d="M17.58,47.71a.22.22,0,0,1,.19.23C17.51,48,17.63,47.8,17.58,47.71Z"/><path class="cls-53" d="M14,49.08c-.2-.1-.19-.28-.17-.47Z"/><path class="cls-53" d="M14.24,49.45c-.22,0-.24-.17-.22-.34Z"/><path class="cls-67" d="M23.25,26h.5v0l-.05,0A1.19,1.19,0,0,1,23.25,26Z"/><path class="cls-54" d="M48.07,15.29c0-.08,0-.17,0-.24s0,.11.07.17S48.12,15.29,48.07,15.29Z"/><path class="cls-68" d="M51.28,17.59c-.05-.06-.15,0-.19-.07S51.27,17.39,51.28,17.59Z"/><path class="cls-69" d="M31.26,39.33c0-.11-.07-.21,0-.31Z"/><path class="cls-53" d="M53.13,36.36c.09,0,.21-.07.25.08Z"/><path class="cls-56" d="M35.17,49.72s-.06,0-.07,0,0,0,.06,0a.05.05,0,0,1,.07,0S35.2,49.71,35.17,49.72Z"/><path class="cls-65" d="M14.93,51.37a.23.23,0,0,1,.27-.18,4.23,4.23,0,0,1,.71,0,7.71,7.71,0,0,0-1,.14Z"/><path class="cls-53" d="M13.3,48.74c.11,0,.18-.13.3-.11s.12-.06.14,0a.12.12,0,0,1-.13.14,2.8,2.8,0,0,0-.29,0Z"/><path class="cls-70" d="M28.75,50.42a.79.79,0,0,0-.87-.56c-.29,0-.58,0-.87,0,0-.06,0-.15.09-.12s.33,0,.5.05a1.83,1.83,0,0,0,.7,0c.07,0,.14-.09.21,0s.26.16.24.35Z"/><path class="cls-71" d="M27,49.87l0,1.18A2.93,2.93,0,0,1,27,49.87Z"/><path class="cls-72" d="M29.86,5.13c.09.11.15.26.33.28.44,0,.64-.19.52-.64a.29.29,0,0,1,.33.32c0,.21,0,.43,0,.64,0,0,0,.1-.05.11s-.07,0-.09,0a.59.59,0,0,0-.68-.29c-.14,0-.27-.2-.44,0C29.78,5.35,29.68,5.22,29.86,5.13Z"/><path class="cls-30" d="M19.6,6.32c0,.2-.1.24-.4.14.18,0,.25-.16.4-.14Z"/><path class="cls-37" d="M19.12,7.84a.09.09,0,0,1-.08,0s-.07,0-.06,0,.05,0,.08,0S19.12,7.8,19.12,7.84Z"/><path class="cls-20" d="M5.63,27a.67.67,0,0,1,0-.39c.08.06.22,0,.24.15S5.68,26.8,5.63,27Z"/><path class="cls-36" d="M40.2,8.61c0,.21-.15.06-.23.09a.1.1,0,0,1-.14-.1.83.83,0,0,1,.05-.35c.06-.08,0-.27.18-.25,0,0,0-.12.1-.18,0,.12.12.25-.08.35s-.06.24-.06.36S40.13,8.6,40.2,8.61Z"/><path class="cls-36" d="M40.29,8.61H40.2a.31.31,0,0,1,.18-.35A1.32,1.32,0,0,0,40.64,8s.1-.09.15,0,0,.1,0,.16-.15.1-.22.18S40.34,8.48,40.29,8.61Z"/><path class="cls-26" d="M28.2,5.68c.13-.1.21,0,.33.09-.31,0-.58,0-.85,0s-.25-.24-.3-.41a1.5,1.5,0,0,1,0-.3c.08,0,.11.11.18.07v.32c0,.06,0,.13.08.14S28,5.73,28.2,5.68Z"/><path class="cls-53" d="M28.2,5.68c-.2.05-.37-.07-.56-.09s-.08-.08-.08-.14V5.13q0-.19-.18-.18a.08.08,0,0,1,.09-.09l.13,0c0,.16,0,.32.08.46a.52.52,0,0,0,.52.23Z"/><path class="cls-73" d="M51.55,21.93l.15.14c-.06.05-.11.11-.17.15s-.12.05-.15,0,0-.13.08-.12S51.56,22,51.55,21.93Z"/><path class="cls-58" d="M15.66,10.08l.05.07c-.21,0-.28.27-.49.33a.11.11,0,0,1-.15,0,.07.07,0,0,1,0-.12c.21,0,.33-.26.55-.24Z"/><path class="cls-74" d="M52.41,21.89a.65.65,0,0,0,.06-.41c.19,0,.2.16.18.3S52.5,21.87,52.41,21.89Z"/><path class="cls-74" d="M52.41,21.34l-.22-.18h.22c.06,0,.14,0,.14.09S52.47,21.33,52.41,21.34Z"/><path class="cls-59" d="M47.47,14.29v.14c-.12,0-.06.23-.22.15s-.07-.22-.08-.33a.26.26,0,0,1,.15-.31.23.23,0,0,1,0,.24c0,.06-.09.12,0,.18S47.42,14.34,47.47,14.29Z"/><path class="cls-75" d="M50.27,40h.23c.08,0,.15,0,.12.11s-.06.17-.17.11a.24.24,0,0,0-.34.07c-.08.1-.19.07-.29.07s0-.17.15-.19A.36.36,0,0,0,50.27,40Z"/><path class="cls-75" d="M52.84,23.25c0,.22-.22.09-.32.16s-.05,0-.05-.08V23c0-.05,0-.1.08-.11s.1.06.1.12,0,.28.19.23Z"/><path class="cls-76" d="M50.69,19.39c-.06,0-.11,0-.16,0s-.12-.06-.16,0,0,.11-.07.09a.21.21,0,0,1-.12-.14.1.1,0,0,1,.07-.1C50.48,19.1,50.54,19.12,50.69,19.39Z"/><path class="cls-77" d="M32.35,3.79a.26.26,0,0,1-.29,0C32.14,3.72,32.22,3.77,32.35,3.79Z"/></g></g></svg>