<svg xmlns="http://www.w3.org/2000/svg" viewBox="0 0 56.26 55.79"><defs><style>.cls-1{fill:#ec2027;}.cls-2{fill:#13a052;}.cls-3{fill:#232222;}.cls-4{fill:#242223;}.cls-5{fill:#232122;}.cls-6{fill:#232223;}.cls-7{fill:#222;}.cls-8{fill:#242323;}.cls-9{fill:#242324;}.cls-10{fill:#252324;}.cls-11{fill:#252425;}.cls-12{fill:#232323;}.cls-13{fill:#262425;}.cls-14{fill:#c34d4e;}.cls-15{fill:#313031;}.cls-16{fill:#60967f;}.cls-17{fill:#302f30;}.cls-18{fill:#272828;}</style></defs><g id="Layer_2" data-name="Layer 2"><g id="Layer_2-2" data-name="Layer 2"><path class="cls-1" d="M45.54,42.27a4.35,4.35,0,0,1-.69.89,23,23,0,0,1-3,2.8,1.38,1.38,0,0,1-.29.17A20.22,20.22,0,0,1,37,48.89,23.1,23.1,0,0,1,8.38,40.63a22.76,22.76,0,0,1-3.33-7.81,23.31,23.31,0,0,1-.41-7.4A22.27,22.27,0,0,1,6.72,18,23.09,23.09,0,0,1,30.94,5a22.66,22.66,0,0,1,12.44,6,2.65,2.65,0,0,1,.84.89l.15.15a3.82,3.82,0,0,1,1.05,1.24l-1.48-1A25.1,25.1,0,0,0,38,9.7a22.05,22.05,0,0,0-15.14,1,18.18,18.18,0,0,0-8.07,6.72,18.68,18.68,0,0,0-3,11.11,20,20,0,0,0,1.5,7.28,17.31,17.31,0,0,0,5.42,7.12,18.74,18.74,0,0,0,8.05,3.62,22.73,22.73,0,0,0,9.78-.26A22.9,22.9,0,0,0,39,45.49c.69-.25,1.33-.59,2-.77h0c.67-.42,1.42-.7,2.12-1.07Z"/><polygon class="cls-1" points="41.09 44.72 41.08 44.72 41.08 44.72 41.08 44.72 41.09 44.72"/><path class="cls-2" d="M31.46,25c.12-1.72.38-3.43.6-5.14.23-1.87.52-3.72.82-5.58,0-.21.07-.35.33-.27s.51,0,.47.37a2.64,2.64,0,0,0-.08.89c.45-.1.78-.45,1.23-.55a62.3,62.3,0,0,0-.46,10.74,27.64,27.64,0,0,0,.31,4.16,3.19,3.19,0,0,0,.65,1.3,20,20,0,0,0,5.51,5.31,11.57,11.57,0,0,0,1.62,1,.65.65,0,0,1,.41.74c0,.45,0,.92,0,1.42a5.54,5.54,0,0,0,4-3.77,10.4,10.4,0,0,0,.29-4.67A26.62,26.62,0,0,0,43.54,21a24.22,24.22,0,0,0-4.6-5.87,10.23,10.23,0,0,0-2.32-1.58.58.58,0,0,1,.09-.34,6.4,6.4,0,0,1,3.07,1.57,19.41,19.41,0,0,1,3.86,4.37A28.9,28.9,0,0,1,48.25,30a11.88,11.88,0,0,1,0,4.86,5.7,5.7,0,0,1-4.86,4.67c-.24,0-.5,0-.64.29,0,.05-.18,0-.28,0h-6.7a.56.56,0,0,1-.52-.33c-.81-1.32-1.36-2.76-2.13-4.12.07.73.12,1.47.23,2.2,0,.31,0,.42-.35.41-1.15,0-2.31,0-3.46,0-.27,0-.33-.1-.29-.35.11-.78.21-1.55.32-2.4-.49.89-.85,1.77-1.25,2.63-.3.63-.68,1.22-1,1.83a.41.41,0,0,1-.41.24H20.15c-1.31-.53-2.79-.64-3.89-1.67a6.26,6.26,0,0,1-1.93-3.78,15.44,15.44,0,0,1,.73-6.88,30.13,30.13,0,0,1,5-9.74,15,15,0,0,1,3.95-3.75A4.33,4.33,0,0,1,27,13.36a12.65,12.65,0,0,0-5.77,4.75,29,29,0,0,0-5.36,11.36,12.15,12.15,0,0,0-.05,6,5.5,5.5,0,0,0,3.38,3.82c.12,0,.25.07.36.11s.31,0,.3-.21c0-.41,0-.82,0-1.23a.53.53,0,0,1,.33-.56,22.51,22.51,0,0,0,5.23-3.92,17.4,17.4,0,0,0,2.42-3.07,3.81,3.81,0,0,0,.37-1.8,82.65,82.65,0,0,0,.07-10.32,18.86,18.86,0,0,0-.41-3.45l1.24.58a1.86,1.86,0,0,0,0-.67c-.09-.51-.06-.54.42-.61.26,0,.3.06.34.28.23,1.6.5,3.19.72,4.79s.43,3.48.64,5.22c0,.22,0,.45.05.67l.1,1.93C31.32,26.31,31.52,25.65,31.46,25ZM37,34.28l-1.77-2a8,8,0,0,0,1.51,2.2,20,20,0,0,0,4.79,4c.13.08.31.26.45.12s.05-.34,0-.52-.17-.19-.27-.25a32.39,32.39,0,0,1-3.09-2.11C38.11,35.25,37.6,34.72,37,34.28Zm-5.79-5.06A9.53,9.53,0,0,1,30.91,31,40.44,40.44,0,0,0,30,36.87c0,.21,0,.34.27.34.75,0,1.49,0,2.24,0,.23,0,.28-.1.26-.3,0-.38-.07-.76-.1-1.13A15.91,15.91,0,0,0,32.06,32a16.84,16.84,0,0,1-.6-2.82l-.1-1.2h0Zm-1.86-4.73H30c.13,0,.22,0,.21.18-.09,1.09,0,2.19-.16,3.28a14.12,14.12,0,0,1-2.2,5.52A17.55,17.55,0,0,1,23.44,38,9.4,9.4,0,0,0,22,39.08h4.55a.34.34,0,0,0,.32-.22A30.35,30.35,0,0,0,28.79,35a19.89,19.89,0,0,0,1.65-10.4c-.32-2.56-.69-5.12-1-7.68a.77.77,0,0,0-.52-.63c-.26-.11-.3,0-.27.22s.11.66.16,1a38.7,38.7,0,0,1,.31,5.89A14.72,14.72,0,0,0,29,25.13c-.13,1.13-.24,2.27-.36,3.47A9.23,9.23,0,0,0,29.38,24.49Zm3.68-.17a.29.29,0,0,1,.27.35,9,9,0,0,0,.08,1.55,8.23,8.23,0,0,0,.66,2.24c-.11-1.2-.26-2.31-.35-3.43a12.65,12.65,0,0,0-.13-1.84A39.42,39.42,0,0,1,34.11,16c-.47.19-.8.33-.86.86-.26,2.48-.7,4.94-1,7.43a18.84,18.84,0,0,0,.47,7.17,34.41,34.41,0,0,0,2.94,7.1.66.66,0,0,0,.7.4c1,0,1.94,0,2.91,0h1.34c0-.08,0-.11,0-.13s-.26-.2-.4-.29a19.11,19.11,0,0,1-3.46-2.88,15.19,15.19,0,0,1-4-7.39,21.43,21.43,0,0,1-.24-3.4C32.52,24.47,32.6,24.25,33.06,24.32ZM27.28,32.6l-.37.41a20.78,20.78,0,0,1-4.56,4c-.48.32-1,.64-1.46.91a.52.52,0,0,0-.2.73c.11.21.33,0,.5-.09l.15-.08a22.79,22.79,0,0,0,4-3.26A10.09,10.09,0,0,0,27.28,32.6Z"/><path class="cls-3" d="M43,49.12c.15.55.29,1.1.45,1.64a.32.32,0,0,1-.13.43c-.18.12-.29,0-.4-.08-.41-.37-.82-.74-1.27-1.09.27.46.52.94.82,1.39.15.24.06.33-.13.46s-.28,0-.36-.17c-.34-.61-.68-1.22-1-1.83-.07-.13-.17-.28,0-.35s.37-.47.68-.21.81.71,1.24,1.1c-.15-.55-.27-1.06-.43-1.56s.28-.4.45-.57.26,0,.33.15c.43.58.84,1.17,1.26,1.74.14.18.08.26-.09.35s-.25.23-.4,0c-.31-.48-.65-.94-1-1.41Z"/><path class="cls-3" d="M47.88,10.66c.51-.22,1-.41,1.48-.64s.5.2.68.38-.08.28-.18.37c-.47.48-1,.93-1.45,1.41-.16.16-.26.2-.43,0s-.16-.28,0-.43a16.79,16.79,0,0,0,1.21-1.18c-.52.22-1.05.44-1.57.68a.34.34,0,0,1-.47-.08c-.17-.19,0-.3.06-.43.3-.45.61-.9.9-1.39-.43.33-.87.65-1.28,1-.18.15-.29.21-.47,0s0-.32.13-.41c.54-.43,1.09-.84,1.65-1.24.09-.07.2-.29.32-.07s.55.31.32.67S48.2,10.18,47.88,10.66Z"/><path class="cls-3" d="M27.14,54.15c.38-.39.23-1.29,1.19-1-.16.27-.29.53-.46.77a2.05,2.05,0,0,0-.45,1.56c0,.25-.07.33-.34.33s-.31-.13-.27-.34c.16-.85-.36-1.48-.74-2.26-.05.33-.2.36-.42.29s-.42,0-.43.31-.12,1-.18,1.5c0,.27-.13.32-.41.28s-.23-.17-.2-.36c.07-.5.12-1,.2-1.5.05-.29,0-.41-.33-.41s-.39,0-.34-.32.26-.18.43-.16c.66.07,1.31.16,2,.21.26,0,.41.08.49.34A8.32,8.32,0,0,0,27.14,54.15Z"/><path class="cls-4" d="M46.24,46.31c.46.43.82.79,1.19,1.12.16.15.17.25,0,.41s-.26.15-.41,0l-1.46-1.4c-.09-.09-.35-.18-.21-.34s.26-.48.62-.4c.57.14,1.13.29,1.81.52l-1.14-1.06c-.14-.13-.22-.22,0-.4s.25-.19.43,0c.48.48,1,.93,1.46,1.4.09.1.36.16.18.38s-.26.4-.58.31C47.53,46.65,46.94,46.5,46.24,46.31Z"/><path class="cls-3" d="M23.51,1.1c.09.65.14,1.17.23,1.68,0,.21,0,.28-.2.27s-.33.13-.35-.2c-.05-.69-.17-1.37-.25-2,0-.15-.16-.37.09-.41s.5-.2.71.12c.33.48.68,1,1.06,1.46-.08-.55-.13-1.06-.23-1.56-.05-.26.11-.23.25-.26s.29-.07.32.18c.08.71.18,1.42.25,2.13,0,.11.14.3-.09.34s-.42.18-.6-.08C24.34,2.21,24,1.71,23.51,1.1Z"/><path class="cls-4" d="M12.15,48.22c-.36.47-.67.86-1,1.26-.12.15-.21.28-.43.1s-.17-.27,0-.44c.42-.51.82-1,1.23-1.54.09-.11.13-.39.35-.25s.5.22.43.58a16,16,0,0,1-.34,1.83c.35-.46.65-.83.93-1.21.12-.16.21-.27.43-.09s.18.26,0,.43c-.42.52-.82,1.06-1.25,1.58-.08.1-.13.35-.33.21s-.45-.2-.38-.53C11.93,49.54,12,48.93,12.15,48.22Z"/><path class="cls-5" d="M26.57.92c0,.53,0,1.07.08,1.6,0,.2,0,.28-.26.26s-.32,0-.32-.25c0-.7,0-1.4,0-2.11,0-.11-.12-.33.1-.33s.5-.19.68.12l.91,1.53c0-.5,0-1,0-1.48,0-.21,0-.26.24-.26s.31,0,.31.25c0,.69.05,1.38.06,2.07,0,.13.12.35-.12.37s-.47.13-.63-.16C27.27,2,27,1.45,26.63.91Z"/><path class="cls-6" d="M41.23,4.17c-.29.51-.55,1-.78,1.41-.12.22-.22.2-.42.1s-.17-.23-.08-.38c.33-.58.65-1.18,1-1.75.07-.11.07-.42.3-.3s.54.15.52.53a14.88,14.88,0,0,1-.1,2c.31-.56.58-1,.86-1.54,0,0,0-.28.2-.12s.43.1.29.37c-.38.69-.77,1.36-1.17,2,0,.08-.12.18-.23.1s-.42-.17-.41-.48C41.25,5.5,41.23,4.88,41.23,4.17Z"/><path class="cls-6" d="M18.39,51.82a1.46,1.46,0,0,1-1.34,1.53,1.3,1.3,0,0,1-1.35-1.27,1.53,1.53,0,0,1,1.39-1.52A1.28,1.28,0,0,1,18.39,51.82Zm-2.05.4a.57.57,0,0,0,.58.62c.41,0,.85-.57.87-1.09a.64.64,0,0,0-.6-.68C16.77,51.07,16.34,51.66,16.34,52.22Z"/><path class="cls-7" d="M34.54,1.77a1.33,1.33,0,0,1-1.48,1.44A2,2,0,0,1,32,3c-.28-.22,0-.63.05-.95a11.07,11.07,0,0,1,.24-1.4c0-.2.08-.32.35-.27a5.16,5.16,0,0,1,1.1.25A1.07,1.07,0,0,1,34.54,1.77Zm-.62-.06a.81.81,0,0,0-.77-.79c-.18,0-.25,0-.28.19-.07.47-.15.94-.25,1.41,0,.17,0,.17.15.19A.9.9,0,0,0,33.92,1.71Z"/><path class="cls-3" d="M43.68,48.09A1.29,1.29,0,0,1,45,46.82a1.59,1.59,0,0,1,1.44,1.48,1.4,1.4,0,0,1-1.33,1.32A1.59,1.59,0,0,1,43.68,48.09Zm2.14.34a1.23,1.23,0,0,0-1-1.06.59.59,0,0,0-.56.61,1.24,1.24,0,0,0,1,1.06A.56.56,0,0,0,45.82,48.43Z"/><path class="cls-4" d="M50.22,44.23A1.33,1.33,0,0,1,49,45.56a1.59,1.59,0,0,1-1.51-1.46,1.32,1.32,0,0,1,1.27-1.3A1.56,1.56,0,0,1,50.22,44.23ZM49.11,45a.59.59,0,0,0,.59-.58,1.29,1.29,0,0,0-1.11-1A.58.58,0,0,0,48,44,1.21,1.21,0,0,0,49.11,45Z"/><path class="cls-3" d="M31.84,54.39a1.23,1.23,0,0,1-1.39,1.32,1.4,1.4,0,1,1,1.39-1.32Zm-.62,0a.91.91,0,0,0-.11-.5.61.61,0,0,0-.63-.45c-.34,0-.47.24-.55.54a1.14,1.14,0,0,0,0,.58c.13.51.36.73.74.68S31.21,54.87,31.22,54.37Z"/><path class="cls-3" d="M.57,21.36a1.22,1.22,0,0,1,1.22-1.31,1.38,1.38,0,0,1,1.54,1.31,1.26,1.26,0,0,1-1.24,1.35A1.43,1.43,0,0,1,.57,21.36Zm1.52.7c.46,0,.75-.21.77-.58s-.46-.78-1-.8-.82.23-.83.58S1.5,22,2.09,22.06Z"/><path class="cls-3" d="M51.44,41.55A1.47,1.47,0,0,1,50,40.15a1.26,1.26,0,0,1,1.29-1.27,1.5,1.5,0,0,1,1.5,1.35A1.3,1.3,0,0,1,51.44,41.55Zm.14-.61a.6.6,0,0,0,.64-.57c0-.42-.59-.88-1.12-.88a.59.59,0,0,0-.64.57C50.46,40.49,51,40.94,51.58,40.94Z"/><path class="cls-3" d="M52.91,16.16a1.28,1.28,0,0,1,1.31,1.25,1.5,1.5,0,0,1-1.54,1.41,1.36,1.36,0,0,1-1.29-1.34A1.46,1.46,0,0,1,52.91,16.16Zm.8,1.15a.57.57,0,0,0-.43-.55,1.28,1.28,0,0,0-1.32.61.52.52,0,0,0,0,.44.65.65,0,0,0,.79.39C53.28,18.11,53.73,17.69,53.71,17.31Z"/><path class="cls-5" d="M48.92,13a1.5,1.5,0,0,1,1.5-1.4,1.33,1.33,0,0,1,1.29,1.25,1.6,1.6,0,0,1-1.52,1.46A1.33,1.33,0,0,1,48.92,13Zm1.14.74a1.27,1.27,0,0,0,1.12-1,.61.61,0,0,0-.62-.56,1.26,1.26,0,0,0-1.11,1A.59.59,0,0,0,50.06,13.76Z"/><path class="cls-4" d="M4.47,41a.72.72,0,0,0,.25.63c.12.09.23-.06.34-.1s.19-.15.09-.29,0-.23.14-.3.23-.05.29.1a.43.43,0,0,1,0,.07c.38.8.42.56-.29.94s-.81.35-1.19-.37a1.31,1.31,0,0,1,.44-1.92,1.36,1.36,0,0,1,2,.57,2.45,2.45,0,0,1,.22.5c0,.14.22.31-.09.39s-.31,0-.38-.22c-.26-.89-1-1.11-1.62-.5A.63.63,0,0,0,4.47,41Z"/><path class="cls-8" d="M51.15,37.59a2.06,2.06,0,0,1,.34-1.1c.08-.14.16-.28.35-.14s.24.18.09.41c-.48.76-.25,1.39.52,1.55a.78.78,0,0,0,.89-.46c.06-.14.23-.32,0-.42s-.39-.29-.49.08-.21.06-.3,0a.15.15,0,0,1-.13-.24c.09-.21.18-.42.25-.63s.12-.1.22-.06l1,.38c.1,0,.16.08.17.2a1.79,1.79,0,0,1-1.2,1.74A1.4,1.4,0,0,1,51.15,37.59Z"/><path class="cls-4" d="M8.34,45.17c-.18-.06-.27,0-.32.22a1.72,1.72,0,0,1-.41.63c-.07.09-.1.34-.27.19s-.41-.27-.2-.55c.08-.12.17-.22.25-.34s.11-.16.16-.24,0-.34-.13-.46-.21.05-.3.12a1.7,1.7,0,0,0-.3.23c-.17.15-.29.24-.5,0s0-.34.12-.47L8,43.24c.15-.13.26-.15.41,0a5.28,5.28,0,0,1,.61.8A.72.72,0,0,1,8.34,45.17Zm.26-.92c0-.14-.11-.42-.33-.38s-.49.2-.49.44.2.36.45.36S8.61,44.56,8.6,44.25Z"/><path class="cls-3" d="M54.16,20.47c0,.34.35.7.16,1s-.6.17-.88.3-.47,0-.61-.26a1.65,1.65,0,0,1,0-1.85,1.42,1.42,0,0,1,2.34.37,2.75,2.75,0,0,1,.23.85c0,.14,0,.28-.2.26s-.33,0-.31-.24a1.23,1.23,0,0,0-.09-.5.85.85,0,0,0-1.22-.5A.82.82,0,0,0,53.16,21c.05.13.09.19.23.13s.42,0,.37-.21S53.92,20.56,54.16,20.47Z"/><path class="cls-3" d="M14.31,4.93a9.61,9.61,0,0,0,.53.82c.22.28.25.5-.08.71-.16.11-.29.26-.46.36a1.34,1.34,0,0,1-1.86-.34,1.44,1.44,0,0,1,.31-1.95,2.23,2.23,0,0,1,.65-.37c.14,0,.28-.09.34.11s0,.3-.16.36a1.56,1.56,0,0,0-.41.2A.83.83,0,0,0,13,6.07a.8.8,0,0,0,1.2.26c.13-.08.31-.16.14-.34s-.11-.46-.41-.23-.22,0-.3-.1-.13-.22.07-.31S14.07,5.08,14.31,4.93Z"/><path class="cls-3" d="M18.58,3.17c.45.12.59.53.84.84,0,.06.1.19,0,.2s-.34.27-.53,0a2.42,2.42,0,0,1-.27-.36,1.18,1.18,0,0,0-.29-.3c-.14-.1-.27,0-.4.05s0,.2,0,.28a2.19,2.19,0,0,0,.15.43c.07.16.2.3-.1.41s-.36,0-.45-.21c-.24-.67-.5-1.33-.76-2-.05-.12-.09-.17.07-.23s.5-.25.76-.33.76-.2,1,.15A.79.79,0,0,1,18.58,3.17Zm-.77-.79c-.12.05-.4,0-.37.24s0,.56.31.58a.45.45,0,0,0,.48-.43Q18.24,2.4,17.81,2.38Z"/><path class="cls-6" d="M39.41,52.61a1.08,1.08,0,0,1-.8,1.16.94.94,0,0,1-1.17-.4,9.72,9.72,0,0,1-.7-1.66c-.11-.25.16-.2.26-.27s.26-.1.33.1c.13.37.28.73.43,1.09a2.88,2.88,0,0,0,.13.31.49.49,0,0,0,.65.32c.33-.12.33-.42.25-.67a9.61,9.61,0,0,0-.51-1.29c-.17-.36.07-.4.29-.48s.17,0,.21.08A9.29,9.29,0,0,1,39.41,52.61Z"/><path class="cls-6" d="M45.72,9.33a1.11,1.11,0,0,1-1.06-1.65,13.75,13.75,0,0,1,1.09-1.33c.18-.21.25,0,.36.09s.22.2.06.37c-.32.35-.62.72-.93,1.08s-.31.53,0,.78.53.12.74-.11.62-.68.91-1c.16-.18.26-.21.47,0s.16.29,0,.45c-.34.36-.65.73-1,1.09A.91.91,0,0,1,45.72,9.33Z"/><path class="cls-8" d="M2.59,38.16c-.28-.38-.29-.67.14-.88s.07-.4,0-.6-.16-.29-.39-.26-.38.14-.49-.15-.14-.44.27-.44c.71,0,1.43,0,2.14,0,.29,0,.35.13.41.34s.19.39-.09.58C3.93,37.17,3.26,37.68,2.59,38.16Zm1.65-1.88-.78,0c-.1,0-.26,0-.26.11a.58.58,0,0,0,.11.38c.09.12.2,0,.28-.07Z"/><path class="cls-3" d="M11.26,9c-.25.38-.5.52-.89.21s-.4.19-.6.28-.13.21,0,.35a2.06,2.06,0,0,1,.17.33c.08.26-.17.34-.31.44s-.17-.11-.21-.2c-.34-.66-.66-1.33-1-2a.32.32,0,0,1,.11-.49c.17-.12.25-.4.58-.2C9.77,8.14,10.51,8.53,11.26,9ZM8.83,8.21,9.24,9c0,.08,0,.28.19.19a.76.76,0,0,0,.32-.32c.07-.14-.13-.15-.2-.2A5.91,5.91,0,0,0,8.83,8.21Z"/><path class="cls-4" d="M8.44,47.38l2.24-1.27c.12-.07.23-.09.32,0s.49.27.37.54c-.34.77-.73,1.51-1.1,2.26-.06.11-.13.15-.22,0s-.44-.26-.23-.54.11-.58-.18-.82-.24-.14-.36,0C8.92,47.91,8.67,47.77,8.44,47.38Zm2.38-.77c-.3.18-.5.28-.67.41s-.3.07-.22.23a.59.59,0,0,0,.3.28c.17.07.16-.14.22-.23A7.68,7.68,0,0,0,10.82,46.61Z"/><path class="cls-4" d="M16.49,4.19,16,4.47c-.35.18-.38.36-.13.67.09.11.14.05.21,0s.4-.19.59-.3.29-.08.4.11,0,.26-.16.33c-.35.18-.71.35-1.05.54-.19.11-.29.06-.38-.13-.32-.64-.65-1.27-1-1.9-.09-.18-.11-.3.11-.4.37-.17.73-.34,1.09-.54.17-.1.21,0,.26.11s.16.23,0,.32a4.34,4.34,0,0,1-.53.26c-.25.09-.22.22-.13.44s.25.17.41.08.14-.05.19-.09C16.17,3.72,16.38,3.78,16.49,4.19Z"/><path class="cls-4" d="M23.58,53.19l-.51-.12c-.16,0-.32-.13-.37.16s-.07.38.23.39c.14,0,.27.06.41.08s.24.13.21.32-.15.23-.32.18a2,2,0,0,0-.33-.08c-.21,0-.39-.12-.47.22s.11.37.32.42a3.63,3.63,0,0,0,.45.1c.2,0,.28.07.21.29s-.1.26-.31.2c-.4-.11-.81-.21-1.22-.29-.2,0-.22-.11-.18-.28.18-.7.33-1.41.5-2.12,0-.18.1-.3.33-.23s.76.17,1.14.26c.14,0,.25.09.19.25S23.79,53.27,23.58,53.19Z"/><path class="cls-8" d="M8.73,11.45a1.93,1.93,0,0,1-.17.21,5.73,5.73,0,0,0-.57.73c-.22.36-.4.39-.73.1s-1-.82-1.51-1.21c-.15-.11-.22-.19-.08-.36s.5-.61.73-.92c.12-.15.21-.2.38-.06s.18.21,0,.36-.2.27-.32.39-.14.3.06.45.31.06.42-.1.18-.22.25-.34.21-.15.37,0,.14.23,0,.36-.13.19-.21.27c-.3.25-.17.42.09.59s.23.09.33-.06.27-.36.42-.53.08-.21.22-.1Z"/><path class="cls-3" d="M8,42.77c0,.14-.14.15-.22.22s-.17.09-.25,0a3.83,3.83,0,0,0-.28-.42c-.1-.14-.11-.39-.42-.21s-.16.34,0,.53.12.19.19.28.12.23,0,.34-.27.12-.37-.06a3.53,3.53,0,0,0-.21-.32c-.11-.18-.17-.37-.46-.17s-.24.32-.07.53.16.26.26.38.11.24-.07.36-.25.11-.35-.08c-.24-.41-.73-.83-.68-1.21s.71-.53,1.09-.8.53-.32.78-.51.34-.16.48.09.37.59.56.89Z"/><path class="cls-8" d="M56.25,24.67c0,.17-.08.17-.19.18s-.25.13-.29-.09-.07-.38-.1-.58-.09-.34-.37-.29-.25.19-.21.38,0,.25.07.37.1.33-.19.36-.29-.05-.29-.26-.06-.22-.07-.33c0-.28-.09-.38-.4-.31s-.32.21-.23.45,0,.31.07.46,0,.29-.19.31-.27,0-.29-.22a4.41,4.41,0,0,0-.17-1c-.14-.41,0-.54.4-.59.62-.08,1.23-.22,1.85-.34.25,0,.37,0,.4.29A11.72,11.72,0,0,0,56.25,24.67Z"/><path class="cls-8" d="M22.31,2.18a3.47,3.47,0,0,1-.56.11c-.37,0-.41.21-.31.51s.08.28.3.19.42-.08.61-.14.26-.09.3.13.05.3-.2.34a6.25,6.25,0,0,0-1,.24c-.37.13-.5,0-.57-.35-.11-.66-.26-1.31-.43-2-.06-.21,0-.27.19-.31l1.1-.25c.14,0,.31-.09.34.17s0,.31-.24.33-.3.07-.46.09-.26.16-.23.37.19.24.36.2a.94.94,0,0,0,.24-.06C22.13,1.68,22.36,1.73,22.31,2.18Z"/><path class="cls-4" d="M5,14.73a6.55,6.55,0,0,1-.32.58c-.15.22,0,.31.15.4s.31.19.43-.07.17-.31.27-.47.06-.31.31-.17.26.21.11.4-.11.2-.17.29c-.19.31-.27.82-.57.88s-.63-.3-1-.48l-1.13-.63c-.17-.09-.26-.18-.12-.39a9.19,9.19,0,0,0,.59-1c.08-.17.16-.19.32-.1s.21.18.11.33-.14.29-.23.4-.16.35.1.51.31-.1.41-.22a3.11,3.11,0,0,0,.22-.4c0-.07.09-.16.19-.08S5,14.58,5,14.73Z"/><path class="cls-6" d="M43.54,6.46c-.17.08-.23.26-.34.39s0,.18.11.24l.5.38c.14.1.2.17.06.36s-.24.12-.37,0c-.31-.23-.63-.47-1-.69-.16-.11-.21-.21-.07-.39.45-.59.88-1.2,1.31-1.8.08-.11.14-.19.28-.07.34.26.68.5,1,.74.15.11.16.18,0,.33s-.18.2-.33.08-.28-.2-.4-.31-.29-.19-.46,0-.05.33.11.44a2.62,2.62,0,0,0,.34.24c.19.1.19.19.07.35s-.21.18-.36,0A5.19,5.19,0,0,0,43.54,6.46Z"/><path class="cls-3" d="M30.17.61a1.13,1.13,0,0,0-.45,0c-.13.06-.09.25-.09.39s.09.15.19.16l.55,0c.16,0,.27,0,.25.23s-.06.3-.27.28a2.45,2.45,0,0,0-.38,0c-.16,0-.4-.18-.43.19s0,.5.35.47c.15,0,.31.05.46,0s.3,0,.29.27-.16.24-.33.22l-1.13-.09c-.22,0-.29-.09-.27-.31C29,1.72,29,1,29.08.27c0-.17,0-.26.25-.24.36.05.72.07,1.08.1.18,0,.36,0,.34.29s-.22.17-.37.19A1.47,1.47,0,0,1,30.17.61Z"/><path class="cls-4" d="M36.74,2.48c0,.46-.18.47-.54.36-.17,0-.45-.38-.6.09-.1.3-.07.47.28.5.15,0,.3.1.45.12s.24.14.18.32-.12.22-.3.16c-.41-.13-.83-.25-1.25-.35-.16,0-.15-.11-.12-.23.21-.75.43-1.51.63-2.26,0-.14.1-.17.24-.13l1.16.33c.17.05.25.09.19.31s-.18.21-.34.16a3.6,3.6,0,0,1-.44-.12c-.25-.12-.34,0-.42.21s0,.31.25.35A5.79,5.79,0,0,1,36.74,2.48Z"/><path class="cls-4" d="M35.91,51.91a.72.72,0,0,1,.81.61.74.74,0,0,1-.47,1c-.56.17-.57.46-.37.89.09.2,0,.28-.19.33s-.33.1-.4-.16c-.19-.7-.39-1.4-.59-2.09-.05-.16,0-.27.15-.32A3,3,0,0,1,35.91,51.91Zm-.2.49c-.11,0-.38,0-.33.19s0,.6.31.64a.43.43,0,0,0,.47-.43C36.17,52.54,36,52.38,35.71,52.4Z"/><path class="cls-4" d="M40.26,3.22a.83.83,0,0,1-1.17.84c-.45-.18-.64-.07-.76.35s-.23.37-.51.19-.17-.14-.1-.29c.32-.67.62-1.34.93-2,.06-.13.12-.26.3-.17a5.58,5.58,0,0,1,1,.5A.66.66,0,0,1,40.26,3.22Zm-1.07.42c.28,0,.47-.14.48-.42a.43.43,0,0,0-.43-.47c-.3,0-.32.37-.4.59S39.05,3.56,39.19,3.64Z"/><path class="cls-8" d="M14.71,52.14a1.81,1.81,0,0,1-1.07-.52c-.2-.18-.13-.28,0-.44s.24,0,.34.08l.13.12c.19.14.42.33.63.15s0-.43-.12-.62a1.94,1.94,0,0,1-.27-.43.72.72,0,0,1,.74-1,1.57,1.57,0,0,1,1,.51c.14.14,0,.21-.05.3s-.17.2-.31,0a1.15,1.15,0,0,0-.45-.3.27.27,0,0,0-.31,0,.26.26,0,0,0,0,.32,6.15,6.15,0,0,1,.42.62A.76.76,0,0,1,14.71,52.14Z"/><path class="cls-8" d="M2.75,24.33a2.47,2.47,0,0,1-.16.62c-.08.21-.15.27-.39.19s-.17-.23-.09-.37a1.13,1.13,0,0,0,.16-.56.28.28,0,0,0-.18-.3.25.25,0,0,0-.33.1c-.1.15-.21.29-.31.45A.76.76,0,0,1,0,24.12a2,2,0,0,1,.17-.9c0-.09.09-.23.23-.1s.35,0,.24.29a1.22,1.22,0,0,0-.15.48c0,.15,0,.29.18.34A.28.28,0,0,0,1,24.09l.21-.32c.3-.45.62-.59,1-.47S2.76,23.77,2.75,24.33Z"/><path class="cls-4" d="M19,53.14c0,.42.26.71.79.84.17,0,.36,0,.3.31s-.26.19-.42.16a1.4,1.4,0,0,1-1.32-1.25,1.51,1.51,0,0,1,1-1.49,1.71,1.71,0,0,1,1.37.25c.14.09.13.19,0,.31s-.11.23-.29.13a1.78,1.78,0,0,0-.54-.21C19.46,52.1,19,52.58,19,53.14Z"/><path class="cls-8" d="M2.9,19.76A1.38,1.38,0,0,1,1.74,19a1.58,1.58,0,0,1,.18-1.63c.09-.13.15-.19.29-.07s.27.16.13.35a.86.86,0,0,0-.13,1,1,1,0,0,0,1,.52.87.87,0,0,0,.71-.78c0-.22.08-.33.34-.26s.17.22.13.38C4.18,19.34,3.75,19.76,2.9,19.76Z"/><path class="cls-8" d="M32.66,55.43c-.2,0-.24,0-.27-.18-.12-.74-.26-1.48-.4-2.22,0-.15,0-.26.19-.28.39,0,.78-.13,1.16-.21.21,0,.25.05.29.23s0,.25-.2.26a2.7,2.7,0,0,0-.41.07c-.2,0-.41,0-.34.37s.21.33.46.25a2.7,2.7,0,0,1,.41-.07c.1,0,.21,0,.19.15s.12.25-.08.32l-.2.05c-.62.13-.64.13-.48.78C33.07,55.31,32.92,55.43,32.66,55.43Z"/><path class="cls-8" d="M51.68,36c0-1,.81-.6,1.33-.83a5.15,5.15,0,0,0-.48-.39c-.38-.24-.57-.52-.25-1a2.85,2.85,0,0,1,.64.61,2.2,2.2,0,0,0,1.4.83c.2,0,.33.1.24.36s-.14.36-.39.23a2.79,2.79,0,0,0-1.93,0Z"/><path class="cls-8" d="M7,13.72c-.37.5-.37.5-.85.14-.32-.23-.65-.44-.94-.69s-.46-.27-.62.09c-.07.18-.18.27-.38.11S4,13.19,4.13,13c.32-.42.62-.86.92-1.3.11-.16.19-.17.36-.06s.18.25,0,.36c-.36.33-.17.51.14.72C6.07,13.05,6.51,13.39,7,13.72Z"/><path class="cls-8" d="M41.72,52.1c0,.16-.09.17-.17.21-.35.18-.71.35-1,.54-.17.09-.27.09-.36-.1q-.48-1-1-2c-.11-.2-.08-.29.13-.38s.3-.17.42.09c.22.49.49,1,.71,1.43.11.23.22.3.44.15s.31-.14.45-.23C41.63,51.65,41.62,52,41.72,52.1Z"/><path class="cls-4" d="M50.9,43.51l-.24-.12c-.59-.39-1.18-.8-1.79-1.16-.25-.15-.12-.24,0-.38s.13-.31.36-.14c.46.32.95.59,1.41.91.18.12.28.12.38-.09s.22-.29.3-.45.23-.15.39-.07.15.2,0,.34c-.21.31-.4.64-.6.95C51.07,43.39,51,43.5,50.9,43.51Z"/><path class="cls-9" d="M13,7.6c0,.1-.07.12-.11.16-.38.29-.73.79-1.13.82s-.58-.61-.87-1-.42-.56-.66-.81-.13-.31.05-.46.3-.13.44.07c.31.41.64.81,1,1.23.15.2.26.29.47.07a2,2,0,0,1,.39-.32A.29.29,0,0,1,13,7.6Z"/><path class="cls-8" d="M3.79,39.77c.07.26-.09.23-.18.28s-.2.11-.27,0c-.18-.42-.37-.84-.56-1.26-.06-.12,0-.16.09-.2l2.1-1c.23-.11.27.07.35.22s.07.28-.14.37c-.49.2-1,.46-1.45.65-.28.1-.29.23-.17.45S3.74,39.65,3.79,39.77Z"/><path class="cls-9" d="M51.42,16.4c0,.17-.16.17-.24.23s-.18,0-.24-.06c-.23-.38-.44-.77-.67-1.16-.1-.16,0-.21.13-.28l1.89-1.08c.25-.15.31,0,.44.18s0,.27-.13.36c-.43.24-.84.52-1.28.72s-.37.36-.16.64S51.34,16.26,51.42,16.4Z"/><path class="cls-10" d="M20.48,3.79c-.07.14-.22.13-.33.18s-.24.06-.3-.1c-.24-.76-.48-1.52-.73-2.27-.07-.21.08-.17.17-.19s.3-.23.38,0C20,2.2,20.21,3,20.48,3.79Z"/><path class="cls-11" d="M10.07,45.21l-.14.15c-.55.52-1.1,1-1.64,1.57-.18.18-.26.06-.36-.06s-.28-.19-.09-.37C8.42,46,9,45.42,9.55,44.87a.13.13,0,0,1,.21,0C9.86,45,10,45.1,10.07,45.21Z"/><path class="cls-12" d="M21,54.85c-.32,0-.47-.2-.39-.51.19-.67.4-1.33.57-2,.07-.27.21-.19.37-.16s.3.12.23.35c-.21.69-.4,1.39-.61,2.09C21.12,54.69,21.13,54.85,21,54.85Z"/><path class="cls-8" d="M2.62,16.1l.19.09c.64.29,1.29.59,1.94.87.24.1.21.22.13.4s-.16.28-.39.16c-.65-.31-1.32-.61-2-.91-.11-.06-.26-.1-.15-.27S2.41,16.12,2.62,16.1Z"/><path class="cls-13" d="M55.8,22.27c.07.23-.1.21-.18.23-.74.18-1.47.33-2.21.5-.24.06-.25-.06-.27-.23s-.16-.3.15-.36c.7-.13,1.4-.28,2.08-.47C55.78,21.81,55.77,22.07,55.8,22.27Z"/><polygon class="cls-14" points="41.09 44.72 41.08 44.72 41.08 44.72 41.08 44.72 41.09 44.72"/><polygon class="cls-14" points="41.09 44.72 41.08 44.72 41.08 44.72 41.08 44.72 41.09 44.72"/><path class="cls-15" d="M5.78,10.51A.63.63,0,0,1,6,9.56C6.06,9.91,6.15,10.25,5.78,10.51Z"/><path class="cls-16" d="M36.71,13.25a.58.58,0,0,0-.09.34,3.43,3.43,0,0,1-1-.4A2.19,2.19,0,0,1,36.71,13.25Z"/><path class="cls-17" d="M3.11,13.74c.21.57.21.57,0,.93A.58.58,0,0,1,3.11,13.74Z"/><path class="cls-18" d="M15.39,2.34c-.12.33-.08.68-.53.72C14.74,2.64,14.92,2.43,15.39,2.34Z"/></g></g></svg>