<svg xmlns="http://www.w3.org/2000/svg" viewBox="0 0 99.58 50.67"><defs><style>.cls-1{fill:#1d1e1c;}.cls-2{fill:#d8232d;}</style></defs><g id="Layer_2" data-name="Layer 2"><g id="Layer_2-2" data-name="Layer 2"><path class="cls-1" d="M35.93,2.61s5.76-.53,6.86,3.33a3.35,3.35,0,0,1-.23,2.16s-.57,1-.26,1.37.53.83,1.17-.15c0,0,.72-2.43,2.24-1.52a10.45,10.45,0,0,1,2.77,2.85L49.05,14l1.67.15-1.49,1.37s-.18,1.36.73.49l2.12-1.67s1.18-.38-.23-.76a3,3,0,0,1-.58-1.82l-.8-.42L50.27,10l-1-.06V8.34L50,8.26l-.17-.6S46.35,7.49,45.75,6A7.22,7.22,0,0,0,40.4,2.23a12.88,12.88,0,0,0-4.36,0S35.68,2.3,35.93,2.61Z"/><path class="cls-2" d="M30.54,2.61s3,.45,3-1.35S31.34.11,31.34.11a2.4,2.4,0,0,0-1.71,2.55c0,1.84-.27,5.29,4.09,7.87a11.82,11.82,0,0,0,6,1.67c4.45,0,6.07-1.84,6.07-1.84-5.1,1.2-6.23.06-6.23.06S39.86,6,37,6a21.51,21.51,0,0,1,.68,4.27s-2.16.51-4.85-2.19a8.16,8.16,0,0,1-2.31-5.45Z"/><path class="cls-2" d="M35.31,28.45a9.14,9.14,0,0,0,1.91-3,15.82,15.82,0,0,0,1.08-6.8l-.23-6.08,1.54.1s.12,5.27,0,8.94C39.53,23.92,37.57,28,35.31,28.45Z"/><path class="cls-1" d="M35.18,10.05s1.61,2.58,1.78,8.61c.16,5.65-.31,8.35-2.26,9.54,0,0,1.51-2.23,1.33-7.21C36,21,35.93,12.39,35.18,10.05Z"/><path class="cls-1" d="M42.49,13.87S43.81,31,38.77,32c0,0,1.24-1.53,2-5.44a27.52,27.52,0,0,0,.48-5.28V13.87Z"/><path class="cls-1" d="M49.53,23.22a1.44,1.44,0,0,1,1-.3,1.91,1.91,0,0,1,1,.28,4,4,0,0,1,1,.81l1.3-1.66a4.42,4.42,0,0,0-1.49-1.06,4.37,4.37,0,0,0-1.76-.37,3.51,3.51,0,0,0-2.48.81A3,3,0,0,0,47.14,24a3.37,3.37,0,0,0,.59,1.92,4.77,4.77,0,0,0,1.67,1.45l1.45.79a1.3,1.3,0,0,1,.83,1.17,1,1,0,0,1-.4.87,1.94,1.94,0,0,1-1.17.3,5.91,5.91,0,0,1-1.43-.2,9.06,9.06,0,0,1-1.55-.56l-.26,2.14a6.49,6.49,0,0,0,1.45.46,8.47,8.47,0,0,0,1.68.16,4.16,4.16,0,0,0,2.75-.81,2.85,2.85,0,0,0,1-2.32,3,3,0,0,0-.58-1.77,5.11,5.11,0,0,0-1.65-1.44l-1.36-.79a2.39,2.39,0,0,1-.71-.6,1.21,1.21,0,0,1-.24-.71A1.06,1.06,0,0,1,49.53,23.22Z"/><path class="cls-1" d="M56.75,20.92l-3,11.6h2.08l.51-2.19h3.18L60,32.52h2.09l-3-11.6Zm.06,7.41,1.06-4.57H58l1.06,4.57Z"/><path class="cls-1" d="M68.89,22a4.2,4.2,0,0,0-3-1H62.69v11.6h1.93V29.2h1.25a3.94,3.94,0,0,0,3-1.14A4.49,4.49,0,0,0,70,24.84,3.79,3.79,0,0,0,68.89,22Zm-1.54,4.68a1.86,1.86,0,0,1-1.48.58H64.62v-4.3h1.25a2,2,0,0,1,1.48.54A2.11,2.11,0,0,1,67.88,25,2.4,2.4,0,0,1,67.35,26.63Z"/><polygon class="cls-1" points="0.79 45.28 0 45.28 0 49.36 2.87 49.36 2.87 48.66 0.79 48.66 0.79 45.28"/><path class="cls-1" d="M5.85,48.47v-.93a1.16,1.16,0,0,0-.36-.92,1.47,1.47,0,0,0-1-.32,2.29,2.29,0,0,0-1.25.38l.24.49a2.4,2.4,0,0,1,.47-.25,1.27,1.27,0,0,1,.47-.09.73.73,0,0,1,.5.16.62.62,0,0,1,.17.46v.17a1.53,1.53,0,0,0-.34-.09,1.72,1.72,0,0,0-.39,0,2.11,2.11,0,0,0-.52.07,1.36,1.36,0,0,0-.4.2,1,1,0,0,0-.27.31.86.86,0,0,0-.09.39.92.92,0,0,0,.07.38,1.29,1.29,0,0,0,.22.3.91.91,0,0,0,.33.2,1.05,1.05,0,0,0,.4.07,1.44,1.44,0,0,0,.62-.13,1.35,1.35,0,0,0,.48-.41l0,.17a.43.43,0,0,0,.15.26.54.54,0,0,0,.33.1,2.38,2.38,0,0,0,.34,0V48.7a.17.17,0,0,1-.14-.06A.25.25,0,0,1,5.85,48.47Zm-.77-.09A.28.28,0,0,1,5,48.6a.54.54,0,0,1-.27.18.94.94,0,0,1-.37.07.54.54,0,0,1-.37-.13.42.42,0,0,1-.14-.32A.41.41,0,0,1,4,48.06a.84.84,0,0,1,.49-.14l.31,0a2.13,2.13,0,0,1,.3.09Z"/><path class="cls-1" d="M10.58,47.39a1.46,1.46,0,0,0-.41-.23A5,5,0,0,0,9.63,47l-.41-.11a1.58,1.58,0,0,1-.29-.12.61.61,0,0,1-.17-.14.37.37,0,0,1-.06-.21.39.39,0,0,1,.16-.34A.82.82,0,0,1,9.35,46a1.49,1.49,0,0,1,.36,0,1.6,1.6,0,0,1,.33.11,1.91,1.91,0,0,1,.25.13l.15.11.35-.64a3.09,3.09,0,0,0-.63-.32,2.22,2.22,0,0,0-.79-.13,1.81,1.81,0,0,0-.58.08,1.39,1.39,0,0,0-.47.24A1,1,0,0,0,8,46a1.28,1.28,0,0,0-.12.56,1,1,0,0,0,.08.4.75.75,0,0,0,.21.3,1.57,1.57,0,0,0,.36.22,4.86,4.86,0,0,0,.51.18l.43.12a1.75,1.75,0,0,1,.33.13.55.55,0,0,1,.22.16.32.32,0,0,1,.07.22c0,.28-.22.42-.65.42A1.76,1.76,0,0,1,9,48.63a1.65,1.65,0,0,1-.41-.14l-.32-.16a.8.8,0,0,1-.18-.14l-.35.68a2.59,2.59,0,0,0,.8.39,2.83,2.83,0,0,0,.91.14,2.76,2.76,0,0,0,.57-.06,1.75,1.75,0,0,0,.48-.21,1,1,0,0,0,.33-.38,1.19,1.19,0,0,0,.12-.56,1.09,1.09,0,0,0-.09-.47A.93.93,0,0,0,10.58,47.39Z"/><path class="cls-1" d="M14,46.77a1.31,1.31,0,0,0-.49-.34,1.53,1.53,0,0,0-.66-.13,1.59,1.59,0,0,0-.66.13,1.31,1.31,0,0,0-.49.34,1.41,1.41,0,0,0-.31.49,1.52,1.52,0,0,0-.11.6,1.47,1.47,0,0,0,.11.59,1.45,1.45,0,0,0,.31.5,1.59,1.59,0,0,0,.49.34,1.76,1.76,0,0,0,.66.12,1.69,1.69,0,0,0,.66-.12A1.64,1.64,0,0,0,14,49a1.83,1.83,0,0,0,.31-.5,1.66,1.66,0,0,0,.1-.59,1.72,1.72,0,0,0-.1-.6A1.6,1.6,0,0,0,14,46.77Zm-.42,1.45a.92.92,0,0,1-.17.29.78.78,0,0,1-.56.25.67.67,0,0,1-.31-.07.72.72,0,0,1-.25-.18.9.9,0,0,1-.16-.29,1.11,1.11,0,0,1,0-.72.9.9,0,0,1,.16-.29.92.92,0,0,1,.25-.19.82.82,0,0,1,.31-.07.78.78,0,0,1,.31.07.67.67,0,0,1,.25.19.88.88,0,0,1,.17.28,1,1,0,0,1,.06.36A1.06,1.06,0,0,1,13.57,48.22Z"/><path class="cls-1" d="M16.7,48.66a.72.72,0,0,1-.38.1.67.67,0,0,1-.31-.07.72.72,0,0,1-.25-.18.9.9,0,0,1-.16-.29.87.87,0,0,1-.07-.37,1,1,0,0,1,.06-.36.92.92,0,0,1,.17-.29A.64.64,0,0,1,16,47a.78.78,0,0,1,.31-.07.68.68,0,0,1,.35.09.65.65,0,0,1,.26.26l.75-.23a1.33,1.33,0,0,0-.52-.56,1.77,1.77,0,0,0-1.5-.08,1.41,1.41,0,0,0-.49.33,1.47,1.47,0,0,0-.32.5,1.63,1.63,0,0,0-.11.59,1.73,1.73,0,0,0,.11.6,1.49,1.49,0,0,0,.82.84,1.69,1.69,0,0,0,.66.12,1.62,1.62,0,0,0,.85-.21,1.26,1.26,0,0,0,.51-.57l-.75-.23A.54.54,0,0,1,16.7,48.66Z"/><rect class="cls-1" x="18.16" y="46.35" width="0.77" height="3"/><rect class="cls-1" x="18.16" y="45.17" width="0.77" height="0.76"/><polygon class="cls-1" points="21.74 45.17 21.02 45.17 20.71 45.85 21.21 46 21.74 45.17"/><path class="cls-1" d="M22.17,46.76a1.41,1.41,0,0,0-.49-.33A1.53,1.53,0,0,0,21,46.3a1.59,1.59,0,0,0-.66.13,1.43,1.43,0,0,0-.5.34,1.36,1.36,0,0,0-.31.5,1.52,1.52,0,0,0-.11.6,1.47,1.47,0,0,0,.11.59,1.34,1.34,0,0,0,.32.49,1.27,1.27,0,0,0,.5.34,1.67,1.67,0,0,0,.65.12,1.63,1.63,0,0,0,.87-.22,1.3,1.3,0,0,0,.53-.56l-.66-.19a.58.58,0,0,1-.28.3,1,1,0,0,1-.43.11.93.93,0,0,1-.29-.05.73.73,0,0,1-.25-.15.66.66,0,0,1-.17-.23.85.85,0,0,1-.09-.32h2.32a.36.36,0,0,0,0-.11v-.15a1.62,1.62,0,0,0-.11-.58A1.45,1.45,0,0,0,22.17,46.76Zm-1.93.84a.74.74,0,0,1,.08-.3.81.81,0,0,1,.17-.24.76.76,0,0,1,.23-.15.71.71,0,0,1,.29,0,.76.76,0,0,1,.54.2.81.81,0,0,1,.25.54Z"/><path class="cls-1" d="M24.5,48.66a.67.67,0,0,1-.24,0,.34.34,0,0,1-.2-.06.3.3,0,0,1-.08-.23V46.94h.63v-.59H24v-1h-.77v1h-.4v.59h.4v1.73a.86.86,0,0,0,.06.34.63.63,0,0,0,.42.36,1.36,1.36,0,0,0,.3,0,1.84,1.84,0,0,0,.47-.07l.38-.14-.16-.61A.84.84,0,0,1,24.5,48.66Z"/><path class="cls-1" d="M27.71,46.76a1.41,1.41,0,0,0-.49-.33,1.53,1.53,0,0,0-.66-.13,1.59,1.59,0,0,0-.66.13,1.35,1.35,0,0,0-.5.34,1.53,1.53,0,0,0-.32.5,1.72,1.72,0,0,0-.1.6,1.47,1.47,0,0,0,.11.59,1.34,1.34,0,0,0,.32.49,1.31,1.31,0,0,0,.49.34,1.76,1.76,0,0,0,.66.12,1.66,1.66,0,0,0,.87-.22,1.3,1.3,0,0,0,.53-.56l-.66-.19a.62.62,0,0,1-.28.3,1,1,0,0,1-.43.11.93.93,0,0,1-.29-.05.73.73,0,0,1-.25-.15.66.66,0,0,1-.17-.23.85.85,0,0,1-.09-.32h2.32s0-.07,0-.11v-.15a1.62,1.62,0,0,0-.11-.58A1.45,1.45,0,0,0,27.71,46.76Zm-1.93.84a.74.74,0,0,1,.08-.3,1,1,0,0,1,.16-.24,1,1,0,0,1,.24-.15.71.71,0,0,1,.29,0,.76.76,0,0,1,.54.2.85.85,0,0,1,.25.54Z"/><polygon class="cls-1" points="27.28 45.17 26.56 45.17 26.25 45.85 26.75 46 27.28 45.17"/><path class="cls-1" d="M31,45.29l-1.55,4.07h.81l.37-1h1.42l.38,1h.82l-1.55-4.07Zm-.24,2.49.59-1.59.56,1.59Z"/><path class="cls-1" d="M34.87,48.72l-.15,0a.3.3,0,0,1-.23-.09.4.4,0,0,1-.08-.26V45.17h-.77v3.49a.74.74,0,0,0,.2.55.76.76,0,0,0,.56.19,1.67,1.67,0,0,0,.37,0,1.53,1.53,0,0,0,.36-.11l-.1-.59Z"/><path class="cls-1" d="M37.74,46.88a1.26,1.26,0,0,0-.44-.42,1.11,1.11,0,0,0-.61-.16,1.32,1.32,0,0,0-.57.12,1.31,1.31,0,0,0-.44.33,1.64,1.64,0,0,0-.29.5,1.68,1.68,0,0,0-.1.6,1.63,1.63,0,0,0,.1.59,1.42,1.42,0,0,0,.27.48,1.5,1.5,0,0,0,.43.33,1.26,1.26,0,0,0,.55.12,1.16,1.16,0,0,0,.58-.14,1,1,0,0,0,.42-.4v.38a.89.89,0,0,1-.07.38.67.67,0,0,1-.2.26.9.9,0,0,1-.29.16,1.27,1.27,0,0,1-.34.05,1.17,1.17,0,0,1-.55-.13,1.22,1.22,0,0,1-.44-.33l-.41.41a1.68,1.68,0,0,0,.57.46,1.89,1.89,0,0,0,.83.16,2.41,2.41,0,0,0,.67-.09,1.78,1.78,0,0,0,.53-.28,1.49,1.49,0,0,0,.34-.45,1.32,1.32,0,0,0,.13-.6V46.35h-.67Zm-.1,1.38a.72.72,0,0,1-.29.35.7.7,0,0,1-.21.11.67.67,0,0,1-.24,0,.72.72,0,0,1-.33-.07,1,1,0,0,1-.26-.19.88.88,0,0,1-.17-.28,1,1,0,0,1-.06-.34,1,1,0,0,1,.05-.35.9.9,0,0,1,.16-.29.79.79,0,0,1,.24-.21.72.72,0,0,1,.32-.08.83.83,0,0,1,.47.16,1,1,0,0,1,.32.43Z"/><polygon class="cls-1" points="41.22 45.17 40.5 45.17 40.19 45.85 40.69 46 41.22 45.17"/><path class="cls-1" d="M41.65,46.76a1.41,1.41,0,0,0-.49-.33,1.56,1.56,0,0,0-.66-.13,1.59,1.59,0,0,0-.66.13,1.27,1.27,0,0,0-.5.34,1.38,1.38,0,0,0-.32.5,1.73,1.73,0,0,0-.11.6A1.51,1.51,0,0,0,39.34,49a1.43,1.43,0,0,0,.5.34,1.73,1.73,0,0,0,.66.12,1.6,1.6,0,0,0,.86-.22,1.24,1.24,0,0,0,.53-.56l-.65-.19a.62.62,0,0,1-.28.3,1,1,0,0,1-.44.11.87.87,0,0,1-.28-.05.64.64,0,0,1-.25-.15.84.84,0,0,1-.18-.23,1.07,1.07,0,0,1-.08-.32h2.32a.37.37,0,0,0,0-.11.76.76,0,0,0,0-.15,1.62,1.62,0,0,0-.11-.58A1.45,1.45,0,0,0,41.65,46.76Zm-1.93.84a.73.73,0,0,1,.07-.3,1,1,0,0,1,.17-.24,1,1,0,0,1,.24-.15.71.71,0,0,1,.29,0,.76.76,0,0,1,.54.2.85.85,0,0,1,.25.54Z"/><path class="cls-1" d="M44.17,46.31a.79.79,0,0,0-.25,0,1,1,0,0,0-.25.14,1,1,0,0,0-.24.22,1.85,1.85,0,0,0-.19.27v-.64h-.7v3h.76V47.54a.84.84,0,0,1,.4-.39,1.54,1.54,0,0,1,.63-.13v-.7h-.16Z"/><rect class="cls-1" x="44.76" y="46.35" width="0.77" height="3"/><rect class="cls-1" x="44.76" y="45.17" width="0.77" height="0.76"/><path class="cls-1" d="M48.77,46.76a1.45,1.45,0,0,0-.5-.33,1.51,1.51,0,0,0-.65-.13,1.6,1.6,0,0,0-.67.13,1.43,1.43,0,0,0-.5.34,1.36,1.36,0,0,0-.31.5,1.52,1.52,0,0,0-.11.6,1.67,1.67,0,0,0,.11.59,1.52,1.52,0,0,0,.82.83,1.67,1.67,0,0,0,.65.12,1.61,1.61,0,0,0,.87-.22,1.3,1.3,0,0,0,.53-.56l-.66-.19a.58.58,0,0,1-.28.3.92.92,0,0,1-.43.11.93.93,0,0,1-.29-.05.61.61,0,0,1-.24-.15.58.58,0,0,1-.18-.23.85.85,0,0,1-.09-.32h2.32a.36.36,0,0,0,0-.11v-.15a1.61,1.61,0,0,0-.1-.58A1.83,1.83,0,0,0,48.77,46.76Zm-1.94.84a.74.74,0,0,1,.08-.3.81.81,0,0,1,.17-.24,1,1,0,0,1,.24-.15.66.66,0,0,1,.28,0,.74.74,0,0,1,.54.2.81.81,0,0,1,.25.54Z"/><path class="cls-1" d="M52.27,46.67A.7.7,0,0,0,52,46.4a.9.9,0,0,0-.46-.1,1.49,1.49,0,0,0-.71.16,1.16,1.16,0,0,0-.48.45v-.56h-.7v3h.77V47.6a.85.85,0,0,1,.13-.25.9.9,0,0,1,.19-.2A1,1,0,0,1,51,47a.71.71,0,0,1,.24,0,.41.41,0,0,1,.35.16.91.91,0,0,1,.13.53v1.69h.76V47.48a3.11,3.11,0,0,0,0-.43A1.15,1.15,0,0,0,52.27,46.67Z"/><path class="cls-1" d="M55.74,46.67a.81.81,0,0,0-.28-.27.9.9,0,0,0-.46-.1,1.51,1.51,0,0,0-.71.16,1.16,1.16,0,0,0-.48.45v-.56h-.7v3h.77V47.6a.85.85,0,0,1,.13-.25,1.21,1.21,0,0,1,.19-.2,1,1,0,0,1,.23-.13.66.66,0,0,1,.23,0,.41.41,0,0,1,.35.16.84.84,0,0,1,.13.53v1.69h.77V47.48a3.13,3.13,0,0,0,0-.43A1.42,1.42,0,0,0,55.74,46.67Z"/><path class="cls-1" d="M59.13,46.76a1.45,1.45,0,0,0-.5-.33A1.51,1.51,0,0,0,58,46.3a1.6,1.6,0,0,0-.67.13,1.43,1.43,0,0,0-.5.34,1.51,1.51,0,0,0-.31.5,1.52,1.52,0,0,0-.11.6,1.67,1.67,0,0,0,.11.59,1.52,1.52,0,0,0,.82.83,1.67,1.67,0,0,0,.65.12,1.61,1.61,0,0,0,.87-.22,1.3,1.3,0,0,0,.53-.56l-.66-.19a.58.58,0,0,1-.28.3.92.92,0,0,1-.43.11.93.93,0,0,1-.29-.05.61.61,0,0,1-.24-.15.58.58,0,0,1-.18-.23.85.85,0,0,1-.09-.32h2.32a.36.36,0,0,0,0-.11v-.15a1.54,1.54,0,0,0-.41-1.08Zm-1.94.84a.74.74,0,0,1,.08-.3.81.81,0,0,1,.17-.24,1,1,0,0,1,.24-.15.68.68,0,0,1,.29,0,.73.73,0,0,1,.53.2.81.81,0,0,1,.25.54Z"/><path class="cls-1" d="M64.33,48.47v-3.3h-.77v1.71a1.27,1.27,0,0,0-.41-.42,1.12,1.12,0,0,0-.6-.16,1.19,1.19,0,0,0-.54.12,1.27,1.27,0,0,0-.43.33,1.62,1.62,0,0,0-.28.5,1.93,1.93,0,0,0-.1.6,1.7,1.7,0,0,0,.11.61,1.48,1.48,0,0,0,.3.5,1.25,1.25,0,0,0,.45.33,1.35,1.35,0,0,0,.57.12,1.39,1.39,0,0,0,.6-.14,1.18,1.18,0,0,0,.45-.44V49a.37.37,0,0,0,.15.27.53.53,0,0,0,.34.11l.33,0V48.7a.16.16,0,0,1-.14-.06A.25.25,0,0,1,64.33,48.47Zm-.77-.21a.71.71,0,0,1-.12.2,1.29,1.29,0,0,1-.17.16,1,1,0,0,1-.21.1.62.62,0,0,1-.23,0,.72.72,0,0,1-.33-.07.83.83,0,0,1-.26-.19.9.9,0,0,1-.18-.28,1,1,0,0,1-.06-.35,1,1,0,0,1,.06-.34,1.08,1.08,0,0,1,.16-.3.82.82,0,0,1,.25-.2.69.69,0,0,1,.32-.08A.68.68,0,0,1,63,47a.94.94,0,0,1,.22.12.86.86,0,0,1,.19.19.65.65,0,0,1,.13.23Z"/><path class="cls-1" d="M67.63,46.76a1.41,1.41,0,0,0-.49-.33,1.51,1.51,0,0,0-.65-.13,1.6,1.6,0,0,0-.67.13,1.43,1.43,0,0,0-.5.34,1.36,1.36,0,0,0-.31.5,1.52,1.52,0,0,0-.11.6,1.47,1.47,0,0,0,.11.59,1.34,1.34,0,0,0,.32.49,1.27,1.27,0,0,0,.5.34,1.67,1.67,0,0,0,.65.12,1.61,1.61,0,0,0,.87-.22,1.3,1.3,0,0,0,.53-.56l-.66-.19a.58.58,0,0,1-.28.3.92.92,0,0,1-.43.11.93.93,0,0,1-.29-.05.73.73,0,0,1-.25-.15.66.66,0,0,1-.17-.23.85.85,0,0,1-.09-.32H68a.36.36,0,0,0,0-.11v-.15a1.62,1.62,0,0,0-.11-.58A1.45,1.45,0,0,0,67.63,46.76Zm-1.93.84a.74.74,0,0,1,.08-.3.81.81,0,0,1,.17-.24.76.76,0,0,1,.23-.15.71.71,0,0,1,.29,0,.76.76,0,0,1,.54.2.81.81,0,0,1,.25.54Z"/><path class="cls-1" d="M72.63,45.71a1.53,1.53,0,0,0-.41-.31,1.16,1.16,0,0,0-.52-.11H70v4.07h.79V48h1a1.26,1.26,0,0,0,.51-.11,1.23,1.23,0,0,0,.4-.31,1.34,1.34,0,0,0,.26-.43,1.43,1.43,0,0,0,.09-.5,1.37,1.37,0,0,0-.09-.49A1.79,1.79,0,0,0,72.63,45.71ZM72,47.12a.44.44,0,0,1-.36.18h-.92V46h.89a.51.51,0,0,1,.2,0,.43.43,0,0,1,.17.13.72.72,0,0,1,.12.21.82.82,0,0,1,0,.28A.73.73,0,0,1,72,47.12Z"/><path class="cls-1" d="M75.55,47.9a1.51,1.51,0,0,0-.36-.18,4.24,4.24,0,0,0-.53-.16l-.28-.08a.78.78,0,0,1-.18-.08.3.3,0,0,1-.1-.09.28.28,0,0,1,0-.13.28.28,0,0,1,.14-.26.61.61,0,0,1,.32-.08,1.31,1.31,0,0,1,.43.08,2.07,2.07,0,0,1,.45.25l.3-.46a1.49,1.49,0,0,0-.54-.32,2.13,2.13,0,0,0-.63-.1,1.78,1.78,0,0,0-.47.07,1.1,1.1,0,0,0-.37.2.93.93,0,0,0-.25.31,1,1,0,0,0-.09.42.65.65,0,0,0,.06.29.47.47,0,0,0,.18.22,1.26,1.26,0,0,0,.33.17l.5.15a4.5,4.5,0,0,1,.51.18.23.23,0,0,1,.15.23.28.28,0,0,1-.13.25.74.74,0,0,1-.36.08,1.34,1.34,0,0,1-.52-.1,2.2,2.2,0,0,1-.54-.29l-.29.48a1.86,1.86,0,0,0,.62.34,2.39,2.39,0,0,0,.74.12,1.41,1.41,0,0,0,.89-.25.83.83,0,0,0,.33-.7.66.66,0,0,0-.07-.32A.64.64,0,0,0,75.55,47.9Z"/><path class="cls-1" d="M77.55,48.69l-.81-2.34H76l1.18,3a2.68,2.68,0,0,1-.11.31.92.92,0,0,1-.1.2.26.26,0,0,1-.11.1.35.35,0,0,1-.14,0l-.16,0-.19,0v.67l.2,0,.19,0a1,1,0,0,0,.65-.2,1.07,1.07,0,0,0,.37-.52L79,46.35h-.73Z"/><path class="cls-1" d="M81.08,48.66a.72.72,0,0,1-.38.1.67.67,0,0,1-.31-.07.69.69,0,0,1-.24-.18.77.77,0,0,1-.17-.29.87.87,0,0,1-.07-.37,1,1,0,0,1,.06-.36.92.92,0,0,1,.17-.29.64.64,0,0,1,.25-.18A.78.78,0,0,1,80.7,47a.68.68,0,0,1,.35.09.65.65,0,0,1,.26.26l.75-.23a1.27,1.27,0,0,0-.52-.56,1.59,1.59,0,0,0-.84-.21,1.51,1.51,0,0,0-.65.13,1.37,1.37,0,0,0-.5.33,1.47,1.47,0,0,0-.32.5,1.63,1.63,0,0,0-.11.59,1.73,1.73,0,0,0,.11.6,1.64,1.64,0,0,0,.32.5,1.54,1.54,0,0,0,1.16.46,1.62,1.62,0,0,0,.85-.21,1.26,1.26,0,0,0,.51-.57l-.75-.23A.54.54,0,0,1,81.08,48.66Z"/><path class="cls-1" d="M85.15,46.67a.81.81,0,0,0-.28-.27,1,1,0,0,0-.48-.1,1.23,1.23,0,0,0-.63.16,1.08,1.08,0,0,0-.45.45V45.17h-.77v4.19h.77V47.6a.85.85,0,0,1,.13-.25,1.21,1.21,0,0,1,.19-.2,1,1,0,0,1,.22-.13.56.56,0,0,1,.21,0,.44.44,0,0,1,.38.17.88.88,0,0,1,.13.52v1.69h.77V47.48a3,3,0,0,0,0-.43A1.08,1.08,0,0,0,85.15,46.67Z"/><rect class="cls-1" x="86.01" y="45.17" width="0.77" height="0.76"/><rect class="cls-1" x="86.01" y="46.35" width="0.77" height="3"/><path class="cls-1" d="M90,48.47v-.93a1.19,1.19,0,0,0-.35-.92,1.49,1.49,0,0,0-1-.32,2.26,2.26,0,0,0-1.25.38l.23.49a2.72,2.72,0,0,1,.47-.25,1.31,1.31,0,0,1,.47-.09.76.76,0,0,1,.51.16.62.62,0,0,1,.17.46v.17a2.52,2.52,0,0,0-.74-.13,2,2,0,0,0-.51.07,1.42,1.42,0,0,0-.41.2,1,1,0,0,0-.26.31.76.76,0,0,0-.1.39.92.92,0,0,0,.08.38.89.89,0,0,0,.22.3,1,1,0,0,0,.32.2,1.1,1.1,0,0,0,.41.07,1.31,1.31,0,0,0,1.1-.54l0,.17a.47.47,0,0,0,.14.26.55.55,0,0,0,.34.1,2.55,2.55,0,0,0,.34,0V48.7a.16.16,0,0,1-.14-.06A.25.25,0,0,1,90,48.47Zm-.76-.09a.31.31,0,0,1-.13.22.64.64,0,0,1-.27.18.94.94,0,0,1-.37.07.52.52,0,0,1-.37-.13.41.41,0,0,1,0-.66.84.84,0,0,1,.49-.14L89,48c.1,0,.2,0,.3.09Z"/><path class="cls-1" d="M92.2,48.66a.67.67,0,0,1-.24,0,.34.34,0,0,1-.2-.06.3.3,0,0,1-.08-.23V46.94h.63v-.59h-.63v-1h-.77v1h-.4v.59h.4v1.73A.86.86,0,0,0,91,49a.63.63,0,0,0,.42.36,1.36,1.36,0,0,0,.3,0,1.84,1.84,0,0,0,.47-.07,3.14,3.14,0,0,0,.38-.14l-.16-.61A.84.84,0,0,1,92.2,48.66Z"/><path class="cls-1" d="M94.57,46.31a.79.79,0,0,0-.25,0,1,1,0,0,0-.25.14,1.23,1.23,0,0,0-.24.22,1.85,1.85,0,0,0-.19.27v-.64h-.7v3h.77V47.54a.82.82,0,0,1,.39-.39,1.61,1.61,0,0,1,.63-.13v-.7h-.16Z"/><rect class="cls-1" x="95.16" y="45.17" width="0.77" height="0.76"/><rect class="cls-1" x="95.16" y="46.35" width="0.77" height="3"/><path class="cls-1" d="M99.48,47.26a1.61,1.61,0,0,0-.31-.5,1.51,1.51,0,0,0-.49-.33A1.59,1.59,0,0,0,98,46.3a1.53,1.53,0,0,0-.66.13,1.27,1.27,0,0,0-.5.34,1.38,1.38,0,0,0-.32.5,1.73,1.73,0,0,0-.11.6,1.67,1.67,0,0,0,.11.59,1.49,1.49,0,0,0,.32.49,1.35,1.35,0,0,0,.5.34,1.67,1.67,0,0,0,.65.12,1.61,1.61,0,0,0,.87-.22,1.3,1.3,0,0,0,.53-.56l-.66-.19a.58.58,0,0,1-.28.3.92.92,0,0,1-.43.11.87.87,0,0,1-.28-.05.58.58,0,0,1-.25-.15.84.84,0,0,1-.18-.23,1.07,1.07,0,0,1-.08-.32h2.32s0-.07,0-.11v-.15A1.61,1.61,0,0,0,99.48,47.26Zm-2.25.34a1,1,0,0,1,.08-.3,1,1,0,0,1,.17-.24,1,1,0,0,1,.24-.15.68.68,0,0,1,.29,0,.72.72,0,0,1,.53.2.81.81,0,0,1,.25.54Z"/><rect class="cls-2" x="6.64" y="36.37" width="0.61" height="0.74"/><rect class="cls-2" x="5.74" y="36.37" width="0.61" height="0.74"/><rect class="cls-2" x="9.01" y="41.1" width="0.61" height="0.74"/><rect class="cls-2" x="9.91" y="41.1" width="0.61" height="0.74"/><path class="cls-2" d="M12.58,36.48h-.79v3.43H10.17V37.66h-.8v2.25H7.87V37.68a5.51,5.51,0,0,0-.65,0l-.79,0a3,3,0,0,0-1,.13.89.89,0,0,0-.5.45,2.17,2.17,0,0,0-.15.91,2.22,2.22,0,0,0,.16,1,.88.88,0,0,0,.5.45,2.63,2.63,0,0,0,.93.13h6.8v-.72h-.62Zm-5.5,3.43H6.44A1.55,1.55,0,0,1,6,39.84a.44.44,0,0,1-.26-.24,1.16,1.16,0,0,1-.09-.51,1,1,0,0,1,.09-.47A.46.46,0,0,1,6,38.39a1.69,1.69,0,0,1,.51-.06c.21,0,.42,0,.62,0Z"/><rect class="cls-2" x="14.54" y="36.37" width="0.61" height="0.74"/><rect class="cls-2" x="15.45" y="36.37" width="0.61" height="0.74"/><path class="cls-2" d="M21.76,39.91H20.25a2.08,2.08,0,0,1-.41,0,6.2,6.2,0,0,0,.64-.67,1,1,0,0,0,.21-.61l0-.53a4.55,4.55,0,0,0-.75-.32,3.22,3.22,0,0,0-.89-.14,3.06,3.06,0,0,0-.89.14,3.67,3.67,0,0,0-.73.32v.53a1.06,1.06,0,0,0,.22.61,5.34,5.34,0,0,0,.64.67,2.08,2.08,0,0,1-.41,0H16.51V37.75l-.31,0a7.49,7.49,0,0,0-.87,0,2.54,2.54,0,0,0-.91.13.93.93,0,0,0-.51.44,1.69,1.69,0,0,0-.17.85,3,3,0,0,0,.1.82H13.2v.72h4.74a2.28,2.28,0,0,0,.57-.07,3.47,3.47,0,0,0,.57-.19,3.47,3.47,0,0,0,.57.19,2.6,2.6,0,0,0,.61.07h2.3V36.48h-.8Zm-6.05,0H14.66a3.19,3.19,0,0,1-.09-.31,1.73,1.73,0,0,1,0-.36,1.67,1.67,0,0,1,.07-.54.37.37,0,0,1,.22-.25,1.13,1.13,0,0,1,.47-.07h.41Zm3.38-.36a1.9,1.9,0,0,1-.63-.54,1,1,0,0,1-.22-.55,2.62,2.62,0,0,1,1.69,0,.88.88,0,0,1-.2.53A2.27,2.27,0,0,1,19.09,39.55Z"/><rect class="cls-2" x="23.5" y="36.48" width="0.79" height="4.15"/><path class="cls-2" d="M31.43,37.6a1.65,1.65,0,0,0-1.18.47,5.63,5.63,0,0,0-.48.54v-1H29v3a.65.65,0,0,1-.1.36.86.86,0,0,1-.32.27,1.09,1.09,0,0,1-.5.11.91.91,0,0,1-.52-.13.72.72,0,0,1-.3-.3.94.94,0,0,1-.08-.36A14.23,14.23,0,0,1,27.39,39L26.64,39c-.07.34-.13.68-.19,1a6.38,6.38,0,0,0-.08.75,1.4,1.4,0,0,0,.15.6,1.15,1.15,0,0,0,.52.53,2,2,0,0,0,1,.23,2.08,2.08,0,0,0,1-.19,1.29,1.29,0,0,0,.57-.47,1,1,0,0,0,.18-.57v-.24h3V39.14a2,2,0,0,0-.31-1.08A1.2,1.2,0,0,0,31.43,37.6ZM32,39.91H29.77v-.28a3.5,3.5,0,0,1,.65-.91,1.19,1.19,0,0,1,.82-.39.64.64,0,0,1,.56.28,1.12,1.12,0,0,1,.2.68Z"/><rect class="cls-2" x="30.64" y="36.34" width="0.73" height="0.77"/><rect class="cls-2" x="33.63" y="36.48" width="0.79" height="4.15"/><path class="cls-2" d="M40.76,37.79a2,2,0,0,0-.94-.18,3.8,3.8,0,0,0-.7.06,1.66,1.66,0,0,0-.47.14,4,4,0,0,0-.15.64,4.41,4.41,0,0,0-.06.7,3.71,3.71,0,0,0,.08.76h-1.9V37.66h-.8v3.07a.85.85,0,0,1-.11.48.35.35,0,0,1-.32.17l-.2,0v.72l.44,0a.81.81,0,0,0,.73-.39,2,2,0,0,0,.26-1.08h4.7V39.15a2.57,2.57,0,0,0-.11-.86A.91.91,0,0,0,40.76,37.79Zm-.23,2.12H39.29c0-.09,0-.21-.06-.35s0-.27,0-.41a4,4,0,0,1,.08-.78,2.3,2.3,0,0,1,.45,0,.8.8,0,0,1,.63.2.93.93,0,0,1,.16.61Z"/><path class="cls-2" d="M42.36,36.91l1.29-.25-.08-.37-.64.18a.32.32,0,0,1-.15-.27.27.27,0,0,1,.09-.21.29.29,0,0,1,.22-.09l.15,0,.1.06.08-.36a.94.94,0,0,0-.46-.14.62.62,0,0,0-.63.6.62.62,0,0,0,.23.48l-.27.07Z"/><polygon class="cls-2" points="46.19 39.91 45.46 39.91 45.46 39.91 44.99 39.91 44.99 36.48 44.2 36.48 44.2 39.91 43.4 39.91 43.4 37.28 42.6 37.28 42.6 39.91 41.86 39.91 41.86 40.63 45.46 40.63 45.46 40.63 46.99 40.63 46.99 36.48 46.19 36.48 46.19 39.91"/><rect class="cls-2" x="49.93" y="36.37" width="0.61" height="0.74"/><rect class="cls-2" x="50.84" y="36.37" width="0.61" height="0.74"/><rect class="cls-2" x="54.12" y="41.1" width="0.61" height="0.74"/><rect class="cls-2" x="53.22" y="41.1" width="0.61" height="0.74"/><path class="cls-2" d="M54.36,37.66h-.79v2.25h-1.5V37.68a5.71,5.71,0,0,0-.65,0l-.8,0a3,3,0,0,0-1,.13.89.89,0,0,0-.5.45,2,2,0,0,0-.16.91,2.2,2.2,0,0,0,.17,1,.85.85,0,0,0,.5.45,2.53,2.53,0,0,0,.92.13h3.77Zm-3.09,2.25h-.64a1.52,1.52,0,0,1-.48-.07.46.46,0,0,1-.27-.24,1.36,1.36,0,0,1-.08-.51,1.17,1.17,0,0,1,.08-.47.49.49,0,0,1,.26-.23,1.73,1.73,0,0,1,.51-.06,6,6,0,0,1,.62,0Z"/><path class="cls-2" d="M59,36.54a.31.31,0,0,1-.14-.27.32.32,0,0,1,.08-.21.3.3,0,0,1,.23-.09l.14,0a.29.29,0,0,1,.1.06l.08-.36a.91.91,0,0,0-.46-.14.61.61,0,0,0-.45.18.57.57,0,0,0-.17.42.59.59,0,0,0,.23.48l-.28.07.07.28,1.3-.25-.08-.37Z"/><path class="cls-2" d="M58.66,39.91H56.8V37.66H56v3.07a.85.85,0,0,1-.11.48.35.35,0,0,1-.32.17l-.2,0v.72l.44,0a.81.81,0,0,0,.73-.39,2,2,0,0,0,.26-1.08h2.65v-3h-.79Z"/><rect class="cls-2" x="60.34" y="36.48" width="0.79" height="4.15"/><path class="cls-2" d="M63.33,37.66h-.79v3.07a1,1,0,0,1-.11.48.36.36,0,0,1-.32.17l-.2,0v.72l.43,0a.82.82,0,0,0,.74-.39,2,2,0,0,0,.25-1.08h1v-.72h-1Z"/><rect class="cls-2" x="62.57" y="36.34" width="0.73" height="0.77"/><rect class="cls-2" x="65.77" y="41.1" width="0.73" height="0.77"/><path class="cls-2" d="M68.68,39.91H67.34V38.58a1,1,0,0,0-.26-.74,1.15,1.15,0,0,0-.81-.24,7.27,7.27,0,0,0-1.49.2l0,.53h.3l1,0a.44.44,0,0,1,.37.13.52.52,0,0,1,.11.38v1.12H64.31v.72h5.16V36.48h-.79Z"/><rect class="cls-2" x="70.42" y="36.48" width="0.79" height="4.15"/><rect class="cls-2" x="74.22" y="36.37" width="0.61" height="0.74"/><rect class="cls-2" x="75.12" y="36.37" width="0.61" height="0.74"/><rect class="cls-2" x="78.39" y="41.1" width="0.61" height="0.74"/><rect class="cls-2" x="77.49" y="41.1" width="0.61" height="0.74"/><rect class="cls-2" x="89.33" y="41.1" width="0.73" height="0.77"/><path class="cls-2" d="M92.24,39.91H90.9V38.58a1,1,0,0,0-.26-.74,1.15,1.15,0,0,0-.81-.24,7.27,7.27,0,0,0-1.49.2l0,.53h.3l1,0a.44.44,0,0,1,.37.13.52.52,0,0,1,.11.38v1.12H87.54a.34.34,0,0,1-.19-.07.43.43,0,0,1-.13-.19v-.5a2.85,2.85,0,0,0-.11-.86.91.91,0,0,0-.45-.5,2,2,0,0,0-.94-.18,3.73,3.73,0,0,0-.7.06,1.56,1.56,0,0,0-.47.14,4,4,0,0,0-.15.64,4.48,4.48,0,0,0-.07.7,3.79,3.79,0,0,0,.09.76H82.71a2.08,2.08,0,0,1-.41,0,6.2,6.2,0,0,0,.64-.67,1,1,0,0,0,.21-.61l0-.53a4.55,4.55,0,0,0-.75-.32,3.22,3.22,0,0,0-.89-.14,3.06,3.06,0,0,0-.89.14,3.42,3.42,0,0,0-.73.32v.53a1.06,1.06,0,0,0,.22.61,5.34,5.34,0,0,0,.64.67,2.08,2.08,0,0,1-.41,0H78.65V37.66h-.79v2.25h-1.5V37.68a5.93,5.93,0,0,0-.65,0l-.8,0a3,3,0,0,0-1,.13.89.89,0,0,0-.5.45,2,2,0,0,0-.16.91,2.2,2.2,0,0,0,.17,1,.83.83,0,0,0,.5.45,2.53,2.53,0,0,0,.92.13H80.4a2.28,2.28,0,0,0,.57-.07,3.47,3.47,0,0,0,.57-.19,3.47,3.47,0,0,0,.57.19,2.6,2.6,0,0,0,.61.07h4.5v-.26a.43.43,0,0,0,.13.19.34.34,0,0,0,.19.07H93V36.48h-.79Zm-16.68,0h-.64a1.52,1.52,0,0,1-.48-.07.46.46,0,0,1-.27-.24,1.36,1.36,0,0,1-.08-.51,1,1,0,0,1,.08-.47.49.49,0,0,1,.26-.23,1.69,1.69,0,0,1,.51-.06,6,6,0,0,1,.62,0Zm6-.36a1.9,1.9,0,0,1-.63-.54,1,1,0,0,1-.21-.55,2.73,2.73,0,0,1,.83-.14,2.85,2.85,0,0,1,.85.14.88.88,0,0,1-.2.53A2.27,2.27,0,0,1,81.55,39.55Zm4.88.36H85.19c0-.09,0-.21-.06-.35a2.83,2.83,0,0,1,0-.41,4.06,4.06,0,0,1,.09-.78,2.3,2.3,0,0,1,.45,0,.76.76,0,0,1,.62.2.93.93,0,0,1,.17.61Z"/><rect class="cls-2" x="93.98" y="36.48" width="0.79" height="4.15"/></g></g></svg>