<svg xmlns="http://www.w3.org/2000/svg" viewBox="0 0 79.88 51.66"><defs><style>.cls-1{fill:#068456;}</style></defs><g id="Layer_2" data-name="Layer 2"><g id="Layer_2-2" data-name="Layer 2"><path class="cls-1" d="M16.33,4.56h0Z"/><path class="cls-1" d="M16,5h0Z"/><path class="cls-1" d="M73.75,26.6c-8.18,0-16.32.21-24.49.11v0c-23.91.18-57.62,6.87-29-26.74.68.48,1.15,1.16,1.77,1.67-3.18,3.66-6.69,7.54-8.81,11.86h0a.19.19,0,0,1,0,.08c-.1,0-.11.06-.09.15h0a.29.29,0,0,1,0,.09c-.09,0-.11.05-.08.14h0C.52,34.12,63.51,23.75,73.75,26.6Z"/><path class="cls-1" d="M42.94,22.08c1,0,2,0,3,0,.31-1.83.55-3.7.78-5.55.51-.77,2.17-.06,2.61.59a48.81,48.81,0,0,1,2.32,4.56c.08.16.09.43.39.38A13.69,13.69,0,0,0,55.18,22c-1.27-2.06-1.64-4.6-3.64-6.19a3.89,3.89,0,0,0,2.87-5.37c-1.53-3.61-6.47-2.89-9.57-2.62l.1-.06c-.2.09-.06.39-.1.58-.22.1-.07.54-.1.77-.23.11-.08.55-.12.78l.05,0a.11.11,0,0,1-.08,0C44.13,13.89,43.34,18.05,42.94,22.08Zm4.45-10.29c0-2.19.94-1.79,2.68-1.57a1.81,1.81,0,0,1,.39,3.41c-.64.37-2.9.71-3.4.23C47.23,13.18,47.25,12.48,47.39,11.79Z"/><path class="cls-1" d="M21.43,8.27a3.94,3.94,0,0,0-1.22,5.92h0l.11.12h0l.34.33h0c.92.84,2,1.33,3,2.11h0a1.62,1.62,0,0,1-.62,3.1c-1.67.18-3.06-.61-4.52-1.36-2.25,6.37,12.09,4.37,9-2.18h0a5.16,5.16,0,0,0-.55-.9h0c-1.06-1.29-2.65-1.84-3.89-2.88h0L23,12.42h0a1.26,1.26,0,0,1-.11-1.79h0l.23-.23h0A2.87,2.87,0,0,1,25.31,10v0l.1,0c.08.17.31.07.46.1v0l.08,0a.36.36,0,0,0,0,.09c.11-.07.18.08.29,0a.36.36,0,0,0,0,.09c.21-.1.34.18.54.13a.16.16,0,0,0,0,.09H27v0h.1c0,.08.05.11.13.08v0h.09c.63.58,1,.6.94-.33.16,0,0-.32.07-.46l-.06.05s.06-.06.1-.05c.43-1.58,0-1.35-1.26-1.92A6.53,6.53,0,0,0,21.43,8.27Z"/><path class="cls-1" d="M19.33,12.17Z"/><path class="cls-1" d="M9.75,28.94c-.13-4.82-5.52-7-9.75-6.7.05.88.16,1.67.28,2.47,4-.58,8.51.7,8.7,5.39L9,30a22,22,0,0,1-.75,5.41A12.52,12.52,0,0,0,9.75,28.94Z"/><path class="cls-1" d="M55.81,22.07c3.88.17,2.22.11,3.88-3.69h0c.56-1.91,1.25-3.9,1.9-5.78h0c0-.37.31-.34.25,0,.69,2.35,1.24,4.8,1.88,7.19.26.44.29,2.42.9,2.23.64.07,1.2.13,1.5-.58,1.67-3.05,3.19-6,5-9,.15,3.16.32,6.09.45,9.21,0,.86,2,.25,2.57.43.32,0,.41-.12.4-.42-.12-3.05-.34-6.09-.39-9.13h0c-.79-3.89,1.47-5.31-3.25-4.89-2.09,2.53-3.34,6.17-5.12,9.07-.79-3-1.59-6-2.31-8.86-.24-.38-2.78-.14-3.36-.1-1.64,4.75-3.13,9.48-4.69,14.26A.62.62,0,0,0,55.81,22.07Z"/><path class="cls-1" d="M22.86,12.3h0Z"/><path class="cls-1" d="M27.16,15.64v0Z"/><path class="cls-1" d="M23.2,16.41Z"/><path class="cls-1" d="M28.52,22.06c3.8,0,2.72.69,4.32-2.69-.12-.86,3.8-.21,4.56-.39.68,3.53-.2,3.19,3.66,3.08-.74-4.31-1.52-8.74-2.27-13.1a.1.1,0,0,0,0,0c-.23-1.34-.15-1.82-1.73-1.58C35.53,7.3,35,7.34,34.62,9c-1.86,3.7-3.69,7.44-5.43,11.21C29.07,20.52,27.91,22.09,28.52,22.06Zm7.85-11.33a45.7,45.7,0,0,1,.79,6.11,15.63,15.63,0,0,1-3.22-.11Z"/><path class="cls-1" d="M29.8,29.42a.66.66,0,0,1,.53.26l.3-.35a.73.73,0,0,0-.33-.27,1.36,1.36,0,0,0-.51-.09,1.24,1.24,0,0,0-1,.38,1.62,1.62,0,0,0-.34,1.08q0,1.47,1.35,1.47a2.07,2.07,0,0,0,.74-.14l-.1-.43a1.46,1.46,0,0,1-.57.12c-.61,0-.91-.35-.91-1a1.08,1.08,0,0,1,.22-.73A.72.72,0,0,1,29.8,29.42Z"/><path class="cls-1" d="M33.94,30.56a.91.91,0,0,0,.25-.69.79.79,0,0,0-.25-.63,1,1,0,0,0-.7-.23h-1v2.85h.48V30.8h.54l.45,1.06h.57l-.55-1.17A.58.58,0,0,0,33.94,30.56Zm-1.21-1.1h.51a.41.41,0,0,1,.32.12.51.51,0,0,1,0,.66.4.4,0,0,1-.32.11h-.51Z"/><polygon class="cls-1" points="36.59 29.01 35.95 29.01 35.95 29.45 36.59 29.45 36.59 31.42 35.95 31.42 35.95 31.86 36.59 31.86 37.07 31.86 37.72 31.86 37.72 31.42 37.07 31.42 37.07 29.45 37.72 29.45 37.72 29.01 37.07 29.01 36.59 29.01"/><polygon class="cls-1" points="40.23 29.01 39.41 29.01 39.41 29.46 40.23 29.46 40.23 31.86 40.72 31.86 40.72 29.46 41.54 29.46 41.54 29.01 40.72 29.01 40.23 29.01"/><polygon class="cls-1" points="43.87 29.01 43.23 29.01 43.23 29.45 43.87 29.45 43.87 31.42 43.23 31.42 43.23 31.86 43.87 31.86 44.36 31.86 45 31.86 45 31.42 44.36 31.42 44.36 29.45 45 29.45 45 29.01 44.36 29.01 43.87 29.01"/><path class="cls-1" d="M48,29.42a.67.67,0,0,1,.31.07.57.57,0,0,1,.22.19l.3-.35a.64.64,0,0,0-.33-.27A1.28,1.28,0,0,0,48,29a1.24,1.24,0,0,0-1,.38,1.57,1.57,0,0,0-.34,1.08q0,1.47,1.35,1.47a2,2,0,0,0,.73-.14l-.09-.43a1.46,1.46,0,0,1-.57.12c-.61,0-.91-.35-.91-1a1.13,1.13,0,0,1,.21-.73A.74.74,0,0,1,48,29.42Z"/><path class="cls-1" d="M51.09,29l-.82,2.85h.51l.16-.6h.93l.16.6h.51L51.71,29Zm0,1.8.33-1.24h0l.33,1.24Z"/><polygon class="cls-1" points="54.63 29.01 54.15 29.01 54.15 31.41 54.15 31.86 54.63 31.86 56.07 31.86 56.07 31.41 54.63 31.41 54.63 29.01"/><path class="cls-1" d="M62.59,29.42a.63.63,0,0,1,.3.07.6.6,0,0,1,.23.19l.29-.35a.66.66,0,0,0-.32-.27,1.36,1.36,0,0,0-.51-.09,1.24,1.24,0,0,0-1,.38,1.62,1.62,0,0,0-.34,1.08q0,1.47,1.35,1.47a2,2,0,0,0,.73-.14l-.09-.43a1.46,1.46,0,0,1-.57.12c-.61,0-.91-.35-.91-1a1.08,1.08,0,0,1,.22-.73A.72.72,0,0,1,62.59,29.42Z"/><path class="cls-1" d="M65.67,29l-.83,2.85h.52l.15-.6h.93l.16.6h.51L66.29,29Zm0,1.8L66,29.57h0l.33,1.24Z"/><path class="cls-1" d="M70.38,30.56a1,1,0,0,0,.24-.69.82.82,0,0,0-.24-.63,1,1,0,0,0-.7-.23h-1v2.85h.48V30.8h.54l.46,1.06h.57l-.56-1.17A.74.74,0,0,0,70.38,30.56Zm-1.22-1.1h.52a.44.44,0,0,1,.32.12.55.55,0,0,1,0,.66.43.43,0,0,1-.32.11h-.52Z"/><polygon class="cls-1" points="74.29 29.46 74.29 29.01 72.84 29.01 72.36 29.01 72.36 29.46 72.36 30.21 72.36 30.66 72.36 31.41 72.36 31.86 72.84 31.86 74.29 31.86 74.29 31.41 72.84 31.41 72.84 30.66 73.92 30.66 73.92 30.21 72.84 30.21 72.84 29.46 74.29 29.46"/><path class="cls-1" d="M19.68,42.73a1,1,0,0,0-.29-.35,1.8,1.8,0,0,0-.43-.25,2.94,2.94,0,0,0-.57-.17,1.1,1.1,0,0,1-.26-.06.63.63,0,0,1-.22-.09.52.52,0,0,1-.16-.12.25.25,0,0,1-.06-.17.29.29,0,0,1,.07-.18.52.52,0,0,1,.19-.12.91.91,0,0,1,.3,0,1,1,0,0,1,.61.2,1,1,0,0,1,.26.24l.6-.57a1.34,1.34,0,0,0-.34-.37,1.32,1.32,0,0,0-.49-.24,2.2,2.2,0,0,0-.67-.08,2.12,2.12,0,0,0-.57.08,1.59,1.59,0,0,0-.48.26,1.1,1.1,0,0,0-.33.38,1,1,0,0,0-.12.49,1.14,1.14,0,0,0,.08.46,1,1,0,0,0,.24.36,1.46,1.46,0,0,0,.4.26,3.62,3.62,0,0,0,.58.18l.23.06.22.07a.77.77,0,0,1,.18.1l.11.11a.29.29,0,0,1,0,.16.31.31,0,0,1-.06.19.48.48,0,0,1-.2.12,1.11,1.11,0,0,1-.28,0,1.38,1.38,0,0,1-.59-.14A1.46,1.46,0,0,1,17.1,43l-.59.67a2.49,2.49,0,0,0,.44.42,2,2,0,0,0,.56.28,2.6,2.6,0,0,0,.71.09,2,2,0,0,0,.8-.15,1.3,1.3,0,0,0,.56-.44,1.23,1.23,0,0,0,.2-.7A1,1,0,0,0,19.68,42.73Z"/><path class="cls-1" d="M23.25,43.73a1.58,1.58,0,0,0,.21-.81,1.55,1.55,0,0,0-.21-.81,1.49,1.49,0,0,0-.58-.56,1.74,1.74,0,0,0-.84-.2,1.8,1.8,0,0,0-.84.2,1.64,1.64,0,0,0-.58.56,1.55,1.55,0,0,0-.21.81,1.58,1.58,0,0,0,.21.81,1.61,1.61,0,0,0,.58.55,1.69,1.69,0,0,0,.84.21,1.64,1.64,0,0,0,.84-.21A1.46,1.46,0,0,0,23.25,43.73Zm-.8-.41a.76.76,0,0,1-.25.28.66.66,0,0,1-.37.1.63.63,0,0,1-.36-.1.7.7,0,0,1-.26-.28.74.74,0,0,1-.08-.4.79.79,0,0,1,.08-.41.7.7,0,0,1,.26-.28.63.63,0,0,1,.36-.1.66.66,0,0,1,.37.1.76.76,0,0,1,.25.28.79.79,0,0,1,.08.41A.74.74,0,0,1,22.45,43.32Z"/><path class="cls-1" d="M25.09,42.24a.7.7,0,0,1,.38-.1.77.77,0,0,1,.27,0,.92.92,0,0,1,.24.13.79.79,0,0,1,.19.17l.5-.59a1.37,1.37,0,0,0-.54-.4,1.81,1.81,0,0,0-.74-.14,1.57,1.57,0,0,0-.79.2,1.64,1.64,0,0,0-.55.56,1.68,1.68,0,0,0-.2.81,1.61,1.61,0,0,0,.2.8,1.52,1.52,0,0,0,1.34.77,2,2,0,0,0,.73-.14,1.4,1.4,0,0,0,.54-.39l-.49-.6a.8.8,0,0,1-.19.18.9.9,0,0,1-.24.12,1.12,1.12,0,0,1-.27,0,.66.66,0,0,1-.37-.1.7.7,0,0,1-.26-.28.76.76,0,0,1-.1-.39.91.91,0,0,1,.09-.41A.68.68,0,0,1,25.09,42.24Z"/><path class="cls-1" d="M27.67,40.81a.53.53,0,0,0,.39-.13.47.47,0,0,0,0-.68.57.57,0,0,0-.4-.13.62.62,0,0,0-.4.13.43.43,0,0,0-.15.34.43.43,0,0,0,.15.35A.6.6,0,0,0,27.67,40.81Z"/><rect class="cls-1" x="27.21" y="41.41" width="0.91" height="3.02"/><path class="cls-1" d="M31.35,41.78a1.47,1.47,0,0,0-.46-.32,1.59,1.59,0,0,0-.59-.11,1.7,1.7,0,0,0-.61.11,1.51,1.51,0,0,0-.49.33,1.58,1.58,0,0,0-.32.51,1.83,1.83,0,0,0-.11.64,1.64,1.64,0,0,0,.2.8,1.54,1.54,0,0,0,.58.55,1.8,1.8,0,0,0,.87.2,2,2,0,0,0,.82-.19,1.85,1.85,0,0,0,.37-.25l-.42-.61a1.53,1.53,0,0,1-.33.2,1.21,1.21,0,0,1-.34,0,1.07,1.07,0,0,1-.49-.1.7.7,0,0,1-.3-.29.58.58,0,0,1-.08-.18h2.08v-.25a1.53,1.53,0,0,0-.09-.61A1.47,1.47,0,0,0,31.35,41.78Zm-.46.83H29.65c0-.06,0-.11.05-.16a.53.53,0,0,1,.24-.25.74.74,0,0,1,.38-.09.64.64,0,0,1,.28.06.49.49,0,0,1,.2.18.5.5,0,0,1,.09.25Z"/><polygon class="cls-1" points="31.02 40.45 30.61 39.86 29.59 40.66 29.86 41.08 31.02 40.45"/><polygon class="cls-1" points="32.56 44.43 33.48 44.43 33.48 42.21 34.06 42.21 34.06 41.41 33.48 41.41 33.48 40.65 32.56 40.65 32.56 41.41 32.03 41.41 32.03 42.21 32.56 42.21 32.56 44.43"/><path class="cls-1" d="M36.92,41.78a1.36,1.36,0,0,0-.46-.32,1.58,1.58,0,0,0-.58-.11,1.75,1.75,0,0,0-.62.11,1.51,1.51,0,0,0-.49.33,1.77,1.77,0,0,0-.32.51,1.83,1.83,0,0,0-.11.64,1.54,1.54,0,0,0,.21.8,1.44,1.44,0,0,0,.57.55,1.86,1.86,0,0,0,.87.2,1.84,1.84,0,0,0,.41-.05,2,2,0,0,0,.41-.14,2.26,2.26,0,0,0,.38-.25l-.43-.61a1.53,1.53,0,0,1-.33.2,1.16,1.16,0,0,1-.34,0,1,1,0,0,1-.48-.1.67.67,0,0,1-.31-.29.56.56,0,0,1-.07-.18H37.3v-.25a2,2,0,0,0-.09-.61A1.5,1.5,0,0,0,36.92,41.78Zm-.46.83H35.23a.75.75,0,0,1,0-.16.64.64,0,0,1,.24-.25.74.74,0,0,1,.38-.09.61.61,0,0,1,.28.06.52.52,0,0,1,.21.18.41.41,0,0,1,.08.25Z"/><polygon class="cls-1" points="36.59 40.45 36.18 39.86 35.16 40.66 35.43 41.08 36.59 40.45"/><path class="cls-1" d="M40.54,43.67H42l.28.76h1l-1.56-4h-.82l-1.58,4h1ZM41,42.42l.09-.28c0-.09.07-.18.1-.27s0-.16.07-.24c0,.08,0,.16.08.24l.09.29.09.25.2.53h-.92Z"/><rect class="cls-1" x="43.67" y="40.22" width="0.91" height="4.21"/><path class="cls-1" d="M47.34,44.64a.57.57,0,0,1-.27.26,1.06,1.06,0,0,1-.47.09,1.86,1.86,0,0,1-.33,0l-.3-.09a1.71,1.71,0,0,1-.27-.14l-.32.64a2.09,2.09,0,0,0,.6.27,2.33,2.33,0,0,0,.74.11,2.07,2.07,0,0,0,.68-.1,1.58,1.58,0,0,0,.52-.3,1.34,1.34,0,0,0,.32-.49,2,2,0,0,0,.11-.66V41.41h-.86l0,.32-.09-.08a1.43,1.43,0,0,0-.24-.16,1.24,1.24,0,0,0-.29-.1,1.15,1.15,0,0,0-.33,0,1.25,1.25,0,0,0-.71.2,1.33,1.33,0,0,0-.5.55,1.64,1.64,0,0,0-.19.81,1.55,1.55,0,0,0,.19.78,1.34,1.34,0,0,0,.5.53,1.41,1.41,0,0,0,.74.19,1.28,1.28,0,0,0,.48-.09,1.32,1.32,0,0,0,.38-.25l0,0v.16A.94.94,0,0,1,47.34,44.64Zm0-1.31a.55.55,0,0,1-.25.27.65.65,0,0,1-.38.1.7.7,0,0,1-.38-.1.64.64,0,0,1-.24-.27,1,1,0,0,1,0-.84.64.64,0,0,1,.24-.27.7.7,0,0,1,.38-.1.65.65,0,0,1,.38.1.55.55,0,0,1,.25.27,1,1,0,0,1,0,.84Z"/><path class="cls-1" d="M49.71,44.29a1.86,1.86,0,0,0,.87.2,2,2,0,0,0,.42-.05,2.12,2.12,0,0,0,.4-.14,1.92,1.92,0,0,0,.38-.25l-.43-.61a1.53,1.53,0,0,1-.33.2,1.16,1.16,0,0,1-.34,0,1,1,0,0,1-.48-.1.67.67,0,0,1-.31-.29,1,1,0,0,1-.07-.18h2.07v-.25a1.73,1.73,0,0,0-.09-.61,1.5,1.5,0,0,0-.3-.48,1.36,1.36,0,0,0-.46-.32,1.54,1.54,0,0,0-.58-.11,1.75,1.75,0,0,0-.62.11,1.51,1.51,0,0,0-.49.33,1.55,1.55,0,0,0-.31.51,1.62,1.62,0,0,0-.12.64,1.54,1.54,0,0,0,.21.8A1.44,1.44,0,0,0,49.71,44.29Zm.16-1.84a.56.56,0,0,1,.23-.25.76.76,0,0,1,.38-.09.61.61,0,0,1,.28.06.46.46,0,0,1,.21.18.5.5,0,0,1,.09.25H49.82A.43.43,0,0,1,49.87,42.45Z"/><polygon class="cls-1" points="51.19 40.45 50.77 39.86 49.75 40.66 50.02 41.08 51.19 40.45"/><path class="cls-1" d="M54.25,41.35a1,1,0,0,0-.45.11,1.19,1.19,0,0,0-.36.31,1,1,0,0,0-.08.11l0-.47h-.86v3h.91V42.92a.7.7,0,0,1,0-.25.54.54,0,0,1,.11-.18.43.43,0,0,1,.19-.13.85.85,0,0,1,.23,0,.78.78,0,0,1,.22,0,.56.56,0,0,1,.17.06l.25-1-.16,0Z"/><rect class="cls-1" x="55.12" y="41.41" width="0.91" height="3.02"/><path class="cls-1" d="M55.58,40.81a.56.56,0,0,0,.39-.13.43.43,0,0,0,.15-.34A.41.41,0,0,0,56,40a.53.53,0,0,0-.39-.13.62.62,0,0,0-.4.13.43.43,0,0,0-.15.34.45.45,0,0,0,.14.35A.63.63,0,0,0,55.58,40.81Z"/><path class="cls-1" d="M59.09,43.44a1.28,1.28,0,0,1-.32.2,1.23,1.23,0,0,1-.35,0,1.06,1.06,0,0,1-.48-.1.72.72,0,0,1-.31-.29,1,1,0,0,1-.07-.18h2.07v-.25a1.53,1.53,0,0,0-.09-.61,1.5,1.5,0,0,0-.3-.48,1.36,1.36,0,0,0-.46-.32,1.54,1.54,0,0,0-.58-.11,1.8,1.8,0,0,0-.62.11,1.47,1.47,0,0,0-.48.33,1.42,1.42,0,0,0-.32.51,1.62,1.62,0,0,0-.12.64,1.54,1.54,0,0,0,.21.8,1.58,1.58,0,0,0,.57.55,1.86,1.86,0,0,0,.87.2,2,2,0,0,0,.42-.05,1.9,1.9,0,0,0,.4-.14,1.92,1.92,0,0,0,.38-.25Zm-1.48-1a.56.56,0,0,1,.23-.25.76.76,0,0,1,.38-.09.68.68,0,0,1,.29.06.49.49,0,0,1,.2.18.5.5,0,0,1,.09.25H57.56A.75.75,0,0,1,57.61,42.45Z"/><path class="cls-1" d="M60.68,44.43h.45V42.62a.65.65,0,0,1,0-.2.61.61,0,0,1,.12-.16.54.54,0,0,1,.18-.11.78.78,0,0,1,.22,0,.44.44,0,0,1,.26.05.34.34,0,0,1,.15.18.67.67,0,0,1,.06.3v1.78h.91V42.58A1.72,1.72,0,0,0,63,41.9a.83.83,0,0,0-.35-.41,1,1,0,0,0-.57-.14,1.12,1.12,0,0,0-.48.1,1.13,1.13,0,0,0-.39.27l-.06.07v-.38h-.87v3h.46Z"/><path class="cls-1" d="M66.21,41.49a1,1,0,0,0-.57-.14,1.12,1.12,0,0,0-.48.1,1.36,1.36,0,0,0-.39.27l0,.07,0-.38h-.86v3h.91V42.62a.45.45,0,0,1,0-.2.61.61,0,0,1,.12-.16.42.42,0,0,1,.17-.11.78.78,0,0,1,.22,0,.42.42,0,0,1,.26.05.35.35,0,0,1,.16.18.85.85,0,0,1,0,.3v1.78h.92V42.58a1.72,1.72,0,0,0-.12-.68A.85.85,0,0,0,66.21,41.49Z"/><path class="cls-1" d="M69.3,44.44a2,2,0,0,0,.41-.14,2.26,2.26,0,0,0,.38-.25l-.43-.61a1.53,1.53,0,0,1-.33.2,1.16,1.16,0,0,1-.34,0,1,1,0,0,1-.48-.1.67.67,0,0,1-.31-.29.56.56,0,0,1-.07-.18H70.2v-.25a1.74,1.74,0,0,0-.1-.61,1.32,1.32,0,0,0-.29-.48,1.36,1.36,0,0,0-.46-.32,1.58,1.58,0,0,0-.58-.11,1.75,1.75,0,0,0-.62.11,1.51,1.51,0,0,0-.49.33,1.77,1.77,0,0,0-.32.51,1.83,1.83,0,0,0-.11.64,1.64,1.64,0,0,0,.2.8,1.54,1.54,0,0,0,.58.55,1.86,1.86,0,0,0,.87.2A1.92,1.92,0,0,0,69.3,44.44Zm-1.13-2a.64.64,0,0,1,.24-.25.74.74,0,0,1,.38-.09.64.64,0,0,1,.28.06.44.44,0,0,1,.2.18.37.37,0,0,1,.09.25H68.13A.75.75,0,0,1,68.17,42.45Z"/><path class="cls-1" d="M9.08,48.87a.86.86,0,0,0-.14-.13,1.42,1.42,0,0,0-.35-.17,1.23,1.23,0,0,0-.39-.06,1.27,1.27,0,0,0-.7.2,1.44,1.44,0,0,0-.49.57,1.73,1.73,0,0,0-.17.81A1.78,1.78,0,0,0,7,50.9a1.46,1.46,0,0,0,.48.56,1.3,1.3,0,0,0,.7.2,1.34,1.34,0,0,0,.4-.06,1.19,1.19,0,0,0,.34-.16.86.86,0,0,0,.2-.18l0,.34H10V47.38H9.08ZM9,50.51a.61.61,0,0,1-.23.29.64.64,0,0,1-.37.1.6.6,0,0,1-.59-.39.93.93,0,0,1-.09-.42,1,1,0,0,1,.09-.44.63.63,0,0,1,.23-.28.61.61,0,0,1,.36-.1.61.61,0,0,1,.6.38,1,1,0,0,1,.09.44A.93.93,0,0,1,9,50.51Z"/><path class="cls-1" d="M13.14,48.94a1.52,1.52,0,0,0-.46-.32,1.58,1.58,0,0,0-.58-.11,1.56,1.56,0,0,0-.62.12A1.25,1.25,0,0,0,11,49a1.53,1.53,0,0,0-.32.5,1.87,1.87,0,0,0-.11.64,1.64,1.64,0,0,0,.2.8,1.46,1.46,0,0,0,.58.55,1.75,1.75,0,0,0,.87.2,1.44,1.44,0,0,0,.41,0,2,2,0,0,0,.41-.14,2.26,2.26,0,0,0,.38-.25l-.43-.6a1.45,1.45,0,0,1-.33.19.9.9,0,0,1-.34.06,1,1,0,0,1-.48-.11.71.71,0,0,1-.31-.28.62.62,0,0,1-.07-.19h2.07V50a1.51,1.51,0,0,0-.09-.61A1.28,1.28,0,0,0,13.14,48.94Zm-.46.83H11.44a1.31,1.31,0,0,1,.05-.15.6.6,0,0,1,.24-.26.74.74,0,0,1,.38-.09.53.53,0,0,1,.28.07.48.48,0,0,1,.2.17.45.45,0,0,1,.09.25Z"/><path class="cls-1" d="M18.51,50a1.23,1.23,0,0,0,.49-.47,1.33,1.33,0,0,0,.17-.67,1.29,1.29,0,0,0-.17-.65,1.25,1.25,0,0,0-.49-.45,1.47,1.47,0,0,0-.69-.17H16v4H17V50.2h.49l.79,1.4h1.11l-.9-1.54Zm-.35-.82a.45.45,0,0,1-.17.19.53.53,0,0,1-.26.07H17v-1h.7a.75.75,0,0,1,.31.06.41.41,0,0,1,.19.18.5.5,0,0,1,.07.27A.6.6,0,0,1,18.16,49.2Z"/><path class="cls-1" d="M22.18,48.94a1.52,1.52,0,0,0-.46-.32,1.58,1.58,0,0,0-.58-.11,1.56,1.56,0,0,0-.62.12A1.25,1.25,0,0,0,20,49a1.71,1.71,0,0,0-.32.5,1.87,1.87,0,0,0-.11.64,1.64,1.64,0,0,0,.2.8,1.46,1.46,0,0,0,.58.55,1.75,1.75,0,0,0,.87.2,1.44,1.44,0,0,0,.41,0,2,2,0,0,0,.41-.14,2.26,2.26,0,0,0,.38-.25l-.43-.6a1.45,1.45,0,0,1-.33.19.9.9,0,0,1-.34.06,1,1,0,0,1-.48-.11.71.71,0,0,1-.31-.28.62.62,0,0,1-.07-.19h2.07V50a1.7,1.7,0,0,0-.1-.61A1.28,1.28,0,0,0,22.18,48.94Zm-.46.83H20.48a1.31,1.31,0,0,1,.05-.15.6.6,0,0,1,.24-.26.74.74,0,0,1,.38-.09.53.53,0,0,1,.28.07.48.48,0,0,1,.2.17.38.38,0,0,1,.09.25Z"/><polygon class="cls-1" points="21.85 47.62 21.44 47.02 20.42 47.83 20.69 48.24 21.85 47.62"/><path class="cls-1" d="M25.19,48.94a1.14,1.14,0,0,0-.19-.19.87.87,0,0,0-.31-.18,1.29,1.29,0,0,0-.4-.06,1.27,1.27,0,0,0-.7.2,1.38,1.38,0,0,0-.48.56,1.73,1.73,0,0,0-.18.81,1.79,1.79,0,0,0,.18.81,1.33,1.33,0,0,0,.47.55,1.16,1.16,0,0,0,.68.21,1,1,0,0,0,.39-.07,1,1,0,0,0,.33-.17.81.81,0,0,0,.19-.18v.37h.92v-3h-.9Zm-.07,1.57a.7.7,0,0,1-.24.27.66.66,0,0,1-.37.1.6.6,0,0,1-.35-.1.7.7,0,0,1-.24-.27,1,1,0,0,1-.09-.43.93.93,0,0,1,.09-.42.67.67,0,0,1,.24-.28.6.6,0,0,1,.35-.1.64.64,0,0,1,.61.38,1.08,1.08,0,0,1,.08.42A1.14,1.14,0,0,1,25.12,50.51Z"/><path class="cls-1" d="M29.28,48.65a1.24,1.24,0,0,0-1.06,0,1.36,1.36,0,0,0-.39.27l0,.07,0-.38H26.9v3h.91V49.79a.42.42,0,0,1,0-.2.66.66,0,0,1,.12-.17.6.6,0,0,1,.4-.14.45.45,0,0,1,.26,0,.34.34,0,0,1,.15.18.67.67,0,0,1,0,.3V51.6h.92V49.74a1.64,1.64,0,0,0-.12-.67A.87.87,0,0,0,29.28,48.65Z"/><path class="cls-1" d="M31,47a.57.57,0,0,0-.4.13.41.41,0,0,0-.15.33.43.43,0,0,0,.15.35A.6.6,0,0,0,31,48a.53.53,0,0,0,.39-.13.42.42,0,0,0,.15-.34.43.43,0,0,0-.14-.34A.62.62,0,0,0,31,47Z"/><rect class="cls-1" x="30.56" y="48.57" width="0.91" height="3.02"/><path class="cls-1" d="M36.56,48.66a1.08,1.08,0,0,0-.59-.14,1,1,0,0,0-.3,0,1.21,1.21,0,0,0-.3.11,1.18,1.18,0,0,0-.25.19.74.74,0,0,0-.16.2,1,1,0,0,0-.16-.26.84.84,0,0,0-.31-.22,1.35,1.35,0,0,0-.41-.06,1.25,1.25,0,0,0-.57.15,1.12,1.12,0,0,0-.24.19l-.06.08,0-.37h-.87v3h.92V49.79a.45.45,0,0,1,0-.2.57.57,0,0,1,.11-.16.71.71,0,0,1,.17-.11.78.78,0,0,1,.22,0,.48.48,0,0,1,.24.07.34.34,0,0,1,.15.18.65.65,0,0,1,0,.29V51.6h.92V49.8a.46.46,0,0,1,0-.21.57.57,0,0,1,.11-.16l.17-.11a.78.78,0,0,1,.22,0,.49.49,0,0,1,.25.06.34.34,0,0,1,.15.18.87.87,0,0,1,.05.31V51.6h.92V49.75a1.76,1.76,0,0,0-.12-.68A.93.93,0,0,0,36.56,48.66Z"/><path class="cls-1" d="M39.85,48.94a1.14,1.14,0,0,0-.19-.19.92.92,0,0,0-.32-.18,1.18,1.18,0,0,0-.39-.06,1.27,1.27,0,0,0-.7.2,1.31,1.31,0,0,0-.48.56,1.73,1.73,0,0,0-.18.81,1.79,1.79,0,0,0,.18.81,1.33,1.33,0,0,0,.47.55,1.16,1.16,0,0,0,.68.21,1,1,0,0,0,.39-.07,1,1,0,0,0,.33-.17,1.07,1.07,0,0,0,.19-.18v.37h.92v-3h-.9Zm-.08,1.57a.61.61,0,0,1-.23.27.66.66,0,0,1-.37.1.58.58,0,0,1-.35-.1.63.63,0,0,1-.24-.27,1,1,0,0,1-.09-.43.93.93,0,0,1,.09-.42.6.6,0,0,1,.24-.28.58.58,0,0,1,.35-.1.66.66,0,0,1,.37.1.58.58,0,0,1,.23.28.93.93,0,0,1,.09.42A1,1,0,0,1,39.77,50.51Z"/><polygon class="cls-1" points="42.72 47.81 41.81 47.81 41.81 48.57 41.27 48.57 41.27 49.37 41.81 49.37 41.81 51.6 42.72 51.6 42.72 49.37 43.3 49.37 43.3 48.57 42.72 48.57 42.72 47.81"/><path class="cls-1" d="M44.33,47a.57.57,0,0,0-.4.13.41.41,0,0,0-.15.33.43.43,0,0,0,.15.35.6.6,0,0,0,.4.12.53.53,0,0,0,.39-.13.42.42,0,0,0,.15-.34.43.43,0,0,0-.14-.34A.62.62,0,0,0,44.33,47Z"/><rect class="cls-1" x="43.87" y="48.57" width="0.91" height="3.02"/><path class="cls-1" d="M47.9,48.71a1.74,1.74,0,0,0-.84-.2,1.8,1.8,0,0,0-.84.2,1.64,1.64,0,0,0-.58.56,1.67,1.67,0,0,0,0,1.62,1.64,1.64,0,0,0,.58.56,1.8,1.8,0,0,0,.84.2,1.74,1.74,0,0,0,.84-.2,1.56,1.56,0,0,0,.58-.56,1.67,1.67,0,0,0,0-1.62A1.56,1.56,0,0,0,47.9,48.71Zm-.22,1.78a.72.72,0,0,1-.25.27.68.68,0,0,1-.74,0,.72.72,0,0,1-.25-.27,1.09,1.09,0,0,1,0-.82.76.76,0,0,1,.25-.28.73.73,0,0,1,.74,0,.76.76,0,0,1,.25.28,1.09,1.09,0,0,1,0,.82Z"/><path class="cls-1" d="M51.67,48.65a1.24,1.24,0,0,0-1.06,0,1.36,1.36,0,0,0-.39.27l0,.07,0-.38h-.86v3h.91V49.79a.42.42,0,0,1,0-.2.66.66,0,0,1,.12-.17.6.6,0,0,1,.4-.14.45.45,0,0,1,.26,0,.34.34,0,0,1,.15.18.67.67,0,0,1,0,.3V51.6h.92V49.74a1.64,1.64,0,0,0-.12-.67A.87.87,0,0,0,51.67,48.65Z"/><path class="cls-1" d="M56.83,49.47l-1.14-1.86h-.87v4h.94V50.35c0-.36,0-.68,0-1,0-.06,0-.13,0-.19l.9,1.42H57l.92-1.44a1.94,1.94,0,0,1,0,.24c0,.28,0,.58,0,.92V51.6h.94v-4H58Z"/><polygon class="cls-1" points="60.33 47.83 60.6 48.24 61.77 47.62 61.35 47.02 60.33 47.83"/><path class="cls-1" d="M62.09,48.94a1.52,1.52,0,0,0-.46-.32,1.54,1.54,0,0,0-.58-.11,1.56,1.56,0,0,0-.62.12,1.25,1.25,0,0,0-.49.33,1.51,1.51,0,0,0-.31.5,1.66,1.66,0,0,0-.12.64,1.54,1.54,0,0,0,.21.8,1.38,1.38,0,0,0,.57.55,1.75,1.75,0,0,0,.87.2,1.51,1.51,0,0,0,.42,0,2.12,2.12,0,0,0,.4-.14,1.92,1.92,0,0,0,.38-.25l-.43-.6a1.45,1.45,0,0,1-.33.19.9.9,0,0,1-.34.06,1,1,0,0,1-.48-.11.71.71,0,0,1-.31-.28,1.07,1.07,0,0,1-.07-.19h2.07V50a1.51,1.51,0,0,0-.09-.61A1.44,1.44,0,0,0,62.09,48.94Zm-.45.83H60.4a.33.33,0,0,1,.05-.15.58.58,0,0,1,.23-.26.76.76,0,0,1,.38-.09.65.65,0,0,1,.49.24.54.54,0,0,1,.09.25Z"/><path class="cls-1" d="M65.1,48.87,65,48.74a1.35,1.35,0,0,0-.34-.17,1.34,1.34,0,0,0-.4-.06,1.27,1.27,0,0,0-.7.2,1.44,1.44,0,0,0-.49.57,1.86,1.86,0,0,0-.17.81,1.92,1.92,0,0,0,.17.81,1.41,1.41,0,0,0,.49.56,1.24,1.24,0,0,0,.69.2,1.29,1.29,0,0,0,.4-.06,1.19,1.19,0,0,0,.34-.16.86.86,0,0,0,.2-.18l0,.34H66V47.38H65.1ZM65,50.51a.7.7,0,0,1-.24.29.61.61,0,0,1-.36.1.66.66,0,0,1-.37-.1.68.68,0,0,1-.23-.29.93.93,0,0,1-.09-.42,1,1,0,0,1,.09-.44.71.71,0,0,1,.23-.28.66.66,0,0,1,.37-.1.61.61,0,0,1,.36.1.73.73,0,0,1,.24.28,1.19,1.19,0,0,1,.08.44A1.08,1.08,0,0,1,65,50.51Z"/><rect class="cls-1" x="66.83" y="48.57" width="0.91" height="3.02"/><path class="cls-1" d="M67.29,47a.57.57,0,0,0-.4.13.41.41,0,0,0-.15.33.43.43,0,0,0,.15.35.6.6,0,0,0,.4.12.53.53,0,0,0,.39-.13.42.42,0,0,0,.15-.34.43.43,0,0,0-.14-.34A.62.62,0,0,0,67.29,47Z"/><path class="cls-1" d="M69.63,49.4a.7.7,0,0,1,.38-.1.81.81,0,0,1,.27.05.9.9,0,0,1,.24.12,1.62,1.62,0,0,1,.19.17l.5-.59a1.47,1.47,0,0,0-.54-.4,2,2,0,0,0-.75-.14,1.56,1.56,0,0,0-.78.2,1.56,1.56,0,0,0-.75,1.37,1.57,1.57,0,0,0,.2.81,1.48,1.48,0,0,0,1.33.76,2,2,0,0,0,.74-.14,1.22,1.22,0,0,0,.54-.39l-.49-.59a1.12,1.12,0,0,1-.2.18.82.82,0,0,1-.23.11,1.1,1.1,0,0,1-.27,0,.7.7,0,0,1-.38-.11.78.78,0,0,1-.26-.28.8.8,0,0,1-.09-.39.84.84,0,0,1,.09-.4A.7.7,0,0,1,69.63,49.4Z"/><path class="cls-1" d="M73.74,48.94a.81.81,0,0,0-.18-.19.92.92,0,0,0-.32-.18,1.25,1.25,0,0,0-.4-.06,1.3,1.3,0,0,0-.7.2,1.46,1.46,0,0,0-.48.56,1.73,1.73,0,0,0-.18.81,1.79,1.79,0,0,0,.18.81,1.43,1.43,0,0,0,.48.55,1.14,1.14,0,0,0,.68.21,1,1,0,0,0,.38-.07,1,1,0,0,0,.33-.17.86.86,0,0,0,.2-.18v.37h.92v-3h-.91Zm-.07,1.57a.7.7,0,0,1-.24.27.7.7,0,0,1-.72,0,.7.7,0,0,1-.24-.27,1.14,1.14,0,0,1-.08-.43,1.08,1.08,0,0,1,.08-.42.67.67,0,0,1,.24-.28.7.7,0,0,1,.72,0,.67.67,0,0,1,.24.28.93.93,0,0,1,.09.42A1,1,0,0,1,73.67,50.51Z"/><rect class="cls-1" x="75.46" y="47.38" width="0.91" height="4.21"/><path class="cls-1" d="M79.88,50a1.51,1.51,0,0,0-.09-.61,1.44,1.44,0,0,0-.3-.49,1.6,1.6,0,0,0-.45-.32,1.63,1.63,0,0,0-.59-.11,1.59,1.59,0,0,0-.62.12,1.22,1.22,0,0,0-.48.33,1.38,1.38,0,0,0-.32.5,1.66,1.66,0,0,0-.12.64,1.54,1.54,0,0,0,.21.8,1.51,1.51,0,0,0,.57.55,1.76,1.76,0,0,0,.88.2,1.48,1.48,0,0,0,.41,0,1.66,1.66,0,0,0,.78-.39l-.43-.6a1.22,1.22,0,0,1-.32.19,1,1,0,0,1-.35.06,1.06,1.06,0,0,1-.48-.11.77.77,0,0,1-.31-.28,1.07,1.07,0,0,1-.07-.19h2.08ZM79,49.77H77.8a.53.53,0,0,1,0-.15.58.58,0,0,1,.23-.26.79.79,0,0,1,.38-.09.57.57,0,0,1,.29.07.55.55,0,0,1,.2.17.54.54,0,0,1,.09.25Z"/></g></g></svg>