<svg xmlns="http://www.w3.org/2000/svg" viewBox="0 0 56.26 56.27"><defs><style>.cls-1{fill:#49469d;fill-rule:evenodd;}</style></defs><g id="Layer_2" data-name="Layer 2"><g id="Layer_2-2" data-name="Layer 2"><path class="cls-1" d="M26.49,0A28.17,28.17,0,0,0,9.81,6.74,40.68,40.68,0,0,0,6.73,9.82,28.06,28.06,0,0,0,.2,24.49,22.06,22.06,0,0,0,0,28.13a22.19,22.19,0,0,0,.2,3.65A28.06,28.06,0,0,0,7.11,46.87,28.57,28.57,0,0,0,14.89,53a28.18,28.18,0,0,0,11.54,3.25,40.9,40.9,0,0,0,4.29-.07,27.77,27.77,0,0,0,10.22-3A28.15,28.15,0,0,0,55.75,33.55a26.54,26.54,0,0,0,.5-4.88,25.93,25.93,0,0,0-.38-5.25A28.17,28.17,0,0,0,30.72.09C30,0,27.17,0,26.49,0m4,.18A28,28,0,1,1,12,51.06a28.82,28.82,0,0,1-5.13-4.64A28,28,0,0,1,18.24,1.9,28.8,28.8,0,0,1,26.34.16c.68,0,3.47,0,4.12,0m-3.78,2c-.12,0-.12,0-.12.28A14.38,14.38,0,0,0,26.66,4a.67.67,0,0,0,.24,0l.23,0,0-.44L27,2.62l0-.45h-.11l-.23,0m2,.44a.61.61,0,0,0-.52.66c0,.43.25.66.72.66a.64.64,0,0,0,.64-.3.93.93,0,0,0,0-.75.82.82,0,0,0-.83-.27m3.06.11c-.09.09-.12.09-.38.07s-.58,0-.65.24a.29.29,0,0,0,0,.27c.08.15.08.15,0,.19a.23.23,0,0,0-.13.31c0,.1,0,.13-.05.19a.29.29,0,0,0,0,.45,2.39,2.39,0,0,0,1.12.15A.42.42,0,0,0,31.91,4c-.09-.09-.19-.12-.47-.16-.43-.06-.44-.14,0-.14s.46,0,.54-.23a.27.27,0,0,0,0-.25c-.05-.12-.05-.12.14-.25a.2.2,0,0,0,.08-.12c0-.07,0-.09-.16-.11s-.2,0-.27.07m-9.24.12-.16,0c-.1,0-.12.05-.12.14s-.05.31-.14.33-.08,0-.06.09a.79.79,0,0,1,0,.13s0,.06.1.06.11,0,.17.35c.12.54.32.67.72.48.14-.07.15-.08.12-.21s-.06-.13-.17-.11-.13,0-.17-.15-.06-.23-.07-.32,0-.15.1-.19.12,0,.09-.18-.05-.14-.16-.12-.13,0-.18-.16-.08-.18-.1-.18m2.08,0c-.37.11-.52.29-.52.62a.66.66,0,0,0,.26.58.73.73,0,0,0,.62.09.63.63,0,0,0,.53-.81.66.66,0,0,0-.89-.48m4.49.17a.66.66,0,0,1,0,.48.3.3,0,0,1-.39,0,.54.54,0,0,1,0-.29c0-.19,0-.23.11-.28a.23.23,0,0,1,.3.07m2.38.06c.12.08.07.22-.07.24s-.25-.05-.25-.13.13-.17.19-.17a.3.3,0,0,1,.13.06m1.78.7c.11.69.11.71,0,.77a.29.29,0,0,1-.21,0c-.13,0-.2,0-.2.16s.47.23.69.1a5.67,5.67,0,0,0,.89-1.24c.15-.24.16-.22-.2-.29-.14,0-.14,0-.34.37s-.2.39-.21.25,0-.29,0-.46l0-.31-.15,0-.25,0c-.09,0-.09,0,0,.69m-8.31-.54a.48.48,0,0,1,0,.5.31.31,0,0,1-.19.06.17.17,0,0,1-.19-.11c-.07-.2,0-.4.06-.47a.18.18,0,0,1,.29,0M20,3.58a1,1,0,0,0-.61.59,1.08,1.08,0,0,0,.46,1,1.06,1.06,0,0,0,1.32-.49,1,1,0,0,0-.5-1.17,1,1,0,0,0-.67,0m.44.42a.67.67,0,0,1,.22.53.34.34,0,0,1-.35.35c-.16,0-.27-.12-.36-.41s-.07-.24,0-.34A.34.34,0,0,1,20.42,4m11,.14c.12,0,.17.2.07.23a.88.88,0,0,1-.29,0c-.21,0-.23,0-.24-.15s0-.12.17-.11a2,2,0,0,1,.29,0m3.9.54c-.07.23-.07.24,0,.26s.1.07-.05.21-.16.19,0,.24.48-.29.57-.58l.06-.21-.43-.13s-.08,0-.13.21M38.75,5a.32.32,0,0,0-.15.13c0,.08,0,.1.16.17a.47.47,0,0,0,.3.06c.16,0,.36.18.24.26A.7.7,0,0,1,39,5.56c-.34-.12-.52-.11-.65,0a.35.35,0,0,0,0,.51.78.78,0,0,0,.53.18c.1,0,.14,0,.17.08a.53.53,0,0,0,.35.25c.09,0,.12,0,.18-.12s.06-.15,0-.19-.06-.07.06-.33.18-.48.06-.63a1.12,1.12,0,0,0-1-.34m-11.64.8a23.81,23.81,0,0,0-4.81.75A22.36,22.36,0,0,0,6,25a18.83,18.83,0,0,0-.2,3.11,20.22,20.22,0,0,0,.43,4.46A22.34,22.34,0,0,0,35,49.41a23,23,0,0,0,5.76-2.82A22.32,22.32,0,0,0,49.4,21.32a22.76,22.76,0,0,0-2.95-6A22.38,22.38,0,0,0,35.17,6.93a21.94,21.94,0,0,0-5-1c-.65-.06-2.61-.11-3.11-.08M39,5.82c.14,0,.16.08.08.16s-.18.06-.3,0-.09-.09,0-.13.08-.05.25,0M30.15,6a22.16,22.16,0,0,1,12.27,5.13,29.81,29.81,0,0,1,2.7,2.69,22.25,22.25,0,0,1,0,28.6,28.67,28.67,0,0,1-2.7,2.7A22.21,22.21,0,1,1,26.93,6,26.77,26.77,0,0,1,30.15,6m10.6.51c-.18.28-.32.53-.33.55s.36.26.41.23a2.54,2.54,0,0,0,.23-.36c.2-.35.32-.44.44-.35s.07.25-.31.84c-.06.09,0,.1.15.22l.22.14.24-.42c.3-.51.34-.71.17-.88a.62.62,0,0,0-.51-.17c-.09,0-.1,0-.09-.06s0-.11-.13-.18L41.07,6s-.15.24-.32.53m-24-.28-.22.11.11.21c.08.16.12.2.18.18s.09,0,.11.11a2.32,2.32,0,0,1,0,.24c0,.09,0,.09.11,0s.11-.09.13-.31a.63.63,0,0,0-.08-.49c-.06-.12-.12-.22-.12-.22l-.24.12m-2.09.22a.86.86,0,0,0-.47.53.86.86,0,0,0,.33.71.78.78,0,0,0,1-.23.61.61,0,0,0,0-.73.62.62,0,0,0-.87-.28m.33.36a.6.6,0,0,1,.21.34A.27.27,0,0,1,15,7.4c-.13,0-.32-.24-.32-.39a.22.22,0,0,1,.1-.18c.11-.08.16-.09.25,0m-2.18.62c-.11.1-.13.14-.11.25s0,.15-.08.21l-.28.27c-.15.14-.19.21-.19.32a.27.27,0,0,0,.26.29c.08,0,.09,0,.06.15s.06.32.18.32.06.05.06.17a.27.27,0,0,0,.28.3,3.38,3.38,0,0,0,.92-.67.38.38,0,0,0,0-.53c-.19-.2-.3-.18-.71.13s-.45.19-.08-.15c.2-.19.23-.24.23-.37s-.1-.3-.23-.3-.08,0,0-.15a.29.29,0,0,0,0-.24c-.06-.15-.07-.15-.24,0M44,7.68c-.17.25-.17.25-.25.1a.58.58,0,0,0-.51-.28.87.87,0,0,0-.63.79.51.51,0,0,0,.5.49c.13,0,.14,0,.12.1s0,.12.13.2l.17.08L44,8.48l.53-.71s0-.1-.16-.19l-.21-.13a1.41,1.41,0,0,0-.18.23M43.51,8c.1.1.08.21,0,.36s-.22.16-.33.06-.1-.2,0-.36.24-.16.34-.06m-30.63.21a.25.25,0,0,1-.22.19c-.1,0-.11-.15,0-.21s.22-.05.22,0m-2.35.7-.18.16.13.12.13.13.15-.15A.76.76,0,0,0,10.91,9a.36.36,0,0,0-.1-.14l-.09-.11-.19.16m3,0c0,.1-.32.35-.44.35s-.08-.15.11-.29.33-.18.33-.06m-2.69.38-.18.16.4.45a3.56,3.56,0,0,0,.44.45.84.84,0,0,0,.2-.13l.17-.14-.42-.47-.43-.48-.18.16m35.26,1.07-.59.59.51.52.51.51.14-.13.13-.12-.33-.33-.32-.32.11-.1.11-.11.27.28.28.27.11-.1a.44.44,0,0,0,.11-.14,2,2,0,0,0-.26-.31l-.26-.27.11-.1.11-.1.31.33.31.34.12-.13.13-.13-.49-.52c-.27-.28-.5-.51-.51-.51s-.29.26-.61.58M9.23,10.31l-.11.11.08.17c.08.15.08.17,0,.24s-.06.08.06.2.14.11.19.06.1,0,.3.16.39.33.55.27a.89.89,0,0,0,.27-.23l.15-.17-.09-.1c-.09-.09-.1-.09-.17,0s-.18.08-.4-.11l-.2-.17.09-.11.09-.11-.12-.12-.12-.13-.1.1-.1.09-.12-.11a.49.49,0,0,0-.14-.12.52.52,0,0,0-.13.12m17.5.67-.49.07a9.68,9.68,0,0,0-4.17,1.48,12.24,12.24,0,0,0-2.32,2.1,11.55,11.55,0,0,0-1.05,1.65,6.6,6.6,0,0,0-.63,1.63c0,.14.19.38.3.38s.3-.18.3-.25a9.29,9.29,0,0,1,.61-1.46,8.94,8.94,0,0,1,3-3.42,1.3,1.3,0,0,1,.23-.14.22.22,0,0,0,.1-.06,9,9,0,0,1,1.83-.82,11.2,11.2,0,0,1,3.85-.41,10.9,10.9,0,0,1,7.1,2.75,10.59,10.59,0,0,1,2.23,3.38,1.77,1.77,0,0,0,.2.4c.17.18.49,0,.49-.28a10.38,10.38,0,0,0-1.64-3.08,9.78,9.78,0,0,0-5-3.34A13.84,13.84,0,0,0,27.8,11H26.73m-18.26.76a.39.39,0,0,0-.09.24c0,.13,0,.14-.08.1s-.1,0-.19.09a.39.39,0,0,0-.11.16,3.74,3.74,0,0,0,.47.44l.48.39L9.09,13a1.16,1.16,0,0,0,.15-.2A3.52,3.52,0,0,0,9,12.55c-.28-.24-.31-.34-.17-.53l.08-.11-.15-.13-.17-.13-.1.09m39.45.48a1,1,0,0,0-.47.53.52.52,0,0,0,.26.53l.15.1a1.25,1.25,0,0,1-.21.18.91.91,0,0,0-.22.2.71.71,0,0,0,.14.2l.13.17.63-.5c.84-.66.77-.57.62-.75s-.13-.15-.19-.11-.08,0-.08-.08a.63.63,0,0,0-.3-.46.5.5,0,0,0-.46,0m.45.47c.09.09.06.23-.08.35s-.26.14-.36,0-.08-.18.07-.32.28-.16.37-.07m-41.26.78a.89.89,0,0,0-.47.81.64.64,0,0,0,.36.5c.37.24.7.14,1-.27a.64.64,0,0,0,.13-.66c0-.08-.09-.14-.11-.14a.62.62,0,0,0-.17.17c-.11.15-.12.2-.09.27s-.22.42-.35.3a1.12,1.12,0,0,1,.22-.4,1.52,1.52,0,0,0,.24-.41,1,1,0,0,0-.5-.23.84.84,0,0,0-.24.06m30.27.14c-.25,0-.31.05-.36.16a.4.4,0,0,0,.06.47c.1.1.13.11.62.11a13.4,13.4,0,0,1,2,.19,3,3,0,0,1,2.11,1.13c.37.76-.36,1.94-2,3.27A27.59,27.59,0,0,1,34.45,22l-.63.28c-.4.18-1.43.6-1.47.6s-.26.23-.26.38.11.39.3.39A11.6,11.6,0,0,0,34,23.07l.25-.1s.29-.12,1.29-.6,1.7-.87,2.39-1.28a1.69,1.69,0,0,1,.52-.25s.07.12.09.25.05.39.09.59c.06.41.13,1.18.17,2.06a2.58,2.58,0,0,0,.07.65.27.27,0,0,0,.49,0c.06-.11.06-.24,0-.89,0-.41-.06-1-.09-1.37a15.83,15.83,0,0,0-.25-1.63c0-.05,0-.14.36-.36a16.74,16.74,0,0,0,1.74-1.5,3.66,3.66,0,0,0,1.32-2.53,2,2,0,0,0-1.33-1.85,7.25,7.25,0,0,0-2.79-.6l-.72,0h-.26m-19.61.05a8.82,8.82,0,0,0-2,.43c-1.92.7-2.23,2.36-.75,4.1a10.14,10.14,0,0,0,1,1c.14.12.29.24.32.28l.58.44c.71.52.71.53.69.64s-.15,1-.22,1.66c-.34,3.12-.44,3.69-.9,4.74,0,.09-.39.83-.79,1.63s-.74,1.55-.77,1.66a1.5,1.5,0,0,0,.12,1,2.12,2.12,0,0,0,1.51,1,.59.59,0,0,1,.28.15c.18.2.17.5,0,1A2.32,2.32,0,0,0,16.44,35a3.45,3.45,0,0,0,.3.91,1.74,1.74,0,0,1,.13,1.49,3.59,3.59,0,0,0-.14,1.6A2.19,2.19,0,0,0,19,40.91a8.76,8.76,0,0,0,1.12,0,6.47,6.47,0,0,1,1.71.08c.7.2.87.3,1.1.63a2.84,2.84,0,0,1,.42,1.56,11.72,11.72,0,0,1-.08,2.56l-.08.4h.62l.08-.44a13.9,13.9,0,0,0,0-3.22,3,3,0,0,0-.36-1.15.47.47,0,0,1-.07-.16,3,3,0,0,0-.67-.63,1.68,1.68,0,0,0-.41-.17L22,40.24a7.57,7.57,0,0,0-2.32-.11A2.75,2.75,0,0,1,18.12,40a1.57,1.57,0,0,1-.8-1.8,4.49,4.49,0,0,1,.15-.65,2.26,2.26,0,0,0,.07-1.2,7.66,7.66,0,0,0-.29-.79,1.82,1.82,0,0,1-.23-.84,1.36,1.36,0,0,1,.2-.75,2.13,2.13,0,0,0,.28-1.5,1.1,1.1,0,0,0-.9-.88c-.71-.17-1.15-.53-1.15-.94,0-.18.1-.4.71-1.61a16.63,16.63,0,0,0,1.23-2.74,33.49,33.49,0,0,0,.66-4.57,6.82,6.82,0,0,1,.11-.76l0-.1.14.09c.52.34,3.18,1.76,3.3,1.76a4.74,4.74,0,0,1,.44.19c.59.28,1.69.73,2.38,1a44.47,44.47,0,0,0,10.65,2.61,19.89,19.89,0,0,0,4.18,0,6.57,6.57,0,0,0,1.92-.56,2.81,2.81,0,0,0,1-.87,2,2,0,0,0,.19-1.51,3.41,3.41,0,0,0-.21-.6,7.14,7.14,0,0,0-2-2.22c-.2-.16-.34-.13-.44.07s-.06.41.25.68a5.48,5.48,0,0,1,1.77,2.22c.26.76-.31,1.43-1.51,1.78-2,.59-5.89.39-9.61-.5L30,24.77a49.69,49.69,0,0,1-7.07-2.36c-1.05-.46-1.37-.61-2-.93C20,21,18.74,20.32,18.28,20l-.51-.34a12.07,12.07,0,0,1-2.3-1.94c-.11-.14-.25-.31-.31-.37a3.32,3.32,0,0,1-.51-1.16c-.09-1,1.16-1.63,3.51-1.81.86-.06.83-.06.89-.25a.33.33,0,0,0,0-.33L19,13.64h-.43c-.24,0-.57,0-.75,0m-10.4.21a.51.51,0,0,1-.11.22c-.11.14-.14.17-.19.13s0-.39.18-.39a.17.17,0,0,1,.12,0m42,.36c-.58.38-.65.49-.53.78a.53.53,0,0,0,.25.26l.19.1s0,0,0,.06,0,.1.05.22l.11.16.35-.23.54-.35.17-.12-.13-.2-.13-.21-.34.23a1.84,1.84,0,0,1-.43.23c-.08,0-.2-.16-.17-.23a1.79,1.79,0,0,1,.38-.3l.36-.24-.13-.19a.72.72,0,0,0-.16-.19,2.31,2.31,0,0,0-.35.22M5.77,15.49l-.11.19L6,16a2.29,2.29,0,0,1,.27.3l-.4-.09a1.53,1.53,0,0,0-.41-.06,1,1,0,0,0-.14.22c-.08.13-.09.19-.06.21l1.28.19a.61.61,0,0,0,.15-.22c.09-.18.1-.22,0-.29s-.78-.95-.8-.95-.08.09-.13.2M51.4,16a.45.45,0,0,0-.14.08,1.34,1.34,0,0,0,.23.4l.15-.06.12-.07-.1-.21a2.17,2.17,0,0,0-.12-.21L51.4,16m-.84.45a3.62,3.62,0,0,0-.53.32,1.66,1.66,0,0,0,.21.4s1-.55,1.09-.58a2.06,2.06,0,0,0-.2-.39s-.22.06-.57.25m1,1.34-.8.38a.52.52,0,0,0,.08.23l.1.22.79-.37.81-.38a.57.57,0,0,0-.08-.23l-.11-.21-.79.36M3.48,18.89a.61.61,0,0,0,0,.51.35.35,0,0,0,.17.14c.11,0,.13.07.12.15s0,.11.11.14.2.06.2,0,0-.09.48.08A1.66,1.66,0,0,0,5,20a.45.45,0,0,0,.12-.21l.08-.2-.42-.16c-.22-.09-.43-.17-.45-.19s0-.07,0-.12,0-.1-.09-.16-.14-.07-.2,0a.88.88,0,0,0-.07.12c0,.1-.16-.06-.13-.17s0-.11-.09-.14-.17-.06-.25.08m49.37.22c-.12.05-.12.05,0,.3s.07.2.21.16l.14-.06s-.14-.44-.18-.44l-.14,0m-.89.34-.58.24a1,1,0,0,0,.13.4s.2,0,.6-.17.58-.23.59-.24a1.37,1.37,0,0,0-.16-.44l-.58.21m-35.58,1.2A8.13,8.13,0,0,0,15,21.93a3,3,0,0,0-.92,2.46,3.29,3.29,0,0,0,.16.5,2.52,2.52,0,0,0,1.56,1.16c.12,0,.28-.21.28-.38s-.09-.28-.52-.48a1.75,1.75,0,0,1-.88-.83c-.16-.5.09-1.14.75-1.91a10.22,10.22,0,0,1,1.06-1c.24-.2.3-.38.2-.58s-.2-.24-.33-.19m36.33.29-.8.24a.69.69,0,0,0,0,.19c0,.13.07.18.13.18s.08,0,0,.08a.55.55,0,0,0,.22.67.89.89,0,0,0,1-.29.53.53,0,0,0-.08-.59l-.12-.11.28-.08.28-.08a1.66,1.66,0,0,0-.16-.45l-.82.24M3.49,21A.87.87,0,0,0,3.22,22a.74.74,0,0,0,.95.2.88.88,0,0,0,.22-1,.72.72,0,0,0-.9-.22m.47.43c.18.07.24.18.17.33s-.09.12-.23.12c-.34,0-.52-.19-.41-.41s.25-.11.47,0m49,.15c0,.09.06.13,0,.19a.6.6,0,0,1-.46.16c-.21-.05-.19-.3,0-.4s.32-.07.4.05m.11,1.85-.53.11,0,.16c0,.32,0,.31.27.28a2.71,2.71,0,0,1,.41,0c.21,0,.22,0,.28.17l.07.17.18,0c.16,0,.18-.05.18-.16s-.11-.3-.21-.3-.06,0,0-.07.08-.09,0-.23,0-.21-.74-.06M2.45,24.94a1.2,1.2,0,0,0,0,.25,2.16,2.16,0,0,0,.39.18,1,1,0,0,1,.34.16l-.41.09-.4.07,0,.23a.9.9,0,0,0,0,.25A5.84,5.84,0,0,0,3,26c.6-.16.66-.17.72-.11a.28.28,0,0,1,.05.21c0,.15,0,.19.18.19s.17-.13.17-.34a.59.59,0,0,0-.24-.51c-.07,0-.4-.23-.75-.41l-.62-.33,0,.22m22.22.24c-.74.15-1.73.31-2.68.43-.4,0-2,.18-2.32.18-.11,0-.23.19-.23.36s.06.32.2.38a22.52,22.52,0,0,0,3.9-.35,6.06,6.06,0,0,0,1.76-.41.44.44,0,0,0,0-.57c-.11-.1-.22-.11-.63,0m29.58.13c0,.31,0,.35.21.33l.16,0a1,1,0,0,0,0-.23l0-.22h-.16c-.17,0-.17,0-.17.16m-.81,0-.54.07v.22a.9.9,0,0,0,0,.24,9.91,9.91,0,0,0,1.22-.15.67.67,0,0,0,0-.24c0-.17,0-.22-.09-.22l-.6.08M17.71,27c0,.07-.38.87-.78,1.76l-.74,1.71c0,.07,0,.07.33.07h.34l.14-.34.14-.34h1.21l.13.33.13.33H19l.42,0-.12-.27c-.86-2-1.49-3.42-1.52-3.42s-.06.06-.09.14m35.78-.1c-.35,0-.48.15-.48.43a.67.67,0,0,0,.08.33c.11.17.11.18,0,.18s-.08.09,0,.29l0,.12.62,0,.64,0s0-.12,0-.25l0-.23-.4,0c-.42,0-.57,0-.57-.17s.09-.17.53-.19a2.82,2.82,0,0,0,.44,0,1.1,1.1,0,0,0,0-.24l0-.22H54l-.53,0M32.55,27a2,2,0,0,0-1.24,1,1.92,1.92,0,0,0-.11,1.25,2,2,0,0,0,.65.94,1.83,1.83,0,0,0,2.77-.67,1.2,1.2,0,0,0,.15-.77,1.23,1.23,0,0,0-.14-.75,2,2,0,0,0-.9-.88,1.25,1.25,0,0,0-.66-.17,1.92,1.92,0,0,0-.52,0m-22.14.06a1,1,0,0,0-.7.94,1.08,1.08,0,0,0,.8,1c.64.26.81.43.7.7s-.23.24-.55.24a1.06,1.06,0,0,1-.55-.13c-.19-.09-.28-.12-.31-.09a1.35,1.35,0,0,0-.24.51,2.49,2.49,0,0,0,.79.34,1.54,1.54,0,0,0,1.39-.35,1,1,0,0,0,0-1.3,1.63,1.63,0,0,0-.66-.41c-.67-.32-.79-.49-.56-.76.1-.11.13-.12.4-.12a1.07,1.07,0,0,1,.54.12,1.16,1.16,0,0,0,.27.1l.14-.27.13-.26-.24-.11a2,2,0,0,0-1.37-.14m13.16,0c.11.29,1.59,3.62,1.61,3.62s1.54-3.41,1.63-3.65a1.23,1.23,0,0,0-.41,0H26l-.36.95c-.2.52-.37,1-.39,1a6,6,0,0,1-.43-1l-.4-1H24c-.34,0-.42,0-.4.06m15.85,1.71v1.78H42v-.68H40.1V29.1h1.55v-.69H40.1v-.73h1.76V27H39.42v1.77m7.11,0v1.78h.69V29.44h.49l.38.56.38.55h.4c.38,0,.41,0,.37-.07l-.41-.63-.36-.56.14-.12a1.35,1.35,0,0,0,.27-.36A1.13,1.13,0,0,0,49,28.2a1,1,0,0,0-.33-.85c-.29-.28-.48-.33-1.35-.35h-.79v1.78M2.16,27.3c0,.14,0,.14-.19.13s-.18,0-.2.15,0,.22.18.28.17.07.17.15,0,.1.17.1.17,0,.17-.08,0-.08.41-.06.41,0,.48-.06a.71.71,0,0,0,.12-.57c0-.11,0-.13-.17-.13s-.15,0-.15.13v.13H2.51v-.14c0-.13,0-.14-.17-.15s-.16,0-.17.12m31.28.45a1.17,1.17,0,0,1,.07,2,.81.81,0,0,1-.52.12,1,1,0,0,1-.5-.09A1.17,1.17,0,0,1,32,28.3a1.14,1.14,0,0,1,.72-.62,1.31,1.31,0,0,1,.75.07m14.6,0a.56.56,0,0,1,.18.73c-.09.2-.28.27-.67.27h-.33V27.68h.35a1.07,1.07,0,0,1,.47.07m-9.56.11a1.51,1.51,0,0,0-.18.5c-.15.67-.64,2.45-.79,2.83,0,.14-.21.64-.9,2.8a27,27,0,0,0-.79,3.23,12,12,0,0,0,0,4.59l.33,1.67c.12.61.25,1.21.29,1.33a5.7,5.7,0,0,1,.14.75l.07.53.26,0h.27V45.8a1,1,0,0,1,0-.35c.07,0,.05-.09,0-.12s-.1-.11-.15-.42-.14-.68-.21-1c-.63-3.12-.66-3.3-.63-4.63a12.28,12.28,0,0,1,.36-2.79,43.57,43.57,0,0,1,1.36-4.63,28.06,28.06,0,0,0,1-3.6c0-.28-.07-.47-.24-.47a.33.33,0,0,0-.21.09m-20.54,1,.17.42h-.34a1.21,1.21,0,0,1-.34,0,8,8,0,0,1,.33-.81s.09.2.18.42m-15.5.37a.59.59,0,0,0-.3.6c0,.49.23.75.66.75s.69-.24.69-.72-.17-.71-.43-.71c-.1,0-.1,0-.09.23s0,.24.07.24.15.36,0,.43-.18.06-.18-.43v-.47H2.73a.7.7,0,0,0-.29.08m50.68.26c-.06.34-.07.33.4.36s.56.08.56.22-.12.16-.58.13l-.45,0v.23c0,.23,0,.24.13.27l.4,0c.31,0,.43.07.41.22s0,.1-.5.1H53v.49l.48,0c.53,0,.67,0,.78-.16a.54.54,0,0,0,0-.56l-.09-.11.11-.11a.56.56,0,0,0,0-.64c-.09-.11-.09-.11,0-.11s.08,0,.11-.18,0-.2,0-.21a3.58,3.58,0,0,0-.64-.07l-.61,0,0,.15m-50.44.37c0,.25,0,.27-.14.16a.22.22,0,0,1,0-.32c.11-.13.14-.09.14.16m.24,1.82-.57.08a1.44,1.44,0,0,0,.07.44,4.26,4.26,0,0,0,.6,0c.56-.06.58-.07.6-.17s0-.39-.1-.38l-.6.08M2,31.79c-.1,0-.12,0-.1.11a.75.75,0,0,1,0,.23c0,.12,0,.14.1.14s.24-.05.24-.19,0-.33-.1-.32l-.17,0M3.3,33.37c.05.27.07.31.15.31s.24.33.11.43a.67.67,0,0,1-.27.08c-.16,0-.21,0-.25-.06a.26.26,0,0,1,0-.34c.07-.06.07-.1,0-.28S3,33.3,3,33.3a.49.49,0,0,0-.32.23,1.23,1.23,0,0,0,0,.78.53.53,0,0,0,.55.36c.47,0,.72-.22.71-.64s-.26-.82-.59-.82c-.12,0-.12,0-.09.16m49.2.9c-.1.36-.1.36.2.44s.29.07.26.2-.08.1-.35.14l-.32.06-.07.28a1.23,1.23,0,0,0-.06.29,1.56,1.56,0,0,0,.36-.07c.41-.1.4-.1.4,0a.44.44,0,0,0,.12.2.52.52,0,0,0,.79-.06,7.13,7.13,0,0,0,.3-1.19,7.09,7.09,0,0,0-.74-.21l-.78-.2s-.08,0-.11.14m1.11.69s0,.12,0,.24-.08.2-.16.19-.13-.1-.07-.33.06-.18.14-.15a.35.35,0,0,1,.12.05m-49.86.7a.63.63,0,0,0-.47.81c.11.44.33.62.72.59s.78-.52.52-1.05a.6.6,0,0,0-.77-.35m.5.53c.12.19,0,.35-.36.43a.23.23,0,0,1-.23-.38c.19-.17.49-.2.59-.05m47.57.67c-.39.25-.48,1-.14,1.19.06,0,.08,0,.15-.15s.06-.21,0-.29a.28.28,0,0,1,.11-.38c.2-.09.21,0,0,.46l-.15.43c0,.05.34.11.46.09a.84.84,0,0,0,.56-.89.73.73,0,0,0-1-.46m.68.57c.07.16,0,.33-.16.33s-.1,0-.1,0a1.21,1.21,0,0,1,.17-.41s.06.05.09.1M4.58,38c-.23.1-.29.23-.26.59,0,.17,0,.35,0,.39.06.22-.14.24-.23,0s0-.14,0-.2.06-.09,0-.29-.1-.22-.1-.23-.2.1-.26.21a1,1,0,0,0,.56,1.19.42.42,0,0,0,.32-.08c.24-.17.28-.29.22-.71a1.75,1.75,0,0,1,0-.4c0-.08.15,0,.22.09s.08.28,0,.33-.06.06,0,.25.17.28.33.11a.42.42,0,0,0,.12-.35c0-.49-.35-1-.7-1a.56.56,0,0,0-.23.06M51,39.1a1.08,1.08,0,0,0-.49.86c0,.15.14.37.23.37s.2-.35.17-.48.08-.34.22-.34.11,0,.11,0-.09.21-.2.43c-.22.46-.22.46.08.54s.56,0,.74-.4a.71.71,0,0,0,0-.66.81.81,0,0,0-.9-.34m.58.75c0,.14-.07.22-.2.22s-.1,0-.08-.1a1.31,1.31,0,0,1,.1-.21c.05-.1.07-.11.12-.07a.26.26,0,0,1,.06.16m-1.81,1.4a.55.55,0,0,0-.25.49c0,.14,0,.16-.07.15s-.11,0-.17.15l-.1.16.74.45c.41.24.76.45.78.45s.1-.08.16-.19.11-.22.06-.24l-.23-.13-.17-.11.16-.17a.38.38,0,0,0,.17-.36c0-.25-.16-.44-.48-.6a.6.6,0,0,0-.6,0m-43.27.54c-.38.25-.53.41-.53.57a.59.59,0,0,0,.34.45c.15.07.16.09.11.13s0,.08.05.22.12.17.2.11l.52-.33.44-.28a1.41,1.41,0,0,0-.25-.4,2.77,2.77,0,0,0-.36.21c-.38.24-.41.25-.52.15s-.08-.19.58-.62l.1-.07L7,41.73a.78.78,0,0,0-.14-.2s-.2.12-.42.26m43.75,0c.14.1.18.15.16.24s-.25.24-.5,0-.17-.26-.08-.35.23-.06.42.08m-1.7,1.52a.51.51,0,0,0-.3.45c0,.15,0,.17-.12.14s-.12,0-.19.11a.55.55,0,0,0-.09.16,7.27,7.27,0,0,0,1,.73s.19-.14.3-.31-.1-.13-.25-.25c-.34-.25-.38-.3-.35-.43s.19-.14.52.1a2.74,2.74,0,0,0,.33.22,1.6,1.6,0,0,0,.26-.33,2.76,2.76,0,0,0-.82-.61.36.36,0,0,0-.25,0M8,43.54c-.07.06-.09.11-.07.17s0,.12-.21.26a1,1,0,0,0-.26.26c-.07.2.24.73.51.9s.37.1.4,0-.1-.17-.24-.32-.32-.39-.25-.39l.25.24a1.59,1.59,0,0,0,.35.26.42.42,0,0,0,.45-.23c.05-.11.05-.15,0-.3A.76.76,0,0,0,8.5,44c-.05,0-.08-.07-.08-.15s-.21-.44-.29-.43a.55.55,0,0,0-.13.08m.45.79c.07.12.05.2-.06.2s-.28-.19-.25-.25.24-.05.31,0M47,45.2a1.29,1.29,0,0,0-.52.46.55.55,0,0,0,0,.6c.06.08.07.08.21-.06s.15-.16.13-.26a.22.22,0,0,1,.08-.23.39.39,0,0,1,.17-.11c.1,0,.33.24.33.33s-.19.29-.29.26-.13,0-.24.14l-.16.16.1.07a.49.49,0,0,0,.56-.06,1,1,0,0,0,.45-.61A.69.69,0,0,0,47,45.2m-37.7.6c-.24.23-.45.42-.46.44a.77.77,0,0,0,.16.19l.16.16.46-.42a4.11,4.11,0,0,0,.46-.44,1,1,0,0,0-.17-.18l-.16-.16-.45.41m-.73.69-.12.12.14.16c.08.09.16.16.19.16a.44.44,0,0,0,.14-.11l.1-.11-.17-.17-.17-.17-.11.12m2.26.52a2.17,2.17,0,0,1-.33.28.42.42,0,0,1-.22-.08l-.15-.1-.11.11a.4.4,0,0,0-.12.17c0,.08.22.23.33.23s.1,0,.06.08,0,.1.08.19a.44.44,0,0,0,.16.11,3.72,3.72,0,0,0,.46-.45l.43-.46-.17-.16-.17-.17-.25.25m34.5-.14a.88.88,0,0,0-.4.41.16.16,0,0,1-.12.12.66.66,0,0,0-.4.26.18.18,0,0,0,.2.24c.07,0,.14,0,.32.21s.44.31.71.11.55-.58.45-.77,0-.09-.2,0a.9.9,0,0,0-.21.24c-.07.12-.22.23-.27.19a.68.68,0,0,1,.16-.23c.29-.32.32-.48.15-.69s-.23-.18-.39-.11m.06.51a.35.35,0,0,1-.08.21c-.07.09-.1.1-.15.06a.21.21,0,0,1,0-.3c.09-.1.2-.08.22,0m-33.35.69c-.07,0-.12.08-.12.1a.79.79,0,0,0,.18.16c.12.1.19.13.24.1s.29.06.33.17,0,.22-.07.22a3,3,0,0,1-.39-.28l-.35-.28-.08.09a.56.56,0,0,0,.15.79c.31.29.6.35.85.18a.66.66,0,0,0,.32-.49.82.82,0,0,0-.46-.7.56.56,0,0,0-.6-.06m31.28.49a1.35,1.35,0,0,0-.28.19l-.1.11.09.09c.07.07.1.08.18,0s.16-.06.33.17l.16.23-.09.07c-.12.09-.12.12,0,.25s.09.1.16,0,.15-.09.28.08l.12.16.13-.09c.14-.11.15-.16,0-.37s-.07-.16,0-.21.08-.07,0-.19-.11-.13-.16-.08-.09,0-.2-.12a2,2,0,0,0-.44-.45.88.88,0,0,0-.21.09M12.41,49c-.07,0-.27-.13-.29-.23s0,0,.16.07.16.15.13.16m1.76,0a.38.38,0,0,0-.13.3c0,.2,0,.25.37.48a.83.83,0,0,1,.27.24c0,.09,0,.08-.28-.06s-.75-.14-.75.2c0,.11,0,.12-.12.11a.31.31,0,0,0-.22.06l-.1.08.16.1a.4.4,0,0,0,.31.06c.12,0,.18,0,.36.12a1.33,1.33,0,0,0,.41.16.29.29,0,0,0,.3-.1.24.24,0,0,0,.09-.26c0-.13,0-.15.08-.15a.3.3,0,0,0,.28-.28c0-.07,0-.1.07-.1a.28.28,0,0,0,.27-.28c0-.18-.07-.26-.5-.54s-.68-.33-.87-.14m.7.34c.22.14.27.22.18.31s-.08,0-.25-.05-.32-.22-.25-.31.1-.08.32,0m27,.15a.89.89,0,0,0-.18.15s.63,1,.67,1a2.08,2.08,0,0,0,.38-.22,2.22,2.22,0,0,0-.32-.56l-.36-.54-.19.13m-27.52.75c.09.09.1.16,0,.23a.18.18,0,0,1-.28-.14c0-.17.13-.22.27-.09m25.95.17a.71.71,0,0,0-.55.83.77.77,0,0,0,.64.56,1.17,1.17,0,0,0,.67-.34.66.66,0,0,0-.3-1.06.5.5,0,0,0-.46,0m-10.7.09c-.07,0-.14,0-.15,0a1.23,1.23,0,0,0-.65,0,.72.72,0,0,1-.29,0c-.18,0-.32.08-.32.18s-.06,0-.13,0a.21.21,0,0,0-.23.08.31.31,0,0,1-.17.12c-.11,0-.17.11-.13.24a1,1,0,0,1,.06.45.21.21,0,0,0,0,.14c.09.06,0,.11-.18.09s-.18,0-.3.1-.12.16-.11.2-.05.1-.21.19a1,1,0,0,1-.55.15,1,1,0,0,0-.41.1.81.81,0,0,1-.2.11.46.46,0,0,0-.27.39c0,.19.18.35,1.44,1.31a6,6,0,0,1,1.22,1c.06.07.14.14.17.14a.18.18,0,0,1,.13.06.26.26,0,0,0,.14.07c.08,0,.09,0,.08.15s0,.18.46.07a4.38,4.38,0,0,0,1.24-.71,11.55,11.55,0,0,0,1-.7c0-.11,0-.2-.33-.35s-.45-.32-.31-.42.08-.11.07-.56A5,5,0,0,0,30.53,52a.26.26,0,0,0-.14-.1.45.45,0,0,1-.18-.2l-.09-.17.13-.11c.11-.1.12-.14.12-.37s0-.27.07-.31a.15.15,0,0,0,0-.14c0-.08,0-.09-.39-.09a1.85,1.85,0,0,0-.5.05m-13.75.72a4.15,4.15,0,0,0-.37.79,1.12,1.12,0,0,0,.38.21,14.62,14.62,0,0,0,.77-1.53,1.39,1.39,0,0,0-.37-.22s-.19.34-.41.75m14.46-.57a.5.5,0,0,0-.07.3c0,.21,0,.26-.12.37s-.13.14-.09.26a.89.89,0,0,0,.36.41c.06,0,.07.11.08.38a1,1,0,0,0,.05.37c.07.06.08.65,0,.65l-.21-.05-.16,0v-.48l-.16.18-.16.19-.19-.07a.53.53,0,0,0-.21-.05,1.59,1.59,0,0,0,.12.18l.12.18-.13.17c-.14.2-.13.21.13.12l.18-.06.14.2.14.2v-.49l.2-.06.21-.07s-.05.29-.1.31.1.54.26.55a.72.72,0,0,1,.4.19,6.56,6.56,0,0,1-.92.67,4.77,4.77,0,0,1-1.2.7c-.32.08-.32.08-.29,0s-.09-.22-.19-.22a.19.19,0,0,1-.13-.07.2.2,0,0,0-.12-.06s-.11-.07-.16-.15a11.86,11.86,0,0,0-1-.82c-1.29-1-1.6-1.24-1.6-1.37s.13-.28.22-.28a.24.24,0,0,0,.13-.07.45.45,0,0,1,.26-.07,1.35,1.35,0,0,0,.67-.18.5.5,0,0,1,.18-.09c.12,0,.23-.14.2-.22s0-.07.08-.12a.21.21,0,0,1,.22-.07c.19,0,.33-.06.29-.18a1.84,1.84,0,0,1-.07-.47.42.42,0,0,0,0-.2c0-.07,0-.09,0-.09a.31.31,0,0,0,.17-.1C28,51,28,51,28.07,51s.13,0,.21-.08a.28.28,0,0,1,.25-.11.88.88,0,0,0,.29,0,1.3,1.3,0,0,1,.61,0,.32.32,0,0,0,.19,0,1.51,1.51,0,0,1,.44,0c.28,0,.3,0,.25.07m12.38.08a.6.6,0,0,0-.18.16.33.33,0,0,0,.07.13l.08.1.18-.11c.2-.13.21-.17.1-.31l-.07-.09-.18.12m-2.18,0a.79.79,0,0,1,.24.45c0,.1-.18.23-.29.21a.58.58,0,0,1-.27-.43.26.26,0,0,1,.1-.19c.1-.07.12-.07.22,0m-23,.67c0,.15,0,.55-.05.9l0,.62.27.12.28.12.61-.64c.33-.35.61-.64.61-.66a.89.89,0,0,0-.25-.12l-.24-.1-.08.09-.07.1-.26-.12c-.23-.1-.26-.13-.26-.24s0-.13-.24-.23l-.25-.1a1.7,1.7,0,0,0,0,.26m20.8,0c-.09,0-.17.08-.17.1a2.8,2.8,0,0,0,.16.39c.16.38.16.53,0,.57s-.18,0-.36-.44l-.16-.39-.15.07-.21.09c-.08,0-.08,0,.12.49s.3.59.54.59a.44.44,0,0,0,.33-.13.42.42,0,0,0,.15-.2c0-.07,0-.07.07,0s.09.06.24,0a.69.69,0,0,0,.17-.09,6,6,0,0,0-.52-1.11.92.92,0,0,0-.22.06m-20.16.68.16.06-.19.22c-.1.12-.18.21-.19.2a2.45,2.45,0,0,1,.05-.55l.17.07m10.26,0a1.41,1.41,0,0,0-1,1.29,1.35,1.35,0,0,0,.79,1.34,1.11,1.11,0,0,0,.59.13,1.15,1.15,0,0,0,.6-.13,1.5,1.5,0,0,0,.29-.15.87.87,0,0,0-.23,0A1.19,1.19,0,0,1,28,53.45a1.21,1.21,0,0,1,1.53-1.12c.2.06.18,0-.08-.11a1.12,1.12,0,0,0-.55-.13,1.7,1.7,0,0,0-.43,0"/></g></g></svg>