<svg xmlns="http://www.w3.org/2000/svg" viewBox="0 0 45.86 53.51"><defs><style>.cls-1{fill:#ed7623;fill-rule:evenodd;}</style></defs><g id="Layer_2" data-name="Layer 2"><g id="Layer_2-2" data-name="Layer 2"><path class="cls-1" d="M7.59.23c-3.45,1.09-5.4,4-6.67,10-.74,3.51-1,8-.9,15.16.06,3.61.19,7.44.3,8.5a70.59,70.59,0,0,0,1.19,7.53l.18.58H8.94V43.9L7.68,44l-1.25.09-.07,3.44a34.53,34.53,0,0,0,.06,3.93c.21.86,3.05,1.83,5.89,2,.77,0,.87,0,1-.42a7.34,7.34,0,0,0,.16-1.5l0-1-.81.41c-1.82.92-3.83,0-3.83-1.77,0-1.38,1.55-2.3,3.44-2,.78.11.83.09.77-.31-.09-.63-1.13-.89-2-.48-.62.3-.68.29-1.15-.08-.7-.55-.62-.87.32-1.35a4,4,0,0,1,3.57,0c1.25.94,1.3,1.13,1.37,5l.06,3.56H17V42l-2.18-2.22c-3.4-3.46-3.23-3.17-3.23-5.43V32.4l1-.45a3.92,3.92,0,0,0,1.66-6.16,4.75,4.75,0,0,0-4.78-1.5,4.7,4.7,0,0,0-2.91,3A4,4,0,0,0,9,32l1,.34v2.32L9.4,34c-5.54-6.43-8.11-12.46-7-16.59a7.85,7.85,0,0,1,6.5-6,8.37,8.37,0,0,1,4.79.69A10.52,10.52,0,0,1,17,15.46c.53.91.53.91.16,1.39-1.38,1.75-1,5.95.89,9.15l1.2,2.07a7.41,7.41,0,0,0,4.09,3.35l1,.34-.05,2.39,0,2.39-2.59,2.69-2.59,2.69v1.62a4.67,4.67,0,0,0,.14,1.61,1.39,1.39,0,0,0,.52-.29,3,3,0,0,1,1.48-.28A2.11,2.11,0,0,1,23,45.1,3.36,3.36,0,0,1,24.1,48,3.33,3.33,0,0,1,23,50.81a2.94,2.94,0,0,1-3.2.14,2.77,2.77,0,0,0-.72-.38,3.26,3.26,0,0,0-.15,1.37v1.37L20,53.19c1.77-.21,4-.54,4.73-.73l.72-.17,0-3.81.06-3.81h1.93l.05,3.55,0,3.55.6-.12a5.64,5.64,0,0,1,.89-.12c.25,0,.28-.87.21-7l-.08-7h1.47v2.13c0,1.76,0,2.12.28,2.12s.32.09.36,2a3.9,3.9,0,0,0,.15,1.21c.06.06.37,0,.67-.18a3.29,3.29,0,0,1,2.93.12,3.46,3.46,0,0,1,1.39,2.84c0,.71.06.82.33.72a25.18,25.18,0,0,0,4.63-3.07,17.12,17.12,0,0,0,3-3.42c0-.09-.42-.12-.93-.06A2.32,2.32,0,1,1,43,37.43a2.48,2.48,0,0,1,2.08,1.12l.6.69.14-1.54a13.42,13.42,0,0,0-1.71-7.6c-1.49-3-3.07-5-9.09-11.48-2.1-2.27-3.38-3.2-4.44-3.21A4.72,4.72,0,0,1,29.24,15c-1-.51-1.56-.46-2,.17-.58.88.08,1.54,1.56,1.56,2.21,0,3.6.9,3.84,2.4a11,11,0,0,1-1.47,6,7,7,0,0,1-2.06,2.58c-3,2.53-4.54,2.54-7.65.07A10.39,10.39,0,0,1,18,20.49c-.14-2.13.07-2.6,1.47-3.28a4,4,0,0,1,2.3-.5c1.08,0,1.24,0,1.51-.43a1.15,1.15,0,0,0-.19-1.49,2.17,2.17,0,0,0-1.77.11,4.47,4.47,0,0,1-2.14.67c-.25-.05-.14-.28.52-1.12a7.29,7.29,0,0,1,3-2.55,5.14,5.14,0,0,1,3.14-.63,7.31,7.31,0,0,0,1.86-.12,67.15,67.15,0,0,0-5.17-4.56A37.8,37.8,0,0,0,15.18,1.7C12,.15,9.4-.34,7.59.23M28.19,32a23.54,23.54,0,0,1-1.65,2l-.51.47V31.65l.72-.13a6.8,6.8,0,0,0,1.6-.58c.48-.24.89-.45.92-.45s-.45.66-1.08,1.48m2.48,3.44a1,1,0,0,1-.45,1.41.8.8,0,0,1-.91-.82.77.77,0,0,1,1.36-.59m9.15.4c.5.19.38,1-.17,1.23-.27.11-.49.28-.49.39s.22.19.49.19.48.09.48.58-.15.67-.71.6c-.29,0-.47.8-.42,2s-.19,1.39-.89,1.22c-.47-.12-.49-.18-.49-1.59s0-1.47-.39-1.56a.52.52,0,0,1-.38-.56.8.8,0,0,1,.38-.66.77.77,0,0,0,.39-.59c0-.88,1.27-1.58,2.2-1.22m-6.35,1.87c.21,0,.64-.09,1-.16a1.2,1.2,0,0,1,1.12.3c.53.41.54.45.48,2.29L36,42H35.4c-.56,0-.58,0-.63-1-.09-1.85-.21-2.22-.72-2.22s-.76.27-.87,1.84L33.08,42H31.92l-.05-2c-.07-2.44,0-2.57.67-2.39a3.7,3.7,0,0,0,.93.12m8.91,1.26c-.66.74-.34,1.77.55,1.77s1.14-.39,1-1.23-.94-1.19-1.53-.54m-15,2.55a1.35,1.35,0,0,1,.39.78c0,.45-.81,1.34-1.22,1.34a1.66,1.66,0,0,1-1.29-1.3,1.22,1.22,0,0,1,2.12-.82M2.29,44.32a15.59,15.59,0,0,0,1.65,3.87c.14.05.19-.57.15-2l0-2.09L3.15,44c-.74-.05-.87,0-.86.29M19.5,46.76a1.73,1.73,0,0,0,0,2.23,1.44,1.44,0,0,0,2.16-.2,1.85,1.85,0,0,0-.17-2.18,1.53,1.53,0,0,0-2,.15m12.24.15c-.58.69-.62,1.07-.17,1.73s.64.76,1.27.76,1.3-.61,1.3-1.54c0-1.52-1.44-2.09-2.4-1M11.4,48.45a.64.64,0,0,0-.43.67c0,.59.35.76,1.25.59.51-.1.7-.25.8-.62.19-.77-.57-1.07-1.62-.64"/></g></g></svg>