<svg xmlns="http://www.w3.org/2000/svg" viewBox="0 0 51.37 54.43"><defs><style>.cls-1{fill:#292b78;}.cls-2{fill:#218ccc;}.cls-3{fill:#0d63a9;}.cls-4{fill:#010101;}</style></defs><g id="Layer_2" data-name="Layer 2"><g id="Layer_2-2" data-name="Layer 2"><path class="cls-1" d="M24.3,16.77,18.88,32.63a.56.56,0,0,1-.83.3l-1.22-.77a.18.18,0,0,0-.28.17l.31,5a.6.6,0,0,1-.9.56A19.69,19.69,0,0,1,6.16,23.7c-.14-1,5.13,2.67,5.13,1.67,0-.53-2.84-3.53-4.34-5.38a1,1,0,0,1,.62-1.63l15.87-2.61a.78.78,0,0,1,.86,1"/><path class="cls-2" d="M41.2,9,7.53,14.49a1.21,1.21,0,0,1-1.31-1.67A21.23,21.23,0,0,1,41.79,7.36,1,1,0,0,1,41.2,9"/><path class="cls-3" d="M45.24,21.49A19.68,19.68,0,0,1,21.85,40a1.38,1.38,0,0,1-1.05-1.79l7.5-22a2.43,2.43,0,0,1,1.93-1.63L42,12.71A1.88,1.88,0,0,1,44,13.9a19.5,19.5,0,0,1,1.21,7.59"/><polygon class="cls-4" points="0 48.48 2.32 48.48 2.32 54.37 4 54.37 4 48.48 6.32 48.48 6.32 47.12 0 47.12 0 48.48"/><rect class="cls-4" x="7.13" y="47.12" width="1.68" height="7.25"/><polygon class="cls-4" points="17.19 47.12 15.33 47.12 12.12 50.5 12.12 47.12 10.45 47.12 10.45 54.37 12.12 54.37 12.12 52.54 13.09 51.52 15.41 54.37 17.37 54.37 14.19 50.35 17.19 47.12"/><polygon class="cls-4" points="20.06 47.78 22.61 47.78 22.61 54.37 23.37 54.37 23.37 47.78 25.92 47.78 25.92 47.12 20.06 47.12 20.06 47.78"/><path class="cls-4" d="M27.28,46.63a.5.5,0,0,0-.39.16.58.58,0,0,0,0,.8.43.43,0,0,0,.22.12l-.36,1.5h.49l.45-1.43c0-.1.06-.18.08-.24a.67.67,0,0,0,0-.18,1,1,0,0,0,0-.17.57.57,0,0,0-.15-.4A.49.49,0,0,0,27.28,46.63Z"/><path class="cls-4" d="M35.35,48.1a3.63,3.63,0,0,0-1.21-.77,4.39,4.39,0,0,0-3,0,3.41,3.41,0,0,0-1.21.78,3.53,3.53,0,0,0-.8,1.17,3.65,3.65,0,0,0-.28,1.46,3.57,3.57,0,0,0,1.08,2.64,3.63,3.63,0,0,0,1.21.77,4,4,0,0,0,1.52.28,3.94,3.94,0,0,0,1.51-.28,3.63,3.63,0,0,0,1.21-.77,3.53,3.53,0,0,0,.8-1.17,4,4,0,0,0,0-2.94A3.53,3.53,0,0,0,35.35,48.1Zm.09,3.84a3.12,3.12,0,0,1-.64,1,2.86,2.86,0,0,1-1,.63,3.21,3.21,0,0,1-1.21.22,3.18,3.18,0,0,1-1.21-.22,3,3,0,0,1-1.61-4,3,3,0,0,1,.64-1,2.9,2.9,0,0,1,1-.63,3.18,3.18,0,0,1,1.21-.22,3.21,3.21,0,0,1,1.21.22,2.86,2.86,0,0,1,1,.63,3.16,3.16,0,0,1,.64,1,3.36,3.36,0,0,1,0,2.39Z"/><path class="cls-4" d="M42.36,47.41a4,4,0,0,0-1.58-.29H38.07v7.25h.76V52.08h2a3.81,3.81,0,0,0,1.58-.3,2.23,2.23,0,0,0,1-.86,2.37,2.37,0,0,0,.36-1.32,2.42,2.42,0,0,0-.36-1.34A2.21,2.21,0,0,0,42.36,47.41Zm0,3.52a2.5,2.5,0,0,1-1.65.47H38.83V47.78h1.93a2.5,2.5,0,0,1,1.65.48A1.63,1.63,0,0,1,43,49.6,1.61,1.61,0,0,1,42.41,50.93Z"/><polygon class="cls-4" points="50.62 47.12 50.62 50.35 46.08 50.35 46.08 47.12 45.31 47.12 45.31 54.37 46.08 54.37 46.08 51.02 50.62 51.02 50.62 54.37 51.37 54.37 51.37 47.12 50.62 47.12"/></g></g></svg>